<?xml version="1.0" standalone="no"?>
<!DOCTYPE svg PUBLIC "-//W3C//DTD SVG 1.1//EN" "http://www.w3.org/Graphics/SVG/1.1/DTD/svg11.dtd" >
<svg xmlns="http://www.w3.org/2000/svg" xmlns:xlink="http://www.w3.org/1999/xlink" version="1.1">
<metadata></metadata>
<defs>
<font id="flashdbolregular" horiz-adv-x="1024" >
<font-face units-per-em="2048" ascent="1550" descent="-498" />
<missing-glyph horiz-adv-x="512" />
<glyph horiz-adv-x="0" />
<glyph horiz-adv-x="682" />
<glyph unicode=" "  horiz-adv-x="512" />
<glyph unicode="&#x09;" horiz-adv-x="512" />
<glyph unicode="&#xa0;" horiz-adv-x="512" />
<glyph unicode="!" horiz-adv-x="553" d="M-91 142q0 29 41 91q18 27 22.5 37t22.5 62q22 63 65 67q38 4 127 -63q58 -43 74 -62t16 -44q0 -61 -37 -141q-40 -89 -52.5 -104t-45.5 -15q-22 0 -40 10t-60 45q-29 24 -60 40q-43 22 -58 38t-15 39zM62 565q0 7 39 104q78 184 94 228.5t71 229.5q8 27 36 117 q16 50 21 69q6 22 12.5 30.5t22.5 18.5q31 16 43 17q23 0 35.5 -5t36.5 -25q31 -24 47.5 -32.5t50.5 -17.5q10 -2 29 -23t27 -37q10 -23 10 -56q0 -30 -33 -99q-12 -27 -46 -131q-45 -136 -141 -344q-61 -130 -59 -136q-33 -90 -66 -90q-17 0 -70 25q-29 13 -71 54 q-10 9 -44 41q-45 41 -45 62z" />
<glyph unicode="&#x22;" horiz-adv-x="846" d="M169 996q0 9 29 72q52 114 120 237q28 50 31 55q23 45 38 45q36 2 83 -34q65 -51 66 -71q0 -8 -18 -40q-49 -87 -111 -245l-22 -53q-14 -44 -18 -51.5t-14 -12.5q-25 -10 -43 -10q-19 0 -43 24q-13 13 -18.5 15.5t-28.5 5.5q-14 1 -32.5 24t-18.5 39zM502 996q0 9 29 72 q53 115 119 237q17 27 32 55q23 45 38 45q35 2 83 -34q65 -51 66 -71q0 -7 -18 -40q-52 -92 -111 -245l-22 -53q-14 -43 -18 -51t-14 -13q-25 -10 -43 -10q-19 0 -43 24q-13 13 -18.5 15.5t-29.5 5.5q-13 1 -31.5 24t-18.5 39z" />
<glyph unicode="#" horiz-adv-x="1094" d="M-77 433q0 21 12 52t27 50q14 18 48 26t98 8l26 -1q11 0 13.5 2t8.5 15q3 5 27 61q50 118 50 122q0 11 -15 11q-8 0 -22 -1q-7 -1 -12 -1q-66 0 -88.5 10t-22.5 39q0 20 12 52t27 50q13 17 30 23t62 9q42 3 65 3l31 -1q18 0 24 23q31 79 63 157q71 158 80 177 q16 33 56 33q35 0 94 -25q41 -15 48 -19.5t7 -12.5q0 -13 -45 -120.5t-70 -154.5q-9 -17 -9 -25q0 -14 13.5 -25t31.5 -11q12 0 40 2q10 1 19 1q6 0 22 -1q15 -1 24 -1q33 0 47 27q4 8 44 144q2 5 81 187q14 34 55 34q35 0 95 -25q40 -15 47.5 -19.5t7.5 -13.5 q0 -10 -29 -83.5t-57 -134.5q-42 -90 -42 -107q0 -21 14 -20l127 8q12 1 24.5 -14.5t12.5 -30.5q0 -20 -14.5 -53.5t-32.5 -53.5q-14 -16 -44.5 -22t-98.5 -6q-11 0 -26 1q-19 1 -27 1q-17 0 -25 -9t-16 -38q-4 -11 -37 -94q-19 -49 -19 -54q0 -11 21 -11h11q20 1 40 1 q73 0 95.5 -9.5t22.5 -40.5q0 -58 -47 -112q-14 -17 -43 -22.5t-99 -5.5h-17q-41 2 -53 2q-15 0 -21.5 -6t-13.5 -24q1 -2 -25 -58q-70 -149 -87 -208q-27 -80 -51 -80q-2 0 -10 3q-20 7 -142 23q-28 3 -28 24q0 3 7 15q8 14 22 50q38 106 52 133q23 51 28 65q11 34 19 44 q5 7 5 9q0 12 -25 12h-8q-34 -2 -106 -3q-33 0 -39 -2t-12 -18q-6 -17 -28 -68q-67 -149 -87 -208q-27 -79 -51 -79q-2 0 -10 3q-20 7 -143 23q-27 3 -27 24q0 3 6 15q8 12 22 50q44 119 80 196q22 47 22 56q0 8 -12 8q-6 0 -15 -1h-13q-59 0 -80.5 10t-21.5 39zM373 577 q0 -12 22 -12q7 0 31 2q63 1 91 1q8 -1 12 -1q15 0 22.5 7.5t17.5 32.5q26 63 50 118q15 35 16 44q1 8 -17 9q-24 1 -42 2q-102 0 -113 -3q-14 -3 -28 -47q-5 -16 -19 -49q-29 -65 -27 -68q-8 -26 -12 -28q-4 -6 -4 -8z" />
<glyph unicode="$" horiz-adv-x="824" d="M-63 418q0 51 70 141q44 58 89 58q22 0 31.5 -6.5t19.5 -30.5q27 -59 42 -78.5t33 -19.5q32 0 65 20t33 39t-41 39q-137 66 -137 194q0 76 11.5 118.5t42.5 80.5q65 83 174 133q85 40 133 46q25 3 31.5 8.5t14.5 29.5q12 36 47.5 89.5t45.5 51.5l29 -4q34 0 41 -10 t11 -66l11 -55l-5 -29q-1 -7 -1 -14q0 -12 13 -21q6 -5 33 -27q34 -26 43 -37.5t9 -30.5q0 -65 -7.5 -101t-26.5 -65q-13 -20 -59 -37t-85 -17q-25 0 -43 8q-27 11 -26 19l7 48q0 4 -8 13t-12 9q-1 0 -52 -23q-13 -6 -30 -21t-17 -20q0 -17 127 -96q73 -47 73 -181 q0 -69 -16 -108t-65 -91t-76 -71t-141 -81q-54 -30 -75 -50t-44 -64q-11 -20 -13.5 -23t-29.5 -22l-33 -31q-46 -26 -50 -26q-12 0 -15 6.5t-4 34.5l-7 39l9 27l8 22q15 42 15 61q0 11 -1 12q-73 38 -132.5 102.5t-59.5 107.5z" />
<glyph unicode="%" horiz-adv-x="1558" d="M84 756q0 98 51 221t132 220q63 75 97 75q20 0 48 -32q6 -7 9 -7q2 0 10 9q4 3 26 17l19 14q42 25 49 25q34 0 73 -62q49 -80 49 -191q0 -80 -40.5 -175.5t-110.5 -183.5q-50 -62 -109 -99t-108 -37q-53 0 -134 76q-61 58 -61 130zM133 27q0 6 15 22q14 13 42 53 q61 86 257 335q303 384 442 572q119 158 256 328q32 39 47 48.5t46 10.5q33 0 87 -26q35 -15 42 -20.5t6 -15.5q-1 -8 -15 -23q-8 -4 -50 -65q-21 -33 -107 -136q-108 -131 -141.5 -173.5t-185.5 -247.5q-103 -138 -228 -295q-179 -225 -256 -330q-60 -83 -81 -83 q-3 0 -12 3q-25 8 -141 24q-23 3 -23 19zM286 752q5 6 28 34q18 21 53 83.5t47 95.5q30 84 30 93q0 5 -2 14t-2 20q-9 -16 -32 -47q-25 -32 -65.5 -130t-56.5 -163zM816 209q0 98 51 221t132 221q63 75 98 75q19 0 47 -32q6 -7 9 -7q2 0 11 9q4 3 26 17l19 14q42 25 49 25 q34 0 73 -62q49 -80 49 -192q0 -79 -40.5 -175t-110.5 -184q-50 -62 -109 -99t-109 -37q-53 0 -134 76q-61 58 -61 130zM1019 206q4 6 28 34q18 21 53 83.5t47 95.5q30 84 30 93q0 5 -2 13q-2 10 -3 21q-8 -16 -32 -47q-24 -32 -65 -130t-56 -163z" />
<glyph unicode="&#x26;" horiz-adv-x="1232" d="M-46 375q0 98 35.5 195.5t95.5 163.5q60 65 161 125q30 18 30 30q0 3 -11 20q-24 36 -24 107q0 75 56.5 145t176.5 142q179 108 303 108q96 0 187 -71q50 -39 71 -83.5t21 -109.5q0 -101 -64 -166q-30 -30 -72.5 -49.5t-78.5 -19.5t-86 34t-50 59q0 14 11.5 43.5 t27.5 56.5q2 4 2 10q0 16 -13 16q-5 0 -71 -43q-26 -17 -45 -53q-27 -52 -27 -70q0 -28 18 -54q8 -11 57 -33q24 -10 24 -45q0 -24 -16 -49q-9 -16 -16 -19.5t-26 -4.5q-51 -3 -107.5 -41.5t-100.5 -99.5q-28 -40 -38.5 -60t-38.5 -89q-41 -100 -41 -113q0 -20 31 -20 q25 0 36.5 4.5t53.5 30.5q75 47 84 60q19 28 18 31l-14 32q-9 20 -10.5 29t-1.5 45q0 28 26.5 47.5t87.5 35.5q115 32 191 43t178 11q86 0 116 -28q37 -34 37 -85q0 -12 -35 -87q-14 -30 -15 -38q-3 -31 -11.5 -34t-86.5 -5l-71 -12l-62 -1q-29 -3 -29 -19q0 -2 5 -12 q15 -29 15 -58q0 -19 -13.5 -48t-29.5 -43q-27 -25 -107.5 -77.5t-132.5 -78.5q-60 -31 -142.5 -51t-146.5 -20q-52 0 -93.5 24.5t-111.5 96.5q-71 72 -94 120.5t-23 124.5z" />
<glyph unicode="'" horiz-adv-x="513" d="M169 996q0 9 29 72q52 114 120 237q28 50 31 55q23 45 38 45q36 2 83 -34q65 -51 66 -71q0 -8 -18 -40q-49 -87 -111 -245l-22 -53q-14 -44 -18 -51.5t-14 -12.5q-25 -10 -43 -10q-19 0 -43 24q-13 13 -18.5 15.5t-28.5 5.5q-14 1 -32.5 24t-18.5 39z" />
<glyph unicode="(" horiz-adv-x="828" d="M88 406q0 217 92 439t259 408q90 101 191.5 187.5t130.5 88.5q22 1 54 -21.5t64 -61.5q68 -83 68 -111q0 -14 -10.5 -25.5t-72.5 -66.5q-189 -169 -328 -400q-134 -223 -134 -437q0 -92 27 -188.5t77 -187.5q13 -23 13 -42q0 -21 -11.5 -33t-79.5 -62 q-28 -20 -72.5 -38.5t-64.5 -18.5q-26 0 -54 39.5t-76 146.5q-33 73 -53 177.5t-20 206.5z" />
<glyph unicode=")" horiz-adv-x="828" d="M-163 30q0 14 11 26t71 66q190 168 329 400q134 223 134 437q0 91 -26.5 188t-77.5 188q-12 23 -12 42q0 21 14 35t100 76q95 40 113 41q28 -2 55.5 -41t74.5 -145q33 -73 53 -178t20 -206q0 -216 -92 -439t-258 -408q-90 -99 -193 -187.5t-130 -88.5q-50 0 -118 83 t-68 111z" />
<glyph unicode="*" horiz-adv-x="736" d="M206 1218q0 8 20 47t37 66q20 29 35 29q14 0 51 -26t65 -56q16 -17 23 -17q10 0 14 12.5t16 85.5q7 44 12 53t20 9q28 0 74 -11q63 -15 76 -22.5t13 -26.5q0 -27 -31 -110q-9 -24 -9 -33q0 -14 12 -14t30 7q82 25 106 28q15 0 24.5 -12.5t21.5 -48.5q17 -52 17 -100 q0 -21 -13.5 -29.5t-49.5 -10.5q-35 -3 -42 -3q-22 -2 -29 -2q-64 1 -64 -16q0 -3 42 -61q38 -51 38 -68q0 -24 -28 -48q-72 -59 -115 -59q-26 0 -43 24q-5 7 -20 51.5t-18 61.5q-7 38 -22 38q-6 0 -17 -10q-96 -85 -130 -85q-19 0 -40 29q-3 4 -25 34q-37 49 -37 67 q0 28 51 55q84 44 84 58q0 12 -52 35q-97 45 -97 79z" />
<glyph unicode="+" horiz-adv-x="1092" d="M113 648q0 50 30 94q12 19 38.5 25.5t89.5 6.5l181 -2h11l11 26q12 30 27 70q58 156 77 183t70 27q90 0 90 -44q0 -18 -17 -61l-40 -104q-32 -78 -40 -97h189q61 0 78.5 -7.5t17.5 -32.5q0 -51 -36 -100q-12 -16 -34 -21t-79 -5q-16 0 -74 2q-61 2 -89 2q-14 0 -40 -1 q-8 -22 -21 -52q-9 -23 -31 -84l-8 -22q-38 -106 -56.5 -127t-74.5 -21q-82 0 -82 40q0 15 22 72l75 192q-33 0 -121 -2h-79q-50 0 -67.5 9t-17.5 34z" />
<glyph unicode="," horiz-adv-x="472" d="M-178 105q0 37 41 143q27 72 40 92t31 20q7 0 83 -28q21 -8 33.5 -18.5t62.5 -66.5l52 -46q6 -10 6 -52q0 -105 -117 -191q-41 -30 -97 -56t-80 -26q-20 0 -20 18q0 34 27 83q9 17 14 32q-35 8 -55.5 34t-20.5 62z" />
<glyph unicode="-" horiz-adv-x="717" d="M-148 378q0 22 20 74t37 76q46 63 99 63q15 0 100 -4q13 -1 35 -1q21 0 66 1q155 4 366 4q70 0 64 -48q-3 -26 -70 -141q-42 -74 -108 -74l-182 4q-4 0 -57 -3q-32 -1 -77 -1q-41 0 -63 1q-70 4 -74 4q-101 -1 -104 -1q-21 1 -36.5 14.5t-15.5 31.5z" />
<glyph unicode="." horiz-adv-x="472" d="M-163 166q0 10 28 133q48 95 60 110.5t42 16.5q18 0 29.5 -6.5t62.5 -47.5q30 -24 64 -38q50 -22 68 -38t16 -38q-1 -18 -37 -84q-25 -46 -46 -100q-30 -77 -80 -77q-28 0 -113 59q-94 66 -94 110z" />
<glyph unicode="/" horiz-adv-x="602" d="M-288 -45q0 6 44 77q112 196 222 375q259 420 382 640q98 172 221 368q28 43 43 54t49 12q38 0 74 -16q25 -12 30 -14q34 -12 43 -19t9 -21q0 -19 -30 -69q-9 -14 -110 -181q-132 -206 -149 -234.5t-134 -237.5q-76 -135 -197 -331q-162 -261 -221 -368 q-31 -55 -45.5 -73.5t-29.5 -18.5q-7 0 -51 12l-76 10q-55 7 -64 14q-10 9 -10 21z" />
<glyph unicode="0" horiz-adv-x="992" d="M-17 368q0 112 42 265.5t107 277.5q130 250 261 358q44 35 63 36q23 0 54 -34q35 -39 44 -39l33 23l39 26l33 27q71 44 81 44q20 0 53.5 -32t59.5 -77q83 -145 83 -344q0 -207 -140 -462q-124 -226 -271 -340q-117 -91 -217 -91q-45 0 -98 33t-125 104q-102 101 -102 225 zM310 379q0 -26 12 -27q13 -1 54 59.5t109 180.5q40 71 82 183.5t44 155.5q1 18 -7.5 42t-16.5 25q-4 0 -65 -89q-20 -28 -68 -132t-67 -160q-48 -137 -53 -147q-24 -49 -24 -91z" />
<glyph unicode="1" horiz-adv-x="655" d="M-117 234q0 31 9.5 51.5t66.5 111.5q93 156 98.5 164.5t86.5 122.5q48 68 71 109q27 48 40 59q13 14 13 20q0 12 -37 15q-9 -1 -29 32q-13 19 -21 80q-2 24 -6 46q-4 19 -4 30q0 29 21.5 48.5t74.5 37.5q11 4 69 27q44 17 79 28q100 30 130 45q51 28 70 33q29 -2 80 -82 q32 -47 37.5 -58.5t5.5 -31.5q0 -19 -29 -82q-12 -26 -70 -156l-105 -186q-123 -218 -314 -532q-53 -88 -62 -110q-28 -55 -64 -55q-15 0 -22 5t-36 34q-18 19 -37 27.5t-53 12.5q-28 4 -43 52q-20 65 -20 102z" />
<glyph unicode="2" horiz-adv-x="942" d="M-122 199q0 3 8.5 32t12.5 39q12 30 67 67q87 59 286 245q75 70 136.5 143t123.5 168q65 97 65 119q0 11 -12.5 22t-24.5 11q-38 0 -170 -68q-34 -13 -43 -18q-5 -4 -29 -4l-37 -20q-4 0 -13 17q-59 114 -82 143q-29 42 -29 64q0 8 12.5 31t20.5 29q17 15 189 82 q36 14 107 26t119 12q126 0 219 -114q87 -105 87 -245q0 -86 -30 -155.5t-110 -169.5q-67 -84 -108 -124t-152 -131q-59 -50 -59 -54q0 -12 23 -12q5 0 72 17l56 2q58 12 70 12q15 0 23 -5.5t26 -27.5q16 -19 22 -31.5t25 -68.5l15 -38q0 -17 -22 -59q-19 -38 -20 -39 q-12 -34 -20.5 -37.5t-106.5 -17.5l-115 4l-112 -2q-97 -1 -101 -2l-104 -20q-127 -17 -141 -17q-26 0 -45.5 21.5t-45.5 78.5q-20 42 -27 50q-25 35 -26 45z" />
<glyph unicode="3" horiz-adv-x="859" d="M-167 205q0 52 70 176q19 34 34.5 46.5t41.5 13.5q90 0 111 -8q11 -3 16.5 -13t27.5 -63q12 -29 19 -37t22 -8q23 0 65.5 22t83.5 55q102 83 102 150q0 15 -9 32t-16 14l-27 -13q-59 -24 -66 -24q-23 0 -62 50q-53 65 -57 131q-3 45 -11 57l-5 10l19 27l6 20 q1 2 44.5 9.5t54.5 7.5l22 -1q30 0 50 18q5 4 71 62l67 61q47 39 47 45q0 7 -12 13.5t-26 6.5q-16 0 -80 -20q-111 -33 -149 -54q-28 -16 -42 -16q-28 0 -51 81q-4 14 -33 78q-13 30 -13 46q0 34 35 88q15 25 48 39t117 32q145 31 204 31q90 0 181 -50q26 -14 40 -33t52 -92 q37 -72 45.5 -96t8.5 -55q0 -49 -47 -129.5t-112 -143.5q-31 -29 -31 -39q0 -9 14 -27q20 -25 57 -82q26 -42 26 -96q0 -171 -193 -340q-107 -95 -213.5 -138t-232.5 -43q-66 0 -103 13.5t-103 61.5q-70 50 -89 72t-19 52z" />
<glyph unicode="4" horiz-adv-x="1065" d="M9 724q0 45 17.5 71t102.5 105q157 146 193.5 178t75.5 59q187 125 282 178t133 53q22 0 47 -19t39 -46q46 -89 46 -148q0 -41 -43 -62q-55 -26 -55 -38q0 -5 14 -16q7 -5 32 -33q6 -8 47 -45q47 -43 47 -80q0 -28 -39 -79q-21 -27 -36 -52q-24 -39 -41 -49 q-17 -13 -17 -15q0 -3 39 -17l49 3q17 -1 30.5 -24t13.5 -51q0 -26 -6.5 -42t-37.5 -65q0 -1 -8 -25q-13 -41 -30.5 -50t-103.5 -19l-68 -8q-31 4 -32 4q-18 -2 -37.5 -34.5t-93.5 -184.5q-43 -77 -64 -123q-8 -16 -21.5 -23t-51.5 -15q-29 -7 -47 -7q-30 0 -66 18 q-25 13 -32.5 21t-28.5 45q-4 9 -28 25q-44 28 -44 60q0 18 6 30.5t42 66.5q42 75 63 106q5 7 5 9q0 23 -77 24q-91 1 -122.5 20t-53.5 88q-40 123 -40 206zM379 715q0 -7 22 -14.5t44 -7.5q49 0 62 13l17 36l60 69q76 100 83 110t20 39l7 5q-66 -24 -77.5 -31.5 t-89.5 -79.5l-83 -69l-44 -49q-21 -17 -21 -21z" />
<glyph unicode="5" horiz-adv-x="881" d="M-163 258q0 53 57 143q28 45 42.5 56t64.5 24q45 12 89 12q36 0 60 -32t24 -80q0 -5 -3 -21q-2 -8 12.5 -20.5t25.5 -12.5q29 0 74.5 32.5t98.5 91.5q72 81 72 130q0 15 -7 20t-31 7q-41 5 -44 5q-12 0 -48 -14q-58 -23 -88 -23q-16 0 -26.5 11.5t-38.5 57.5 q-62 103 -62 136q0 11 64 140q77 142 87 161t48 106q29 68 57 97t64 29q13 0 82 -8q39 -4 182 -4q60 0 159 28q29 8 49 8q51 0 60 -84l6 -59q4 -33 4 -53q0 -44 -23.5 -71t-87.5 -56q-81 -37 -105 -44.5t-59 -7.5q-21 0 -93 15q-12 2 -24 2q-20 0 -38 -29q-24 -42 -24 -59 q0 -12 12 -12l71 2q24 0 66.5 -24.5t65.5 -50.5q31 -35 50 -107q25 -88 25 -141q0 -118 -104 -264q-127 -179 -329 -242q-152 -47 -226 -47q-90 0 -221 104q-90 72 -90 148z" />
<glyph unicode="6" horiz-adv-x="970" d="M-41 372q0 191 94 394t265 381q141 147 261 205q81 40 113 40q60 0 149 -99q58 -66 58 -97q0 -21 -17 -33.5t-70 -29.5q-46 -16 -80.5 -40.5t-115.5 -98.5q-53 -49 -63 -61.5t-24 -48.5q13 -2 14 -2l111 6q14 1 43 -23t54 -57q88 -115 88 -222q0 -111 -56.5 -229 t-147.5 -198q-178 -155 -335 -155q-65 0 -111.5 23t-101.5 82q-83 90 -105.5 136.5t-22.5 126.5zM291 352q0 -31 21 -31q25 0 101 103q36 49 56 91q22 44 22 48q1 23 -29 28q-6 1 -43 -9t-49 -16q-30 -15 -50 -99q-12 -52 -17 -65q-12 -30 -12 -50z" />
<glyph unicode="7" horiz-adv-x="775" d="M-98 224q0 27 22.5 60.5t157.5 208.5l141 174l119 150q127 157 155 185q16 15 16 22q0 14 -24 15q-5 0 -71 -20q-71 -21 -207 -21q-29 0 -41 17.5t-27 81.5q-24 102 -24 134q0 99 71 99l59 -2l71 2l81 -4l90 12q112 14 176 26q34 7 62 7q77 0 135 -110q13 -25 29.5 -78 t16.5 -71q0 -32 -35.5 -89t-250.5 -368l-165 -246q-242 -350 -254 -364q-38 -44 -61 -44q-24 0 -92 38q-25 11 -28 16.5t-9 47.5q-2 18 -51 45q-62 33 -62 76z" />
<glyph unicode="8" horiz-adv-x="1026" d="M-86 351q0 74 36.5 150t96.5 128q67 57 175 122q21 12 21 21q0 4 -10 16q-68 79 -68 160q0 99 59.5 193.5t157.5 150.5q56 33 115 48t158 22q36 3 47 3q33 0 52.5 -16t34.5 -55q21 -54 43 -95q33 28 49 66q24 56 60 56q35 0 95 -64q61 -66 61 -147q0 -67 -64 -149 q-122 -155 -211 -211q-47 -30 -60 -41.5t-13 -24.5q0 -5 7 -18q27 -48 37.5 -88.5t10.5 -96.5q0 -101 -58 -196.5t-161 -164.5q-171 -114 -339 -114q-128 0 -215 83q-51 50 -84 123.5t-33 138.5zM221 331q0 -16 28 -16q56 0 146 57q50 32 63.5 47t13.5 37q0 19 -2 25.5 t-15 21.5q-6 8 -16 23q-45 -15 -67.5 -32t-113.5 -103q-37 -58 -37 -60zM505 995q0 -7 15 -28q15 -32 28 -32q18 0 83 46t66 60q2 19 -74 21q-118 0 -118 -67z" />
<glyph unicode="9" horiz-adv-x="942" d="M-48 227q0 26 17.5 41t73.5 35q54 20 228 138q24 16 56 44.5t32 33.5q-1 6 -16 10q-5 1 -32 -5q-7 -2 -15 -2q-59 0 -118 63q-41 44 -67 103t-26 109q0 109 56.5 235t143.5 210q170 165 323 165q143 0 249 -118q48 -54 76 -126.5t24 -135.5q-6 -96 -52.5 -236.5 t-104.5 -237.5q-74 -122 -171 -224.5t-249 -218.5q-136 -103 -173 -103q-24 0 -68 38q-51 44 -70.5 56t-71.5 31q-21 8 -25.5 14.5t-10.5 40.5q-9 32 -9 40zM429 855q0 -29 33 -29q21 0 95 29q17 7 28 29t24 78q14 59 18 70q4 16 4 29q0 33 -21 32q-15 -1 -92 -80 q-89 -91 -89 -158z" />
<glyph unicode=":" horiz-adv-x="472" d="M-122 166q0 10 28 133q48 95 60 110.5t42 16.5q18 0 29.5 -6.5t62.5 -47.5q30 -24 64 -38q50 -22 68 -38t16 -38q-1 -18 -37 -84q-25 -46 -46 -100q-30 -77 -80 -77q-28 0 -113 59q-94 66 -94 110zM31 624q0 10 28 133q48 95 60 110.5t42 16.5q19 0 30 -6.5t62 -47.5 q30 -24 64 -38q50 -22 68 -38t16 -37q-1 -19 -37 -85q-25 -46 -46 -100q-30 -77 -80 -77q-28 0 -113 59q-94 66 -94 110z" />
<glyph unicode=";" horiz-adv-x="472" d="M-151 105q0 37 41 143q27 72 40 92t31 20q7 0 83 -28q21 -8 33.5 -18.5t62.5 -66.5l52 -46q6 -10 6 -52q0 -105 -117 -191q-41 -30 -97 -56t-80 -26q-20 0 -20 18q0 34 27 83q9 17 14 32q-35 8 -55.5 34t-20.5 62zM-24 517q0 9 29 133q47 96 59 111t43 16q18 0 29 -6.5 t62 -47.5q30 -24 64 -38q50 -22 68 -38t16 -38q-1 -19 -37 -84q-25 -46 -46 -100q-30 -77 -80 -77q-28 0 -113 59q-94 66 -94 110z" />
<glyph unicode="&#x3c;" d="M68 547v274l887 472v-326l-540 -284l540 -285v-326z" />
<glyph unicode="=" horiz-adv-x="1092" d="M63 512q0 49 30 93q12 19 38 25.5t90 6.5l181 -2h378q61 0 78.5 -7.5t17.5 -32.5q0 -51 -36 -100q-11 -15 -34 -20.5t-78 -5.5q-17 0 -75 2q-57 2 -87 2q-22 0 -65 -1q-81 -2 -195 -2l-79 -1h-79q-53 0 -69 8t-16 35zM162 784q0 50 30 94q13 19 39 25.5t89 6.5l182 -2 h377q61 0 78.5 -7.5t17.5 -32.5q0 -51 -36 -100q-11 -15 -34 -20.5t-78 -5.5q-10 0 -75 2q-61 2 -87 2q-18 0 -65 -1q-68 -2 -194 -2l-80 -1h-79q-52 0 -68.5 8t-16.5 34z" />
<glyph unicode="&#x3e;" d="M69 72v326l540 285l-540 284v326l887 -472v-274z" />
<glyph unicode="?" horiz-adv-x="791" d="M106 182q0 33 40 130q17 41 25.5 51.5t25.5 11.5q18 1 77 -49q47 -41 82 -65q41 -28 53.5 -45.5t12.5 -44.5q0 -39 -33 -126q-18 -47 -36 -62.5t-52 -15.5q-61 0 -139 68q-22 19 -39 64t-17 83zM205 567q0 55 49 141.5t176 255.5q103 140 138 217q-180 -68 -221 -68 q-54 0 -96 74q-40 72 -40 126q0 65 102 110q48 21 127 36.5t137 15.5q167 0 259 -154q48 -81 48 -168q0 -78 -36 -149q-36 -69 -69.5 -110.5t-200.5 -221.5l-7 -8q30 -7 51.5 -31t21.5 -52q0 -40 -29.5 -76t-94.5 -76q-83 -51 -126 -51q-23 0 -69 25.5t-72 52.5 q-48 51 -48 111z" />
<glyph unicode="@" horiz-adv-x="1365" d="M-57 385q0 160 82.5 357t204.5 326q147 157 332 245q210 101 395 101q69 0 143.5 -24t117.5 -60q60 -51 93.5 -143t33.5 -207q0 -213 -115 -411q-157 -273 -380 -273q-28 0 -44.5 3t-85.5 23q-60 15 -70 20t-28 31q-11 15 -19 15q-4 0 -15 -9q-24 -21 -59.5 -37 t-57.5 -16q-26 0 -61.5 28t-62.5 70q-41 64 -41 124q0 97 38.5 193.5t104.5 168.5q108 116 197 156q65 30 91 30q22 0 32 -36q11 -38 24 -38q6 0 30 50q16 32 60 32q23 0 35 -7t51 -43q15 -14 35 -26q41 -27 41 -45q0 -10 -35 -87q-60 -128 -75 -165.5t-45 -132.5 q-26 -81 -26 -145q0 -31 28 -31q29 0 69.5 32t75.5 81q66 96 110 218q48 133 48 225q0 121 -79 201q-77 78 -216 86q-94 5 -218 -39t-218 -116q-186 -143 -283 -363q-38 -87 -61 -186t-23 -175q0 -264 362 -264q80 0 120 6.5t180 42.5q53 14 71 14q19 0 38 -26.5t19 -53.5 q0 -39 -61 -63q-184 -70 -363 -70q-243 0 -386 105q-62 46 -98 128.5t-36 179.5zM556 600q0 -20 13 -20q1 0 45 24q44 36 48 40.5t6 30.5q-1 13 17 51q14 31 16 42q7 29 13 36q6 8 6 12q0 7 -8 7q-20 0 -49 -30q-34 -35 -45.5 -52t-26.5 -52q-17 -44 -25 -55 q-10 -19 -10 -34z" />
<glyph unicode="A" horiz-adv-x="994" d="M-135 227q0 17 18.5 61t38.5 75q27 43 27 59q0 9 -2 20q-6 31 -8 68l-4 28q0 19 16 34.5t47 25.5q36 11 47 22.5t30 54.5q14 31 15 38q1 9 17 18q26 16 59 96q26 58 57 97q27 33 46 69q14 29 96 129t165 191q47 51 62.5 62t39.5 11q12 0 18.5 -3.5t32.5 -23.5 q17 -13 47 -29q62 -32 95.5 -60.5t33.5 -49.5q0 -24 -32 -61q-10 -11 -10 -18q0 -8 18 -20q8 -5 34 -28q24 -21 31 -38q12 -32 12 -38t-3 -19q-5 -15 -7 -44q-14 -134 -66 -363t-125 -471q-26 -97 -33 -113t-27 -31q-24 -16 -38 -17q-12 0 -26 -6q-9 -4 -16 -4q-23 0 -66 26 q-13 7 -59 56q-10 11 -48 26q-43 18 -43 59q0 24 33 87l17 42l13 26q1 18 8 31q10 19 10 39t-61 21q-20 0 -33 -8q-12 -8 -37 -11q-28 -4 -35.5 -12t-29.5 -61q-25 -53 -52 -123q-33 -88 -50 -111t-48 -23q-13 0 -61 16q-53 17 -69 32t-48 79q-12 24 -36 52q-11 13 -11 35z M403 651q0 -24 28 -22l31 2q47 1 57.5 7t22.5 42q39 122 55 202q1 8 5 22q1 5 1 10q0 22 -15 24h-2q-28 0 -104 -127q-18 -30 -48.5 -91.5t-30.5 -68.5z" />
<glyph unicode="B" horiz-adv-x="1056" d="M-95 206l7 25q3 40 3.5 41.5t14.5 21.5q6 9 21 49q6 15 71 126q68 138 144 286q56 117 82 170q17 34 17 50q0 11 -4.5 16.5t-30.5 29.5q-8 8 -13.5 38t-5.5 68q0 93 8.5 121.5t41.5 46.5q126 66 370 66q171 0 275 -55q72 -37 116 -123q44 -83 44 -166q0 -98 -78 -208 q-31 -43 -48 -60t-85 -73q-21 -18 -21 -33q0 -13 29 -57q3 -5 10.5 -48t7.5 -57q0 -102 -200 -326q-72 -80 -145 -127.5t-125 -47.5q-55 0 -96 38q-40 37 -61 48q-22 23 -37 24q-22 0 -44 -36q-31 -51 -64 -51q-12 0 -16.5 3t-19.5 22q-1 2 -24 14q-19 13 -88 96 q-34 41 -43 50q-14 14 -13 18zM327 342q0 -14 21 -14q39 0 83.5 32t76.5 84q45 73 45 101q0 22 -14.5 28t-68.5 7q-24 0 -33 -10.5t-36 -75.5q-14 -32 -43 -85q-31 -55 -31 -67zM563 872q0 -16 19 -16q20 0 97 67t81 88q4 17 -26 32q-28 14 -61 14h-4q-26 0 -41 -20.5 t-30 -74.5q-13 -49 -22 -59q-13 -20 -13 -31z" />
<glyph unicode="C" horiz-adv-x="937" d="M-23 353q0 210 101 456q122 299 345 451q175 119 284 119h4q44 0 110 -32t116 -79q56 -50 56 -130q0 -82 -23.5 -161.5t-55.5 -104.5q-25 -20 -88.5 -42t-95.5 -22q-8 0 -12 4t-20 27q-25 2 -40 17.5t-15 40.5q0 31 26 85q30 63 30 83q0 26 -17 26q-28 0 -90 -72.5 t-107 -156.5q-153 -289 -153 -462q0 -35 15 -58t38 -23q33 0 126 40.5t117 64.5q12 12 15 11l23 -5l23 5q12 -1 34 -51q21 -48 21 -73q0 -42 -42 -119q-37 -69 -172 -135q-138 -66 -238 -66q-48 0 -90.5 24t-104.5 87q-79 80 -99.5 123t-20.5 128z" />
<glyph unicode="D" horiz-adv-x="1115" d="M-93 208q0 38 25 86t149 246q38 61 91 172t71 167q20 61 26 73q9 21 9 29q0 15 -23 38t-29.5 38t-6.5 42q0 13 1 33q3 46 3 60q0 51 6 73t23 39q20 20 54 30t103 16q179 15 219 15q180 0 285 -96q71 -66 119 -169q53 -113 53 -207q0 -59 -42 -179.5t-104 -241.5 q-147 -284 -410 -423q-135 -71 -189 -71q-14 0 -25.5 8.5t-45.5 41.5q-17 17 -37.5 31t-28.5 14q-10 0 -15.5 -6t-27.5 -41q-18 -30 -49 -30q-24 0 -46.5 15.5t-72.5 67.5q-85 88 -85 129zM361 373q1 -18 26 -18q33 0 85.5 50.5t107.5 136.5q76 118 126 247q49 124 53 160 q1 7 1 13q0 38 -30 62q-36 26 -106 27q-63 0 -63 -21q0 -5 33 -29q13 -10 13 -34q0 -63 -87 -274.5t-151 -302.5q-8 -12 -8 -17z" />
<glyph unicode="E" horiz-adv-x="905" d="M-98 291q0 25 8 46.5t55 124.5q41 101 68 145q15 23 16 30.5t3 75.5l-2 37q2 12 31 48q6 8 12 9.5t33 1.5q25 10 32 21l3 16l34 52q59 93 67.5 105.5t31.5 33.5q20 18 20 30q0 8 -21 77q-2 6 -2 30q0 97 40 117q26 14 126.5 26t182.5 12q159 0 234 -31q27 -11 39 -30 t25 -71q7 -27 24 -74q12 -33 12 -52q0 -28 -19 -51.5t-40 -23.5q-14 0 -55 26q-5 3 -26 4q-33 1 -43 4l-38 8l-56 -7q-32 -1 -36.5 -4.5t-41.5 -56.5q-26 -37 -38 -49q-6 -6 -9 -30q-30 -30 -34 -40q-11 -25 -10 -31q4 -14 55 -14h7q15 0 47 -3q31 -3 40 -3q50 -3 67 -17 t19 -53q1 -26 7 -81q1 -6 1 -14q0 -20 -16 -36q-17 -17 -36 -42q-6 -8 -23 -16.5t-25 -7.5l-78 11l-62 -5l-63 1h-49q-27 0 -37.5 -12.5t-51.5 -92.5q-6 -14 -29 -56q-27 -49 -27 -67q0 -20 26 -20h10q15 1 103 1l89 7l50 -2q31 7 36 7q18 0 33 -20q6 -9 14.5 -28.5 t8.5 -25.5q0 -9 -17 -43q-23 -45 -23 -78q0 -4 1 -10v-6q0 -7 -26 -32q-34 -38 -42.5 -41t-98.5 -13l-101 -16l-110 -4q-90 -7 -106 -7q-35 0 -56 13t-48 51q-115 159 -115 246z" />
<glyph unicode="F" horiz-adv-x="848" d="M-75 176q0 48 14.5 84t77.5 147q5 8 38 80q15 31 30 58q12 23 12 32q0 4 -3 12q-22 60 -22 103q0 33 17.5 54t45.5 23q23 2 33.5 11.5t18.5 34.5q12 44 54 134q28 86 28 93t-10 33q-11 29 -24 89.5t-13 82.5q0 29 50 51q44 19 136.5 35.5t173.5 20.5q103 4 116 5 q35 3 52 3q46 0 133 -64q55 -40 55 -88q0 -9 -1 -28q-1 -12 -1 -27q-1 -56 -12 -73.5t-45 -17.5q-8 0 -24 1q-35 2 -54 2q-99 0 -187 -15q-15 -3 -19 -10t-4 -28q-1 -55 -27 -125q-17 -45 -17 -58q0 -19 27 -19q6 0 53 6q23 3 61 3q29 0 42.5 -10t30.5 -43q7 -16 17.5 -54 t10.5 -51q0 -11 -22 -35q-5 -4 -26 -36q-38 -57 -62 -57q-2 0 -8 1q-13 2 -26 2q-9 0 -37 -2q-62 -5 -111 -5q-13 0 -32 2q-6 1 -8 1q-18 0 -28 -31q-18 -57 -74 -190l-57 -139q-53 -129 -63 -152t-19 -31q-15 -14 -47 -14q-17 0 -26 5.5t-23 25.5q-42 58 -119 63 q-25 1 -34.5 5.5t-19.5 20.5q-22 36 -22 79z" />
<glyph unicode="G" horiz-adv-x="1081" d="M-7 393q0 230 121 475q138 281 346 406q145 87 282 87h3q121 0 209 -79q95 -85 95 -202q0 -104 -95 -177q-39 -30 -69 -30q-60 0 -131 29q-45 18 -45 60q0 8 19 57q4 12 4 24q0 24 -19 24q-26 0 -99 -85.5t-117 -166.5q-108 -201 -141 -326q-27 -99 -27 -146q0 -10 7 -19 t16 -9q20 0 114 119q50 64 50 84q0 5 -5 23q-7 28 -7 66q0 47 9.5 61.5t49.5 29.5q30 12 38 14t28 4q10 0 124 7q117 5 131 5q36 0 62 -33t26 -79q0 -49 -36 -118q-17 -34 -26 -40.5t-40 -8.5q-77 -6 -78 -22q0 -1 8 -13q15 -21 15 -80q0 -14 -94 -145q-155 -130 -195 -156 q-85 -56 -143 -56q-107 0 -235 106q-83 68 -119 140.5t-36 169.5z" />
<glyph unicode="H" horiz-adv-x="1137" d="M-51 234q0 21 53 160q30 79 38 102q25 70 33 89q13 30 13 42q0 2 -11 78l-8 45q0 20 10 30t43 20q32 11 42 20.5t18 37.5q38 90 96 235l63 131q52 119 66 135q31 35 81 35q40 0 63.5 -16t99.5 -92q42 -39 49 -48.5t7 -27.5q0 -17 -9.5 -39.5t-66.5 -137.5l-42 -78 q-25 -50 -28 -54q-9 -13 -9 -17q0 -20 33 -20q12 0 31 4q8 2 44 4q18 0 23.5 5t12.5 26q0 11 31 70q15 27 51 106q46 101 55 118q42 82 47 94q21 49 39.5 68.5t44.5 19.5q32 0 77 -41q43 -39 52 -50t20 -36q52 -124 52 -151q0 -21 -22 -61q-43 -83 -224 -495 q-77 -176 -126 -469q-2 -37 -9.5 -51.5t-30.5 -28.5q-33 -21 -65 -21q-22 0 -35 7t-69 50q-85 31 -103 47q-36 33 -36 71q0 25 12 61q29 87 65 214q36 104 36 115q0 16 -19 21q-8 2 -45 -14q-15 -7 -43 -8q-22 -1 -28.5 -6.5t-14.5 -29.5q-8 -27 -27 -79q-31 -89 -67 -226 q-31 -100 -39 -134q-8 -38 -25 -55t-45 -17q-12 0 -18.5 4t-32.5 27q-16 11 -80 22q-30 6 -42 17.5t-32 52.5q-49 100 -49 119z" />
<glyph unicode="I" horiz-adv-x="603" d="M-89 171q0 19 17 68q8 22 26 78q30 94 42.5 126.5t84.5 201.5q24 55 87 219q87 227 131 302q39 69 39 85q0 3 -1 4q2 20 6 27.5t22 24.5q40 37 57 38h1q15 0 65 -22q52 -23 86 -45q38 -25 60 -68t22 -58q0 -10 -13 -35q-10 -20 -33 -75q-22 -52 -65 -143 q-57 -120 -67 -143.5t-75 -195.5l-53 -132l-46 -145l-35 -96q-28 -118 -37 -138.5t-36 -31.5q-8 -3 -21 -9q-60 -28 -104 -28q-10 0 -13 3t-12 21l-20 25q-35 54 -40.5 60.5t-29.5 20.5q-27 18 -36 30t-9 31z" />
<glyph unicode="J" horiz-adv-x="868" d="M-177 231q0 38 30.5 131t67.5 170q24 49 72 72q54 27 85 29q36 2 38 3l46 13q6 -3 17 -24q8 -16 14 -20.5t28 -10.5q9 -2 9 -23q0 -36 -48 -159q-25 -77 -25 -90q0 -26 17 -26t71 78t86 151q97 221 246 667q34 104 45.5 124.5t37.5 27.5q34 9 70 9q25 0 39 -8.5t54 -47.5 q56 -56 69.5 -76t13.5 -47q0 -17 -29 -131.5t-48 -173.5q-86 -266 -164.5 -432.5t-163.5 -262.5q-79 -89 -174.5 -141.5t-178.5 -52.5q-96 0 -223 107q-59 50 -80.5 80.5t-21.5 63.5z" />
<glyph unicode="K" horiz-adv-x="1068" d="M-77 194q0 29 19 76q13 31 34 84q54 137 172 409q43 97 97.5 243.5t75.5 219.5q30 102 48 131t53 29q32 0 70.5 -12.5t121.5 -49.5q68 -30 68 -82q0 -35 -31 -104q-31 -71 -38 -87q-28 -68 -41 -89q-22 -36 -22 -64q0 -25 20 -25q24 0 97 84q54 61 175 238 q101 143 121 167t39 24q8 0 37 -15.5t44 -27.5q23 -19 50 -83.5t27 -101.5q0 -35 -19.5 -75t-68.5 -109q-67 -91 -88 -124q-39 -60 -54.5 -77t-59.5 -48q-70 -49 -83 -54q-22 -10 -27.5 -16.5t-5.5 -23.5q0 -27 19 -217q12 -122 27 -171t72 -158q10 -19 10 -36t-16 -39 q-4 -7 -31 -12l-27 -10q-62 0 -70.5 -1.5t-35.5 -14.5q-68 -34 -88 -34q-23 0 -56 16t-57 39q-24 24 -35.5 61t-21.5 125q-11 96 -11 165l2 106q0 27 -6.5 46.5t-15.5 20.5h-1q-18 0 -41 -89q-13 -51 -53.5 -164.5t-63.5 -167.5q-45 -101 -70 -101q-6 0 -29 16 q-27 20 -88 26q-37 4 -47 10t-33 35q-48 61 -56 75t-8 37z" />
<glyph unicode="L" horiz-adv-x="822" d="M-57 266q0 7 51 158q32 96 47.5 134.5t60.5 134.5q74 157 96 208q70 158 84 187t113 209q27 50 40 62t40 13h5q31 0 73 -22q11 -6 69 -58q59 -55 74 -73.5t15 -37.5q0 -14 -44 -86q-40 -68 -129 -257q-115 -241 -147 -344q-26 -83 -45 -135q-3 -9 -3 -19q0 -25 47 -25 q28 0 98 12q49 9 60 11q36 6 46 10q14 6 19 6q19 0 47 -37.5t28 -63.5t-19.5 -81.5t-38.5 -83.5q-15 -23 -34.5 -31.5t-120.5 -39.5l-99 -17q-105 -22 -116 -22q-18 0 -73 6.5t-63 9.5q-22 8 -60.5 49t-53.5 72q-67 134 -67 151z" />
<glyph unicode="M" horiz-adv-x="1430" d="M-99 236q0 52 40.5 147.5t156.5 315.5q67 133 134 261q112 221 235 400q37 54 95 54q26 0 45 -9.5t105 -68.5q58 -39 74.5 -67.5t16.5 -89.5q0 -152 -12 -204q-1 -5 -1 -9q0 -18 12 -18q8 0 20 22q14 28 87 121t133 160q126 143 177 143q35 0 142 -119q33 -37 53 -75 q19 -36 19 -61q0 -17 -18 -58q-129 -366 -176 -544q-47 -183 -62.5 -268.5t-23.5 -205.5q-2 -32 -16 -45.5t-67 -34.5q-42 -21 -52 -21q-32 0 -114 64q-92 72 -92 131q0 5 25 149q15 85 97 291q29 73 29 89q0 10 -9 12q-7 2 -17 -16q-20 -36 -94 -159l-58 -112 q-80 -151 -94.5 -181.5t-23.5 -66.5q-14 -52 -29 -71.5t-41 -19.5q-39 0 -92 54q-35 35 -41 38q-42 34 -52.5 49.5t-10.5 43.5q0 16 19 138l21 94q22 139 43 227q19 80 17 89l-3 15q-27 -22 -32 -29t-15 -38q-32 -102 -43.5 -133.5t-78.5 -198.5q-46 -118 -98 -299 q-35 -118 -83 -118q-15 0 -23.5 5.5t-43.5 38.5q-15 13 -25.5 16t-54.5 3q-35 0 -70 64q-30 58 -30 105z" />
<glyph unicode="N" horiz-adv-x="1102" d="M-72 254q0 65 140 367q181 397 245 670q11 44 34.5 64.5t61.5 20.5q12 0 21.5 -4t53.5 -29q7 -4 58 -23q54 -21 68.5 -47t20.5 -115q10 -134 10 -239q0 -120 14 -120q5 0 41 114q48 151 126 332q49 113 87 113t151 -102q67 -61 78.5 -77t9.5 -41q-2 -20 -18 -53.5 t-109 -212.5q-20 -38 -95 -230.5t-97 -264.5q-88 -277 -99 -320q-18 -78 -66 -78q-33 0 -127 50q-67 37 -86 60t-19 70l3 105l-1 172v78q-14 121 -18 131q-7 1 -36 -112q-19 -71 -97 -303q-32 -95 -38 -130q-22 -107 -74 -107q-33 0 -63.5 21t-46.5 54q-16 35 -21.5 41.5 t-43.5 33.5q-29 21 -48.5 52.5t-19.5 58.5z" />
<glyph unicode="O" horiz-adv-x="1105" d="M-14 322q0 103 30 244t73 241q51 116 132 238t147 181q156 139 181 155q21 15 61 21l36 8q24 -3 71 -66q37 -50 47.5 -60t23.5 -10q5 0 51 22q24 12 52 12q29 0 46.5 -13t35.5 -49q76 -146 76 -313q0 -216 -119 -456q-124 -252 -320 -391q-167 -119 -281 -119 q-43 0 -88.5 27.5t-125.5 101.5q-81 76 -105 117.5t-24 108.5zM326 346q0 -42 21 -42q19 0 88.5 95.5t123.5 195.5q74 137 100.5 207t26.5 130q0 25 -10 43t-25 18q-23 0 -98 -119q-67 -105 -97 -168t-77 -194q-28 -79 -42 -114q-11 -27 -11 -52z" />
<glyph unicode="P" horiz-adv-x="1062" d="M-71 189q0 29 17 74.5t118 291.5q133 303 150 338.5t76 131.5q22 36 22 59q0 9 -7 29q-9 27 -20.5 70.5t-10.5 51.5q3 45 126 84t263 39q137 0 208.5 -23t134.5 -87q51 -53 81.5 -122t30.5 -133q0 -114 -129 -295q-125 -177 -273 -270q-104 -66 -135 -66q-34 0 -80 72 q-49 77 -60 79q-20 0 -51 -109q-14 -48 -40 -116q-39 -103 -76 -222q-29 -91 -90 -91q-21 0 -31.5 6.5t-47.5 44.5q-27 26 -107 69q-69 38 -69 94zM553 794q0 -18 11 -19q1 0 58 33q45 26 60 40.5t54 73.5q49 72 50 78q2 14 -10.5 25t-32.5 11q-12 0 -55 -12 q-26 -5 -29 -7.5t-12 -24.5q-2 -5 -29 -50q-14 -22 -39.5 -80.5t-25.5 -67.5z" />
<glyph unicode="Q" horiz-adv-x="1073" d="M-3 373q0 216 102 461q61 144 160 258.5t255 219.5q134 91 199 91q80 0 173 -102q71 -79 71 -104t-70 -60q-20 -11 -20 -16q0 -4 21 -15q8 -5 61 -43q59 -43 59 -146q0 -73 -25.5 -193t-59.5 -206q-26 -65 -40 -93t-51 -84q-13 -20 -13 -34q0 -20 23 -68t47 -77 q28 -34 36 -51.5t8 -42.5q0 -31 -12 -52t-50 -54q-21 -17 -58 -55q-59 -61 -100 -61q-31 0 -46 18.5t-70 120.5q-20 48 -25 55.5t-13 8.5q-5 0 -19 -13q-28 -28 -79 -47.5t-95 -19.5q-99 0 -226 120q-79 74 -111 138t-32 146zM342 336q0 -32 22 -32q9 0 41 44q5 6 17 21 q25 28 25 37l-1 64q5 64 16 78.5t66 29.5q24 6 29 11t14 26q94 231 94 318q0 49 -21 47q-11 -1 -53.5 -50.5t-67.5 -91.5q-134 -222 -156 -368q-10 -72 -16 -87q-9 -28 -9 -47z" />
<glyph unicode="R" horiz-adv-x="1106" d="M-46 234q0 22 72 220l98 225q122 292 159 367q20 41 20 60q0 14 -16 55q-19 50 -19 110q0 46 9 50l35 15q16 12 21 13.5t47 6.5q7 1 50 14q22 7 134 17t166 10q84 0 161.5 -30t128.5 -82q47 -48 79 -125t32 -142q0 -66 -33 -128t-111 -145q-83 -87 -167 -128 q-48 -24 -56 -31.5t-8 -27.5q0 -53 29 -178q25 -110 37 -143q4 -11 55 -83q15 -22 15 -51q0 -32 -9.5 -41.5t-65.5 -33.5l-49 -26q-93 -38 -105 -38q-28 0 -78 42t-81 91q-61 99 -67 283q-4 147 -13 147q-3 0 -46 -142q-76 -252 -102 -317t-51 -65q-12 0 -64 36 q-28 18 -87 28q-28 5 -39 14.5t-32 45.5q-37 64 -43 77.5t-6 29.5zM569 882q0 -19 14 -19q8 0 23 12q12 11 64 36q45 22 89.5 64t48.5 66q1 4 1 7q0 31 -49 34q-90 0 -103 -9q-9 -6 -38 -86q-5 -18 -25 -50q-25 -43 -25 -55z" />
<glyph unicode="S" horiz-adv-x="960" d="M-125 246q0 31 50 102q30 43 37 55q17 30 23 34.5t35 12.5l19 8l54 1l44 3q24 0 42 -19t20 -47q3 -42 9 -54.5t24 -12.5q6 0 67 19q69 37 84 50.5t15 36.5q0 25 -54 66q-30 22 -78 73t-76 90q-44 61 -44 149q0 112 24 188.5t77 135.5q93 105 240 166t304 61 q102 0 159 -54q42 -40 70.5 -98.5t28.5 -105.5q0 -54 -48 -122q-44 -61 -65 -104q-14 -29 -28 -37.5t-48 -8.5q-86 0 -165.5 29.5t-79.5 61.5q0 15 31 67q14 23 14 30q0 11 -11 13q-3 1 -11 -5q-22 -15 -44 -25q-70 -33 -85 -47q-35 -31 -35 -48q0 -12 18.5 -30t124.5 -107 q87 -75 113 -131q33 -73 33 -150q0 -142 -98 -274q-92 -123 -331 -199q-123 -39 -200 -39q-51 0 -90.5 26t-89.5 93q-79 104 -79 147z" />
<glyph unicode="T" horiz-adv-x="714" d="M-19 211q0 22 47 165l81 187q74 195 90 234t55 119q32 64 32 81q0 24 -19 24q-6 0 -21 -8q-13 -8 -43 -17t-41 -9q-32 0 -46.5 23.5t-19.5 85.5q-1 11 -14 79q-6 30 -6 54q0 63 75 81q77 19 170.5 28.5t265.5 15.5l116 6q40 0 55.5 -11.5t69.5 -80.5q56 -81 56 -94 q0 -8 -41 -87q-19 -37 -67 -37q-18 0 -72 2h-27q-23 0 -59 -10l4 -21q15 -68 15 -70q0 -15 -15 -44q-65 -130 -113 -261.5t-121 -380.5l-62 -174q-12 -64 -29 -89t-48 -25q-14 0 -76.5 23t-80.5 35q-31 21 -71 84t-40 92z" />
<glyph unicode="U" horiz-adv-x="1115" d="M37 363q0 126 28 246.5t97 290.5q137 337 155 364q12 19 28.5 28t99.5 45q51 22 79 22q16 0 23 -5.5t25 -33.5q10 -16 18 -22.5t52 -34.5q30 -18 30 -32q0 -6 -14 -26q-10 -9 -33 -76q-8 -24 -56 -140q-77 -187 -137 -377t-60 -246q0 -27 8.5 -45.5t19.5 -18.5 q18 0 74.5 92t112.5 213q53 114 79.5 185.5t62.5 197.5q72 246 75 264q10 59 23.5 81t40.5 22q35 0 167 -92q36 -26 51.5 -57.5t15.5 -79.5q0 -124 -66 -337t-156 -384q-127 -238 -258 -342q-110 -87 -213 -87q-67 0 -141.5 34.5t-131.5 91.5q-99 100 -99 259z" />
<glyph unicode="V" horiz-adv-x="997" d="M30 210q0 25 6 58q18 106 62 391q66 408 84 479q34 108 35 135q4 54 15 68t59 23q57 11 59 12q44 12 55 12q39 0 136 -80q44 -36 44 -81q0 -38 -36 -153q-17 -55 -54 -189q-57 -209 -60 -217q-30 -104 -28 -115l2 -12q24 21 32.5 34.5t32.5 67.5q12 26 76 141 q59 110 122 265q89 214 91 225q15 61 34 83.5t56 22.5q80 0 137 -95q38 -62 80 -121q20 -29 20 -53q0 -19 -51 -131.5t-87 -174.5q-66 -113 -186.5 -282t-219.5 -286q-102 -122 -119 -144q-48 -65 -79.5 -90t-63.5 -25q-71 0 -178 108q-45 46 -60.5 71t-15.5 53z" />
<glyph unicode="W" horiz-adv-x="1406" d="M40 197q0 20 8 54q9 45 48 312q33 228 73 446q20 113 27 173q14 107 22 131t37 39q56 31 106 31q32 0 96 -62q31 -30 43 -38q37 -30 41 -45l-16 -92q-10 -58 -45 -155q-25 -72 -47 -162q-22 -94 -27 -112q-18 -61 -18 -68q0 -29 15 -29q22 0 107 176q79 165 128 256 q47 85 63 125t24 88q13 76 54 76q54 0 130 -66q49 -43 54 -45q31 -23 31 -43q0 -26 -40 -219q-5 -15 -20 -138q-11 -91 -15 -117t-4 -50q0 -42 12 -42q16 0 44 86q9 25 54 131q40 93 72 191q35 107 45 130q30 75 33 87q10 34 19 46.5t31 22.5q66 32 81 32q14 0 27.5 -9 t79.5 -63q61 -48 72 -64q24 -35 24 -73q0 -17 -4 -24.5t-27 -32.5q-1 0 -6 -30q5 -3 -22 -46q-9 -16 -71 -152q-1 -15 -100 -187q-50 -86 -99 -178q-87 -158 -199 -339q-69 -122 -83 -139q-31 -37 -58 -37q-16 0 -28.5 6.5t-68.5 46.5q-64 44 -79 59q-46 46 -46 88l3 33 l6 87q13 91 29 214q9 31 9 47q0 25 -12 25q-6 0 -32 -46q-13 -22 -82 -135l-83 -141l-69 -115q-59 -97 -73 -112q-20 -21 -52 -21q-34 0 -86 50q-31 30 -53 43q-56 35 -69.5 50t-13.5 45z" />
<glyph unicode="X" horiz-adv-x="951" d="M-138 270q0 30 14.5 54t100.5 137l123 148q83 101 92 111t80 80q21 21 21 45q0 10 -7 31q-7 20 -32 119q-20 70 -32 114q-22 77 -22 106q0 23 34 56q21 20 31.5 26t50.5 18q61 35 97 49t67 14q45 0 60 -83q2 -13 16 -66q14 -50 15 -67q7 -64 25 -64q6 0 17 14 q17 18 53 49q101 86 152 142q53 58 89 58q31 0 55 -28.5t52 -98.5q31 -78 31 -123q0 -28 -21 -52t-133 -129l-105 -104q-85 -79 -99 -95t-14 -35q0 -6 7 -29q10 -21 14 -102q6 -106 28 -284q6 -45 6 -97q0 -41 -10 -60.5t-43 -45.5q-41 -32 -118 -95q-31 -25 -53 -25 q-5 0 -58 18.5t-58 22.5q-30 20 -30 93q0 69 17 188q3 111 3 117q0 27 -15 31q-6 1 -19 -25q-9 -20 -36 -56q-38 -53 -117 -185l-47 -77q-6 -10 -23 -44q-22 -43 -50 -43q-47 0 -75 67q-15 38 -23.5 43.5t-34.5 21.5q-19 11 -60 22q-16 4 -16 118z" />
<glyph unicode="Y" horiz-adv-x="907" d="M-29 125q0 26 15.5 45.5t83.5 80.5q35 32 85.5 89t72.5 90q47 72 47 78q0 15 -53 44q-41 24 -56.5 58.5t-27.5 128.5q-24 194 -24 299q0 72 8.5 157.5t18.5 118.5q16 52 136 52q39 0 56 -5t82 -36q42 -19 54 -26q34 -20 34 -56q0 -2 -21 -116q-16 -79 -19 -106t-3 -108 q0 -25 7.5 -43.5t18.5 -18.5q17 0 55 98q9 27 54 121q75 160 102 253q25 89 82 89q42 0 113 -58q95 -78 95 -143v-5q-3 -50 -52 -188q-43 -121 -218 -440q-72 -132 -109 -188.5t-187 -262.5q-96 -138 -112 -154q-37 -38 -83 -38q-24 0 -45 12q-34 19 -36 20l-59 -5 q-10 1 -32.5 20t-36.5 39q-46 63 -46 104z" />
<glyph unicode="Z" horiz-adv-x="887" d="M-136 195q0 31 54 107q66 92 106.5 141t170.5 194l181 202l106 110q28 37 40 47q14 13 14 18q0 14 -23 14q-7 0 -65 -19q-81 -11 -99 -15t-39 -18q-18 -12 -23 -12q-12 0 -39 29q-11 12 -18 73q-4 32 -20 69q-26 62 -26 78q0 34 66 65q9 4 89.5 21.5t130.5 25.5 q34 6 151.5 14t165.5 8q32 0 57 -11q10 -4 22 -33l30 -42l27 -56q27 -52 31.5 -63.5t3.5 -30.5q-3 -51 -74 -140q-64 -81 -185 -245q-103 -134 -250 -310q-45 -56 -45 -67q0 -20 23 -20q17 0 57 12q5 1 67 5q13 0 52 6q21 4 32 3q23 0 65 -42q47 -46 47 -78q0 -20 -26.5 -75 t-50.5 -83q-17 -22 -23.5 -25.5t-28.5 -5.5q-9 -1 -97 -7h-36q-242 0 -364 -38q-99 -26 -110 -26q-35 0 -65 64q-24 49 -74 124q-8 12 -8 32z" />
<glyph unicode="[" horiz-adv-x="612" d="M-285 -111q0 11 16 40q5 9 14 36q10 28 76 184l52 134q159 383 332 843q115 315 138 349q10 14 36.5 20t83.5 6q1 0 14 -1q15 -1 25 -1q12 0 140 3h43q102 0 140.5 -6.5t38.5 -23.5q0 -12 -10 -30q-6 -5 -45 -100q-17 -45 -60 -45q-5 0 -63 4q-9 1 -18 1q-34 0 -46.5 -5 t-21.5 -23q-27 -50 -42 -86.5t-80 -205.5q-42 -109 -100 -256q-79 -197 -184 -476q-50 -125 -57 -138q-9 -14 -9 -17q0 -10 23 -17.5t53 -6.5q104 3 104 -50q0 -11 -32 -87q-25 -48 -32.5 -56t-30.5 -8q-2 0 -42 3q-20 1 -44 1q-9 0 -285 -9q-53 -2 -87 -2q-40 0 -40 26z " />
<glyph unicode="\" horiz-adv-x="956" d="M110 1445q0 24 9.5 31t53.5 12q45 8 64 8q85 0 106 -63q57 -170 129 -443q73 -287 203 -717q63 -211 81 -284q14 -56 20 -67q3 -8 3 -10q0 -13 -9.5 -22.5t-22.5 -7.5l-125 17q-49 0 -59 4q-11 7 -19.5 27.5t-22.5 78.5q-15 62 -82 277q-56 182 -104 370 q-57 222 -67 257.5t-85 271.5q-73 251 -73 260z" />
<glyph unicode="]" horiz-adv-x="612" d="M-291 -107q0 12 10 30q7 8 45 101q17 44 60 44q7 0 63 -4q9 -1 18 -1q34 0 46.5 5t21.5 23q27 50 42 86.5t80 205.5q42 111 100 256q79 198 184 476q50 125 57 138q9 14 9 17q0 10 -23 17.5t-53 6.5q-104 -3 -104 50q0 11 32 87q25 48 32.5 56t30.5 8q2 0 42 -2 q19 -1 44 -1q11 0 285 9q48 1 87 1q40 0 40 -26q0 -11 -16 -40q-5 -9 -14 -36q-10 -28 -76 -183l-52 -134q-156 -376 -332 -843q-115 -315 -138 -348q-10 -15 -36.5 -21t-82.5 -6q-3 0 -15 1h-25l-183 -3q-102 0 -140.5 6.5t-38.5 23.5z" />
<glyph unicode="^" d="M26 711l304 663h364l304 -663h-289l-197 442l-197 -442h-289z" />
<glyph unicode="_" d="M-369 -190h1011v-178h-1011v178z" />
<glyph unicode="`" d="M568 1452q0 25 72 52q44 17 101 31.5t73 14.5q36 0 53 -19q11 -12 16 -29.5t22 -112.5l22 -111q3 -77 3 -80q0 -38 -82 -38q-33 0 -75 39q-10 9 -62 76q-10 14 -59 63q-57 57 -70.5 75.5t-13.5 38.5z" />
<glyph unicode="a" horiz-adv-x="907" d="M-92 295q0 131 59 279q29 72 70 129t118 130q116 112 224 159q69 30 99 30t44 -48q14 -50 31 -50q8 0 40 66q21 42 79 42q30 0 45.5 -9t67.5 -57q20 -18 47 -35q55 -36 55 -63q0 -10 -10 -30q-9 -18 -37 -82q-16 -35 -51 -110q-50 -106 -65.5 -152t-47.5 -183 q-25 -104 -29.5 -131.5t-13.5 -121.5q-5 -55 -20.5 -72t-68.5 -26q-6 1 -40 21q-13 8 -62 19q-81 18 -93 33q-5 5 -23 31t-25 20q-6 0 -19 -12q-32 -27 -79 -48.5t-76 -21.5q-35 0 -82.5 37t-82.5 93q-54 84 -54 163zM239 364q0 -26 18 -26q1 0 58 33q60 47 64.5 53t7.5 40 q-1 16 22 68q18 39 22 56q9 38 17 48t8 16q0 9 -11 9q-26 0 -65 -40q-45 -47 -60 -69t-34 -69q-24 -59 -33 -74q-14 -25 -14 -45z" />
<glyph unicode="b" horiz-adv-x="919" d="M-141 238q0 26 9 49.5t58 118.5q140 300 236 586q41 120 76 222q35 98 39 129q11 56 28.5 78.5t49.5 22.5q14 0 24 -5t58 -35q101 -53 114 -67q35 -35 35 -73q0 -37 -19 -104t-43 -114q-19 -36 -19 -62q0 -18 13 -18q9 0 39 24q16 12 56 20l37 9q22 0 65 -39t67 -79 q23 -42 41 -108.5t18 -114.5q0 -87 -75 -232t-187 -274q-155 -179 -232 -179q-33 0 -82 32q-12 7 -46 61q-36 45 -44 48q-6 0 -21.5 -21t-21.5 -38q-10 -31 -18.5 -39t-49.5 -28q-14 0 -58 34t-80 73q-67 73 -67 123zM251 358q0 -12 15 -12q29 0 68.5 35.5t84.5 99.5 q27 39 61 102t34 74q0 22 -30 24q-11 1 -23 -10q-18 -15 -20 -16t-20 -5q-31 -6 -59 -53t-73 -170q-13 -33 -31 -55q-7 -9 -7 -14z" />
<glyph unicode="c" horiz-adv-x="778" d="M-100 312q0 155 105 334q114 194 305 287q112 55 171 55q40 0 99 -25.5t104 -62.5q39 -32 51.5 -63t12.5 -98q0 -69 -12 -105t-45 -65q-29 -25 -66.5 -46t-53.5 -21q-12 0 -36 11q-32 14 -40 17q-59 24 -59 50q0 8 20 47q19 42 19 52q0 16 -15 16q-6 0 -56 -34 q-16 -11 -49 -58.5t-59 -95.5q-51 -97 -51 -156q0 -63 67 -63q30 0 49.5 9t77.5 50q21 15 37 15q17 0 54 -38q36 -33 36 -48q0 -9 -10 -41q-3 -5 -7 -47q-4 -35 -10 -47t-32 -35q-78 -71 -133 -90q-108 -36 -185 -36q-100 0 -193 104q-96 106 -96 228z" />
<glyph unicode="d" horiz-adv-x="915" d="M-82 326q0 179 97 340q107 177 308 291q133 76 159 76q42 0 68 -68q9 -24 16 -24q11 0 33 65q6 20 51 95q38 63 81 176q32 86 50 103.5t74 17.5q59 0 87 -65q9 -21 11.5 -23t26.5 -13q49 -45 57.5 -56.5t8.5 -35.5q0 -25 -9 -46t-46 -82q-22 -31 -69 -144 q-60 -143 -95 -225q-82 -194 -125.5 -339.5t-73.5 -330.5q-11 -62 -55 -62q-56 0 -176 51q-23 10 -31.5 18.5t-18.5 29.5q-12 26 -23 27q-5 1 -20 -11q-10 -9 -78 -50q-50 -30 -76 -30q-62 0 -147 98q-51 58 -68 102t-17 115zM240 354q0 -26 22 -26q6 0 51 22q54 41 57 44 t8 31q7 44 70 193q16 36 16 50q0 18 -12 20q-3 1 -31 -27t-41 -44q-52 -66 -65.5 -86.5t-36.5 -68.5q-38 -81 -38 -108z" />
<glyph unicode="e" horiz-adv-x="813" d="M-103 317q0 133 67.5 274t177.5 239q89 79 177 128q69 39 149 41q130 0 222 -97q72 -77 72 -179q0 -108 -57 -201.5t-149 -137.5q-100 -47 -197 -47q-32 0 -80 49q-13 14 -20 14q-23 0 -23 -51q0 -106 67 -106q88 0 171 31q24 9 37 9q30 0 53 -40q19 -33 19 -47l-25 -71 q-25 -60 -33 -72t-32 -21q-12 -5 -111 -35q-57 -18 -134 -18q-161 0 -257 103q-94 103 -94 235zM323 566q0 -16 17 -16q12 0 48 14t45 21q17 17 35.5 56.5t18.5 61.5q0 41 -13 40q-5 0 -18 -14q-12 -15 -33 -35q-100 -100 -100 -128z" />
<glyph unicode="f" horiz-adv-x="550" d="M-133 141q0 19 10 47q18 51 81 261q30 97 41.5 128t60.5 141q13 29 13 42q0 4 -2 13q-11 46 -11 92q0 21 9.5 29.5t42.5 19.5q23 8 31 16.5t17 36.5q9 27 73 160q30 61 70 107.5t101 90.5q97 70 188 70q97 0 174 -83q29 -31 39.5 -56t10.5 -63q0 -88 -45 -131 q-32 -30 -109 -30q-37 0 -46 9.5t-18 57.5q-6 27 -16 27q-9 0 -28 -26.5t-35 -62.5q-12 -28 -18 -39q-9 -16 -9 -22q0 -13 17 -13q3 0 13 2q5 1 11 1q16 0 22.5 -9.5t24.5 -59.5q21 -45 21 -60q0 -16 -22 -42q-19 -22 -35 -71t-38 -49q-3 0 -14 3q-17 4 -48 4 q-45 0 -61.5 -8t-28.5 -36q-39 -89 -58 -148.5t-67 -244.5q-36 -133 -38 -158q-4 -47 -8.5 -63t-16.5 -27q-22 -19 -58 -19q-23 0 -32.5 3.5t-43.5 25.5q-9 8 -40 11q-31 2 -42 10t-46 51q-37 47 -37 62z" />
<glyph unicode="g" horiz-adv-x="911" d="M-211 -260q0 54 7 66.5t38 13.5q20 0 73 11q54 11 87 15q46 6 60.5 12t39.5 31q36 35 61 67t25 44q0 11 -14 11q-3 0 -34 -12q-57 -21 -100 -21q-27 0 -39.5 13t-53.5 84q-53 82 -62.5 103t-9.5 53q0 48 24 134t60 170q39 89 113 165.5t196 152.5q156 97 258 114 q55 10 60 11q35 11 42 11q20 0 53 -25t55 -58q61 -90 61 -150q0 -32 -49 -41q-55 -9 -55 -24q0 -6 14 -17q39 -33 50.5 -48.5t11.5 -38.5q0 -56 -24.5 -130t-96.5 -234q-78 -173 -127.5 -263.5t-109.5 -169.5q-80 -105 -147 -156.5t-161 -80.5q-93 -29 -144 -29 q-6 -1 -42 -16q-3 -1 -14 23q3 6 -41 50q-65 63 -65 159zM196 289q0 -11 13 -11q17 0 83 32q28 13 35.5 20t22.5 38q10 20 56 107q32 79 46 102q6 10 6 14q0 8 -12 11q-8 2 -22 -11l-50 -38q-35 -27 -56 -54t-79 -115q-12 -18 -27.5 -52.5t-15.5 -42.5z" />
<glyph unicode="h" horiz-adv-x="895" d="M-150 214q0 30 22 83q20 49 41 102q49 131 55 144.5t115 238.5q24 49 93 228q44 114 133 309q23 50 40 68t42 18q58 0 143 -73q71 -61 71 -109q0 -19 -57 -133q-60 -121 -60 -135q0 -16 12 -16q6 0 20 12q16 15 57.5 32t62.5 17q58 0 105 -63q25 -33 42.5 -84.5 t17.5 -90.5q0 -32 -24 -100q-35 -101 -42 -121q-48 -141 -59 -170q-34 -90 -37.5 -100.5t-28.5 -103.5l-18 -68q-13 -89 -22 -92q-80 -33 -91 -33q-12 0 -61 26.5t-71 44.5q-25 20 -50 59t-25 57q0 7 48 157q20 62 104 242q26 56 26 79t-37 23q-47 0 -72 -42 q-12 -20 -44.5 -106t-45.5 -131q-25 -83 -28 -92.5t-55 -133.5q-21 -51 -28 -101q-6 -40 -19 -52t-52 -12q-18 0 -23.5 4t-16.5 24q-16 29 -37 41.5t-60 15.5q-34 3 -65 66q-21 43 -21 71z" />
<glyph unicode="i" horiz-adv-x="486" d="M-177 183q0 19 56 143q114 261 252 521q52 96 62.5 111.5t26.5 16.5h4q22 0 58 -18q38 -20 67 -48q97 -96 97 -133q0 -16 -34 -80q-91 -172 -206 -472l-42 -102q-28 -84 -35.5 -99.5t-23.5 -23.5q-42 -20 -70 -20q-31 0 -65 46q-18 25 -27.5 30t-46.5 10q-21 2 -47 44.5 t-26 73.5zM251 1126q0 19 35 124q54 100 66.5 116t40.5 18q22 2 47.5 -14.5t88.5 -73.5q11 -10 48 -29q31 -14 41.5 -28.5t10.5 -40.5q0 -35 -52 -99q-18 -23 -22 -31t-26 -62q-9 -23 -31.5 -42t-41.5 -19q-40 0 -124 74q-50 45 -65.5 65t-15.5 42z" />
<glyph unicode="j" horiz-adv-x="484" d="M-520 -219q0 17 10.5 25.5t72.5 43.5q101 77 177 214q152 261 268 481q80 153 99.5 197.5t61.5 167.5q16 48 35.5 60.5t94.5 23.5q13 -2 21.5 -10t42.5 -54q48 -62 62 -88.5t14 -56.5q0 -57 -75 -221q-115 -249 -163 -341.5t-201 -353.5q-52 -87 -82 -129.5t-73 -88.5 q-25 -27 -40.5 -35.5t-38.5 -8.5q-32 0 -63 14q-40 17 -61 43q-24 28 -31 31l-65 -4q-21 2 -40 32q-26 41 -26 58zM279 1149q0 5 22.5 69.5t31.5 86.5q28 64 42.5 81t44.5 19h8q29 0 71 -19q48 -23 86 -57q52 -47 52 -91q0 -26 -26 -71q-21 -35 -45 -86q-16 -33 -27 -45.5 t-35 -22.5q-34 -16 -58 -16q-44 0 -104 65q-63 67 -63 87z" />
<glyph unicode="k" horiz-adv-x="851" d="M-178 217q0 13 68 166t129 276q87 177 95.5 196.5t78.5 206.5q69 177 92 243q14 41 20 46.5t66 28.5l33 14q53 -7 65.5 -11.5t35.5 -24.5q91 -77 91 -125q0 -30 -99 -255q-113 -255 -113 -273t14 -18q10 0 44 28.5t55 55.5q44 56 110 169q16 28 39.5 47.5t40.5 19.5 q12 0 66 -20q26 -10 35 -21.5t25 -55.5q26 -71 26 -91q0 -21 -21.5 -62t-77.5 -128q-20 -31 -30 -41t-50 -41q-45 -34 -73 -46q-33 -15 -33 -36q0 -81 23 -160q11 -39 32 -99t28 -71q24 -40 24 -52q0 -35 -91 -49q-60 -11 -131 -46q-27 -13 -45 -13q-28 0 -48.5 31 t-52.5 121q-18 49 -22 74t-4 80v15q0 124 -16 138q-7 0 -29 -75l-36 -100l-32 -97q-28 -77 -35 -91t-24 -20q-75 -26 -97 -26q-16 0 -26 10.5t-43 63.5q-16 23 -80 70q-27 21 -27 48z" />
<glyph unicode="l" horiz-adv-x="485" d="M-134 218q0 15 14 51q3 5 36 115q16 51 75 187q23 52 95 229q122 301 189 427q56 102 62 115q15 32 21 38t36 16q35 12 50 13q16 0 28 -10t42 -47q31 -38 72 -52q25 -9 33 -17.5t7 -28.5q-2 -34 -52 -127q-93 -170 -239 -541t-175 -510q-15 -70 -49 -70h-4l-50 6 q-42 4 -50 5.5t-13 6.5q-128 145 -128 194z" />
<glyph unicode="m" horiz-adv-x="1308" d="M-146 214q0 23 8 44t57 123l72 167l65 148q82 216 91 252q5 43 11 57.5t23 22.5q19 9 39 9q40 0 104 -40.5t96 -85.5q18 14 27 18t47 16l37 18q25 1 33 3.5t50 21.5q21 9 37 9q33 0 85 -36q10 -7 14.5 -13.5t19.5 -39.5q12 -24 25 -24q6 0 21 12q25 18 79.5 38t80.5 20 q45 0 89.5 -29.5t74.5 -78.5q41 -68 41 -136q0 -160 -137 -513q-33 -83 -35 -116q-6 -45 -13 -58.5t-34 -37.5q-31 -25 -58 -25q-34 0 -61.5 16.5t-81.5 68.5q-56 54 -65.5 66t-9.5 29q0 13 38 119l61 153q52 130 60.5 155t8.5 42q0 31 -16 32l-45 -20q-35 -15 -49 -60 q-28 -95 -38 -124q-52 -151 -57 -173q-23 -94 -43 -121q-39 -52 -38 -64l4 -53q1 -7 -29.5 -19.5t-47.5 -12.5q-13 0 -20 4t-36 29q-13 9 -66 14q-24 2 -28.5 8t-32.5 64q-26 42 -30 52t-4 27q0 29 7.5 49t54.5 111q10 19 45 111q21 53 40 94q26 56 26 74q0 19 -20 19 q-23 0 -52 -25q-22 -19 -35 -43.5t-35 -85.5q-10 -29 -51 -124q-35 -80 -44 -103.5t-60 -178.5q-11 -33 -32.5 -55t-42.5 -22q-12 0 -65 12l-24 6q-4 2 -101 114q-25 29 -30 38.5t-5 30.5z" />
<glyph unicode="n" horiz-adv-x="914" d="M-156 213q0 30 114 277q75 163 100 229t66 214q30 105 85 105q21 0 79 -32q24 -13 54 -24q25 -10 30 -15t16 -29q7 -17 19 -17q8 0 22 9q33 23 89 48t73 25q49 0 124 -97q73 -95 73 -188v-12q-5 -108 -123 -452q-44 -129 -85 -208q-13 -25 -26.5 -35t-49.5 -20 q-68 -20 -76 -20q-28 0 -103 68t-75 94q0 14 12 36q33 59 36.5 66t44.5 107q71 153 92 220q20 66 20 89q0 19 -17 20q-6 0 -39 -22q-34 -17 -41.5 -25.5t-15.5 -37.5q-8 -30 -38 -99q-32 -73 -38 -89.5t-60 -184.5q-31 -70 -60 -140q-22 -53 -57 -53t-134 72 q-70 50 -90.5 72.5t-20.5 48.5z" />
<glyph unicode="o" horiz-adv-x="925" d="M-96 327q0 148 108 336q53 94 116.5 162t164.5 139q68 49 102 64t77 16q41 0 60.5 -18.5t44.5 -81.5q27 -68 32.5 -74.5t35.5 -7.5q18 0 56 -13.5t55 -26.5q18 -13 28.5 -64t10.5 -124q0 -229 -159 -426q-89 -108 -209 -177q-100 -56 -187 -56q-104 0 -210 99 q-126 118 -126 253zM225 307q0 -22 16 -22q20 0 95 84q31 34 124 189q23 39 23 87q0 35 -21 34q-8 0 -47 -45q-79 -93 -96.5 -117t-39.5 -77q-32 -75 -38 -85q-16 -27 -16 -48z" />
<glyph unicode="p" horiz-adv-x="932" d="M-319 -194q0 19 22 64q6 11 41 109q18 50 99 206q110 211 190 433q34 92 40 100q16 31 16 43q0 1 -22 100q-2 11 -2 12q2 27 60 46q30 10 36.5 21t17.5 72q7 36 32 61.5t54 25.5q18 0 27 -5.5t39 -34.5q5 -4 37 -29q20 -15 39 -34q16 -17 32 -17q41 0 82 9q39 8 49 8 q37 0 84.5 -36.5t83.5 -93.5q67 -106 67 -231q0 -108 -57 -238t-147 -228q-79 -86 -154.5 -141.5t-114.5 -55.5q-22 0 -54 19t-49 42q-48 66 -55 67q-10 2 -31 -41.5t-93 -214.5l-38 -90q-24 -91 -37 -112q-20 -35 -53 -35q-20 0 -52 33q-19 20 -25.5 21.5t-60.5 1.5 q-43 0 -71 57q-32 64 -32 86zM269 339q0 -16 11 -16q8 0 20 16q12 15 52 56q77 78 127 198q21 50 21 74q0 29 -49 29h-3q-28 0 -41.5 -16t-24.5 -61q-9 -27 -78 -203q-35 -70 -35 -77z" />
<glyph unicode="q" horiz-adv-x="941" d="M-87 266q0 112 44 238.5t114 218.5q76 97 161 152.5t244 110.5q113 39 145 39q43 0 57 -19q5 -7 17 -72q4 -27 13 -33.5t39 -6.5q2 0 10 1h7q22 0 32.5 -9.5t44.5 -57.5q28 -28 32.5 -35t3.5 -22q-1 -19 -9.5 -37.5t-54.5 -109.5q-43 -83 -110 -255t-112 -318 q-50 -158 -68 -232.5t-33 -184.5q-5 -39 -21.5 -54t-53.5 -15q-34 0 -100 33q-26 13 -70 34q-80 38 -80 87q0 53 61 230q23 68 23 76q0 18 -14 19q-4 0 -12 -4q-3 -3 -28 -11q-7 -2 -39 -13q-23 -9 -29 -9q-28 0 -87.5 48t-92.5 98q-34 52 -34 113zM240 361q0 -26 20 -26 q3 0 56 28q58 44 62.5 50t18.5 50q16 30 75 154q26 34 25 45q-1 17 -12 19q-2 0 -60 -39q-20 -14 -58.5 -57.5t-51.5 -66.5q-56 -101 -65.5 -120.5t-9.5 -36.5z" />
<glyph unicode="r" horiz-adv-x="618" d="M-173 197q0 22 9 42.5t52 100.5q35 66 139 317q45 109 61 158.5t30 123.5q6 32 13 41t32 16q2 0 14 4q16 6 28 6q18 0 82 -32q80 -41 98 -68q9 -14 15 -14q4 0 21 11l45 26q60 38 75 39q19 0 45 -23.5t37 -51.5q24 -59 24 -92q0 -9 -43 -112q-38 -84 -49 -100.5 t-27 -16.5q-2 0 -59 20q-37 15 -42 15q-1 0 -45 -8q-27 -6 -35 -14.5t-22 -47.5q-15 -43 -65 -176l-63 -170q-63 -165 -77.5 -192.5t-38.5 -27.5q-18 0 -52 32q-42 39 -76 39q-8 0 -20 -3q-5 -1 -8 -1q-6 0 -23 10q-25 13 -31 20.5t-18 42.5q-26 75 -26 86z" />
<glyph unicode="s" horiz-adv-x="783" d="M-183 228q0 33 9.5 53.5t53.5 79.5q49 67 99 67q25 0 34 -7.5t24 -41.5t37 -58.5t38 -24.5q35 0 67 18q9 5 23.5 21.5t14.5 22.5q0 12 -47 35q-57 28 -108 82q-40 42 -40 120q0 124 70 236q49 78 226 144q125 46 191 46q108 0 199 -75q45 -37 45 -90q0 -55 -18.5 -106.5 t-42.5 -64.5q-59 -33 -138 -33q-56 0 -66 26q-2 5 -2 37q-1 34 -12 35l-14 -7l-40 -16q-55 -40 -55 -45q0 -15 103 -78q113 -68 113 -214q0 -63 -15 -103t-55 -85q-89 -101 -201.5 -162.5t-206.5 -61.5q-52 0 -90 20.5t-110 85.5q-52 48 -69 76.5t-17 67.5z" />
<glyph unicode="t" horiz-adv-x="612" d="M-85 224q0 115 137 431q18 41 18 65q0 5 -2 21q-6 44 -6 77q0 48 10.5 60.5t69.5 31.5q25 9 32.5 18t16.5 43q-1 9 33 76q16 33 33 72q33 77 57.5 104t62.5 27q31 0 109 -47q46 -28 70 -40q54 -26 54 -53q0 -18 -43 -99l-10 -24q-7 -13 -7 -17q0 -11 25 -11 q28 -1 36 -9.5t23 -56.5q15 -39 15 -57q0 -28 -3.5 -40.5t-23.5 -49.5q-31 -66 -43.5 -71.5t-131.5 -7.5q-25 0 -34.5 -6.5t-22.5 -32.5q-28 -57 -37 -79.5t-36 -100.5q-29 -84 -37 -117t-8 -73q0 -34 7 -51t47 -87q19 -25 19 -31q0 -11 -26 -33.5t-61 -41.5 q-75 -42 -105 -42t-98 54q-80 65 -110 107t-30 91z" />
<glyph unicode="u" horiz-adv-x="936" d="M-79 289q0 38 23.5 131t54.5 177q6 16 145 349q30 72 79 72q42 0 131 -65q35 -26 58.5 -56t23.5 -49q0 -12 -14 -40q-12 -22 -30 -70q-30 -80 -39 -103q-31 -71 -56.5 -149.5t-25.5 -99.5q0 -23 18 -23q6 0 20 9q8 6 40 22q20 10 26 19t12 35q12 61 126 362 q42 109 65.5 146.5t50.5 37.5q21 0 59 -6q16 -2 22 -7.5t23 -29.5q26 -38 44 -52t58 -26q27 -8 27 -39t-32 -109q-81 -196 -135 -384q-14 -50 -47 -197q-21 -94 -23 -113q-9 -53 -38 -53q-2 0 -123 34q-85 33 -92.5 37t-16.5 21q-26 49 -35 56q-4 0 -14 -11q-30 -32 -95 -67 t-94 -35q-65 0 -124 84q-31 45 -51.5 99.5t-20.5 92.5z" />
<glyph unicode="v" horiz-adv-x="821" d="M-7 146l5 101l8 231q14 231 14 249l-2 151q0 65 18 94t58 29q48 0 73 -8t93 -46q73 -36 83 -48q19 -22 19 -49q0 -39 -13 -95q-17 -72 -22 -124q-8 -79 -18 -102q-14 -33 -14 -55q0 -21 11 -21q9 0 87 188q21 51 43 103q40 96 49 136q17 68 34.5 93t48.5 25q23 0 73 -18 q43 -16 55.5 -27t21.5 -42q9 -32 10.5 -34.5t47.5 -48.5q16 -17 16 -38q0 -26 -31 -114q-22 -61 -152 -271q-35 -56 -57.5 -85t-123.5 -145q-121 -141 -141 -159q-42 -38 -75 -38t-98 28q-22 10 -67 55q-41 32 -47.5 42.5t-6.5 42.5z" />
<glyph unicode="w" horiz-adv-x="1245" d="M-34 164l4 50l6 93q23 145 25 161.5t13 164.5q6 81 32 287q6 41 14.5 54.5t42.5 34.5q38 23 70 23q53 0 87 -40q24 -29 35 -37.5t40 -20.5q34 -15 34 -40t-17 -122.5t-30 -149.5q-14 -52 -14 -66q0 -17 2 -17q8 0 49 82q63 94 65 98.5t84 191.5q22 53 27.5 63.5 t15.5 18.5q17 12 38 12q29 0 65 -15q28 -12 39.5 -20t52.5 -46q26 -24 30.5 -31t4.5 -24q0 -20 -23 -164q-15 -89 -21 -126q-6 -28 -5 -32l4 -20q21 28 24.5 34t23.5 53q35 84 98 222q20 45 41 94q15 37 36.5 50t65.5 13q60 0 104 -53q72 -87 72 -164q0 -46 -77 -165 q-57 -88 -122 -198q-95 -161 -126 -207q-84 -126 -94 -145q-47 -83 -92 -83q-41 0 -154 69q-56 34 -56 82q0 30 6 84q4 44 4 93q0 29 -2 84q-35 -47 -86 -130q-43 -70 -63 -96.5t-99 -118.5q-29 -34 -38.5 -41t-24.5 -7q-28 0 -61 14q-25 10 -35.5 19t-51.5 53 q-46 32 -54.5 43t-8.5 38z" />
<glyph unicode="x" horiz-adv-x="848" d="M-165 234q0 51 81 142q123 137 156 169q48 46 61.5 63.5t13.5 32.5q0 14 -36 82q-26 51 -42 107q-16 55 -16 58q0 41 80 108q70 58 126 58q18 0 51 -10.5t44 -19.5q19 -16 46 -111q19 -68 29 -68l18 17l47 40q82 81 105 98q51 36 77 36q35 0 67 -71q9 -22 19 -43l13 -28 q39 -86 39 -109q0 -22 -12 -36q-11 -13 -58 -51q-15 -13 -120 -96q-62 -47 -72 -57t-10 -24q0 -19 22 -94q15 -55 37 -173.5t22 -149.5q0 -39 -80 -46q-36 -3 -49 -10.5t-63 -52.5q-8 -8 -37 -14.5t-51 -6.5q-68 0 -68 56l2 165q0 100 -23 104q-5 1 -19 -25q-7 -13 -32 -46 q-18 -24 -89 -137q-50 -79 -96 -79q-19 0 -30.5 11t-39.5 53q-16 26 -51 55q-62 51 -62 103z" />
<glyph unicode="y" horiz-adv-x="838" d="M-266 -259q0 39 10.5 56t40.5 29q62 25 101 50.5t95 76.5q26 24 52.5 61t26.5 49t-50 52q-63 49 -63 100q0 23 11 106q4 28 6 118q6 211 61 453q9 44 16.5 55t38.5 26q39 20 44 20q4 0 86 -33q122 -67 142 -82.5t20 -42.5q0 -20 -34 -114q-17 -47 -19 -57t-21 -112 l-12 -42l-3 -20q30 26 33 29.5t48 87.5q75 141 83.5 159.5t38.5 108.5q30 92 38.5 106.5t32.5 14.5q90 0 145 -60q73 -80 73 -160q0 -123 -116 -353q-138 -274 -284 -475q-27 -37 -130 -151.5t-179 -191.5q-72 -74 -129 -74q-39 0 -58.5 12.5t-44.5 54.5q-19 30 -68 81 q-32 33 -32 62z" />
<glyph unicode="z" horiz-adv-x="837" d="M-148 201q0 45 57.5 105.5t227.5 194.5q164 130 201 175q-39 -3 -59 -9t-98 -39q-10 -4 -24 -4q-19 0 -37.5 13.5t-26.5 33.5q-26 69 -26 180q0 39 37.5 59t125.5 29q31 3 136 16q124 15 204 15q72 0 92 -8t46 -48q78 -120 78 -176q0 -24 -13.5 -42t-67.5 -63 q-5 2 -80 -81q-97 -107 -149 -157.5t-94 -81.5q-11 -8 -11 -11q0 -9 20 -9q5 0 11 1q26 4 59 6q49 2 93 7q5 1 12 1q37 0 60 -33q36 -52 36 -83q0 -16 -14 -49q-4 -10 -22 -52q-18 -45 -36.5 -60.5t-53.5 -15.5l-118 1l-88 -2q-139 -3 -171.5 -7t-122.5 -27q-36 -9 -66 -9 q-33 0 -51 19.5t-35 73.5q-32 104 -32 137z" />
<glyph unicode="{" horiz-adv-x="772" d="M-122 108q0 75 151 388q11 23 11 44q0 13 -28 50q-11 16 -11 28q0 9 15.5 48.5t23.5 53.5q12 19 84 66q26 17 39.5 45t39.5 119q21 73 72 180.5t77 133.5q172 140 269 200q38 23 88.5 34.5t112.5 10.5q34 0 57 -7.5t125 -50.5q18 -8 22.5 -13t4.5 -17q0 -60 -44 -104 q-8 -8 -41 -21t-46 -13q-7 0 -84 23q-44 13 -86 13q-21 0 -33.5 -9t-30.5 -37q-26 -41 -46 -82.5t-86 -195.5q-53 -125 -87 -172t-112 -106q-39 -29 -39 -63q0 -14 20 -54q12 -23 12 -51q0 -30 -9.5 -60.5t-64.5 -185.5q-54 -148 -63 -177t-9 -59q0 -26 24 -26 q23 0 91.5 11.5t97.5 20.5q15 5 24 5q16 0 34.5 -14t18.5 -26q0 -52 -48 -105q-11 -12 -95 -39q-133 -42 -176 -42q-67 0 -118 13q-54 15 -99 108q-19 41 -37 79q-21 39 -21 56z" />
<glyph unicode="|" d="M347 -341v1706h330v-1706h-330z" />
<glyph unicode="}" horiz-adv-x="826" d="M-311 -62q0 26 15 62.5t35 59.5q10 13 44.5 29.5t48.5 16.5q8 0 25 -5q112 -36 174 -36q24 0 38.5 10.5t33.5 41.5q44 72 88 169q69 153 103 201t120 114q48 38 48 77q0 13 -23 58q-13 25 -13 56q0 50 55 198q78 209 78 268q0 29 -28 29q-17 0 -41 -4q-14 -3 -80 -12 q-73 -10 -97 -20q-18 -6 -27 -6q-15 0 -33 16.5t-18 29.5q0 26 17.5 66t39.5 64q9 10 22.5 15.5t84.5 28.5q107 34 135 40.5t64 6.5q73 0 131 -15q61 -16 111 -121q65 -137 65 -159q0 -28 -36 -128q-19 -52 -108 -238q-12 -24 -12 -48q0 -15 30 -57q11 -17 11 -30 q0 -15 -38 -111q-8 -19 -99 -78q-29 -20 -40.5 -42.5t-37.5 -118.5q-18 -61 -59 -144t-67 -108q-29 -29 -143.5 -114.5t-157.5 -110.5q-86 -50 -226 -50q-38 0 -63 8t-140 57q-19 9 -24.5 15t-5.5 19z" />
<glyph unicode="~" horiz-adv-x="1365" d="M189 1255q41 101 88 165q90 121 219 121q46 0 92 -14.5t195 -76.5q59 -25 99 -25t71 27t69 95l158 -133q-49 -116 -95 -174q-90 -114 -214 -114q-36 0 -75.5 13t-196.5 76q-73 30 -113 30t-70 -26.5t-68 -96.5z" />
<glyph unicode="&#xa1;" horiz-adv-x="553" d="M-106 182q0 29 33 99q13 28 46 130q44 135 141 344q54 118 59 135q19 50 33 69.5t33 21.5q14 1 70 -25q29 -13 71 -54q10 -9 44 -41q45 -41 45 -62q0 -7 -39 -104q-78 -184 -94.5 -230t-70.5 -228q-15 -48 -36 -116q-17 -55 -21 -69q-6 -22 -10.5 -28t-24.5 -21 q-25 -17 -43 -17q-23 0 -35.5 5t-36.5 25q-32 25 -48 33t-50 17q-10 2 -29 23t-27 37q-10 22 -10 56zM254 1135q0 61 36 141q41 88 53 103t46 16q22 0 39.5 -9.5t60.5 -45.5q30 -24 60 -40q43 -22 58 -38t15 -39q0 -29 -42 -91q-17 -27 -22 -37t-22 -62q-22 -67 -65 -67 t-127 63q-58 43 -74 61.5t-16 44.5z" />
<glyph unicode="&#xa2;" horiz-adv-x="827" d="M9 513q0 198 151 397q62 82 144.5 146t150.5 82q71 20 92 27q13 17 39 69q47 93 78 93q3 0 17 -3q7 -2 12 -2l17 1q12 1 21.5 -36.5t9.5 -83.5q0 -48 -11 -103q46 -26 71.5 -65t25.5 -83q0 -116 -34 -163q-26 -37 -67 -64t-70 -27q-14 0 -70 25q-45 19 -52.5 24t-7.5 17 q0 8 7 26q2 2 10 27q5 15 8 21q12 20 12 30q0 14 -15 14q-18 0 -45.5 -25t-55.5 -66q-108 -162 -108 -238q0 -64 77 -64q33 0 76 35q45 37 66 37q15 0 21.5 -4.5t32.5 -32.5q36 -34 34 -47l-6 -40q-10 -76 -29.5 -107t-81.5 -69q-38 -24 -99.5 -43.5t-105.5 -21.5 q-9 -17 -27 -36q-13 -14 -15 -19t-14 -41l-20 -21q-25 -28 -26 -29t-38 -22q-8 -4 -33 -24q-9 -7 -13 -7q-8 0 -18.5 28t-10.5 48q0 8 7 26q18 42 20.5 53t5.5 48q1 22 9 44q-67 60 -94 104q-48 78 -48 165z" />
<glyph unicode="&#xa3;" horiz-adv-x="1152" d="M-183 104q0 36 48 101t75 66q8 0 64 -9l47 -7q14 -4 17 -4q24 0 51 54q5 9 32 79q4 12 23 39q9 12 9 16q0 21 -38 21l-50 -5l-70 -3q-41 -2 -59 -2q-59 0 -59 82q0 50 49 114q20 25 61 44t76 19q9 0 50 -6q16 -2 21 -2q71 0 85 5t23 32q31 101 103 224.5t146 201.5 q78 83 184.5 129.5t218.5 46.5q103 0 170 -62.5t67 -158.5q0 -56 -27 -118q-29 -67 -51 -96q-36 -48 -39 -54q-9 -21 -15 -26t-20 -5q-44 0 -119 29q-66 25 -84.5 36.5t-18.5 28.5q0 12 39 65q21 28 21 42q0 15 -12 15q-5 0 -13 -5q-12 -8 -48 -26q-62 -29 -94 -63t-66 -105 q-39 -84 -39 -102q0 -9 8.5 -11.5t41.5 -2.5q7 0 65 12q31 6 60 6q28 0 38 -9t22 -44q29 -33 29 -45q0 -17 -38 -77q-17 -28 -22 -38q-16 -28 -36.5 -35.5t-100.5 -14.5q-53 -4 -66 -7q-24 -5 -29 -5l-61 2q-18 0 -45 -69q-38 -92 -67 -123q-11 -13 -11 -16q0 -23 37 -20 l71 6q217 7 357 63q32 13 53 13q19 0 40.5 -21t21.5 -40q0 -7 -9 -28q-3 -5 -18 -51q-21 -63 -53 -114q-10 -16 -50.5 -25t-130.5 -15q-279 -20 -418 -20q-86 0 -226.5 7.5t-173.5 13.5q-26 5 -36.5 22t-10.5 55z" />
<glyph unicode="&#xa4;" horiz-adv-x="1105" d="M58 1067q0 38 54 80q60 46 86 46q34 0 121 -80q23 -22 36 -22q8 0 20 5q82 30 152 30q74 0 135 -23q40 -16 47 -16q11 0 23 11.5t75 78.5q24 28 31.5 33t23.5 5q38 0 80 -54q46 -59 46 -86q0 -31 -58 -92q-45 -49 -45 -71q0 -9 18 -54q22 -55 22 -132q0 -69 -24 -132 q-11 -27 -11 -36q0 -14 55 -68q58 -57 58 -95q0 -30 -56.5 -72.5t-95.5 -42.5q-17 0 -32 10.5t-64 58.5q-25 24 -39 24q-10 0 -55 -19q-54 -23 -136 -23q-74 0 -130 22q-45 18 -53 18q-15 0 -38 -23q-77 -78 -116 -78q-30 0 -72 56.5t-42 96.5q0 17 10 31t58 63q24 24 24 38 q0 7 -13 40q-24 59 -24 132q0 94 31 152q17 32 17 41q0 18 -37 52l-44 40q-28 24 -33 31.5t-5 23.5zM340 732q0 -78 55 -132.5t132 -54.5q78 0 133 55q54 54 54 129q0 79 -53.5 133.5t-133.5 55.5q-77 0 -132 -55t-55 -131z" />
<glyph unicode="&#xa5;" horiz-adv-x="1125" d="M30 362q0 8 13 34q5 9 13 34q9 28 13.5 33t35.5 20q9 4 42 36q20 20 30 22q3 1 97 -11q9 -1 18 -1q14 0 68 3q21 31 21 47q0 17 -21 20q-16 -5 -120 -11q-99 8 -110.5 13.5t-20.5 54.5l-6 26q16 17 16.5 20t0.5 31l16 25q22 48 34 64q11 13 14 14.5t26 1.5q20 4 31 5 q-19 150 -19 246q0 76 8.5 170t17.5 124q8 24 49 37q49 16 95 16q60 0 163 -58q55 -31 55 -82q0 -25 -21 -100q-14 -50 -18 -87t-4 -120q0 -30 7 -51.5t17 -21.5q18 0 60 103q18 45 51 118q43 95 56 128.5t42 125.5q28 88 85 88q46 0 116 -56q90 -71 90 -138 q0 -30 -16.5 -99t-31.5 -100q-78 -163 -90 -197q19 4 32 4q27 0 36 -9.5t22 -51.5q31 -45 27 -68q-1 -8 -17 -26q-13 -17 -43 -76q-18 -35 -72 -38q-62 -3 -70 -5q-38 -6 -49 -6q-3 0 -13 2q-15 -17 -35 -63q23 0 79 8l46 3l33 5q13 -2 18 -9.5t21 -47.5q1 -3 13 -24 q11 -19 11 -30q0 -15 -31 -72q-9 -18 -20 -37q-14 -28 -18.5 -30.5t-53.5 -9.5l-56 -15l-52 2q-55 -8 -71 -8q-8 0 -91 6q-15 -24 -83 -114q-83 -120 -99 -136q-39 -39 -74 -39q-22 0 -48 12q-30 13 -35.5 14t-50.5 2q-10 0 -53 25q-24 13 -50.5 61.5t-26.5 77.5 q0 17 17 40.5t42 41.5q-16 -1 -54 -5h-13q-19 0 -23.5 8t-10.5 51z" />
<glyph unicode="&#xa6;" d="M347 314h330v-655h-330v655zM347 640v725h330v-725h-330z" />
<glyph unicode="&#xa7;" horiz-adv-x="1111" d="M-187 19q0 22 12.5 37t60.5 50q78 57 213 57q34 0 34 -31q0 -4 -10 -38q-2 -6 -2 -14q0 -21 13 -37t29 -16q37 0 112 33q53 24 53 77q0 23 -7.5 36.5t-31.5 33.5q-86 71 -180 184q-56 68 -72 102.5t-16 86.5q0 155 116 255q48 42 107.5 74.5t88.5 32.5q17 -1 17 7 q0 4 -7 12q-10 12 -18 53.5t-8 81.5q0 135 138 240q154 117 401 117q332 0 332 -189q0 -36 -16 -74t-54 -89q-60 -82 -110 -82q-51 0 -131 29q-64 24 -64 59q0 18 35 66q4 6 4 14q0 26 -32 26q-18 0 -55.5 -8t-50.5 -14q-25 -13 -44 -38.5t-19 -46.5q0 -24 17 -45t78 -72 l65 -68q70 -61 85 -79t38 -62q45 -89 45 -151q0 -51 -28.5 -115t-69.5 -105q-95 -93 -242 -135q27 -73 27 -134q0 -95 -49 -164q-39 -57 -76 -83.5t-131 -66.5q-157 -68 -304 -68q-136 0 -214.5 70t-78.5 191zM337 684q0 -22 38 -69q70 -85 103 -112q31 -26 37 -35 q14 -20 25 -20q32 0 62.5 36t30.5 76q0 30 -13.5 52t-57.5 64q-14 14 -68 74l-71 74q0 -45 -5.5 -55t-36.5 -23q-44 -19 -44 -62z" />
<glyph unicode="&#xa8;" d="M435 1326q0 39 33 117q45 104 108 104q35 0 112 -60q53 -41 53 -89q0 -36 -52 -124q-10 -17 -16 -29q-23 -46 -41 -57q-29 -17 -50 -17q-50 0 -98.5 51t-48.5 104zM793 1329q0 58 53 161q30 57 84 57q38 0 116 -64q51 -41 51 -77q0 -18 -34 -95t-52 -98q-27 -33 -72 -33 q-55 0 -100.5 46.5t-45.5 102.5z" />
<glyph unicode="&#xa9;" horiz-adv-x="1668" d="M66 688q0 315 240 532q199 179 484 184q320 0 538 -237q186 -203 186 -484q0 -187 -97 -353t-265 -262t-374 -96q-182 0 -350 96q-169 96 -265 262q-97 167 -97 358zM214 688q0 -156 77 -292q77 -135 211 -214q133 -78 279 -78q266 0 437 193q81 92 119 209q29 91 29 178 q0 261 -191 438q-158 147 -385 151q-255 0 -428 -194q-148 -166 -148 -391zM484 498q0 97 39.5 210t100.5 190q69 87 178 141q73 36 117 35q27 0 67.5 -18t73.5 -46q37 -30 37 -81q0 -48 -13.5 -91t-32.5 -58q-14 -11 -52.5 -24t-57.5 -13q-10 0 -34 18q-26 18 -26 35 q0 19 15 49q17 34 17 44q0 15 -9 15q-16 0 -52 -41.5t-61 -86.5q-85 -159 -85 -258q0 -48 32 -48q19 0 74 22.5t70 36.5q9 7 11 7l15 -3l14 3q8 0 22.5 -29.5t14.5 -45.5q0 -28 -22 -62.5t-51 -53.5q-106 -68 -202 -68q-52 0 -122 64q-51 46 -64.5 73.5t-13.5 83.5z" />
<glyph unicode="&#xaa;" horiz-adv-x="631" d="M90 818q0 78 32 154.5t89 134.5q89 91 164 123q53 24 79 24q22 0 34 -33q5 -13 12 -24q6 29 25 46t46 17q22 0 33.5 -6t44.5 -34q11 -11 27 -21q39 -23 39 -42q0 -9 -62 -136q-74 -144 -95 -344q-7 -64 -63 -64q-5 0 -30 13q-8 4 -36 10q-42 10 -55 17t-24 26q-4 6 -7 6 q-2 0 -7 -6q-11 -12 -46.5 -27t-53.5 -15q-48 0 -97 60.5t-49 120.5zM314 851l10 6q37 20 48.5 31.5t14.5 29.5q2 12 28 76q11 24 14 32q-29 -6 -67.5 -64.5t-47.5 -110.5z" />
<glyph unicode="&#xab;" horiz-adv-x="1008" d="M-12 492q0 40 25 76t107 114q75 72 210 174q55 41 78.5 53.5t46.5 12.5t50 -26q64 -63 64 -92q0 -32 -55 -75q-36 -27 -113 -99t-100 -98q-34 -40 -34 -65q0 -16 44 -111l73 -142q3 -7 3 -22q0 -41 -51 -68q-71 -38 -123 -38q-36 0 -57 24t-71 126q-61 123 -79 171 t-18 85zM413 492q0 40 25 76.5t107 113.5q76 73 210 174q55 41 78.5 53.5t46.5 12.5t50 -26q64 -63 64 -92q0 -33 -55 -75q-35 -26 -113 -98.5t-100 -98.5q-34 -41 -34 -65q0 -16 44 -111l45 -85q24 -46 28 -56t4 -23q0 -41 -51 -68q-71 -38 -123 -38q-37 0 -57.5 24 t-71.5 126q-61 123 -79 171t-18 85z" />
<glyph unicode="&#xac;" d="M68 312v287h887v-599h-319v312h-568z" />
<glyph unicode="&#xad;" horiz-adv-x="717" d="M-148 378q0 22 20 74t37 76q46 63 99 63q15 0 100 -4q13 -1 35 -1q21 0 66 1q155 4 366 4q70 0 64 -48q-3 -26 -70 -141q-42 -74 -108 -74l-182 4q-4 0 -57 -3q-32 -1 -77 -1q-41 0 -63 1q-70 4 -74 4q-101 -1 -104 -1q-21 1 -36.5 14.5t-15.5 31.5z" />
<glyph unicode="&#xae;" horiz-adv-x="1668" d="M51 688q0 315 240 532q199 179 484 184q320 0 538 -237q186 -203 186 -484q0 -187 -97 -353t-265 -262t-374 -96q-182 0 -350 96q-169 96 -265 262q-97 167 -97 358zM199 688q0 -156 77 -292q77 -135 211 -214q133 -78 279 -78q266 0 437 193q81 92 119 209q29 91 29 178 q0 261 -191 438q-158 147 -385 151q-255 0 -428 -194q-148 -166 -148 -391zM420 434q0 12 40 125l56 129q69 166 90 209q11 22 11 32q0 8 -10 32q-13 32 -13 62q0 26 12.5 35.5t57.5 19.5q97 22 212 22q113 0 182 -64q30 -29 51 -74.5t21 -82.5q0 -56 -56 -125.5 t-129 -103.5q-36 -17 -36 -27q0 -33 20 -105q17 -60 24.5 -76t35.5 -52q10 -13 10 -31q0 -19 -6 -25t-40 -20l-30 -15q-57 -22 -65 -22q-18 0 -49 24t-51 52q-40 58 -46 163q-2 39 -5 61q-2 16 -4 16q-1 0 -4 -12q-16 -69 -66 -219q-21 -63 -42 -63q-9 0 -41 21 q-17 10 -53 15q-17 3 -24.5 9t-20.5 27q-32 50 -32 63zM790 804q0 -9 7 -9q4 0 12 7t38 20q24 11 50.5 35t28.5 36q3 21 -27 22q-54 0 -61 -4q-3 -3 -19 -47q-4 -11 -15 -30q-14 -24 -14 -30z" />
<glyph unicode="&#xaf;" d="M325 1555v178h1011v-178h-1011z" />
<glyph unicode="&#xb0;" horiz-adv-x="877" d="M202 1091q0 61 19 110t64 107q49 61 76 83t54 23q20 0 65 -21.5t62 -38.5q14 -13 27 -12l12 1q12 1 58.5 -0.5t54.5 -2.5q45 -10 91 -58q64 -68 64 -179q0 -171 -135 -272q-78 -59 -180 -59q-72 0 -144 32.5t-116 85.5q-72 84 -72 201zM352 1085q0 -67 48 -119 q55 -61 131 -61q80 0 127 63q40 52 40 122q0 56 -37 89q-24 21 -44.5 27.5t-64.5 4.5q-30 0 -35.5 2.5t-34.5 32.5q-13 12 -21 12q-12 1 -54 -46q-55 -61 -55 -127z" />
<glyph unicode="&#xb1;" horiz-adv-x="1092" d="M-114 143q0 50 30 94q12 19 38.5 25.5t88.5 6.5l182 -2h378q61 0 78.5 -7.5t17.5 -32.5q0 -51 -36 -100q-11 -16 -34 -21t-78 -5q-5 0 -75 2q-61 2 -87 2q-20 0 -65 -1q-67 -2 -195 -2l-79 -2h-79q-50 0 -67.5 9t-17.5 34zM112 730q0 50 30 94q12 19 38.5 25.5t89.5 6.5 l181 -2h12l10 26q11 26 27 70q58 155 77 182.5t70 27.5q91 0 91 -44q0 -17 -17 -61l-41 -104q-32 -77 -40 -97h189q61 0 78.5 -7.5t17.5 -32.5q0 -51 -36 -100q-11 -16 -33.5 -21t-79.5 -5q-24 0 -74 2q-46 2 -89 2q-8 0 -39 -1q-10 -24 -21 -51q-7 -17 -23 -62 q-7 -20 -16 -45q-39 -106 -57.5 -127t-74.5 -21q-82 0 -82 40q0 15 22 72l76 192q-34 0 -122 -2h-79q-50 0 -67.5 9t-17.5 34z" />
<glyph unicode="&#xb2;" horiz-adv-x="745" d="M114 669q-1 10 13 44q9 20 45 44q54 36 138.5 111.5t121.5 121.5q102 128 102 156q0 16 -16 16q-12 0 -62 -20l-40 -19l-18 -6q-26 -15 -41 -15q-22 0 -36 30q-25 42 -39 62q-19 26 -19 41q0 5 9 20.5t14 20.5q13 10 120 50q62 23 142 23q81 0 140 -65.5t59 -155.5 q0 -50 -18 -91.5t-66 -99.5q-41 -50 -67 -74.5t-94 -77.5l-27 -28l48 9l35 2q37 7 45 7q34 0 65 -81l10 -26q0 -10 -25 -58q-11 -21 -14.5 -24.5t-15.5 -6.5q-36 -9 -57 -9l-72 3l-70 -1q-60 -1 -61 -1l-64 -12q-79 -11 -89 -11q-30 0 -62 62q-11 22 -16 28q-17 23 -18 31z " />
<glyph unicode="&#xb3;" horiz-adv-x="745" d="M111 673q0 33 42 106q14 25 31 33t53 8q37 0 46 -6.5t27 -44.5q10 -24 23 -24q29 0 84 42q57 45 57 79q0 21 -17 21q-9 0 -30 -12q-11 -6 -19 -6q-24 0 -62 53q-8 11 -18.5 47t-10.5 51q0 44 96 47q30 0 68 44q27 31 42 37q24 11 24 17q0 10 -19 10q-8 0 -46 -12 q-63 -17 -91 -30q-19 -10 -31 -10q-20 0 -36 49q-2 8 -21 46q-9 19 -9 29q0 25 23 57q19 28 108 46q91 18 128 18q51 0 91.5 -18t61.5 -50q58 -90 58 -129q0 -31 -30 -81.5t-69 -85.5q-13 -12 -13 -18q0 -4 27 -39q33 -42 33 -84q0 -102 -119 -204q-128 -109 -280 -109 q-41 0 -66 8.5t-66 36.5q-44 29 -57 43.5t-13 34.5z" />
<glyph unicode="&#xb4;" d="M488 1207q0 10 17 32.5t122 144.5q89 98 105 110.5t52 12.5q24 0 49 -11t96 -53q66 -38 66 -60q0 -29 -61 -59q-43 -22 -176 -79q-1 0 -84 -39q-79 -36 -119 -36q-28 0 -47 10.5t-20 26.5z" />
<glyph unicode="&#xb5;" horiz-adv-x="1092" d="M-147 -283q0 53 54 233q14 47 58 201l39 138q28 176 44 233.5t99 276.5q20 55 54 147q26 72 72 72q40 0 129 -65q36 -26 59.5 -56.5t23.5 -49.5q0 -11 -15 -39q-11 -21 -30 -70q-28 -76 -39 -103q-30 -71 -56 -149.5t-26 -99.5q0 -23 18 -23q6 0 20 9q8 6 40 22 q20 10 26 19t12 35q20 82 127 362q66 185 115 184q13 1 58 -7q18 -2 23.5 -7t22.5 -29q26 -39 44 -53t57 -25q28 -8 28 -41q0 -27 -32 -107q-82 -200 -136 -384q-14 -50 -46 -197q-21 -94 -24 -113q-8 -53 -37 -53q-2 0 -123 34q-91 35 -96.5 39t-30.5 53q-12 22 -17 22 q-4 0 -14 -11q-26 -29 -59 -45q-56 -27 -69 -41t-28 -63q-54 -181 -74 -332q-5 -37 -21 -52.5t-50 -15.5q-19 0 -34.5 7t-79.5 46q-52 33 -69 52t-17 46z" />
<glyph unicode="&#xb6;" horiz-adv-x="1144" d="M35 588q0 67 24.5 167t62.5 186q125 289 445 405q174 63 221 64q48 0 76 -5.5t143 -36.5q5 -2 42 -3q19 0 32.5 -11.5t59.5 -65.5q53 -45 53 -55q0 -16 -42 -65q-12 -13 -24.5 -44t-24.5 -77q-11 -45 -70 -184q-66 -150 -220 -630q-40 -126 -51 -172.5t-45 -222.5 q-22 -119 -138 -119q-60 0 -108 38q-29 24 -29 38q0 7 21 43q22 71 57 167l50 144l50 133q78 214 129 338q54 130 57 143q19 56 29 75q72 140 72 180q0 23 -42 37q-44 14 -53 12t-26.5 -32.5t-24.5 -58.5q1 -5 -35 -88q-37 -85 -117 -302q-51 -138 -160 -423 q-29 -75 -56 -157q-25 -74 -35 -99q-19 -44 -22 -61q-8 -56 -29 -56q-10 0 -112 41q-27 11 -27 40q0 44 54 192q41 112 52 153q22 86 39 113q11 17 11 29q0 20 -22 20q-4 0 -36 -12q-68 -24 -71 -24q-26 0 -71 49.5t-70 105.5q-19 44 -19 91z" />
<glyph unicode="&#xb7;" horiz-adv-x="472" d="M-25 471q0 10 28 133q48 95 60 110.5t42 16.5q18 0 29.5 -6.5t62.5 -47.5q30 -24 64 -38q50 -22 68 -38t16 -38q-1 -18 -37 -84q-25 -46 -46 -100q-30 -77 -80 -77q-28 0 -113 59q-94 66 -94 110z" />
<glyph unicode="&#xb8;" d="M80 -277q0 11 41 43q4 3 14 15q19 22 31 22q6 0 43 -31q19 -16 40 -16q16 0 28.5 14.5t12.5 32.5q0 23 -12.5 34t-47.5 21q-26 6 -26 32q0 23 54 110h129q-32 -56 -32 -81q0 -13 20 -26q49 -32 49 -100t-53 -114q-56 -50 -130 -50q-62 0 -118 43q-43 33 -43 51z" />
<glyph unicode="&#xb9;" horiz-adv-x="745" d="M206 688q0 21 6 33.5t40 67.5l57 93l55 77q41 63 43 65q26 23 26 33q0 7 -28 23q-15 8 -24 60q-2 14 -4 27q-3 13 -3 21q0 34 66 57q22 8 42 16q31 11 49 16q60 18 79 27q34 18 47 20q20 -1 54 -50q28 -38 28 -55q0 -15 -59 -144l-63 -111q-72 -127 -122 -208 q-58 -94 -102 -170q-23 -39 -49 -39q-11 0 -16 3t-24 21q-25 20 -53 23q-17 2 -31 32t-14 62z" />
<glyph unicode="&#xba;" horiz-adv-x="622" d="M87 830q0 65 43 154t102 147q58 56 139 105q39 23 80 23q40 0 56 -33q23 -45 29 -62q4 -12 14 -12q22 1 60 -15q31 -12 39 -42q9 -37 9 -86q0 -138 -102 -256q-53 -62 -123 -101t-129 -39q-67 0 -135 60q-82 73 -82 157zM304 812q44 25 96 105q32 50 38.5 63.5t8.5 34.5 q1 12 -7 12q-6 0 -20 -23q-86 -88 -116 -192z" />
<glyph unicode="&#xbb;" horiz-adv-x="1008" d="M-93 194q0 33 55 76q34 26 113.5 99.5t99.5 97.5q34 40 34 65q0 16 -44 110l-44 86q-24 47 -28 57t-4 23q0 39 51 67q73 39 123 38q36 0 57 -24.5t71 -125.5q60 -123 78.5 -171t18.5 -85q0 -40 -25.5 -76.5t-106.5 -113.5q-78 -74 -210 -174q-54 -41 -78 -53.5t-47 -12.5 t-50 26q-38 38 -51 56.5t-13 34.5zM333 194q0 34 55 76q33 25 113 99t100 98q34 41 34 65q0 16 -44 110l-74 143q-3 7 -3 23q0 46 72 77q64 28 103 28q35 0 56.5 -25t71.5 -125q60 -121 78.5 -170t18.5 -85q0 -41 -25 -77.5t-107 -113.5q-76 -73 -210 -174 q-54 -41 -78 -53.5t-47 -12.5t-50 26q-39 39 -51.5 57t-12.5 34z" />
<glyph unicode="&#xbc;" horiz-adv-x="1785" d="M206 688q0 21 6 33.5t40 67.5l57 93l55 77q41 63 43 65q26 23 26 33q0 7 -28 23q-15 8 -24 60q-2 14 -4 27q-3 13 -3 21q0 34 66 57q22 8 42 16q31 11 49 16q60 18 79 27q34 18 47 20q20 -1 54 -50q28 -38 28 -55q0 -15 -59 -144l-63 -111q-72 -127 -122 -207 q-58 -94 -102 -171q-23 -39 -49 -39q-11 0 -16 3t-24 21q-25 20 -53 23q-17 2 -31 32t-14 62zM227 27q0 6 15 22q14 13 42 53q61 86 257 335q309 393 442 572q117 155 256 328q31 39 46.5 48.5t46.5 10.5q33 0 88 -26q34 -15 41 -20.5t6 -15.5q-1 -8 -15 -23q-8 -4 -50 -65 q-21 -33 -107 -136q-108 -131 -141.5 -173.5t-185.5 -247.5q-103 -138 -228 -295q-179 -225 -256 -330q-60 -83 -81 -83q-3 0 -12 3q-25 8 -141 24q-23 3 -23 19zM977 435q0 27 11.5 43t63.5 64q133 119 165 140q214 139 261 139q42 0 70 -63q19 -43 19 -66 q0 -18 -7.5 -25.5t-47.5 -34.5q20 -23 40 -41q44 -39 44 -62q0 -13 -13 -33.5t-60 -82.5l16 -4h6q12 1 17 1q16 0 26.5 -14.5t10.5 -34.5q0 -24 -27 -66q-11 -37 -25 -46t-70 -15l-43 -5q-15 3 -16 3q-13 -1 -72 -124q-27 -46 -41 -73q-17 -32 -81 -32q-20 0 -44 11 q-16 8 -21 13t-19 28q-2 4 -16 13q-30 18 -30 40q0 12 3.5 19.5t26.5 40.5l20 38q13 20 13 21q-2 12 -88 19q-27 2 -41 18t-29 61q-22 66 -22 110zM1229 441q0 -6 13.5 -13t25.5 -7q15 0 28 24q4 6 39 44q16 18 58 79q-44 -21 -85 -61q-27 -26 -50 -40q-29 -18 -29 -26z" />
<glyph unicode="&#xbd;" horiz-adv-x="1785" d="M206 688q0 21 6 33.5t40 67.5l57 93l55 77q41 63 43 65q26 23 26 33q0 7 -28 23q-15 8 -24 60q-2 14 -4 27q-3 13 -3 21q0 34 66 57q22 8 42 16q31 11 49 16q60 18 79 27q34 18 47 20q20 -1 54 -50q28 -38 28 -55q0 -15 -59 -144l-63 -111q-72 -127 -122 -207 q-58 -94 -102 -171q-23 -39 -49 -39q-11 0 -16 3t-24 21q-25 20 -53 23q-17 2 -31 32t-14 62zM227 27q0 6 15 22q14 13 42 53q61 86 257 335q309 393 442 572q117 155 256 328q31 39 46.5 48.5t46.5 10.5q33 0 88 -26q34 -15 41 -20.5t6 -15.5q-1 -8 -15 -23q-8 -4 -50 -65 q-21 -33 -107 -136q-108 -131 -141.5 -173.5t-185.5 -247.5q-103 -138 -228 -295q-179 -225 -256 -330q-60 -83 -81 -83q-3 0 -12 3q-25 8 -141 24q-23 3 -23 19zM926 123q12 44 19.5 56t38.5 32q54 36 139.5 112.5t120.5 121.5q103 129 103 156q0 16 -16 16q-12 0 -62 -20 l-40 -20l-19 -6q-25 -15 -41 -15q-21 0 -35 30q-21 36 -40 62q-19 27 -19 41q0 19 20 36t58 32q79 29 118.5 38t89.5 9q81 0 140 -65.5t59 -155.5q0 -80 -58 -161.5t-187 -182.5l-27 -28l48 9l35 2q37 7 44 7q35 0 66 -81l10 -26q0 -11 -25 -58q-11 -21 -14.5 -24.5 t-15.5 -6.5q-36 -9 -58 -9l-72 3l-69 -1q-61 -1 -62 -1l-64 -12q-79 -11 -89 -11q-30 0 -62 62q-12 23 -16 28q-19 26 -18 31z" />
<glyph unicode="&#xbe;" horiz-adv-x="1785" d="M111 673q0 33 42 106q14 25 31 33t53 8q37 0 46 -6.5t27 -44.5q10 -24 23 -24q29 0 84 42q57 45 57 79q0 21 -17 21q-9 0 -30 -12q-11 -6 -19 -6q-24 0 -62 53q-8 11 -18.5 47t-10.5 51q0 44 96 47q30 0 68 44q27 31 42 37q24 12 24 17q0 10 -19 10q-8 0 -46 -12 q-62 -17 -91 -30q-19 -10 -31 -10q-20 0 -36 50q-2 7 -21 45q-9 19 -9 29q0 25 23 57q19 28 108 46q91 18 128 18q51 0 91.5 -18t61.5 -50q58 -90 58 -129q0 -31 -30 -81.5t-69 -85.5q-13 -12 -13 -18q0 -4 27 -39q33 -42 33 -84q0 -102 -119 -204q-128 -109 -280 -109 q-41 0 -66 8.5t-66 36.5q-44 30 -57 44.5t-13 33.5zM253 27q0 6 15 22q14 13 42 53q61 86 258 335q307 391 441 572q116 155 256 328q32 39 47 48.5t46 10.5q33 0 87 -26q35 -15 42 -20.5t6 -15.5q-1 -8 -15 -23q-8 -4 -50 -65q-20 -32 -107 -136q-107 -130 -140.5 -173 t-186.5 -248q-102 -137 -228 -295q-180 -227 -256 -330q-61 -83 -81 -83q-3 0 -12 3q-25 8 -141 24q-23 3 -23 19zM976 435q0 27 11.5 43.5t63.5 63.5q107 96 139.5 121t120.5 79q130 79 166 79q42 0 70 -63q19 -43 19 -66q0 -18 -7.5 -25.5t-47.5 -34.5q20 -23 40 -41 q44 -40 44 -62q0 -13 -13 -33.5t-60 -82.5l16 -4h6q12 1 17 1q16 0 26.5 -14t10.5 -35q0 -24 -27 -66q-11 -37 -25 -46t-70 -15l-43 -5q-15 3 -16 3q-13 -1 -72 -124q-27 -46 -41 -73q-17 -32 -81 -32q-20 0 -44 11q-16 8 -21 13t-19 28q-2 4 -17 13q-29 18 -29 40 q0 12 3.5 19.5t25.5 40.5l13 23q8 15 14 24l7 12q-1 12 -88 19q-27 2 -41 18t-29 61q-22 66 -22 110zM1228 441q0 -6 13.5 -13t25.5 -7q15 0 29 24q3 6 38 44q16 18 58 79q-44 -21 -85 -61q-27 -26 -50 -40q-29 -18 -29 -26z" />
<glyph unicode="&#xbf;" horiz-adv-x="791" d="M-119 290q0 78 37 149q35 69 68.5 110.5t201.5 221.5l7 8q-31 7 -52.5 31t-21.5 52q0 40 29.5 76t94.5 76q83 51 126 51q24 0 70 -25.5t72 -52.5q48 -51 48 -111q0 -55 -49.5 -142t-175.5 -255q-104 -140 -139 -217q179 68 221 68q54 0 96 -74q40 -73 40 -126 q0 -65 -102 -110q-48 -21 -127 -36.5t-137 -15.5q-167 0 -259 154q-48 81 -48 168zM344 1272q0 39 33 126q18 46 35.5 61.5t52.5 16.5q62 0 139 -68q21 -18 38.5 -64t17.5 -83q0 -33 -40 -130q-17 -41 -26 -52t-25 -11q-20 0 -77 49q-50 45 -82 65q-41 28 -53.5 45.5 t-12.5 44.5z" />
<glyph unicode="&#xc0;" horiz-adv-x="994" d="M-135 227q0 17 18.5 61t38.5 75q27 43 27 59q0 9 -2 20q-6 31 -8 68l-4 28q0 19 16 34.5t47 25.5q36 11 47 22.5t30 54.5q14 31 15 38q1 9 17 18q26 16 59 96q26 58 57 97q27 33 46 69q14 29 96 129t165 191q47 51 62.5 62t39.5 11q12 0 18.5 -3.5t32.5 -23.5 q17 -13 47 -29q62 -32 95.5 -60.5t33.5 -49.5q0 -24 -32 -61q-10 -11 -10 -18q0 -8 18 -20q8 -5 34 -28q24 -21 31 -38q12 -32 12 -38t-3 -19q-5 -15 -7 -44q-14 -134 -66 -363t-125 -471q-26 -97 -33 -113t-27 -31q-24 -16 -38 -17q-12 0 -26 -6q-9 -4 -16 -4q-23 0 -66 26 q-13 7 -59 56q-10 11 -48 26q-43 18 -43 59q0 24 33 87l17 42l13 26q1 18 8 31q10 19 10 39t-61 21q-20 0 -33 -8q-12 -8 -37 -11q-28 -4 -35.5 -12t-29.5 -61q-25 -53 -52 -123q-33 -88 -50 -111t-48 -23q-13 0 -61 16q-53 17 -69 32t-48 79q-12 24 -36 52q-11 13 -11 35z M403 651q0 -24 28 -22l31 2q47 1 57.5 7t22.5 42q39 122 55 202q1 8 5 22q1 5 1 10q0 22 -15 24q-27 4 -106 -127q-18 -30 -48.5 -91.5t-30.5 -68.5zM672 1765q0 14 9.5 20.5t64.5 28.5l51 25l44 21q49 30 64 31q37 0 54 -84q10 -49 23 -96q39 -142 39 -208 q0 -12 -15.5 -24.5t-29.5 -12.5q-16 0 -36 16.5t-100 94.5q-98 92 -118 114q-50 57 -50 74z" />
<glyph unicode="&#xc1;" horiz-adv-x="994" d="M-135 227q0 17 18.5 61t38.5 75q27 43 27 59q0 9 -2 20q-6 31 -8 68l-4 28q0 19 16 34.5t47 25.5q36 11 47 22.5t30 54.5q14 31 15 38q1 9 17 18q26 16 59 96q26 58 57 97q27 33 46 69q14 29 96 129t165 191q47 51 62.5 62t39.5 11q12 0 18.5 -3.5t32.5 -23.5 q17 -13 47 -29q62 -32 95.5 -60.5t33.5 -49.5q0 -24 -32 -61q-10 -11 -10 -18q0 -8 18 -20q8 -5 34 -28q24 -21 31 -38q12 -32 12 -38t-3 -19q-5 -15 -7 -44q-14 -134 -66 -363t-125 -471q-26 -97 -33 -113t-27 -31q-24 -16 -38 -17q-12 0 -26 -6q-9 -4 -16 -4q-23 0 -66 26 q-13 7 -59 56q-10 11 -48 26q-43 18 -43 59q0 24 33 87l17 42l13 26q1 18 8 31q10 19 10 39t-61 21q-20 0 -33 -8q-12 -8 -37 -11q-28 -4 -35.5 -12t-29.5 -61q-25 -53 -52 -123q-33 -88 -50 -111t-48 -23q-13 0 -61 16q-53 17 -69 32t-48 79q-12 24 -36 52q-11 13 -11 35z M403 651q0 -24 28 -22l31 2q47 1 57.5 7t22.5 42q39 122 55 202q1 8 5 22q1 5 1 10q0 22 -15 24q-27 4 -106 -127q-18 -30 -48.5 -91.5t-30.5 -68.5zM715 1507q0 67 39 205q16 58 23 96q16 81 55 84q11 1 63 -31l44 -21l51 -26q53 -21 63.5 -28t10.5 -21q0 -17 -50 -74 q-22 -24 -118 -114q-79 -77 -99.5 -94t-36.5 -17q-15 0 -30 13.5t-15 27.5z" />
<glyph unicode="&#xc2;" horiz-adv-x="994" d="M-135 227q0 17 18.5 61t38.5 75q27 43 27 59q0 9 -2 20q-6 31 -8 68l-4 28q0 19 16 34.5t47 25.5q36 11 47 22.5t30 54.5q14 31 15 38q1 9 17 18q26 16 59 96q26 58 57 97q27 33 46 69q14 29 96 129t165 191q47 51 62.5 62t39.5 11q12 0 18.5 -3.5t32.5 -23.5 q17 -13 47 -29q62 -32 95.5 -60.5t33.5 -49.5q0 -24 -32 -61q-10 -11 -10 -18q0 -8 18 -20q8 -5 34 -28q24 -21 31 -38q12 -32 12 -38t-3 -19q-5 -15 -7 -44q-14 -134 -66 -363t-125 -471q-26 -97 -33 -113t-27 -31q-24 -16 -38 -17q-12 0 -26 -6q-9 -4 -16 -4q-23 0 -66 26 q-13 7 -59 56q-10 11 -48 26q-43 18 -43 59q0 24 33 87l17 42l13 26q1 18 8 31q10 19 10 39t-61 21q-20 0 -33 -8q-12 -8 -37 -11q-28 -4 -35.5 -12t-29.5 -61q-25 -53 -52 -123q-33 -88 -50 -111t-48 -23q-13 0 -61 16q-53 17 -69 32t-48 79q-12 24 -36 52q-11 13 -11 35z M403 651q0 -24 28 -22l31 2q47 1 57.5 7t22.5 42q39 122 55 202q1 8 5 22q1 5 1 10q0 22 -15 24q-27 4 -106 -127q-18 -30 -48.5 -91.5t-30.5 -68.5zM460 1534q0 18 20.5 39t94.5 79q31 25 141 123q28 26 47 33t60 7q39 0 61.5 -12t107.5 -77l77 -56q64 -58 74.5 -69.5 t10.5 -21.5q0 -16 -16.5 -28.5t-44.5 -17.5q-7 -1 -106 -31q-37 -11 -49 -11q-22 0 -44 14t-67 57q-17 17 -63 46q-64 -69 -104 -98t-73 -29q-44 0 -95 19q-32 13 -32 34z" />
<glyph unicode="&#xc3;" horiz-adv-x="994" d="M-135 227q0 17 18.5 61t38.5 75q27 43 27 59q0 9 -2 20q-6 31 -8 68l-4 28q0 19 16 34.5t47 25.5q36 11 47 22.5t30 54.5q14 31 15 38q1 9 17 18q26 16 59 96q26 58 57 97q27 33 46 69q14 29 96 129t165 191q47 51 62.5 62t39.5 11q12 0 18.5 -3.5t32.5 -23.5 q17 -13 47 -29q62 -32 95.5 -60.5t33.5 -49.5q0 -24 -32 -61q-10 -11 -10 -18q0 -8 18 -20q8 -5 34 -28q24 -21 31 -38q12 -32 12 -38t-3 -19q-5 -15 -7 -44q-14 -134 -66 -363t-125 -471q-26 -97 -33 -113t-27 -31q-24 -16 -38 -17q-12 0 -26 -6q-9 -4 -16 -4q-23 0 -66 26 q-13 7 -59 56q-10 11 -48 26q-43 18 -43 59q0 24 33 87l17 42l13 26q1 18 8 31q10 19 10 39t-61 21q-20 0 -33 -8q-12 -8 -37 -11q-28 -4 -35.5 -12t-29.5 -61q-25 -53 -52 -123q-33 -88 -50 -111t-48 -23q-13 0 -61 16q-53 17 -69 32t-48 79q-12 24 -36 52q-11 13 -11 35z M403 651q0 -24 28 -22l31 2q47 1 57.5 7t22.5 42q39 122 55 202q1 8 5 22q1 5 1 10q0 22 -15 24q-27 4 -106 -127q-18 -30 -48.5 -91.5t-30.5 -68.5zM468 1595q0 37 68 104q96 94 247 94q84 0 191 -71q9 -6 13 -6q8 0 22 16q58 66 99 66q17 0 49 -23q51 -37 62 -48.5 t11 -28.5q0 -25 -83 -104q-97 -91 -230 -91q-50 0 -79.5 11.5t-120.5 67.5q-11 7 -19 7q-10 0 -21 -17q-51 -77 -94 -77q-10 0 -27 10.5t-60 43.5q-28 21 -28 46z" />
<glyph unicode="&#xc4;" horiz-adv-x="994" d="M-135 227q0 17 18.5 61t38.5 75q27 43 27 59q0 9 -2 20q-6 31 -8 68l-4 28q0 19 16 34.5t47 25.5q36 11 47 22.5t30 54.5q14 31 15 38q1 9 17 18q26 16 59 96q26 58 57 97q27 33 46 69q14 29 96 129t165 191q47 51 62.5 62t39.5 11q12 0 18.5 -3.5t32.5 -23.5 q17 -13 47 -29q62 -32 95.5 -60.5t33.5 -49.5q0 -24 -32 -61q-10 -11 -10 -18q0 -8 18 -20q8 -5 34 -28q24 -21 31 -38q12 -32 12 -38t-3 -19q-5 -15 -7 -44q-14 -134 -66 -363t-125 -471q-26 -97 -33 -113t-27 -31q-24 -16 -38 -17q-12 0 -26 -6q-9 -4 -16 -4q-23 0 -66 26 q-13 7 -59 56q-10 11 -48 26q-43 18 -43 59q0 24 33 87l17 42l13 26q1 18 8 31q10 19 10 39t-61 21q-20 0 -33 -8q-12 -8 -37 -11q-28 -4 -35.5 -12t-29.5 -61q-25 -53 -52 -123q-33 -88 -50 -111t-48 -23q-13 0 -61 16q-53 17 -69 32t-48 79q-12 24 -36 52q-11 13 -11 35z M403 651q0 -24 28 -22l31 2q47 1 57.5 7t22.5 42q39 122 55 202q1 8 5 22q1 5 1 10q0 22 -15 24q-27 4 -106 -127q-18 -30 -48.5 -91.5t-30.5 -68.5zM541 1580q0 78 14.5 120t48.5 60q77 43 153 42q20 0 34 -11q33 -24 34 -52q0 -2 -4 -29q-2 -10 -2 -23q0 -9 1 -20 q1 -23 1 -29q0 -44 -20.5 -65.5t-77.5 -38.5q-30 -8 -55 -21q-49 -23 -67 -23q-60 0 -60 90zM929 1569q0 36 14 95q12 53 64 100q39 36 116 36q53 0 72 -16q28 -22 28 -72q0 -15 -6.5 -67.5t-9.5 -62.5q-6 -18 -23 -27.5t-85 -33.5q-95 -33 -121 -33q-49 0 -49 81z" />
<glyph unicode="&#xc5;" horiz-adv-x="994" d="M-135 227q0 17 18.5 61t38.5 75q27 43 27 59q0 9 -2 20q-6 31 -8 68l-4 28q0 19 16 34.5t47 25.5q36 11 47 22.5t30 54.5q14 31 15 38q1 9 17 18q26 16 59 96q26 58 57 97q27 33 46 69q14 29 96 129t165 191q47 51 62.5 62t39.5 11q12 0 18.5 -3.5t32.5 -23.5 q17 -13 47 -29q62 -32 95.5 -60.5t33.5 -49.5q0 -24 -32 -61q-10 -11 -10 -18q0 -8 18 -20q8 -5 34 -28q24 -21 31 -38q12 -32 12 -38t-3 -19q-5 -15 -7 -44q-14 -134 -66 -363t-125 -471q-26 -97 -33 -113t-27 -31q-24 -16 -38 -17q-12 0 -26 -6q-9 -4 -16 -4q-23 0 -66 26 q-13 7 -59 56q-10 11 -48 26q-43 18 -43 59q0 24 33 87l17 42l13 26q1 18 8 31q10 19 10 39t-61 21q-20 0 -33 -8q-12 -8 -37 -11q-28 -4 -35.5 -12t-29.5 -61q-25 -53 -52 -123q-33 -88 -50 -111t-48 -23q-13 0 -61 16q-53 17 -69 32t-48 79q-12 24 -36 52q-11 13 -11 35z M403 651q0 -24 28 -22l31 2q47 1 57.5 7t22.5 42q39 122 55 202q1 8 5 22q1 5 1 10q0 22 -15 24q-27 4 -106 -127q-18 -30 -48.5 -91.5t-30.5 -68.5zM579 1662q0 58 69 171q59 98 164 98q18 0 62 -8.5t57 -14.5q39 -17 76 -90.5t37 -132.5q0 -35 -25 -82.5t-63 -86.5 q-22 -23 -77 -51q-20 -11 -47 -11q-140 0 -188 54q-19 21 -42 75.5t-23 78.5zM754 1678q0 -32 24 -49q23 -16 46 -16q15 0 33 25t18 46q0 18 -11 44q-13 28 -48 29q-30 0 -42 -16q-20 -27 -20 -63z" />
<glyph unicode="&#xc6;" horiz-adv-x="1445" d="M-145 262q0 21 12 44.5t66 105.5q20 32 20 53q0 3 -4 30q-2 11 -2 20q0 71 9 85t62 29q26 7 38 20.5t70 102.5q235 355 422 526q66 60 108 82t92 22q19 0 27 -4.5t38 -31.5q17 -15 31 -15q9 0 36 10q26 11 109.5 24t122.5 13q209 0 298 -30q44 -15 58.5 -37.5 t36.5 -106.5q6 -22 14 -50q9 -28 9 -43q0 -32 -30 -61q-19 -19 -28 -19q-5 0 -44 18q-15 2 -123 19q-101 -12 -107.5 -16t-47.5 -81l-34 -46l-32 -56q-14 -21 -14 -23q1 -23 34 -21l67 4q93 -12 108 -17t25 -25q12 -30 17 -106l2 -36q-1 -6 -42 -67q-7 -10 -28 -21t-33 -10 l-68 6l-36 -2l-72 2q-106 -5 -115 -7.5t-21 -32.5q-2 -4 -31 -61q-17 -32 -37 -85t-20 -65q0 -4 2.5 -9.5t4.5 -5.5l60 11q2 0 25 -6q8 -4 39 -3h43q86 1 96 7q27 7 42 7q26 0 42 -36q12 -29 12 -44q0 -22 -26 -62q-14 -22 -13 -29l4 -44q-27 -21 -35 -35q-13 -25 -21.5 -30 t-41.5 -9q-108 -13 -207 -21q-79 -6 -115 -11q-45 -6 -76 -6q-42 0 -59 10.5t-76 73.5q-74 71 -90 94.5t-16 59.5q0 76 27 116q9 15 9 19q0 11 -18 19.5t-43 8.5q-43 0 -101 -18q-18 -5 -26.5 -19t-42.5 -92q-65 -135 -72 -148q-32 -61 -71 -61q-10 0 -49 11.5t-50 17.5 q-21 12 -31.5 26.5t-50.5 88.5q-38 62 -38 79zM417 658q0 -30 106 -30q26 0 46 20t48 74q30 56 62.5 136.5t33.5 100.5q2 36 -28 39q-26 2 -77 -57q-98 -114 -143 -196q-25 -47 -35 -60q-13 -18 -13 -27z" />
<glyph unicode="&#xc7;" horiz-adv-x="937" d="M-23 357q0 204 101 452q88 215 219 346q114 113 256 180q94 44 158 44q45 0 110 -32t116 -79q56 -50 56 -130q0 -81 -23.5 -161t-55.5 -105q-25 -20 -88.5 -42t-95.5 -22q-8 0 -12 4t-20 27q-25 2 -40 17.5t-15 40.5q0 31 26 85q30 63 30 83q0 26 -17 26q-28 0 -90 -72.5 t-107 -156.5q-153 -290 -153 -461q0 -36 15.5 -59t38.5 -23q46 0 170 61q45 22 64 36l14 13q6 5 9 6l23 -5l23 5q11 0 33 -48t22 -73q0 -42 -42 -122q-16 -31 -62 -68t-109 -69q-38 -19 -172 -58q-22 -6 -38 -27.5t-16 -45.5q0 -13 5 -19t36 -30q19 -14 31 -43t12 -58 q0 -79 -64 -129q-60 -47 -133 -47q-64 0 -127 45q-50 36 -50 55q0 11 41 45q3 2 15 15q23 28 36 28q6 0 44 -30q21 -17 45 -17q15 0 27.5 13.5t12.5 28.5q0 23 -15 35.5t-54 22.5q-30 8 -30 34q0 12 15 49t28 58q19 29 19 40q0 10 -12.5 20.5t-89.5 61.5q-120 80 -120 255z " />
<glyph unicode="&#xc8;" horiz-adv-x="905" d="M-98 291q0 25 8 46.5t55 124.5q41 101 68 145q15 23 16 30.5t3 75.5l-2 37q2 12 31 48q6 8 12 9.5t33 1.5q25 10 32 21l3 16l34 52q59 93 67.5 105.5t31.5 33.5q20 18 20 30q0 8 -21 77q-2 6 -2 30q0 97 40 117q26 14 126.5 26t182.5 12q159 0 234 -31q27 -11 39 -30 t25 -71q7 -27 24 -74q12 -33 12 -52q0 -28 -19 -51.5t-40 -23.5q-14 0 -55 26q-5 3 -26 4q-33 1 -43 4l-38 8l-56 -7q-32 -1 -36.5 -4.5t-41.5 -56.5q-26 -37 -38 -49q-6 -6 -9 -30q-30 -30 -34 -40q-11 -25 -10 -31q4 -15 62 -14q15 0 47 -3q31 -3 40 -3q50 -3 67 -17 t19 -53q1 -26 7 -81q1 -6 1 -14q0 -20 -16 -36q-17 -17 -36 -42q-6 -8 -23 -16.5t-25 -7.5l-78 11l-62 -5l-63 1h-49q-27 0 -37.5 -12.5t-51.5 -92.5q-6 -14 -29 -56q-27 -49 -27 -67q0 -20 26 -20h10q15 1 103 1l89 7l50 -2q31 7 36 7q18 0 33 -20q6 -9 14.5 -28.5 t8.5 -25.5q0 -9 -17 -43q-23 -45 -23 -78q0 -4 1 -10v-6q0 -7 -26 -32q-34 -38 -42.5 -41t-98.5 -13l-101 -16l-110 -4q-90 -7 -106 -7q-35 0 -56 13t-48 51q-115 159 -115 246zM573 1765q0 14 9.5 20.5t64.5 28.5l51 25l44 21q49 30 64 31q37 0 54 -84q10 -49 23 -96 q39 -142 39 -208q0 -12 -15.5 -24.5t-29.5 -12.5q-16 0 -36 16.5t-100 94.5q-98 92 -118 114q-50 57 -50 74z" />
<glyph unicode="&#xc9;" horiz-adv-x="905" d="M-98 291q0 25 8 46.5t55 124.5q41 101 68 145q15 23 16 30.5t3 75.5l-2 37q2 12 31 48q6 8 12 9.5t33 1.5q25 10 32 21l3 16l34 52q59 93 67.5 105.5t31.5 33.5q20 18 20 30q0 8 -21 77q-2 6 -2 30q0 97 40 117q26 14 126.5 26t182.5 12q159 0 234 -31q27 -11 39 -30 t25 -71q7 -27 24 -74q12 -33 12 -52q0 -28 -19 -51.5t-40 -23.5q-14 0 -55 26q-5 3 -26 4q-33 1 -43 4l-38 8l-56 -7q-32 -1 -36.5 -4.5t-41.5 -56.5q-26 -37 -38 -49q-6 -6 -9 -30q-30 -30 -34 -40q-11 -25 -10 -31q4 -15 62 -14q15 0 47 -3q31 -3 40 -3q50 -3 67 -17 t19 -53q1 -26 7 -81q1 -6 1 -14q0 -20 -16 -36q-17 -17 -36 -42q-6 -8 -23 -16.5t-25 -7.5l-78 11l-62 -5l-63 1h-49q-27 0 -37.5 -12.5t-51.5 -92.5q-6 -14 -29 -56q-27 -49 -27 -67q0 -20 26 -20h10q15 1 103 1l89 7l50 -2q31 7 36 7q18 0 33 -20q6 -9 14.5 -28.5 t8.5 -25.5q0 -9 -17 -43q-23 -45 -23 -78q0 -4 1 -10v-6q0 -7 -26 -32q-34 -38 -42.5 -41t-98.5 -13l-101 -16l-110 -4q-90 -7 -106 -7q-35 0 -56 13t-48 51q-115 159 -115 246zM643 1507q0 67 39 205q16 58 23 96q16 81 55 84q11 1 63 -31l44 -21l51 -26q53 -21 63.5 -28 t10.5 -21q0 -17 -50 -74q-22 -24 -118 -114q-79 -77 -99.5 -94t-36.5 -17q-15 0 -30 13.5t-15 27.5z" />
<glyph unicode="&#xca;" horiz-adv-x="905" d="M-98 291q0 25 8 46.5t55 124.5q41 101 68 145q15 23 16 30.5t3 75.5l-2 37q2 12 31 48q6 8 12 9.5t33 1.5q25 10 32 21l3 16l34 52q59 93 67.5 105.5t31.5 33.5q20 18 20 30q0 8 -21 77q-2 6 -2 30q0 97 40 117q26 14 126.5 26t182.5 12q159 0 234 -31q27 -11 39 -30 t25 -71q7 -27 24 -74q12 -33 12 -52q0 -28 -19 -51.5t-40 -23.5q-14 0 -55 26q-5 3 -26 4q-33 1 -43 4l-38 8l-56 -7q-32 -1 -36.5 -4.5t-41.5 -56.5q-26 -37 -38 -49q-6 -6 -9 -30q-30 -30 -34 -40q-11 -25 -10 -31q4 -15 62 -14q15 0 47 -3q31 -3 40 -3q50 -3 67 -17 t19 -53q1 -26 7 -81q1 -6 1 -14q0 -20 -16 -36q-17 -17 -36 -42q-6 -8 -23 -16.5t-25 -7.5l-78 11l-62 -5l-63 1h-49q-27 0 -37.5 -12.5t-51.5 -92.5q-6 -14 -29 -56q-27 -49 -27 -67q0 -20 26 -20h10q15 1 103 1l89 7l50 -2q31 7 36 7q18 0 33 -20q6 -9 14.5 -28.5 t8.5 -25.5q0 -9 -17 -43q-23 -45 -23 -78q0 -4 1 -10v-6q0 -7 -26 -32q-34 -38 -42.5 -41t-98.5 -13l-101 -16l-110 -4q-90 -7 -106 -7q-35 0 -56 13t-48 51q-115 159 -115 246zM416 1534q0 18 20.5 39t94.5 79q31 25 141 123q28 26 47 33t60 7q39 0 61.5 -12t107.5 -77 l77 -56q64 -58 74.5 -69.5t10.5 -21.5q0 -16 -16.5 -28.5t-44.5 -17.5q-7 -1 -106 -31q-37 -11 -49 -11q-22 0 -44 14t-67 57q-17 17 -63 46q-64 -69 -104 -98t-73 -29q-44 0 -95 19q-32 13 -32 34z" />
<glyph unicode="&#xcb;" horiz-adv-x="905" d="M-98 291q0 25 8 46.5t55 124.5q41 101 68 145q15 23 16 30.5t3 75.5l-2 37q2 12 31 48q6 8 12 9.5t33 1.5q25 10 32 21l3 16l34 52q59 93 67.5 105.5t31.5 33.5q20 18 20 30q0 8 -21 77q-2 6 -2 30q0 97 40 117q26 14 126.5 26t182.5 12q159 0 234 -31q27 -11 39 -30 t25 -71q7 -27 24 -74q12 -33 12 -52q0 -28 -19 -51.5t-40 -23.5q-14 0 -55 26q-5 3 -26 4q-33 1 -43 4l-38 8l-56 -7q-32 -1 -36.5 -4.5t-41.5 -56.5q-26 -37 -38 -49q-6 -6 -9 -30q-30 -30 -34 -40q-11 -25 -10 -31q4 -15 62 -14q15 0 47 -3q31 -3 40 -3q50 -3 67 -17 t19 -53q1 -26 7 -81q1 -6 1 -14q0 -20 -16 -36q-17 -17 -36 -42q-6 -8 -23 -16.5t-25 -7.5l-78 11l-62 -5l-63 1h-49q-27 0 -37.5 -12.5t-51.5 -92.5q-6 -14 -29 -56q-27 -49 -27 -67q0 -20 26 -20h10q15 1 103 1l89 7l50 -2q31 7 36 7q18 0 33 -20q6 -9 14.5 -28.5 t8.5 -25.5q0 -9 -17 -43q-23 -45 -23 -78q0 -4 1 -10v-6q0 -7 -26 -32q-34 -38 -42.5 -41t-98.5 -13l-101 -16l-110 -4q-90 -7 -106 -7q-35 0 -56 13t-48 51q-115 159 -115 246zM469 1580q0 78 14.5 120t48.5 60q77 43 153 42q20 0 34 -11q33 -24 34 -52q0 -2 -4 -29 q-2 -10 -2 -23q0 -9 1 -20q1 -23 1 -29q0 -44 -20.5 -65.5t-77.5 -38.5q-30 -8 -55 -21q-49 -23 -67 -23q-60 0 -60 90zM857 1569q0 36 14 95q12 53 64 100q39 36 116 36q53 0 72 -16q28 -22 28 -72q0 -15 -6.5 -67.5t-9.5 -62.5q-6 -18 -23 -27.5t-85 -33.5 q-95 -33 -121 -33q-49 0 -49 81z" />
<glyph unicode="&#xcc;" horiz-adv-x="603" d="M-89 171q0 19 17 68q8 22 26 78q30 94 42.5 126.5t84.5 201.5q24 55 87 219q87 227 131 302q47 82 38 89q2 20 6 27.5t22 24.5q40 37 57 38q15 1 66.5 -22t85.5 -45q38 -25 60 -68t22 -58q0 -10 -13 -35q-10 -20 -33 -75q-22 -52 -65 -143q-57 -120 -67 -143.5 t-75 -195.5l-53 -132l-46 -145l-35 -96q-28 -118 -37 -138.5t-36 -31.5q-8 -3 -21 -9q-60 -28 -104 -28q-10 0 -13 3t-12 21l-20 25q-35 54 -40.5 60.5t-29.5 20.5q-27 18 -36 30t-9 31zM476 1765q0 14 9.5 20.5t64.5 28.5l51 25l44 21q49 30 64 31q37 0 54 -84 q10 -49 23 -96q39 -142 39 -208q0 -12 -15.5 -24.5t-29.5 -12.5q-16 0 -36 16.5t-100 94.5q-98 92 -118 114q-50 57 -50 74z" />
<glyph unicode="&#xcd;" horiz-adv-x="603" d="M-89 171q0 19 17 68q8 22 26 78q30 94 42.5 126.5t84.5 201.5q24 55 87 219q87 227 131 302q47 82 38 89q2 20 6 27.5t22 24.5q40 37 57 38q15 1 66.5 -22t85.5 -45q38 -25 60 -68t22 -58q0 -10 -13 -35q-10 -20 -33 -75q-22 -52 -65 -143q-57 -120 -67 -143.5 t-75 -195.5l-53 -132l-46 -145l-35 -96q-28 -118 -37 -138.5t-36 -31.5q-8 -3 -21 -9q-60 -28 -104 -28q-10 0 -13 3t-12 21l-20 25q-35 54 -40.5 60.5t-29.5 20.5q-27 18 -36 30t-9 31zM519 1507q0 67 39 205q16 58 23 96q16 81 55 84q11 1 63 -31l44 -21l51 -26 q53 -21 63.5 -28t10.5 -21q0 -17 -50 -74q-22 -24 -118 -114q-79 -77 -99.5 -94t-36.5 -17q-15 0 -30 13.5t-15 27.5z" />
<glyph unicode="&#xce;" horiz-adv-x="603" d="M-89 171q0 19 17 68q8 22 26 78q30 94 42.5 126.5t84.5 201.5q24 55 87 219q87 227 131 302q47 82 38 89q2 20 6 27.5t22 24.5q40 37 57 38q15 1 66.5 -22t85.5 -45q38 -25 60 -68t22 -58q0 -10 -13 -35q-10 -20 -33 -75q-22 -52 -65 -143q-57 -120 -67 -143.5 t-75 -195.5l-53 -132l-46 -145l-35 -96q-28 -118 -37 -138.5t-36 -31.5q-8 -3 -21 -9q-60 -28 -104 -28q-10 0 -13 3t-12 21l-20 25q-35 54 -40.5 60.5t-29.5 20.5q-27 18 -36 30t-9 31zM264 1534q0 18 20.5 39t94.5 79q31 25 141 123q28 26 47 33t60 7q39 0 61.5 -12 t107.5 -77l77 -56q64 -58 74.5 -69.5t10.5 -21.5q0 -16 -16.5 -28.5t-44.5 -17.5q-7 -1 -106 -31q-37 -11 -49 -11q-22 0 -44 14t-67 57q-17 17 -63 46q-64 -69 -104 -98t-73 -29q-44 0 -95 19q-32 13 -32 34z" />
<glyph unicode="&#xcf;" horiz-adv-x="603" d="M-89 171q0 19 17 68q8 22 26 78q30 94 42.5 126.5t84.5 201.5q24 55 87 219q87 227 131 302q47 82 38 89q2 20 6 27.5t22 24.5q40 37 57 38q15 1 66.5 -22t85.5 -45q38 -25 60 -68t22 -58q0 -10 -13 -35q-10 -20 -33 -75q-22 -52 -65 -143q-57 -120 -67 -143.5 t-75 -195.5l-53 -132l-46 -145l-35 -96q-28 -118 -37 -138.5t-36 -31.5q-8 -3 -21 -9q-60 -28 -104 -28q-10 0 -13 3t-12 21l-20 25q-35 54 -40.5 60.5t-29.5 20.5q-27 18 -36 30t-9 31zM284 1585q0 87 15 134t48 68q78 47 155 46q20 0 34 -12q32 -27 34 -58q0 -2 -4 -33 q-2 -11 -2 -26q0 -11 1 -22q1 -28 1 -33q0 -49 -20.5 -73t-78.5 -42q-30 -10 -55 -24q-49 -26 -68 -26q-60 0 -60 101zM675 1571q0 39 14 106q12 59 65 112q38 40 117 40q52 0 72 -17q28 -25 28 -82q0 -17 -6.5 -75t-9.5 -69q-7 -22 -22.5 -31.5t-86.5 -37.5 q-96 -37 -121 -37q-50 0 -50 91z" />
<glyph unicode="&#xd0;" horiz-adv-x="1115" d="M-93 208q0 38 25 86t149 246q13 21 29 49q-12 3 -49 6q-25 2 -34 20.5t-10 67.5q0 18 -4 56q-1 10 -1 18q0 7 3 11.5t21 23.5l17 27q20 20 28 29t16 9q6 0 30 -8l32 -2l32 -1l34 5q1 0 7 -2q9 23 11 30q24 70 26 73q9 21 9 29q0 15 -23 38q-22 23 -29 38t-7 42q0 13 1 33 q3 46 3 60q0 51 6 73t23 39q20 20 54 30t103 16q180 15 219 15q181 0 285 -96q71 -66 120 -169q52 -112 52 -193q0 -71 -40 -189.5t-106 -245.5q-149 -285 -410 -423q-134 -71 -189 -71q-14 0 -26.5 8.5t-44.5 41.5q-44 45 -66 45q-10 0 -15.5 -6t-27.5 -41q-18 -30 -49 -30 q-24 0 -46.5 15.5t-72.5 67.5q-85 88 -85 129zM361 373q1 -18 26 -18q33 0 85.5 50.5t108.5 136.5q76 118 125 247q38 97 45.5 121.5t7.5 54.5q0 40 -36 63t-100 23q-25 0 -43.5 -6t-18.5 -15q0 -5 33 -30q13 -10 13 -33q0 -25 -24 -106q26 -10 34.5 -30.5t8.5 -76.5 q0 -23 -8 -43t-39 -75q-17 -30 -67 -30q-11 0 -29 2q-70 -156 -114 -218q-8 -12 -8 -17z" />
<glyph unicode="&#xd1;" horiz-adv-x="1102" d="M-72 254q0 65 140 367q181 397 245 670q11 44 34.5 64.5t61.5 20.5q12 0 21.5 -4t53.5 -29q7 -4 58 -23q54 -21 68.5 -47t20.5 -115q10 -134 10 -239q0 -120 14 -120q5 0 41 114q48 151 126 332q49 113 87 113t151 -102q67 -61 78.5 -77t9.5 -41q-2 -20 -18 -53.5 t-109 -212.5q-20 -38 -95 -230.5t-97 -264.5q-88 -277 -99 -320q-18 -78 -66 -78q-33 0 -127 50q-67 37 -86 60t-19 70l3 105l-1 172v78q-14 121 -18 131q-7 1 -36 -112q-19 -71 -97 -303q-32 -95 -38 -130q-22 -107 -74 -107q-33 0 -63.5 21t-46.5 54q-16 35 -21.5 41.5 t-43.5 33.5q-29 21 -48.5 52.5t-19.5 58.5zM522 1595q0 37 68 104q96 94 247 94q84 0 191 -71q9 -6 13 -6q8 0 22 16q58 66 99 66q17 0 49 -23q51 -37 62 -48.5t11 -28.5q0 -25 -83 -104q-97 -91 -230 -91q-50 0 -79.5 11.5t-120.5 67.5q-11 7 -19 7q-10 0 -21 -17 q-51 -77 -94 -77q-10 0 -27 10.5t-60 43.5q-28 21 -28 46z" />
<glyph unicode="&#xd2;" horiz-adv-x="1105" d="M-14 322q0 103 30 244t73 241q51 116 132 238t147 181q156 139 181 155q21 15 61 21l36 8q24 -3 71 -66q37 -50 47.5 -60t23.5 -10q5 0 51 22q24 12 52 12q29 0 46.5 -13t35.5 -49q76 -146 76 -313q0 -216 -119 -456q-124 -252 -320 -391q-167 -119 -281 -119 q-43 0 -88.5 27.5t-125.5 101.5q-81 76 -105 117.5t-24 108.5zM326 346q0 -42 21 -42q19 0 88.5 95.5t123.5 195.5q74 137 100.5 207t26.5 130q0 25 -10 43t-25 18q-23 0 -98 -119q-67 -105 -97 -168t-77 -194q-28 -79 -42 -114q-11 -27 -11 -52zM727 1765q0 14 9.5 20.5 t64.5 28.5l51 25l44 21q49 30 64 31q37 0 54 -84q10 -49 23 -96q39 -142 39 -208q0 -12 -15.5 -24.5t-29.5 -12.5q-16 0 -36 16.5t-100 94.5q-98 92 -118 114q-50 57 -50 74z" />
<glyph unicode="&#xd3;" horiz-adv-x="1105" d="M-14 322q0 103 30 244t73 241q51 116 132 238t147 181q156 139 181 155q21 15 61 21l36 8q24 -3 71 -66q37 -50 47.5 -60t23.5 -10q5 0 51 22q24 12 52 12q29 0 46.5 -13t35.5 -49q76 -146 76 -313q0 -216 -119 -456q-124 -252 -320 -391q-167 -119 -281 -119 q-43 0 -88.5 27.5t-125.5 101.5q-81 76 -105 117.5t-24 108.5zM326 346q0 -42 21 -42q19 0 88.5 95.5t123.5 195.5q74 137 100.5 207t26.5 130q0 25 -10 43t-25 18q-23 0 -98 -119q-67 -105 -97 -168t-77 -194q-28 -79 -42 -114q-11 -27 -11 -52zM770 1507q0 67 39 205 q16 58 23 96q16 81 55 84q11 1 63 -31l44 -21l51 -26q53 -21 63.5 -28t10.5 -21q0 -17 -50 -74q-22 -24 -118 -114q-79 -77 -99.5 -94t-36.5 -17q-15 0 -30 13.5t-15 27.5z" />
<glyph unicode="&#xd4;" horiz-adv-x="1105" d="M-14 322q0 103 30 244t73 241q51 116 132 238t147 181q156 139 181 155q21 15 61 21l36 8q24 -3 71 -66q37 -50 47.5 -60t23.5 -10q5 0 51 22q24 12 52 12q29 0 46.5 -13t35.5 -49q76 -146 76 -313q0 -216 -119 -456q-124 -252 -320 -391q-167 -119 -281 -119 q-43 0 -88.5 27.5t-125.5 101.5q-81 76 -105 117.5t-24 108.5zM326 346q0 -42 21 -42q19 0 88.5 95.5t123.5 195.5q74 137 100.5 207t26.5 130q0 25 -10 43t-25 18q-23 0 -98 -119q-67 -105 -97 -168t-77 -194q-28 -79 -42 -114q-11 -27 -11 -52zM516 1534q0 18 20.5 39 t94.5 79q31 25 141 123q28 26 47 33t60 7q39 0 61.5 -12t107.5 -77l77 -56q64 -58 74.5 -69.5t10.5 -21.5q0 -16 -16.5 -28.5t-44.5 -17.5q-7 -1 -106 -31q-37 -11 -49 -11q-22 0 -44 14t-67 57q-17 17 -63 46q-64 -69 -104 -98t-73 -29q-44 0 -95 19q-32 13 -32 34z" />
<glyph unicode="&#xd5;" horiz-adv-x="1105" d="M-14 322q0 103 30 244t73 241q51 116 132 238t147 181q156 139 181 155q21 15 61 21l36 8q24 -3 71 -66q37 -50 47.5 -60t23.5 -10q5 0 51 22q24 12 52 12q29 0 46.5 -13t35.5 -49q76 -146 76 -313q0 -216 -119 -456q-124 -252 -320 -391q-167 -119 -281 -119 q-43 0 -88.5 27.5t-125.5 101.5q-81 76 -105 117.5t-24 108.5zM326 346q0 -42 21 -42q19 0 88.5 95.5t123.5 195.5q74 137 100.5 207t26.5 130q0 25 -10 43t-25 18q-23 0 -98 -119q-67 -105 -97 -168t-77 -194q-28 -79 -42 -114q-11 -27 -11 -52zM523 1595q0 37 68 104 q96 94 247 94q84 0 191 -71q9 -6 13 -6q8 0 22 16q58 66 99 66q17 0 49 -23q51 -37 62 -48.5t11 -28.5q0 -25 -83 -104q-97 -91 -230 -91q-50 0 -79.5 11.5t-120.5 67.5q-11 7 -19 7q-10 0 -21 -17q-51 -77 -94 -77q-10 0 -27 10.5t-60 43.5q-28 21 -28 46z" />
<glyph unicode="&#xd6;" horiz-adv-x="1105" d="M-14 322q0 103 30 244t73 241q51 116 132 238t147 181q156 139 181 155q21 15 61 21l36 8q24 -3 71 -66q37 -50 47.5 -60t23.5 -10q5 0 51 22q24 12 52 12q29 0 46.5 -13t35.5 -49q76 -146 76 -313q0 -216 -119 -456q-124 -252 -320 -391q-167 -119 -281 -119 q-43 0 -88.5 27.5t-125.5 101.5q-81 76 -105 117.5t-24 108.5zM326 346q0 -42 21 -42q19 0 88.5 95.5t123.5 195.5q74 137 100.5 207t26.5 130q0 25 -10 43t-25 18q-23 0 -98 -119q-67 -105 -97 -168t-77 -194q-28 -79 -42 -114q-11 -27 -11 -52zM596 1580q0 78 14.5 120 t48.5 60q77 43 153 42q20 0 34 -11q33 -24 34 -52q0 -2 -4 -29q-2 -10 -2 -23q0 -9 1 -20q1 -23 1 -29q0 -44 -20.5 -65.5t-77.5 -38.5q-30 -8 -55 -21q-49 -23 -67 -23q-60 0 -60 90zM984 1569q0 36 14 95q12 53 64 100q39 36 116 36q53 0 72 -16q28 -22 28 -72 q0 -15 -6.5 -67.5t-9.5 -62.5q-6 -18 -23 -27.5t-85 -33.5q-95 -33 -121 -33q-49 0 -49 81z" />
<glyph unicode="&#xd7;" horiz-adv-x="1092" d="M81 466q0 23 83 82q36 26 103 71q73 48 95 64l33 24q-16 27 -35 56q-92 145 -92 171q0 30 61 68q7 4 52 14q25 0 53 -48l48 -80q35 -61 49 -83l203 146q26 20 47 37q33 27 58 27t53 -35q35 -46 35 -67q0 -18 -26.5 -40t-138.5 -98q-68 -46 -152 -107q23 -40 52 -82 q77 -113 77 -135q0 -14 -20 -36.5t-43 -35.5q-25 -13 -50 -13q-15 0 -25.5 10t-31.5 45l-92 151q-89 -62 -133 -94l-78 -64q-59 -48 -93 -48q-23 0 -42 18q-16 16 -33 44t-17 38z" />
<glyph unicode="&#xd8;" horiz-adv-x="1129" d="M-160 155q0 17 29 32q12 1 61 54q33 35 72 68q-2 26 -2 33q0 96 33 235.5t82 250.5q47 106 140.5 235t188.5 219q129 121 200 121q19 0 28.5 -7t50.5 -51q72 -77 77 -77q3 0 16 8q16 8 49.5 17.5t49.5 9.5q31 0 64 -57q6 -10 32 -66q8 -17 21 -40q99 65 125.5 79.5 t43.5 14.5q35 0 49 -41q13 -37 13 -38q-1 -9 -21 -20q-32 -18 -108 -70l-80 -50q9 -61 9 -106q0 -130 -63 -304t-156 -301q-122 -166 -278 -261q-131 -80 -221 -80q-43 0 -87 24.5t-114 86.5q-54 48 -95 95q-106 -114 -143 -114q-18 0 -34 12q-22 16 -21 23l3 32q0 1 -8 14 q-6 9 -6 19zM321 379q0 -12 12 -55q7 -27 32 -27q40 0 113 94q45 58 61 83.5t66 118.5q50 90 63 121q-34 -20 -39 -24t-78 -73l-110 -93q-84 -76 -108 -93q-4 -17 -6 -22q-6 -23 -6 -30zM430 691q48 32 139 104q32 26 77 59q52 39 74 61q-2 112 -41 112q-36 0 -76 -48 q-27 -32 -98 -155q-55 -93 -75 -133z" />
<glyph unicode="&#xd9;" horiz-adv-x="1115" d="M37 363q0 126 28 246.5t97 290.5q137 337 155 364q12 19 28.5 28t99.5 45q51 22 79 22q16 0 23 -5.5t25 -33.5q10 -16 18 -22.5t52 -34.5q30 -18 30 -32q0 -6 -14 -26q-10 -9 -33 -76q-8 -24 -56 -140q-77 -187 -137 -377t-60 -246q0 -27 8.5 -45.5t19.5 -18.5 q18 0 74.5 92t112.5 213q53 114 79.5 185.5t62.5 197.5q72 246 75 264q10 59 23.5 81t40.5 22q35 0 167 -92q36 -26 51.5 -57.5t15.5 -79.5q0 -124 -66 -337t-156 -384q-127 -238 -258 -342q-110 -87 -213 -87q-67 0 -141.5 34.5t-131.5 91.5q-99 100 -99 259zM678 1765 q0 14 9.5 20.5t64.5 28.5l51 25l44 21q49 30 64 31q37 0 54 -84q10 -49 23 -96q39 -142 39 -208q0 -12 -15.5 -24.5t-29.5 -12.5q-16 0 -36 16.5t-100 94.5q-98 92 -118 114q-50 57 -50 74z" />
<glyph unicode="&#xda;" horiz-adv-x="1115" d="M37 363q0 126 28 246.5t97 290.5q137 337 155 364q12 19 28.5 28t99.5 45q51 22 79 22q16 0 23 -5.5t25 -33.5q10 -16 18 -22.5t52 -34.5q30 -18 30 -32q0 -6 -14 -26q-10 -9 -33 -76q-8 -24 -56 -140q-77 -187 -137 -377t-60 -246q0 -27 8.5 -45.5t19.5 -18.5 q18 0 74.5 92t112.5 213q53 114 79.5 185.5t62.5 197.5q72 246 75 264q10 59 23.5 81t40.5 22q35 0 167 -92q36 -26 51.5 -57.5t15.5 -79.5q0 -124 -66 -337t-156 -384q-127 -238 -258 -342q-110 -87 -213 -87q-67 0 -141.5 34.5t-131.5 91.5q-99 100 -99 259zM776 1507 q0 67 39 205q16 58 23 96q16 81 55 84q11 1 63 -31l44 -21l51 -26q53 -21 63.5 -28t10.5 -21q0 -17 -50 -74q-22 -24 -118 -114q-79 -77 -99.5 -94t-36.5 -17q-15 0 -30 13.5t-15 27.5z" />
<glyph unicode="&#xdb;" horiz-adv-x="1115" d="M37 363q0 126 28 246.5t97 290.5q137 337 155 364q12 19 28.5 28t99.5 45q51 22 79 22q16 0 23 -5.5t25 -33.5q10 -16 18 -22.5t52 -34.5q30 -18 30 -32q0 -6 -14 -26q-10 -9 -33 -76q-8 -24 -56 -140q-77 -187 -137 -377t-60 -246q0 -27 8.5 -45.5t19.5 -18.5 q18 0 74.5 92t112.5 213q53 114 79.5 185.5t62.5 197.5q72 246 75 264q10 59 23.5 81t40.5 22q35 0 167 -92q36 -26 51.5 -57.5t15.5 -79.5q0 -124 -66 -337t-156 -384q-127 -238 -258 -342q-110 -87 -213 -87q-67 0 -141.5 34.5t-131.5 91.5q-99 100 -99 259zM480 1534 q0 18 20.5 39t94.5 79q31 25 141 123q28 26 47 33t60 7q39 0 61.5 -12t107.5 -77l77 -56q64 -58 74.5 -69.5t10.5 -21.5q0 -16 -16.5 -28.5t-44.5 -17.5q-7 -1 -106 -31q-37 -11 -49 -11q-22 0 -44 14t-67 57q-17 17 -63 46q-64 -69 -104 -98t-73 -29q-44 0 -95 19 q-32 13 -32 34z" />
<glyph unicode="&#xdc;" horiz-adv-x="1115" d="M37 363q0 126 28 246.5t97 290.5q137 337 155 364q12 19 28.5 28t99.5 45q51 22 79 22q16 0 23 -5.5t25 -33.5q10 -16 18 -22.5t52 -34.5q30 -18 30 -32q0 -6 -14 -26q-10 -9 -33 -76q-8 -24 -56 -140q-77 -187 -137 -377t-60 -246q0 -27 8.5 -45.5t19.5 -18.5 q18 0 74.5 92t112.5 213q53 114 79.5 185.5t62.5 197.5q72 246 75 264q10 59 23.5 81t40.5 22q35 0 167 -92q36 -26 51.5 -57.5t15.5 -79.5q0 -124 -66 -337t-156 -384q-127 -238 -258 -342q-110 -87 -213 -87q-67 0 -141.5 34.5t-131.5 91.5q-99 100 -99 259zM574 1580 q0 78 14.5 120t48.5 60q77 43 153 42q20 0 34 -11q33 -24 34 -52q0 -2 -4 -29q-2 -10 -2 -23q0 -9 1 -20q1 -23 1 -29q0 -44 -20.5 -65.5t-77.5 -38.5q-30 -8 -55 -21q-49 -23 -67 -23q-60 0 -60 90zM962 1569q0 36 14 95q12 53 64 100q39 36 116 36q53 0 72 -16 q28 -22 28 -72q0 -15 -6.5 -67.5t-9.5 -62.5q-6 -18 -23 -27.5t-85 -33.5q-95 -33 -121 -33q-49 0 -49 81z" />
<glyph unicode="&#xdd;" horiz-adv-x="907" d="M-29 125q0 26 15.5 45.5t83.5 80.5q35 32 85.5 89t72.5 90q47 72 47 78q0 15 -53 44q-41 24 -56.5 58.5t-27.5 128.5q-24 194 -24 299q0 72 8.5 157.5t18.5 118.5q16 52 136 52q39 0 56 -5t82 -36q42 -19 54 -26q34 -20 34 -56q0 -2 -21 -116q-16 -79 -19 -106t-3 -108 q0 -25 7.5 -43.5t18.5 -18.5q17 0 55 98q9 27 54 121q75 160 102 253q25 89 82 89q42 0 113 -58q99 -81 95 -148q-3 -50 -52 -188q-43 -121 -218 -440q-72 -132 -109 -188.5t-187 -262.5q-96 -138 -112 -154q-37 -38 -83 -38q-24 0 -45 12q-34 19 -36 20l-59 -5 q-10 1 -32.5 20t-36.5 39q-46 63 -46 104zM603 1507q0 67 39 205q16 58 23 96q16 81 55 84q11 1 63 -31l44 -21l51 -26q53 -21 63.5 -28t10.5 -21q0 -17 -50 -74q-22 -24 -118 -114q-79 -77 -99.5 -94t-36.5 -17q-15 0 -30 13.5t-15 27.5z" />
<glyph unicode="&#xde;" horiz-adv-x="1062" d="M-68 222q2 44 103 285.5t168 362.5q21 38 21 72q0 20 -21 57q-27 48 -27 60q0 18 27.5 35.5t64.5 22.5q46 7 59 15.5t26 41.5q32 82 35 124q2 19 6.5 27.5t21.5 24.5q42 38 59 38q19 0 79.5 -28.5t87.5 -50.5q44 -35 68 -130q6 -22 24 -22l63 2q51 0 128 -90 q112 -130 112 -245q0 -125 -129 -305q-125 -177 -272 -270q-105 -66 -135 -66q-24 0 -40.5 18t-76.5 110q-15 23 -22 23q-27 0 -85 -241q-22 -91 -90 -91q-20 0 -30.5 6.5t-47.5 44.5q-28 26 -108 69q-72 41 -69 100zM473 617q0 -21 15 -22q8 0 58 35t66 53q15 17 53.5 74.5 t39.5 64.5q2 14 -10.5 24.5t-32.5 10.5q-12 0 -55 -12q-26 -5 -29 -7t-12 -25q-2 -4 -29 -50q-15 -24 -39.5 -80t-24.5 -66z" />
<glyph unicode="&#xdf;" horiz-adv-x="1047" d="M-163 47q0 12 38 137q36 117 56 171.5t103 264.5q123 336 165.5 437.5t91.5 167.5q62 86 178 137q81 36 134 36q89 0 197 -69q46 -30 68 -61t48 -103q36 -96 36 -163q0 -119 -88 -234q-18 -23 -71 -65q32 -23 50 -64q43 -98 43 -180q0 -62 -42 -161t-101 -172 q-126 -160 -280 -160q-98 0 -161 75q-34 40 -55 90.5t-21 90.5q0 22 8 57q6 29 8 38q2 16 3.5 18t23.5 13q43 22 46 22l59 -3q4 0 22 8q18 9 35 9q12 0 15 -3.5t10 -26.5q13 -9 15 -14t2 -25q0 -9 -1 -16q-2 -30 -2 -39q0 -25 24 -25q23 0 33 38q17 62 23 75 q26 65 30.5 79.5t4.5 34.5q0 16 -2 34q-4 28 -4 36q-1 27 -4.5 35t-23.5 29q-29 29 -43 29q-5 0 -26 -6q-9 -2 -18 -2q-19 0 -32 12.5t-13 32.5q0 50 95 128q44 37 57.5 53.5t23.5 47.5q13 40 13 80q0 112 -40 112q-16 0 -59 -34q-27 -22 -57 -90q-4 -11 -47 -99 q-47 -96 -61.5 -131t-71.5 -184q-103 -269 -106 -284q-18 -113 -33 -134q-14 -20 -14 -23l5 -59q1 -11 -28 -23.5t-57 -12.5q-23 0 -122 9q-44 4 -51 5q-29 0 -29 24z" />
<glyph unicode="&#xe0;" horiz-adv-x="907" d="M-92 295q0 131 59 279q29 72 70 129t118 130q116 112 224 159q69 30 99 30t44 -48q14 -50 31 -50q8 0 40 66q21 42 79 42q30 0 45.5 -9t67.5 -57q20 -18 47 -35q57 -37 55 -65q-1 -10 -10 -28t-37 -82q-16 -35 -51 -110q-50 -106 -65.5 -152t-47.5 -183 q-25 -104 -29.5 -131.5t-13.5 -121.5q-5 -55 -20.5 -72t-68.5 -26q-6 1 -40 21q-13 8 -62 19q-81 18 -93 33q-5 5 -23 31t-25 20q-6 0 -19 -12q-32 -27 -79 -48.5t-76 -21.5q-35 0 -82.5 37t-82.5 93q-54 84 -54 163zM239 364q0 -26 18 -26q1 0 58 33q60 47 64.5 53t7.5 40 q-1 16 22 68q18 39 22 56q9 38 17 48t8 16q0 9 -11 9q-26 0 -65 -40q-45 -47 -60 -69t-34 -69q-24 -59 -33 -74q-14 -25 -14 -45zM509 1452q0 25 72 52q44 17 101 31.5t73 14.5q36 0 53 -19q11 -12 16 -29.5t22 -112.5l22 -111q3 -77 3 -80q0 -38 -82 -38q-33 0 -75 39 q-10 9 -62 76q-10 14 -59 63q-57 57 -70.5 75.5t-13.5 38.5z" />
<glyph unicode="&#xe1;" horiz-adv-x="907" d="M-92 295q0 131 59 279q29 72 70 129t118 130q116 112 224 159q69 30 99 30t44 -48q14 -50 31 -50q8 0 40 66q21 42 79 42q30 0 45.5 -9t67.5 -57q20 -18 47 -35q57 -37 55 -65q-1 -10 -10 -28t-37 -82q-16 -35 -51 -110q-50 -106 -65.5 -152t-47.5 -183 q-25 -104 -29.5 -131.5t-13.5 -121.5q-5 -55 -20.5 -72t-68.5 -26q-6 1 -40 21q-13 8 -62 19q-81 18 -93 33q-5 5 -23 31t-25 20q-6 0 -19 -12q-32 -27 -79 -48.5t-76 -21.5q-35 0 -82.5 37t-82.5 93q-54 84 -54 163zM239 364q0 -26 18 -26q1 0 58 33q60 47 64.5 53t7.5 40 q-1 16 22 68q18 39 22 56q9 38 17 48t8 16q0 9 -11 9q-26 0 -65 -40q-45 -47 -60 -69t-34 -69q-24 -59 -33 -74q-14 -25 -14 -45zM429 1207q0 10 17 32.5t122 144.5q89 98 105 110.5t52 12.5q24 0 49 -11t96 -53q66 -38 66 -60q0 -29 -61 -59q-43 -22 -176 -79q-1 0 -84 -39 q-79 -36 -119 -36q-28 0 -47 10.5t-20 26.5z" />
<glyph unicode="&#xe2;" horiz-adv-x="907" d="M-92 295q0 131 59 279q29 72 70 129t118 130q116 112 224 159q69 30 99 30t44 -48q14 -50 31 -50q8 0 40 66q21 42 79 42q30 0 45.5 -9t67.5 -57q20 -18 47 -35q57 -37 55 -65q-1 -10 -10 -28t-37 -82q-16 -35 -51 -110q-50 -106 -65.5 -152t-47.5 -183 q-25 -104 -29.5 -131.5t-13.5 -121.5q-5 -55 -20.5 -72t-68.5 -26q-6 1 -40 21q-13 8 -62 19q-81 18 -93 33q-5 5 -23 31t-25 20q-6 0 -19 -12q-32 -27 -79 -48.5t-76 -21.5q-35 0 -82.5 37t-82.5 93q-54 84 -54 163zM239 364q0 -26 18 -26q1 0 58 33q60 47 64.5 53t7.5 40 q-1 16 22 68q18 39 22 56q9 38 17 48t8 16q0 9 -11 9q-26 0 -65 -40q-45 -47 -60 -69t-34 -69q-24 -59 -33 -74q-14 -25 -14 -45zM326 1236q0 23 33 59t163 154q85 81 106 94.5t62 13.5q42 0 63 -13t102 -92l73 -66q60 -69 70 -82.5t10 -25.5q0 -7 -8.5 -22t-15.5 -19 q0 -1 -110 -40q-14 -5 -24 -9q-33 -13 -45 -13q-23 0 -56 27q-7 6 -50 57q-14 18 -60 54q-167 -118 -231 -118q-33 0 -57.5 12.5t-24.5 28.5z" />
<glyph unicode="&#xe3;" horiz-adv-x="907" d="M-92 295q0 131 59 279q29 72 70 129t118 130q116 112 224 159q69 30 99 30t44 -48q14 -50 31 -50q8 0 40 66q21 42 79 42q30 0 45.5 -9t67.5 -57q20 -18 47 -35q57 -37 55 -65q-1 -10 -10 -28t-37 -82q-16 -35 -51 -110q-50 -106 -65.5 -152t-47.5 -183 q-25 -104 -29.5 -131.5t-13.5 -121.5q-5 -55 -20.5 -72t-68.5 -26q-6 1 -40 21q-13 8 -62 19q-81 18 -93 33q-5 5 -23 31t-25 20q-6 0 -19 -12q-32 -27 -79 -48.5t-76 -21.5q-35 0 -82.5 37t-82.5 93q-54 84 -54 163zM239 364q0 -26 18 -26q1 0 58 33q60 47 64.5 53t7.5 40 q-1 16 22 68q18 39 22 56q9 38 17 48t8 16q0 9 -11 9q-26 0 -65 -40q-45 -47 -60 -69t-34 -69q-24 -59 -33 -74q-14 -25 -14 -45zM358 1280q0 38 62 105q89 95 230 95q89 0 184 -58q9 -5 12 -5q7 0 18 13q49 55 81 55q17 0 45 -23q48 -39 57.5 -50t9.5 -27q0 -26 -76 -105 q-90 -92 -215 -92q-43 0 -80.5 13t-111.5 53q-10 6 -17 6q-8 0 -17 -14q-41 -67 -76 -67q-16 0 -80 54q-26 22 -26 47z" />
<glyph unicode="&#xe4;" horiz-adv-x="907" d="M-92 295q0 131 59 279q29 72 70 129t118 130q116 112 224 159q69 30 99 30t44 -48q14 -50 31 -50q8 0 40 66q21 42 79 42q30 0 45.5 -9t67.5 -57q20 -18 47 -35q57 -37 55 -65q-1 -10 -10 -28t-37 -82q-16 -35 -51 -110q-50 -106 -65.5 -152t-47.5 -183 q-25 -104 -29.5 -131.5t-13.5 -121.5q-5 -55 -20.5 -72t-68.5 -26q-6 1 -40 21q-13 8 -62 19q-81 18 -93 33q-5 5 -23 31t-25 20q-6 0 -19 -12q-32 -27 -79 -48.5t-76 -21.5q-35 0 -82.5 37t-82.5 93q-54 84 -54 163zM239 364q0 -26 18 -26q1 0 58 33q60 47 64.5 53t7.5 40 q-1 16 22 68q18 39 22 56q9 38 17 48t8 16q0 9 -11 9q-26 0 -65 -40q-45 -47 -60 -69t-34 -69q-24 -59 -33 -74q-14 -25 -14 -45zM377 1326q0 39 33 117q45 104 108 104q35 0 112 -60q53 -41 53 -89q0 -36 -52 -124q-10 -17 -16 -29q-23 -46 -41 -57q-29 -17 -50 -17 q-50 0 -98.5 51t-48.5 104zM735 1329q0 58 53 161q30 57 84 57q38 0 116 -64q51 -41 51 -77q0 -18 -34 -95t-52 -98q-27 -33 -72 -33q-55 0 -100.5 46.5t-45.5 102.5z" />
<glyph unicode="&#xe5;" horiz-adv-x="907" d="M-92 295q0 131 59 279q29 72 70 129t118 130q116 112 224 159q69 30 99 30t44 -48q14 -50 31 -50q8 0 40 66q21 42 79 42q30 0 45.5 -9t67.5 -57q20 -18 47 -35q57 -37 55 -65q-1 -10 -10 -28t-37 -82q-16 -35 -51 -110q-50 -106 -65.5 -152t-47.5 -183 q-25 -104 -29.5 -131.5t-13.5 -121.5q-5 -55 -20.5 -72t-68.5 -26q-6 1 -40 21q-13 8 -62 19q-81 18 -93 33q-5 5 -23 31t-25 20q-6 0 -19 -12q-32 -27 -79 -48.5t-76 -21.5q-35 0 -82.5 37t-82.5 93q-54 84 -54 163zM239 364q0 -26 18 -26q1 0 58 33q60 47 64.5 53t7.5 40 q-1 16 22 68q18 39 22 56q9 38 17 48t8 16q0 9 -11 9q-26 0 -65 -40q-45 -47 -60 -69t-34 -69q-24 -59 -33 -74q-14 -25 -14 -45zM475 1334q0 58 69 171q59 98 164 98q18 0 62 -8.5t57 -14.5q39 -17 76 -90.5t37 -132.5q0 -34 -25 -82t-63 -87q-22 -23 -77 -51 q-20 -11 -47 -11q-140 0 -188 54q-19 21 -42 75.5t-23 78.5zM650 1350q0 -32 24 -49q23 -16 46 -16q15 0 33 25.5t18 45.5q0 18 -11 44q-13 28 -48 29q-30 0 -42 -16q-20 -27 -20 -63z" />
<glyph unicode="&#xe6;" horiz-adv-x="1259" d="M-98 234q0 48 37 130t93 158q82 111 167 111q29 0 90.5 -13.5t80.5 -23.5q11 -6 15 -6q14 0 28.5 34.5t14.5 66.5q0 41 -27 68.5t-67 27.5q-75 0 -199 -81q-26 -16 -43 -16q-30 0 -50.5 40.5t-20.5 98.5q0 21 35 45q10 7 58 56q63 64 165 97q95 30 151 30q80 0 163 -54 q15 -10 55 -60q42 -46 45 -46q5 0 16 12q40 42 128 88q38 20 91.5 34t89.5 14q38 0 78.5 -22.5t60.5 -54.5q46 -74 46 -202q0 -64 -15.5 -122.5t-40.5 -87.5q-47 -55 -200.5 -117.5t-283.5 -79.5q-19 -3 -26 -8t-14 -23q-14 -37 -18.5 -44t-22.5 -25q-11 -11 -11 -15 q0 -10 28 -32q13 -11 28 -11q17 0 57 15q41 16 55 24.5t53 43.5q61 54 113 54q56 0 100 -38q16 -14 32.5 -40t16.5 -37q0 -17 -46 -64t-112 -98q-147 -112 -248 -112q-31 0 -77.5 15t-81.5 36q-36 22 -84 73q-133 -122 -246 -122q-98 0 -178 97q-79 97 -79 186zM168 224 q0 -14 6 -25t12 -11q13 0 60 58q40 49 64 114q17 47 22 50q14 19 14 26q0 9 -15 13q-5 1 -39.5 -17.5t-47.5 -30.5q-76 -70 -76 -177zM742 612q0 -18 13 -18q5 0 17 9q8 7 45 23q63 28 112 102q17 26 24 35q14 17 14 23q-1 18 -36 20q-14 1 -50 -12t-54 -26 q-27 -18 -38 -35.5t-28 -69.5q-19 -44 -19 -51z" />
<glyph unicode="&#xe7;" horiz-adv-x="778" d="M-112 -277q0 10 41 43q4 3 14 15q19 22 31 22q6 0 43 -32q19 -16 40 -16q16 0 28.5 14.5t12.5 32.5q0 23 -12.5 34t-47.5 21q-26 7 -26 32q0 16 16 45.5t33 43.5q26 22 26 32q0 7 -91 73q-36 26 -66 99t-30 133q0 152 105 331q114 194 305 287q112 55 172 55 q39 0 98.5 -26t103.5 -62q40 -33 52 -64t12 -103q0 -64 -12.5 -100t-44.5 -64q-29 -25 -66.5 -46t-53.5 -21q-12 0 -36 10q-31 14 -41 18q-58 23 -58 50q0 8 20 47q19 42 19 52q0 16 -14 16q-17 0 -48.5 -28t-58.5 -67q-49 -70 -79 -138t-30 -108q0 -66 67 -66q43 0 89 31 q59 42 75 42q17 0 53 -38q37 -33 37 -48q0 -9 -10 -41q-3 -5 -7 -47q-5 -43 -23 -66t-85 -71q-43 -30 -70 -38t-168 -33q-40 -7 -40 -59q0 -15 20 -28q49 -32 49 -100t-53 -114q-56 -50 -130 -50q-62 0 -118 43q-43 33 -43 52z" />
<glyph unicode="&#xe8;" horiz-adv-x="813" d="M-103 317q0 133 67.5 274t177.5 239q89 79 177 128q69 39 149 41q130 0 222 -97q72 -77 72 -179q0 -108 -57 -201.5t-149 -137.5q-100 -47 -197 -47q-32 0 -80 49q-13 14 -20 14q-23 0 -23 -51q0 -106 67 -106q88 0 171 31q24 9 37 9q30 0 53 -40q19 -33 19 -47l-25 -71 q-25 -60 -33 -72t-32 -21q-12 -5 -111 -35q-57 -18 -134 -18q-161 0 -257 103q-94 103 -94 235zM323 566q0 -16 17 -16q12 0 48 14t45 21q17 17 35.5 56.5t18.5 61.5q0 41 -13 40q-5 0 -18 -14q-12 -15 -33 -35q-100 -100 -100 -128zM407 1452q0 25 72 52q44 17 101 31.5 t73 14.5q36 0 53 -19q11 -12 16 -29.5t22 -112.5l22 -111q3 -77 3 -80q0 -38 -82 -38q-33 0 -75 39q-10 9 -62 76q-10 14 -59 63q-57 57 -70.5 75.5t-13.5 38.5z" />
<glyph unicode="&#xe9;" horiz-adv-x="813" d="M-103 317q0 133 67.5 274t177.5 239q89 79 177 128q69 39 149 41q130 0 222 -97q72 -77 72 -179q0 -108 -57 -201.5t-149 -137.5q-100 -47 -197 -47q-32 0 -80 49q-13 14 -20 14q-23 0 -23 -51q0 -106 67 -106q88 0 171 31q24 9 37 9q30 0 53 -40q19 -33 19 -47l-25 -71 q-25 -60 -33 -72t-32 -21q-12 -5 -111 -35q-57 -18 -134 -18q-161 0 -257 103q-94 103 -94 235zM323 566q0 -16 17 -16q12 0 48 14t45 21q17 17 35.5 56.5t18.5 61.5q0 41 -13 40q-5 0 -18 -14q-12 -15 -33 -35q-100 -100 -100 -128zM382 1207q0 10 17 32.5t122 144.5 q89 98 105 110.5t52 12.5q24 0 49 -11t96 -53q66 -38 66 -60q0 -29 -61 -59q-43 -22 -176 -79q-1 0 -84 -39q-79 -36 -119 -36q-28 0 -47 10.5t-20 26.5z" />
<glyph unicode="&#xea;" horiz-adv-x="813" d="M-103 317q0 133 67.5 274t177.5 239q89 79 177 128q69 39 149 41q130 0 222 -97q72 -77 72 -179q0 -108 -57 -201.5t-149 -137.5q-100 -47 -197 -47q-32 0 -80 49q-13 14 -20 14q-23 0 -23 -51q0 -106 67 -106q88 0 171 31q24 9 37 9q30 0 53 -40q19 -33 19 -47l-25 -71 q-25 -60 -33 -72t-32 -21q-12 -5 -111 -35q-57 -18 -134 -18q-161 0 -257 103q-94 103 -94 235zM279 1236q0 23 33 59t163 154q85 81 106 94.5t62 13.5q42 0 63 -13t102 -92l73 -66q60 -69 70 -82.5t10 -25.5q0 -7 -8.5 -22t-15.5 -19q0 -1 -110 -40q-14 -5 -24 -9 q-33 -13 -45 -13q-23 0 -56 27q-7 6 -50 57q-14 18 -60 54q-167 -118 -231 -118q-33 0 -57.5 12.5t-24.5 28.5zM323 566q0 -16 17 -16q12 0 48 14t45 21q17 17 35.5 56.5t18.5 61.5q0 41 -13 40q-5 0 -18 -14q-12 -15 -33 -35q-100 -100 -100 -128z" />
<glyph unicode="&#xeb;" horiz-adv-x="813" d="M-103 317q0 133 67.5 274t177.5 239q89 79 177 128q69 39 149 41q130 0 222 -97q72 -77 72 -179q0 -108 -57 -201.5t-149 -137.5q-100 -47 -197 -47q-32 0 -80 49q-13 14 -20 14q-23 0 -23 -51q0 -106 67 -106q88 0 171 31q24 9 37 9q30 0 53 -40q19 -33 19 -47l-25 -71 q-25 -60 -33 -72t-32 -21q-12 -5 -111 -35q-57 -18 -134 -18q-161 0 -257 103q-94 103 -94 235zM323 566q0 -16 17 -16q12 0 48 14t45 21q17 17 35.5 56.5t18.5 61.5q0 41 -13 40q-5 0 -18 -14q-12 -15 -33 -35q-100 -100 -100 -128zM330 1326q0 39 33 117q45 104 108 104 q35 0 112 -60q53 -41 53 -89q0 -36 -52 -124q-10 -17 -16 -29q-23 -46 -41 -57q-29 -17 -50 -17q-50 0 -98.5 51t-48.5 104zM688 1329q0 58 53 161q30 57 84 57q38 0 116 -64q51 -41 51 -77q0 -18 -34 -95t-52 -98q-27 -33 -72 -33q-55 0 -100.5 46.5t-45.5 102.5z" />
<glyph unicode="&#xec;" horiz-adv-x="486" d="M-177 183q0 19 56 143q114 261 252 521q52 96 62.5 111.5t26.5 16.5q23 2 61.5 -18t67.5 -48q97 -96 97 -133q0 -16 -34 -80q-91 -172 -206 -472l-42 -102q-28 -84 -35.5 -99.5t-23.5 -23.5q-42 -20 -70 -20q-31 0 -65 46q-18 25 -27.5 30t-46.5 10q-21 2 -47 44.5 t-26 73.5zM244 1452q0 25 72 52q44 17 101 31.5t73 14.5q36 0 53 -19q11 -12 16 -29.5t22 -112.5l22 -111q3 -77 3 -80q0 -38 -82 -38q-33 0 -75 39q-10 9 -62 76q-10 14 -59 63q-57 57 -70.5 75.5t-13.5 38.5z" />
<glyph unicode="&#xed;" horiz-adv-x="486" d="M-177 183q0 19 56 143q114 261 252 521q52 96 62.5 111.5t26.5 16.5q23 2 61.5 -18t67.5 -48q97 -96 97 -133q0 -16 -34 -80q-91 -172 -206 -472l-42 -102q-28 -84 -35.5 -99.5t-23.5 -23.5q-42 -20 -70 -20q-31 0 -65 46q-18 25 -27.5 30t-46.5 10q-21 2 -47 44.5 t-26 73.5zM274 1207q0 10 17 32.5t122 144.5q89 98 105 110.5t52 12.5q24 0 49 -11t96 -53q66 -38 66 -60q0 -29 -61 -59q-43 -22 -176 -79q-1 0 -84 -39q-79 -36 -119 -36q-28 0 -47 10.5t-20 26.5z" />
<glyph unicode="&#xee;" horiz-adv-x="486" d="M-177 183q0 19 56 143q114 261 252 521q52 96 62.5 111.5t26.5 16.5q23 2 61.5 -18t67.5 -48q97 -96 97 -133q0 -16 -34 -80q-91 -172 -206 -472l-42 -102q-28 -84 -35.5 -99.5t-23.5 -23.5q-42 -20 -70 -20q-31 0 -65 46q-18 25 -27.5 30t-46.5 10q-21 2 -47 44.5 t-26 73.5zM116 1236q0 23 33 59t163 154q85 81 106 94.5t62 13.5q42 0 63 -13t102 -92l73 -66q60 -69 70 -82.5t10 -25.5q0 -7 -8.5 -22t-15.5 -19q0 -1 -110 -40q-14 -5 -24 -9q-33 -13 -45 -13q-23 0 -56 27q-7 6 -50 57q-14 18 -60 54q-167 -118 -231 -118 q-33 0 -57.5 12.5t-24.5 28.5z" />
<glyph unicode="&#xef;" horiz-adv-x="486" d="M-177 183q0 19 56 143q114 261 252 521q52 96 62.5 111.5t26.5 16.5q23 2 61.5 -18t67.5 -48q97 -96 97 -133q0 -16 -34 -80q-91 -172 -206 -472l-42 -102q-28 -84 -35.5 -99.5t-23.5 -23.5q-42 -20 -70 -20q-31 0 -65 46q-18 25 -27.5 30t-46.5 10q-21 2 -47 44.5 t-26 73.5zM142 1330q0 35 30 104q41 94 97 94q31 0 100 -54q48 -37 48 -80q0 -32 -47 -112q-9 -15 -14 -26q-18 -35 -37 -50.5t-44 -15.5q-46 0 -89.5 46t-43.5 94zM486 1332q0 52 48 145q27 51 75 51q35 0 105 -57q46 -37 46 -70q0 -16 -31 -85.5t-46 -87.5 q-25 -30 -65 -30q-50 0 -91 42t-41 92z" />
<glyph unicode="&#xf0;" horiz-adv-x="939" d="M-69 356q0 164 118 369q32 55 69 97t118 114q49 44 83.5 59.5t84.5 15.5q24 0 39 -10q17 -13 25 -13t8 13q0 16 -4 38q-8 46 -8 67q1 37 -15 37l-18 -7l-43 -14q-53 -26 -61 -26q-26 0 -40 13t-14 37q0 18 -2 23q-3 8 -3 9q1 9 9.5 13.5t62.5 23.5l33 16q45 20 54 27 t9 22q0 6 -11 30q-6 12 -13.5 47t-7.5 49q0 24 30 57.5t51 33.5q12 0 69 -20q125 -38 144 -90q6 -12 16 -12q8 0 27 12q9 6 35 15q27 8 38 13q14 6 19 6q12 0 40 -20.5t28 -29.5q0 -10 -45 -32l-38 -22q-48 -22 -63 -29q-18 -7 -18 -22q0 -14 5 -33q1 -4 48 -302 q32 -198 32 -289q0 -97 -43 -206t-116 -200q-88 -108 -209 -177q-101 -56 -191 -56q-100 0 -206 99q-126 117 -126 254zM252 335q0 -21 16 -22q19 -1 95 83q31 35 124 189q23 39 23 87q0 35 -21 34q-8 0 -47 -45q-79 -92 -96.5 -116.5t-39.5 -76.5q-32 -75 -38 -85 q-16 -27 -16 -48z" />
<glyph unicode="&#xf1;" horiz-adv-x="914" d="M-156 213q0 30 114 277q75 163 100 229t66 214q30 105 85 105q21 0 79 -32q24 -13 54 -24q25 -10 30 -15t16 -29q7 -17 19 -17q8 0 22 9q33 23 89 48t73 25q49 0 124 -97q78 -101 73 -200q-5 -108 -123 -452q-44 -129 -85 -208q-13 -25 -26.5 -35t-49.5 -20 q-68 -20 -76 -20q-28 0 -103 68t-75 94q0 14 12 36q33 59 36.5 66t44.5 107q71 153 92 220q20 66 20 89q0 19 -17 20q-6 0 -39 -22q-34 -17 -41.5 -25.5t-15.5 -37.5q-8 -30 -38 -99q-32 -73 -38 -89.5t-60 -184.5q-31 -70 -60 -140q-22 -53 -57 -53t-134 72 q-70 50 -90.5 72.5t-20.5 48.5zM239 1280q0 38 62 105q89 95 230 95q89 0 184 -58q9 -5 12 -5q7 0 18 13q49 55 81 55q17 0 45 -23q48 -39 57.5 -50t9.5 -27q0 -26 -76 -105q-90 -92 -215 -92q-43 0 -80.5 13t-111.5 53q-10 6 -17 6q-8 0 -17 -14q-41 -67 -76 -67 q-16 0 -80 54q-26 22 -26 47z" />
<glyph unicode="&#xf2;" horiz-adv-x="925" d="M-96 327q0 148 108 336q53 94 116.5 162t164.5 139q68 49 102 64t77 16q41 0 60.5 -18.5t44.5 -81.5q27 -68 32.5 -74.5t35.5 -7.5q18 0 56 -13.5t55 -26.5q18 -13 28.5 -64t10.5 -124q0 -229 -159 -426q-89 -108 -209 -177q-100 -56 -187 -56q-104 0 -210 99 q-126 118 -126 253zM225 307q0 -22 16 -22q20 0 95 84q31 34 124 189q23 39 23 87q0 35 -21 34q-8 0 -47 -45q-79 -93 -96.5 -117t-39.5 -77q-32 -75 -38 -85q-16 -27 -16 -48zM518 1452q0 25 72 52q44 17 101 31.5t73 14.5q36 0 53 -19q11 -12 16 -29.5t22 -112.5l22 -111 q3 -77 3 -80q0 -38 -82 -38q-33 0 -75 39q-10 9 -62 76q-10 14 -59 63q-57 57 -70.5 75.5t-13.5 38.5z" />
<glyph unicode="&#xf3;" horiz-adv-x="925" d="M-96 327q0 148 108 336q53 94 116.5 162t164.5 139q68 49 102 64t77 16q41 0 60.5 -18.5t44.5 -81.5q27 -68 32.5 -74.5t35.5 -7.5q18 0 56 -13.5t55 -26.5q18 -13 28.5 -64t10.5 -124q0 -229 -159 -426q-89 -108 -209 -177q-100 -56 -187 -56q-104 0 -210 99 q-126 118 -126 253zM225 307q0 -22 16 -22q20 0 95 84q31 34 124 189q23 39 23 87q0 35 -21 34q-8 0 -47 -45q-79 -93 -96.5 -117t-39.5 -77q-32 -75 -38 -85q-16 -27 -16 -48zM438 1207q0 10 17 32.5t122 144.5q89 98 105 110.5t52 12.5q24 0 49 -11t96 -53q66 -38 66 -60 q0 -29 -61 -59q-43 -22 -176 -79q-1 0 -84 -39q-79 -36 -119 -36q-28 0 -47 10.5t-20 26.5z" />
<glyph unicode="&#xf4;" horiz-adv-x="925" d="M-96 327q0 148 108 336q53 94 116.5 162t164.5 139q68 49 102 64t77 16q41 0 60.5 -18.5t44.5 -81.5q27 -68 32.5 -74.5t35.5 -7.5q18 0 56 -13.5t55 -26.5q18 -13 28.5 -64t10.5 -124q0 -229 -159 -426q-89 -108 -209 -177q-100 -56 -187 -56q-104 0 -210 99 q-126 118 -126 253zM225 307q0 -22 16 -22q20 0 95 84q31 34 124 189q23 39 23 87q0 35 -21 34q-8 0 -47 -45q-79 -93 -96.5 -117t-39.5 -77q-32 -75 -38 -85q-16 -27 -16 -48zM335 1236q0 23 33 59t163 154q85 81 106 94.5t62 13.5q42 0 63 -13t102 -92l73 -66 q60 -69 70 -82.5t10 -25.5q0 -7 -8.5 -22t-15.5 -19q0 -1 -110 -40q-14 -5 -24 -9q-33 -13 -45 -13q-23 0 -56 27q-7 6 -50 57q-14 18 -60 54q-167 -118 -231 -118q-33 0 -57.5 12.5t-24.5 28.5z" />
<glyph unicode="&#xf5;" horiz-adv-x="925" d="M-96 327q0 148 108 336q53 94 116.5 162t164.5 139q68 49 102 64t77 16q41 0 60.5 -18.5t44.5 -81.5q27 -68 32.5 -74.5t35.5 -7.5q18 0 56 -13.5t55 -26.5q18 -13 28.5 -64t10.5 -124q0 -229 -159 -426q-89 -108 -209 -177q-100 -56 -187 -56q-104 0 -210 99 q-126 118 -126 253zM225 307q0 -22 16 -22q20 0 95 84q31 34 124 189q23 39 23 87q0 35 -21 34q-8 0 -47 -45q-79 -93 -96.5 -117t-39.5 -77q-32 -75 -38 -85q-16 -27 -16 -48zM367 1280q0 38 62 105q89 95 230 95q89 0 184 -58q9 -5 12 -5q7 0 18 13q49 55 81 55 q17 0 45 -23q48 -39 57.5 -50t9.5 -27q0 -26 -76 -105q-90 -92 -215 -92q-43 0 -80.5 13t-111.5 53q-10 6 -17 6q-8 0 -17 -14q-41 -67 -76 -67q-16 0 -80 54q-26 22 -26 47z" />
<glyph unicode="&#xf6;" horiz-adv-x="925" d="M-96 327q0 148 108 336q53 94 116.5 162t164.5 139q68 49 102 64t77 16q41 0 60.5 -18.5t44.5 -81.5q27 -68 32.5 -74.5t35.5 -7.5q18 0 56 -13.5t55 -26.5q18 -13 28.5 -64t10.5 -124q0 -229 -159 -426q-89 -108 -209 -177q-100 -56 -187 -56q-104 0 -210 99 q-126 118 -126 253zM225 307q0 -22 16 -22q20 0 95 84q31 34 124 189q23 39 23 87q0 35 -21 34q-8 0 -47 -45q-79 -93 -96.5 -117t-39.5 -77q-32 -75 -38 -85q-16 -27 -16 -48zM386 1326q0 39 33 117q45 104 108 104q35 0 112 -60q53 -41 53 -89q0 -36 -52 -124 q-10 -17 -16 -29q-23 -46 -41 -57q-29 -17 -50 -17q-50 0 -98.5 51t-48.5 104zM744 1329q0 58 53 161q30 57 84 57q38 0 116 -64q51 -41 51 -77q0 -18 -34 -95t-52 -98q-27 -33 -72 -33q-55 0 -100.5 46.5t-45.5 102.5z" />
<glyph unicode="&#xf7;" horiz-adv-x="1092" d="M119 649q0 49 30 93q12 19 38 25.5t89 6.5l182 -2h378q61 0 78.5 -7t17.5 -33q0 -51 -36 -100q-11 -15 -34 -20.5t-78 -5.5q-17 0 -75 2q-57 2 -87 2q-22 0 -65 -1q-80 -2 -195 -2l-79 -1h-79q-53 0 -69 8t-16 35zM281 313q0 45 40 134q22 50 54 53q21 2 101 -41 q56 -30 56 -62q0 -10 -29 -71q-12 -29 -30 -103q-8 -33 -31 -33q-19 0 -101 44q-60 33 -60 79zM518 989q0 45 40 134q22 50 54 53q21 2 101 -41q56 -30 56 -62q0 -10 -29 -71q-12 -29 -30 -103q-8 -33 -31 -33q-19 0 -101 44q-60 33 -60 79z" />
<glyph unicode="&#xf8;" horiz-adv-x="953" d="M-257 189q0 9 9.5 14.5t66.5 30.5q7 3 36 21q33 20 64 30q-4 25 -4 35q0 32 34.5 151t53.5 154q94 173 278 309q72 54 116.5 75.5t83.5 21.5q50 0 76 -38q6 -10 25 -65q37 -74 45 -81l34 -3l46 -16q40 -13 51.5 -22.5t36.5 -49.5q22 14 53.5 29t41.5 15q13 0 43.5 -21.5 t30.5 -30.5q0 -10 -48 -38q-54 -36 -113 -66q2 -26 2 -37q0 -83 -42.5 -204.5t-93.5 -186.5q-88 -110 -240 -201q-94 -57 -163 -57q-98 0 -234 106q-41 32 -56 51t-25 52q-19 -11 -71 -32q-57 -33 -69 -33q-55 0 -59 51q-2 19 -5 25q-4 10 -4 11zM213 275q0 -35 28 -35 q25 0 52 22.5t82 90.5l32 38l13 28q-21 -15 -79 -44q-43 -31 -75 -47q-37 -18 -51 -24q-2 -20 -2 -29zM294 481q37 15 99 56q71 45 122 61q-3 20 -2 29q-1 30 -8 37.5t-34 7.5q-22 0 -35.5 -10t-58.5 -60q-41 -46 -83 -121z" />
<glyph unicode="&#xf9;" horiz-adv-x="936" d="M-79 289q0 38 23.5 131t54.5 177q6 16 145 349q30 72 79 72q42 0 131 -65q35 -26 58.5 -56t23.5 -49q0 -12 -14 -40q-12 -22 -30 -70q-30 -80 -39 -103q-31 -71 -56.5 -149.5t-25.5 -99.5q0 -23 18 -23q6 0 20 9q8 6 40 22q20 10 26 19t12 35q12 61 126 362 q42 109 65.5 146.5t50.5 37.5q21 0 59 -6q16 -2 22 -7.5t23 -29.5q26 -38 44 -52t58 -26q27 -8 27 -39t-32 -109q-81 -196 -135 -384q-14 -50 -47 -197q-21 -94 -23 -113q-9 -53 -38 -53q-2 0 -123 34q-85 33 -92.5 37t-16.5 21q-26 49 -35 56q-4 0 -14 -11q-30 -32 -95 -67 t-94 -35q-65 0 -124 84q-31 45 -51.5 99.5t-20.5 92.5zM401 1452q0 25 72 52q44 17 101 31.5t73 14.5q36 0 53 -19q11 -12 16 -29.5t22 -112.5l22 -111q3 -77 3 -80q0 -38 -82 -38q-33 0 -75 39q-10 9 -62 76q-10 14 -59 63q-57 57 -70.5 75.5t-13.5 38.5z" />
<glyph unicode="&#xfa;" horiz-adv-x="936" d="M-79 289q0 38 23.5 131t54.5 177q6 16 145 349q30 72 79 72q42 0 131 -65q35 -26 58.5 -56t23.5 -49q0 -12 -14 -40q-12 -22 -30 -70q-30 -80 -39 -103q-31 -71 -56.5 -149.5t-25.5 -99.5q0 -23 18 -23q6 0 20 9q8 6 40 22q20 10 26 19t12 35q12 61 126 362 q42 109 65.5 146.5t50.5 37.5q21 0 59 -6q16 -2 22 -7.5t23 -29.5q26 -38 44 -52t58 -26q27 -8 27 -39t-32 -109q-81 -196 -135 -384q-14 -50 -47 -197q-21 -94 -23 -113q-9 -53 -38 -53q-2 0 -123 34q-85 33 -92.5 37t-16.5 21q-26 49 -35 56q-4 0 -14 -11q-30 -32 -95 -67 t-94 -35q-65 0 -124 84q-31 45 -51.5 99.5t-20.5 92.5zM444 1207q0 10 17 32.5t122 144.5q89 98 105 110.5t52 12.5q24 0 49 -11t96 -53q66 -38 66 -60q0 -29 -61 -59q-43 -22 -176 -79q-1 0 -84 -39q-79 -36 -119 -36q-28 0 -47 10.5t-20 26.5z" />
<glyph unicode="&#xfb;" horiz-adv-x="936" d="M-79 289q0 38 23.5 131t54.5 177q6 16 145 349q30 72 79 72q42 0 131 -65q35 -26 58.5 -56t23.5 -49q0 -12 -14 -40q-12 -22 -30 -70q-30 -80 -39 -103q-31 -71 -56.5 -149.5t-25.5 -99.5q0 -23 18 -23q6 0 20 9q8 6 40 22q20 10 26 19t12 35q12 61 126 362 q42 109 65.5 146.5t50.5 37.5q21 0 59 -6q16 -2 22 -7.5t23 -29.5q26 -38 44 -52t58 -26q27 -8 27 -39t-32 -109q-81 -196 -135 -384q-14 -50 -47 -197q-21 -94 -23 -113q-9 -53 -38 -53q-2 0 -123 34q-85 33 -92.5 37t-16.5 21q-26 49 -35 56q-4 0 -14 -11q-30 -32 -95 -67 t-94 -35q-65 0 -124 84q-31 45 -51.5 99.5t-20.5 92.5zM340 1236q0 23 33 59t163 154q85 81 106 94.5t62 13.5q42 0 63 -13t102 -92l73 -66q60 -69 70 -82.5t10 -25.5q0 -7 -8.5 -22t-15.5 -19q0 -1 -110 -40q-14 -5 -24 -9q-33 -13 -45 -13q-23 0 -56 27q-7 6 -50 57 q-14 18 -60 54q-167 -118 -231 -118q-33 0 -57.5 12.5t-24.5 28.5z" />
<glyph unicode="&#xfc;" horiz-adv-x="936" d="M-79 289q0 38 23.5 131t54.5 177q6 16 145 349q30 72 79 72q42 0 131 -65q35 -26 58.5 -56t23.5 -49q0 -12 -14 -40q-12 -22 -30 -70q-30 -80 -39 -103q-31 -71 -56.5 -149.5t-25.5 -99.5q0 -23 18 -23q6 0 20 9q8 6 40 22q20 10 26 19t12 35q12 61 126 362 q42 109 65.5 146.5t50.5 37.5q21 0 59 -6q16 -2 22 -7.5t23 -29.5q26 -38 44 -52t58 -26q27 -8 27 -39t-32 -109q-81 -196 -135 -384q-14 -50 -47 -197q-21 -94 -23 -113q-9 -53 -38 -53q-2 0 -123 34q-85 33 -92.5 37t-16.5 21q-26 49 -35 56q-4 0 -14 -11q-30 -32 -95 -67 t-94 -35q-65 0 -124 84q-31 45 -51.5 99.5t-20.5 92.5zM391 1326q0 39 33 117q45 104 108 104q35 0 112 -60q53 -41 53 -89q0 -36 -52 -124q-10 -17 -16 -29q-23 -46 -41 -57q-29 -17 -50 -17q-50 0 -98.5 51t-48.5 104zM749 1329q0 58 53 161q30 57 84 57q38 0 116 -64 q51 -41 51 -77q0 -18 -34 -95t-52 -98q-27 -33 -72 -33q-55 0 -100.5 46.5t-45.5 102.5z" />
<glyph unicode="&#xfd;" horiz-adv-x="838" d="M-266 -259q0 39 10.5 56t40.5 29q62 25 101 50.5t95 76.5q26 24 52.5 61t26.5 49t-50 52q-63 49 -63 100q0 23 11 106q4 28 6 118q6 211 61 453q9 44 16.5 55t38.5 26q39 20 44 20q4 0 86 -33q122 -67 142 -82.5t20 -42.5q0 -20 -34 -114q-17 -47 -19 -57t-21 -112 l-12 -42l-3 -20q30 26 33 29.5t48 87.5q75 141 83.5 159.5t38.5 108.5q30 92 38.5 106.5t32.5 14.5q90 0 145 -60q73 -80 73 -160q0 -123 -116 -353q-138 -274 -284 -475q-27 -37 -130 -151.5t-179 -191.5q-72 -74 -129 -74q-39 0 -58.5 12.5t-44.5 54.5q-19 30 -68 81 q-32 33 -32 62zM395 1207q0 10 17 32.5t122 144.5q89 98 105 110.5t52 12.5q24 0 49 -11t96 -53q66 -38 66 -60q0 -29 -61 -59q-43 -22 -176 -79q-1 0 -84 -39q-79 -36 -119 -36q-28 0 -47 10.5t-20 26.5z" />
<glyph unicode="&#xfe;" horiz-adv-x="939" d="M-301 -192q1 19 15 53q1 2 20 51q31 86 124 273q95 190 190 433q25 65 40 100q11 26 11 43q0 23 -12 74q-6 29 -6 45q0 12 50 35q53 21 66.5 39t65.5 135l53 118q51 116 59.5 132t18.5 20q61 21 75 22q17 0 29.5 -10t42.5 -47q31 -38 71 -52q25 -8 33 -16.5t8 -25.5 q0 -24 -12 -50.5t-70 -135.5q-17 -31 -17 -39q0 -9 36 -9q56 0 132 -88q45 -53 72 -123.5t27 -134.5q0 -119 -55 -248.5t-149 -232.5q-80 -87 -155.5 -142t-114.5 -55q-42 0 -89 45q-7 7 -49 65q-13 18 -20 18q-17 0 -123 -256l-39 -90q-25 -91 -37 -112q-19 -35 -52 -35 q-20 0 -53 33q-18 19 -25.5 21t-54.5 2q-46 0 -77 57q-31 56 -29 88zM284 339q0 -15 11 -16q8 0 20 16q12 14 52 55q77 78 127 198q21 51 21 74q0 30 -52 29q-28 0 -41.5 -16t-24.5 -61q-9 -26 -78 -202q-35 -70 -35 -77z" />
<glyph unicode="&#xff;" horiz-adv-x="838" d="M-266 -259q0 39 10.5 56t40.5 29q62 25 101 50.5t95 76.5q26 24 52.5 61t26.5 49t-50 52q-63 49 -63 100q0 23 11 106q4 28 6 118q6 211 61 453q9 44 16.5 55t38.5 26q39 20 44 20q4 0 86 -33q122 -67 142 -82.5t20 -42.5q0 -20 -34 -114q-17 -47 -19 -57t-21 -112 l-12 -42l-3 -20q30 26 33 29.5t48 87.5q75 141 83.5 159.5t38.5 108.5q30 92 38.5 106.5t32.5 14.5q90 0 145 -60q73 -80 73 -160q0 -123 -116 -353q-138 -274 -284 -475q-27 -37 -130 -151.5t-179 -191.5q-72 -74 -129 -74q-39 0 -58.5 12.5t-44.5 54.5q-19 30 -68 81 q-32 33 -32 62zM234 1326q0 39 33 117q45 104 108 104q35 0 112 -60q53 -41 53 -89q0 -36 -52 -124q-10 -17 -16 -29q-23 -46 -41 -57q-29 -17 -50 -17q-50 0 -98.5 51t-48.5 104zM592 1329q0 58 53 161q30 57 84 57q38 0 116 -64q51 -41 51 -77q0 -18 -34 -95t-52 -98 q-27 -33 -72 -33q-55 0 -100.5 46.5t-45.5 102.5z" />
<glyph unicode="&#x152;" horiz-adv-x="1444" d="M-7 351q0 149 50.5 316t140.5 319q70 116 114.5 169t157.5 152q108 95 135 97q18 2 62 16q30 -30 65 -66q43 -58 51.5 -67.5t19.5 -9.5q3 0 14 5q12 5 37 11t33 9q25 7 35 7q6 0 21 -4q31 6 307 24q25 -1 98 -13.5t88 -18.5q30 -11 38.5 -24t25.5 -75q27 -71 31.5 -87 t4.5 -40q0 -33 -17 -54.5t-42 -21.5q-11 0 -50 26l-26 1l-22 9l-40 -4q-1 0 -32 5q-9 1 -17 1q-46 0 -58 -6q-21 -11 -51 -61q-22 -35 -23 -36q-15 -18 -16.5 -21t-5.5 -25q-23 -20 -28 -28.5t-13 -40.5q3 -8 58 -10l51 -4h39q65 -14 69 -18t20 -58l1 -35q5 -43 5 -50 q0 -17 -4 -24.5t-30 -35.5q-29 -32 -39 -38t-36 -6q-33 0 -71 2q-53 3 -124 3l-50 1q-18 0 -27 -7t-27 -36q-29 -44 -62 -122q-27 -56 -27 -63q0 -23 35 -23l27 1l74 1l83 3l38 -2q14 0 45 11q4 2 8 2q19 0 36 -23q24 -34 24 -60q0 -15 -15 -35q-15 -22 -16.5 -25.5 t-4.5 -28.5l-8 -26l4 -21l-27 -25q-26 -34 -32 -38t-37 -7q-55 -6 -171 -23q-95 -14 -207 -14q-40 0 -68 17.5t-54 58.5q-139 -83 -228 -83q-95 0 -273 191q-38 41 -52.5 81t-14.5 105zM329 356q0 -41 23 -41q21 0 104 117q53 76 69.5 103t61.5 114q44 75 53 93.5t20 53.5 q28 83 32 136q2 25 -9.5 46.5t-27.5 21.5q-35 0 -123 -155t-150 -327q-38 -104 -42 -113q-11 -27 -11 -49z" />
<glyph unicode="&#x153;" horiz-adv-x="1305" d="M-107 312q0 143 111 347q51 94 108.5 156t171.5 146q63 47 97 62.5t73 15.5q73 0 119 -74q9 -15 20 -65q3 -11 11 -40q24 17 35 22q20 8 64 38q27 19 114.5 44.5t123.5 25.5q51 0 114.5 -27.5t112.5 -70.5q71 -63 71 -157q0 -131 -76 -250q-39 -61 -87.5 -90t-146.5 -49 q-85 -18 -89 -18q-43 0 -82 49q-13 16 -20 16q-9 0 -16 -18t-7 -40q0 -102 78 -102q74 0 155 32q26 11 38 11q23 0 48.5 -30t25.5 -57q0 -15 -26 -71q-12 -24 -15 -38q-10 -32 -20 -41t-54 -22q-112 -32 -141 -37.5t-92 -5.5q-77 0 -123.5 19t-85.5 66q-12 15 -22 15 q-2 0 -3 -1q-15 -9 -23 -14q-93 -57 -129 -72t-84 -15q-110 0 -219 98q-130 116 -130 242zM216 311q0 -32 13 -32q5 0 44 33.5t51 48.5q67 82 108 161t41 126q0 25 -22 25q-26 0 -115 -123q-43 -60 -81.5 -136.5t-38.5 -102.5zM799 556q0 -16 17 -16q7 0 20 7q7 4 34 13 q31 11 44.5 23.5t25.5 42.5q25 61 26 72q4 32 -17 33q-12 0 -89 -93q-30 -35 -41 -47q-20 -20 -20 -35z" />
<glyph unicode="&#x178;" horiz-adv-x="907" d="M-29 125q0 26 15.5 45.5t83.5 80.5q35 32 85.5 89t72.5 90q47 72 47 78q0 15 -53 44q-41 24 -56.5 58.5t-27.5 128.5q-24 194 -24 299q0 72 8.5 157.5t18.5 118.5q16 52 136 52q39 0 56 -5t82 -36q42 -19 54 -26q34 -20 34 -56q0 -2 -21 -116q-16 -79 -19 -106t-3 -108 q0 -25 7.5 -43.5t18.5 -18.5q17 0 55 98q9 27 54 121q75 160 102 253q25 89 82 89q42 0 113 -58q99 -81 95 -148q-3 -50 -52 -188q-43 -121 -218 -440q-72 -132 -109 -188.5t-187 -262.5q-96 -138 -112 -154q-37 -38 -83 -38q-24 0 -45 12q-34 19 -36 20l-59 -5 q-10 1 -32.5 20t-36.5 39q-46 63 -46 104zM361 1580q0 78 14.5 120t48.5 60q77 42 153 42q20 0 35 -11q32 -24 33 -52q0 -1 -4 -29q-2 -9 -2 -23q0 -10 1 -20q1 -25 1 -28q0 -45 -20.5 -66.5t-77.5 -38.5q-30 -8 -55 -21q-49 -23 -67 -23q-60 0 -60 90zM749 1569q0 36 14 95 q12 52 64 100q39 36 115 36q54 0 73 -15q11 -9 19.5 -31t8.5 -42q0 -15 -6.5 -67.5t-9.5 -62.5q-7 -19 -22.5 -27.5t-85.5 -33.5q-95 -33 -121 -33q-49 0 -49 81z" />
<glyph unicode="&#x2c6;" d="M384 1236q0 23 33 59t163 154q85 81 106 94.5t62 13.5q42 0 63 -13t102 -92l73 -66q60 -69 70 -82.5t10 -25.5q0 -7 -8.5 -22t-15.5 -19q0 -1 -110 -40q-14 -5 -24 -9q-33 -13 -45 -13q-23 0 -56 27q-7 6 -50 57q-14 18 -60 54q-167 -118 -231 -118q-33 0 -57.5 12.5 t-24.5 28.5z" />
<glyph unicode="&#x2dc;" d="M417 1280q0 38 62 105q89 95 230 95q89 0 184 -58q9 -5 12 -5q7 0 18 13q49 55 81 55q17 0 45 -23q48 -39 57.5 -50t9.5 -27q0 -26 -76 -105q-90 -92 -215 -92q-43 0 -80.5 13t-111.5 53q-10 6 -17 6q-8 0 -17 -14q-41 -67 -76 -67q-16 0 -80 54q-26 22 -26 47z" />
<glyph unicode="&#x2000;" horiz-adv-x="965" />
<glyph unicode="&#x2001;" horiz-adv-x="1931" />
<glyph unicode="&#x2002;" horiz-adv-x="965" />
<glyph unicode="&#x2003;" horiz-adv-x="1931" />
<glyph unicode="&#x2004;" horiz-adv-x="643" />
<glyph unicode="&#x2005;" horiz-adv-x="482" />
<glyph unicode="&#x2006;" horiz-adv-x="321" />
<glyph unicode="&#x2007;" horiz-adv-x="321" />
<glyph unicode="&#x2008;" horiz-adv-x="241" />
<glyph unicode="&#x2009;" horiz-adv-x="386" />
<glyph unicode="&#x200a;" horiz-adv-x="107" />
<glyph unicode="&#x2010;" horiz-adv-x="717" d="M-148 378q0 22 20 74t37 76q46 63 99 63q15 0 100 -4q13 -1 35 -1q21 0 66 1q155 4 366 4q70 0 64 -48q-3 -26 -70 -141q-42 -74 -108 -74l-182 4q-4 0 -57 -3q-32 -1 -77 -1q-41 0 -63 1q-70 4 -74 4q-101 -1 -104 -1q-21 1 -36.5 14.5t-15.5 31.5z" />
<glyph unicode="&#x2011;" horiz-adv-x="717" d="M-148 378q0 22 20 74t37 76q46 63 99 63q15 0 100 -4q13 -1 35 -1q21 0 66 1q155 4 366 4q70 0 64 -48q-3 -26 -70 -141q-42 -74 -108 -74l-182 4q-4 0 -57 -3q-32 -1 -77 -1q-41 0 -63 1q-70 4 -74 4q-101 -1 -104 -1q-21 1 -36.5 14.5t-15.5 31.5z" />
<glyph unicode="&#x2012;" horiz-adv-x="717" d="M-148 378q0 22 20 74t37 76q46 63 99 63q15 0 100 -4q13 -1 35 -1q21 0 66 1q155 4 366 4q70 0 64 -48q-3 -26 -70 -141q-42 -74 -108 -74l-182 4q-4 0 -57 -3q-32 -1 -77 -1q-41 0 -63 1q-70 4 -74 4q-101 -1 -104 -1q-21 1 -36.5 14.5t-15.5 31.5z" />
<glyph unicode="&#x2013;" horiz-adv-x="1161" d="M-97 401q0 21 19 71t34 71q44 58 99 58l92 -3l350 2l384 1h93q57 -3 51 -41q-4 -27 -66 -132q-41 -68 -98 -68l-118 2q-3 0 -20 -1q-54 -3 -132 -3q-110 0 -185 4q-201 9 -208 9l-226 -9q-69 0 -69 39z" />
<glyph unicode="&#x2014;" horiz-adv-x="1223" d="M-130 392q0 21 20 74t36 75q45 62 104 62l97 -5l389 3l481 1l97 1q60 -3 54 -43q-4 -27 -70 -140q-42 -72 -103 -72l-124 4q-3 0 -21 -2q-66 -5 -173 -5q-148 0 -237 5q-208 11 -217 11l-259 -11q-74 0 -74 42z" />
<glyph unicode="&#x2018;" horiz-adv-x="462" d="M217 1177q0 36 9.5 57t45.5 62q29 33 41 42.5t47 29.5q116 66 136 66q32 0 32 -32q0 -17 -17 -50q-14 -26 -24 -54q51 -23 64.5 -39.5t13.5 -53.5q0 -35 -27 -102q-18 -44 -29 -75q-27 -80 -58 -80q-5 0 -62 18q-26 9 -37.5 16t-37.5 34q-33 34 -46 45q-34 32 -42.5 51 t-8.5 65z" />
<glyph unicode="&#x2019;" horiz-adv-x="462" d="M216 1176q0 36 27 102q19 46 29 75q27 80 58 80q5 0 62 -18q27 -9 38 -16.5t37 -33.5q36 -37 46 -45q35 -32 43.5 -51t8.5 -65q0 -36 -9.5 -57t-45.5 -62q-29 -33 -41 -43t-47 -29q-116 -66 -137 -66q-32 0 -32 32q0 17 17 50q14 26 24 55q-51 23 -64.5 38.5t-13.5 53.5z " />
<glyph unicode="&#x201a;" horiz-adv-x="472" d="M-178 105q0 37 41 143q27 72 40 92t31 20q7 0 83 -28q21 -8 33.5 -18.5t62.5 -66.5l52 -46q6 -10 6 -52q0 -105 -117 -191q-41 -30 -97 -56t-80 -26q-20 0 -20 18q0 34 27 83q9 17 14 32q-35 8 -55.5 34t-20.5 62z" />
<glyph unicode="&#x201c;" horiz-adv-x="873" d="M203 1178q0 45 25.5 80.5t97.5 90.5q40 31 93.5 58.5t72.5 27.5q22 0 22 -20q0 -7 -9 -49l-19 -41l-10 -28q43 -16 58 -36t15 -59q0 -42 -25 -101q-25 -62 -29 -71q-27 -83 -58 -83q-14 0 -77 27q-29 13 -42 24t-60 63l-30 27q-17 15 -20 21t-4 25q-1 22 -1 44zM616 1162 q0 55 23.5 94t85.5 88q43 34 58 43t62 28l53 22q6 -1 18.5 -16.5t12.5 -21.5t-26 -54q-5 -12 -17 -48q32 -5 54 -30t22 -58q0 -14 -22 -101l-36 -77l-23 -58q-16 -28 -39 -28q-12 0 -76 34q-27 13 -39 23.5t-57 57.5l-48 49q-6 12 -6 53z" />
<glyph unicode="&#x201d;" horiz-adv-x="873" d="M203 1172q0 15 22 102l36 77l14 35q20 51 48 51q12 0 76 -34q27 -14 39 -24t57 -57l29 -30q19 -19 22 -28t3 -45q0 -54 -23.5 -93t-85.5 -89q-43 -34 -58 -43t-62 -28q-53 -22 -54 -22q-5 1 -17.5 16.5t-12.5 21.5t25 54q6 14 17 49q-32 5 -53.5 30t-21.5 57zM616 1180 q0 42 25 100q25 62 29 72q27 83 58 83q13 0 77 -27q29 -13 41.5 -23.5t60.5 -64.5l30 -26q17 -16 20 -21.5t4 -24.5q1 -22 1 -44q0 -46 -25 -81t-98 -90q-39 -30 -92.5 -58t-71.5 -28q-24 0 -24 24q0 4 9 45q19 41 29 68q-43 17 -58 36.5t-15 59.5z" />
<glyph unicode="&#x201e;" horiz-adv-x="873" d="M-193 101q0 14 22 101l36 77l23 59q16 27 39 27q12 0 76 -34q27 -14 39 -24t57 -57l29 -29q19 -19 22 -28.5t3 -45.5q0 -54 -23.5 -92.5t-85.5 -88.5q-42 -33 -57.5 -42.5t-62.5 -28.5q-53 -22 -54 -22q-5 1 -17.5 16.5t-12.5 21.5t25 54q5 13 17 49q-32 4 -53.5 29.5 t-21.5 57.5zM220 109q0 41 25 100q25 62 29 72q27 83 58 83q13 0 77 -27q29 -13 41.5 -23.5t60.5 -64.5l30 -26q17 -15 20 -21t4 -25q1 -21 1 -44q0 -46 -25 -81t-98 -90q-39 -30 -92.5 -58t-71.5 -28q-24 0 -24 24q0 4 9 45q19 41 29 68q-43 17 -58 36.5t-15 59.5z" />
<glyph unicode="&#x2022;" horiz-adv-x="1365" d="M401 693q0 121 84 202q84 83 204 83q113 0 196 -83q84 -83 84 -201t-84 -201q-82 -83 -200 -83t-200 83q-84 83 -84 200z" />
<glyph unicode="&#x2026;" horiz-adv-x="1416" d="M-163 166q0 10 28 133q48 95 60 110.5t42 16.5q18 0 29.5 -6.5t62.5 -47.5q30 -24 64 -38q50 -22 68 -38t16 -38q-1 -18 -37 -84q-25 -46 -46 -100q-30 -77 -80 -77q-28 0 -113 59q-94 66 -94 110zM309 166q0 10 21 101q6 27 15.5 49t31.5 61q15 28 27.5 38t34.5 11 q17 1 28.5 -6t63.5 -48q30 -24 63 -38q51 -23 69 -38.5t16 -36.5q-1 -19 -37 -85q-25 -46 -46 -100q-30 -77 -80 -77q-28 0 -113 59q-94 66 -94 110zM781 166q0 10 28 133q48 96 60 111t42 16q18 0 29.5 -6.5t62.5 -47.5q30 -24 64 -38q50 -22 68 -38t16 -37q-1 -19 -37 -85 q-25 -46 -46 -100q-30 -77 -80 -77q-28 0 -113 59q-94 66 -94 110z" />
<glyph unicode="&#x202f;" horiz-adv-x="386" />
<glyph unicode="&#x2039;" horiz-adv-x="583" d="M-42 493q0 39 25 75t107 115q75 72 210 174q55 41 79 53.5t46 12.5q23 0 50 -26q64 -63 64 -92q0 -33 -55 -75q-34 -26 -113 -99.5t-100 -98.5q-34 -40 -34 -65q0 -15 44 -110l73 -143q3 -7 3 -22q0 -41 -51 -68q-72 -38 -123 -38q-36 0 -57 24t-71 126q-61 123 -79 171 t-18 86z" />
<glyph unicode="&#x203a;" horiz-adv-x="578" d="M-166 190q0 33 55 75q33 25 113 99t100 99q34 40 34 65q0 15 -44 110l-73 143q-3 7 -3 23q0 40 51 67q73 39 123 38q36 0 57 -24.5t71 -125.5q60 -123 78.5 -171t18.5 -85q0 -40 -25.5 -77t-106.5 -114q-78 -74 -210 -174q-88 -66 -125 -66q-23 0 -50 26q-38 38 -51 56.5 t-13 35.5z" />
<glyph unicode="&#x205f;" horiz-adv-x="482" />
<glyph unicode="&#x2122;" horiz-adv-x="1264" d="M116 711q0 12 26 93q47 105 69 165q16 40 60 138l18 49q-19 -1 -37 -8q-19 -8 -33 -8q-21 0 -31 13.5t-15 50.5q-1 9 -9 44q-4 18 -4 33q0 40 62 55.5t248 22.5l68 3q25 0 34.5 -6t36.5 -37q43 -51 43 -66q0 -8 -14 -33.5t-22 -31.5q-16 -13 -59 -13q-11 0 -20 1h-11 q-27 0 -28 -13q0 -1 6 -11q5 -9 5 -18q0 -14 -33 -83q-26 -55 -47.5 -117t-58.5 -191q-32 -91 -39 -117q-14 -52 -48 -52q-10 0 -48 13t-50 20q-20 13 -44.5 49.5t-24.5 54.5zM475 725q0 31 20 77.5t92 183.5q90 173 114 216.5t81 132.5q37 57 79 57q17 0 31 -7t80 -48 q25 -15 32.5 -37.5t7.5 -78.5v-30q0 -8 -4 -45q68 81 130 153q30 34 62 58t49 24q26 0 80 -58t54 -87q0 -12 -11 -37q-41 -120 -81 -245q-11 -38 -37 -158q-21 -91 -20 -109q-1 -48 -3.5 -62t-13.5 -23q-12 -11 -38.5 -23.5t-38.5 -12.5q-18 0 -68 36q-57 42 -57 78 q0 35 20.5 110.5t46.5 134.5q12 29 17 54l-21 -38l-36 -58l-33 -62q-52 -96 -66 -135q-18 -59 -50 -59q-25 0 -59 31q-22 21 -24 22q-27 20 -33.5 29t-6.5 24q0 38 21 133q1 4 9 58q6 43 14 69q9 30 9 42l-1 26q-1 -26 -13 -45q-6 -11 -24 -76q-5 -18 -44 -111 q-23 -56 -55 -166q-21 -74 -57 -74q-14 0 -44 25q-13 10 -44 10q-21 0 -43.5 34.5t-22.5 66.5z" />
<glyph unicode="&#x25fc;" horiz-adv-x="1055" d="M0 0v1055h1055v-1055h-1055z" />
</font>
</defs>
</svg>
