<?xml version="1.0" standalone="no"?>
<!DOCTYPE svg PUBLIC "-//W3C//DTD SVG 1.1//EN" "http://www.w3.org/Graphics/SVG/1.1/DTD/svg11.dtd" >
<svg xmlns="http://www.w3.org/2000/svg" xmlns:xlink="http://www.w3.org/1999/xlink" version="1.1">
<metadata></metadata>
<defs>
<font id="asapbold" horiz-adv-x="557" >
<font-face units-per-em="1000" ascent="800" descent="-200" />
<missing-glyph horiz-adv-x="240" />
<glyph unicode="ff" horiz-adv-x="650" d="M225 760c32 0 100 -3 100 -49c0 -8 -11 -72 -31 -72c-7 0 -21 4 -31 4c-26 0 -36 -13 -36 -43v-77h50c21 0 30 -15 30 -50v-17c0 -35 -9 -50 -30 -50h-50v-376c0 -21 -18 -32 -60 -32h-28c-42 0 -60 11 -60 32v376h-18c-21 0 -30 15 -30 50v17c0 35 9 50 30 50h18v75 c0 111 52 162 146 162zM550 760c32 0 100 -3 100 -49c0 -8 -11 -72 -31 -72c-7 0 -21 4 -31 4c-26 0 -36 -13 -36 -43v-77h50c21 0 30 -15 30 -50v-17c0 -35 -9 -50 -30 -50h-50v-376c0 -21 -18 -32 -60 -32h-28c-42 0 -60 11 -60 32v376h-18c-21 0 -30 15 -30 50v17 c0 35 9 50 30 50h18v75c0 111 52 162 146 162z" />
<glyph unicode="&#xfb01;" horiz-adv-x="563" d="M211 760c32 0 100 -3 100 -49c0 -8 -11 -72 -31 -72c-7 0 -21 4 -31 4c-26 0 -36 -13 -36 -43v-77h50c21 0 30 -15 30 -50v-17c0 -35 -9 -50 -30 -50h-50v-376c0 -21 -18 -32 -60 -32h-28c-42 0 -60 11 -60 32v376h-18c-21 0 -30 15 -30 50v17c0 35 9 50 30 50h18v75 c0 111 52 162 146 162zM445 754c42 0 60 -11 60 -32v-81c0 -21 -18 -32 -60 -32h-28c-42 0 -60 11 -60 32v81c0 21 18 32 60 32h28zM445 525c42 0 60 -11 60 -32v-463c0 -21 -18 -32 -60 -32h-28c-42 0 -60 11 -60 32v463c0 21 18 32 60 32h28z" />
<glyph unicode="&#xfb02;" horiz-adv-x="591" d="M211 760c32 0 100 -3 100 -49c0 -8 -11 -72 -31 -72c-7 0 -21 4 -31 4c-26 0 -36 -13 -36 -43v-77h50c21 0 30 -15 30 -50v-17c0 -35 -9 -50 -30 -50h-50v-376c0 -21 -18 -32 -60 -32h-28c-42 0 -60 11 -60 32v376h-18c-21 0 -30 15 -30 50v17c0 35 9 50 30 50h18v75 c0 111 52 162 146 162zM445 754c42 0 60 -11 60 -32v-570c0 -30 10 -43 36 -43c9 0 21 4 27 4c20 0 31 -64 31 -72c0 -46 -65 -49 -96 -49c-94 0 -146 51 -146 162v568c0 21 18 32 60 32h28z" />
<glyph unicode=" "  horiz-adv-x="240" />
<glyph unicode="&#x09;" horiz-adv-x="240" />
<glyph unicode="&#xa0;" horiz-adv-x="240" />
<glyph unicode="A" horiz-adv-x="613" d="M333 702c29 0 51 -5 57 -21l220 -643c2 -7 3 -13 3 -18c0 -14 -15 -22 -50 -22h-44c-29 0 -51 5 -56 21l-40 122h-236l-40 -122c-5 -15 -22 -21 -46 -21h-40c-42 0 -61 8 -61 22c0 5 2 11 4 18l220 643c6 16 28 21 57 21h52zM308 515h-4c-4 -21 -7 -43 -15 -64l-59 -178 h150l-57 178c-7 21 -11 43 -15 64z" />
<glyph unicode="&#xc1;" horiz-adv-x="613" d="M387 911c40 0 60 -3 60 -14c0 -12 -7 -14 -104 -120c-11 -12 -28 -25 -75 -25c-24 0 -31 4 -31 15s19 36 65 117c12 21 45 27 85 27zM333 702c29 0 51 -5 57 -21l220 -643c2 -7 3 -13 3 -18c0 -14 -15 -22 -50 -22h-44c-29 0 -51 5 -56 21l-40 122h-236l-40 -122 c-5 -15 -22 -21 -46 -21h-40c-42 0 -61 8 -61 22c0 5 2 11 4 18l220 643c6 16 28 21 57 21h52zM308 515h-4c-4 -21 -7 -43 -15 -64l-59 -178h150l-57 178c-7 21 -11 43 -15 64z" />
<glyph unicode="&#x102;" horiz-adv-x="613" d="M419 892c22 0 35 -10 35 -28c0 -57 -60 -112 -147 -112s-147 55 -147 112c0 18 13 28 35 28c17 0 24 -8 33 -18c13 -14 28 -31 79 -31c54 0 68 19 81 33c8 9 15 16 31 16zM333 702c29 0 51 -5 57 -21l220 -643c2 -7 3 -13 3 -18c0 -14 -15 -22 -50 -22h-44 c-29 0 -51 5 -56 21l-40 122h-236l-40 -122c-5 -15 -22 -21 -46 -21h-40c-42 0 -61 8 -61 22c0 5 2 11 4 18l220 643c6 16 28 21 57 21h52zM308 515h-4c-4 -21 -7 -43 -15 -64l-59 -178h150l-57 178c-7 21 -11 43 -15 64z" />
<glyph unicode="&#x1eae;" horiz-adv-x="613" d="M376 1007c26 0 40 -5 40 -24c0 -10 -13 -26 -74 -100c-8 -8 -20 -15 -55 -15c-16 0 -21 4 -21 15c0 9 10 30 35 97c11 21 40 27 75 27zM419 883c22 0 35 -10 35 -28c0 -51 -60 -103 -147 -103s-147 52 -147 103c0 18 13 28 35 28c17 0 24 -8 33 -18c13 -16 28 -32 79 -32 c54 0 68 17 81 34c8 9 15 16 31 16zM333 702c29 0 51 -5 57 -21l220 -643c2 -7 3 -13 3 -18c0 -14 -15 -22 -50 -22h-44c-29 0 -51 5 -56 21l-40 122h-236l-40 -122c-5 -15 -22 -21 -46 -21h-40c-42 0 -61 8 -61 22c0 5 2 11 4 18l220 643c6 16 28 21 57 21h52zM308 515h-4 c-4 -21 -7 -43 -15 -64l-59 -178h150l-57 178c-7 21 -11 43 -15 64z" />
<glyph unicode="&#x1eb6;" horiz-adv-x="613" d="M419 892c22 0 35 -10 35 -28c0 -57 -60 -112 -147 -112s-147 55 -147 112c0 18 13 28 35 28c17 0 24 -8 33 -18c13 -14 28 -31 79 -31c54 0 68 19 81 33c8 9 15 16 31 16zM333 702c29 0 51 -5 57 -21l220 -643c2 -7 3 -13 3 -18c0 -14 -15 -22 -50 -22h-44 c-29 0 -51 5 -56 21l-40 122h-236l-40 -122c-5 -15 -22 -21 -46 -21h-40c-42 0 -61 8 -61 22c0 5 2 11 4 18l220 643c6 16 28 21 57 21h52zM308 515h-4c-4 -21 -7 -43 -15 -64l-59 -178h150l-57 178c-7 21 -11 43 -15 64zM312 -80c42 0 60 -11 60 -32v-60 c0 -21 -18 -32 -60 -32s-60 11 -60 32v60c0 21 18 32 60 32z" />
<glyph unicode="&#x1eb0;" horiz-adv-x="613" d="M240 1006c40 0 76 -6 85 -27c26 -65 33 -88 33 -97c0 -11 -7 -15 -31 -15c-38 0 -52 13 -62 25c-68 88 -72 90 -72 100c0 11 17 14 47 14zM419 883c22 0 35 -10 35 -28c0 -51 -60 -103 -147 -103s-147 52 -147 103c0 18 13 28 35 28c17 0 24 -8 33 -18 c13 -16 28 -32 79 -32c54 0 68 17 81 34c8 9 15 16 31 16zM333 702c29 0 51 -5 57 -21l220 -643c2 -7 3 -13 3 -18c0 -14 -15 -22 -50 -22h-44c-29 0 -51 5 -56 21l-40 122h-236l-40 -122c-5 -15 -22 -21 -46 -21h-40c-42 0 -61 8 -61 22c0 5 2 11 4 18l220 643 c6 16 28 21 57 21h52zM308 515h-4c-4 -21 -7 -43 -15 -64l-59 -178h150l-57 178c-7 21 -11 43 -15 64z" />
<glyph unicode="&#x1eb2;" horiz-adv-x="613" d="M317 938c0 11 -11 17 -21 17c-33 0 -44 -17 -53 -17c-8 0 -30 27 -30 42c0 13 45 28 80 28c58 0 93 -26 93 -66c0 -16 -6 -31 -26 -47c-10 -8 -32 -22 -49 -22c-27 0 -44 10 -44 21c0 4 9 11 19 16c19 9 31 14 31 28zM419 883c22 0 35 -10 35 -28 c0 -51 -60 -103 -147 -103s-147 52 -147 103c0 18 13 28 35 28c17 0 24 -8 33 -18c13 -16 28 -32 79 -32c54 0 68 17 81 34c8 9 15 16 31 16zM333 702c29 0 51 -5 57 -21l220 -643c2 -7 3 -13 3 -18c0 -14 -15 -22 -50 -22h-44c-29 0 -51 5 -56 21l-40 122h-236l-40 -122 c-5 -15 -22 -21 -46 -21h-40c-42 0 -61 8 -61 22c0 5 2 11 4 18l220 643c6 16 28 21 57 21h52zM308 515h-4c-4 -21 -7 -43 -15 -64l-59 -178h150l-57 178c-7 21 -11 43 -15 64z" />
<glyph unicode="&#x1eb4;" horiz-adv-x="613" d="M244 1016c31 0 98 -27 128 -29c8 0 19 2 30 16c14 19 24 19 37 15l10 -3c22 -7 23 -27 18 -41c-12 -36 -47 -70 -99 -70c-31 0 -98 27 -128 29c-8 0 -19 -2 -30 -16c-14 -19 -24 -19 -37 -15l-10 3c-22 7 -23 27 -18 41c12 36 47 70 99 70zM419 883c22 0 35 -10 35 -28 c0 -51 -60 -103 -147 -103s-147 52 -147 103c0 18 13 28 35 28c17 0 24 -8 33 -18c13 -16 28 -32 79 -32c54 0 68 17 81 34c8 9 15 16 31 16zM333 702c29 0 51 -5 57 -21l220 -643c2 -7 3 -13 3 -18c0 -14 -15 -22 -50 -22h-44c-29 0 -51 5 -56 21l-40 122h-236l-40 -122 c-5 -15 -22 -21 -46 -21h-40c-42 0 -61 8 -61 22c0 5 2 11 4 18l220 643c6 16 28 21 57 21h52zM308 515h-4c-4 -21 -7 -43 -15 -64l-59 -178h150l-57 178c-7 21 -11 43 -15 64z" />
<glyph unicode="&#xc2;" horiz-adv-x="613" d="M313 895c29 0 50 -1 61 -19l65 -102c4 -6 6 -11 6 -15c0 -7 -7 -10 -20 -10h-22c-29 0 -55 5 -68 24l-28 40l-28 -39c-15 -21 -38 -25 -67 -25h-22c-14 0 -20 3 -20 10c0 4 2 9 6 15l65 102c11 18 32 19 61 19h11zM333 702c29 0 51 -5 57 -21l220 -643c2 -7 3 -13 3 -18 c0 -14 -15 -22 -50 -22h-44c-29 0 -51 5 -56 21l-40 122h-236l-40 -122c-5 -15 -22 -21 -46 -21h-40c-42 0 -61 8 -61 22c0 5 2 11 4 18l220 643c6 16 28 21 57 21h52zM308 515h-4c-4 -21 -7 -43 -15 -64l-59 -178h150l-57 178c-7 21 -11 43 -15 64z" />
<glyph unicode="&#x1ea4;" horiz-adv-x="613" d="M510 964c26 0 40 -5 40 -24c0 -10 -13 -26 -74 -100c-8 -8 -20 -15 -55 -15c-16 0 -21 4 -21 15c0 9 10 30 35 97c11 21 40 27 75 27zM313 895c24 0 41 -1 51 -19l60 -102c4 -6 6 -11 6 -15c0 -7 -7 -10 -20 -10h-22c-29 0 -61 3 -68 24l-13 40l-28 -39 c-15 -21 -38 -25 -67 -25h-22c-14 0 -20 3 -20 10c0 4 2 9 6 15l65 102c11 18 32 19 61 19h11zM333 702c29 0 51 -5 57 -21l220 -643c2 -7 3 -13 3 -18c0 -14 -15 -22 -50 -22h-44c-29 0 -51 5 -56 21l-40 122h-236l-40 -122c-5 -15 -22 -21 -46 -21h-40c-42 0 -61 8 -61 22 c0 5 2 11 4 18l220 643c6 16 28 21 57 21h52zM308 515h-4c-4 -21 -7 -43 -15 -64l-59 -178h150l-57 178c-7 21 -11 43 -15 64z" />
<glyph unicode="&#x1eac;" horiz-adv-x="613" d="M313 895c29 0 50 -1 61 -19l65 -102c4 -6 6 -11 6 -15c0 -7 -7 -10 -20 -10h-22c-29 0 -55 5 -68 24l-28 40l-28 -39c-15 -21 -38 -25 -67 -25h-22c-14 0 -20 3 -20 10c0 4 2 9 6 15l65 102c11 18 32 19 61 19h11zM333 702c29 0 51 -5 57 -21l220 -643c2 -7 3 -13 3 -18 c0 -14 -15 -22 -50 -22h-44c-29 0 -51 5 -56 21l-40 122h-236l-40 -122c-5 -15 -22 -21 -46 -21h-40c-42 0 -61 8 -61 22c0 5 2 11 4 18l220 643c6 16 28 21 57 21h52zM308 515h-4c-4 -21 -7 -43 -15 -64l-59 -178h150l-57 178c-7 21 -11 43 -15 64zM312 -80 c42 0 60 -11 60 -32v-60c0 -21 -18 -32 -60 -32s-60 11 -60 32v60c0 21 18 32 60 32z" />
<glyph unicode="&#x1ea6;" horiz-adv-x="613" d="M374 963c40 0 76 -6 85 -27c26 -65 33 -88 33 -97c0 -11 -7 -15 -31 -15c-38 0 -52 13 -62 25c-68 88 -72 90 -72 100c0 11 17 14 47 14zM313 895c24 0 41 -1 51 -19l60 -102c4 -6 6 -11 6 -15c0 -7 -7 -10 -20 -10h-22c-29 0 -61 3 -68 24l-13 40l-28 -39 c-15 -21 -38 -25 -67 -25h-22c-14 0 -20 3 -20 10c0 4 2 9 6 15l65 102c11 18 32 19 61 19h11zM333 702c29 0 51 -5 57 -21l220 -643c2 -7 3 -13 3 -18c0 -14 -15 -22 -50 -22h-44c-29 0 -51 5 -56 21l-40 122h-236l-40 -122c-5 -15 -22 -21 -46 -21h-40c-42 0 -61 8 -61 22 c0 5 2 11 4 18l220 643c6 16 28 21 57 21h52zM308 515h-4c-4 -21 -7 -43 -15 -64l-59 -178h150l-57 178c-7 21 -11 43 -15 64z" />
<glyph unicode="&#x1ea8;" horiz-adv-x="613" d="M451 895c0 11 -11 17 -21 17c-33 0 -44 -17 -53 -17c-8 0 -30 27 -30 42c0 13 45 28 80 28c58 0 93 -26 93 -66c0 -16 -6 -31 -26 -47c-10 -8 -32 -22 -49 -22c-27 0 -44 10 -44 21c0 4 9 11 19 16c19 9 31 14 31 28zM313 895c24 0 41 -1 51 -19l60 -102 c4 -6 6 -11 6 -15c0 -7 -7 -10 -20 -10h-22c-29 0 -61 3 -68 24l-13 40l-28 -39c-15 -21 -38 -25 -67 -25h-22c-14 0 -20 3 -20 10c0 4 2 9 6 15l65 102c11 18 32 19 61 19h11zM333 702c29 0 51 -5 57 -21l220 -643c2 -7 3 -13 3 -18c0 -14 -15 -22 -50 -22h-44 c-29 0 -51 5 -56 21l-40 122h-236l-40 -122c-5 -15 -22 -21 -46 -21h-40c-42 0 -61 8 -61 22c0 5 2 11 4 18l220 643c6 16 28 21 57 21h52zM308 515h-4c-4 -21 -7 -43 -15 -64l-59 -178h150l-57 178c-7 21 -11 43 -15 64z" />
<glyph unicode="&#x1eaa;" horiz-adv-x="613" d="M240 1016c31 0 98 -27 128 -29c8 0 19 2 30 16c14 19 24 19 37 15l10 -3c22 -7 23 -27 18 -41c-12 -36 -47 -70 -99 -70c-31 0 -98 27 -128 29c-8 0 -19 -2 -30 -16c-14 -19 -24 -19 -37 -15l-10 3c-22 7 -23 27 -18 41c12 36 47 70 99 70zM313 871c29 0 46 -3 61 -19 l65 -78c4 -6 6 -11 6 -15c0 -7 -7 -10 -20 -10h-22c-29 0 -47 11 -68 24l-28 27l-28 -26c-24 -14 -38 -25 -67 -25h-22c-14 0 -20 3 -20 10c0 4 2 9 6 15l65 78c15 16 32 19 61 19h11zM333 702c29 0 51 -5 57 -21l220 -643c2 -7 3 -13 3 -18c0 -14 -15 -22 -50 -22h-44 c-29 0 -51 5 -56 21l-40 122h-236l-40 -122c-5 -15 -22 -21 -46 -21h-40c-42 0 -61 8 -61 22c0 5 2 11 4 18l220 643c6 16 28 21 57 21h52zM308 515h-4c-4 -21 -7 -43 -15 -64l-59 -178h150l-57 178c-7 21 -11 43 -15 64z" />
<glyph unicode="&#xc4;" horiz-adv-x="613" d="M217 879c42 0 60 -11 60 -32v-60c0 -21 -18 -32 -60 -32s-60 11 -60 32v60c0 21 18 32 60 32zM397 879c42 0 60 -11 60 -32v-60c0 -21 -18 -32 -60 -32s-60 11 -60 32v60c0 21 18 32 60 32zM333 702c29 0 51 -5 57 -21l220 -643c2 -7 3 -13 3 -18c0 -14 -15 -22 -50 -22 h-44c-29 0 -51 5 -56 21l-40 122h-236l-40 -122c-5 -15 -22 -21 -46 -21h-40c-42 0 -61 8 -61 22c0 5 2 11 4 18l220 643c6 16 28 21 57 21h52zM308 515h-4c-4 -21 -7 -43 -15 -64l-59 -178h150l-57 178c-7 21 -11 43 -15 64z" />
<glyph unicode="&#x1ea0;" horiz-adv-x="613" d="M333 702c29 0 51 -5 57 -21l220 -643c2 -7 3 -13 3 -18c0 -14 -15 -22 -50 -22h-44c-29 0 -51 5 -56 21l-40 122h-236l-40 -122c-5 -15 -22 -21 -46 -21h-40c-42 0 -61 8 -61 22c0 5 2 11 4 18l220 643c6 16 28 21 57 21h52zM308 515h-4c-4 -21 -7 -43 -15 -64l-59 -178 h150l-57 178c-7 21 -11 43 -15 64zM312 -80c42 0 60 -11 60 -32v-60c0 -21 -18 -32 -60 -32s-60 11 -60 32v60c0 21 18 32 60 32z" />
<glyph unicode="&#xc0;" horiz-adv-x="613" d="M233 911c40 0 73 -6 85 -27c46 -81 65 -106 65 -117s-7 -15 -31 -15c-47 0 -64 13 -75 25c-97 106 -104 108 -104 120c0 11 20 14 60 14zM333 702c29 0 51 -5 57 -21l220 -643c2 -7 3 -13 3 -18c0 -14 -15 -22 -50 -22h-44c-29 0 -51 5 -56 21l-40 122h-236l-40 -122 c-5 -15 -22 -21 -46 -21h-40c-42 0 -61 8 -61 22c0 5 2 11 4 18l220 643c6 16 28 21 57 21h52zM308 515h-4c-4 -21 -7 -43 -15 -64l-59 -178h150l-57 178c-7 21 -11 43 -15 64z" />
<glyph unicode="&#x1ea2;" horiz-adv-x="613" d="M344 845c0 14 -16 22 -32 22c-22 0 -33 -12 -42 -12c-8 0 -30 27 -30 42c0 13 45 31 80 31c72 0 111 -30 111 -79c0 -53 -82 -102 -100 -102c-24 0 -54 15 -54 23c0 17 67 45 67 75zM333 702c29 0 51 -5 57 -21l220 -643c2 -7 3 -13 3 -18c0 -14 -15 -22 -50 -22h-44 c-29 0 -51 5 -56 21l-40 122h-236l-40 -122c-5 -15 -22 -21 -46 -21h-40c-42 0 -61 8 -61 22c0 5 2 11 4 18l220 643c6 16 28 21 57 21h52zM308 515h-4c-4 -21 -7 -43 -15 -64l-59 -178h150l-57 178c-7 21 -11 43 -15 64z" />
<glyph unicode="&#x100;" horiz-adv-x="613" d="M415 869c21 0 30 -12 30 -40v-15c0 -28 -9 -40 -30 -40h-215c-21 0 -30 12 -30 40v15c0 28 9 40 30 40h215zM333 702c29 0 51 -5 57 -21l220 -643c2 -7 3 -13 3 -18c0 -14 -15 -22 -50 -22h-44c-29 0 -51 5 -56 21l-40 122h-236l-40 -122c-5 -15 -22 -21 -46 -21h-40 c-42 0 -61 8 -61 22c0 5 2 11 4 18l220 643c6 16 28 21 57 21h52zM308 515h-4c-4 -21 -7 -43 -15 -64l-59 -178h150l-57 178c-7 21 -11 43 -15 64z" />
<glyph unicode="&#x104;" horiz-adv-x="613" d="M652 -105c14 0 22 -9 22 -28c0 -42 -44 -50 -82 -50c-107 0 -118 73 -118 102c0 16 4 58 24 80c-18 2 -31 8 -35 20l-40 122h-236l-40 -122c-5 -15 -22 -21 -46 -21h-40c-42 0 -61 8 -61 22c0 5 2 11 4 18l220 643c6 16 28 21 57 21h52c29 0 51 -5 57 -21l220 -643 c2 -7 3 -13 3 -18c0 -14 -15 -22 -50 -22h-11v-3c0 -15 -11 -28 -11 -57c0 -48 39 -51 62 -51c25 0 31 8 49 8zM230 273h150l-57 178c-7 21 -11 43 -15 64h-4c-4 -21 -7 -43 -15 -64z" />
<glyph unicode="&#xc5;" horiz-adv-x="613" d="M307 926c56 0 100 -44 100 -100s-44 -99 -100 -99s-99 43 -99 99s43 100 99 100zM307 862c-20 0 -36 -17 -36 -37s16 -36 36 -36s37 16 37 36s-17 37 -37 37zM333 702c29 0 51 -5 57 -21l220 -643c2 -7 3 -13 3 -18c0 -14 -15 -22 -50 -22h-44c-29 0 -51 5 -56 21 l-40 122h-236l-40 -122c-5 -15 -22 -21 -46 -21h-40c-42 0 -61 8 -61 22c0 5 2 11 4 18l220 643c6 16 28 21 57 21h52zM308 515h-4c-4 -21 -7 -43 -15 -64l-59 -178h150l-57 178c-7 21 -11 43 -15 64z" />
<glyph unicode="&#x1fa;" horiz-adv-x="613" d="M292 812c-24 0 -31 4 -31 15c16 37 26 54 41 77c12 21 45 27 85 27s60 -3 60 -14c0 -8 -5 -10 -80 -80c-11 -12 -28 -25 -75 -25zM610 38c2 -7 3 -13 3 -18c0 -14 -15 -22 -50 -22h-44c-29 0 -51 5 -56 21l-40 122h-236l-40 -122c-5 -15 -22 -21 -46 -21h-40 c-42 0 -61 8 -61 22c0 5 2 11 4 18l212 619c-5 12 -8 25 -8 39c0 56 43 100 99 100s100 -44 100 -100c0 -15 -3 -28 -8 -40zM307 732c-20 0 -36 -17 -36 -37s16 -36 36 -36s37 16 37 36s-17 37 -37 37zM230 273h150l-57 178c-7 21 -11 43 -15 64h-4c-4 -21 -7 -43 -15 -64z " />
<glyph unicode="&#xc3;" horiz-adv-x="613" d="M228 871c34 0 108 -27 141 -29c8 0 20 2 33 16c15 19 26 19 40 15l11 -3c24 -7 26 -27 20 -41c-13 -36 -52 -70 -109 -70c-34 0 -108 27 -141 29c-8 0 -21 -2 -33 -16c-15 -19 -26 -19 -40 -15l-11 3c-25 7 -26 27 -20 41c13 36 52 70 109 70zM333 702c29 0 51 -5 57 -21 l220 -643c2 -7 3 -13 3 -18c0 -14 -15 -22 -50 -22h-44c-29 0 -51 5 -56 21l-40 122h-236l-40 -122c-5 -15 -22 -21 -46 -21h-40c-42 0 -61 8 -61 22c0 5 2 11 4 18l220 643c6 16 28 21 57 21h52zM308 515h-4c-4 -21 -7 -43 -15 -64l-59 -178h150l-57 178 c-7 21 -11 43 -15 64z" />
<glyph unicode="&#xc6;" horiz-adv-x="915" d="M834 700c21 0 30 -15 30 -50v-31c0 -35 -9 -50 -30 -50h-317l28 -145h262c21 0 30 -15 30 -50v-31c0 -35 -9 -50 -30 -50h-236l31 -162h233c21 0 30 -15 30 -50v-31c0 -35 -9 -50 -30 -50h-331c-22 0 -31 9 -35 30l-21 111h-243l-60 -122c-7 -14 -22 -21 -46 -21h-37 c-42 0 -61 8 -61 22c0 5 1 12 4 18l321 635c10 19 23 27 44 27h464zM391 537h-4l-28 -82l-89 -182h154l-33 181v83z" />
<glyph unicode="&#x1fc;" horiz-adv-x="915" d="M538 911c40 0 60 -3 60 -14c0 -12 -7 -14 -104 -120c-11 -12 -28 -25 -75 -25c-24 0 -31 4 -31 15s19 36 65 117c12 21 45 27 85 27zM834 700c21 0 30 -15 30 -50v-31c0 -35 -9 -50 -30 -50h-317l28 -145h262c21 0 30 -15 30 -50v-31c0 -35 -9 -50 -30 -50h-236l31 -162 h233c21 0 30 -15 30 -50v-31c0 -35 -9 -50 -30 -50h-331c-22 0 -31 9 -35 30l-21 111h-243l-60 -122c-7 -14 -22 -21 -46 -21h-37c-42 0 -61 8 -61 22c0 5 1 12 4 18l321 635c10 19 23 27 44 27h464zM391 537h-4l-28 -82l-89 -182h154l-33 181v83z" />
<glyph unicode="B" horiz-adv-x="593" d="M307 700c169 0 236 -72 236 -177c0 -68 -48 -127 -108 -152l1 -4c80 -16 135 -87 135 -164c0 -129 -81 -203 -250 -203h-212c-28 0 -40 12 -40 40v620c0 28 12 40 40 40h198zM294 570h-71v-149h69c60 0 93 33 93 75c0 49 -30 74 -91 74zM305 290h-82v-159h98 c58 0 92 29 92 81s-39 78 -108 78z" />
<glyph unicode="C" horiz-adv-x="619" d="M379 708c88 0 209 -28 209 -70c0 -28 -40 -94 -65 -94c-12 0 -52 32 -147 32c-118 0 -173 -75 -173 -225s56 -228 171 -228c95 0 149 40 164 40c32 0 59 -70 59 -87c0 -60 -143 -84 -223 -84c-224 0 -329 113 -329 360c0 238 112 356 334 356z" />
<glyph unicode="&#x106;" horiz-adv-x="619" d="M448 911c40 0 60 -3 60 -14c0 -12 -7 -14 -104 -120c-11 -12 -28 -25 -75 -25c-24 0 -31 4 -31 15s19 36 65 117c12 21 45 27 85 27zM379 708c88 0 209 -28 209 -70c0 -28 -40 -94 -65 -94c-12 0 -52 32 -147 32c-118 0 -173 -75 -173 -225s56 -228 171 -228 c95 0 149 40 164 40c32 0 59 -70 59 -87c0 -60 -143 -84 -223 -84c-224 0 -329 113 -329 360c0 238 112 356 334 356z" />
<glyph unicode="&#x10c;" horiz-adv-x="619" d="M486 895c13 0 20 -3 20 -10c0 -4 -2 -9 -6 -15l-65 -102c-11 -18 -32 -19 -61 -19h-11c-29 0 -50 1 -61 19l-65 102c-4 6 -6 11 -6 15c0 7 6 10 20 10h22c29 0 52 -4 67 -25l28 -39l28 40c13 19 39 24 68 24h22zM379 708c88 0 209 -28 209 -70c0 -28 -40 -94 -65 -94 c-12 0 -52 32 -147 32c-118 0 -173 -75 -173 -225s56 -228 171 -228c95 0 149 40 164 40c32 0 59 -70 59 -87c0 -60 -143 -84 -223 -84c-224 0 -329 113 -329 360c0 238 112 356 334 356z" />
<glyph unicode="&#xc7;" horiz-adv-x="619" d="M597 76c0 -53 -111 -78 -193 -83l-7 -29c35 -5 77 -25 77 -76c0 -68 -40 -100 -119 -100c-56 0 -131 18 -131 50c0 34 25 44 32 44c23 0 49 -21 91 -21c18 0 24 6 24 17c0 25 -53 24 -53 48c0 4 1 9 20 67c-199 12 -293 126 -293 359c0 238 112 356 334 356 c88 0 209 -28 209 -70c0 -28 -40 -94 -65 -94c-12 0 -52 32 -147 32c-118 0 -173 -75 -173 -225s56 -228 171 -228c95 0 149 40 164 40c32 0 59 -70 59 -87z" />
<glyph unicode="&#x108;" horiz-adv-x="619" d="M374 895c29 0 50 -1 61 -19l65 -102c4 -6 6 -11 6 -15c0 -7 -7 -10 -20 -10h-22c-29 0 -55 5 -68 24l-28 40l-28 -39c-15 -21 -38 -25 -67 -25h-22c-14 0 -20 3 -20 10c0 4 2 9 6 15l65 102c11 18 32 19 61 19h11zM379 708c88 0 209 -28 209 -70c0 -28 -40 -94 -65 -94 c-12 0 -52 32 -147 32c-118 0 -173 -75 -173 -225s56 -228 171 -228c95 0 149 40 164 40c32 0 59 -70 59 -87c0 -60 -143 -84 -223 -84c-224 0 -329 113 -329 360c0 238 112 356 334 356z" />
<glyph unicode="&#x10a;" horiz-adv-x="619" d="M368 879c42 0 60 -11 60 -32v-60c0 -21 -18 -32 -60 -32s-60 11 -60 32v60c0 21 18 32 60 32zM379 708c88 0 209 -28 209 -70c0 -28 -40 -94 -65 -94c-12 0 -52 32 -147 32c-118 0 -173 -75 -173 -225s56 -228 171 -228c95 0 149 40 164 40c32 0 59 -70 59 -87 c0 -60 -143 -84 -223 -84c-224 0 -329 113 -329 360c0 238 112 356 334 356z" />
<glyph unicode="D" horiz-adv-x="695" d="M333 700c206 0 320 -124 320 -350s-114 -350 -320 -350h-224c-28 0 -40 12 -40 40v620c0 28 12 40 40 40h224zM333 569h-109v-438h109c107 0 162 77 162 219s-55 219 -162 219z" />
<glyph unicode="&#x1f1;" horiz-adv-x="1311" d="M333 700c206 0 320 -124 320 -350s-114 -350 -320 -350h-224c-28 0 -40 12 -40 40v620c0 28 12 40 40 40h224zM1238 700c16 0 37 -66 37 -92c0 -4 0 -6 -1 -8l-334 -469h305c21 0 30 -15 30 -50v-31c0 -35 -9 -50 -30 -50h-484c-17 0 -39 62 -39 89c0 4 1 8 2 10l335 470 h-278c-21 0 -30 15 -30 50v31c0 35 9 50 30 50h457zM333 569h-109v-438h109c107 0 162 77 162 219s-55 219 -162 219z" />
<glyph unicode="&#x1c4;" horiz-adv-x="1311" d="M1121 895c13 0 20 -3 20 -10c0 -4 -2 -9 -6 -15l-65 -102c-11 -18 -32 -19 -61 -19h-11c-29 0 -50 1 -61 19l-65 102c-4 6 -6 11 -6 15c0 7 6 10 20 10h22c29 0 52 -4 67 -25l28 -39l28 40c13 19 39 24 68 24h22zM333 700c206 0 320 -124 320 -350s-114 -350 -320 -350 h-224c-28 0 -40 12 -40 40v620c0 28 12 40 40 40h224zM1238 700c16 0 37 -66 37 -92c0 -4 0 -6 -1 -8l-334 -469h305c21 0 30 -15 30 -50v-31c0 -35 -9 -50 -30 -50h-484c-17 0 -39 62 -39 89c0 4 1 8 2 10l335 470h-278c-21 0 -30 15 -30 50v31c0 35 9 50 30 50h457z M333 569h-109v-438h109c107 0 162 77 162 219s-55 219 -162 219z" />
<glyph unicode="&#xd0;" horiz-adv-x="696" d="M335 700c206 0 320 -124 320 -350s-114 -350 -320 -350h-224c-28 0 -40 12 -40 40v251h-29c-21 0 -30 15 -30 50v30c0 35 9 50 30 50h29v239c0 28 12 40 40 40h224zM335 569h-109v-148h59c21 0 30 -15 30 -50v-30c0 -35 -9 -50 -30 -50h-59v-160h109 c107 0 162 77 162 219s-55 219 -162 219z" />
<glyph unicode="&#x10e;" horiz-adv-x="695" d="M451 895c13 0 20 -3 20 -10c0 -4 -2 -9 -6 -15l-65 -102c-11 -18 -32 -19 -61 -19h-11c-29 0 -50 1 -61 19l-65 102c-4 6 -6 11 -6 15c0 7 6 10 20 10h22c29 0 52 -4 67 -25l28 -39l28 40c13 19 39 24 68 24h22zM333 700c206 0 320 -124 320 -350s-114 -350 -320 -350 h-224c-28 0 -40 12 -40 40v620c0 28 12 40 40 40h224zM333 569h-109v-438h109c107 0 162 77 162 219s-55 219 -162 219z" />
<glyph unicode="&#x110;" horiz-adv-x="696" d="M335 700c206 0 320 -124 320 -350s-114 -350 -320 -350h-224c-28 0 -40 12 -40 40v251h-29c-21 0 -30 15 -30 50v30c0 35 9 50 30 50h29v239c0 28 12 40 40 40h224zM335 569h-109v-148h59c21 0 30 -15 30 -50v-30c0 -35 -9 -50 -30 -50h-59v-160h109 c107 0 162 77 162 219s-55 219 -162 219z" />
<glyph unicode="&#x1e0c;" horiz-adv-x="695" d="M333 700c206 0 320 -124 320 -350s-114 -350 -320 -350h-224c-28 0 -40 12 -40 40v620c0 28 12 40 40 40h224zM333 569h-109v-438h109c107 0 162 77 162 219s-55 219 -162 219zM333 -80c42 0 60 -11 60 -32v-60c0 -21 -18 -32 -60 -32s-60 11 -60 32v60c0 21 18 32 60 32 z" />
<glyph unicode="&#x1f2;" horiz-adv-x="1184" d="M333 700c206 0 320 -124 320 -350s-114 -350 -320 -350h-224c-28 0 -40 12 -40 40v620c0 28 12 40 40 40h224zM333 569h-109v-438h109c107 0 162 77 162 219s-55 219 -162 219zM1122 523c11 0 29 -49 29 -77c0 -7 -1 -12 -3 -15l-228 -314h205c21 0 30 -15 30 -50v-17 c0 -35 -9 -50 -30 -50h-374c-13 0 -29 50 -29 76c0 6 1 11 3 14l229 316h-186c-21 0 -30 15 -30 50v17c0 35 9 50 30 50h354z" />
<glyph unicode="&#x1c5;" horiz-adv-x="1184" d="M1058 718c13 0 20 -3 20 -10c0 -4 -2 -9 -6 -15l-65 -102c-11 -18 -32 -19 -61 -19h-11c-29 0 -50 1 -61 19l-65 102c-4 6 -6 11 -6 15c0 7 6 10 20 10h22c29 0 52 -4 67 -25l28 -39l28 40c13 19 39 24 68 24h22zM333 700c206 0 320 -124 320 -350s-114 -350 -320 -350 h-224c-28 0 -40 12 -40 40v620c0 28 12 40 40 40h224zM333 569h-109v-438h109c107 0 162 77 162 219s-55 219 -162 219zM1122 523c11 0 29 -49 29 -77c0 -7 -1 -12 -3 -15l-228 -314h205c21 0 30 -15 30 -50v-17c0 -35 -9 -50 -30 -50h-374c-13 0 -29 50 -29 76 c0 6 1 11 3 14l229 316h-186c-21 0 -30 15 -30 50v17c0 35 9 50 30 50h354z" />
<glyph unicode="E" horiz-adv-x="546" d="M475 700c21 0 30 -15 30 -50v-31c0 -35 -9 -50 -30 -50h-252v-145h225c21 0 30 -15 30 -50v-31c0 -35 -9 -50 -30 -50h-225v-162h253c21 0 30 -15 30 -50v-31c0 -35 -9 -50 -30 -50h-367c-28 0 -40 12 -40 40v620c0 28 12 40 40 40h366z" />
<glyph unicode="&#xc9;" horiz-adv-x="546" d="M375 911c40 0 60 -3 60 -14c0 -12 -7 -14 -104 -120c-11 -12 -28 -25 -75 -25c-24 0 -31 4 -31 15s19 36 65 117c12 21 45 27 85 27zM475 700c21 0 30 -15 30 -50v-31c0 -35 -9 -50 -30 -50h-252v-145h225c21 0 30 -15 30 -50v-31c0 -35 -9 -50 -30 -50h-225v-162h253 c21 0 30 -15 30 -50v-31c0 -35 -9 -50 -30 -50h-367c-28 0 -40 12 -40 40v620c0 28 12 40 40 40h366z" />
<glyph unicode="&#x114;" horiz-adv-x="546" d="M407 892c22 0 35 -10 35 -28c0 -57 -60 -112 -147 -112s-147 55 -147 112c0 18 13 28 35 28c17 0 24 -8 33 -18c13 -14 28 -31 79 -31c54 0 68 19 81 33c8 9 15 16 31 16zM475 700c21 0 30 -15 30 -50v-31c0 -35 -9 -50 -30 -50h-252v-145h225c21 0 30 -15 30 -50v-31 c0 -35 -9 -50 -30 -50h-225v-162h253c21 0 30 -15 30 -50v-31c0 -35 -9 -50 -30 -50h-367c-28 0 -40 12 -40 40v620c0 28 12 40 40 40h366z" />
<glyph unicode="&#x11a;" horiz-adv-x="546" d="M413 895c13 0 20 -3 20 -10c0 -4 -2 -9 -6 -15l-65 -102c-11 -18 -32 -19 -61 -19h-11c-29 0 -50 1 -61 19l-65 102c-4 6 -6 11 -6 15c0 7 6 10 20 10h22c29 0 52 -4 67 -25l28 -39l28 40c13 19 39 24 68 24h22zM475 700c21 0 30 -15 30 -50v-31c0 -35 -9 -50 -30 -50 h-252v-145h225c21 0 30 -15 30 -50v-31c0 -35 -9 -50 -30 -50h-225v-162h253c21 0 30 -15 30 -50v-31c0 -35 -9 -50 -30 -50h-367c-28 0 -40 12 -40 40v620c0 28 12 40 40 40h366z" />
<glyph unicode="&#xca;" horiz-adv-x="546" d="M301 895c29 0 50 -1 61 -19l65 -102c4 -6 6 -11 6 -15c0 -7 -7 -10 -20 -10h-22c-29 0 -55 5 -68 24l-28 40l-28 -39c-15 -21 -38 -25 -67 -25h-22c-14 0 -20 3 -20 10c0 4 2 9 6 15l65 102c11 18 32 19 61 19h11zM475 700c21 0 30 -15 30 -50v-31c0 -35 -9 -50 -30 -50 h-252v-145h225c21 0 30 -15 30 -50v-31c0 -35 -9 -50 -30 -50h-225v-162h253c21 0 30 -15 30 -50v-31c0 -35 -9 -50 -30 -50h-367c-28 0 -40 12 -40 40v620c0 28 12 40 40 40h366z" />
<glyph unicode="&#x1ebe;" horiz-adv-x="546" d="M498 964c26 0 40 -5 40 -24c0 -10 -13 -26 -74 -100c-8 -8 -20 -15 -55 -15c-16 0 -21 4 -21 15c0 9 10 30 35 97c11 21 40 27 75 27zM301 895c24 0 41 -1 51 -19l60 -102c4 -6 6 -11 6 -15c0 -7 -7 -10 -20 -10h-22c-29 0 -61 3 -68 24l-13 40l-28 -39 c-15 -21 -38 -25 -67 -25h-22c-14 0 -20 3 -20 10c0 4 2 9 6 15l65 102c11 18 32 19 61 19h11zM475 700c21 0 30 -15 30 -50v-31c0 -35 -9 -50 -30 -50h-252v-145h225c21 0 30 -15 30 -50v-31c0 -35 -9 -50 -30 -50h-225v-162h253c21 0 30 -15 30 -50v-31 c0 -35 -9 -50 -30 -50h-367c-28 0 -40 12 -40 40v620c0 28 12 40 40 40h366z" />
<glyph unicode="&#x1ec6;" horiz-adv-x="546" d="M301 895c29 0 50 -1 61 -19l65 -102c4 -6 6 -11 6 -15c0 -7 -7 -10 -20 -10h-22c-29 0 -55 5 -68 24l-28 40l-28 -39c-15 -21 -38 -25 -67 -25h-22c-14 0 -20 3 -20 10c0 4 2 9 6 15l65 102c11 18 32 19 61 19h11zM475 700c21 0 30 -15 30 -50v-31c0 -35 -9 -50 -30 -50 h-252v-145h225c21 0 30 -15 30 -50v-31c0 -35 -9 -50 -30 -50h-225v-162h253c21 0 30 -15 30 -50v-31c0 -35 -9 -50 -30 -50h-367c-28 0 -40 12 -40 40v620c0 28 12 40 40 40h366zM289 -80c42 0 60 -11 60 -32v-60c0 -21 -18 -32 -60 -32s-60 11 -60 32v60c0 21 18 32 60 32 z" />
<glyph unicode="&#x1ec0;" horiz-adv-x="546" d="M362 963c40 0 76 -6 85 -27c26 -65 33 -88 33 -97c0 -11 -7 -15 -31 -15c-38 0 -52 13 -62 25c-68 88 -72 90 -72 100c0 11 17 14 47 14zM301 895c24 0 41 -1 51 -19l60 -102c4 -6 6 -11 6 -15c0 -7 -7 -10 -20 -10h-22c-29 0 -61 3 -68 24l-13 40l-28 -39 c-15 -21 -38 -25 -67 -25h-22c-14 0 -20 3 -20 10c0 4 2 9 6 15l65 102c11 18 32 19 61 19h11zM475 700c21 0 30 -15 30 -50v-31c0 -35 -9 -50 -30 -50h-252v-145h225c21 0 30 -15 30 -50v-31c0 -35 -9 -50 -30 -50h-225v-162h253c21 0 30 -15 30 -50v-31 c0 -35 -9 -50 -30 -50h-367c-28 0 -40 12 -40 40v620c0 28 12 40 40 40h366z" />
<glyph unicode="&#x1ec2;" horiz-adv-x="546" d="M439 895c0 11 -11 17 -21 17c-33 0 -44 -17 -53 -17c-8 0 -30 27 -30 42c0 13 45 28 80 28c58 0 93 -26 93 -66c0 -16 -6 -31 -26 -47c-10 -8 -32 -22 -49 -22c-27 0 -44 10 -44 21c0 4 9 11 19 16c19 9 31 14 31 28zM301 895c24 0 41 -1 51 -19l60 -102 c4 -6 6 -11 6 -15c0 -7 -7 -10 -20 -10h-22c-29 0 -61 3 -68 24l-13 40l-28 -39c-15 -21 -38 -25 -67 -25h-22c-14 0 -20 3 -20 10c0 4 2 9 6 15l65 102c11 18 32 19 61 19h11zM475 700c21 0 30 -15 30 -50v-31c0 -35 -9 -50 -30 -50h-252v-145h225c21 0 30 -15 30 -50v-31 c0 -35 -9 -50 -30 -50h-225v-162h253c21 0 30 -15 30 -50v-31c0 -35 -9 -50 -30 -50h-367c-28 0 -40 12 -40 40v620c0 28 12 40 40 40h366z" />
<glyph unicode="&#x1ec4;" horiz-adv-x="546" d="M228 1016c31 0 98 -27 128 -29c8 0 19 2 30 16c14 19 24 19 37 15l10 -3c22 -7 23 -27 18 -41c-12 -36 -47 -70 -99 -70c-31 0 -98 27 -128 29c-8 0 -19 -2 -30 -16c-14 -19 -24 -19 -37 -15l-10 3c-22 7 -23 27 -18 41c12 36 47 70 99 70zM301 871c29 0 46 -3 61 -19 l65 -78c4 -6 6 -11 6 -15c0 -7 -7 -10 -20 -10h-22c-29 0 -47 11 -68 24l-28 27l-28 -26c-24 -14 -38 -25 -67 -25h-22c-14 0 -20 3 -20 10c0 4 2 9 6 15l65 78c15 16 32 19 61 19h11zM475 700c21 0 30 -15 30 -50v-31c0 -35 -9 -50 -30 -50h-252v-145h225 c21 0 30 -15 30 -50v-31c0 -35 -9 -50 -30 -50h-225v-162h253c21 0 30 -15 30 -50v-31c0 -35 -9 -50 -30 -50h-367c-28 0 -40 12 -40 40v620c0 28 12 40 40 40h366z" />
<glyph unicode="&#xcb;" horiz-adv-x="546" d="M205 879c42 0 60 -11 60 -32v-60c0 -21 -18 -32 -60 -32s-60 11 -60 32v60c0 21 18 32 60 32zM385 879c42 0 60 -11 60 -32v-60c0 -21 -18 -32 -60 -32s-60 11 -60 32v60c0 21 18 32 60 32zM475 700c21 0 30 -15 30 -50v-31c0 -35 -9 -50 -30 -50h-252v-145h225 c21 0 30 -15 30 -50v-31c0 -35 -9 -50 -30 -50h-225v-162h253c21 0 30 -15 30 -50v-31c0 -35 -9 -50 -30 -50h-367c-28 0 -40 12 -40 40v620c0 28 12 40 40 40h366z" />
<glyph unicode="&#x116;" horiz-adv-x="546" d="M295 879c42 0 60 -11 60 -32v-60c0 -21 -18 -32 -60 -32s-60 11 -60 32v60c0 21 18 32 60 32zM475 700c21 0 30 -15 30 -50v-31c0 -35 -9 -50 -30 -50h-252v-145h225c21 0 30 -15 30 -50v-31c0 -35 -9 -50 -30 -50h-225v-162h253c21 0 30 -15 30 -50v-31 c0 -35 -9 -50 -30 -50h-367c-28 0 -40 12 -40 40v620c0 28 12 40 40 40h366z" />
<glyph unicode="&#x1eb8;" horiz-adv-x="546" d="M475 700c21 0 30 -15 30 -50v-31c0 -35 -9 -50 -30 -50h-252v-145h225c21 0 30 -15 30 -50v-31c0 -35 -9 -50 -30 -50h-225v-162h253c21 0 30 -15 30 -50v-31c0 -35 -9 -50 -30 -50h-367c-28 0 -40 12 -40 40v620c0 28 12 40 40 40h366zM289 -80c42 0 60 -11 60 -32v-60 c0 -21 -18 -32 -60 -32s-60 11 -60 32v60c0 21 18 32 60 32z" />
<glyph unicode="&#xc8;" horiz-adv-x="546" d="M221 911c40 0 73 -6 85 -27c46 -81 65 -106 65 -117s-7 -15 -31 -15c-47 0 -64 13 -75 25c-97 106 -104 108 -104 120c0 11 20 14 60 14zM475 700c21 0 30 -15 30 -50v-31c0 -35 -9 -50 -30 -50h-252v-145h225c21 0 30 -15 30 -50v-31c0 -35 -9 -50 -30 -50h-225v-162 h253c21 0 30 -15 30 -50v-31c0 -35 -9 -50 -30 -50h-367c-28 0 -40 12 -40 40v620c0 28 12 40 40 40h366z" />
<glyph unicode="&#x1eba;" horiz-adv-x="546" d="M332 845c0 14 -16 22 -32 22c-22 0 -33 -12 -42 -12c-8 0 -30 27 -30 42c0 13 45 31 80 31c72 0 111 -30 111 -79c0 -53 -82 -102 -100 -102c-24 0 -54 15 -54 23c0 17 67 45 67 75zM475 700c21 0 30 -15 30 -50v-31c0 -35 -9 -50 -30 -50h-252v-145h225 c21 0 30 -15 30 -50v-31c0 -35 -9 -50 -30 -50h-225v-162h253c21 0 30 -15 30 -50v-31c0 -35 -9 -50 -30 -50h-367c-28 0 -40 12 -40 40v620c0 28 12 40 40 40h366z" />
<glyph unicode="&#x112;" horiz-adv-x="546" d="M403 869c21 0 30 -12 30 -40v-15c0 -28 -9 -40 -30 -40h-215c-21 0 -30 12 -30 40v15c0 28 9 40 30 40h215zM475 700c21 0 30 -15 30 -50v-31c0 -35 -9 -50 -30 -50h-252v-145h225c21 0 30 -15 30 -50v-31c0 -35 -9 -50 -30 -50h-225v-162h253c21 0 30 -15 30 -50v-31 c0 -35 -9 -50 -30 -50h-367c-28 0 -40 12 -40 40v620c0 28 12 40 40 40h366z" />
<glyph unicode="&#x118;" horiz-adv-x="546" d="M573 -105c14 0 22 -9 22 -28c0 -42 -44 -50 -82 -50c-107 0 -118 73 -118 102c0 17 4 59 25 81h-311c-28 0 -40 12 -40 40v620c0 28 12 40 40 40h366c21 0 30 -15 30 -50v-31c0 -35 -9 -50 -30 -50h-252v-145h225c21 0 30 -15 30 -50v-31c0 -35 -9 -50 -30 -50h-225v-162 h253c21 0 30 -15 30 -50v-31c0 -35 -9 -50 -30 -50h-3v-5c0 -15 -11 -28 -11 -57c0 -48 39 -51 62 -51c25 0 31 8 49 8z" />
<glyph unicode="&#x1ebc;" horiz-adv-x="546" d="M216 871c34 0 108 -27 141 -29c8 0 20 2 33 16c15 19 26 19 40 15l11 -3c24 -7 26 -27 20 -41c-13 -36 -52 -70 -109 -70c-34 0 -108 27 -141 29c-8 0 -21 -2 -33 -16c-15 -19 -26 -19 -40 -15l-11 3c-25 7 -26 27 -20 41c13 36 52 70 109 70zM475 700 c21 0 30 -15 30 -50v-31c0 -35 -9 -50 -30 -50h-252v-145h225c21 0 30 -15 30 -50v-31c0 -35 -9 -50 -30 -50h-225v-162h253c21 0 30 -15 30 -50v-31c0 -35 -9 -50 -30 -50h-367c-28 0 -40 12 -40 40v620c0 28 12 40 40 40h366z" />
<glyph unicode="F" horiz-adv-x="503" d="M443 700c21 0 30 -15 30 -50v-31c0 -35 -9 -50 -30 -50h-220v-146h213c21 0 30 -15 30 -50v-31c0 -35 -9 -50 -30 -50h-213v-262c0 -21 -18 -32 -60 -32h-34c-42 0 -60 11 -60 32v630c0 28 12 40 40 40h334z" />
<glyph unicode="G" horiz-adv-x="672" d="M379 708c88 0 214 -28 214 -70c0 -28 -40 -94 -65 -94c-12 0 -57 32 -152 32c-118 0 -173 -75 -173 -225s56 -228 171 -228c28 0 51 2 78 7v127h-88c-21 0 -30 15 -30 50v32c0 35 9 50 30 50h203c28 0 40 -12 40 -40v-278c0 -69 -162 -79 -233 -79 c-224 0 -329 113 -329 360c0 238 112 356 334 356z" />
<glyph unicode="&#x11e;" horiz-adv-x="672" d="M462 892c22 0 35 -10 35 -28c0 -57 -60 -112 -147 -112s-147 55 -147 112c0 18 13 28 35 28c17 0 24 -8 33 -18c13 -14 28 -31 79 -31c54 0 68 19 81 33c8 9 15 16 31 16zM379 708c88 0 214 -28 214 -70c0 -28 -40 -94 -65 -94c-12 0 -57 32 -152 32 c-118 0 -173 -75 -173 -225s56 -228 171 -228c28 0 51 2 78 7v127h-88c-21 0 -30 15 -30 50v32c0 35 9 50 30 50h203c28 0 40 -12 40 -40v-278c0 -69 -162 -79 -233 -79c-224 0 -329 113 -329 360c0 238 112 356 334 356z" />
<glyph unicode="&#x11c;" horiz-adv-x="672" d="M356 895c29 0 50 -1 61 -19l65 -102c4 -6 6 -11 6 -15c0 -7 -7 -10 -20 -10h-22c-29 0 -55 5 -68 24l-28 40l-28 -39c-15 -21 -38 -25 -67 -25h-22c-14 0 -20 3 -20 10c0 4 2 9 6 15l65 102c11 18 32 19 61 19h11zM379 708c88 0 214 -28 214 -70c0 -28 -40 -94 -65 -94 c-12 0 -57 32 -152 32c-118 0 -173 -75 -173 -225s56 -228 171 -228c28 0 51 2 78 7v127h-88c-21 0 -30 15 -30 50v32c0 35 9 50 30 50h203c28 0 40 -12 40 -40v-278c0 -69 -162 -79 -233 -79c-224 0 -329 113 -329 360c0 238 112 356 334 356z" />
<glyph unicode="&#x122;" horiz-adv-x="672" d="M379 708c88 0 214 -28 214 -70c0 -28 -40 -94 -65 -94c-12 0 -57 32 -152 32c-118 0 -173 -75 -173 -225s56 -228 171 -228c28 0 51 2 78 7v127h-88c-21 0 -30 15 -30 50v32c0 35 9 50 30 50h203c28 0 40 -12 40 -40v-278c0 -69 -162 -79 -233 -79 c-224 0 -329 113 -329 360c0 238 112 356 334 356zM367 -51c35 0 50 -19 50 -44c0 -67 -73 -145 -108 -145c-18 0 -45 6 -45 22c0 18 24 43 24 123c0 27 18 44 60 44h19z" />
<glyph unicode="&#x120;" horiz-adv-x="672" d="M350 879c42 0 60 -11 60 -32v-60c0 -21 -18 -32 -60 -32s-60 11 -60 32v60c0 21 18 32 60 32zM379 708c88 0 214 -28 214 -70c0 -28 -40 -94 -65 -94c-12 0 -57 32 -152 32c-118 0 -173 -75 -173 -225s56 -228 171 -228c28 0 51 2 78 7v127h-88c-21 0 -30 15 -30 50v32 c0 35 9 50 30 50h203c28 0 40 -12 40 -40v-278c0 -69 -162 -79 -233 -79c-224 0 -329 113 -329 360c0 238 112 356 334 356z" />
<glyph unicode="H" horiz-adv-x="733" d="M604 702c42 0 60 -11 60 -32v-640c0 -21 -18 -32 -60 -32h-35c-42 0 -60 11 -60 32v261h-270v-261c0 -21 -18 -32 -60 -32h-35c-42 0 -60 11 -60 32v640c0 21 18 32 60 32h35c42 0 60 -11 60 -32v-247h270v247c0 21 18 32 60 32h35z" />
<glyph unicode="&#x126;" horiz-adv-x="733" d="M675 571c21 0 30 -12 30 -40v-15c0 -28 -9 -40 -30 -40h-11v-446c0 -21 -18 -32 -60 -32h-35c-42 0 -60 11 -60 32v261h-270v-261c0 -21 -18 -32 -60 -32h-35c-42 0 -60 11 -60 32v446h-24c-21 0 -30 12 -30 40v15c0 28 9 40 30 40h24v99c0 21 18 32 60 32h35 c42 0 60 -11 60 -32v-99h270v99c0 21 18 32 60 32h35c42 0 60 -11 60 -32v-99h11zM509 423v53h-270v-53h270z" />
<glyph unicode="&#x124;" horiz-adv-x="733" d="M373 895c29 0 50 -1 61 -19l65 -102c4 -6 6 -11 6 -15c0 -7 -7 -10 -20 -10h-22c-29 0 -55 5 -68 24l-28 40l-28 -39c-15 -21 -38 -25 -67 -25h-22c-14 0 -20 3 -20 10c0 4 2 9 6 15l65 102c11 18 32 19 61 19h11zM604 702c42 0 60 -11 60 -32v-640 c0 -21 -18 -32 -60 -32h-35c-42 0 -60 11 -60 32v261h-270v-261c0 -21 -18 -32 -60 -32h-35c-42 0 -60 11 -60 32v640c0 21 18 32 60 32h35c42 0 60 -11 60 -32v-247h270v247c0 21 18 32 60 32h35z" />
<glyph unicode="&#x1e24;" horiz-adv-x="733" d="M604 702c42 0 60 -11 60 -32v-640c0 -21 -18 -32 -60 -32h-35c-42 0 -60 11 -60 32v261h-270v-261c0 -21 -18 -32 -60 -32h-35c-42 0 -60 11 -60 32v640c0 21 18 32 60 32h35c42 0 60 -11 60 -32v-247h270v247c0 21 18 32 60 32h35zM383 -80c42 0 60 -11 60 -32v-60 c0 -21 -18 -32 -60 -32s-60 11 -60 32v60c0 21 18 32 60 32z" />
<glyph unicode="I" horiz-adv-x="282" d="M158 703c42 0 60 -12 60 -33v-640c0 -21 -18 -33 -60 -33h-35c-42 0 -60 12 -60 33v640c0 21 18 33 60 33h35z" />
<glyph unicode="&#x132;" horiz-adv-x="684" d="M158 703c42 0 60 -12 60 -33v-640c0 -21 -18 -33 -60 -33h-35c-42 0 -60 12 -60 33v640c0 21 18 33 60 33h35zM558 703c42 0 60 -12 60 -33v-468c0 -127 -63 -210 -212 -210c-24 0 -124 3 -124 46c0 18 10 90 41 93c10 0 24 -8 56 -8c60 0 84 31 84 104v443 c0 21 18 33 60 33h35z" />
<glyph unicode="&#xcd;" horiz-adv-x="282" d="M221 911c40 0 60 -3 60 -14c0 -12 -7 -14 -104 -120c-11 -12 -28 -25 -75 -25c-24 0 -31 4 -31 15s19 36 65 117c12 21 45 27 85 27zM158 703c42 0 60 -12 60 -33v-640c0 -21 -18 -33 -60 -33h-35c-42 0 -60 12 -60 33v640c0 21 18 33 60 33h35z" />
<glyph unicode="&#x12c;" horiz-adv-x="282" d="M253 892c22 0 35 -10 35 -28c0 -57 -60 -112 -147 -112s-147 55 -147 112c0 18 13 28 35 28c17 0 24 -8 33 -18c13 -14 28 -31 79 -31c54 0 68 19 81 33c8 9 15 16 31 16zM158 703c42 0 60 -12 60 -33v-640c0 -21 -18 -33 -60 -33h-35c-42 0 -60 12 -60 33v640 c0 21 18 33 60 33h35z" />
<glyph unicode="&#xce;" horiz-adv-x="282" d="M146 895c29 0 50 -1 61 -19l65 -102c4 -6 6 -11 6 -15c0 -7 -7 -10 -20 -10h-22c-29 0 -55 5 -68 24l-28 40l-28 -39c-15 -21 -38 -25 -67 -25h-22c-14 0 -20 3 -20 10c0 4 2 9 6 15l65 102c11 18 32 19 61 19h11zM158 703c42 0 60 -12 60 -33v-640 c0 -21 -18 -33 -60 -33h-35c-42 0 -60 12 -60 33v640c0 21 18 33 60 33h35z" />
<glyph unicode="&#xcf;" horiz-adv-x="282" d="M51 879c42 0 60 -11 60 -32v-60c0 -21 -18 -32 -60 -32s-60 11 -60 32v60c0 21 18 32 60 32zM231 879c42 0 60 -11 60 -32v-60c0 -21 -18 -32 -60 -32s-60 11 -60 32v60c0 21 18 32 60 32zM158 703c42 0 60 -12 60 -33v-640c0 -21 -18 -33 -60 -33h-35 c-42 0 -60 12 -60 33v640c0 21 18 33 60 33h35z" />
<glyph unicode="&#x130;" horiz-adv-x="282" d="M141 879c42 0 60 -11 60 -32v-60c0 -21 -18 -32 -60 -32s-60 11 -60 32v60c0 21 18 32 60 32zM158 703c42 0 60 -12 60 -33v-640c0 -21 -18 -33 -60 -33h-35c-42 0 -60 12 -60 33v640c0 21 18 33 60 33h35z" />
<glyph unicode="&#x1eca;" horiz-adv-x="282" d="M158 703c42 0 60 -12 60 -33v-640c0 -21 -18 -33 -60 -33h-35c-42 0 -60 12 -60 33v640c0 21 18 33 60 33h35zM143 -80c42 0 60 -11 60 -32v-60c0 -21 -18 -32 -60 -32s-60 11 -60 32v60c0 21 18 32 60 32z" />
<glyph unicode="&#xcc;" horiz-adv-x="282" d="M67 911c40 0 73 -6 85 -27c46 -81 65 -106 65 -117s-7 -15 -31 -15c-47 0 -64 13 -75 25c-97 106 -104 108 -104 120c0 11 20 14 60 14zM158 703c42 0 60 -12 60 -33v-640c0 -21 -18 -33 -60 -33h-35c-42 0 -60 12 -60 33v640c0 21 18 33 60 33h35z" />
<glyph unicode="&#x1ec8;" horiz-adv-x="282" d="M178 845c0 14 -16 22 -32 22c-22 0 -33 -12 -42 -12c-8 0 -30 27 -30 42c0 13 45 31 80 31c72 0 111 -30 111 -79c0 -53 -82 -102 -100 -102c-24 0 -54 15 -54 23c0 17 67 45 67 75zM158 703c42 0 60 -12 60 -33v-640c0 -21 -18 -33 -60 -33h-35c-42 0 -60 12 -60 33v640 c0 21 18 33 60 33h35z" />
<glyph unicode="&#x12a;" horiz-adv-x="282" d="M248 869c21 0 30 -12 30 -40v-15c0 -28 -9 -40 -30 -40h-215c-21 0 -30 12 -30 40v15c0 28 9 40 30 40h215zM158 703c42 0 60 -12 60 -33v-640c0 -21 -18 -33 -60 -33h-35c-42 0 -60 12 -60 33v640c0 21 18 33 60 33h35z" />
<glyph unicode="&#x12e;" horiz-adv-x="282" d="M282 -105c14 0 22 -9 22 -28c0 -42 -44 -50 -82 -50c-107 0 -118 73 -118 102c0 16 4 55 22 78h-3c-42 0 -60 12 -60 33v640c0 21 18 33 60 33h35c42 0 60 -12 60 -33v-640c0 -16 -11 -27 -36 -31v-4c0 -15 -11 -28 -11 -57c0 -48 39 -51 62 -51c25 0 31 8 49 8z" />
<glyph unicode="&#x128;" horiz-adv-x="282" d="M70 871c30 0 97 -27 126 -29c8 0 18 2 30 16c14 19 24 19 36 15l10 -3c22 -7 23 -27 18 -41c-12 -36 -47 -70 -98 -70c-31 0 -97 27 -127 29c-7 0 -19 -2 -30 -16c-13 -19 -23 -19 -36 -15l-10 3c-22 7 -23 27 -17 41c11 36 46 70 98 70zM158 703c42 0 60 -12 60 -33 v-640c0 -21 -18 -33 -60 -33h-35c-42 0 -60 12 -60 33v640c0 21 18 33 60 33h35z" />
<glyph unicode="J" horiz-adv-x="402" d="M276 703c42 0 60 -12 60 -33v-468c0 -127 -63 -210 -212 -210c-24 0 -124 3 -124 46c0 18 10 90 41 93c10 0 24 -8 56 -8c60 0 84 31 84 104v443c0 21 18 33 60 33h35z" />
<glyph unicode="&#x134;" horiz-adv-x="402" d="M267 895c29 0 50 -1 61 -19l65 -102c4 -6 6 -11 6 -15c0 -7 -7 -10 -20 -10h-22c-29 0 -55 5 -68 24l-28 40l-28 -39c-15 -21 -38 -25 -67 -25h-22c-14 0 -20 3 -20 10c0 4 2 9 6 15l65 102c11 18 32 19 61 19h11zM276 703c42 0 60 -12 60 -33v-468 c0 -127 -63 -210 -212 -210c-24 0 -124 3 -124 46c0 18 10 90 41 93c10 0 24 -8 56 -8c60 0 84 31 84 104v443c0 21 18 33 60 33h35z" />
<glyph unicode="K" horiz-adv-x="576" d="M509 702c39 0 56 -6 56 -15c0 -5 -2 -12 -8 -21l-193 -296l219 -336c6 -9 8 -16 8 -21c0 -9 -17 -15 -56 -15h-58c-29 0 -52 4 -61 19l-188 304l-4 -1v-290c0 -21 -18 -32 -60 -32h-35c-42 0 -60 11 -60 32v640c0 21 18 32 60 32h35c42 0 60 -11 60 -32v-268l4 -1 l174 282c9 15 31 19 60 19h47z" />
<glyph unicode="&#x136;" horiz-adv-x="576" d="M509 702c39 0 56 -6 56 -15c0 -5 -2 -12 -8 -21l-193 -296l219 -336c6 -9 8 -16 8 -21c0 -9 -17 -15 -56 -15h-58c-29 0 -52 4 -61 19l-188 304l-4 -1v-290c0 -21 -18 -32 -60 -32h-35c-42 0 -60 11 -60 32v640c0 21 18 32 60 32h35c42 0 60 -11 60 -32v-268l4 -1 l174 282c9 15 31 19 60 19h47zM310 -51c35 0 50 -19 50 -44c0 -67 -73 -145 -108 -145c-18 0 -45 6 -45 22c0 18 24 43 24 123c0 27 18 44 60 44h19z" />
<glyph unicode="L" horiz-adv-x="484" d="M163 702c42 0 60 -11 60 -32v-539h223c21 0 30 -15 30 -50v-31c0 -35 -9 -50 -30 -50h-337c-28 0 -40 12 -40 40v630c0 21 18 32 60 32h34z" />
<glyph unicode="&#x1c7;" horiz-adv-x="718" d="M600 703c42 0 60 -12 60 -33v-628c0 -127 -63 -223 -212 -223c-24 0 -124 3 -124 46c0 18 10 90 41 93c10 0 24 -8 56 -8c60 0 84 31 84 104v616c0 21 18 33 60 33h35zM163 702c42 0 60 -11 60 -32v-539h153c21 0 30 -15 30 -50v-31c0 -35 -9 -50 -30 -50h-267 c-28 0 -40 12 -40 40v630c0 21 18 32 60 32h34z" />
<glyph unicode="&#x139;" horiz-adv-x="484" d="M230 911c40 0 60 -3 60 -14c0 -12 -7 -14 -104 -120c-11 -12 -28 -25 -75 -25c-24 0 -31 4 -31 15s19 36 65 117c12 21 45 27 85 27zM163 702c42 0 60 -11 60 -32v-539h223c21 0 30 -15 30 -50v-31c0 -35 -9 -50 -30 -50h-337c-28 0 -40 12 -40 40v630c0 21 18 32 60 32 h34z" />
<glyph unicode="&#x13d;" horiz-adv-x="484" d="M163 702c42 0 60 -11 60 -32v-539h223c21 0 30 -15 30 -50v-31c0 -35 -9 -50 -30 -50h-337c-28 0 -40 12 -40 40v630c0 21 18 32 60 32h34zM398 700c35 0 50 -19 50 -44c0 -67 -59 -143 -88 -145c-18 0 -45 6 -45 22c0 51 4 88 4 123c0 27 18 44 60 44h19z" />
<glyph unicode="&#x13b;" horiz-adv-x="484" d="M163 702c42 0 60 -11 60 -32v-539h223c21 0 30 -15 30 -50v-31c0 -35 -9 -50 -30 -50h-337c-28 0 -40 12 -40 40v630c0 21 18 32 60 32h34zM254 -51c35 0 50 -19 50 -44c0 -67 -73 -145 -108 -145c-18 0 -45 6 -45 22c0 18 24 43 24 123c0 27 18 44 60 44h19z" />
<glyph unicode="&#x13f;" horiz-adv-x="484" d="M163 702c42 0 60 -11 60 -32v-539h223c21 0 30 -15 30 -50v-31c0 -35 -9 -50 -30 -50h-337c-28 0 -40 12 -40 40v630c0 21 18 32 60 32h34zM331 429c39 0 70 -31 70 -70s-31 -70 -70 -70s-70 31 -70 70s31 70 70 70z" />
<glyph unicode="&#x1c8;" horiz-adv-x="760" d="M642 754c42 0 60 -11 60 -32v-81c0 -21 -18 -32 -60 -32h-28c-42 0 -60 11 -60 32v81c0 21 18 32 60 32h28zM163 702c42 0 60 -11 60 -32v-539h223c21 0 30 -15 30 -50v-31c0 -35 -9 -50 -30 -50h-337c-28 0 -40 12 -40 40v630c0 21 18 32 60 32h34zM642 525 c42 0 60 -11 60 -32v-543c0 -109 -63 -162 -146 -162c-79 0 -104 13 -104 52c0 23 15 69 36 69c6 0 19 -4 30 -4c26 0 36 13 36 43v545c0 21 18 32 60 32h28z" />
<glyph unicode="&#x141;" horiz-adv-x="486" d="M165 702c42 0 60 -11 60 -32v-195l87 53c6 4 11 6 15 6c7 0 11 -7 11 -20v-20c0 -21 -8 -35 -26 -46l-87 -53v-264h223c21 0 30 -15 30 -50v-31c0 -35 -9 -50 -30 -50h-337c-28 0 -40 12 -40 40v261l-19 -12c-6 -4 -11 -5 -15 -5c-8 0 -11 6 -11 20v20c0 22 8 34 26 45 l19 12v289c0 21 18 32 60 32h34z" />
<glyph unicode="M" horiz-adv-x="843" d="M714 702c42 0 60 -11 60 -32v-640c0 -21 -18 -32 -60 -32h-29c-42 0 -60 11 -60 32v414l-4 1l-145 -259c-9 -12 -21 -19 -40 -19h-29c-19 0 -31 7 -40 19l-145 259l-4 -1v-414c0 -21 -18 -32 -60 -32h-29c-42 0 -60 11 -60 32v640c0 21 18 32 60 32h53c29 0 52 -7 63 -27 l168 -299l8 -14l9 17l169 296c11 20 34 27 63 27h52z" />
<glyph unicode="N" horiz-adv-x="719" d="M590 702c42 0 60 -11 60 -32v-640c0 -21 -18 -32 -60 -32h-38c-29 0 -51 4 -66 27l-268 410v-405c0 -21 -18 -32 -60 -32h-29c-42 0 -60 11 -60 32v640c0 21 18 32 60 32h43c29 0 51 -4 66 -27l236 -364l27 -41v400c0 21 18 32 60 32h29z" />
<glyph unicode="&#x1ca;" horiz-adv-x="1121" d="M995 703c42 0 60 -12 60 -33v-468c0 -127 -63 -210 -212 -210c-24 0 -124 3 -124 46c0 18 10 90 41 93c10 0 24 -8 56 -8c60 0 84 31 84 104v443c0 21 18 33 60 33h35zM590 702c42 0 60 -11 60 -32v-640c0 -21 -18 -32 -60 -32h-38c-29 0 -51 4 -66 27l-268 410v-405 c0 -21 -18 -32 -60 -32h-29c-42 0 -60 11 -60 32v640c0 21 18 32 60 32h43c29 0 51 -4 66 -27l236 -364l27 -41v400c0 21 18 32 60 32h29z" />
<glyph unicode="&#x143;" horiz-adv-x="719" d="M440 911c40 0 60 -3 60 -14c0 -12 -7 -14 -104 -120c-11 -12 -28 -25 -75 -25c-24 0 -31 4 -31 15s19 36 65 117c12 21 45 27 85 27zM590 702c42 0 60 -11 60 -32v-640c0 -21 -18 -32 -60 -32h-38c-29 0 -51 4 -66 27l-268 410v-405c0 -21 -18 -32 -60 -32h-29 c-42 0 -60 11 -60 32v640c0 21 18 32 60 32h43c29 0 51 -4 66 -27l236 -364l27 -41v400c0 21 18 32 60 32h29z" />
<glyph unicode="&#x147;" horiz-adv-x="719" d="M478 895c13 0 20 -3 20 -10c0 -4 -2 -9 -6 -15l-65 -102c-11 -18 -32 -19 -61 -19h-11c-29 0 -50 1 -61 19l-65 102c-4 6 -6 11 -6 15c0 7 6 10 20 10h22c29 0 52 -4 67 -25l28 -39l28 40c13 19 39 24 68 24h22zM590 702c42 0 60 -11 60 -32v-640c0 -21 -18 -32 -60 -32 h-38c-29 0 -51 4 -66 27l-268 410v-405c0 -21 -18 -32 -60 -32h-29c-42 0 -60 11 -60 32v640c0 21 18 32 60 32h43c29 0 51 -4 66 -27l236 -364l27 -41v400c0 21 18 32 60 32h29z" />
<glyph unicode="&#x145;" horiz-adv-x="719" d="M590 702c42 0 60 -11 60 -32v-640c0 -21 -18 -32 -60 -32h-38c-29 0 -51 4 -66 27l-268 410v-405c0 -21 -18 -32 -60 -32h-29c-42 0 -60 11 -60 32v640c0 21 18 32 60 32h43c29 0 51 -4 66 -27l236 -364l27 -41v400c0 21 18 32 60 32h29zM372 -51c35 0 50 -19 50 -44 c0 -67 -73 -145 -108 -145c-18 0 -45 6 -45 22c0 18 24 43 24 123c0 27 18 44 60 44h19z" />
<glyph unicode="&#x1e44;" horiz-adv-x="719" d="M360 879c42 0 60 -11 60 -32v-60c0 -21 -18 -32 -60 -32s-60 11 -60 32v60c0 21 18 32 60 32zM590 702c42 0 60 -11 60 -32v-640c0 -21 -18 -32 -60 -32h-38c-29 0 -51 4 -66 27l-268 410v-405c0 -21 -18 -32 -60 -32h-29c-42 0 -60 11 -60 32v640c0 21 18 32 60 32h43 c29 0 51 -4 66 -27l236 -364l27 -41v400c0 21 18 32 60 32h29z" />
<glyph unicode="&#x14a;" horiz-adv-x="719" d="M590 702c42 0 60 -11 60 -32v-720c0 -109 -63 -162 -146 -162c-79 0 -104 13 -104 52c0 23 15 69 36 69c6 0 19 -4 30 -4c26 0 36 13 36 43v53l-259 395l-25 39v-405c0 -21 -18 -32 -60 -32h-29c-42 0 -60 11 -60 32v640c0 21 18 32 60 32h43c29 0 51 -4 66 -27l263 -405 v400c0 21 18 32 60 32h29z" />
<glyph unicode="&#x1cb;" horiz-adv-x="995" d="M877 754c42 0 60 -11 60 -32v-81c0 -21 -18 -32 -60 -32h-28c-42 0 -60 11 -60 32v81c0 21 18 32 60 32h28zM590 702c42 0 60 -11 60 -32v-640c0 -21 -18 -32 -60 -32h-38c-29 0 -51 4 -66 27l-268 410v-405c0 -21 -18 -32 -60 -32h-29c-42 0 -60 11 -60 32v640 c0 21 18 32 60 32h43c29 0 51 -4 66 -27l236 -364l27 -41v400c0 21 18 32 60 32h29zM877 525c42 0 60 -11 60 -32v-543c0 -109 -63 -162 -146 -162c-79 0 -104 13 -104 52c0 23 15 69 36 69c6 0 19 -4 30 -4c26 0 36 13 36 43v545c0 21 18 32 60 32h28z" />
<glyph unicode="&#xd1;" horiz-adv-x="719" d="M281 871c34 0 108 -27 141 -29c8 0 20 2 33 16c15 19 26 19 40 15l11 -3c24 -7 26 -27 20 -41c-13 -36 -52 -70 -109 -70c-34 0 -108 27 -141 29c-8 0 -21 -2 -33 -16c-15 -19 -26 -19 -40 -15l-11 3c-25 7 -26 27 -20 41c13 36 52 70 109 70zM590 702 c42 0 60 -11 60 -32v-640c0 -21 -18 -32 -60 -32h-38c-29 0 -51 4 -66 27l-268 410v-405c0 -21 -18 -32 -60 -32h-29c-42 0 -60 11 -60 32v640c0 21 18 32 60 32h43c29 0 51 -4 66 -27l236 -364l27 -41v400c0 21 18 32 60 32h29z" />
<glyph unicode="O" horiz-adv-x="731" d="M366 708c206 0 320 -127 320 -358s-114 -358 -320 -358s-321 127 -321 358s115 358 321 358zM366 576c-107 0 -163 -79 -163 -226s56 -227 163 -227s162 80 162 227s-55 226 -162 226z" />
<glyph unicode="&#xd3;" horiz-adv-x="731" d="M446 911c40 0 60 -3 60 -14c0 -12 -7 -14 -104 -120c-11 -12 -28 -25 -75 -25c-24 0 -31 4 -31 15s19 36 65 117c12 21 45 27 85 27zM366 708c206 0 320 -127 320 -358s-114 -358 -320 -358s-321 127 -321 358s115 358 321 358zM366 576c-107 0 -163 -79 -163 -226 s56 -227 163 -227s162 80 162 227s-55 226 -162 226z" />
<glyph unicode="&#x14e;" horiz-adv-x="731" d="M478 892c22 0 35 -10 35 -28c0 -57 -60 -112 -147 -112s-147 55 -147 112c0 18 13 28 35 28c17 0 24 -8 33 -18c13 -14 28 -31 79 -31c54 0 68 19 81 33c8 9 15 16 31 16zM366 708c206 0 320 -127 320 -358s-114 -358 -320 -358s-321 127 -321 358s115 358 321 358z M366 576c-107 0 -163 -79 -163 -226s56 -227 163 -227s162 80 162 227s-55 226 -162 226z" />
<glyph unicode="&#xd4;" horiz-adv-x="731" d="M372 895c29 0 50 -1 61 -19l65 -102c4 -6 6 -11 6 -15c0 -7 -7 -10 -20 -10h-22c-29 0 -55 5 -68 24l-28 40l-28 -39c-15 -21 -38 -25 -67 -25h-22c-14 0 -20 3 -20 10c0 4 2 9 6 15l65 102c11 18 32 19 61 19h11zM366 708c206 0 320 -127 320 -358s-114 -358 -320 -358 s-321 127 -321 358s115 358 321 358zM366 576c-107 0 -163 -79 -163 -226s56 -227 163 -227s162 80 162 227s-55 226 -162 226z" />
<glyph unicode="&#x1ed0;" horiz-adv-x="731" d="M569 964c26 0 40 -5 40 -24c0 -10 -13 -26 -74 -100c-8 -8 -20 -15 -55 -15c-16 0 -21 4 -21 15c0 9 10 30 35 97c11 21 40 27 75 27zM372 895c24 0 41 -1 51 -19l60 -102c4 -6 6 -11 6 -15c0 -7 -7 -10 -20 -10h-22c-29 0 -61 3 -68 24l-13 40l-28 -39 c-15 -21 -38 -25 -67 -25h-22c-14 0 -20 3 -20 10c0 4 2 9 6 15l65 102c11 18 32 19 61 19h11zM366 708c206 0 320 -127 320 -358s-114 -358 -320 -358s-321 127 -321 358s115 358 321 358zM366 576c-107 0 -163 -79 -163 -226s56 -227 163 -227s162 80 162 227 s-55 226 -162 226z" />
<glyph unicode="&#x1ed8;" horiz-adv-x="731" d="M372 895c29 0 50 -1 61 -19l65 -102c4 -6 6 -11 6 -15c0 -7 -7 -10 -20 -10h-22c-29 0 -55 5 -68 24l-28 40l-28 -39c-15 -21 -38 -25 -67 -25h-22c-14 0 -20 3 -20 10c0 4 2 9 6 15l65 102c11 18 32 19 61 19h11zM366 708c206 0 320 -127 320 -358s-114 -358 -320 -358 s-321 127 -321 358s115 358 321 358zM366 576c-107 0 -163 -79 -163 -226s56 -227 163 -227s162 80 162 227s-55 226 -162 226zM369 -80c42 0 60 -11 60 -32v-60c0 -21 -18 -32 -60 -32s-60 11 -60 32v60c0 21 18 32 60 32z" />
<glyph unicode="&#x1ed2;" horiz-adv-x="731" d="M433 963c40 0 76 -6 85 -27c26 -65 33 -88 33 -97c0 -11 -7 -15 -31 -15c-38 0 -52 13 -62 25c-68 88 -72 90 -72 100c0 11 17 14 47 14zM372 895c24 0 41 -1 51 -19l60 -102c4 -6 6 -11 6 -15c0 -7 -7 -10 -20 -10h-22c-29 0 -61 3 -68 24l-13 40l-28 -39 c-15 -21 -38 -25 -67 -25h-22c-14 0 -20 3 -20 10c0 4 2 9 6 15l65 102c11 18 32 19 61 19h11zM366 708c206 0 320 -127 320 -358s-114 -358 -320 -358s-321 127 -321 358s115 358 321 358zM366 576c-107 0 -163 -79 -163 -226s56 -227 163 -227s162 80 162 227 s-55 226 -162 226z" />
<glyph unicode="&#x1ed4;" horiz-adv-x="731" d="M510 895c0 11 -11 17 -21 17c-33 0 -44 -17 -53 -17c-8 0 -30 27 -30 42c0 13 45 28 80 28c58 0 93 -26 93 -66c0 -16 -6 -31 -26 -47c-10 -8 -32 -22 -49 -22c-27 0 -44 10 -44 21c0 4 9 11 19 16c19 9 31 14 31 28zM372 895c24 0 41 -1 51 -19l60 -102 c4 -6 6 -11 6 -15c0 -7 -7 -10 -20 -10h-22c-29 0 -61 3 -68 24l-13 40l-28 -39c-15 -21 -38 -25 -67 -25h-22c-14 0 -20 3 -20 10c0 4 2 9 6 15l65 102c11 18 32 19 61 19h11zM366 708c206 0 320 -127 320 -358s-114 -358 -320 -358s-321 127 -321 358s115 358 321 358z M366 576c-107 0 -163 -79 -163 -226s56 -227 163 -227s162 80 162 227s-55 226 -162 226z" />
<glyph unicode="&#x1ed6;" horiz-adv-x="731" d="M299 1016c31 0 98 -27 128 -29c8 0 19 2 30 16c14 19 24 19 37 15l10 -3c22 -7 23 -27 18 -41c-12 -36 -47 -70 -99 -70c-31 0 -98 27 -128 29c-8 0 -19 -2 -30 -16c-14 -19 -24 -19 -37 -15l-10 3c-22 7 -23 27 -18 41c12 36 47 70 99 70zM372 871c29 0 46 -3 61 -19 l65 -78c4 -6 6 -11 6 -15c0 -7 -7 -10 -20 -10h-22c-29 0 -47 11 -68 24l-28 27l-28 -26c-24 -14 -38 -25 -67 -25h-22c-14 0 -20 3 -20 10c0 4 2 9 6 15l65 78c15 16 32 19 61 19h11zM366 708c206 0 320 -127 320 -358s-114 -358 -320 -358s-321 127 -321 358 s115 358 321 358zM366 576c-107 0 -163 -79 -163 -226s56 -227 163 -227s162 80 162 227s-55 226 -162 226z" />
<glyph unicode="&#xd6;" horiz-adv-x="731" d="M276 879c42 0 60 -11 60 -32v-60c0 -21 -18 -32 -60 -32s-60 11 -60 32v60c0 21 18 32 60 32zM456 879c42 0 60 -11 60 -32v-60c0 -21 -18 -32 -60 -32s-60 11 -60 32v60c0 21 18 32 60 32zM366 708c206 0 320 -127 320 -358s-114 -358 -320 -358s-321 127 -321 358 s115 358 321 358zM366 576c-107 0 -163 -79 -163 -226s56 -227 163 -227s162 80 162 227s-55 226 -162 226z" />
<glyph unicode="&#x1ecc;" horiz-adv-x="731" d="M366 708c206 0 320 -127 320 -358s-114 -358 -320 -358s-321 127 -321 358s115 358 321 358zM366 576c-107 0 -163 -79 -163 -226s56 -227 163 -227s162 80 162 227s-55 226 -162 226zM369 -80c42 0 60 -11 60 -32v-60c0 -21 -18 -32 -60 -32s-60 11 -60 32v60 c0 21 18 32 60 32z" />
<glyph unicode="&#xd2;" horiz-adv-x="731" d="M292 911c40 0 73 -6 85 -27c46 -81 65 -106 65 -117s-7 -15 -31 -15c-47 0 -64 13 -75 25c-97 106 -104 108 -104 120c0 11 20 14 60 14zM366 708c206 0 320 -127 320 -358s-114 -358 -320 -358s-321 127 -321 358s115 358 321 358zM366 576c-107 0 -163 -79 -163 -226 s56 -227 163 -227s162 80 162 227s-55 226 -162 226z" />
<glyph unicode="&#x1ece;" horiz-adv-x="731" d="M403 845c0 14 -16 22 -32 22c-22 0 -33 -12 -42 -12c-8 0 -30 27 -30 42c0 13 45 31 80 31c72 0 111 -30 111 -79c0 -53 -82 -102 -100 -102c-24 0 -54 15 -54 23c0 17 67 45 67 75zM366 708c206 0 320 -127 320 -358s-114 -358 -320 -358s-321 127 -321 358 s115 358 321 358zM366 576c-107 0 -163 -79 -163 -226s56 -227 163 -227s162 80 162 227s-55 226 -162 226z" />
<glyph unicode="&#x1a0;" horiz-adv-x="731" d="M575 643c72 -59 111 -159 111 -293c0 -231 -114 -358 -320 -358s-321 127 -321 358s115 358 321 358c54 0 102 -9 143 -26h23c34 0 47 13 47 36c0 22 -26 39 -26 52c0 7 3 14 11 19l32 22c5 4 10 5 16 5c26 0 47 -53 47 -83c0 -46 -26 -79 -84 -90zM366 123 c107 0 162 80 162 227s-55 226 -162 226s-163 -79 -163 -226s56 -227 163 -227z" />
<glyph unicode="&#x1eda;" horiz-adv-x="731" d="M346 754c-24 0 -31 4 -31 15s19 36 65 117c12 21 45 27 85 27s60 -3 60 -14c0 -12 -7 -14 -104 -120c-11 -12 -28 -25 -75 -25zM575 643c72 -59 111 -159 111 -293c0 -231 -114 -358 -320 -358s-321 127 -321 358s115 358 321 358c54 0 102 -9 143 -26h23 c34 0 47 13 47 36c0 22 -26 39 -26 52c0 7 3 14 11 19l32 22c5 4 10 5 16 5c26 0 47 -53 47 -83c0 -46 -26 -79 -84 -90zM366 123c107 0 162 80 162 227s-55 226 -162 226s-163 -79 -163 -226s56 -227 163 -227z" />
<glyph unicode="&#x1ee2;" horiz-adv-x="731" d="M575 643c72 -59 111 -159 111 -293c0 -231 -114 -358 -320 -358s-321 127 -321 358s115 358 321 358c54 0 102 -9 143 -26h23c34 0 47 13 47 36c0 22 -26 39 -26 52c0 7 3 14 11 19l32 22c5 4 10 5 16 5c26 0 47 -53 47 -83c0 -46 -26 -79 -84 -90zM366 123 c107 0 162 80 162 227s-55 226 -162 226s-163 -79 -163 -226s56 -227 163 -227zM369 -80c42 0 60 -11 60 -32v-60c0 -21 -18 -32 -60 -32s-60 11 -60 32v60c0 21 18 32 60 32z" />
<glyph unicode="&#x1edc;" horiz-adv-x="731" d="M430 754c-47 0 -64 13 -75 25c-97 106 -104 108 -104 120c0 11 20 14 60 14s73 -6 85 -27c46 -81 65 -106 65 -117s-7 -15 -31 -15zM575 643c72 -59 111 -159 111 -293c0 -231 -114 -358 -320 -358s-321 127 -321 358s115 358 321 358c54 0 102 -9 143 -26h23 c34 0 47 13 47 36c0 22 -26 39 -26 52c0 7 3 14 11 19l32 22c5 4 10 5 16 5c26 0 47 -53 47 -83c0 -46 -26 -79 -84 -90zM366 123c107 0 162 80 162 227s-55 226 -162 226s-163 -79 -163 -226s56 -227 163 -227z" />
<glyph unicode="&#x1ede;" horiz-adv-x="731" d="M348 857c-8 0 -30 27 -30 42c0 13 45 31 80 31c72 0 111 -30 111 -79c0 -53 -82 -102 -100 -102c-24 0 -54 15 -54 23c0 17 67 45 67 75c0 14 -16 22 -32 22c-22 0 -33 -12 -42 -12zM575 643c72 -59 111 -159 111 -293c0 -231 -114 -358 -320 -358s-321 127 -321 358 s115 358 321 358c54 0 102 -9 143 -26h23c34 0 47 13 47 36c0 22 -26 39 -26 52c0 7 3 14 11 19l32 22c5 4 10 5 16 5c26 0 47 -53 47 -83c0 -46 -26 -79 -84 -90zM366 123c107 0 162 80 162 227s-55 226 -162 226s-163 -79 -163 -226s56 -227 163 -227z" />
<glyph unicode="&#x1ee0;" horiz-adv-x="731" d="M233 762c-22 7 -23 27 -17 41c11 36 46 70 98 70c30 0 97 -27 126 -29c8 0 18 2 30 16c14 19 24 19 36 15l10 -3c22 -7 23 -27 18 -41c-12 -36 -47 -70 -98 -70c-31 0 -97 27 -127 29c-7 0 -19 -2 -30 -16c-13 -19 -23 -19 -36 -15zM575 643c72 -59 111 -159 111 -293 c0 -231 -114 -358 -320 -358s-321 127 -321 358s115 358 321 358c54 0 102 -9 143 -26h23c34 0 47 13 47 36c0 22 -26 39 -26 52c0 7 3 14 11 19l32 22c5 4 10 5 16 5c26 0 47 -53 47 -83c0 -46 -26 -79 -84 -90zM366 123c107 0 162 80 162 227s-55 226 -162 226 s-163 -79 -163 -226s56 -227 163 -227z" />
<glyph unicode="&#x150;" horiz-adv-x="731" d="M362 911c40 0 60 -3 60 -14c0 -12 -7 -14 -104 -120c-11 -12 -28 -25 -75 -25c-24 0 -31 4 -31 15s19 36 65 117c12 21 45 27 85 27zM545 911c40 0 60 -3 60 -14c0 -12 -7 -14 -104 -120c-11 -12 -28 -25 -75 -25c-24 0 -31 4 -31 15s19 36 65 117c12 21 45 27 85 27z M366 708c206 0 320 -127 320 -358s-114 -358 -320 -358s-321 127 -321 358s115 358 321 358zM366 576c-107 0 -163 -79 -163 -226s56 -227 163 -227s162 80 162 227s-55 226 -162 226z" />
<glyph unicode="&#x14c;" horiz-adv-x="731" d="M474 869c21 0 30 -12 30 -40v-15c0 -28 -9 -40 -30 -40h-215c-21 0 -30 12 -30 40v15c0 28 9 40 30 40h215zM366 708c206 0 320 -127 320 -358s-114 -358 -320 -358s-321 127 -321 358s115 358 321 358zM366 576c-107 0 -163 -79 -163 -226s56 -227 163 -227 s162 80 162 227s-55 226 -162 226z" />
<glyph unicode="&#x1ea;" horiz-adv-x="731" d="M686 350c0 -200 -86 -323 -243 -351v-4c0 -15 -11 -28 -11 -57c0 -48 39 -51 62 -51c25 0 31 8 49 8c14 0 22 -9 22 -28c0 -42 -44 -50 -82 -50c-107 0 -118 73 -118 102c0 15 3 50 19 73h-18c-206 0 -321 127 -321 358s115 358 321 358s320 -127 320 -358zM366 123 c107 0 162 80 162 227s-55 226 -162 226s-163 -79 -163 -226s56 -227 163 -227z" />
<glyph unicode="&#xd8;" horiz-adv-x="731" d="M366 708c78 0 144 -19 194 -55l52 59c7 8 14 12 22 12c17 0 48 -28 48 -46c0 -6 -3 -13 -10 -20l-54 -61c44 -60 68 -143 68 -247c0 -231 -114 -358 -320 -358c-92 0 -166 25 -219 74l-58 -66c-7 -8 -15 -12 -22 -12c-16 0 -48 27 -48 46c0 6 3 13 10 20l66 75 c-33 57 -50 131 -50 221c0 231 115 358 321 358zM366 576c-107 0 -163 -79 -163 -226c0 -34 3 -63 8 -90l252 284c-25 21 -58 32 -97 32zM509 474l-262 -296c27 -36 67 -55 119 -55c107 0 162 80 162 227c0 49 -7 91 -19 124z" />
<glyph unicode="&#x1fe;" horiz-adv-x="731" d="M446 911c40 0 60 -3 60 -14c0 -12 -7 -14 -104 -120c-11 -12 -28 -25 -75 -25c-24 0 -31 4 -31 15s19 36 65 117c12 21 45 27 85 27zM366 708c78 0 144 -19 194 -55l52 59c7 8 14 12 22 12c17 0 48 -28 48 -46c0 -6 -3 -13 -10 -20l-54 -61c44 -60 68 -143 68 -247 c0 -231 -114 -358 -320 -358c-92 0 -166 25 -219 74l-58 -66c-7 -8 -15 -12 -22 -12c-16 0 -48 27 -48 46c0 6 3 13 10 20l66 75c-33 57 -50 131 -50 221c0 231 115 358 321 358zM366 576c-107 0 -163 -79 -163 -226c0 -34 3 -63 8 -90l252 284c-25 21 -58 32 -97 32z M509 474l-262 -296c27 -36 67 -55 119 -55c107 0 162 80 162 227c0 49 -7 91 -19 124z" />
<glyph unicode="&#xd5;" horiz-adv-x="731" d="M287 871c34 0 108 -27 141 -29c8 0 20 2 33 16c15 19 26 19 40 15l11 -3c24 -7 26 -27 20 -41c-13 -36 -52 -70 -109 -70c-34 0 -108 27 -141 29c-8 0 -21 -2 -33 -16c-15 -19 -26 -19 -40 -15l-11 3c-25 7 -26 27 -20 41c13 36 52 70 109 70zM366 708 c206 0 320 -127 320 -358s-114 -358 -320 -358s-321 127 -321 358s115 358 321 358zM366 576c-107 0 -163 -79 -163 -226s56 -227 163 -227s162 80 162 227s-55 226 -162 226z" />
<glyph unicode="&#x152;" horiz-adv-x="1021" d="M937 131c21 0 30 -15 30 -50v-31c0 -35 -9 -50 -30 -50h-367c-27 0 -39 11 -40 37c-49 -30 -107 -45 -174 -45c-200 0 -311 127 -311 358s111 358 311 358c68 0 125 -15 174 -46c0 26 12 38 40 38h366c21 0 30 -15 30 -50v-31c0 -35 -9 -50 -30 -50h-252v-145h225 c21 0 30 -15 30 -50v-31c0 -35 -9 -50 -30 -50h-225v-162h253zM366 123c107 0 162 80 162 227s-55 226 -162 226s-163 -79 -163 -226s56 -227 163 -227z" />
<glyph unicode="P" horiz-adv-x="570" d="M319 700c89 0 238 -26 238 -219s-174 -219 -228 -219h-106v-232c0 -21 -18 -32 -60 -32h-34c-42 0 -60 11 -60 32v630c0 28 12 40 40 40h210zM312 569h-89v-175h89c38 0 87 15 87 87s-49 88 -87 88z" />
<glyph unicode="&#xde;" horiz-adv-x="567" d="M162 702c42 0 60 -11 60 -32v-77h103c89 0 238 -26 238 -219s-174 -219 -228 -219h-113v-125c0 -21 -18 -32 -60 -32h-34c-42 0 -60 11 -60 32v640c0 21 18 32 60 32h34zM318 462h-96v-175h96c38 0 87 15 87 87s-49 88 -87 88z" />
<glyph unicode="Q" horiz-adv-x="731" d="M366 708c206 0 320 -127 320 -358c0 -158 -56 -267 -157 -319v-4l153 -55c9 -3 14 -9 14 -16c0 -16 -23 -102 -55 -102c-10 0 -7 1 -414 162c-118 46 -182 161 -182 334c0 231 115 358 321 358zM366 576c-107 0 -163 -79 -163 -226c0 -150 56 -231 163 -231 s162 81 162 231c0 147 -55 226 -162 226z" />
<glyph unicode="R" horiz-adv-x="610" d="M304 700c173 0 249 -68 249 -188c0 -77 -48 -133 -117 -159v-4c25 -10 55 -49 72 -92l88 -220c3 -8 5 -14 5 -19c0 -12 -19 -20 -60 -20h-41c-29 0 -52 5 -58 21l-79 195c-20 40 -36 60 -101 60h-39v-244c0 -21 -18 -32 -60 -32h-34c-42 0 -60 11 -60 32v630 c0 28 12 40 40 40h195zM311 569h-88v-162h95c41 0 77 38 77 86c0 46 -32 76 -84 76z" />
<glyph unicode="&#x154;" horiz-adv-x="610" d="M385 911c40 0 60 -3 60 -14c0 -12 -7 -14 -104 -120c-11 -12 -28 -25 -75 -25c-24 0 -31 4 -31 15s19 36 65 117c12 21 45 27 85 27zM304 700c173 0 249 -68 249 -188c0 -77 -48 -133 -117 -159v-4c25 -10 55 -49 72 -92l88 -220c3 -8 5 -14 5 -19c0 -12 -19 -20 -60 -20 h-41c-29 0 -52 5 -58 21l-79 195c-20 40 -36 60 -101 60h-39v-244c0 -21 -18 -32 -60 -32h-34c-42 0 -60 11 -60 32v630c0 28 12 40 40 40h195zM311 569h-88v-162h95c41 0 77 38 77 86c0 46 -32 76 -84 76z" />
<glyph unicode="&#x158;" horiz-adv-x="610" d="M423 895c13 0 20 -3 20 -10c0 -4 -2 -9 -6 -15l-65 -102c-11 -18 -32 -19 -61 -19h-11c-29 0 -50 1 -61 19l-65 102c-4 6 -6 11 -6 15c0 7 6 10 20 10h22c29 0 52 -4 67 -25l28 -39l28 40c13 19 39 24 68 24h22zM304 700c173 0 249 -68 249 -188 c0 -77 -48 -133 -117 -159v-4c25 -10 55 -49 72 -92l88 -220c3 -8 5 -14 5 -19c0 -12 -19 -20 -60 -20h-41c-29 0 -52 5 -58 21l-79 195c-20 40 -36 60 -101 60h-39v-244c0 -21 -18 -32 -60 -32h-34c-42 0 -60 11 -60 32v630c0 28 12 40 40 40h195zM311 569h-88v-162h95 c41 0 77 38 77 86c0 46 -32 76 -84 76z" />
<glyph unicode="&#x156;" horiz-adv-x="610" d="M304 700c173 0 249 -68 249 -188c0 -77 -48 -133 -117 -159v-4c25 -10 55 -49 72 -92l88 -220c3 -8 5 -14 5 -19c0 -12 -19 -20 -60 -20h-41c-29 0 -52 5 -58 21l-79 195c-20 40 -36 60 -101 60h-39v-244c0 -21 -18 -32 -60 -32h-34c-42 0 -60 11 -60 32v630 c0 28 12 40 40 40h195zM311 569h-88v-162h95c41 0 77 38 77 86c0 46 -32 76 -84 76zM317 -51c35 0 50 -19 50 -44c0 -67 -73 -145 -108 -145c-18 0 -45 6 -45 22c0 18 24 43 24 123c0 27 18 44 60 44h19z" />
<glyph unicode="&#x1e5a;" horiz-adv-x="610" d="M304 700c173 0 249 -68 249 -188c0 -77 -48 -133 -117 -159v-4c25 -10 55 -49 72 -92l88 -220c3 -8 5 -14 5 -19c0 -12 -19 -20 -60 -20h-41c-29 0 -52 5 -58 21l-79 195c-20 40 -36 60 -101 60h-39v-244c0 -21 -18 -32 -60 -32h-34c-42 0 -60 11 -60 32v630 c0 28 12 40 40 40h195zM311 569h-88v-162h95c41 0 77 38 77 86c0 46 -32 76 -84 76zM307 -80c42 0 60 -11 60 -32v-60c0 -21 -18 -32 -60 -32s-60 11 -60 32v60c0 21 18 32 60 32z" />
<glyph unicode="S" horiz-adv-x="500" d="M273 708c106 0 180 -37 180 -70c0 -27 -31 -87 -55 -87c-13 0 -44 25 -111 25c-78 0 -93 -33 -93 -56c0 -55 49 -75 107 -98c82 -34 182 -75 182 -211c0 -163 -117 -219 -226 -219c-152 0 -235 54 -235 88c0 31 41 89 62 89c18 0 67 -46 147 -46c43 0 94 13 94 70 c0 60 -79 77 -154 112c-69 33 -135 81 -135 201c0 144 120 202 237 202z" />
<glyph unicode="&#x15a;" horiz-adv-x="500" d="M330 911c40 0 60 -3 60 -14c0 -12 -7 -14 -104 -120c-11 -12 -28 -25 -75 -25c-24 0 -31 4 -31 15s19 36 65 117c12 21 45 27 85 27zM273 708c106 0 180 -37 180 -70c0 -27 -31 -87 -55 -87c-13 0 -44 25 -111 25c-78 0 -93 -33 -93 -56c0 -55 49 -75 107 -98 c82 -34 182 -75 182 -211c0 -163 -117 -219 -226 -219c-152 0 -235 54 -235 88c0 31 41 89 62 89c18 0 67 -46 147 -46c43 0 94 13 94 70c0 60 -79 77 -154 112c-69 33 -135 81 -135 201c0 144 120 202 237 202z" />
<glyph unicode="&#x160;" horiz-adv-x="500" d="M368 895c13 0 20 -3 20 -10c0 -4 -2 -9 -6 -15l-65 -102c-11 -18 -32 -19 -61 -19h-11c-29 0 -50 1 -61 19l-65 102c-4 6 -6 11 -6 15c0 7 6 10 20 10h22c29 0 52 -4 67 -25l28 -39l28 40c13 19 39 24 68 24h22zM273 708c106 0 180 -37 180 -70c0 -27 -31 -87 -55 -87 c-13 0 -44 25 -111 25c-78 0 -93 -33 -93 -56c0 -55 49 -75 107 -98c82 -34 182 -75 182 -211c0 -163 -117 -219 -226 -219c-152 0 -235 54 -235 88c0 31 41 89 62 89c18 0 67 -46 147 -46c43 0 94 13 94 70c0 60 -79 77 -154 112c-69 33 -135 81 -135 201 c0 144 120 202 237 202z" />
<glyph unicode="&#x15e;" horiz-adv-x="500" d="M483 211c0 -151 -100 -210 -202 -218l-7 -29c35 -5 77 -25 77 -76c0 -68 -40 -100 -119 -100c-56 0 -131 18 -131 50c0 34 25 44 32 44c23 0 49 -21 91 -21c18 0 24 6 24 17c0 25 -53 24 -53 48c0 4 1 9 20 67c-125 9 -193 56 -193 87s41 89 62 89c18 0 67 -46 147 -46 c43 0 94 13 94 70c0 60 -79 77 -154 112c-69 33 -135 81 -135 201c0 144 120 202 237 202c106 0 180 -37 180 -70c0 -27 -31 -87 -55 -87c-13 0 -44 25 -111 25c-78 0 -93 -33 -93 -56c0 -55 49 -75 107 -98c82 -34 182 -75 182 -211z" />
<glyph unicode="&#x15c;" horiz-adv-x="500" d="M256 895c29 0 50 -1 61 -19l65 -102c4 -6 6 -11 6 -15c0 -7 -7 -10 -20 -10h-22c-29 0 -55 5 -68 24l-28 40l-28 -39c-15 -21 -38 -25 -67 -25h-22c-14 0 -20 3 -20 10c0 4 2 9 6 15l65 102c11 18 32 19 61 19h11zM273 708c106 0 180 -37 180 -70c0 -27 -31 -87 -55 -87 c-13 0 -44 25 -111 25c-78 0 -93 -33 -93 -56c0 -55 49 -75 107 -98c82 -34 182 -75 182 -211c0 -163 -117 -219 -226 -219c-152 0 -235 54 -235 88c0 31 41 89 62 89c18 0 67 -46 147 -46c43 0 94 13 94 70c0 60 -79 77 -154 112c-69 33 -135 81 -135 201 c0 144 120 202 237 202z" />
<glyph unicode="&#x218;" horiz-adv-x="500" d="M273 708c106 0 180 -37 180 -70c0 -27 -31 -87 -55 -87c-13 0 -44 25 -111 25c-78 0 -93 -33 -93 -56c0 -55 49 -75 107 -98c82 -34 182 -75 182 -211c0 -163 -117 -219 -226 -219c-152 0 -235 54 -235 88c0 31 41 89 62 89c18 0 67 -46 147 -46c43 0 94 13 94 70 c0 60 -79 77 -154 112c-69 33 -135 81 -135 201c0 144 120 202 237 202zM262 -51c35 0 50 -19 50 -44c0 -67 -73 -145 -108 -145c-18 0 -45 6 -45 22c0 18 24 43 24 123c0 27 18 44 60 44h19z" />
<glyph unicode="&#x1e62;" horiz-adv-x="500" d="M273 708c106 0 180 -37 180 -70c0 -27 -31 -87 -55 -87c-13 0 -44 25 -111 25c-78 0 -93 -33 -93 -56c0 -55 49 -75 107 -98c82 -34 182 -75 182 -211c0 -163 -117 -219 -226 -219c-152 0 -235 54 -235 88c0 31 41 89 62 89c18 0 67 -46 147 -46c43 0 94 13 94 70 c0 60 -79 77 -154 112c-69 33 -135 81 -135 201c0 144 120 202 237 202zM252 -80c42 0 60 -11 60 -32v-60c0 -21 -18 -32 -60 -32s-60 11 -60 32v60c0 21 18 32 60 32z" />
<glyph unicode="&#x1e9e;" horiz-adv-x="700" d="M522 410c76 -30 153 -76 153 -206c0 -133 -89 -212 -216 -212c-65 0 -187 20 -187 82c0 19 26 76 49 76c15 0 52 -41 115 -41c53 0 89 35 89 97c0 66 -38 102 -107 102h-27c-17 0 -39 62 -39 89c0 4 1 8 2 10l99 164c-29 3 -64 5 -106 5c-86 0 -126 -52 -126 -145v-401 c0 -21 -18 -32 -60 -32h-35c-42 0 -60 11 -60 32v402c0 182 97 276 284 276c86 0 182 -8 248 -18c16 -2 37 -66 37 -92c0 -4 0 -6 -1 -8z" />
<glyph unicode="&#x18f;" horiz-adv-x="672" d="M304 -1c-192 0 -266 149 -266 318c0 17 38 59 51 59h355c-11 168 -66 215 -155 215c-93 0 -161 -51 -181 -51c-22 0 -52 56 -52 76c0 64 166 92 240 92c209 0 301 -149 301 -376c0 -239 -120 -333 -293 -333zM304 116c67 0 123 36 140 161h-262c0 -94 37 -161 122 -161z " />
<glyph unicode="T" horiz-adv-x="549" d="M511 700c21 0 30 -15 30 -50v-31c0 -35 -9 -50 -30 -50h-159v-539c0 -21 -18 -32 -60 -32h-35c-42 0 -60 11 -60 32v539h-159c-21 0 -30 15 -30 50v31c0 35 9 50 30 50h473z" />
<glyph unicode="&#x166;" horiz-adv-x="549" d="M511 700c21 0 30 -15 30 -50v-31c0 -35 -9 -50 -30 -50h-159v-171h104c21 0 30 -12 30 -40v-15c0 -28 -9 -40 -30 -40h-104v-273c0 -21 -18 -32 -60 -32h-35c-42 0 -60 11 -60 32v273h-96c-21 0 -30 12 -30 40v15c0 28 9 40 30 40h96v171h-159c-21 0 -30 15 -30 50v31 c0 35 9 50 30 50h473z" />
<glyph unicode="&#x164;" horiz-adv-x="549" d="M393 895c13 0 20 -3 20 -10c0 -4 -2 -9 -6 -15l-65 -102c-11 -18 -32 -19 -61 -19h-11c-29 0 -50 1 -61 19l-65 102c-4 6 -6 11 -6 15c0 7 6 10 20 10h22c29 0 52 -4 67 -25l28 -39l28 40c13 19 39 24 68 24h22zM511 700c21 0 30 -15 30 -50v-31c0 -35 -9 -50 -30 -50 h-159v-539c0 -21 -18 -32 -60 -32h-35c-42 0 -60 11 -60 32v539h-159c-21 0 -30 15 -30 50v31c0 35 9 50 30 50h473z" />
<glyph unicode="&#x162;" horiz-adv-x="549" d="M511 700c21 0 30 -15 30 -50v-31c0 -35 -9 -50 -30 -50h-159v-539c0 -18 -13 -29 -44 -31l-9 -35c35 -5 77 -25 77 -76c0 -68 -40 -100 -119 -100c-56 0 -131 18 -131 50c0 34 25 44 32 44c23 0 49 -21 91 -21c18 0 24 6 24 17c0 25 -53 24 -53 48c0 4 1 9 21 73 c-31 2 -44 13 -44 31v539h-159c-21 0 -30 15 -30 50v31c0 35 9 50 30 50h473z" />
<glyph unicode="&#x21a;" horiz-adv-x="549" d="M511 700c21 0 30 -15 30 -50v-31c0 -35 -9 -50 -30 -50h-159v-539c0 -21 -18 -32 -60 -32h-35c-42 0 -60 11 -60 32v539h-159c-21 0 -30 15 -30 50v31c0 35 9 50 30 50h473zM287 -51c35 0 50 -19 50 -44c0 -67 -73 -145 -108 -145c-18 0 -45 6 -45 22c0 18 24 43 24 123 c0 27 18 44 60 44h19z" />
<glyph unicode="&#x1e6c;" horiz-adv-x="549" d="M511 700c21 0 30 -15 30 -50v-31c0 -35 -9 -50 -30 -50h-159v-539c0 -21 -18 -32 -60 -32h-35c-42 0 -60 11 -60 32v539h-159c-21 0 -30 15 -30 50v31c0 35 9 50 30 50h473zM277 -80c42 0 60 -11 60 -32v-60c0 -21 -18 -32 -60 -32s-60 11 -60 32v60c0 21 18 32 60 32z " />
<glyph unicode="U" horiz-adv-x="712" d="M586 702c42 0 60 -11 60 -32v-436c0 -154 -107 -242 -290 -242s-290 88 -290 242v436c0 21 18 32 60 32h34c42 0 60 -11 60 -32v-426c0 -70 55 -121 136 -121s137 51 137 121v426c0 21 18 32 60 32h33z" />
<glyph unicode="&#xda;" horiz-adv-x="712" d="M436 911c40 0 60 -3 60 -14c0 -12 -7 -14 -104 -120c-11 -12 -28 -25 -75 -25c-24 0 -31 4 -31 15s19 36 65 117c12 21 45 27 85 27zM586 702c42 0 60 -11 60 -32v-436c0 -154 -107 -242 -290 -242s-290 88 -290 242v436c0 21 18 32 60 32h34c42 0 60 -11 60 -32v-426 c0 -70 55 -121 136 -121s137 51 137 121v426c0 21 18 32 60 32h33z" />
<glyph unicode="&#x16c;" horiz-adv-x="712" d="M468 892c22 0 35 -10 35 -28c0 -57 -60 -112 -147 -112s-147 55 -147 112c0 18 13 28 35 28c17 0 24 -8 33 -18c13 -14 28 -31 79 -31c54 0 68 19 81 33c8 9 15 16 31 16zM586 702c42 0 60 -11 60 -32v-436c0 -154 -107 -242 -290 -242s-290 88 -290 242v436 c0 21 18 32 60 32h34c42 0 60 -11 60 -32v-426c0 -70 55 -121 136 -121s137 51 137 121v426c0 21 18 32 60 32h33z" />
<glyph unicode="&#xdb;" horiz-adv-x="712" d="M362 895c29 0 50 -1 61 -19l65 -102c4 -6 6 -11 6 -15c0 -7 -7 -10 -20 -10h-22c-29 0 -55 5 -68 24l-28 40l-28 -39c-15 -21 -38 -25 -67 -25h-22c-14 0 -20 3 -20 10c0 4 2 9 6 15l65 102c11 18 32 19 61 19h11zM586 702c42 0 60 -11 60 -32v-436 c0 -154 -107 -242 -290 -242s-290 88 -290 242v436c0 21 18 32 60 32h34c42 0 60 -11 60 -32v-426c0 -70 55 -121 136 -121s137 51 137 121v426c0 21 18 32 60 32h33z" />
<glyph unicode="&#xdc;" horiz-adv-x="712" d="M266 879c42 0 60 -11 60 -32v-60c0 -21 -18 -32 -60 -32s-60 11 -60 32v60c0 21 18 32 60 32zM446 879c42 0 60 -11 60 -32v-60c0 -21 -18 -32 -60 -32s-60 11 -60 32v60c0 21 18 32 60 32zM586 702c42 0 60 -11 60 -32v-436c0 -154 -107 -242 -290 -242 s-290 88 -290 242v436c0 21 18 32 60 32h34c42 0 60 -11 60 -32v-426c0 -70 55 -121 136 -121s137 51 137 121v426c0 21 18 32 60 32h33z" />
<glyph unicode="&#x1ee4;" horiz-adv-x="712" d="M586 702c42 0 60 -11 60 -32v-436c0 -154 -107 -242 -290 -242s-290 88 -290 242v436c0 21 18 32 60 32h34c42 0 60 -11 60 -32v-426c0 -70 55 -121 136 -121s137 51 137 121v426c0 21 18 32 60 32h33zM358 -80c42 0 60 -11 60 -32v-60c0 -21 -18 -32 -60 -32 s-60 11 -60 32v60c0 21 18 32 60 32z" />
<glyph unicode="&#xd9;" horiz-adv-x="712" d="M282 911c40 0 73 -6 85 -27c46 -81 65 -106 65 -117s-7 -15 -31 -15c-47 0 -64 13 -75 25c-97 106 -104 108 -104 120c0 11 20 14 60 14zM586 702c42 0 60 -11 60 -32v-436c0 -154 -107 -242 -290 -242s-290 88 -290 242v436c0 21 18 32 60 32h34c42 0 60 -11 60 -32 v-426c0 -70 55 -121 136 -121s137 51 137 121v426c0 21 18 32 60 32h33z" />
<glyph unicode="&#x1ee6;" horiz-adv-x="712" d="M393 845c0 14 -16 22 -32 22c-22 0 -33 -12 -42 -12c-8 0 -30 27 -30 42c0 13 45 31 80 31c72 0 111 -30 111 -79c0 -53 -82 -102 -100 -102c-24 0 -54 15 -54 23c0 17 67 45 67 75zM586 702c42 0 60 -11 60 -32v-436c0 -154 -107 -242 -290 -242s-290 88 -290 242v436 c0 21 18 32 60 32h34c42 0 60 -11 60 -32v-426c0 -70 55 -121 136 -121s137 51 137 121v426c0 21 18 32 60 32h33z" />
<glyph unicode="&#x1af;" horiz-adv-x="712" d="M738 753c0 -48 -28 -82 -92 -91v-428c0 -154 -107 -242 -290 -242s-290 88 -290 242v436c0 21 18 32 60 32h34c42 0 60 -11 60 -32v-426c0 -70 55 -121 136 -121s137 51 137 121v426c0 21 18 32 60 32h58c34 0 47 13 47 36c0 22 -26 39 -26 52c0 7 3 14 11 19l32 22 c5 4 10 5 16 5c26 0 47 -53 47 -83z" />
<glyph unicode="&#x1ee8;" horiz-adv-x="712" d="M317 752c-24 0 -31 4 -31 15s19 36 65 117c12 21 45 27 85 27s60 -3 60 -14c0 -12 -7 -14 -104 -120c-11 -12 -28 -25 -75 -25zM738 753c0 -48 -28 -82 -92 -91v-428c0 -154 -107 -242 -290 -242s-290 88 -290 242v436c0 21 18 32 60 32h34c42 0 60 -11 60 -32v-426 c0 -70 55 -121 136 -121s137 51 137 121v426c0 21 18 32 60 32h58c34 0 47 13 47 36c0 22 -26 39 -26 52c0 7 3 14 11 19l32 22c5 4 10 5 16 5c26 0 47 -53 47 -83z" />
<glyph unicode="&#x1ef0;" horiz-adv-x="712" d="M738 753c0 -48 -28 -82 -92 -91v-428c0 -154 -107 -242 -290 -242s-290 88 -290 242v436c0 21 18 32 60 32h34c42 0 60 -11 60 -32v-426c0 -70 55 -121 136 -121s137 51 137 121v426c0 21 18 32 60 32h58c34 0 47 13 47 36c0 22 -26 39 -26 52c0 7 3 14 11 19l32 22 c5 4 10 5 16 5c26 0 47 -53 47 -83zM358 -80c42 0 60 -11 60 -32v-60c0 -21 -18 -32 -60 -32s-60 11 -60 32v60c0 21 18 32 60 32z" />
<glyph unicode="&#x1eea;" horiz-adv-x="712" d="M401 752c-47 0 -64 13 -75 25c-97 106 -104 108 -104 120c0 11 20 14 60 14s73 -6 85 -27c46 -81 65 -106 65 -117s-7 -15 -31 -15zM738 753c0 -48 -28 -82 -92 -91v-428c0 -154 -107 -242 -290 -242s-290 88 -290 242v436c0 21 18 32 60 32h34c42 0 60 -11 60 -32v-426 c0 -70 55 -121 136 -121s137 51 137 121v426c0 21 18 32 60 32h58c34 0 47 13 47 36c0 22 -26 39 -26 52c0 7 3 14 11 19l32 22c5 4 10 5 16 5c26 0 47 -53 47 -83z" />
<glyph unicode="&#x1eec;" horiz-adv-x="712" d="M319 855c-8 0 -30 27 -30 42c0 13 45 31 80 31c72 0 111 -30 111 -79c0 -53 -82 -102 -100 -102c-24 0 -54 15 -54 23c0 17 67 45 67 75c0 14 -16 22 -32 22c-22 0 -33 -12 -42 -12zM738 753c0 -48 -28 -82 -92 -91v-428c0 -154 -107 -242 -290 -242s-290 88 -290 242 v436c0 21 18 32 60 32h34c42 0 60 -11 60 -32v-426c0 -70 55 -121 136 -121s137 51 137 121v426c0 21 18 32 60 32h58c34 0 47 13 47 36c0 22 -26 39 -26 52c0 7 3 14 11 19l32 22c5 4 10 5 16 5c26 0 47 -53 47 -83z" />
<glyph unicode="&#x1eee;" horiz-adv-x="712" d="M188 760c-25 7 -26 27 -20 41c13 36 52 70 109 70c34 0 108 -27 141 -29c8 0 20 2 33 16c15 19 26 19 40 15l11 -3c24 -7 26 -27 20 -41c-13 -36 -52 -70 -109 -70c-34 0 -108 27 -141 29c-8 0 -21 -2 -33 -16c-15 -19 -26 -19 -40 -15zM738 753c0 -48 -28 -82 -92 -91 v-428c0 -154 -107 -242 -290 -242s-290 88 -290 242v436c0 21 18 32 60 32h34c42 0 60 -11 60 -32v-426c0 -70 55 -121 136 -121s137 51 137 121v426c0 21 18 32 60 32h58c34 0 47 13 47 36c0 22 -26 39 -26 52c0 7 3 14 11 19l32 22c5 4 10 5 16 5c26 0 47 -53 47 -83z" />
<glyph unicode="&#x170;" horiz-adv-x="712" d="M352 911c40 0 60 -3 60 -14c0 -12 -7 -14 -104 -120c-11 -12 -28 -25 -75 -25c-24 0 -31 4 -31 15s19 36 65 117c12 21 45 27 85 27zM535 911c40 0 60 -3 60 -14c0 -12 -7 -14 -104 -120c-11 -12 -28 -25 -75 -25c-24 0 -31 4 -31 15s19 36 65 117c12 21 45 27 85 27z M586 702c42 0 60 -11 60 -32v-436c0 -154 -107 -242 -290 -242s-290 88 -290 242v436c0 21 18 32 60 32h34c42 0 60 -11 60 -32v-426c0 -70 55 -121 136 -121s137 51 137 121v426c0 21 18 32 60 32h33z" />
<glyph unicode="&#x16a;" horiz-adv-x="712" d="M464 869c21 0 30 -12 30 -40v-15c0 -28 -9 -40 -30 -40h-215c-21 0 -30 12 -30 40v15c0 28 9 40 30 40h215zM586 702c42 0 60 -11 60 -32v-436c0 -154 -107 -242 -290 -242s-290 88 -290 242v436c0 21 18 32 60 32h34c42 0 60 -11 60 -32v-426c0 -70 55 -121 136 -121 s137 51 137 121v426c0 21 18 32 60 32h33z" />
<glyph unicode="&#x172;" horiz-adv-x="712" d="M586 702c42 0 60 -11 60 -32v-436c0 -127 -72 -209 -200 -234c1 -1 1 -3 1 -5c0 -15 -11 -28 -11 -57c0 -48 39 -51 62 -51c25 0 31 8 49 8c14 0 22 -9 22 -28c0 -42 -44 -50 -82 -50c-107 0 -118 73 -118 102c0 15 3 51 19 74c-10 -1 -21 -1 -32 -1 c-183 0 -290 88 -290 242v436c0 21 18 32 60 32h34c42 0 60 -11 60 -32v-426c0 -70 55 -121 136 -121s137 51 137 121v426c0 21 18 32 60 32h33z" />
<glyph unicode="&#x16e;" horiz-adv-x="712" d="M356 926c56 0 100 -44 100 -100s-44 -99 -100 -99s-99 43 -99 99s43 100 99 100zM356 862c-20 0 -36 -17 -36 -37s16 -36 36 -36s37 16 37 36s-17 37 -37 37zM586 702c42 0 60 -11 60 -32v-436c0 -154 -107 -242 -290 -242s-290 88 -290 242v436c0 21 18 32 60 32h34 c42 0 60 -11 60 -32v-426c0 -70 55 -121 136 -121s137 51 137 121v426c0 21 18 32 60 32h33z" />
<glyph unicode="&#x168;" horiz-adv-x="712" d="M277 871c34 0 108 -27 141 -29c8 0 20 2 33 16c15 19 26 19 40 15l11 -3c24 -7 26 -27 20 -41c-13 -36 -52 -70 -109 -70c-34 0 -108 27 -141 29c-8 0 -21 -2 -33 -16c-15 -19 -26 -19 -40 -15l-11 3c-25 7 -26 27 -20 41c13 36 52 70 109 70zM586 702 c42 0 60 -11 60 -32v-436c0 -154 -107 -242 -290 -242s-290 88 -290 242v436c0 21 18 32 60 32h34c42 0 60 -11 60 -32v-426c0 -70 55 -121 136 -121s137 51 137 121v426c0 21 18 32 60 32h33z" />
<glyph unicode="V" horiz-adv-x="617" d="M548 702c42 0 60 -8 60 -22c0 -5 -1 -11 -3 -18l-216 -643c-5 -16 -27 -21 -56 -21h-52c-29 0 -51 5 -56 21l-216 643c-2 7 -4 13 -4 18c0 14 19 22 61 22h33c29 0 52 -7 59 -29l135 -433l11 -35h4l11 35l139 433c7 21 30 29 59 29h31z" />
<glyph unicode="W" horiz-adv-x="882" d="M824 702c43 0 62 -10 62 -26c0 -4 -1 -9 -2 -15l-163 -642c-4 -14 -27 -21 -55 -21h-73c-28 0 -52 7 -55 21l-82 346l-16 68l-17 -68l-85 -346c-4 -14 -27 -21 -55 -21h-72c-32 0 -52 7 -55 21l-158 642c-2 6 -2 11 -2 15c0 16 19 26 62 26h26c39 0 62 -10 67 -31 l75 -322c8 -34 19 -88 31 -144c9 56 25 110 34 144l82 332c4 16 23 21 55 21h38c32 0 51 -5 55 -21l79 -332c9 -38 22 -95 34 -151c13 55 25 113 34 151l78 322c5 21 28 31 67 31h11z" />
<glyph unicode="&#x1e82;" horiz-adv-x="882" d="M521 911c40 0 60 -3 60 -14c0 -12 -7 -14 -104 -120c-11 -12 -28 -25 -75 -25c-24 0 -31 4 -31 15s19 36 65 117c12 21 45 27 85 27zM824 702c43 0 62 -10 62 -26c0 -4 -1 -9 -2 -15l-163 -642c-4 -14 -27 -21 -55 -21h-73c-28 0 -52 7 -55 21l-82 346l-16 68l-17 -68 l-85 -346c-4 -14 -27 -21 -55 -21h-72c-32 0 -52 7 -55 21l-158 642c-2 6 -2 11 -2 15c0 16 19 26 62 26h26c39 0 62 -10 67 -31l75 -322c8 -34 19 -88 31 -144c9 56 25 110 34 144l82 332c4 16 23 21 55 21h38c32 0 51 -5 55 -21l79 -332c9 -38 22 -95 34 -151 c13 55 25 113 34 151l78 322c5 21 28 31 67 31h11z" />
<glyph unicode="&#x174;" horiz-adv-x="882" d="M447 895c29 0 50 -1 61 -19l65 -102c4 -6 6 -11 6 -15c0 -7 -7 -10 -20 -10h-22c-29 0 -55 5 -68 24l-28 40l-28 -39c-15 -21 -38 -25 -67 -25h-22c-14 0 -20 3 -20 10c0 4 2 9 6 15l65 102c11 18 32 19 61 19h11zM824 702c43 0 62 -10 62 -26c0 -4 -1 -9 -2 -15 l-163 -642c-4 -14 -27 -21 -55 -21h-73c-28 0 -52 7 -55 21l-82 346l-16 68l-17 -68l-85 -346c-4 -14 -27 -21 -55 -21h-72c-32 0 -52 7 -55 21l-158 642c-2 6 -2 11 -2 15c0 16 19 26 62 26h26c39 0 62 -10 67 -31l75 -322c8 -34 19 -88 31 -144c9 56 25 110 34 144l82 332 c4 16 23 21 55 21h38c32 0 51 -5 55 -21l79 -332c9 -38 22 -95 34 -151c13 55 25 113 34 151l78 322c5 21 28 31 67 31h11z" />
<glyph unicode="&#x1e84;" horiz-adv-x="882" d="M351 879c42 0 60 -11 60 -32v-60c0 -21 -18 -32 -60 -32s-60 11 -60 32v60c0 21 18 32 60 32zM531 879c42 0 60 -11 60 -32v-60c0 -21 -18 -32 -60 -32s-60 11 -60 32v60c0 21 18 32 60 32zM824 702c43 0 62 -10 62 -26c0 -4 -1 -9 -2 -15l-163 -642 c-4 -14 -27 -21 -55 -21h-73c-28 0 -52 7 -55 21l-82 346l-16 68l-17 -68l-85 -346c-4 -14 -27 -21 -55 -21h-72c-32 0 -52 7 -55 21l-158 642c-2 6 -2 11 -2 15c0 16 19 26 62 26h26c39 0 62 -10 67 -31l75 -322c8 -34 19 -88 31 -144c9 56 25 110 34 144l82 332 c4 16 23 21 55 21h38c32 0 51 -5 55 -21l79 -332c9 -38 22 -95 34 -151c13 55 25 113 34 151l78 322c5 21 28 31 67 31h11z" />
<glyph unicode="&#x1e80;" horiz-adv-x="882" d="M367 911c40 0 73 -6 85 -27c46 -81 65 -106 65 -117s-7 -15 -31 -15c-47 0 -64 13 -75 25c-97 106 -104 108 -104 120c0 11 20 14 60 14zM824 702c43 0 62 -10 62 -26c0 -4 -1 -9 -2 -15l-163 -642c-4 -14 -27 -21 -55 -21h-73c-28 0 -52 7 -55 21l-82 346l-16 68 l-17 -68l-85 -346c-4 -14 -27 -21 -55 -21h-72c-32 0 -52 7 -55 21l-158 642c-2 6 -2 11 -2 15c0 16 19 26 62 26h26c39 0 62 -10 67 -31l75 -322c8 -34 19 -88 31 -144c9 56 25 110 34 144l82 332c4 16 23 21 55 21h38c32 0 51 -5 55 -21l79 -332c9 -38 22 -95 34 -151 c13 55 25 113 34 151l78 322c5 21 28 31 67 31h11z" />
<glyph unicode="X" horiz-adv-x="611" d="M530 702c43 0 63 -7 63 -19c0 -6 -3 -15 -10 -25l-189 -295l200 -321c6 -10 9 -18 9 -25c0 -12 -19 -19 -63 -19h-39c-29 0 -51 4 -60 19l-133 215l-138 -215c-12 -18 -32 -19 -61 -19h-38c-44 0 -63 7 -63 19c0 6 3 14 10 25l206 323l-183 293c-6 10 -10 18 -10 25 c0 11 20 19 64 19h41c29 0 51 -4 60 -19l114 -186l120 186c11 17 32 19 61 19h39z" />
<glyph unicode="Y" horiz-adv-x="559" d="M466 702h36c44 0 63 -8 63 -20c0 -6 -3 -15 -9 -25l-199 -324v-303c0 -21 -18 -32 -60 -32h-34c-42 0 -60 11 -60 32v306l-199 321c-6 10 -10 19 -10 25c0 12 20 20 64 20h43c29 0 51 -4 60 -19l122 -214l123 214c9 15 31 19 60 19z" />
<glyph unicode="&#xdd;" horiz-adv-x="559" d="M360 911c40 0 60 -3 60 -14c0 -12 -7 -14 -104 -120c-11 -12 -28 -25 -75 -25c-24 0 -31 4 -31 15s19 36 65 117c12 21 45 27 85 27zM466 702h36c44 0 63 -8 63 -20c0 -6 -3 -15 -9 -25l-199 -324v-303c0 -21 -18 -32 -60 -32h-34c-42 0 -60 11 -60 32v306l-199 321 c-6 10 -10 19 -10 25c0 12 20 20 64 20h43c29 0 51 -4 60 -19l122 -214l123 214c9 15 31 19 60 19z" />
<glyph unicode="&#x176;" horiz-adv-x="559" d="M286 895c29 0 50 -1 61 -19l65 -102c4 -6 6 -11 6 -15c0 -7 -7 -10 -20 -10h-22c-29 0 -55 5 -68 24l-28 40l-28 -39c-15 -21 -38 -25 -67 -25h-22c-14 0 -20 3 -20 10c0 4 2 9 6 15l65 102c11 18 32 19 61 19h11zM466 702h36c44 0 63 -8 63 -20c0 -6 -3 -15 -9 -25 l-199 -324v-303c0 -21 -18 -32 -60 -32h-34c-42 0 -60 11 -60 32v306l-199 321c-6 10 -10 19 -10 25c0 12 20 20 64 20h43c29 0 51 -4 60 -19l122 -214l123 214c9 15 31 19 60 19z" />
<glyph unicode="&#x178;" horiz-adv-x="559" d="M190 879c42 0 60 -11 60 -32v-60c0 -21 -18 -32 -60 -32s-60 11 -60 32v60c0 21 18 32 60 32zM370 879c42 0 60 -11 60 -32v-60c0 -21 -18 -32 -60 -32s-60 11 -60 32v60c0 21 18 32 60 32zM466 702h36c44 0 63 -8 63 -20c0 -6 -3 -15 -9 -25l-199 -324v-303 c0 -21 -18 -32 -60 -32h-34c-42 0 -60 11 -60 32v306l-199 321c-6 10 -10 19 -10 25c0 12 20 20 64 20h43c29 0 51 -4 60 -19l122 -214l123 214c9 15 31 19 60 19z" />
<glyph unicode="&#x1ef4;" horiz-adv-x="559" d="M466 702h36c44 0 63 -8 63 -20c0 -6 -3 -15 -9 -25l-199 -324v-303c0 -21 -18 -32 -60 -32h-34c-42 0 -60 11 -60 32v306l-199 321c-6 10 -10 19 -10 25c0 12 20 20 64 20h43c29 0 51 -4 60 -19l122 -214l123 214c9 15 31 19 60 19zM284 -80c42 0 60 -11 60 -32v-60 c0 -21 -18 -32 -60 -32s-60 11 -60 32v60c0 21 18 32 60 32z" />
<glyph unicode="&#x1ef2;" horiz-adv-x="559" d="M206 911c40 0 73 -6 85 -27c46 -81 65 -106 65 -117s-7 -15 -31 -15c-47 0 -64 13 -75 25c-97 106 -104 108 -104 120c0 11 20 14 60 14zM466 702h36c44 0 63 -8 63 -20c0 -6 -3 -15 -9 -25l-199 -324v-303c0 -21 -18 -32 -60 -32h-34c-42 0 -60 11 -60 32v306l-199 321 c-6 10 -10 19 -10 25c0 12 20 20 64 20h43c29 0 51 -4 60 -19l122 -214l123 214c9 15 31 19 60 19z" />
<glyph unicode="&#x1ef6;" horiz-adv-x="559" d="M317 845c0 14 -16 22 -32 22c-22 0 -33 -12 -42 -12c-8 0 -30 27 -30 42c0 13 45 31 80 31c72 0 111 -30 111 -79c0 -53 -82 -102 -100 -102c-24 0 -54 15 -54 23c0 17 67 45 67 75zM466 702h36c44 0 63 -8 63 -20c0 -6 -3 -15 -9 -25l-199 -324v-303 c0 -21 -18 -32 -60 -32h-34c-42 0 -60 11 -60 32v306l-199 321c-6 10 -10 19 -10 25c0 12 20 20 64 20h43c29 0 51 -4 60 -19l122 -214l123 214c9 15 31 19 60 19z" />
<glyph unicode="&#x1ef8;" horiz-adv-x="559" d="M201 871c34 0 108 -27 141 -29c8 0 20 2 33 16c15 19 26 19 40 15l11 -3c24 -7 26 -27 20 -41c-13 -36 -52 -70 -109 -70c-34 0 -108 27 -141 29c-8 0 -21 -2 -33 -16c-15 -19 -26 -19 -40 -15l-11 3c-25 7 -26 27 -20 41c13 36 52 70 109 70zM466 702h36 c44 0 63 -8 63 -20c0 -6 -3 -15 -9 -25l-199 -324v-303c0 -21 -18 -32 -60 -32h-34c-42 0 -60 11 -60 32v306l-199 321c-6 10 -10 19 -10 25c0 12 20 20 64 20h43c29 0 51 -4 60 -19l122 -214l123 214c9 15 31 19 60 19z" />
<glyph unicode="Z" horiz-adv-x="616" d="M543 700c16 0 37 -66 37 -92c0 -4 0 -6 -1 -8l-334 -469h305c21 0 30 -15 30 -50v-31c0 -35 -9 -50 -30 -50h-484c-17 0 -39 62 -39 89c0 4 1 8 2 10l335 470h-278c-21 0 -30 15 -30 50v31c0 35 9 50 30 50h457z" />
<glyph unicode="&#x179;" horiz-adv-x="616" d="M388 911c40 0 60 -3 60 -14c0 -12 -7 -14 -104 -120c-11 -12 -28 -25 -75 -25c-24 0 -31 4 -31 15s19 36 65 117c12 21 45 27 85 27zM543 700c16 0 37 -66 37 -92c0 -4 0 -6 -1 -8l-334 -469h305c21 0 30 -15 30 -50v-31c0 -35 -9 -50 -30 -50h-484c-17 0 -39 62 -39 89 c0 4 1 8 2 10l335 470h-278c-21 0 -30 15 -30 50v31c0 35 9 50 30 50h457z" />
<glyph unicode="&#x17d;" horiz-adv-x="616" d="M426 895c13 0 20 -3 20 -10c0 -4 -2 -9 -6 -15l-65 -102c-11 -18 -32 -19 -61 -19h-11c-29 0 -50 1 -61 19l-65 102c-4 6 -6 11 -6 15c0 7 6 10 20 10h22c29 0 52 -4 67 -25l28 -39l28 40c13 19 39 24 68 24h22zM543 700c16 0 37 -66 37 -92c0 -4 0 -6 -1 -8l-334 -469 h305c21 0 30 -15 30 -50v-31c0 -35 -9 -50 -30 -50h-484c-17 0 -39 62 -39 89c0 4 1 8 2 10l335 470h-278c-21 0 -30 15 -30 50v31c0 35 9 50 30 50h457z" />
<glyph unicode="&#x17b;" horiz-adv-x="616" d="M308 879c42 0 60 -11 60 -32v-60c0 -21 -18 -32 -60 -32s-60 11 -60 32v60c0 21 18 32 60 32zM543 700c16 0 37 -66 37 -92c0 -4 0 -6 -1 -8l-334 -469h305c21 0 30 -15 30 -50v-31c0 -35 -9 -50 -30 -50h-484c-17 0 -39 62 -39 89c0 4 1 8 2 10l335 470h-278 c-21 0 -30 15 -30 50v31c0 35 9 50 30 50h457z" />
<glyph unicode="&#x1e92;" horiz-adv-x="616" d="M543 700c16 0 37 -66 37 -92c0 -4 0 -6 -1 -8l-334 -469h305c21 0 30 -15 30 -50v-31c0 -35 -9 -50 -30 -50h-484c-17 0 -39 62 -39 89c0 4 1 8 2 10l335 470h-278c-21 0 -30 15 -30 50v31c0 35 9 50 30 50h457zM301 -80c42 0 60 -11 60 -32v-60c0 -21 -18 -32 -60 -32 s-60 11 -60 32v60c0 21 18 32 60 32z" />
<glyph horiz-adv-x="684" d="M221 911c40 0 60 -3 60 -14c0 -12 -7 -14 -104 -120c-11 -12 -28 -25 -75 -25c-24 0 -31 4 -31 15s19 36 65 117c12 21 45 27 85 27zM623 911c40 0 60 -3 60 -14c0 -12 -7 -14 -104 -120c-11 -12 -28 -25 -75 -25c-24 0 -31 4 -31 15s19 36 65 117c12 21 45 27 85 27z M158 703c42 0 60 -12 60 -33v-640c0 -21 -18 -33 -60 -33h-35c-42 0 -60 12 -60 33v640c0 21 18 33 60 33h35zM558 703c42 0 60 -12 60 -33v-468c0 -127 -63 -210 -212 -210c-24 0 -124 3 -124 46c0 18 10 90 41 93c10 0 24 -8 56 -8c60 0 84 31 84 104v443 c0 21 18 33 60 33h35z" />
<glyph horiz-adv-x="559" d="M456 701c42 0 60 -11 60 -32v-373c0 -203 -67 -305 -223 -305c-118 0 -218 29 -222 71c-2 19 -3 35 -3 47c0 30 6 40 13 40c15 0 74 -41 170 -41c78 0 117 46 117 134v33c-30 -35 -81 -67 -141 -67c-114 0 -167 51 -167 162v299c0 21 18 32 60 32h28c42 0 60 -11 60 -32 v-277c0 -39 22 -62 80 -62c43 0 68 35 80 58v281c0 21 18 32 60 32h28z" />
<glyph horiz-adv-x="559" d="M241 752c-24 0 -31 4 -31 15s19 36 65 117c12 21 45 27 85 27s60 -3 60 -14c0 -12 -7 -14 -104 -120c-11 -12 -28 -25 -75 -25zM456 701c42 0 60 -11 60 -32v-373c0 -203 -67 -305 -223 -305c-118 0 -218 29 -222 71c-2 19 -3 35 -3 47c0 30 6 40 13 40 c15 0 74 -41 170 -41c78 0 117 46 117 134v33c-30 -35 -81 -67 -141 -67c-114 0 -167 51 -167 162v299c0 21 18 32 60 32h28c42 0 60 -11 60 -32v-277c0 -39 22 -62 80 -62c43 0 68 35 80 58v281c0 21 18 32 60 32h28z" />
<glyph horiz-adv-x="559" d="M163 749c-14 0 -20 3 -20 10c0 4 2 9 6 15l65 102c11 18 32 19 61 19h11c29 0 50 -1 61 -19l65 -102c4 -6 6 -11 6 -15c0 -7 -7 -10 -20 -10h-22c-29 0 -55 5 -68 24l-28 40l-28 -39c-15 -21 -38 -25 -67 -25h-22zM456 701c42 0 60 -11 60 -32v-373 c0 -203 -67 -305 -223 -305c-118 0 -218 29 -222 71c-2 19 -3 35 -3 47c0 30 6 40 13 40c15 0 74 -41 170 -41c78 0 117 46 117 134v33c-30 -35 -81 -67 -141 -67c-114 0 -167 51 -167 162v299c0 21 18 32 60 32h28c42 0 60 -11 60 -32v-277c0 -39 22 -62 80 -62 c43 0 68 35 80 58v281c0 21 18 32 60 32h28z" />
<glyph horiz-adv-x="559" d="M190 755c-42 0 -60 11 -60 32v60c0 21 18 32 60 32s60 -11 60 -32v-60c0 -21 -18 -32 -60 -32zM370 755c-42 0 -60 11 -60 32v60c0 21 18 32 60 32s60 -11 60 -32v-60c0 -21 -18 -32 -60 -32zM456 701c42 0 60 -11 60 -32v-373c0 -203 -67 -305 -223 -305 c-118 0 -218 29 -222 71c-2 19 -3 35 -3 47c0 30 6 40 13 40c15 0 74 -41 170 -41c78 0 117 46 117 134v33c-30 -35 -81 -67 -141 -67c-114 0 -167 51 -167 162v299c0 21 18 32 60 32h28c42 0 60 -11 60 -32v-277c0 -39 22 -62 80 -62c43 0 68 35 80 58v281 c0 21 18 32 60 32h28z" />
<glyph horiz-adv-x="559" d="M456 701c42 0 60 -11 60 -32v-373c0 -203 -67 -305 -223 -305c-118 0 -218 29 -222 71c-2 19 -3 35 -3 47c0 30 6 40 13 40c15 0 74 -41 170 -41c78 0 117 46 117 134v33c-30 -35 -81 -67 -141 -67c-114 0 -167 51 -167 162v299c0 21 18 32 60 32h28c42 0 60 -11 60 -32 v-277c0 -39 22 -62 80 -62c43 0 68 35 80 58v281c0 21 18 32 60 32h28zM263 -80c42 0 60 -11 60 -32v-60c0 -21 -18 -32 -60 -32s-60 11 -60 32v60c0 21 18 32 60 32z" />
<glyph horiz-adv-x="559" d="M325 752c-47 0 -64 13 -75 25c-97 106 -104 108 -104 120c0 11 20 14 60 14s73 -6 85 -27c46 -81 65 -106 65 -117s-7 -15 -31 -15zM456 701c42 0 60 -11 60 -32v-373c0 -203 -67 -305 -223 -305c-118 0 -218 29 -222 71c-2 19 -3 35 -3 47c0 30 6 40 13 40 c15 0 74 -41 170 -41c78 0 117 46 117 134v33c-30 -35 -81 -67 -141 -67c-114 0 -167 51 -167 162v299c0 21 18 32 60 32h28c42 0 60 -11 60 -32v-277c0 -39 22 -62 80 -62c43 0 68 35 80 58v281c0 21 18 32 60 32h28z" />
<glyph horiz-adv-x="559" d="M243 855c-8 0 -30 27 -30 42c0 13 45 31 80 31c72 0 111 -30 111 -79c0 -53 -82 -102 -100 -102c-24 0 -54 15 -54 23c0 17 67 45 67 75c0 14 -16 22 -32 22c-22 0 -33 -12 -42 -12zM456 701c42 0 60 -11 60 -32v-373c0 -203 -67 -305 -223 -305c-118 0 -218 29 -222 71 c-2 19 -3 35 -3 47c0 30 6 40 13 40c15 0 74 -41 170 -41c78 0 117 46 117 134v33c-30 -35 -81 -67 -141 -67c-114 0 -167 51 -167 162v299c0 21 18 32 60 32h28c42 0 60 -11 60 -32v-277c0 -39 22 -62 80 -62c43 0 68 35 80 58v281c0 21 18 32 60 32h28z" />
<glyph horiz-adv-x="559" d="M112 760c-25 7 -26 27 -20 41c13 36 52 70 109 70c34 0 108 -27 141 -29c8 0 20 2 33 16c15 19 26 19 40 15l11 -3c24 -7 26 -27 20 -41c-13 -36 -52 -70 -109 -70c-34 0 -108 27 -141 29c-8 0 -21 -2 -33 -16c-15 -19 -26 -19 -40 -15zM456 701c42 0 60 -11 60 -32v-373 c0 -203 -67 -305 -223 -305c-118 0 -218 29 -222 71c-2 19 -3 35 -3 47c0 30 6 40 13 40c15 0 74 -41 170 -41c78 0 117 46 117 134v33c-30 -35 -81 -67 -141 -67c-114 0 -167 51 -167 162v299c0 21 18 32 60 32h28c42 0 60 -11 60 -32v-277c0 -39 22 -62 80 -62 c43 0 68 35 80 58v281c0 21 18 32 60 32h28z" />
<glyph horiz-adv-x="619" d="M441 911c40 0 60 -3 60 -14c0 -12 -14 -26 -74 -120c-9 -14 -28 -25 -75 -25c-24 0 -31 4 -31 15s9 42 35 117c8 23 45 27 85 27zM379 708c88 0 209 -28 209 -70c0 -28 -40 -94 -65 -94c-12 0 -52 32 -147 32c-118 0 -173 -75 -173 -225s56 -228 171 -228 c95 0 149 40 164 40c32 0 59 -70 59 -87c0 -60 -143 -84 -223 -84c-224 0 -329 113 -329 360c0 238 112 356 334 356z" />
<glyph horiz-adv-x="719" d="M433 911c40 0 60 -3 60 -14c0 -12 -14 -26 -74 -120c-9 -14 -28 -25 -75 -25c-24 0 -31 4 -31 15s9 42 35 117c8 23 45 27 85 27zM590 702c42 0 60 -11 60 -32v-640c0 -21 -18 -32 -60 -32h-38c-29 0 -51 4 -66 27l-268 410v-405c0 -21 -18 -32 -60 -32h-29 c-42 0 -60 11 -60 32v640c0 21 18 32 60 32h43c29 0 51 -4 66 -27l236 -364l27 -41v400c0 21 18 32 60 32h29z" />
<glyph horiz-adv-x="731" d="M439 911c40 0 60 -3 60 -14c0 -12 -14 -26 -74 -120c-9 -14 -28 -25 -75 -25c-24 0 -31 4 -31 15s9 42 35 117c8 23 45 27 85 27zM366 708c206 0 320 -127 320 -358s-114 -358 -320 -358s-321 127 -321 358s115 358 321 358zM366 576c-107 0 -163 -79 -163 -226 s56 -227 163 -227s162 80 162 227s-55 226 -162 226z" />
<glyph horiz-adv-x="500" d="M323 911c40 0 60 -3 60 -14c0 -12 -14 -26 -74 -120c-9 -14 -28 -25 -75 -25c-24 0 -31 4 -31 15s9 42 35 117c8 23 45 27 85 27zM273 708c106 0 180 -37 180 -70c0 -27 -31 -87 -55 -87c-13 0 -44 25 -111 25c-78 0 -93 -33 -93 -56c0 -55 49 -75 107 -98 c82 -34 182 -75 182 -211c0 -163 -117 -219 -226 -219c-152 0 -235 54 -235 88c0 31 41 89 62 89c18 0 67 -46 147 -46c43 0 94 13 94 70c0 60 -79 77 -154 112c-69 33 -135 81 -135 201c0 144 120 202 237 202z" />
<glyph horiz-adv-x="616" d="M381 911c40 0 60 -3 60 -14c0 -12 -14 -26 -74 -120c-9 -14 -28 -25 -75 -25c-24 0 -31 4 -31 15s9 42 35 117c8 23 45 27 85 27zM543 700c16 0 37 -66 37 -92c0 -4 0 -6 -1 -8l-334 -469h305c21 0 30 -15 30 -50v-31c0 -35 -9 -50 -30 -50h-484c-17 0 -39 62 -39 89 c0 4 1 8 2 10l335 470h-278c-21 0 -30 15 -30 50v31c0 35 9 50 30 50h457z" />
<glyph unicode="a" horiz-adv-x="545" d="M262 531c158 0 215 -70 215 -167v-188c0 -103 12 -124 12 -145c0 -24 -87 -32 -112 -32c-32 0 -34 42 -40 69c-7 -13 -55 -76 -147 -76c-108 0 -148 64 -148 146s33 186 287 186v33c0 38 -23 57 -78 57c-73 0 -116 -32 -128 -32c-21 0 -52 59 -52 80c0 34 80 69 191 69z M329 227c-95 0 -140 -26 -140 -74c0 -25 17 -44 50 -44c38 0 74 27 90 63v55z" />
<glyph unicode="&#xe1;" horiz-adv-x="545" d="M353 734c40 0 60 -3 60 -14c0 -12 -7 -14 -104 -120c-11 -12 -28 -25 -75 -25c-24 0 -31 4 -31 15s19 36 65 117c12 21 45 27 85 27zM262 531c158 0 215 -70 215 -167v-188c0 -103 12 -124 12 -145c0 -24 -87 -32 -112 -32c-32 0 -34 42 -40 69c-7 -13 -55 -76 -147 -76 c-108 0 -148 64 -148 146s33 186 287 186v33c0 38 -23 57 -78 57c-73 0 -116 -32 -128 -32c-21 0 -52 59 -52 80c0 34 80 69 191 69zM329 227c-95 0 -140 -26 -140 -74c0 -25 17 -44 50 -44c38 0 74 27 90 63v55z" />
<glyph unicode="&#x103;" horiz-adv-x="545" d="M385 715c22 0 35 -10 35 -28c0 -57 -60 -112 -147 -112s-147 55 -147 112c0 18 13 28 35 28c17 0 24 -8 33 -18c13 -14 28 -31 79 -31c54 0 68 19 81 33c8 9 15 16 31 16zM262 531c158 0 215 -70 215 -167v-188c0 -103 12 -124 12 -145c0 -24 -87 -32 -112 -32 c-32 0 -34 42 -40 69c-7 -13 -55 -76 -147 -76c-108 0 -148 64 -148 146s33 186 287 186v33c0 38 -23 57 -78 57c-73 0 -116 -32 -128 -32c-21 0 -52 59 -52 80c0 34 80 69 191 69zM329 227c-95 0 -140 -26 -140 -74c0 -25 17 -44 50 -44c38 0 74 27 90 63v55z" />
<glyph unicode="&#x1eaf;" horiz-adv-x="545" d="M353 897c40 0 60 -3 60 -14c0 -12 -7 -14 -104 -120c-11 -12 -28 -25 -75 -25c-24 0 -31 4 -31 15s19 36 65 117c12 21 45 27 85 27zM385 715c22 0 35 -10 35 -28c0 -57 -60 -112 -147 -112s-147 55 -147 112c0 18 13 28 35 28c17 0 24 -8 33 -18c13 -14 28 -31 79 -31 c54 0 68 19 81 33c8 9 15 16 31 16zM262 531c158 0 215 -70 215 -167v-188c0 -103 12 -124 12 -145c0 -24 -87 -32 -112 -32c-32 0 -34 42 -40 69c-7 -13 -55 -76 -147 -76c-108 0 -148 64 -148 146s33 186 287 186v33c0 38 -23 57 -78 57c-73 0 -116 -32 -128 -32 c-21 0 -52 59 -52 80c0 34 80 69 191 69zM329 227c-95 0 -140 -26 -140 -74c0 -25 17 -44 50 -44c38 0 74 27 90 63v55z" />
<glyph unicode="&#x1eb7;" horiz-adv-x="545" d="M385 715c22 0 35 -10 35 -28c0 -57 -60 -112 -147 -112s-147 55 -147 112c0 18 13 28 35 28c17 0 24 -8 33 -18c13 -14 28 -31 79 -31c54 0 68 19 81 33c8 9 15 16 31 16zM262 531c158 0 215 -70 215 -167v-188c0 -103 12 -124 12 -145c0 -24 -87 -32 -112 -32 c-32 0 -34 42 -40 69c-7 -13 -55 -76 -147 -76c-108 0 -148 64 -148 146s33 186 287 186v33c0 38 -23 57 -78 57c-73 0 -116 -32 -128 -32c-21 0 -52 59 -52 80c0 34 80 69 191 69zM329 227c-95 0 -140 -26 -140 -74c0 -25 17 -44 50 -44c38 0 74 27 90 63v55zM275 -80 c42 0 60 -11 60 -32v-60c0 -21 -18 -32 -60 -32s-60 11 -60 32v60c0 21 18 32 60 32z" />
<glyph unicode="&#x1eb1;" horiz-adv-x="545" d="M199 897c40 0 73 -6 85 -27c46 -81 65 -106 65 -117s-7 -15 -31 -15c-47 0 -64 13 -75 25c-97 106 -104 108 -104 120c0 11 20 14 60 14zM385 715c22 0 35 -10 35 -28c0 -57 -60 -112 -147 -112s-147 55 -147 112c0 18 13 28 35 28c17 0 24 -8 33 -18 c13 -14 28 -31 79 -31c54 0 68 19 81 33c8 9 15 16 31 16zM262 531c158 0 215 -70 215 -167v-188c0 -103 12 -124 12 -145c0 -24 -87 -32 -112 -32c-32 0 -34 42 -40 69c-7 -13 -55 -76 -147 -76c-108 0 -148 64 -148 146s33 186 287 186v33c0 38 -23 57 -78 57 c-73 0 -116 -32 -128 -32c-21 0 -52 59 -52 80c0 34 80 69 191 69zM329 227c-95 0 -140 -26 -140 -74c0 -25 17 -44 50 -44c38 0 74 27 90 63v55z" />
<glyph unicode="&#x1eb3;" horiz-adv-x="545" d="M310 831c0 14 -16 22 -32 22c-22 0 -33 -12 -42 -12c-8 0 -30 27 -30 42c0 13 45 31 80 31c72 0 111 -30 111 -79c0 -53 -82 -102 -100 -102c-24 0 -54 15 -54 23c0 17 67 45 67 75zM385 715c22 0 35 -10 35 -28c0 -57 -60 -112 -147 -112s-147 55 -147 112 c0 18 13 28 35 28c17 0 24 -8 33 -18c13 -14 28 -31 79 -31c54 0 68 19 81 33c8 9 15 16 31 16zM262 531c158 0 215 -70 215 -167v-188c0 -103 12 -124 12 -145c0 -24 -87 -32 -112 -32c-32 0 -34 42 -40 69c-7 -13 -55 -76 -147 -76c-108 0 -148 64 -148 146 s33 186 287 186v33c0 38 -23 57 -78 57c-73 0 -116 -32 -128 -32c-21 0 -52 59 -52 80c0 34 80 69 191 69zM329 227c-95 0 -140 -26 -140 -74c0 -25 17 -44 50 -44c38 0 74 27 90 63v55z" />
<glyph unicode="&#x1eb5;" horiz-adv-x="545" d="M204 870c31 0 98 -27 128 -29c8 0 19 2 30 16c14 19 24 19 37 15l10 -3c22 -7 23 -27 18 -41c-12 -36 -47 -70 -99 -70c-31 0 -98 27 -128 29c-8 0 -19 -2 -30 -16c-14 -19 -24 -19 -37 -15l-10 3c-22 7 -23 27 -18 41c12 36 47 70 99 70zM385 715c22 0 35 -10 35 -28 c0 -57 -60 -112 -147 -112s-147 55 -147 112c0 18 13 28 35 28c17 0 24 -8 33 -18c13 -14 28 -31 79 -31c54 0 68 19 81 33c8 9 15 16 31 16zM262 531c158 0 215 -70 215 -167v-188c0 -103 12 -124 12 -145c0 -24 -87 -32 -112 -32c-32 0 -34 42 -40 69 c-7 -13 -55 -76 -147 -76c-108 0 -148 64 -148 146s33 186 287 186v33c0 38 -23 57 -78 57c-73 0 -116 -32 -128 -32c-21 0 -52 59 -52 80c0 34 80 69 191 69zM329 227c-95 0 -140 -26 -140 -74c0 -25 17 -44 50 -44c38 0 74 27 90 63v55z" />
<glyph unicode="&#xe2;" horiz-adv-x="545" d="M279 718c29 0 50 -1 61 -19l65 -102c4 -6 6 -11 6 -15c0 -7 -7 -10 -20 -10h-22c-29 0 -55 5 -68 24l-28 40l-28 -39c-15 -21 -38 -25 -67 -25h-22c-14 0 -20 3 -20 10c0 4 2 9 6 15l65 102c11 18 32 19 61 19h11zM262 531c158 0 215 -70 215 -167v-188 c0 -103 12 -124 12 -145c0 -24 -87 -32 -112 -32c-32 0 -34 42 -40 69c-7 -13 -55 -76 -147 -76c-108 0 -148 64 -148 146s33 186 287 186v33c0 38 -23 57 -78 57c-73 0 -116 -32 -128 -32c-21 0 -52 59 -52 80c0 34 80 69 191 69zM329 227c-95 0 -140 -26 -140 -74 c0 -25 17 -44 50 -44c38 0 74 27 90 63v55z" />
<glyph unicode="&#x1ea5;" horiz-adv-x="545" d="M487 863c40 0 60 -3 60 -14c0 -12 -7 -14 -104 -120c-11 -12 -28 -25 -75 -25c-24 0 -31 4 -31 15s19 36 65 117c12 21 45 27 85 27zM279 718c24 0 41 -1 51 -19l60 -102c4 -6 6 -11 6 -15c0 -7 -7 -10 -20 -10h-22c-29 0 -61 3 -68 24l-13 40l-28 -39 c-15 -21 -38 -25 -67 -25h-22c-14 0 -20 3 -20 10c0 4 2 9 6 15l65 102c11 18 32 19 61 19h11zM262 531c158 0 215 -70 215 -167v-188c0 -103 12 -124 12 -145c0 -24 -87 -32 -112 -32c-32 0 -34 42 -40 69c-7 -13 -55 -76 -147 -76c-108 0 -148 64 -148 146s33 186 287 186 v33c0 38 -23 57 -78 57c-73 0 -116 -32 -128 -32c-21 0 -52 59 -52 80c0 34 80 69 191 69zM329 227c-95 0 -140 -26 -140 -74c0 -25 17 -44 50 -44c38 0 74 27 90 63v55z" />
<glyph unicode="&#x1ead;" horiz-adv-x="545" d="M279 718c29 0 50 -1 61 -19l65 -102c4 -6 6 -11 6 -15c0 -7 -7 -10 -20 -10h-22c-29 0 -55 5 -68 24l-28 40l-28 -39c-15 -21 -38 -25 -67 -25h-22c-14 0 -20 3 -20 10c0 4 2 9 6 15l65 102c11 18 32 19 61 19h11zM262 531c158 0 215 -70 215 -167v-188 c0 -103 12 -124 12 -145c0 -24 -87 -32 -112 -32c-32 0 -34 42 -40 69c-7 -13 -55 -76 -147 -76c-108 0 -148 64 -148 146s33 186 287 186v33c0 38 -23 57 -78 57c-73 0 -116 -32 -128 -32c-21 0 -52 59 -52 80c0 34 80 69 191 69zM329 227c-95 0 -140 -26 -140 -74 c0 -25 17 -44 50 -44c38 0 74 27 90 63v55zM275 -80c42 0 60 -11 60 -32v-60c0 -21 -18 -32 -60 -32s-60 11 -60 32v60c0 21 18 32 60 32z" />
<glyph unicode="&#x1ea7;" horiz-adv-x="545" d="M333 863c40 0 73 -6 85 -27c46 -81 65 -106 65 -117s-7 -15 -31 -15c-47 0 -64 13 -75 25c-97 106 -104 108 -104 120c0 11 20 14 60 14zM279 718c24 0 41 -1 51 -19l60 -102c4 -6 6 -11 6 -15c0 -7 -7 -10 -20 -10h-22c-29 0 -61 3 -68 24l-13 40l-28 -39 c-15 -21 -38 -25 -67 -25h-22c-14 0 -20 3 -20 10c0 4 2 9 6 15l65 102c11 18 32 19 61 19h11zM262 531c158 0 215 -70 215 -167v-188c0 -103 12 -124 12 -145c0 -24 -87 -32 -112 -32c-32 0 -34 42 -40 69c-7 -13 -55 -76 -147 -76c-108 0 -148 64 -148 146s33 186 287 186 v33c0 38 -23 57 -78 57c-73 0 -116 -32 -128 -32c-21 0 -52 59 -52 80c0 34 80 69 191 69zM329 227c-95 0 -140 -26 -140 -74c0 -25 17 -44 50 -44c38 0 74 27 90 63v55z" />
<glyph unicode="&#x1ea9;" horiz-adv-x="545" d="M444 797c0 14 -16 22 -32 22c-22 0 -33 -12 -42 -12c-8 0 -30 27 -30 42c0 13 45 31 80 31c72 0 111 -30 111 -79c0 -53 -82 -102 -100 -102c-24 0 -54 15 -54 23c0 17 67 45 67 75zM279 718c24 0 41 -1 51 -19l60 -102c4 -6 6 -11 6 -15c0 -7 -7 -10 -20 -10h-22 c-29 0 -61 3 -68 24l-13 40l-28 -39c-15 -21 -38 -25 -67 -25h-22c-14 0 -20 3 -20 10c0 4 2 9 6 15l65 102c11 18 32 19 61 19h11zM262 531c158 0 215 -70 215 -167v-188c0 -103 12 -124 12 -145c0 -24 -87 -32 -112 -32c-32 0 -34 42 -40 69c-7 -13 -55 -76 -147 -76 c-108 0 -148 64 -148 146s33 186 287 186v33c0 38 -23 57 -78 57c-73 0 -116 -32 -128 -32c-21 0 -52 59 -52 80c0 34 80 69 191 69zM329 227c-95 0 -140 -26 -140 -74c0 -25 17 -44 50 -44c38 0 74 27 90 63v55z" />
<glyph unicode="&#x1eab;" horiz-adv-x="545" d="M213 870c31 0 98 -27 128 -29c8 0 19 2 30 16c14 19 24 19 37 15l10 -3c22 -7 23 -27 18 -41c-12 -36 -47 -70 -99 -70c-31 0 -98 27 -128 29c-8 0 -19 -2 -30 -16c-14 -19 -24 -19 -37 -15l-10 3c-22 7 -23 27 -18 41c12 36 47 70 99 70zM279 718c29 0 50 -1 61 -19 l65 -102c4 -6 6 -11 6 -15c0 -7 -7 -10 -20 -10h-22c-29 0 -55 5 -68 24l-28 40l-28 -39c-15 -21 -38 -25 -67 -25h-22c-14 0 -20 3 -20 10c0 4 2 9 6 15l65 102c11 18 32 19 61 19h11zM262 531c158 0 215 -70 215 -167v-188c0 -103 12 -124 12 -145c0 -24 -87 -32 -112 -32 c-32 0 -34 42 -40 69c-7 -13 -55 -76 -147 -76c-108 0 -148 64 -148 146s33 186 287 186v33c0 38 -23 57 -78 57c-73 0 -116 -32 -128 -32c-21 0 -52 59 -52 80c0 34 80 69 191 69zM329 227c-95 0 -140 -26 -140 -74c0 -25 17 -44 50 -44c38 0 74 27 90 63v55z" />
<glyph unicode="&#xe4;" horiz-adv-x="545" d="M183 702c42 0 60 -11 60 -32v-60c0 -21 -18 -32 -60 -32s-60 11 -60 32v60c0 21 18 32 60 32zM363 702c42 0 60 -11 60 -32v-60c0 -21 -18 -32 -60 -32s-60 11 -60 32v60c0 21 18 32 60 32zM262 531c158 0 215 -70 215 -167v-188c0 -103 12 -124 12 -145 c0 -24 -87 -32 -112 -32c-32 0 -34 42 -40 69c-7 -13 -55 -76 -147 -76c-108 0 -148 64 -148 146s33 186 287 186v33c0 38 -23 57 -78 57c-73 0 -116 -32 -128 -32c-21 0 -52 59 -52 80c0 34 80 69 191 69zM329 227c-95 0 -140 -26 -140 -74c0 -25 17 -44 50 -44 c38 0 74 27 90 63v55z" />
<glyph unicode="&#x1ea1;" horiz-adv-x="545" d="M262 531c158 0 215 -70 215 -167v-188c0 -103 12 -124 12 -145c0 -24 -87 -32 -112 -32c-32 0 -34 42 -40 69c-7 -13 -55 -76 -147 -76c-108 0 -148 64 -148 146s33 186 287 186v33c0 38 -23 57 -78 57c-73 0 -116 -32 -128 -32c-21 0 -52 59 -52 80c0 34 80 69 191 69z M329 227c-95 0 -140 -26 -140 -74c0 -25 17 -44 50 -44c38 0 74 27 90 63v55zM275 -80c42 0 60 -11 60 -32v-60c0 -21 -18 -32 -60 -32s-60 11 -60 32v60c0 21 18 32 60 32z" />
<glyph unicode="&#xe0;" horiz-adv-x="545" d="M199 734c40 0 73 -6 85 -27c46 -81 65 -106 65 -117s-7 -15 -31 -15c-47 0 -64 13 -75 25c-97 106 -104 108 -104 120c0 11 20 14 60 14zM262 531c158 0 215 -70 215 -167v-188c0 -103 12 -124 12 -145c0 -24 -87 -32 -112 -32c-32 0 -34 42 -40 69 c-7 -13 -55 -76 -147 -76c-108 0 -148 64 -148 146s33 186 287 186v33c0 38 -23 57 -78 57c-73 0 -116 -32 -128 -32c-21 0 -52 59 -52 80c0 34 80 69 191 69zM329 227c-95 0 -140 -26 -140 -74c0 -25 17 -44 50 -44c38 0 74 27 90 63v55z" />
<glyph unicode="&#x1ea3;" horiz-adv-x="545" d="M310 668c0 14 -16 22 -32 22c-22 0 -33 -12 -42 -12c-8 0 -30 27 -30 42c0 13 45 31 80 31c72 0 111 -30 111 -79c0 -53 -82 -102 -100 -102c-24 0 -54 15 -54 23c0 17 67 45 67 75zM262 531c158 0 215 -70 215 -167v-188c0 -103 12 -124 12 -145c0 -24 -87 -32 -112 -32 c-32 0 -34 42 -40 69c-7 -13 -55 -76 -147 -76c-108 0 -148 64 -148 146s33 186 287 186v33c0 38 -23 57 -78 57c-73 0 -116 -32 -128 -32c-21 0 -52 59 -52 80c0 34 80 69 191 69zM329 227c-95 0 -140 -26 -140 -74c0 -25 17 -44 50 -44c38 0 74 27 90 63v55z" />
<glyph unicode="&#x101;" horiz-adv-x="545" d="M381 692c21 0 30 -12 30 -40v-15c0 -28 -9 -40 -30 -40h-215c-21 0 -30 12 -30 40v15c0 28 9 40 30 40h215zM262 531c158 0 215 -70 215 -167v-188c0 -103 12 -124 12 -145c0 -24 -87 -32 -112 -32c-32 0 -34 42 -40 69c-7 -13 -55 -76 -147 -76c-108 0 -148 64 -148 146 s33 186 287 186v33c0 38 -23 57 -78 57c-73 0 -116 -32 -128 -32c-21 0 -52 59 -52 80c0 34 80 69 191 69zM329 227c-95 0 -140 -26 -140 -74c0 -25 17 -44 50 -44c38 0 74 27 90 63v55z" />
<glyph unicode="&#x105;" horiz-adv-x="545" d="M582 -74c14 0 22 -9 22 -28c0 -42 -44 -50 -82 -50c-107 0 -118 73 -118 102c0 11 2 32 8 51c-14 -1 -27 -2 -35 -2c-32 0 -34 42 -40 69c-7 -13 -55 -76 -147 -76c-108 0 -148 64 -148 146s33 186 287 186v33c0 38 -23 57 -78 57c-73 0 -116 -32 -128 -32 c-21 0 -52 59 -52 80c0 34 80 69 191 69c158 0 215 -70 215 -167v-188c0 -103 12 -124 12 -145c0 -4 -3 -8 -8 -11c-2 -13 -10 -26 -10 -51c0 -48 39 -51 62 -51c25 0 31 8 49 8zM329 172v55c-95 0 -140 -26 -140 -74c0 -25 17 -44 50 -44c38 0 74 27 90 63z" />
<glyph unicode="&#xe5;" horiz-adv-x="545" d="M273 749c56 0 100 -44 100 -100s-44 -99 -100 -99s-99 43 -99 99s43 100 99 100zM273 685c-20 0 -36 -17 -36 -37s16 -36 36 -36s37 16 37 36s-17 37 -37 37zM262 531c158 0 215 -70 215 -167v-188c0 -103 12 -124 12 -145c0 -24 -87 -32 -112 -32c-32 0 -34 42 -40 69 c-7 -13 -55 -76 -147 -76c-108 0 -148 64 -148 146s33 186 287 186v33c0 38 -23 57 -78 57c-73 0 -116 -32 -128 -32c-21 0 -52 59 -52 80c0 34 80 69 191 69zM329 227c-95 0 -140 -26 -140 -74c0 -25 17 -44 50 -44c38 0 74 27 90 63v55z" />
<glyph unicode="&#x1fb;" horiz-adv-x="545" d="M383 924c40 0 60 -3 60 -14c0 -12 -7 -14 -104 -120c-11 -12 -28 -25 -75 -25c-24 0 -31 4 -31 15s19 36 65 117c12 21 45 27 85 27zM273 749c56 0 100 -44 100 -100s-44 -99 -100 -99s-99 43 -99 99s43 100 99 100zM273 685c-20 0 -36 -17 -36 -37s16 -36 36 -36 s37 16 37 36s-17 37 -37 37zM262 531c158 0 215 -70 215 -167v-188c0 -103 12 -124 12 -145c0 -24 -87 -32 -112 -32c-32 0 -34 42 -40 69c-7 -13 -55 -76 -147 -76c-108 0 -148 64 -148 146s33 186 287 186v33c0 38 -23 57 -78 57c-73 0 -116 -32 -128 -32 c-21 0 -52 59 -52 80c0 34 80 69 191 69zM329 227c-95 0 -140 -26 -140 -74c0 -25 17 -44 50 -44c38 0 74 27 90 63v55z" />
<glyph unicode="&#xe3;" horiz-adv-x="545" d="M194 694c34 0 108 -27 141 -29c8 0 20 2 33 16c15 19 26 19 40 15l11 -3c24 -7 26 -27 20 -41c-13 -36 -52 -70 -109 -70c-34 0 -108 27 -141 29c-8 0 -21 -2 -33 -16c-15 -19 -26 -19 -40 -15l-11 3c-25 7 -26 27 -20 41c13 36 52 70 109 70zM262 531 c158 0 215 -70 215 -167v-188c0 -103 12 -124 12 -145c0 -24 -87 -32 -112 -32c-32 0 -34 42 -40 69c-7 -13 -55 -76 -147 -76c-108 0 -148 64 -148 146s33 186 287 186v33c0 38 -23 57 -78 57c-73 0 -116 -32 -128 -32c-21 0 -52 59 -52 80c0 34 80 69 191 69zM329 227 c-95 0 -140 -26 -140 -74c0 -25 17 -44 50 -44c38 0 74 27 90 63v55z" />
<glyph unicode="&#xe6;" horiz-adv-x="829" d="M564 531c157 0 216 -109 216 -248c0 -17 -36 -59 -49 -59h-255c0 -87 55 -115 113 -115c63 0 107 31 121 31c22 0 52 -56 52 -76c0 -50 -124 -72 -180 -72c-88 0 -152 25 -195 68c-23 -23 -87 -68 -180 -68c-108 0 -166 64 -166 146c0 81 33 184 284 185c3 24 8 45 15 64 c-16 21 -51 27 -90 27c-62 0 -112 -32 -128 -32c-21 0 -52 59 -52 80c0 34 80 69 191 69c74 0 127 -13 161 -36c39 24 87 36 142 36zM564 414c-34 0 -78 -14 -90 -91h162c0 58 -28 91 -72 91zM322 225c-91 -1 -134 -25 -134 -72c0 -25 17 -44 50 -44c35 0 77 16 96 47 c-6 21 -10 44 -12 69z" />
<glyph unicode="&#x1fd;" horiz-adv-x="829" d="M495 734c40 0 60 -3 60 -14c0 -12 -7 -14 -104 -120c-11 -12 -28 -25 -75 -25c-24 0 -31 4 -31 15s19 36 65 117c12 21 45 27 85 27zM564 531c157 0 216 -109 216 -248c0 -17 -36 -59 -49 -59h-255c0 -87 55 -115 113 -115c63 0 107 31 121 31c22 0 52 -56 52 -76 c0 -50 -124 -72 -180 -72c-88 0 -152 25 -195 68c-23 -23 -87 -68 -180 -68c-108 0 -166 64 -166 146c0 81 33 184 284 185c3 24 8 45 15 64c-16 21 -51 27 -90 27c-62 0 -112 -32 -128 -32c-21 0 -52 59 -52 80c0 34 80 69 191 69c74 0 127 -13 161 -36c39 24 87 36 142 36 zM564 414c-34 0 -78 -14 -90 -91h162c0 58 -28 91 -72 91zM322 225c-91 -1 -134 -25 -134 -72c0 -25 17 -44 50 -44c35 0 77 16 96 47c-6 21 -10 44 -12 69z" />
<glyph unicode="b" horiz-adv-x="569" d="M154 754c42 0 60 -11 60 -32v-222c21 15 55 31 102 31c135 0 211 -106 211 -269c0 -174 -79 -270 -187 -270c-62 0 -111 32 -134 75c-3 -14 -6 -29 -10 -43c-6 -22 -26 -26 -58 -26h-12c-42 0 -60 11 -60 32v692c0 21 18 32 60 32h28zM284 414c-31 0 -54 -10 -70 -19 v-223c18 -31 44 -59 82 -59c55 0 81 52 81 149c0 100 -30 152 -93 152z" />
<glyph unicode="c" horiz-adv-x="485" d="M299 531c71 0 166 -23 166 -69c0 -19 -36 -77 -53 -77c-4 0 -10 3 -18 7c-18 9 -45 22 -87 22c-80 0 -113 -50 -113 -152c0 -103 31 -153 107 -153c47 0 79 14 98 23c8 3 14 6 18 6c22 0 52 -56 52 -76c0 -56 -142 -70 -175 -70c-171 0 -252 87 -252 266 c0 178 78 273 257 273z" />
<glyph unicode="&#x107;" horiz-adv-x="485" d="M355 734c40 0 60 -3 60 -14c0 -12 -7 -14 -104 -120c-11 -12 -28 -25 -75 -25c-24 0 -31 4 -31 15s19 36 65 117c12 21 45 27 85 27zM299 531c71 0 166 -23 166 -69c0 -19 -36 -77 -53 -77c-4 0 -10 3 -18 7c-18 9 -45 22 -87 22c-80 0 -113 -50 -113 -152 c0 -103 31 -153 107 -153c47 0 79 14 98 23c8 3 14 6 18 6c22 0 52 -56 52 -76c0 -56 -142 -70 -175 -70c-171 0 -252 87 -252 266c0 178 78 273 257 273z" />
<glyph unicode="&#x10d;" horiz-adv-x="485" d="M393 718c13 0 20 -3 20 -10c0 -4 -2 -9 -6 -15l-65 -102c-11 -18 -32 -19 -61 -19h-11c-29 0 -50 1 -61 19l-65 102c-4 6 -6 11 -6 15c0 7 6 10 20 10h22c29 0 52 -4 67 -25l28 -39l28 40c13 19 39 24 68 24h22zM299 531c71 0 166 -23 166 -69c0 -19 -36 -77 -53 -77 c-4 0 -10 3 -18 7c-18 9 -45 22 -87 22c-80 0 -113 -50 -113 -152c0 -103 31 -153 107 -153c47 0 79 14 98 23c8 3 14 6 18 6c22 0 52 -56 52 -76c0 -56 -142 -70 -175 -70c-171 0 -252 87 -252 266c0 178 78 273 257 273z" />
<glyph unicode="&#xe7;" horiz-adv-x="485" d="M469 62c0 -45 -92 -63 -145 -68l-8 -30c35 -5 77 -25 77 -76c0 -68 -40 -100 -119 -100c-56 0 -131 18 -131 50c0 34 25 44 32 44c23 0 49 -21 91 -21c18 0 24 6 24 17c0 25 -53 24 -53 48c0 4 1 9 20 68c-146 12 -215 99 -215 264c0 178 78 273 257 273 c71 0 166 -23 166 -69c0 -19 -36 -77 -53 -77c-4 0 -10 3 -18 7c-18 9 -45 22 -87 22c-80 0 -113 -50 -113 -152c0 -103 31 -153 107 -153c47 0 79 14 98 23c8 3 14 6 18 6c22 0 52 -56 52 -76z" />
<glyph unicode="&#x109;" horiz-adv-x="485" d="M281 718c29 0 50 -1 61 -19l65 -102c4 -6 6 -11 6 -15c0 -7 -7 -10 -20 -10h-22c-29 0 -55 5 -68 24l-28 40l-28 -39c-15 -21 -38 -25 -67 -25h-22c-14 0 -20 3 -20 10c0 4 2 9 6 15l65 102c11 18 32 19 61 19h11zM299 531c71 0 166 -23 166 -69c0 -19 -36 -77 -53 -77 c-4 0 -10 3 -18 7c-18 9 -45 22 -87 22c-80 0 -113 -50 -113 -152c0 -103 31 -153 107 -153c47 0 79 14 98 23c8 3 14 6 18 6c22 0 52 -56 52 -76c0 -56 -142 -70 -175 -70c-171 0 -252 87 -252 266c0 178 78 273 257 273z" />
<glyph unicode="&#x10b;" horiz-adv-x="485" d="M275 702c42 0 60 -11 60 -32v-60c0 -21 -18 -32 -60 -32s-60 11 -60 32v60c0 21 18 32 60 32zM299 531c71 0 166 -23 166 -69c0 -19 -36 -77 -53 -77c-4 0 -10 3 -18 7c-18 9 -45 22 -87 22c-80 0 -113 -50 -113 -152c0 -103 31 -153 107 -153c47 0 79 14 98 23 c8 3 14 6 18 6c22 0 52 -56 52 -76c0 -56 -142 -70 -175 -70c-171 0 -252 87 -252 266c0 178 78 273 257 273z" />
<glyph unicode="d" horiz-adv-x="565" d="M443 754c42 0 60 -11 60 -32v-546c0 -103 12 -124 12 -145c0 -24 -87 -32 -112 -32c-32 0 -34 42 -40 68c-23 -43 -72 -75 -134 -75c-108 0 -187 96 -187 270c0 163 76 269 211 269c47 0 81 -16 102 -31v222c0 21 18 32 60 32h28zM285 414c-63 0 -93 -52 -93 -152 c0 -97 26 -149 81 -149c38 0 64 28 82 59v223c-16 9 -39 19 -70 19z" />
<glyph unicode="&#xf0;" horiz-adv-x="569" d="M311 715c15 0 27 -4 38 -11c14 -10 26 -25 40 -43l68 9c17 0 37 -22 37 -42c0 -9 -7 -14 -21 -16l-46 -6c50 -77 100 -209 100 -344c0 -174 -83 -270 -242 -270s-243 96 -243 270s84 269 243 269c18 0 35 -2 51 -4c-10 23 -21 43 -32 62c-55 -8 -58 -8 -61 -8 c-20 0 -39 21 -39 42c0 9 6 14 21 16l43 6c-13 17 -38 43 -38 51c0 6 6 10 19 12c21 2 41 5 62 7zM285 414c-64 0 -93 -52 -93 -152s29 -153 93 -153s92 53 92 153s-28 152 -92 152z" />
<glyph unicode="&#x10f;" horiz-adv-x="565" d="M443 754c42 0 60 -11 60 -32v-546c0 -103 12 -124 12 -145c0 -24 -87 -32 -112 -32c-32 0 -34 42 -40 68c-23 -43 -72 -75 -134 -75c-108 0 -187 96 -187 270c0 163 76 269 211 269c47 0 81 -16 102 -31v222c0 21 18 32 60 32h28zM634 700c35 0 50 -19 50 -44 c0 -67 -59 -143 -88 -145c-18 0 -45 6 -45 22c0 51 4 88 4 123c0 27 18 44 60 44h19zM285 414c-63 0 -93 -52 -93 -152c0 -97 26 -149 81 -149c38 0 64 28 82 59v223c-16 9 -39 19 -70 19z" />
<glyph unicode="&#x111;" horiz-adv-x="565" d="M519 678c21 0 30 -12 30 -40v-15c0 -28 -9 -40 -30 -40h-16v-407c0 -103 12 -124 12 -145c0 -24 -87 -32 -112 -32c-32 0 -34 42 -40 68c-23 -43 -72 -75 -134 -75c-108 0 -187 96 -187 270c0 163 76 269 211 269c47 0 81 -16 102 -31v83h-51c-21 0 -30 12 -30 40v15 c0 28 9 40 30 40h51v44c0 21 18 32 60 32h28c42 0 60 -11 60 -32v-44h16zM355 172v223c-16 9 -39 19 -70 19c-63 0 -93 -52 -93 -152c0 -97 26 -149 81 -149c38 0 64 28 82 59z" />
<glyph unicode="&#x1e0d;" horiz-adv-x="565" d="M443 754c42 0 60 -11 60 -32v-546c0 -103 12 -124 12 -145c0 -24 -87 -32 -112 -32c-32 0 -34 42 -40 68c-23 -43 -72 -75 -134 -75c-108 0 -187 96 -187 270c0 163 76 269 211 269c47 0 81 -16 102 -31v222c0 21 18 32 60 32h28zM285 414c-63 0 -93 -52 -93 -152 c0 -97 26 -149 81 -149c38 0 64 28 82 59v223c-16 9 -39 19 -70 19zM293 -80c42 0 60 -11 60 -32v-60c0 -21 -18 -32 -60 -32s-60 11 -60 32v60c0 21 18 32 60 32z" />
<glyph unicode="&#x1f3;" horiz-adv-x="1054" d="M443 754c42 0 60 -11 60 -32v-546c0 -103 12 -124 12 -145c0 -24 -87 -32 -112 -32c-32 0 -34 42 -40 68c-23 -43 -72 -75 -134 -75c-108 0 -187 96 -187 270c0 163 76 269 211 269c47 0 81 -16 102 -31v222c0 21 18 32 60 32h28zM992 523c11 0 29 -49 29 -77 c0 -7 -1 -12 -3 -15l-228 -314h205c21 0 30 -15 30 -50v-17c0 -35 -9 -50 -30 -50h-374c-13 0 -29 50 -29 76c0 6 1 11 3 14l229 316h-186c-21 0 -30 15 -30 50v17c0 35 9 50 30 50h354zM285 414c-63 0 -93 -52 -93 -152c0 -97 26 -149 81 -149c38 0 64 28 82 59v223 c-16 9 -39 19 -70 19z" />
<glyph unicode="&#x1c6;" horiz-adv-x="1054" d="M443 754c42 0 60 -11 60 -32v-546c0 -103 12 -124 12 -145c0 -24 -87 -32 -112 -32c-32 0 -34 42 -40 68c-23 -43 -72 -75 -134 -75c-108 0 -187 96 -187 270c0 163 76 269 211 269c47 0 81 -16 102 -31v222c0 21 18 32 60 32h28zM928 718c13 0 20 -3 20 -10 c0 -4 -2 -9 -6 -15l-65 -102c-11 -18 -32 -19 -61 -19h-11c-29 0 -50 1 -61 19l-65 102c-4 6 -6 11 -6 15c0 7 6 10 20 10h22c29 0 52 -4 67 -25l28 -39l28 40c13 19 39 24 68 24h22zM992 523c11 0 29 -49 29 -77c0 -7 -1 -12 -3 -15l-228 -314h205c21 0 30 -15 30 -50v-17 c0 -35 -9 -50 -30 -50h-374c-13 0 -29 50 -29 76c0 6 1 11 3 14l229 316h-186c-21 0 -30 15 -30 50v17c0 35 9 50 30 50h354zM285 414c-63 0 -93 -52 -93 -152c0 -97 26 -149 81 -149c38 0 64 28 82 59v223c-16 9 -39 19 -70 19z" />
<glyph unicode="e" horiz-adv-x="539" d="M285 531c157 0 216 -119 216 -258c0 -17 -38 -59 -51 -59h-255c7 -80 50 -105 115 -105c63 0 107 31 121 31c22 0 52 -56 52 -76c0 -50 -124 -72 -180 -72c-181 0 -261 105 -261 266c0 197 100 273 243 273zM285 414c-42 0 -78 -24 -90 -101h162c0 58 -22 101 -72 101z " />
<glyph unicode="&#xe9;" horiz-adv-x="539" d="M350 734c40 0 60 -3 60 -14c0 -12 -7 -14 -104 -120c-11 -12 -28 -25 -75 -25c-24 0 -31 4 -31 15s19 36 65 117c12 21 45 27 85 27zM285 531c157 0 216 -119 216 -258c0 -17 -38 -59 -51 -59h-255c7 -80 50 -105 115 -105c63 0 107 31 121 31c22 0 52 -56 52 -76 c0 -50 -124 -72 -180 -72c-181 0 -261 105 -261 266c0 197 100 273 243 273zM285 414c-42 0 -78 -24 -90 -101h162c0 58 -22 101 -72 101z" />
<glyph unicode="&#x115;" horiz-adv-x="539" d="M382 715c22 0 35 -10 35 -28c0 -57 -60 -112 -147 -112s-147 55 -147 112c0 18 13 28 35 28c17 0 24 -8 33 -18c13 -14 28 -31 79 -31c54 0 68 19 81 33c8 9 15 16 31 16zM285 531c157 0 216 -119 216 -258c0 -17 -38 -59 -51 -59h-255c7 -80 50 -105 115 -105 c63 0 107 31 121 31c22 0 52 -56 52 -76c0 -50 -124 -72 -180 -72c-181 0 -261 105 -261 266c0 197 100 273 243 273zM285 414c-42 0 -78 -24 -90 -101h162c0 58 -22 101 -72 101z" />
<glyph unicode="&#x11b;" horiz-adv-x="539" d="M388 718c13 0 20 -3 20 -10c0 -4 -2 -9 -6 -15l-65 -102c-11 -18 -32 -19 -61 -19h-11c-29 0 -50 1 -61 19l-65 102c-4 6 -6 11 -6 15c0 7 6 10 20 10h22c29 0 52 -4 67 -25l28 -39l28 40c13 19 39 24 68 24h22zM285 531c157 0 216 -119 216 -258c0 -17 -38 -59 -51 -59 h-255c7 -80 50 -105 115 -105c63 0 107 31 121 31c22 0 52 -56 52 -76c0 -50 -124 -72 -180 -72c-181 0 -261 105 -261 266c0 197 100 273 243 273zM285 414c-42 0 -78 -24 -90 -101h162c0 58 -22 101 -72 101z" />
<glyph unicode="&#xea;" horiz-adv-x="539" d="M276 718c29 0 50 -1 61 -19l65 -102c4 -6 6 -11 6 -15c0 -7 -7 -10 -20 -10h-22c-29 0 -55 5 -68 24l-28 40l-28 -39c-15 -21 -38 -25 -67 -25h-22c-14 0 -20 3 -20 10c0 4 2 9 6 15l65 102c11 18 32 19 61 19h11zM285 531c157 0 216 -119 216 -258 c0 -17 -38 -59 -51 -59h-255c7 -80 50 -105 115 -105c63 0 107 31 121 31c22 0 52 -56 52 -76c0 -50 -124 -72 -180 -72c-181 0 -261 105 -261 266c0 197 100 273 243 273zM285 414c-42 0 -78 -24 -90 -101h162c0 58 -22 101 -72 101z" />
<glyph unicode="&#x1ebf;" horiz-adv-x="539" d="M484 863c40 0 60 -3 60 -14c0 -12 -7 -14 -104 -120c-11 -12 -28 -25 -75 -25c-24 0 -31 4 -31 15s19 36 65 117c12 21 45 27 85 27zM276 718c24 0 41 -1 51 -19l60 -102c4 -6 6 -11 6 -15c0 -7 -7 -10 -20 -10h-22c-29 0 -61 3 -68 24l-13 40l-28 -39 c-15 -21 -38 -25 -67 -25h-22c-14 0 -20 3 -20 10c0 4 2 9 6 15l65 102c11 18 32 19 61 19h11zM285 531c157 0 216 -119 216 -258c0 -17 -38 -59 -51 -59h-255c7 -80 50 -105 115 -105c63 0 107 31 121 31c22 0 52 -56 52 -76c0 -50 -124 -72 -180 -72 c-181 0 -261 105 -261 266c0 197 100 273 243 273zM285 414c-42 0 -78 -24 -90 -101h162c0 58 -22 101 -72 101z" />
<glyph unicode="&#x1ec7;" horiz-adv-x="539" d="M276 718c29 0 50 -1 61 -19l65 -102c4 -6 6 -11 6 -15c0 -7 -7 -10 -20 -10h-22c-29 0 -55 5 -68 24l-28 40l-28 -39c-15 -21 -38 -25 -67 -25h-22c-14 0 -20 3 -20 10c0 4 2 9 6 15l65 102c11 18 32 19 61 19h11zM285 531c157 0 216 -119 216 -258 c0 -17 -38 -59 -51 -59h-255c7 -80 50 -105 115 -105c63 0 107 31 121 31c22 0 52 -56 52 -76c0 -50 -124 -72 -180 -72c-181 0 -261 105 -261 266c0 197 100 273 243 273zM285 414c-42 0 -78 -24 -90 -101h162c0 58 -22 101 -72 101zM272 -80c42 0 60 -11 60 -32v-60 c0 -21 -18 -32 -60 -32s-60 11 -60 32v60c0 21 18 32 60 32z" />
<glyph unicode="&#x1ec1;" horiz-adv-x="539" d="M330 863c40 0 73 -6 85 -27c46 -81 65 -106 65 -117s-7 -15 -31 -15c-47 0 -64 13 -75 25c-97 106 -104 108 -104 120c0 11 20 14 60 14zM276 718c24 0 41 -1 51 -19l60 -102c4 -6 6 -11 6 -15c0 -7 -7 -10 -20 -10h-22c-29 0 -61 3 -68 24l-13 40l-28 -39 c-15 -21 -38 -25 -67 -25h-22c-14 0 -20 3 -20 10c0 4 2 9 6 15l65 102c11 18 32 19 61 19h11zM285 531c157 0 216 -119 216 -258c0 -17 -38 -59 -51 -59h-255c7 -80 50 -105 115 -105c63 0 107 31 121 31c22 0 52 -56 52 -76c0 -50 -124 -72 -180 -72 c-181 0 -261 105 -261 266c0 197 100 273 243 273zM285 414c-42 0 -78 -24 -90 -101h162c0 58 -22 101 -72 101z" />
<glyph unicode="&#x1ec3;" horiz-adv-x="539" d="M441 797c0 14 -16 22 -32 22c-22 0 -33 -12 -42 -12c-8 0 -30 27 -30 42c0 13 45 31 80 31c72 0 111 -30 111 -79c0 -53 -82 -102 -100 -102c-24 0 -54 15 -54 23c0 17 67 45 67 75zM276 718c24 0 41 -1 51 -19l60 -102c4 -6 6 -11 6 -15c0 -7 -7 -10 -20 -10h-22 c-29 0 -61 3 -68 24l-13 40l-28 -39c-15 -21 -38 -25 -67 -25h-22c-14 0 -20 3 -20 10c0 4 2 9 6 15l65 102c11 18 32 19 61 19h11zM285 531c157 0 216 -119 216 -258c0 -17 -38 -59 -51 -59h-255c7 -80 50 -105 115 -105c63 0 107 31 121 31c22 0 52 -56 52 -76 c0 -50 -124 -72 -180 -72c-181 0 -261 105 -261 266c0 197 100 273 243 273zM285 414c-42 0 -78 -24 -90 -101h162c0 58 -22 101 -72 101z" />
<glyph unicode="&#x1ec5;" horiz-adv-x="539" d="M210 870c31 0 98 -27 128 -29c8 0 19 2 30 16c14 19 24 19 37 15l10 -3c22 -7 23 -27 18 -41c-12 -36 -47 -70 -99 -70c-31 0 -98 27 -128 29c-8 0 -19 -2 -30 -16c-14 -19 -24 -19 -37 -15l-10 3c-22 7 -23 27 -18 41c12 36 47 70 99 70zM276 718c29 0 50 -1 61 -19 l65 -102c4 -6 6 -11 6 -15c0 -7 -7 -10 -20 -10h-22c-29 0 -55 5 -68 24l-28 40l-28 -39c-15 -21 -38 -25 -67 -25h-22c-14 0 -20 3 -20 10c0 4 2 9 6 15l65 102c11 18 32 19 61 19h11zM285 531c157 0 216 -119 216 -258c0 -17 -38 -59 -51 -59h-255c7 -80 50 -105 115 -105 c63 0 107 31 121 31c22 0 52 -56 52 -76c0 -50 -124 -72 -180 -72c-181 0 -261 105 -261 266c0 197 100 273 243 273zM285 414c-42 0 -78 -24 -90 -101h162c0 58 -22 101 -72 101z" />
<glyph unicode="&#xeb;" horiz-adv-x="539" d="M180 702c42 0 60 -11 60 -32v-60c0 -21 -18 -32 -60 -32s-60 11 -60 32v60c0 21 18 32 60 32zM360 702c42 0 60 -11 60 -32v-60c0 -21 -18 -32 -60 -32s-60 11 -60 32v60c0 21 18 32 60 32zM285 531c157 0 216 -119 216 -258c0 -17 -38 -59 -51 -59h-255 c7 -80 50 -105 115 -105c63 0 107 31 121 31c22 0 52 -56 52 -76c0 -50 -124 -72 -180 -72c-181 0 -261 105 -261 266c0 197 100 273 243 273zM285 414c-42 0 -78 -24 -90 -101h162c0 58 -22 101 -72 101z" />
<glyph unicode="&#x117;" horiz-adv-x="539" d="M270 702c42 0 60 -11 60 -32v-60c0 -21 -18 -32 -60 -32s-60 11 -60 32v60c0 21 18 32 60 32zM285 531c157 0 216 -119 216 -258c0 -17 -38 -59 -51 -59h-255c7 -80 50 -105 115 -105c63 0 107 31 121 31c22 0 52 -56 52 -76c0 -50 -124 -72 -180 -72 c-181 0 -261 105 -261 266c0 197 100 273 243 273zM285 414c-42 0 -78 -24 -90 -101h162c0 58 -22 101 -72 101z" />
<glyph unicode="&#x1eb9;" horiz-adv-x="539" d="M285 531c157 0 216 -119 216 -258c0 -17 -38 -59 -51 -59h-255c7 -80 50 -105 115 -105c63 0 107 31 121 31c22 0 52 -56 52 -76c0 -50 -124 -72 -180 -72c-181 0 -261 105 -261 266c0 197 100 273 243 273zM285 414c-42 0 -78 -24 -90 -101h162c0 58 -22 101 -72 101z M272 -80c42 0 60 -11 60 -32v-60c0 -21 -18 -32 -60 -32s-60 11 -60 32v60c0 21 18 32 60 32z" />
<glyph unicode="&#xe8;" horiz-adv-x="539" d="M196 734c40 0 73 -6 85 -27c46 -81 65 -106 65 -117s-7 -15 -31 -15c-47 0 -64 13 -75 25c-97 106 -104 108 -104 120c0 11 20 14 60 14zM285 531c157 0 216 -119 216 -258c0 -17 -38 -59 -51 -59h-255c7 -80 50 -105 115 -105c63 0 107 31 121 31c22 0 52 -56 52 -76 c0 -50 -124 -72 -180 -72c-181 0 -261 105 -261 266c0 197 100 273 243 273zM285 414c-42 0 -78 -24 -90 -101h162c0 58 -22 101 -72 101z" />
<glyph unicode="&#x1ebb;" horiz-adv-x="539" d="M307 668c0 14 -16 22 -32 22c-22 0 -33 -12 -42 -12c-8 0 -30 27 -30 42c0 13 45 31 80 31c72 0 111 -30 111 -79c0 -53 -82 -102 -100 -102c-24 0 -54 15 -54 23c0 17 67 45 67 75zM285 531c157 0 216 -119 216 -258c0 -17 -38 -59 -51 -59h-255c7 -80 50 -105 115 -105 c63 0 107 31 121 31c22 0 52 -56 52 -76c0 -50 -124 -72 -180 -72c-181 0 -261 105 -261 266c0 197 100 273 243 273zM285 414c-42 0 -78 -24 -90 -101h162c0 58 -22 101 -72 101z" />
<glyph unicode="&#x113;" horiz-adv-x="539" d="M378 692c21 0 30 -12 30 -40v-15c0 -28 -9 -40 -30 -40h-215c-21 0 -30 12 -30 40v15c0 28 9 40 30 40h215zM285 531c157 0 216 -119 216 -258c0 -17 -38 -59 -51 -59h-255c7 -80 50 -105 115 -105c63 0 107 31 121 31c22 0 52 -56 52 -76c0 -50 -124 -72 -180 -72 c-181 0 -261 105 -261 266c0 197 100 273 243 273zM285 414c-42 0 -78 -24 -90 -101h162c0 58 -22 101 -72 101z" />
<glyph unicode="&#x119;" horiz-adv-x="539" d="M537 -91c14 0 22 -9 22 -28c0 -42 -44 -50 -82 -50c-107 0 -118 73 -118 102c0 13 3 44 15 66c-27 -5 -53 -7 -71 -7c-181 0 -261 105 -261 266c0 197 100 273 243 273c157 0 216 -119 216 -258c0 -17 -38 -59 -51 -59h-255c7 -80 50 -105 115 -105c63 0 107 31 121 31 c22 0 52 -56 52 -76s-20 -36 -47 -47c1 -2 1 -5 1 -8c0 -15 -11 -28 -11 -57c0 -48 39 -51 62 -51c25 0 31 8 49 8zM285 414c-42 0 -78 -24 -90 -101h162c0 58 -22 101 -72 101z" />
<glyph unicode="&#x1ebd;" horiz-adv-x="539" d="M191 694c34 0 108 -27 141 -29c8 0 20 2 33 16c15 19 26 19 40 15l11 -3c24 -7 26 -27 20 -41c-13 -36 -52 -70 -109 -70c-34 0 -108 27 -141 29c-8 0 -21 -2 -33 -16c-15 -19 -26 -19 -40 -15l-11 3c-25 7 -26 27 -20 41c13 36 52 70 109 70zM285 531 c157 0 216 -119 216 -258c0 -17 -38 -59 -51 -59h-255c7 -80 50 -105 115 -105c63 0 107 31 121 31c22 0 52 -56 52 -76c0 -50 -124 -72 -180 -72c-181 0 -261 105 -261 266c0 197 100 273 243 273zM285 414c-42 0 -78 -24 -90 -101h162c0 58 -22 101 -72 101z" />
<glyph unicode="f" horiz-adv-x="325" d="M225 760c32 0 100 -3 100 -49c0 -8 -11 -72 -31 -72c-7 0 -21 4 -31 4c-26 0 -36 -13 -36 -43v-77h50c21 0 30 -15 30 -50v-17c0 -35 -9 -50 -30 -50h-50v-376c0 -21 -18 -32 -60 -32h-28c-42 0 -60 11 -60 32v376h-18c-21 0 -30 15 -30 50v17c0 35 9 50 30 50h18v75 c0 111 52 162 146 162z" />
<glyph unicode="g" horiz-adv-x="546" d="M267 531c27 0 53 -3 77 -8h161c21 0 30 -15 30 -50v-17c0 -33 -8 -47 -24 -47c-7 0 -34 2 -43 4l-2 -4c9 -12 16 -37 16 -56c0 -125 -90 -177 -204 -177c-41 0 -61 -9 -61 -27c0 -33 73 -33 148 -46c77 -15 155 -45 155 -145c0 -103 -103 -170 -258 -170 c-161 0 -238 47 -238 138c0 52 32 93 91 116l1 4c-28 14 -43 42 -43 75c0 34 22 63 60 83c-49 27 -81 75 -81 149c0 129 96 178 215 178zM267 424c-41 0 -75 -21 -75 -71s34 -70 75 -70s75 20 75 70s-34 71 -75 71zM222 4c-35 -12 -54 -34 -54 -54c0 -27 31 -45 105 -45 c69 0 103 19 103 49c0 31 -40 42 -154 50z" />
<glyph unicode="&#x11f;" horiz-adv-x="546" d="M385 715c22 0 35 -10 35 -28c0 -57 -60 -112 -147 -112s-147 55 -147 112c0 18 13 28 35 28c17 0 24 -8 33 -18c13 -14 28 -31 79 -31c54 0 68 19 81 33c8 9 15 16 31 16zM267 531c27 0 53 -3 77 -8h161c21 0 30 -15 30 -50v-17c0 -33 -8 -47 -24 -47c-7 0 -34 2 -43 4 l-2 -4c9 -12 16 -37 16 -56c0 -125 -90 -177 -204 -177c-41 0 -61 -9 -61 -27c0 -33 73 -33 148 -46c77 -15 155 -45 155 -145c0 -103 -103 -170 -258 -170c-161 0 -238 47 -238 138c0 52 32 93 91 116l1 4c-28 14 -43 42 -43 75c0 34 22 63 60 83c-49 27 -81 75 -81 149 c0 129 96 178 215 178zM267 424c-41 0 -75 -21 -75 -71s34 -70 75 -70s75 20 75 70s-34 71 -75 71zM222 4c-35 -12 -54 -34 -54 -54c0 -27 31 -45 105 -45c69 0 103 19 103 49c0 31 -40 42 -154 50z" />
<glyph unicode="&#x11d;" horiz-adv-x="546" d="M279 718c29 0 50 -1 61 -19l65 -102c4 -6 6 -11 6 -15c0 -7 -7 -10 -20 -10h-22c-29 0 -55 5 -68 24l-28 40l-28 -39c-15 -21 -38 -25 -67 -25h-22c-14 0 -20 3 -20 10c0 4 2 9 6 15l65 102c11 18 32 19 61 19h11zM267 531c27 0 53 -3 77 -8h161c21 0 30 -15 30 -50v-17 c0 -33 -8 -47 -24 -47c-7 0 -34 2 -43 4l-2 -4c9 -12 16 -37 16 -56c0 -125 -90 -177 -204 -177c-41 0 -61 -9 -61 -27c0 -33 73 -33 148 -46c77 -15 155 -45 155 -145c0 -103 -103 -170 -258 -170c-161 0 -238 47 -238 138c0 52 32 93 91 116l1 4c-28 14 -43 42 -43 75 c0 34 22 63 60 83c-49 27 -81 75 -81 149c0 129 96 178 215 178zM267 424c-41 0 -75 -21 -75 -71s34 -70 75 -70s75 20 75 70s-34 71 -75 71zM222 4c-35 -12 -54 -34 -54 -54c0 -27 31 -45 105 -45c69 0 103 19 103 49c0 31 -40 42 -154 50z" />
<glyph unicode="&#x123;" horiz-adv-x="546" d="M260 575c-35 0 -50 19 -50 44c0 67 73 145 108 145c18 0 45 -6 45 -22c0 -18 -24 -43 -24 -123c0 -27 -18 -44 -60 -44h-19zM267 531c27 0 53 -3 77 -8h161c21 0 30 -15 30 -50v-17c0 -33 -8 -47 -24 -47c-7 0 -34 2 -43 4l-2 -4c9 -12 16 -37 16 -56 c0 -125 -90 -177 -204 -177c-41 0 -61 -9 -61 -27c0 -33 73 -33 148 -46c77 -15 155 -45 155 -145c0 -103 -103 -170 -258 -170c-161 0 -238 47 -238 138c0 52 32 93 91 116l1 4c-28 14 -43 42 -43 75c0 34 22 63 60 83c-49 27 -81 75 -81 149c0 129 96 178 215 178z M267 424c-41 0 -75 -21 -75 -71s34 -70 75 -70s75 20 75 70s-34 71 -75 71zM222 4c-35 -12 -54 -34 -54 -54c0 -27 31 -45 105 -45c69 0 103 19 103 49c0 31 -40 42 -154 50z" />
<glyph unicode="&#x121;" horiz-adv-x="546" d="M273 702c42 0 60 -11 60 -32v-60c0 -21 -18 -32 -60 -32s-60 11 -60 32v60c0 21 18 32 60 32zM267 531c27 0 53 -3 77 -8h161c21 0 30 -15 30 -50v-17c0 -33 -8 -47 -24 -47c-7 0 -34 2 -43 4l-2 -4c9 -12 16 -37 16 -56c0 -125 -90 -177 -204 -177c-41 0 -61 -9 -61 -27 c0 -33 73 -33 148 -46c77 -15 155 -45 155 -145c0 -103 -103 -170 -258 -170c-161 0 -238 47 -238 138c0 52 32 93 91 116l1 4c-28 14 -43 42 -43 75c0 34 22 63 60 83c-49 27 -81 75 -81 149c0 129 96 178 215 178zM267 424c-41 0 -75 -21 -75 -71s34 -70 75 -70 s75 20 75 70s-34 71 -75 71zM222 4c-35 -12 -54 -34 -54 -54c0 -27 31 -45 105 -45c69 0 103 19 103 49c0 31 -40 42 -154 50z" />
<glyph unicode="h" horiz-adv-x="565" d="M154 754c42 0 60 -11 60 -32v-259c31 37 81 68 141 68c100 0 151 -51 151 -162v-339c0 -21 -18 -32 -60 -32h-28c-42 0 -60 11 -60 32v317c0 39 -20 62 -64 62c-41 0 -68 -35 -80 -58v-321c0 -21 -18 -32 -60 -32h-28c-42 0 -60 11 -60 32v692c0 21 18 32 60 32h28z" />
<glyph unicode="&#x127;" horiz-adv-x="565" d="M355 531c100 0 151 -51 151 -162v-339c0 -21 -18 -32 -60 -32h-28c-42 0 -60 11 -60 32v317c0 39 -20 62 -64 62c-41 0 -68 -35 -80 -58v-321c0 -21 -18 -32 -60 -32h-28c-42 0 -60 11 -60 32v553h-12c-21 0 -30 12 -30 40v15c0 28 9 40 30 40h12v44c0 21 18 32 60 32h28 c42 0 60 -11 60 -32v-44h55c21 0 30 -12 30 -40v-15c0 -28 -9 -40 -30 -40h-55v-120c31 37 81 68 141 68z" />
<glyph unicode="&#x125;" horiz-adv-x="565" d="M146 927c29 0 50 -1 61 -19l65 -102c4 -6 6 -11 6 -15c0 -7 -7 -10 -20 -10h-22c-29 0 -55 5 -68 24l-28 40l-28 -39c-15 -21 -38 -25 -67 -25h-22c-14 0 -20 3 -20 10c0 4 2 9 6 15l65 102c11 18 32 19 61 19h11zM154 754c42 0 60 -11 60 -32v-259c31 37 81 68 141 68 c100 0 151 -51 151 -162v-339c0 -21 -18 -32 -60 -32h-28c-42 0 -60 11 -60 32v317c0 39 -20 62 -64 62c-41 0 -68 -35 -80 -58v-321c0 -21 -18 -32 -60 -32h-28c-42 0 -60 11 -60 32v692c0 21 18 32 60 32h28z" />
<glyph unicode="&#x1e25;" horiz-adv-x="565" d="M154 754c42 0 60 -11 60 -32v-259c31 37 81 68 141 68c100 0 151 -51 151 -162v-339c0 -21 -18 -32 -60 -32h-28c-42 0 -60 11 -60 32v317c0 39 -20 62 -64 62c-41 0 -68 -35 -80 -58v-321c0 -21 -18 -32 -60 -32h-28c-42 0 -60 11 -60 32v692c0 21 18 32 60 32h28z M283 -80c42 0 60 -11 60 -32v-60c0 -21 -18 -32 -60 -32s-60 11 -60 32v60c0 21 18 32 60 32z" />
<glyph unicode="i" horiz-adv-x="265" d="M147 754c42 0 60 -11 60 -32v-81c0 -21 -18 -32 -60 -32h-28c-42 0 -60 11 -60 32v81c0 21 18 32 60 32h28zM147 525c42 0 60 -11 60 -32v-463c0 -21 -18 -32 -60 -32h-28c-42 0 -60 11 -60 32v463c0 21 18 32 60 32h28z" />
<glyph unicode="&#x131;" horiz-adv-x="265" d="M147 525c42 0 60 -11 60 -32v-463c0 -21 -18 -32 -60 -32h-28c-42 0 -60 11 -60 32v463c0 21 18 32 60 32h28z" />
<glyph unicode="&#xed;" horiz-adv-x="265" d="M213 734c40 0 60 -3 60 -14c0 -12 -7 -14 -104 -120c-11 -12 -28 -25 -75 -25c-24 0 -31 4 -31 15s19 36 65 117c12 21 45 27 85 27zM147 525c42 0 60 -11 60 -32v-463c0 -21 -18 -32 -60 -32h-28c-42 0 -60 11 -60 32v463c0 21 18 32 60 32h28z" />
<glyph unicode="&#x12d;" horiz-adv-x="265" d="M245 715c22 0 35 -10 35 -28c0 -57 -60 -112 -147 -112s-147 55 -147 112c0 18 13 28 35 28c17 0 24 -8 33 -18c13 -14 28 -31 79 -31c54 0 68 19 81 33c8 9 15 16 31 16zM147 525c42 0 60 -11 60 -32v-463c0 -21 -18 -32 -60 -32h-28c-42 0 -60 11 -60 32v463 c0 21 18 32 60 32h28z" />
<glyph unicode="&#xee;" horiz-adv-x="265" d="M138 718c29 0 50 -1 61 -19l65 -102c4 -6 6 -11 6 -15c0 -7 -7 -10 -20 -10h-22c-29 0 -55 5 -68 24l-28 40l-28 -39c-15 -21 -38 -25 -67 -25h-22c-14 0 -20 3 -20 10c0 4 2 9 6 15l65 102c11 18 32 19 61 19h11zM147 525c42 0 60 -11 60 -32v-463 c0 -21 -18 -32 -60 -32h-28c-42 0 -60 11 -60 32v463c0 21 18 32 60 32h28z" />
<glyph unicode="&#xef;" horiz-adv-x="265" d="M43 702c42 0 60 -11 60 -32v-60c0 -21 -18 -32 -60 -32s-60 11 -60 32v60c0 21 18 32 60 32zM223 702c42 0 60 -11 60 -32v-60c0 -21 -18 -32 -60 -32s-60 11 -60 32v60c0 21 18 32 60 32zM147 525c42 0 60 -11 60 -32v-463c0 -21 -18 -32 -60 -32h-28 c-42 0 -60 11 -60 32v463c0 21 18 32 60 32h28z" />
<glyph horiz-adv-x="265" d="M133 702c42 0 60 -11 60 -32v-60c0 -21 -18 -32 -60 -32s-60 11 -60 32v60c0 21 18 32 60 32zM147 525c42 0 60 -11 60 -32v-463c0 -21 -18 -32 -60 -32h-28c-42 0 -60 11 -60 32v463c0 21 18 32 60 32h28z" />
<glyph unicode="&#x1ecb;" horiz-adv-x="265" d="M147 754c42 0 60 -11 60 -32v-81c0 -21 -18 -32 -60 -32h-28c-42 0 -60 11 -60 32v81c0 21 18 32 60 32h28zM147 525c42 0 60 -11 60 -32v-463c0 -21 -18 -32 -60 -32h-28c-42 0 -60 11 -60 32v463c0 21 18 32 60 32h28zM133 -80c42 0 60 -11 60 -32v-60 c0 -21 -18 -32 -60 -32s-60 11 -60 32v60c0 21 18 32 60 32z" />
<glyph unicode="&#xec;" horiz-adv-x="265" d="M59 734c40 0 73 -6 85 -27c46 -81 65 -106 65 -117s-7 -15 -31 -15c-47 0 -64 13 -75 25c-97 106 -104 108 -104 120c0 11 20 14 60 14zM147 525c42 0 60 -11 60 -32v-463c0 -21 -18 -32 -60 -32h-28c-42 0 -60 11 -60 32v463c0 21 18 32 60 32h28z" />
<glyph unicode="&#x1ec9;" horiz-adv-x="265" d="M170 668c0 14 -16 22 -32 22c-22 0 -33 -12 -42 -12c-8 0 -30 27 -30 42c0 13 45 31 80 31c72 0 111 -30 111 -79c0 -53 -82 -102 -100 -102c-24 0 -54 15 -54 23c0 17 67 45 67 75zM147 525c42 0 60 -11 60 -32v-463c0 -21 -18 -32 -60 -32h-28c-42 0 -60 11 -60 32v463 c0 21 18 32 60 32h28z" />
<glyph unicode="&#x133;" horiz-adv-x="541" d="M147 754c42 0 60 -11 60 -32v-81c0 -21 -18 -32 -60 -32h-28c-42 0 -60 11 -60 32v81c0 21 18 32 60 32h28zM423 754c42 0 60 -11 60 -32v-81c0 -21 -18 -32 -60 -32h-28c-42 0 -60 11 -60 32v81c0 21 18 32 60 32h28zM147 525c42 0 60 -11 60 -32v-463 c0 -21 -18 -32 -60 -32h-28c-42 0 -60 11 -60 32v463c0 21 18 32 60 32h28zM423 525c42 0 60 -11 60 -32v-543c0 -109 -63 -162 -146 -162c-79 0 -104 13 -104 52c0 23 15 69 36 69c6 0 19 -4 30 -4c26 0 36 13 36 43v545c0 21 18 32 60 32h28z" />
<glyph unicode="&#x12b;" horiz-adv-x="265" d="M240 692c21 0 30 -12 30 -40v-15c0 -28 -9 -40 -30 -40h-215c-21 0 -30 12 -30 40v15c0 28 9 40 30 40h215zM147 525c42 0 60 -11 60 -32v-463c0 -21 -18 -32 -60 -32h-28c-42 0 -60 11 -60 32v463c0 21 18 32 60 32h28z" />
<glyph unicode="&#x12f;" horiz-adv-x="265" d="M119 609c-42 0 -60 11 -60 32v81c0 21 18 32 60 32h28c42 0 60 -11 60 -32v-81c0 -21 -18 -32 -60 -32h-28zM269 -105c14 0 22 -9 22 -28c0 -42 -44 -50 -82 -50c-107 0 -118 73 -118 102c0 16 4 56 23 79c-38 1 -55 12 -55 32v463c0 21 18 32 60 32h28 c42 0 60 -11 60 -32v-463c0 -17 -12 -27 -38 -31v-4c0 -15 -11 -28 -11 -57c0 -48 39 -51 62 -51c25 0 31 8 49 8z" />
<glyph unicode="&#x129;" horiz-adv-x="265" d="M62 694c30 0 97 -27 126 -29c8 0 18 2 30 16c14 19 24 19 36 15l10 -3c22 -7 23 -27 18 -41c-12 -36 -47 -70 -98 -70c-31 0 -97 27 -127 29c-7 0 -19 -2 -30 -16c-13 -19 -23 -19 -36 -15l-10 3c-22 7 -23 27 -17 41c11 36 46 70 98 70zM147 525c42 0 60 -11 60 -32 v-463c0 -21 -18 -32 -60 -32h-28c-42 0 -60 11 -60 32v463c0 21 18 32 60 32h28z" />
<glyph unicode="j" horiz-adv-x="276" d="M158 754c42 0 60 -11 60 -32v-81c0 -21 -18 -32 -60 -32h-28c-42 0 -60 11 -60 32v81c0 21 18 32 60 32h28zM158 525c42 0 60 -11 60 -32v-543c0 -109 -63 -162 -146 -162c-79 0 -104 13 -104 52c0 23 15 69 36 69c6 0 19 -4 30 -4c26 0 36 13 36 43v545 c0 21 18 32 60 32h28z" />
<glyph unicode="&#x237;" horiz-adv-x="276" d="M158 525c42 0 60 -11 60 -32v-543c0 -109 -63 -162 -146 -162c-79 0 -104 13 -104 52c0 23 15 69 36 69c6 0 19 -4 30 -4c26 0 36 13 36 43v545c0 21 18 32 60 32h28z" />
<glyph unicode="&#x135;" horiz-adv-x="276" d="M149 718c29 0 50 -1 61 -19l65 -102c4 -6 6 -11 6 -15c0 -7 -7 -10 -20 -10h-22c-29 0 -55 5 -68 24l-28 40l-28 -39c-15 -21 -38 -25 -67 -25h-22c-14 0 -20 3 -20 10c0 4 2 9 6 15l65 102c11 18 32 19 61 19h11zM158 525c42 0 60 -11 60 -32v-543 c0 -109 -63 -162 -146 -162c-79 0 -104 13 -104 52c0 23 15 69 36 69c6 0 19 -4 30 -4c26 0 36 13 36 43v545c0 21 18 32 60 32h28z" />
<glyph unicode="k" horiz-adv-x="521" d="M154 754c42 0 60 -11 60 -32v-396l4 -1l121 181c12 17 32 19 61 19h37c38 0 56 -6 56 -15c0 -5 -3 -12 -9 -20l-139 -198l163 -258c5 -9 8 -15 8 -21c0 -9 -18 -15 -57 -15h-42c-29 0 -51 4 -60 19l-139 230l-4 -1v-216c0 -21 -18 -32 -60 -32h-28c-42 0 -60 11 -60 32 v692c0 21 18 32 60 32h28z" />
<glyph unicode="&#x137;" horiz-adv-x="521" d="M154 754c42 0 60 -11 60 -32v-396l4 -1l121 181c12 17 32 19 61 19h37c38 0 56 -6 56 -15c0 -5 -3 -12 -9 -20l-139 -198l163 -258c5 -9 8 -15 8 -21c0 -9 -18 -15 -57 -15h-42c-29 0 -51 4 -60 19l-139 230l-4 -1v-216c0 -21 -18 -32 -60 -32h-28c-42 0 -60 11 -60 32 v692c0 21 18 32 60 32h28zM273 -51c35 0 50 -19 50 -44c0 -67 -73 -145 -108 -145c-18 0 -45 6 -45 22c0 18 24 43 24 123c0 27 18 44 60 44h19z" />
<glyph unicode="&#x138;" horiz-adv-x="521" d="M154 525c42 0 60 -11 60 -32v-167l4 -1l121 181c12 17 32 19 61 19h37c38 0 56 -6 56 -15c0 -5 -3 -12 -9 -20l-139 -198l163 -258c5 -9 8 -15 8 -21c0 -9 -18 -15 -57 -15h-42c-29 0 -51 4 -60 19l-139 230l-4 -1v-216c0 -21 -18 -32 -60 -32h-28c-42 0 -60 11 -60 32 v463c0 21 18 32 60 32h28z" />
<glyph unicode="l" horiz-adv-x="297" d="M151 754c42 0 60 -11 60 -32v-570c0 -30 10 -43 36 -43c9 0 21 4 27 4c20 0 31 -64 31 -72c0 -46 -65 -49 -96 -49c-94 0 -146 51 -146 162v568c0 21 18 32 60 32h28z" />
<glyph unicode="&#x13a;" horiz-adv-x="297" d="M216 931c40 0 60 -3 60 -14c0 -12 -7 -14 -104 -120c-11 -12 -28 -25 -75 -25c-24 0 -31 4 -31 15s19 36 65 117c12 21 45 27 85 27zM151 754c42 0 60 -11 60 -32v-570c0 -30 10 -43 36 -43c9 0 21 4 27 4c20 0 31 -64 31 -72c0 -46 -65 -49 -96 -49 c-94 0 -146 51 -146 162v568c0 21 18 32 60 32h28z" />
<glyph unicode="&#x13e;" horiz-adv-x="297" d="M151 754c42 0 60 -11 60 -32v-570c0 -30 10 -43 36 -43c9 0 21 4 27 4c20 0 31 -64 31 -72c0 -46 -65 -49 -96 -49c-94 0 -146 51 -146 162v568c0 21 18 32 60 32h28zM329 752c35 0 50 -19 50 -44c0 -67 -59 -143 -88 -145c-18 0 -45 6 -45 22c0 51 4 88 4 123 c0 27 18 44 60 44h19z" />
<glyph unicode="&#x13c;" horiz-adv-x="297" d="M151 754c42 0 60 -11 60 -32v-570c0 -30 10 -43 36 -43c9 0 21 4 27 4c20 0 31 -64 31 -72c0 -46 -65 -49 -96 -49c-94 0 -146 51 -146 162v568c0 21 18 32 60 32h28zM195 -51c35 0 50 -19 50 -44c0 -67 -73 -145 -108 -145c-18 0 -45 6 -45 22c0 18 24 43 24 123 c0 27 18 44 60 44h19z" />
<glyph unicode="&#x140;" horiz-adv-x="297" d="M151 754c42 0 60 -11 60 -32v-570c0 -30 10 -43 36 -43c9 0 21 4 27 4c20 0 31 -64 31 -72c0 -46 -65 -49 -96 -49c-94 0 -146 51 -146 162v568c0 21 18 32 60 32h28zM306 429c39 0 70 -31 70 -70s-31 -70 -70 -70s-70 31 -70 70s31 70 70 70z" />
<glyph unicode="&#x1c9;" horiz-adv-x="573" d="M151 754c42 0 60 -11 60 -32v-570c0 -30 10 -43 36 -43c9 0 21 4 27 4c20 0 31 -64 31 -72c0 -46 -65 -49 -96 -49c-94 0 -146 51 -146 162v568c0 21 18 32 60 32h28zM455 754c42 0 60 -11 60 -32v-81c0 -21 -18 -32 -60 -32h-28c-42 0 -60 11 -60 32v81 c0 21 18 32 60 32h28zM455 525c42 0 60 -11 60 -32v-543c0 -109 -63 -162 -146 -162c-79 0 -104 13 -104 52c0 23 15 69 36 69c6 0 19 -4 30 -4c26 0 36 13 36 43v545c0 21 18 32 60 32h28z" />
<glyph unicode="&#x142;" horiz-adv-x="293" d="M147 754c42 0 60 -11 60 -32v-230l24 15c6 3 11 5 15 5c7 0 11 -6 11 -20v-20c0 -22 -8 -34 -26 -45l-24 -15v-260c0 -30 10 -43 36 -43c9 0 21 4 27 4c20 0 31 -64 31 -72c0 -46 -65 -49 -96 -49c-94 0 -146 51 -146 162v169l-22 -13c-7 -4 -12 -6 -16 -6 c-7 0 -10 6 -10 20v20c0 21 8 35 26 46l22 13v319c0 21 18 32 60 32h28z" />
<glyph unicode="m" horiz-adv-x="848" d="M636 531c100 0 146 -51 146 -162v-339c0 -21 -18 -32 -60 -32h-28c-42 0 -60 11 -60 32v317c0 39 -15 62 -59 62c-43 0 -67 -36 -79 -57v-322c0 -21 -18 -32 -60 -32h-28c-42 0 -60 11 -60 32v317c0 39 -15 62 -59 62c-41 0 -67 -35 -79 -58v-321c0 -21 -18 -32 -60 -32 h-28c-42 0 -60 11 -60 32v317c0 100 -12 121 -12 141c0 24 87 32 112 32c32 0 34 -40 40 -65c29 38 83 76 148 76c69 0 112 -24 132 -76c30 38 87 76 154 76z" />
<glyph unicode="n" d="M351 531c100 0 147 -51 147 -162v-339c0 -21 -18 -32 -60 -32h-28c-42 0 -60 11 -60 32v317c0 39 -16 62 -60 62c-41 0 -68 -35 -80 -58v-321c0 -21 -18 -32 -60 -32h-28c-42 0 -60 11 -60 32v317c0 100 -12 121 -12 141c0 24 87 32 112 32c32 0 34 -40 40 -65 c29 38 84 76 149 76z" />
<glyph unicode="&#x144;" d="M359 734c40 0 60 -3 60 -14c0 -12 -7 -14 -104 -120c-11 -12 -28 -25 -75 -25c-24 0 -31 4 -31 15s19 36 65 117c12 21 45 27 85 27zM351 531c100 0 147 -51 147 -162v-339c0 -21 -18 -32 -60 -32h-28c-42 0 -60 11 -60 32v317c0 39 -16 62 -60 62c-41 0 -68 -35 -80 -58 v-321c0 -21 -18 -32 -60 -32h-28c-42 0 -60 11 -60 32v317c0 100 -12 121 -12 141c0 24 87 32 112 32c32 0 34 -40 40 -65c29 38 84 76 149 76z" />
<glyph unicode="&#x149;" d="M66 721c35 0 50 -19 50 -44c0 -67 -73 -145 -108 -145c-18 0 -45 6 -45 22c0 18 24 43 24 123c0 27 18 44 60 44h19zM351 531c100 0 147 -51 147 -162v-339c0 -21 -18 -32 -60 -32h-28c-42 0 -60 11 -60 32v317c0 39 -16 62 -60 62c-41 0 -68 -35 -80 -58v-321 c0 -21 -18 -32 -60 -32h-28c-42 0 -60 11 -60 32v317c0 100 -12 121 -12 141c0 24 87 32 112 32c32 0 34 -40 40 -65c29 38 84 76 149 76z" />
<glyph unicode="&#x148;" d="M397 718c13 0 20 -3 20 -10c0 -4 -2 -9 -6 -15l-65 -102c-11 -18 -32 -19 -61 -19h-11c-29 0 -50 1 -61 19l-65 102c-4 6 -6 11 -6 15c0 7 6 10 20 10h22c29 0 52 -4 67 -25l28 -39l28 40c13 19 39 24 68 24h22zM351 531c100 0 147 -51 147 -162v-339 c0 -21 -18 -32 -60 -32h-28c-42 0 -60 11 -60 32v317c0 39 -16 62 -60 62c-41 0 -68 -35 -80 -58v-321c0 -21 -18 -32 -60 -32h-28c-42 0 -60 11 -60 32v317c0 100 -12 121 -12 141c0 24 87 32 112 32c32 0 34 -40 40 -65c29 38 84 76 149 76z" />
<glyph unicode="&#x146;" d="M351 531c100 0 147 -51 147 -162v-339c0 -21 -18 -32 -60 -32h-28c-42 0 -60 11 -60 32v317c0 39 -16 62 -60 62c-41 0 -68 -35 -80 -58v-321c0 -21 -18 -32 -60 -32h-28c-42 0 -60 11 -60 32v317c0 100 -12 121 -12 141c0 24 87 32 112 32c32 0 34 -40 40 -65 c29 38 84 76 149 76zM291 -51c35 0 50 -19 50 -44c0 -67 -73 -145 -108 -145c-18 0 -45 6 -45 22c0 18 24 43 24 123c0 27 18 44 60 44h19z" />
<glyph unicode="&#x1e45;" d="M279 702c42 0 60 -11 60 -32v-60c0 -21 -18 -32 -60 -32s-60 11 -60 32v60c0 21 18 32 60 32zM351 531c100 0 147 -51 147 -162v-339c0 -21 -18 -32 -60 -32h-28c-42 0 -60 11 -60 32v317c0 39 -16 62 -60 62c-41 0 -68 -35 -80 -58v-321c0 -21 -18 -32 -60 -32h-28 c-42 0 -60 11 -60 32v317c0 100 -12 121 -12 141c0 24 87 32 112 32c32 0 34 -40 40 -65c29 38 84 76 149 76z" />
<glyph unicode="&#x14b;" d="M62 347c0 100 -12 121 -12 141c0 24 87 32 112 32c32 0 34 -40 40 -65c29 38 84 76 149 76c100 0 147 -51 147 -162v-419c0 -109 -63 -162 -146 -162c-79 0 -104 13 -104 52c0 23 15 69 36 69c6 0 19 -4 30 -4c26 0 36 13 36 43v399c0 39 -16 62 -60 62 c-41 0 -68 -35 -80 -58v-321c0 -21 -18 -32 -60 -32h-28c-42 0 -60 11 -60 32v317z" />
<glyph unicode="&#x1cc;" horiz-adv-x="833" d="M715 754c42 0 60 -11 60 -32v-81c0 -21 -18 -32 -60 -32h-28c-42 0 -60 11 -60 32v81c0 21 18 32 60 32h28zM351 531c100 0 147 -51 147 -162v-339c0 -21 -18 -32 -60 -32h-28c-42 0 -60 11 -60 32v317c0 39 -16 62 -60 62c-41 0 -68 -35 -80 -58v-321 c0 -21 -18 -32 -60 -32h-28c-42 0 -60 11 -60 32v317c0 100 -12 121 -12 141c0 24 87 32 112 32c32 0 34 -40 40 -65c29 38 84 76 149 76zM715 525c42 0 60 -11 60 -32v-543c0 -109 -63 -162 -146 -162c-79 0 -104 13 -104 52c0 23 15 69 36 69c6 0 19 -4 30 -4 c26 0 36 13 36 43v545c0 21 18 32 60 32h28z" />
<glyph unicode="&#xf1;" d="M200 694c34 0 108 -27 141 -29c8 0 20 2 33 16c15 19 26 19 40 15l11 -3c24 -7 26 -27 20 -41c-13 -36 -52 -70 -109 -70c-34 0 -108 27 -141 29c-8 0 -21 -2 -33 -16c-15 -19 -26 -19 -40 -15l-11 3c-25 7 -26 27 -20 41c13 36 52 70 109 70zM351 531 c100 0 147 -51 147 -162v-339c0 -21 -18 -32 -60 -32h-28c-42 0 -60 11 -60 32v317c0 39 -16 62 -60 62c-41 0 -68 -35 -80 -58v-321c0 -21 -18 -32 -60 -32h-28c-42 0 -60 11 -60 32v317c0 100 -12 121 -12 141c0 24 87 32 112 32c32 0 34 -40 40 -65c29 38 84 76 149 76z " />
<glyph unicode="o" horiz-adv-x="569" d="M285 531c159 0 242 -95 242 -269s-83 -270 -242 -270s-243 96 -243 270s84 269 243 269zM285 414c-64 0 -93 -52 -93 -152s29 -153 93 -153s92 53 92 153s-28 152 -92 152z" />
<glyph unicode="&#xf3;" horiz-adv-x="569" d="M365 734c40 0 60 -3 60 -14c0 -12 -7 -14 -104 -120c-11 -12 -28 -25 -75 -25c-24 0 -31 4 -31 15s19 36 65 117c12 21 45 27 85 27zM285 531c159 0 242 -95 242 -269s-83 -270 -242 -270s-243 96 -243 270s84 269 243 269zM285 414c-64 0 -93 -52 -93 -152 s29 -153 93 -153s92 53 92 153s-28 152 -92 152z" />
<glyph unicode="&#x14f;" horiz-adv-x="569" d="M397 715c22 0 35 -10 35 -28c0 -57 -60 -112 -147 -112s-147 55 -147 112c0 18 13 28 35 28c17 0 24 -8 33 -18c13 -14 28 -31 79 -31c54 0 68 19 81 33c8 9 15 16 31 16zM285 531c159 0 242 -95 242 -269s-83 -270 -242 -270s-243 96 -243 270s84 269 243 269zM285 414 c-64 0 -93 -52 -93 -152s29 -153 93 -153s92 53 92 153s-28 152 -92 152z" />
<glyph unicode="&#xf4;" horiz-adv-x="569" d="M291 718c29 0 50 -1 61 -19l65 -102c4 -6 6 -11 6 -15c0 -7 -7 -10 -20 -10h-22c-29 0 -55 5 -68 24l-28 40l-28 -39c-15 -21 -38 -25 -67 -25h-22c-14 0 -20 3 -20 10c0 4 2 9 6 15l65 102c11 18 32 19 61 19h11zM285 531c159 0 242 -95 242 -269s-83 -270 -242 -270 s-243 96 -243 270s84 269 243 269zM285 414c-64 0 -93 -52 -93 -152s29 -153 93 -153s92 53 92 153s-28 152 -92 152z" />
<glyph unicode="&#x1ed1;" horiz-adv-x="569" d="M499 863c40 0 60 -3 60 -14c0 -12 -7 -14 -104 -120c-11 -12 -28 -25 -75 -25c-24 0 -31 4 -31 15s19 36 65 117c12 21 45 27 85 27zM291 718c24 0 41 -1 51 -19l60 -102c4 -6 6 -11 6 -15c0 -7 -7 -10 -20 -10h-22c-29 0 -61 3 -68 24l-13 40l-28 -39 c-15 -21 -38 -25 -67 -25h-22c-14 0 -20 3 -20 10c0 4 2 9 6 15l65 102c11 18 32 19 61 19h11zM285 531c159 0 242 -95 242 -269s-83 -270 -242 -270s-243 96 -243 270s84 269 243 269zM285 414c-64 0 -93 -52 -93 -152s29 -153 93 -153s92 53 92 153s-28 152 -92 152z" />
<glyph unicode="&#x1ed9;" horiz-adv-x="569" d="M291 718c29 0 50 -1 61 -19l65 -102c4 -6 6 -11 6 -15c0 -7 -7 -10 -20 -10h-22c-29 0 -55 5 -68 24l-28 40l-28 -39c-15 -21 -38 -25 -67 -25h-22c-14 0 -20 3 -20 10c0 4 2 9 6 15l65 102c11 18 32 19 61 19h11zM285 531c159 0 242 -95 242 -269s-83 -270 -242 -270 s-243 96 -243 270s84 269 243 269zM285 414c-64 0 -93 -52 -93 -152s29 -153 93 -153s92 53 92 153s-28 152 -92 152zM293 -80c42 0 60 -11 60 -32v-60c0 -21 -18 -32 -60 -32s-60 11 -60 32v60c0 21 18 32 60 32z" />
<glyph unicode="&#x1ed3;" horiz-adv-x="569" d="M345 863c40 0 73 -6 85 -27c46 -81 65 -106 65 -117s-7 -15 -31 -15c-47 0 -64 13 -75 25c-97 106 -104 108 -104 120c0 11 20 14 60 14zM291 718c24 0 41 -1 51 -19l60 -102c4 -6 6 -11 6 -15c0 -7 -7 -10 -20 -10h-22c-29 0 -61 3 -68 24l-13 40l-28 -39 c-15 -21 -38 -25 -67 -25h-22c-14 0 -20 3 -20 10c0 4 2 9 6 15l65 102c11 18 32 19 61 19h11zM285 531c159 0 242 -95 242 -269s-83 -270 -242 -270s-243 96 -243 270s84 269 243 269zM285 414c-64 0 -93 -52 -93 -152s29 -153 93 -153s92 53 92 153s-28 152 -92 152z" />
<glyph unicode="&#x1ed5;" horiz-adv-x="569" d="M456 797c0 14 -16 22 -32 22c-22 0 -33 -12 -42 -12c-8 0 -30 27 -30 42c0 13 45 31 80 31c72 0 111 -30 111 -79c0 -53 -82 -102 -100 -102c-24 0 -54 15 -54 23c0 17 67 45 67 75zM291 718c24 0 41 -1 51 -19l60 -102c4 -6 6 -11 6 -15c0 -7 -7 -10 -20 -10h-22 c-29 0 -61 3 -68 24l-13 40l-28 -39c-15 -21 -38 -25 -67 -25h-22c-14 0 -20 3 -20 10c0 4 2 9 6 15l65 102c11 18 32 19 61 19h11zM285 531c159 0 242 -95 242 -269s-83 -270 -242 -270s-243 96 -243 270s84 269 243 269zM285 414c-64 0 -93 -52 -93 -152s29 -153 93 -153 s92 53 92 153s-28 152 -92 152z" />
<glyph unicode="&#x1ed7;" horiz-adv-x="569" d="M225 870c31 0 98 -27 128 -29c8 0 19 2 30 16c14 19 24 19 37 15l10 -3c22 -7 23 -27 18 -41c-12 -36 -47 -70 -99 -70c-31 0 -98 27 -128 29c-8 0 -19 -2 -30 -16c-14 -19 -24 -19 -37 -15l-10 3c-22 7 -23 27 -18 41c12 36 47 70 99 70zM291 718c29 0 50 -1 61 -19 l65 -102c4 -6 6 -11 6 -15c0 -7 -7 -10 -20 -10h-22c-29 0 -55 5 -68 24l-28 40l-28 -39c-15 -21 -38 -25 -67 -25h-22c-14 0 -20 3 -20 10c0 4 2 9 6 15l65 102c11 18 32 19 61 19h11zM285 531c159 0 242 -95 242 -269s-83 -270 -242 -270s-243 96 -243 270s84 269 243 269 zM285 414c-64 0 -93 -52 -93 -152s29 -153 93 -153s92 53 92 153s-28 152 -92 152z" />
<glyph unicode="&#xf6;" horiz-adv-x="569" d="M195 702c42 0 60 -11 60 -32v-60c0 -21 -18 -32 -60 -32s-60 11 -60 32v60c0 21 18 32 60 32zM375 702c42 0 60 -11 60 -32v-60c0 -21 -18 -32 -60 -32s-60 11 -60 32v60c0 21 18 32 60 32zM285 531c159 0 242 -95 242 -269s-83 -270 -242 -270s-243 96 -243 270 s84 269 243 269zM285 414c-64 0 -93 -52 -93 -152s29 -153 93 -153s92 53 92 153s-28 152 -92 152z" />
<glyph unicode="&#x1ecd;" horiz-adv-x="569" d="M285 531c159 0 242 -95 242 -269s-83 -270 -242 -270s-243 96 -243 270s84 269 243 269zM285 414c-64 0 -93 -52 -93 -152s29 -153 93 -153s92 53 92 153s-28 152 -92 152zM293 -80c42 0 60 -11 60 -32v-60c0 -21 -18 -32 -60 -32s-60 11 -60 32v60c0 21 18 32 60 32z " />
<glyph unicode="&#xf2;" horiz-adv-x="569" d="M211 734c40 0 73 -6 85 -27c46 -81 65 -106 65 -117s-7 -15 -31 -15c-47 0 -64 13 -75 25c-97 106 -104 108 -104 120c0 11 20 14 60 14zM285 531c159 0 242 -95 242 -269s-83 -270 -242 -270s-243 96 -243 270s84 269 243 269zM285 414c-64 0 -93 -52 -93 -152 s29 -153 93 -153s92 53 92 153s-28 152 -92 152z" />
<glyph unicode="&#x1ecf;" horiz-adv-x="569" d="M322 668c0 14 -16 22 -32 22c-22 0 -33 -12 -42 -12c-8 0 -30 27 -30 42c0 13 45 31 80 31c72 0 111 -30 111 -79c0 -53 -82 -102 -100 -102c-24 0 -54 15 -54 23c0 17 67 45 67 75zM285 531c159 0 242 -95 242 -269s-83 -270 -242 -270s-243 96 -243 270s84 269 243 269 zM285 414c-64 0 -93 -52 -93 -152s29 -153 93 -153s92 53 92 153s-28 152 -92 152z" />
<glyph unicode="&#x1a1;" horiz-adv-x="569" d="M572 556c0 -52 -33 -87 -107 -93c41 -46 62 -113 62 -201c0 -174 -83 -270 -242 -270s-243 96 -243 270s84 269 243 269c48 0 90 -9 124 -26h36c34 0 47 13 47 36c0 22 -26 39 -26 52c0 7 3 14 11 19l32 22c5 4 10 5 16 5c26 0 47 -53 47 -83zM285 109c64 0 92 53 92 153 s-28 152 -92 152s-93 -52 -93 -152s29 -153 93 -153z" />
<glyph unicode="&#x1edb;" horiz-adv-x="569" d="M259 577c-24 0 -31 4 -31 15s19 36 65 117c12 21 45 27 85 27s60 -3 60 -14c0 -12 -7 -14 -104 -120c-11 -12 -28 -25 -75 -25zM572 556c0 -52 -33 -87 -107 -93c41 -46 62 -113 62 -201c0 -174 -83 -270 -242 -270s-243 96 -243 270s84 269 243 269c48 0 90 -9 124 -26 h36c34 0 47 13 47 36c0 22 -26 39 -26 52c0 7 3 14 11 19l32 22c5 4 10 5 16 5c26 0 47 -53 47 -83zM285 109c64 0 92 53 92 153s-28 152 -92 152s-93 -52 -93 -152s29 -153 93 -153z" />
<glyph unicode="&#x1ee3;" horiz-adv-x="569" d="M572 556c0 -52 -33 -87 -107 -93c41 -46 62 -113 62 -201c0 -174 -83 -270 -242 -270s-243 96 -243 270s84 269 243 269c48 0 90 -9 124 -26h36c34 0 47 13 47 36c0 22 -26 39 -26 52c0 7 3 14 11 19l32 22c5 4 10 5 16 5c26 0 47 -53 47 -83zM285 109c64 0 92 53 92 153 s-28 152 -92 152s-93 -52 -93 -152s29 -153 93 -153zM293 -80c42 0 60 -11 60 -32v-60c0 -21 -18 -32 -60 -32s-60 11 -60 32v60c0 21 18 32 60 32z" />
<glyph unicode="&#x1edd;" horiz-adv-x="569" d="M343 577c-47 0 -64 13 -75 25c-97 106 -104 108 -104 120c0 11 20 14 60 14s73 -6 85 -27c46 -81 65 -106 65 -117s-7 -15 -31 -15zM572 556c0 -52 -33 -87 -107 -93c41 -46 62 -113 62 -201c0 -174 -83 -270 -242 -270s-243 96 -243 270s84 269 243 269 c48 0 90 -9 124 -26h36c34 0 47 13 47 36c0 22 -26 39 -26 52c0 7 3 14 11 19l32 22c5 4 10 5 16 5c26 0 47 -53 47 -83zM285 109c64 0 92 53 92 153s-28 152 -92 152s-93 -52 -93 -152s29 -153 93 -153z" />
<glyph unicode="&#x1edf;" horiz-adv-x="569" d="M261 680c-8 0 -30 27 -30 42c0 13 45 31 80 31c72 0 111 -30 111 -79c0 -53 -82 -102 -100 -102c-24 0 -54 15 -54 23c0 17 67 45 67 75c0 14 -16 22 -32 22c-22 0 -33 -12 -42 -12zM572 556c0 -52 -33 -87 -107 -93c41 -46 62 -113 62 -201c0 -174 -83 -270 -242 -270 s-243 96 -243 270s84 269 243 269c48 0 90 -9 124 -26h36c34 0 47 13 47 36c0 22 -26 39 -26 52c0 7 3 14 11 19l32 22c5 4 10 5 16 5c26 0 47 -53 47 -83zM285 109c64 0 92 53 92 153s-28 152 -92 152s-93 -52 -93 -152s29 -153 93 -153z" />
<glyph unicode="&#x1ee1;" horiz-adv-x="569" d="M146 585c-22 7 -23 27 -17 41c11 36 46 70 98 70c30 0 97 -27 126 -29c8 0 18 2 30 16c14 19 24 19 36 15l10 -3c22 -7 23 -27 18 -41c-12 -36 -47 -70 -98 -70c-31 0 -97 27 -127 29c-7 0 -19 -2 -30 -16c-13 -19 -23 -19 -36 -15zM572 556c0 -52 -33 -87 -107 -93 c41 -46 62 -113 62 -201c0 -174 -83 -270 -242 -270s-243 96 -243 270s84 269 243 269c48 0 90 -9 124 -26h36c34 0 47 13 47 36c0 22 -26 39 -26 52c0 7 3 14 11 19l32 22c5 4 10 5 16 5c26 0 47 -53 47 -83zM285 109c64 0 92 53 92 153s-28 152 -92 152s-93 -52 -93 -152 s29 -153 93 -153z" />
<glyph unicode="&#x151;" horiz-adv-x="569" d="M281 734c40 0 60 -3 60 -14c0 -12 -7 -14 -104 -120c-11 -12 -28 -25 -75 -25c-24 0 -31 4 -31 15s19 36 65 117c12 21 45 27 85 27zM464 734c40 0 60 -3 60 -14c0 -12 -7 -14 -104 -120c-11 -12 -28 -25 -75 -25c-24 0 -31 4 -31 15s19 36 65 117c12 21 45 27 85 27z M285 531c159 0 242 -95 242 -269s-83 -270 -242 -270s-243 96 -243 270s84 269 243 269zM285 414c-64 0 -93 -52 -93 -152s29 -153 93 -153s92 53 92 153s-28 152 -92 152z" />
<glyph unicode="&#x14d;" horiz-adv-x="569" d="M393 692c21 0 30 -12 30 -40v-15c0 -28 -9 -40 -30 -40h-215c-21 0 -30 12 -30 40v15c0 28 9 40 30 40h215zM285 531c159 0 242 -95 242 -269s-83 -270 -242 -270s-243 96 -243 270s84 269 243 269zM285 414c-64 0 -93 -52 -93 -152s29 -153 93 -153s92 53 92 153 s-28 152 -92 152z" />
<glyph unicode="&#x1eb;" horiz-adv-x="569" d="M453 -105c14 0 22 -9 22 -28c0 -42 -44 -50 -82 -50c-107 0 -118 73 -118 102c0 15 3 50 19 73h-9c-159 0 -243 96 -243 270s84 269 243 269s242 -95 242 -269c0 -147 -59 -239 -174 -263v-4c0 -15 -11 -28 -11 -57c0 -48 39 -51 62 -51c25 0 31 8 49 8zM192 262 c0 -100 29 -153 93 -153s92 53 92 153s-28 152 -92 152s-93 -52 -93 -152z" />
<glyph unicode="&#xf8;" horiz-adv-x="569" d="M285 531c58 0 106 -13 143 -37l32 37c7 8 15 13 22 13c16 0 48 -27 48 -44c0 -7 -4 -14 -10 -21l-36 -42c28 -44 43 -103 43 -175c0 -174 -83 -270 -242 -270c-61 0 -111 14 -149 41l-28 -32c-7 -9 -14 -13 -21 -13c-16 0 -48 25 -48 44c0 7 3 13 10 21l33 38 c-27 44 -40 101 -40 171c0 174 84 269 243 269zM285 414c-64 0 -93 -52 -93 -152c0 -15 1 -28 2 -41l147 172c-14 14 -33 21 -56 21zM374 310l-150 -175c15 -17 35 -26 61 -26c64 0 92 53 92 153c0 17 -1 33 -3 48z" />
<glyph unicode="&#x1ff;" horiz-adv-x="569" d="M365 734c40 0 60 -3 60 -14c0 -12 -7 -14 -104 -120c-11 -12 -28 -25 -75 -25c-24 0 -31 4 -31 15s19 36 65 117c12 21 45 27 85 27zM285 531c58 0 106 -13 143 -37l32 37c7 8 15 13 22 13c16 0 48 -27 48 -44c0 -7 -4 -14 -10 -21l-36 -42c28 -44 43 -103 43 -175 c0 -174 -83 -270 -242 -270c-61 0 -111 14 -149 41l-28 -32c-7 -9 -14 -13 -21 -13c-16 0 -48 25 -48 44c0 7 3 13 10 21l33 38c-27 44 -40 101 -40 171c0 174 84 269 243 269zM285 414c-64 0 -93 -52 -93 -152c0 -15 1 -28 2 -41l147 172c-14 14 -33 21 -56 21zM374 310 l-150 -175c15 -17 35 -26 61 -26c64 0 92 53 92 153c0 17 -1 33 -3 48z" />
<glyph unicode="&#xf5;" horiz-adv-x="569" d="M206 694c34 0 108 -27 141 -29c8 0 20 2 33 16c15 19 26 19 40 15l11 -3c24 -7 26 -27 20 -41c-13 -36 -52 -70 -109 -70c-34 0 -108 27 -141 29c-8 0 -21 -2 -33 -16c-15 -19 -26 -19 -40 -15l-11 3c-25 7 -26 27 -20 41c13 36 52 70 109 70zM285 531 c159 0 242 -95 242 -269s-83 -270 -242 -270s-243 96 -243 270s84 269 243 269zM285 414c-64 0 -93 -52 -93 -152s29 -153 93 -153s92 53 92 153s-28 152 -92 152z" />
<glyph unicode="&#x153;" horiz-adv-x="871" d="M766 140c22 0 52 -56 52 -76c0 -50 -124 -72 -180 -72c-82 0 -143 22 -186 60c-41 -37 -96 -60 -168 -60c-159 0 -243 96 -243 270s84 269 243 269c70 0 125 -23 165 -59c42 41 102 59 171 59c157 0 216 -119 216 -258c0 -17 -38 -59 -51 -59h-255 c7 -80 50 -105 115 -105c63 0 107 31 121 31zM284 109c64 0 92 53 92 153s-28 152 -92 152s-93 -52 -93 -152s29 -153 93 -153zM620 414c-42 0 -78 -24 -90 -101h162c0 58 -22 101 -72 101z" />
<glyph unicode="p" horiz-adv-x="573" d="M344 531c108 0 187 -96 187 -270c0 -163 -76 -269 -211 -269c-47 0 -81 16 -102 31v-197c0 -21 -18 -32 -60 -32h-28c-42 0 -60 11 -60 32v521c0 100 -12 121 -12 141c0 24 87 32 112 32c32 0 34 -40 40 -64c23 43 72 75 134 75zM300 410c-38 0 -64 -28 -82 -59v-223 c16 -9 39 -19 70 -19c63 0 93 52 93 152c0 97 -26 149 -81 149z" />
<glyph unicode="&#xfe;" horiz-adv-x="570" d="M153 754c42 0 60 -11 60 -32v-252c25 36 71 61 126 61c108 0 187 -96 187 -270c0 -163 -76 -269 -211 -269c-47 0 -81 16 -102 31v-197c0 -21 -18 -32 -60 -32h-28c-42 0 -60 11 -60 32v896c0 21 18 32 60 32h28zM295 410c-38 0 -64 -28 -82 -59v-223 c16 -9 39 -19 70 -19c63 0 93 52 93 152c0 97 -26 149 -81 149z" />
<glyph unicode="q" horiz-adv-x="566" d="M234 531c62 0 111 -32 134 -75l10 43c5 22 26 26 58 26h12c42 0 60 -11 60 -32v-667c0 -21 -18 -32 -60 -32h-28c-42 0 -60 11 -60 32v197c-21 -15 -55 -31 -102 -31c-138 0 -216 106 -216 269c0 174 81 270 192 270zM278 410c-58 0 -86 -52 -86 -149 c0 -100 32 -152 98 -152c31 0 54 10 70 19v223c-18 31 -44 59 -82 59z" />
<glyph unicode="r" horiz-adv-x="366" d="M311 531c49 0 57 -34 57 -54c0 -19 -11 -84 -31 -84c-14 0 -27 8 -47 8c-41 0 -68 -30 -80 -50v-321c0 -21 -18 -32 -60 -32h-28c-42 0 -60 11 -60 32v317c0 100 -12 121 -12 141c0 24 87 32 112 32c32 0 34 -40 40 -65c21 38 51 76 109 76z" />
<glyph unicode="&#x155;" horiz-adv-x="366" d="M213 734c40 0 60 -3 60 -14c0 -12 -7 -14 -104 -120c-11 -12 -28 -25 -75 -25c-24 0 -31 4 -31 15s19 36 65 117c12 21 45 27 85 27zM311 531c49 0 57 -34 57 -54c0 -19 -11 -84 -31 -84c-14 0 -27 8 -47 8c-41 0 -68 -30 -80 -50v-321c0 -21 -18 -32 -60 -32h-28 c-42 0 -60 11 -60 32v317c0 100 -12 121 -12 141c0 24 87 32 112 32c32 0 34 -40 40 -65c21 38 51 76 109 76z" />
<glyph unicode="&#x159;" horiz-adv-x="366" d="M250 718c13 0 20 -3 20 -10c0 -4 -2 -9 -6 -15l-65 -102c-11 -18 -32 -19 -61 -19h-11c-29 0 -50 1 -61 19l-65 102c-4 6 -6 11 -6 15c0 7 6 10 20 10h22c29 0 52 -4 67 -25l28 -39l28 40c13 19 39 24 68 24h22zM311 531c49 0 57 -34 57 -54c0 -19 -11 -84 -31 -84 c-14 0 -27 8 -47 8c-41 0 -68 -30 -80 -50v-321c0 -21 -18 -32 -60 -32h-28c-42 0 -60 11 -60 32v317c0 100 -12 121 -12 141c0 24 87 32 112 32c32 0 34 -40 40 -65c21 38 51 76 109 76z" />
<glyph unicode="&#x157;" horiz-adv-x="366" d="M311 531c49 0 57 -34 57 -54c0 -19 -11 -84 -31 -84c-14 0 -27 8 -47 8c-41 0 -68 -30 -80 -50v-321c0 -21 -18 -32 -60 -32h-28c-42 0 -60 11 -60 32v317c0 100 -12 121 -12 141c0 24 87 32 112 32c32 0 34 -40 40 -65c21 38 51 76 109 76zM162 -53c35 0 50 -19 50 -44 c0 -67 -73 -145 -108 -145c-18 0 -45 6 -45 22c0 18 24 43 24 123c0 27 18 44 60 44h19z" />
<glyph unicode="&#x1e5b;" horiz-adv-x="366" d="M311 531c49 0 57 -34 57 -54c0 -19 -11 -84 -31 -84c-14 0 -27 8 -47 8c-41 0 -68 -30 -80 -50v-321c0 -21 -18 -32 -60 -32h-28c-42 0 -60 11 -60 32v317c0 100 -12 121 -12 141c0 24 87 32 112 32c32 0 34 -40 40 -65c21 38 51 76 109 76zM152 -82c42 0 60 -11 60 -32 v-60c0 -21 -18 -32 -60 -32s-60 11 -60 32v60c0 21 18 32 60 32z" />
<glyph unicode="s" horiz-adv-x="413" d="M225 531c58 0 150 -16 150 -58c0 -22 -24 -79 -43 -79c-11 0 -39 21 -86 21c-33 0 -53 -10 -53 -35c0 -44 60 -54 113 -79c45 -22 87 -59 87 -138c0 -102 -71 -171 -196 -171c-75 0 -166 25 -166 68c0 26 33 77 53 77c15 0 48 -28 101 -28c38 0 58 15 58 42 c0 38 -41 48 -86 66c-49 19 -114 50 -114 150c0 104 71 164 182 164z" />
<glyph unicode="&#x15b;" horiz-adv-x="413" d="M287 734c40 0 60 -3 60 -14c0 -12 -7 -14 -104 -120c-11 -12 -28 -25 -75 -25c-24 0 -31 4 -31 15s19 36 65 117c12 21 45 27 85 27zM225 531c58 0 150 -16 150 -58c0 -22 -24 -79 -43 -79c-11 0 -39 21 -86 21c-33 0 -53 -10 -53 -35c0 -44 60 -54 113 -79 c45 -22 87 -59 87 -138c0 -102 -71 -171 -196 -171c-75 0 -166 25 -166 68c0 26 33 77 53 77c15 0 48 -28 101 -28c38 0 58 15 58 42c0 38 -41 48 -86 66c-49 19 -114 50 -114 150c0 104 71 164 182 164z" />
<glyph unicode="&#x161;" horiz-adv-x="413" d="M325 718c13 0 20 -3 20 -10c0 -4 -2 -9 -6 -15l-65 -102c-11 -18 -32 -19 -61 -19h-11c-29 0 -50 1 -61 19l-65 102c-4 6 -6 11 -6 15c0 7 6 10 20 10h22c29 0 52 -4 67 -25l28 -39l28 40c13 19 39 24 68 24h22zM225 531c58 0 150 -16 150 -58c0 -22 -24 -79 -43 -79 c-11 0 -39 21 -86 21c-33 0 -53 -10 -53 -35c0 -44 60 -54 113 -79c45 -22 87 -59 87 -138c0 -102 -71 -171 -196 -171c-75 0 -166 25 -166 68c0 26 33 77 53 77c15 0 48 -28 101 -28c38 0 58 15 58 42c0 38 -41 48 -86 66c-49 19 -114 50 -114 150c0 104 71 164 182 164z " />
<glyph unicode="&#x15f;" horiz-adv-x="413" d="M393 163c0 -90 -55 -154 -154 -168l-8 -31c35 -5 77 -25 77 -76c0 -68 -40 -100 -119 -100c-56 0 -131 18 -131 50c0 34 25 44 32 44c23 0 49 -21 91 -21c18 0 24 6 24 17c0 25 -53 24 -53 48c0 4 1 9 19 67c-68 5 -140 29 -140 67c0 26 33 77 53 77c15 0 48 -28 101 -28 c38 0 58 15 58 42c0 38 -41 48 -86 66c-49 19 -114 50 -114 150c0 104 71 164 182 164c58 0 150 -16 150 -58c0 -22 -24 -79 -43 -79c-11 0 -39 21 -86 21c-33 0 -53 -10 -53 -35c0 -44 60 -54 113 -79c45 -22 87 -59 87 -138z" />
<glyph unicode="&#x15d;" horiz-adv-x="413" d="M213 718c29 0 50 -1 61 -19l65 -102c4 -6 6 -11 6 -15c0 -7 -7 -10 -20 -10h-22c-29 0 -55 5 -68 24l-28 40l-28 -39c-15 -21 -38 -25 -67 -25h-22c-14 0 -20 3 -20 10c0 4 2 9 6 15l65 102c11 18 32 19 61 19h11zM225 531c58 0 150 -16 150 -58c0 -22 -24 -79 -43 -79 c-11 0 -39 21 -86 21c-33 0 -53 -10 -53 -35c0 -44 60 -54 113 -79c45 -22 87 -59 87 -138c0 -102 -71 -171 -196 -171c-75 0 -166 25 -166 68c0 26 33 77 53 77c15 0 48 -28 101 -28c38 0 58 15 58 42c0 38 -41 48 -86 66c-49 19 -114 50 -114 150c0 104 71 164 182 164z " />
<glyph unicode="&#x219;" horiz-adv-x="413" d="M225 531c58 0 150 -16 150 -58c0 -22 -24 -79 -43 -79c-11 0 -39 21 -86 21c-33 0 -53 -10 -53 -35c0 -44 60 -54 113 -79c45 -22 87 -59 87 -138c0 -102 -71 -171 -196 -171c-75 0 -166 25 -166 68c0 26 33 77 53 77c15 0 48 -28 101 -28c38 0 58 15 58 42 c0 38 -41 48 -86 66c-49 19 -114 50 -114 150c0 104 71 164 182 164zM219 -51c35 0 50 -19 50 -44c0 -67 -73 -145 -108 -145c-18 0 -45 6 -45 22c0 18 24 43 24 123c0 27 18 44 60 44h19z" />
<glyph unicode="&#x1e63;" horiz-adv-x="413" d="M225 531c58 0 150 -16 150 -58c0 -22 -24 -79 -43 -79c-11 0 -39 21 -86 21c-33 0 -53 -10 -53 -35c0 -44 60 -54 113 -79c45 -22 87 -59 87 -138c0 -102 -71 -171 -196 -171c-75 0 -166 25 -166 68c0 26 33 77 53 77c15 0 48 -28 101 -28c38 0 58 15 58 42 c0 38 -41 48 -86 66c-49 19 -114 50 -114 150c0 104 71 164 182 164zM209 -80c42 0 60 -11 60 -32v-60c0 -21 -18 -32 -60 -32s-60 11 -60 32v60c0 21 18 32 60 32z" />
<glyph unicode="&#xdf;" horiz-adv-x="554" d="M287 708c126 0 221 -67 221 -178c0 -66 -32 -118 -93 -143v-4c83 -32 118 -87 118 -173c0 -120 -89 -210 -234 -210h-23c-21 0 -30 15 -30 50v17c0 35 9 50 30 50h14c56 0 93 37 93 93c0 60 -39 101 -105 101h-2c-21 0 -30 15 -30 50v17c0 33 9 50 27 50h3 c50 0 82 37 82 83c0 30 -20 72 -73 72c-49 0 -79 -34 -79 -81v-472c0 -21 -18 -32 -60 -32h-28c-42 0 -60 11 -60 32v460c0 133 96 218 229 218z" />
<glyph unicode="&#x17f;" horiz-adv-x="325" d="M225 760c32 0 100 -3 100 -49c0 -8 -11 -72 -31 -72c-7 0 -21 4 -31 4c-26 0 -36 -13 -36 -43v-570c0 -21 -18 -32 -60 -32h-28c-42 0 -60 11 -60 32v376h-18c-21 0 -30 15 -30 50v17c0 35 9 50 30 50h18v75c0 111 52 162 146 162z" />
<glyph unicode="&#x259;" horiz-adv-x="539" d="M254 -8c-157 0 -216 119 -216 258c0 17 38 59 51 59h255c-7 80 -50 105 -115 105c-63 0 -107 -31 -121 -31c-22 0 -52 56 -52 76c0 50 124 72 180 72c181 0 261 -105 261 -266c0 -197 -100 -273 -243 -273zM254 109c42 0 78 24 90 101h-162c0 -58 22 -101 72 -101z" />
<glyph unicode="t" horiz-adv-x="342" d="M175 650c35 0 50 -11 50 -32v-95h49c21 0 30 -15 30 -50v-17c0 -35 -9 -50 -30 -50h-49v-254c0 -30 10 -43 36 -43c9 0 21 4 27 4c20 0 31 -64 31 -72c0 -46 -65 -49 -96 -49c-94 0 -146 51 -146 162v252h-16c-21 0 -30 15 -30 50v17c0 35 9 50 30 50h16l13 95 c3 21 21 32 54 32h31z" />
<glyph unicode="&#x167;" horiz-adv-x="342" d="M288 113c20 0 31 -64 31 -72c0 -46 -65 -49 -96 -49c-94 0 -146 51 -146 162v91h-21c-21 0 -30 12 -30 40v15c0 28 9 40 30 40h21v66h-16c-21 0 -30 15 -30 50v17c0 35 9 50 30 50h16l13 95c3 21 21 32 54 32h31c35 0 50 -11 50 -32v-95h49c21 0 30 -15 30 -50v-17 c0 -35 -9 -50 -30 -50h-49v-66h46c21 0 30 -12 30 -40v-15c0 -28 -9 -40 -30 -40h-46v-93c0 -30 10 -43 36 -43c9 0 21 4 27 4z" />
<glyph unicode="&#x165;" horiz-adv-x="342" d="M346 752c35 0 50 -19 50 -44c0 -67 -59 -143 -88 -145c-18 0 -45 6 -45 22c0 51 4 88 4 123c0 27 18 44 60 44h19zM175 650c35 0 50 -11 50 -32v-95h49c21 0 30 -15 30 -50v-17c0 -35 -9 -50 -30 -50h-49v-254c0 -30 10 -43 36 -43c9 0 21 4 27 4c20 0 31 -64 31 -72 c0 -46 -65 -49 -96 -49c-94 0 -146 51 -146 162v252h-16c-21 0 -30 15 -30 50v17c0 35 9 50 30 50h16l13 95c3 21 21 32 54 32h31z" />
<glyph unicode="&#x163;" horiz-adv-x="342" d="M319 41c0 -42 -54 -48 -87 -49l-7 -28c35 -5 77 -25 77 -76c0 -68 -40 -100 -119 -100c-56 0 -131 18 -131 50c0 34 25 44 32 44c23 0 49 -21 91 -21c18 0 24 6 24 17c0 25 -53 24 -53 48c0 4 1 9 22 73c-59 18 -91 68 -91 155v252h-16c-21 0 -30 15 -30 50v17 c0 35 9 50 30 50h16l13 95c3 21 21 32 54 32h31c35 0 50 -11 50 -32v-95h49c21 0 30 -15 30 -50v-17c0 -35 -9 -50 -30 -50h-49v-254c0 -30 10 -43 36 -43c9 0 21 4 27 4c20 0 31 -64 31 -72z" />
<glyph unicode="&#x21b;" horiz-adv-x="342" d="M175 650c35 0 50 -11 50 -32v-95h49c21 0 30 -15 30 -50v-17c0 -35 -9 -50 -30 -50h-49v-254c0 -30 10 -43 36 -43c9 0 21 4 27 4c20 0 31 -64 31 -72c0 -46 -65 -49 -96 -49c-94 0 -146 51 -146 162v252h-16c-21 0 -30 15 -30 50v17c0 35 9 50 30 50h16l13 95 c3 21 21 32 54 32h31zM213 -51c35 0 50 -19 50 -44c0 -67 -73 -145 -108 -145c-18 0 -45 6 -45 22c0 18 24 43 24 123c0 27 18 44 60 44h19z" />
<glyph unicode="&#x1e6d;" horiz-adv-x="342" d="M175 650c35 0 50 -11 50 -32v-95h49c21 0 30 -15 30 -50v-17c0 -35 -9 -50 -30 -50h-49v-254c0 -30 10 -43 36 -43c9 0 21 4 27 4c20 0 31 -64 31 -72c0 -46 -65 -49 -96 -49c-94 0 -146 51 -146 162v252h-16c-21 0 -30 15 -30 50v17c0 35 9 50 30 50h16l13 95 c3 21 21 32 54 32h31zM203 -80c42 0 60 -11 60 -32v-60c0 -21 -18 -32 -60 -32s-60 11 -60 32v60c0 21 18 32 60 32z" />
<glyph unicode="u" d="M435 525c42 0 60 -11 60 -32v-317c0 -103 12 -124 12 -145c0 -24 -87 -32 -112 -32c-32 0 -34 42 -40 69c-29 -38 -84 -76 -149 -76c-100 0 -147 51 -147 162v339c0 21 18 32 60 32h28c42 0 60 -11 60 -32v-317c0 -39 16 -62 60 -62c41 0 68 35 80 58v321 c0 21 18 32 60 32h28z" />
<glyph unicode="&#xfa;" d="M359 734c40 0 60 -3 60 -14c0 -12 -7 -14 -104 -120c-11 -12 -28 -25 -75 -25c-24 0 -31 4 -31 15s19 36 65 117c12 21 45 27 85 27zM435 525c42 0 60 -11 60 -32v-317c0 -103 12 -124 12 -145c0 -24 -87 -32 -112 -32c-32 0 -34 42 -40 69c-29 -38 -84 -76 -149 -76 c-100 0 -147 51 -147 162v339c0 21 18 32 60 32h28c42 0 60 -11 60 -32v-317c0 -39 16 -62 60 -62c41 0 68 35 80 58v321c0 21 18 32 60 32h28z" />
<glyph unicode="&#x16d;" d="M391 715c22 0 35 -10 35 -28c0 -57 -60 -112 -147 -112s-147 55 -147 112c0 18 13 28 35 28c17 0 24 -8 33 -18c13 -14 28 -31 79 -31c54 0 68 19 81 33c8 9 15 16 31 16zM435 525c42 0 60 -11 60 -32v-317c0 -103 12 -124 12 -145c0 -24 -87 -32 -112 -32 c-32 0 -34 42 -40 69c-29 -38 -84 -76 -149 -76c-100 0 -147 51 -147 162v339c0 21 18 32 60 32h28c42 0 60 -11 60 -32v-317c0 -39 16 -62 60 -62c41 0 68 35 80 58v321c0 21 18 32 60 32h28z" />
<glyph unicode="&#xfb;" d="M285 718c29 0 50 -1 61 -19l65 -102c4 -6 6 -11 6 -15c0 -7 -7 -10 -20 -10h-22c-29 0 -55 5 -68 24l-28 40l-28 -39c-15 -21 -38 -25 -67 -25h-22c-14 0 -20 3 -20 10c0 4 2 9 6 15l65 102c11 18 32 19 61 19h11zM435 525c42 0 60 -11 60 -32v-317 c0 -103 12 -124 12 -145c0 -24 -87 -32 -112 -32c-32 0 -34 42 -40 69c-29 -38 -84 -76 -149 -76c-100 0 -147 51 -147 162v339c0 21 18 32 60 32h28c42 0 60 -11 60 -32v-317c0 -39 16 -62 60 -62c41 0 68 35 80 58v321c0 21 18 32 60 32h28z" />
<glyph unicode="&#xfc;" d="M189 702c42 0 60 -11 60 -32v-60c0 -21 -18 -32 -60 -32s-60 11 -60 32v60c0 21 18 32 60 32zM369 702c42 0 60 -11 60 -32v-60c0 -21 -18 -32 -60 -32s-60 11 -60 32v60c0 21 18 32 60 32zM435 525c42 0 60 -11 60 -32v-317c0 -103 12 -124 12 -145 c0 -24 -87 -32 -112 -32c-32 0 -34 42 -40 69c-29 -38 -84 -76 -149 -76c-100 0 -147 51 -147 162v339c0 21 18 32 60 32h28c42 0 60 -11 60 -32v-317c0 -39 16 -62 60 -62c41 0 68 35 80 58v321c0 21 18 32 60 32h28z" />
<glyph unicode="&#x1ee5;" d="M435 525c42 0 60 -11 60 -32v-317c0 -103 12 -124 12 -145c0 -24 -87 -32 -112 -32c-32 0 -34 42 -40 69c-29 -38 -84 -76 -149 -76c-100 0 -147 51 -147 162v339c0 21 18 32 60 32h28c42 0 60 -11 60 -32v-317c0 -39 16 -62 60 -62c41 0 68 35 80 58v321 c0 21 18 32 60 32h28zM253 -80c42 0 60 -11 60 -32v-60c0 -21 -18 -32 -60 -32s-60 11 -60 32v60c0 21 18 32 60 32z" />
<glyph unicode="&#xf9;" d="M205 734c40 0 73 -6 85 -27c46 -81 65 -106 65 -117s-7 -15 -31 -15c-47 0 -64 13 -75 25c-97 106 -104 108 -104 120c0 11 20 14 60 14zM435 525c42 0 60 -11 60 -32v-317c0 -103 12 -124 12 -145c0 -24 -87 -32 -112 -32c-32 0 -34 42 -40 69c-29 -38 -84 -76 -149 -76 c-100 0 -147 51 -147 162v339c0 21 18 32 60 32h28c42 0 60 -11 60 -32v-317c0 -39 16 -62 60 -62c41 0 68 35 80 58v321c0 21 18 32 60 32h28z" />
<glyph unicode="&#x1ee7;" d="M316 668c0 14 -16 22 -32 22c-22 0 -33 -12 -42 -12c-8 0 -30 27 -30 42c0 13 45 31 80 31c72 0 111 -30 111 -79c0 -53 -82 -102 -100 -102c-24 0 -54 15 -54 23c0 17 67 45 67 75zM435 525c42 0 60 -11 60 -32v-317c0 -103 12 -124 12 -145c0 -24 -87 -32 -112 -32 c-32 0 -34 42 -40 69c-29 -38 -84 -76 -149 -76c-100 0 -147 51 -147 162v339c0 21 18 32 60 32h28c42 0 60 -11 60 -32v-317c0 -39 16 -62 60 -62c41 0 68 35 80 58v321c0 21 18 32 60 32h28z" />
<glyph unicode="&#x1b0;" d="M592 576c0 -49 -30 -83 -97 -92v-308c0 -103 12 -124 12 -145c0 -24 -87 -32 -112 -32c-32 0 -34 42 -40 69c-29 -38 -84 -76 -149 -76c-100 0 -147 51 -147 162v339c0 21 18 32 60 32h28c42 0 60 -11 60 -32v-317c0 -39 16 -62 60 -62c41 0 68 35 80 58v321 c0 21 18 32 60 32h58c34 0 47 13 47 36c0 22 -26 39 -26 52c0 7 3 14 11 19l32 22c5 4 10 5 16 5c26 0 47 -53 47 -83z" />
<glyph unicode="&#x1ee9;" d="M240 575c-24 0 -31 4 -31 15s19 36 65 117c12 21 45 27 85 27s60 -3 60 -14c0 -12 -7 -14 -104 -120c-11 -12 -28 -25 -75 -25zM592 576c0 -49 -30 -83 -97 -92v-308c0 -103 12 -124 12 -145c0 -24 -87 -32 -112 -32c-32 0 -34 42 -40 69c-29 -38 -84 -76 -149 -76 c-100 0 -147 51 -147 162v339c0 21 18 32 60 32h28c42 0 60 -11 60 -32v-317c0 -39 16 -62 60 -62c41 0 68 35 80 58v321c0 21 18 32 60 32h58c34 0 47 13 47 36c0 22 -26 39 -26 52c0 7 3 14 11 19l32 22c5 4 10 5 16 5c26 0 47 -53 47 -83z" />
<glyph unicode="&#x1ef1;" d="M592 576c0 -49 -30 -83 -97 -92v-308c0 -103 12 -124 12 -145c0 -24 -87 -32 -112 -32c-32 0 -34 42 -40 69c-29 -38 -84 -76 -149 -76c-100 0 -147 51 -147 162v339c0 21 18 32 60 32h28c42 0 60 -11 60 -32v-317c0 -39 16 -62 60 -62c41 0 68 35 80 58v321 c0 21 18 32 60 32h58c34 0 47 13 47 36c0 22 -26 39 -26 52c0 7 3 14 11 19l32 22c5 4 10 5 16 5c26 0 47 -53 47 -83zM253 -80c42 0 60 -11 60 -32v-60c0 -21 -18 -32 -60 -32s-60 11 -60 32v60c0 21 18 32 60 32z" />
<glyph unicode="&#x1eeb;" d="M324 575c-47 0 -64 13 -75 25c-97 106 -104 108 -104 120c0 11 20 14 60 14s73 -6 85 -27c46 -81 65 -106 65 -117s-7 -15 -31 -15zM592 576c0 -49 -30 -83 -97 -92v-308c0 -103 12 -124 12 -145c0 -24 -87 -32 -112 -32c-32 0 -34 42 -40 69c-29 -38 -84 -76 -149 -76 c-100 0 -147 51 -147 162v339c0 21 18 32 60 32h28c42 0 60 -11 60 -32v-317c0 -39 16 -62 60 -62c41 0 68 35 80 58v321c0 21 18 32 60 32h58c34 0 47 13 47 36c0 22 -26 39 -26 52c0 7 3 14 11 19l32 22c5 4 10 5 16 5c26 0 47 -53 47 -83z" />
<glyph unicode="&#x1eed;" d="M242 678c-8 0 -30 27 -30 42c0 13 45 31 80 31c72 0 111 -30 111 -79c0 -53 -82 -102 -100 -102c-24 0 -54 15 -54 23c0 17 67 45 67 75c0 14 -16 22 -32 22c-22 0 -33 -12 -42 -12zM592 576c0 -49 -30 -83 -97 -92v-308c0 -103 12 -124 12 -145c0 -24 -87 -32 -112 -32 c-32 0 -34 42 -40 69c-29 -38 -84 -76 -149 -76c-100 0 -147 51 -147 162v339c0 21 18 32 60 32h28c42 0 60 -11 60 -32v-317c0 -39 16 -62 60 -62c41 0 68 35 80 58v321c0 21 18 32 60 32h58c34 0 47 13 47 36c0 22 -26 39 -26 52c0 7 3 14 11 19l32 22c5 4 10 5 16 5 c26 0 47 -53 47 -83z" />
<glyph unicode="&#x1eef;" d="M127 583c-22 7 -23 27 -17 41c11 36 46 70 98 70c30 0 97 -27 126 -29c8 0 18 2 30 16c14 19 24 19 36 15l10 -3c22 -7 23 -27 18 -41c-12 -36 -47 -70 -98 -70c-31 0 -97 27 -127 29c-7 0 -19 -2 -30 -16c-13 -19 -23 -19 -36 -15zM592 576c0 -49 -30 -83 -97 -92v-308 c0 -103 12 -124 12 -145c0 -24 -87 -32 -112 -32c-32 0 -34 42 -40 69c-29 -38 -84 -76 -149 -76c-100 0 -147 51 -147 162v339c0 21 18 32 60 32h28c42 0 60 -11 60 -32v-317c0 -39 16 -62 60 -62c41 0 68 35 80 58v321c0 21 18 32 60 32h58c34 0 47 13 47 36 c0 22 -26 39 -26 52c0 7 3 14 11 19l32 22c5 4 10 5 16 5c26 0 47 -53 47 -83z" />
<glyph unicode="&#x171;" d="M275 734c40 0 60 -3 60 -14c0 -12 -7 -14 -104 -120c-11 -12 -28 -25 -75 -25c-24 0 -31 4 -31 15s19 36 65 117c12 21 45 27 85 27zM458 734c40 0 60 -3 60 -14c0 -12 -7 -14 -104 -120c-11 -12 -28 -25 -75 -25c-24 0 -31 4 -31 15s19 36 65 117c12 21 45 27 85 27z M435 525c42 0 60 -11 60 -32v-317c0 -103 12 -124 12 -145c0 -24 -87 -32 -112 -32c-32 0 -34 42 -40 69c-29 -38 -84 -76 -149 -76c-100 0 -147 51 -147 162v339c0 21 18 32 60 32h28c42 0 60 -11 60 -32v-317c0 -39 16 -62 60 -62c41 0 68 35 80 58v321c0 21 18 32 60 32 h28z" />
<glyph unicode="&#x16b;" d="M387 692c21 0 30 -12 30 -40v-15c0 -28 -9 -40 -30 -40h-215c-21 0 -30 12 -30 40v15c0 28 9 40 30 40h215zM435 525c42 0 60 -11 60 -32v-317c0 -103 12 -124 12 -145c0 -24 -87 -32 -112 -32c-32 0 -34 42 -40 69c-29 -38 -84 -76 -149 -76c-100 0 -147 51 -147 162 v339c0 21 18 32 60 32h28c42 0 60 -11 60 -32v-317c0 -39 16 -62 60 -62c41 0 68 35 80 58v321c0 21 18 32 60 32h28z" />
<glyph unicode="&#x173;" d="M554 -95c14 0 22 -9 22 -28c0 -42 -44 -50 -82 -50c-107 0 -118 73 -118 102c0 14 3 47 17 70c-30 2 -32 43 -38 69c-29 -38 -84 -76 -149 -76c-100 0 -147 51 -147 162v339c0 21 18 32 60 32h28c42 0 60 -11 60 -32v-317c0 -39 16 -62 60 -62c41 0 68 35 80 58v321 c0 21 18 32 60 32h28c42 0 60 -11 60 -32v-317c0 -103 12 -124 12 -145c0 -13 -26 -21 -53 -26c0 -15 -11 -28 -11 -57c0 -48 39 -51 62 -51c25 0 31 8 49 8z" />
<glyph unicode="&#x16f;" d="M279 749c56 0 100 -44 100 -100s-44 -99 -100 -99s-99 43 -99 99s43 100 99 100zM279 685c-20 0 -36 -17 -36 -37s16 -36 36 -36s37 16 37 36s-17 37 -37 37zM435 525c42 0 60 -11 60 -32v-317c0 -103 12 -124 12 -145c0 -24 -87 -32 -112 -32c-32 0 -34 42 -40 69 c-29 -38 -84 -76 -149 -76c-100 0 -147 51 -147 162v339c0 21 18 32 60 32h28c42 0 60 -11 60 -32v-317c0 -39 16 -62 60 -62c41 0 68 35 80 58v321c0 21 18 32 60 32h28z" />
<glyph unicode="&#x169;" d="M200 694c34 0 108 -27 141 -29c8 0 20 2 33 16c15 19 26 19 40 15l11 -3c24 -7 26 -27 20 -41c-13 -36 -52 -70 -109 -70c-34 0 -108 27 -141 29c-8 0 -21 -2 -33 -16c-15 -19 -26 -19 -40 -15l-11 3c-25 7 -26 27 -20 41c13 36 52 70 109 70zM435 525 c42 0 60 -11 60 -32v-317c0 -103 12 -124 12 -145c0 -24 -87 -32 -112 -32c-32 0 -34 42 -40 69c-29 -38 -84 -76 -149 -76c-100 0 -147 51 -147 162v339c0 21 18 32 60 32h28c42 0 60 -11 60 -32v-317c0 -39 16 -62 60 -62c41 0 68 35 80 58v321c0 21 18 32 60 32h28z" />
<glyph unicode="v" horiz-adv-x="485" d="M416 525c42 0 60 -8 60 -22c0 -5 -1 -11 -3 -18l-159 -466c-5 -16 -27 -21 -56 -21h-32c-29 0 -51 5 -56 21l-159 466c-2 7 -4 13 -4 18c0 14 19 22 61 22h33c29 0 51 -5 56 -21l59 -185c7 -24 18 -77 28 -121h4c9 44 21 98 28 121l59 185c5 16 27 21 56 21h25z" />
<glyph unicode="w" horiz-adv-x="747" d="M662 525c43 0 62 -10 62 -26c0 -4 -1 -9 -2 -15l-118 -465c-4 -14 -27 -21 -55 -21h-49c-32 0 -51 7 -55 21l-61 238c-4 14 -7 29 -11 43l-11 -44l-57 -237c-3 -14 -27 -21 -55 -21h-49c-33 0 -51 7 -55 21l-126 465c-2 6 -2 11 -2 15c0 16 19 26 62 26 c54 0 75 -6 79 -21l68 -264l11 -44c4 16 8 31 12 47l64 261c3 14 23 21 55 21h24c28 0 52 -7 55 -21l64 -267c3 -14 7 -27 10 -41l12 44l69 264c4 14 23 21 59 21z" />
<glyph unicode="&#x1e83;" horiz-adv-x="747" d="M454 734c40 0 60 -3 60 -14c0 -12 -7 -14 -104 -120c-11 -12 -28 -25 -75 -25c-24 0 -31 4 -31 15s19 36 65 117c12 21 45 27 85 27zM662 525c43 0 62 -10 62 -26c0 -4 -1 -9 -2 -15l-118 -465c-4 -14 -27 -21 -55 -21h-49c-32 0 -51 7 -55 21l-61 238 c-4 14 -7 29 -11 43l-11 -44l-57 -237c-3 -14 -27 -21 -55 -21h-49c-33 0 -51 7 -55 21l-126 465c-2 6 -2 11 -2 15c0 16 19 26 62 26c54 0 75 -6 79 -21l68 -264l11 -44c4 16 8 31 12 47l64 261c3 14 23 21 55 21h24c28 0 52 -7 55 -21l64 -267c3 -14 7 -27 10 -41l12 44 l69 264c4 14 23 21 59 21z" />
<glyph unicode="&#x175;" horiz-adv-x="747" d="M380 718c29 0 50 -1 61 -19l65 -102c4 -6 6 -11 6 -15c0 -7 -7 -10 -20 -10h-22c-29 0 -55 5 -68 24l-28 40l-28 -39c-15 -21 -38 -25 -67 -25h-22c-14 0 -20 3 -20 10c0 4 2 9 6 15l65 102c11 18 32 19 61 19h11zM662 525c43 0 62 -10 62 -26c0 -4 -1 -9 -2 -15 l-118 -465c-4 -14 -27 -21 -55 -21h-49c-32 0 -51 7 -55 21l-61 238c-4 14 -7 29 -11 43l-11 -44l-57 -237c-3 -14 -27 -21 -55 -21h-49c-33 0 -51 7 -55 21l-126 465c-2 6 -2 11 -2 15c0 16 19 26 62 26c54 0 75 -6 79 -21l68 -264l11 -44c4 16 8 31 12 47l64 261 c3 14 23 21 55 21h24c28 0 52 -7 55 -21l64 -267c3 -14 7 -27 10 -41l12 44l69 264c4 14 23 21 59 21z" />
<glyph unicode="&#x1e85;" horiz-adv-x="747" d="M284 702c42 0 60 -11 60 -32v-60c0 -21 -18 -32 -60 -32s-60 11 -60 32v60c0 21 18 32 60 32zM464 702c42 0 60 -11 60 -32v-60c0 -21 -18 -32 -60 -32s-60 11 -60 32v60c0 21 18 32 60 32zM662 525c43 0 62 -10 62 -26c0 -4 -1 -9 -2 -15l-118 -465 c-4 -14 -27 -21 -55 -21h-49c-32 0 -51 7 -55 21l-61 238c-4 14 -7 29 -11 43l-11 -44l-57 -237c-3 -14 -27 -21 -55 -21h-49c-33 0 -51 7 -55 21l-126 465c-2 6 -2 11 -2 15c0 16 19 26 62 26c54 0 75 -6 79 -21l68 -264l11 -44c4 16 8 31 12 47l64 261c3 14 23 21 55 21 h24c28 0 52 -7 55 -21l64 -267c3 -14 7 -27 10 -41l12 44l69 264c4 14 23 21 59 21z" />
<glyph unicode="&#x1e81;" horiz-adv-x="747" d="M300 734c40 0 73 -6 85 -27c46 -81 65 -106 65 -117s-7 -15 -31 -15c-47 0 -64 13 -75 25c-97 106 -104 108 -104 120c0 11 20 14 60 14zM662 525c43 0 62 -10 62 -26c0 -4 -1 -9 -2 -15l-118 -465c-4 -14 -27 -21 -55 -21h-49c-32 0 -51 7 -55 21l-61 238 c-4 14 -7 29 -11 43l-11 -44l-57 -237c-3 -14 -27 -21 -55 -21h-49c-33 0 -51 7 -55 21l-126 465c-2 6 -2 11 -2 15c0 16 19 26 62 26c54 0 75 -6 79 -21l68 -264l11 -44c4 16 8 31 12 47l64 261c3 14 23 21 55 21h24c28 0 52 -7 55 -21l64 -267c3 -14 7 -27 10 -41l12 44 l69 264c4 14 23 21 59 21z" />
<glyph unicode="x" horiz-adv-x="485" d="M415 525c43 0 63 -7 63 -18c0 -6 -4 -14 -11 -25l-146 -216l148 -224c7 -11 11 -19 11 -26c0 -11 -20 -18 -63 -18h-32c-29 0 -50 1 -61 19l-69 110l-13 21c-4 -7 -9 -14 -13 -21l-70 -110c-11 -18 -32 -19 -61 -19h-30c-43 0 -63 7 -63 18c0 6 4 14 11 25l151 224 l-142 216c-7 11 -11 19 -11 26c0 11 20 18 63 18h32c29 0 50 -1 61 -19l61 -99l15 -24c6 9 11 17 17 26l62 97c11 18 32 19 61 19h29z" />
<glyph unicode="y" horiz-adv-x="481" d="M417 525c42 0 60 -8 60 -22c0 -5 -1 -11 -3 -18l-229 -670c-6 -16 -27 -21 -56 -21h-17c-41 0 -60 8 -60 21c0 5 1 11 4 18l63 167l-165 485c-2 7 -4 13 -4 18c0 14 19 22 61 22h32c29 0 51 -5 56 -21l59 -185c7 -23 19 -78 28 -121h4c9 43 21 99 28 121l59 185 c5 16 27 21 56 21h24z" />
<glyph unicode="&#xfd;" horiz-adv-x="481" d="M321 734c40 0 60 -3 60 -14c0 -12 -7 -14 -104 -120c-11 -12 -28 -25 -75 -25c-24 0 -31 4 -31 15s19 36 65 117c12 21 45 27 85 27zM417 525c42 0 60 -8 60 -22c0 -5 -1 -11 -3 -18l-229 -670c-6 -16 -27 -21 -56 -21h-17c-41 0 -60 8 -60 21c0 5 1 11 4 18l63 167 l-165 485c-2 7 -4 13 -4 18c0 14 19 22 61 22h32c29 0 51 -5 56 -21l59 -185c7 -23 19 -78 28 -121h4c9 43 21 99 28 121l59 185c5 16 27 21 56 21h24z" />
<glyph unicode="&#x177;" horiz-adv-x="481" d="M247 718c29 0 50 -1 61 -19l65 -102c4 -6 6 -11 6 -15c0 -7 -7 -10 -20 -10h-22c-29 0 -55 5 -68 24l-28 40l-28 -39c-15 -21 -38 -25 -67 -25h-22c-14 0 -20 3 -20 10c0 4 2 9 6 15l65 102c11 18 32 19 61 19h11zM417 525c42 0 60 -8 60 -22c0 -5 -1 -11 -3 -18 l-229 -670c-6 -16 -27 -21 -56 -21h-17c-41 0 -60 8 -60 21c0 5 1 11 4 18l63 167l-165 485c-2 7 -4 13 -4 18c0 14 19 22 61 22h32c29 0 51 -5 56 -21l59 -185c7 -23 19 -78 28 -121h4c9 43 21 99 28 121l59 185c5 16 27 21 56 21h24z" />
<glyph unicode="&#xff;" horiz-adv-x="481" d="M151 702c42 0 60 -11 60 -32v-60c0 -21 -18 -32 -60 -32s-60 11 -60 32v60c0 21 18 32 60 32zM331 702c42 0 60 -11 60 -32v-60c0 -21 -18 -32 -60 -32s-60 11 -60 32v60c0 21 18 32 60 32zM417 525c42 0 60 -8 60 -22c0 -5 -1 -11 -3 -18l-229 -670 c-6 -16 -27 -21 -56 -21h-17c-41 0 -60 8 -60 21c0 5 1 11 4 18l63 167l-165 485c-2 7 -4 13 -4 18c0 14 19 22 61 22h32c29 0 51 -5 56 -21l59 -185c7 -23 19 -78 28 -121h4c9 43 21 99 28 121l59 185c5 16 27 21 56 21h24z" />
<glyph unicode="&#x1ef5;" horiz-adv-x="481" d="M417 525c42 0 60 -8 60 -22c0 -5 -1 -11 -3 -18l-229 -670c-6 -16 -27 -21 -56 -21h-17c-41 0 -60 8 -60 21c0 5 1 11 4 18l63 167l-165 485c-2 7 -4 13 -4 18c0 14 19 22 61 22h32c29 0 51 -5 56 -21l59 -185c7 -23 19 -78 28 -121h4c9 43 21 99 28 121l59 185 c5 16 27 21 56 21h24zM363 -116c42 0 60 -11 60 -32v-60c0 -21 -18 -32 -60 -32s-60 11 -60 32v60c0 21 18 32 60 32z" />
<glyph unicode="&#x1ef3;" horiz-adv-x="481" d="M167 734c40 0 73 -6 85 -27c46 -81 65 -106 65 -117s-7 -15 -31 -15c-47 0 -64 13 -75 25c-97 106 -104 108 -104 120c0 11 20 14 60 14zM417 525c42 0 60 -8 60 -22c0 -5 -1 -11 -3 -18l-229 -670c-6 -16 -27 -21 -56 -21h-17c-41 0 -60 8 -60 21c0 5 1 11 4 18l63 167 l-165 485c-2 7 -4 13 -4 18c0 14 19 22 61 22h32c29 0 51 -5 56 -21l59 -185c7 -23 19 -78 28 -121h4c9 43 21 99 28 121l59 185c5 16 27 21 56 21h24z" />
<glyph unicode="&#x1ef7;" horiz-adv-x="481" d="M278 668c0 14 -16 22 -32 22c-22 0 -33 -12 -42 -12c-8 0 -30 27 -30 42c0 13 45 31 80 31c72 0 111 -30 111 -79c0 -53 -82 -102 -100 -102c-24 0 -54 15 -54 23c0 17 67 45 67 75zM417 525c42 0 60 -8 60 -22c0 -5 -1 -11 -3 -18l-229 -670c-6 -16 -27 -21 -56 -21h-17 c-41 0 -60 8 -60 21c0 5 1 11 4 18l63 167l-165 485c-2 7 -4 13 -4 18c0 14 19 22 61 22h32c29 0 51 -5 56 -21l59 -185c7 -23 19 -78 28 -121h4c9 43 21 99 28 121l59 185c5 16 27 21 56 21h24z" />
<glyph unicode="&#x1ef9;" horiz-adv-x="481" d="M162 694c34 0 108 -27 141 -29c8 0 20 2 33 16c15 19 26 19 40 15l11 -3c24 -7 26 -27 20 -41c-13 -36 -52 -70 -109 -70c-34 0 -108 27 -141 29c-8 0 -21 -2 -33 -16c-15 -19 -26 -19 -40 -15l-11 3c-25 7 -26 27 -20 41c13 36 52 70 109 70zM417 525c42 0 60 -8 60 -22 c0 -5 -1 -11 -3 -18l-229 -670c-6 -16 -27 -21 -56 -21h-17c-41 0 -60 8 -60 21c0 5 1 11 4 18l63 167l-165 485c-2 7 -4 13 -4 18c0 14 19 22 61 22h32c29 0 51 -5 56 -21l59 -185c7 -23 19 -78 28 -121h4c9 43 21 99 28 121l59 185c5 16 27 21 56 21h24z" />
<glyph unicode="z" horiz-adv-x="489" d="M427 523c11 0 29 -49 29 -77c0 -7 -1 -12 -3 -15l-228 -314h205c21 0 30 -15 30 -50v-17c0 -35 -9 -50 -30 -50h-374c-13 0 -29 50 -29 76c0 6 1 11 3 14l229 316h-186c-21 0 -30 15 -30 50v17c0 35 9 50 30 50h354z" />
<glyph unicode="&#x17a;" horiz-adv-x="489" d="M325 734c40 0 60 -3 60 -14c0 -12 -7 -14 -104 -120c-11 -12 -28 -25 -75 -25c-24 0 -31 4 -31 15s19 36 65 117c12 21 45 27 85 27zM427 523c11 0 29 -49 29 -77c0 -7 -1 -12 -3 -15l-228 -314h205c21 0 30 -15 30 -50v-17c0 -35 -9 -50 -30 -50h-374 c-13 0 -29 50 -29 76c0 6 1 11 3 14l229 316h-186c-21 0 -30 15 -30 50v17c0 35 9 50 30 50h354z" />
<glyph unicode="&#x17e;" horiz-adv-x="489" d="M363 718c13 0 20 -3 20 -10c0 -4 -2 -9 -6 -15l-65 -102c-11 -18 -32 -19 -61 -19h-11c-29 0 -50 1 -61 19l-65 102c-4 6 -6 11 -6 15c0 7 6 10 20 10h22c29 0 52 -4 67 -25l28 -39l28 40c13 19 39 24 68 24h22zM427 523c11 0 29 -49 29 -77c0 -7 -1 -12 -3 -15 l-228 -314h205c21 0 30 -15 30 -50v-17c0 -35 -9 -50 -30 -50h-374c-13 0 -29 50 -29 76c0 6 1 11 3 14l229 316h-186c-21 0 -30 15 -30 50v17c0 35 9 50 30 50h354z" />
<glyph unicode="&#x17c;" horiz-adv-x="489" d="M245 702c42 0 60 -11 60 -32v-60c0 -21 -18 -32 -60 -32s-60 11 -60 32v60c0 21 18 32 60 32zM427 523c11 0 29 -49 29 -77c0 -7 -1 -12 -3 -15l-228 -314h205c21 0 30 -15 30 -50v-17c0 -35 -9 -50 -30 -50h-374c-13 0 -29 50 -29 76c0 6 1 11 3 14l229 316h-186 c-21 0 -30 15 -30 50v17c0 35 9 50 30 50h354z" />
<glyph unicode="&#x1e93;" horiz-adv-x="489" d="M427 523c11 0 29 -49 29 -77c0 -7 -1 -12 -3 -15l-228 -314h205c21 0 30 -15 30 -50v-17c0 -35 -9 -50 -30 -50h-374c-13 0 -29 50 -29 76c0 6 1 11 3 14l229 316h-186c-21 0 -30 15 -30 50v17c0 35 9 50 30 50h354zM243 -80c42 0 60 -11 60 -32v-60 c0 -21 -18 -32 -60 -32s-60 11 -60 32v60c0 21 18 32 60 32z" />
<glyph horiz-adv-x="541" d="M213 734c40 0 60 -3 60 -14c0 -12 -7 -14 -104 -120c-11 -12 -28 -25 -75 -25c-24 0 -31 4 -31 15s19 36 65 117c12 21 45 27 85 27zM489 734c40 0 60 -3 60 -14c0 -12 -7 -14 -104 -120c-11 -12 -28 -25 -75 -25c-24 0 -31 4 -31 15s19 36 65 117c12 21 45 27 85 27z M147 525c42 0 60 -11 60 -32v-463c0 -21 -18 -32 -60 -32h-28c-42 0 -60 11 -60 32v463c0 21 18 32 60 32h28zM423 525c42 0 60 -11 60 -32v-543c0 -109 -63 -162 -146 -162c-79 0 -104 13 -104 52c0 23 15 69 36 69c6 0 19 -4 30 -4c26 0 36 13 36 43v545c0 21 18 32 60 32 h28z" />
<glyph d="M495 93c2 -203 -67 -305 -223 -305c-103 0 -188 29 -192 71c-2 19 -3 35 -3 47c0 30 6 40 13 40c12 0 62 -41 140 -41c77 0 125 46 125 128v35c-29 -38 -84 -76 -149 -76c-100 0 -147 51 -147 162v339c0 21 18 32 60 32h28c42 0 60 -11 60 -32v-317c0 -39 16 -62 60 -62 c41 0 68 35 80 58v321c0 21 18 32 60 32h28c42 0 60 -11 60 -32v-400z" />
<glyph d="M240 575c-24 0 -31 4 -31 15s19 36 65 117c12 21 45 27 85 27s60 -3 60 -14c0 -12 -7 -14 -104 -120c-11 -12 -28 -25 -75 -25zM495 93c2 -203 -67 -305 -223 -305c-103 0 -188 29 -192 71c-2 19 -3 35 -3 47c0 30 6 40 13 40c12 0 62 -41 140 -41c77 0 125 46 125 128 v35c-29 -38 -84 -76 -149 -76c-100 0 -147 51 -147 162v339c0 21 18 32 60 32h28c42 0 60 -11 60 -32v-317c0 -39 16 -62 60 -62c41 0 68 35 80 58v321c0 21 18 32 60 32h28c42 0 60 -11 60 -32v-400z" />
<glyph d="M162 572c-14 0 -20 3 -20 10c0 4 2 9 6 15l65 102c11 18 32 19 61 19h11c29 0 50 -1 61 -19l65 -102c4 -6 6 -11 6 -15c0 -7 -7 -10 -20 -10h-22c-29 0 -55 5 -68 24l-28 40l-28 -39c-15 -21 -38 -25 -67 -25h-22zM495 93c2 -203 -67 -305 -223 -305 c-103 0 -188 29 -192 71c-2 19 -3 35 -3 47c0 30 6 40 13 40c12 0 62 -41 140 -41c77 0 125 46 125 128v35c-29 -38 -84 -76 -149 -76c-100 0 -147 51 -147 162v339c0 21 18 32 60 32h28c42 0 60 -11 60 -32v-317c0 -39 16 -62 60 -62c41 0 68 35 80 58v321 c0 21 18 32 60 32h28c42 0 60 -11 60 -32v-400z" />
<glyph d="M189 578c-42 0 -60 11 -60 32v60c0 21 18 32 60 32s60 -11 60 -32v-60c0 -21 -18 -32 -60 -32zM369 578c-42 0 -60 11 -60 32v60c0 21 18 32 60 32s60 -11 60 -32v-60c0 -21 -18 -32 -60 -32zM495 93c2 -203 -67 -305 -223 -305c-103 0 -188 29 -192 71 c-2 19 -3 35 -3 47c0 30 6 40 13 40c12 0 62 -41 140 -41c77 0 125 46 125 128v35c-29 -38 -84 -76 -149 -76c-100 0 -147 51 -147 162v339c0 21 18 32 60 32h28c42 0 60 -11 60 -32v-317c0 -39 16 -62 60 -62c41 0 68 35 80 58v321c0 21 18 32 60 32h28c42 0 60 -11 60 -32 v-400z" />
<glyph d="M495 93c2 -203 -67 -305 -223 -305c-103 0 -188 29 -192 71c-2 19 -3 35 -3 47c0 30 6 40 13 40c12 0 62 -41 140 -41c77 0 125 46 125 128v35c-29 -38 -84 -76 -149 -76c-100 0 -147 51 -147 162v339c0 21 18 32 60 32h28c42 0 60 -11 60 -32v-317c0 -39 16 -62 60 -62 c41 0 68 35 80 58v321c0 21 18 32 60 32h28c42 0 60 -11 60 -32v-400zM533 -116c42 0 60 -11 60 -32v-60c0 -21 -18 -32 -60 -32s-60 11 -60 32v60c0 21 18 32 60 32z" />
<glyph d="M324 575c-47 0 -64 13 -75 25c-97 106 -104 108 -104 120c0 11 20 14 60 14s73 -6 85 -27c46 -81 65 -106 65 -117s-7 -15 -31 -15zM495 93c2 -203 -67 -305 -223 -305c-103 0 -188 29 -192 71c-2 19 -3 35 -3 47c0 30 6 40 13 40c12 0 62 -41 140 -41 c77 0 125 46 125 128v35c-29 -38 -84 -76 -149 -76c-100 0 -147 51 -147 162v339c0 21 18 32 60 32h28c42 0 60 -11 60 -32v-317c0 -39 16 -62 60 -62c41 0 68 35 80 58v321c0 21 18 32 60 32h28c42 0 60 -11 60 -32v-400z" />
<glyph d="M242 678c-8 0 -30 27 -30 42c0 13 45 31 80 31c72 0 111 -30 111 -79c0 -53 -82 -102 -100 -102c-24 0 -54 15 -54 23c0 17 67 45 67 75c0 14 -16 22 -32 22c-22 0 -33 -12 -42 -12zM495 93c2 -203 -67 -305 -223 -305c-103 0 -188 29 -192 71c-2 19 -3 35 -3 47 c0 30 6 40 13 40c12 0 62 -41 140 -41c77 0 125 46 125 128v35c-29 -38 -84 -76 -149 -76c-100 0 -147 51 -147 162v339c0 21 18 32 60 32h28c42 0 60 -11 60 -32v-317c0 -39 16 -62 60 -62c41 0 68 35 80 58v321c0 21 18 32 60 32h28c42 0 60 -11 60 -32v-400z" />
<glyph d="M111 583c-25 7 -26 27 -20 41c13 36 52 70 109 70c34 0 108 -27 141 -29c8 0 20 2 33 16c15 19 26 19 40 15l11 -3c24 -7 26 -27 20 -41c-13 -36 -52 -70 -109 -70c-34 0 -108 27 -141 29c-8 0 -21 -2 -33 -16c-15 -19 -26 -19 -40 -15zM495 93 c2 -203 -67 -305 -223 -305c-103 0 -188 29 -192 71c-2 19 -3 35 -3 47c0 30 6 40 13 40c12 0 62 -41 140 -41c77 0 125 46 125 128v35c-29 -38 -84 -76 -149 -76c-100 0 -147 51 -147 162v339c0 21 18 32 60 32h28c42 0 60 -11 60 -32v-317c0 -39 16 -62 60 -62 c41 0 68 35 80 58v321c0 21 18 32 60 32h28c42 0 60 -11 60 -32v-400z" />
<glyph horiz-adv-x="485" d="M348 734c40 0 60 -3 60 -14c0 -12 -14 -26 -74 -120c-9 -14 -28 -25 -75 -25c-24 0 -31 4 -31 15s9 42 35 117c8 23 45 27 85 27zM299 531c71 0 166 -23 166 -69c0 -19 -36 -77 -53 -77c-4 0 -10 3 -18 7c-18 9 -45 22 -87 22c-80 0 -113 -50 -113 -152 c0 -103 31 -153 107 -153c47 0 79 14 98 23c8 3 14 6 18 6c22 0 52 -56 52 -76c0 -56 -142 -70 -175 -70c-171 0 -252 87 -252 266c0 178 78 273 257 273z" />
<glyph d="M352 734c40 0 60 -3 60 -14c0 -12 -14 -26 -74 -120c-9 -14 -28 -25 -75 -25c-24 0 -31 4 -31 15s9 42 35 117c8 23 45 27 85 27zM351 531c100 0 147 -51 147 -162v-339c0 -21 -18 -32 -60 -32h-28c-42 0 -60 11 -60 32v317c0 39 -16 62 -60 62c-41 0 -68 -35 -80 -58 v-321c0 -21 -18 -32 -60 -32h-28c-42 0 -60 11 -60 32v317c0 100 -12 121 -12 141c0 24 87 32 112 32c32 0 34 -40 40 -65c29 38 84 76 149 76z" />
<glyph horiz-adv-x="569" d="M358 734c40 0 60 -3 60 -14c0 -12 -14 -26 -74 -120c-9 -14 -28 -25 -75 -25c-24 0 -31 4 -31 15s9 42 35 117c8 23 45 27 85 27zM285 531c159 0 242 -95 242 -269s-83 -270 -242 -270s-243 96 -243 270s84 269 243 269zM285 414c-64 0 -93 -52 -93 -152s29 -153 93 -153 s92 53 92 153s-28 152 -92 152z" />
<glyph horiz-adv-x="413" d="M280 734c40 0 60 -3 60 -14c0 -12 -14 -26 -74 -120c-9 -14 -28 -25 -75 -25c-24 0 -31 4 -31 15s9 42 35 117c8 23 45 27 85 27zM225 531c58 0 150 -16 150 -58c0 -22 -24 -79 -43 -79c-11 0 -39 21 -86 21c-33 0 -53 -10 -53 -35c0 -44 60 -54 113 -79 c45 -22 87 -59 87 -138c0 -102 -71 -171 -196 -171c-75 0 -166 25 -166 68c0 26 33 77 53 77c15 0 48 -28 101 -28c38 0 58 15 58 42c0 38 -41 48 -86 66c-49 19 -114 50 -114 150c0 104 71 164 182 164z" />
<glyph horiz-adv-x="489" d="M318 734c40 0 60 -3 60 -14c0 -12 -14 -26 -74 -120c-9 -14 -28 -25 -75 -25c-24 0 -31 4 -31 15s9 42 35 117c8 23 45 27 85 27zM427 523c11 0 29 -49 29 -77c0 -7 -1 -12 -3 -15l-228 -314h205c21 0 30 -15 30 -50v-17c0 -35 -9 -50 -30 -50h-374c-13 0 -29 50 -29 76 c0 6 1 11 3 14l229 316h-186c-21 0 -30 15 -30 50v17c0 35 9 50 30 50h354z" />
<glyph horiz-adv-x="546" d="M423 525c40 0 60 -9 61 -25v-407c0 -203 -66 -305 -222 -305c-103 0 -188 29 -192 71c-2 19 -3 35 -3 47c0 30 6 40 13 40c12 0 62 -41 140 -41c77 0 117 46 116 128v30c-25 -34 -66 -59 -116 -59c-159 0 -197 158 -197 264c0 159 79 263 202 263c56 0 102 -32 125 -52 c8 35 11 45 61 46h12zM264 125c32 0 55 27 72 58v142c0 28 2 51 3 63c-18 14 -41 26 -68 26c-63 0 -99 -50 -99 -145c0 -67 13 -144 92 -144z" />
<glyph horiz-adv-x="546" d="M251 575c-87 0 -147 55 -147 112c0 18 13 28 35 28c17 0 24 -8 33 -18c13 -14 28 -31 79 -31c54 0 68 19 81 33c8 9 15 16 31 16c22 0 35 -10 35 -28c0 -57 -60 -112 -147 -112zM423 525c40 0 60 -9 61 -25v-407c0 -203 -66 -305 -222 -305c-103 0 -188 29 -192 71 c-2 19 -3 35 -3 47c0 30 6 40 13 40c12 0 62 -41 140 -41c77 0 117 46 116 128v30c-25 -34 -66 -59 -116 -59c-159 0 -197 158 -197 264c0 159 79 263 202 263c56 0 102 -32 125 -52c8 35 11 45 61 46h12zM264 125c32 0 55 27 72 58v142c0 28 2 51 3 63 c-18 14 -41 26 -68 26c-63 0 -99 -50 -99 -145c0 -67 13 -144 92 -144z" />
<glyph horiz-adv-x="546" d="M134 572c-14 0 -20 3 -20 10c0 4 2 9 6 15l65 102c11 18 32 19 61 19h11c29 0 50 -1 61 -19l65 -102c4 -6 6 -11 6 -15c0 -7 -7 -10 -20 -10h-22c-29 0 -55 5 -68 24l-28 40l-28 -39c-15 -21 -38 -25 -67 -25h-22zM423 525c40 0 60 -9 61 -25v-407 c0 -203 -66 -305 -222 -305c-103 0 -188 29 -192 71c-2 19 -3 35 -3 47c0 30 6 40 13 40c12 0 62 -41 140 -41c77 0 117 46 116 128v30c-25 -34 -66 -59 -116 -59c-159 0 -197 158 -197 264c0 159 79 263 202 263c56 0 102 -32 125 -52c8 35 11 45 61 46h12zM264 125 c32 0 55 27 72 58v142c0 28 2 51 3 63c-18 14 -41 26 -68 26c-63 0 -99 -50 -99 -145c0 -67 13 -144 92 -144z" />
<glyph horiz-adv-x="546" d="M238 575c-35 0 -50 19 -50 44c0 67 73 145 108 145c18 0 45 -6 45 -22c0 -18 -24 -43 -24 -123c0 -27 -18 -44 -60 -44h-19zM423 525c40 0 60 -9 61 -25v-407c0 -203 -66 -305 -222 -305c-103 0 -188 29 -192 71c-2 19 -3 35 -3 47c0 30 6 40 13 40c12 0 62 -41 140 -41 c77 0 117 46 116 128v30c-25 -34 -66 -59 -116 -59c-159 0 -197 158 -197 264c0 159 79 263 202 263c56 0 102 -32 125 -52c8 35 11 45 61 46h12zM264 125c32 0 55 27 72 58v142c0 28 2 51 3 63c-18 14 -41 26 -68 26c-63 0 -99 -50 -99 -145c0 -67 13 -144 92 -144z" />
<glyph horiz-adv-x="546" d="M251 578c-42 0 -60 11 -60 32v60c0 21 18 32 60 32s60 -11 60 -32v-60c0 -21 -18 -32 -60 -32zM423 525c40 0 60 -9 61 -25v-407c0 -203 -66 -305 -222 -305c-103 0 -188 29 -192 71c-2 19 -3 35 -3 47c0 30 6 40 13 40c12 0 62 -41 140 -41c77 0 117 46 116 128v30 c-25 -34 -66 -59 -116 -59c-159 0 -197 158 -197 264c0 159 79 263 202 263c56 0 102 -32 125 -52c8 35 11 45 61 46h12zM264 125c32 0 55 27 72 58v142c0 28 2 51 3 63c-18 14 -41 26 -68 26c-63 0 -99 -50 -99 -145c0 -67 13 -144 92 -144z" />
<glyph unicode="&#xaa;" horiz-adv-x="319" d="M152 708c78 0 106 -35 106 -83v-94c0 -51 6 -62 6 -71c0 -13 -43 -17 -56 -17c-15 0 -16 21 -19 34c-3 -6 -28 -37 -74 -37c-53 0 -73 31 -73 72s17 93 143 93v16c0 20 -12 28 -39 28c-37 0 -58 -15 -64 -15c-10 0 -25 29 -25 40c0 16 39 34 95 34zM185 556 c-47 0 -70 -12 -70 -36c0 -12 8 -22 25 -22c19 0 37 13 45 31v27z" />
<glyph unicode="&#xba;" horiz-adv-x="337" d="M168 708c79 0 120 -47 120 -133c0 -87 -41 -134 -120 -134s-121 47 -121 134c0 86 42 133 121 133zM168 650c-32 0 -46 -26 -46 -75c0 -50 14 -76 46 -76s45 26 45 76c0 49 -13 75 -45 75z" />
<glyph unicode="&#x394;" horiz-adv-x="708" d="M383 710c20 0 33 -8 41 -27l243 -553c7 -15 9 -27 9 -44v-51c0 -23 -12 -35 -35 -35h-577c-23 0 -35 12 -35 35v51c0 17 2 29 9 44l243 553c8 19 21 27 41 27h61zM357 513h-10l-166 -383h342z" />
<glyph unicode="&#x3a9;" horiz-adv-x="731" d="M366 708c206 0 321 -123 321 -348c0 -98 -30 -184 -93 -247c0 0 49 18 82 18c21 0 30 -15 30 -50v-31c0 -35 -9 -50 -30 -50h-247c-21 0 -30 15 -30 50v26c0 21 2 30 14 34c73 23 116 99 116 240c0 147 -56 226 -163 226s-163 -79 -163 -226c0 -141 43 -217 116 -240 c12 -4 14 -13 14 -34v-26c0 -35 -9 -50 -30 -50h-247c-21 0 -30 15 -30 50v31c0 35 9 50 30 50c33 0 82 -18 82 -18c-63 63 -93 149 -93 247c0 225 115 348 321 348z" />
<glyph unicode="&#x3bc;" horiz-adv-x="566" d="M489 176c0 -103 12 -124 12 -145c0 -24 -87 -32 -112 -32c-32 0 -34 42 -40 69c-29 -39 -84 -75 -148 -76v-166c0 -21 -18 -32 -60 -32h-28c-42 0 -60 11 -60 32v667c0 21 18 32 60 32h28c42 0 60 -11 60 -32v-317c0 -39 16 -62 60 -62c41 0 68 35 80 58v321 c0 21 18 32 60 32h28c42 0 60 -11 60 -32v-317z" />
<glyph unicode="&#x3c0;" horiz-adv-x="616" d="M567 523c22 0 34 -11 34 -31l-4 -53c-2 -22 -14 -33 -37 -33h-47v-252c0 -84 9 -121 9 -126c0 -18 -19 -30 -61 -30h-27c-61 0 -66 76 -66 121v287h-93c-6 -124 -36 -293 -71 -379c-8 -20 -35 -29 -70 -29h-13c-39 0 -63 10 -63 23c0 3 1 6 2 10c34 98 64 253 70 375 c-57 0 -80 -12 -89 -12c-35 0 -36 76 -36 79c0 41 75 50 157 50h405z" />
<glyph unicode="0" horiz-adv-x="535" d="M267 708c148 0 237 -133 237 -358s-89 -358 -237 -358s-237 133 -237 358s89 358 237 358zM267 591c-56 0 -87 -82 -87 -241s31 -241 87 -241s87 82 87 241s-31 241 -87 241z" />
<glyph unicode="1" horiz-adv-x="535" d="M312 704c16 0 41 -12 41 -24v-563h107c21 0 30 -15 30 -50v-17c0 -35 -9 -50 -30 -50h-388c-21 0 -30 15 -30 50v17c0 35 9 50 30 50h133v449l-136 -20c-26 0 -32 56 -32 84c0 15 9 25 26 28z" />
<glyph unicode="2" horiz-adv-x="535" d="M259 708c141 0 218 -82 218 -196c0 -64 -25 -119 -61 -163l-188 -232h231c21 0 30 -15 30 -50v-17c0 -35 -9 -50 -30 -50h-398c-15 0 -28 59 -28 88c0 7 1 12 3 15l253 310c22 27 38 59 38 96c0 54 -40 81 -93 81c-64 0 -99 -43 -117 -43c-31 0 -57 43 -57 69 c0 59 105 92 199 92z" />
<glyph unicode="3" horiz-adv-x="535" d="M251 708c125 0 205 -68 205 -175c0 -69 -36 -122 -93 -146v-4c79 -30 116 -97 116 -179c0 -133 -93 -212 -226 -212c-75 0 -217 20 -217 82c0 19 26 76 49 76c18 0 64 -41 145 -41c59 0 99 35 99 97c0 66 -33 102 -117 102h-28c-21 0 -30 15 -30 50v18c0 35 9 50 30 50 h19c65 0 103 33 103 83c0 49 -27 81 -81 81c-76 0 -100 -31 -118 -31c-20 0 -50 49 -50 76c0 50 95 73 194 73z" />
<glyph unicode="4" horiz-adv-x="535" d="M398 702c42 0 60 -11 60 -32v-411h38c21 0 30 -15 30 -50v-17c0 -35 -9 -50 -30 -50h-38v-112c0 -21 -18 -32 -60 -32h-28c-42 0 -60 11 -60 32v112h-262c-17 0 -37 66 -37 93c0 5 1 9 2 11l297 437c12 17 32 19 61 19h27zM306 489l-146 -230h150v229z" />
<glyph unicode="5" horiz-adv-x="535" d="M425 700c21 0 30 -15 30 -50v-27c0 -28 -9 -40 -30 -40h-202l-10 -143h26c151 0 251 -52 251 -224c0 -169 -135 -224 -256 -224c-113 0 -196 32 -196 72c0 18 31 79 54 79c11 0 61 -34 141 -34c65 0 107 38 107 103c0 70 -33 111 -125 111h-109c-29 0 -37 12 -37 40 l19 297c2 28 13 40 42 40h295z" />
<glyph unicode="6" horiz-adv-x="535" d="M387 704c34 0 50 -63 50 -83c0 -14 -2 -18 -13 -21c-97 -29 -184 -98 -217 -197c39 21 71 25 100 25c74 0 197 -50 197 -212s-122 -224 -235 -224s-236 68 -236 261c0 384 340 451 354 451zM264 311c-27 0 -54 -10 -79 -24c-1 -15 -1 -30 -1 -46c0 -99 39 -132 86 -132 s85 42 85 103s-33 99 -91 99z" />
<glyph unicode="7" horiz-adv-x="535" d="M464 700c11 0 30 -59 30 -90c0 -5 -1 -10 -2 -13l-263 -579c-7 -16 -29 -20 -58 -20h-37c-40 0 -59 7 -59 19c0 5 2 11 6 19l248 547h-261c-21 0 -30 15 -30 50v17c0 35 9 50 30 50h396z" />
<glyph unicode="8" horiz-adv-x="535" d="M276 708c130 0 207 -80 207 -174c0 -84 -37 -122 -87 -149c62 -28 110 -83 110 -193c0 -92 -64 -200 -235 -200s-242 98 -242 209c0 94 46 153 101 174c-43 29 -74 71 -74 144c0 98 71 189 220 189zM271 591c-36 0 -69 -23 -69 -67c0 -51 36 -73 83 -92 c36 24 54 56 54 92c0 42 -32 67 -68 67zM233 326c-34 -25 -55 -59 -55 -116c0 -60 33 -101 91 -101s87 49 87 91c0 79 -58 102 -123 126z" />
<glyph unicode="9" horiz-adv-x="535" d="M264 707c113 0 236 -68 236 -261c0 -384 -340 -451 -354 -451c-34 0 -50 63 -50 83c0 14 2 18 13 21c97 29 184 98 217 197c-39 -21 -71 -25 -100 -25c-74 0 -197 50 -197 212s122 224 235 224zM263 590c-47 0 -85 -42 -85 -103s33 -99 91 -99c27 0 54 10 79 24 c1 15 1 30 1 46c0 99 -39 132 -86 132z" />
<glyph unicode="&#x2044;" horiz-adv-x="264" d="M338 700c14 0 21 -4 21 -11c0 -4 -2 -9 -6 -15l-359 -648c-11 -19 -25 -26 -45 -26h-17c-14 0 -21 3 -21 11c0 4 2 9 6 15l359 648c10 18 25 26 45 26h17z" />
<glyph unicode="&#xbd;" horiz-adv-x="746" d="M176 704c8 0 23 -7 23 -14v-378c0 -12 -11 -19 -35 -19h-16c-24 0 -35 7 -35 19v312l-79 -13c-15 0 -19 34 -19 50c0 9 5 15 15 17zM539 700c14 0 21 -4 21 -11c0 -4 -2 -9 -6 -15l-359 -648c-11 -19 -25 -26 -45 -26h-17c-14 0 -21 3 -21 11c0 4 2 9 6 15l359 648 c10 18 25 26 45 26h17zM567 414c81 0 127 -48 127 -114c0 -38 -15 -70 -36 -96l-109 -136h134c13 0 18 -8 18 -28v-10c0 -21 -5 -30 -18 -30h-232c-9 0 -17 35 -17 52c0 4 1 7 2 9l148 180c13 16 22 35 22 57c0 32 -24 47 -54 47c-38 0 -60 -24 -68 -24c-18 0 -34 24 -34 40 c0 34 61 53 117 53z" />
<glyph unicode="&#x2153;" horiz-adv-x="746" d="M176 704c8 0 23 -7 23 -14v-378c0 -12 -11 -19 -35 -19h-16c-24 0 -35 7 -35 19v312l-79 -13c-15 0 -19 34 -19 50c0 9 5 15 15 17zM539 700c14 0 21 -4 21 -11c0 -4 -2 -9 -6 -15l-359 -648c-11 -19 -25 -26 -45 -26h-17c-14 0 -21 3 -21 11c0 4 2 9 6 15l359 648 c10 18 25 26 45 26h17zM567 414c74 0 121 -40 121 -103c0 -40 -21 -70 -55 -85v-4c46 -18 68 -56 68 -104c0 -78 -54 -125 -133 -125c-44 0 -127 12 -127 49c0 11 15 44 29 44c10 0 37 -24 85 -24c35 0 58 21 58 57c0 39 -19 60 -69 60h-16c-12 0 -18 9 -18 29v11 c0 21 6 29 18 29h11c38 0 61 20 61 49s-16 48 -48 48c-45 0 -59 -19 -69 -19c-12 0 -30 29 -30 45c0 29 56 43 114 43z" />
<glyph unicode="&#x2154;" horiz-adv-x="826" d="M157 707c81 0 127 -48 127 -114c0 -38 -15 -70 -36 -96l-109 -136h134c13 0 18 -8 18 -28v-10c0 -21 -5 -30 -18 -30h-232c-9 0 -17 35 -17 52c0 4 1 7 2 9l148 180c13 16 22 35 22 57c0 32 -24 47 -54 47c-38 0 -60 -24 -68 -24c-18 0 -34 24 -34 40c0 34 61 53 117 53z M619 700c14 0 21 -4 21 -11c0 -4 -2 -9 -6 -15l-359 -648c-11 -19 -25 -26 -45 -26h-17c-14 0 -21 3 -21 11c0 4 2 9 6 15l359 648c10 18 25 26 45 26h17zM647 414c74 0 121 -40 121 -103c0 -40 -21 -70 -55 -85v-4c46 -18 68 -56 68 -104c0 -78 -54 -125 -133 -125 c-44 0 -127 12 -127 49c0 11 15 44 29 44c10 0 37 -24 85 -24c35 0 58 21 58 57c0 39 -19 60 -69 60h-16c-12 0 -18 9 -18 29v11c0 21 6 29 18 29h11c38 0 61 20 61 49s-16 48 -48 48c-45 0 -59 -19 -69 -19c-12 0 -30 29 -30 45c0 29 56 43 114 43z" />
<glyph unicode="&#xbc;" horiz-adv-x="671" d="M176 704c8 0 23 -7 23 -14v-378c0 -12 -11 -19 -35 -19h-16c-24 0 -35 7 -35 19v312l-79 -13c-15 0 -19 34 -19 50c0 9 5 15 15 17zM539 700c14 0 21 -4 21 -11c0 -4 -2 -9 -6 -15l-359 -648c-11 -19 -25 -26 -45 -26h-17c-14 0 -21 3 -21 11c0 4 2 9 6 15l359 648 c10 18 25 26 45 26h17zM573 410c25 0 35 -7 35 -19v-241h23c12 0 17 -9 17 -29v-10c0 -20 -5 -29 -17 -29h-23v-65c0 -13 -10 -19 -35 -19h-16c-24 0 -35 6 -35 19v65h-153c-10 0 -21 38 -21 54c0 3 0 5 1 7l173 256c7 9 19 11 36 11h15zM529 293h-4l-90 -143h87v90z" />
<glyph unicode="&#xbe;" horiz-adv-x="738" d="M153 708c74 0 121 -40 121 -103c0 -40 -21 -70 -55 -85v-4c46 -18 68 -56 68 -104c0 -78 -54 -125 -133 -125c-44 0 -127 12 -127 49c0 11 15 44 29 44c10 0 37 -24 85 -24c35 0 58 21 58 57c0 39 -19 60 -69 60h-16c-12 0 -18 9 -18 29v11c0 21 6 29 18 29h11 c38 0 61 20 61 49s-16 48 -48 48c-45 0 -59 -19 -69 -19c-12 0 -30 29 -30 45c0 29 56 43 114 43zM577 700c14 0 21 -4 21 -11c0 -4 -2 -9 -6 -15l-359 -648c-11 -19 -25 -26 -45 -26h-17c-14 0 -21 3 -21 11c0 4 2 9 6 15l359 648c10 18 25 26 45 26h17zM611 410 c25 0 35 -7 35 -19v-241h23c12 0 17 -9 17 -29v-10c0 -20 -5 -29 -17 -29h-23v-65c0 -13 -10 -19 -35 -19h-16c-24 0 -35 6 -35 19v65h-153c-10 0 -21 38 -21 54c0 3 0 5 1 7l173 256c7 9 19 11 36 11h15zM567 293h-4l-90 -143h87v90z" />
<glyph unicode="&#x215b;" horiz-adv-x="746" d="M176 704c8 0 23 -7 23 -14v-378c0 -12 -11 -19 -35 -19h-16c-24 0 -35 7 -35 19v312l-79 -13c-15 0 -19 34 -19 50c0 9 5 15 15 17zM539 700c14 0 21 -4 21 -11c0 -4 -2 -9 -6 -15l-359 -648c-11 -19 -25 -26 -45 -26h-17c-14 0 -21 3 -21 11c0 4 2 9 6 15l359 648 c10 18 25 26 45 26h17zM568 418c77 0 122 -47 122 -103c0 -50 -22 -72 -51 -88c36 -16 65 -49 65 -114c0 -54 -38 -118 -139 -118s-143 58 -143 124c0 55 27 90 60 102c-26 17 -44 42 -44 85c0 58 42 112 130 112zM565 349c-21 0 -41 -14 -41 -40c0 -30 21 -43 49 -54 c21 14 32 33 32 54c0 25 -19 40 -40 40zM542 192c-20 -14 -32 -34 -32 -68c0 -36 19 -60 54 -60c34 0 51 29 51 54c0 47 -34 60 -73 74z" />
<glyph unicode="&#xb9;" horiz-adv-x="217" d="M176 704c8 0 23 -7 23 -14v-378c0 -12 -11 -19 -35 -19h-16c-24 0 -35 7 -35 19v312l-79 -13c-15 0 -19 34 -19 50c0 9 5 15 15 17z" />
<glyph unicode="&#xb2;" horiz-adv-x="320" d="M149 706c81 0 127 -48 127 -114c0 -38 -15 -70 -36 -96l-109 -136h134c13 0 18 -8 18 -28v-10c0 -21 -5 -30 -18 -30h-232c-9 0 -17 35 -17 52c0 4 1 7 2 9l148 180c13 16 22 35 22 57c0 32 -24 47 -54 47c-38 0 -60 -24 -68 -24c-18 0 -34 24 -34 40c0 34 61 53 117 53z " />
<glyph unicode="&#xb3;" horiz-adv-x="320" d="M147 708c74 0 121 -40 121 -103c0 -40 -21 -70 -55 -85v-4c46 -18 68 -56 68 -104c0 -78 -54 -125 -133 -125c-44 0 -127 12 -127 49c0 11 15 44 29 44c10 0 37 -24 85 -24c35 0 58 21 58 57c0 39 -19 60 -69 60h-16c-12 0 -18 9 -18 29v11c0 21 6 29 18 29h11 c38 0 61 20 61 49s-16 48 -48 48c-45 0 -59 -19 -69 -19c-12 0 -30 29 -30 45c0 29 56 43 114 43z" />
<glyph unicode="*" horiz-adv-x="373" d="M182 708c21 0 30 -9 30 -30v-82l75 25c5 1 9 2 13 2c13 0 29 -13 29 -37c0 -12 -7 -18 -22 -23l-76 -24l57 -79c6 -7 8 -14 8 -20c0 -12 -20 -29 -33 -29c-8 0 -16 5 -23 15l-59 83l-59 -83c-8 -11 -16 -15 -23 -15c-14 0 -34 17 -34 29c0 6 3 13 9 20l56 79l-75 24 c-15 5 -22 12 -22 23c0 14 7 37 28 37c4 0 9 -1 14 -2l77 -25v82c0 21 9 30 30 30z" />
<glyph unicode="\" horiz-adv-x="361" d="M68 702c31 0 53 -8 60 -30l231 -664c2 -5 3 -10 3 -14c0 -10 -14 -16 -43 -16h-24c-31 0 -53 9 -60 30l-230 664c-2 5 -3 9 -3 13c0 10 13 17 43 17h23z" />
<glyph unicode="&#xb7;" horiz-adv-x="267" d="M141 429c39 0 70 -31 70 -70s-31 -70 -70 -70s-70 31 -70 70s31 70 70 70z" />
<glyph unicode="&#x2022;" horiz-adv-x="336" d="M168 459c73 0 133 -60 133 -133s-60 -132 -133 -132s-132 59 -132 132s59 133 132 133z" />
<glyph unicode=":" horiz-adv-x="198" d="M114 525c42 0 60 -11 60 -32v-92c0 -21 -18 -32 -60 -32h-32c-42 0 -60 11 -60 32v92c0 21 18 32 60 32h32zM114 154c42 0 60 -11 60 -32v-92c0 -21 -18 -32 -60 -32h-32c-42 0 -60 11 -60 32v92c0 21 18 32 60 32h32z" />
<glyph unicode="," horiz-adv-x="198" d="M114 154c42 0 60 -19 60 -44c0 -112 -94 -235 -138 -235c-18 0 -45 6 -45 22c0 9 4 20 9 33c13 32 35 82 35 180c0 27 18 44 60 44h19z" />
<glyph unicode="&#x2026;" horiz-adv-x="617" d="M116 154c42 0 60 -11 60 -32v-92c0 -21 -18 -32 -60 -32h-32c-42 0 -60 11 -60 32v92c0 21 18 32 60 32h32zM326 154c42 0 60 -11 60 -32v-92c0 -21 -18 -32 -60 -32h-32c-42 0 -60 11 -60 32v92c0 21 18 32 60 32h32zM536 154c42 0 60 -11 60 -32v-92 c0 -21 -18 -32 -60 -32h-32c-42 0 -60 11 -60 32v92c0 21 18 32 60 32h32z" />
<glyph unicode="!" horiz-adv-x="294" d="M197 702c39 0 60 -10 60 -28c-17 -140 -33 -280 -50 -420c-3 -21 -10 -32 -51 -32h-11c-41 0 -51 11 -51 32v416c0 21 18 32 60 32h43zM166 154c42 0 60 -11 60 -32v-92c0 -21 -18 -32 -60 -32h-32c-42 0 -60 11 -60 32v92c0 21 18 32 60 32h32z" />
<glyph unicode="&#xa1;" horiz-adv-x="294" d="M170 525c42 0 60 -11 60 -32v-92c0 -21 -18 -32 -60 -32h-32c-42 0 -60 11 -60 32v92c0 21 18 32 60 32h32zM159 300c41 0 51 -11 51 -32v-416c0 -21 -18 -32 -60 -32h-43c-39 0 -60 10 -60 28c0 21 33 280 50 420c3 21 10 32 51 32h11z" />
<glyph unicode="#" horiz-adv-x="534" d="M444 686c31 0 45 -8 45 -22l-27 -151h33c21 0 30 -15 30 -50v-10c0 -35 -9 -50 -30 -50h-53l-21 -110h42c21 0 30 -15 30 -50v-10c0 -35 -9 -50 -30 -50h-62l-29 -154c-4 -21 -22 -31 -55 -31h-13c-32 0 -46 6 -46 23c0 6 4 21 30 162h-94l-29 -154 c-4 -21 -22 -31 -55 -31h-13c-32 0 -46 6 -46 23c0 6 4 21 30 162h-43c-21 0 -30 15 -30 50v10c0 35 9 50 30 50h63l21 110h-48c-21 0 -30 15 -30 50v10c0 35 9 50 30 50h68l26 142c4 21 23 31 56 31h13c31 0 45 -8 45 -22l-27 -151h94l26 142c4 21 23 31 56 31h13zM329 403 h-94l-21 -110h94z" />
<glyph unicode="." horiz-adv-x="198" d="M114 154c42 0 60 -11 60 -32v-92c0 -21 -18 -32 -60 -32h-32c-42 0 -60 11 -60 32v92c0 21 18 32 60 32h32z" />
<glyph unicode="?" horiz-adv-x="445" d="M220 708c134 0 217 -68 217 -178c0 -153 -168 -185 -186 -281c-6 -21 -20 -27 -53 -27h-23c-35 0 -49 8 -49 29c0 58 33 106 68 148c42 49 87 88 87 121c0 35 -23 56 -74 56c-58 0 -98 -31 -112 -31c-28 0 -63 61 -63 82c0 59 110 81 188 81zM202 154c42 0 60 -11 60 -32 v-92c0 -21 -18 -32 -60 -32h-32c-42 0 -60 11 -60 32v92c0 21 18 32 60 32h32z" />
<glyph unicode="&#xbf;" horiz-adv-x="425" d="M285 525c42 0 60 -11 60 -32v-92c0 -21 -18 -32 -60 -32h-32c-42 0 -60 11 -60 32v92c0 21 18 32 60 32h32zM280 301c35 0 49 -8 49 -29c0 -57 -32 -105 -67 -147c-42 -49 -88 -88 -88 -122c0 -35 23 -56 74 -56c58 0 98 31 112 31c28 0 63 -61 63 -82 c0 -59 -110 -81 -188 -81c-134 0 -217 68 -217 178c0 153 168 185 186 281c6 21 20 27 53 27h23z" />
</font>
</defs>
</svg>
