<?xml version="1.0" standalone="no"?>
<!DOCTYPE svg PUBLIC "-//W3C//DTD SVG 1.1//EN" "http://www.w3.org/Graphics/SVG/1.1/DTD/svg11.dtd" >
<svg xmlns="http://www.w3.org/2000/svg">
<metadata></metadata>
<defs>
<font id="castletregular" horiz-adv-x="1043" >
<font-face units-per-em="2048" ascent="1700" descent="-348" />
<missing-glyph horiz-adv-x="558" />
<glyph horiz-adv-x="0" />
<glyph horiz-adv-x="682" />
<glyph unicode=" "  horiz-adv-x="558" />
<glyph unicode="&#x09;" horiz-adv-x="558" />
<glyph unicode="&#xa0;" horiz-adv-x="558" />
<glyph unicode="!" horiz-adv-x="564" d="M141 106q0 50 38.5 83t97.5 34q60 0 99 -33.5t39 -85.5q0 -51 -39 -84.5t-98 -33.5q-60 0 -98.5 33.5t-38.5 86.5zM150 1365h256q-7 -20 -9 -59l-36 -950h-165l-36 950q-2 42 -10 59z" />
<glyph unicode="&#x22;" horiz-adv-x="644" d="M128 1365h155l-33 -463h-89zM361 1365h155l-33 -463h-89z" />
<glyph unicode="#" d="M28 429l16 117h195l42 298h-195l17 117h194l57 404h162l-56 -404h212l57 404h162l-56 -404h180l-16 -117h-181l-42 -298h181l-16 -117h-181l-61 -429h-162l60 429h-212l-60 -429h-163l60 429h-194zM401 546h213l42 298h-213z" />
<glyph unicode="$" horiz-adv-x="982" d="M67 86l45 160q93 -80 167 -113t162 -33v508q-23 12 -60 29q-162 80 -233 166.5t-71 204.5q0 150 99 252t265 123v150h104v-146h25q128 0 277 -75l-43 -140q-143 98 -259 105v-458l18 -9q171 -81 229 -132q123 -107 123 -278q0 -89 -37 -172t-102 -140q-89 -78 -231 -99 v-171h-104v166q-102 0 -179.5 21t-194.5 81zM290 1075q0 -65 34 -111t117 -93v395q-47 -16 -73 -36q-78 -60 -78 -155zM545 118q153 61 153 222q0 72 -33.5 119.5t-119.5 96.5v-438z" />
<glyph unicode="%" horiz-adv-x="1603" d="M78 1000q0 164 86 269q93 114 231 116q141 0 234 -117q87 -110 87 -273q0 -150 -87 -264q-42 -54 -104 -85t-130 -31q-138 0 -231 115q-86 106 -86 270zM238 1009q0 -144 41.5 -223.5t116.5 -79.5q72 0 109 68q51 93 51 223q0 132 -44.5 214t-116.5 83q-73 0 -115 -76.5 t-42 -208.5zM439 0l610 1365h115l-610 -1365h-115zM888 365q0 164 86 269q93 114 231 116q141 0 234 -117q87 -110 87 -273q0 -150 -87 -264q-42 -54 -104 -85t-130 -31q-138 0 -231 115q-86 106 -86 270zM1048 374q0 -145 41 -224t117 -79q72 0 109 68q51 93 51 222 q0 133 -44.5 215t-116.5 83q-73 0 -115 -76.5t-42 -208.5z" />
<glyph unicode="&#x26;" horiz-adv-x="1192" d="M71 345q0 124 76 225q37 49 90.5 85t189.5 100q-67 107 -85.5 152t-18.5 103q0 141 111 222q84 60 200 60t188 -67t72 -174q0 -125 -77 -200q-45 -44 -147 -96l254 -386q103 125 150 253l90 -115q-72 -120 -179 -234l140 -214q14 -23 43 -59h-273l-82 130 q-54 -43 -94 -69q-124 -81 -279 -81q-156 0 -253 91q-116 108 -116 274zM278 381q0 -117 69.5 -191.5t178.5 -74.5q70 0 120.5 22.5t114.5 83.5l-279 439q-82 -40 -128 -85q-76 -74 -76 -194zM524 1046q0 -47 19 -90t73 -121q11 6 16 9q75 44 100 79q40 53 40 125 q0 59 -33.5 96t-86.5 37t-90.5 -39.5t-37.5 -95.5z" />
<glyph unicode="'" horiz-adv-x="412" d="M128 1365h155l-33 -463h-89z" />
<glyph unicode="(" horiz-adv-x="667" d="M94 662q0 288 147 581q83 167 163 275l68 -58q-92 -268 -125.5 -437t-33.5 -363q0 -365 159 -799l-68 -58q-111 147 -189 326q-121 275 -121 533z" />
<glyph unicode=")" horiz-adv-x="667" d="M187 -139q159 433 159 799q0 193 -34 363.5t-125 436.5l68 58q92 -125 185 -319q125 -263 125 -537q0 -210 -82.5 -438t-227.5 -421z" />
<glyph unicode="*" horiz-adv-x="692" d="M71 1018l207 85l-207 82l66 109l173 -134l-27 219h125l-26 -219l173 134l65 -109l-207 -82l200 -97l-63 -99l-168 133l26 -220h-125l30 219l-176 -127z" />
<glyph unicode="+" d="M103 620v126h355v343h126v-343h356v-126h-356v-343h-126v343h-355z" />
<glyph unicode="," horiz-adv-x="535" d="M53 -187l175 420l177 -74l-220 -402z" />
<glyph unicode="-" horiz-adv-x="483" d="M0 477l47 161h436l-45 -161h-438z" />
<glyph unicode="." horiz-adv-x="535" d="M131 106q0 50 38.5 83t97.5 34q60 0 99 -33.5t39 -85.5q0 -51 -39 -84.5t-98 -33.5q-60 0 -98.5 33.5t-38.5 86.5z" />
<glyph unicode="/" horiz-adv-x="786" d="M-7 -236l579 1601h141l-579 -1601h-141z" />
<glyph unicode="0" d="M80 678q0 209 18 317.5t67 196.5q57 102 138.5 146.5t213.5 46.5q185 0 284 -92q88 -83 125.5 -219.5t37.5 -377.5q0 -200 -17.5 -310.5t-63.5 -202.5q-53 -104 -142.5 -153.5t-226.5 -49.5q-246 0 -349 195q-48 90 -66.5 198.5t-18.5 304.5zM304 710q0 -219 7.5 -317 t30.5 -171q20 -62 69.5 -99t111.5 -37q91 0 148 75q42 54 55.5 160.5t13.5 376.5q0 189 -8 283t-30 156q-23 65 -71 103t-109 39q-73 0 -130 -60q-52 -55 -70 -159t-18 -350z" />
<glyph unicode="1" d="M180 1208l486 179q-8 -25 -8 -62v-1259q0 -33 8 -66h-241q8 30 8 66v1115l-244 -112v81q0 29 -9 58z" />
<glyph unicode="2" d="M112 0q9 27 9 59v89q189 170 299 317q224 300 224 547q0 114 -58 180q-62 71 -176 71q-113 0 -235 -79l-21 138q111 39 171 51t143 12q176 0 280 -88q57 -48 89.5 -118.5t32.5 -145.5q0 -165 -142 -391q-136 -218 -315 -377l-87 -78q-10 -9 -27 -24h496q68 1 93 10v-173 h-776z" />
<glyph unicode="3" d="M119 70l34 143q118 -113 250 -113q103 0 166 78t63 206q0 132 -69 208q-66 74 -163 74q-3 0 -53 -4v130q31 -2 51 -2q99 0 150 63q59 74 59 186q0 105 -54 166.5t-146 61.5q-99 0 -201 -81l-13 144q123 55 258 55q187 0 284 -97q92 -93 92 -237q0 -80 -32.5 -150 t-89.5 -110q-45 -32 -133 -64q140 -32 213 -119.5t73 -223.5q0 -188 -121 -302q-108 -102 -293 -102q-162 0 -325 90z" />
<glyph unicode="4" d="M59 378v154q19 20 44 61l446 712q25 40 30 60h228q-8 -32 -8 -65v-771h93q40 1 65 9v-165q-34 5 -69 5h-89v-312q0 -37 8 -66h-237q8 30 8 66v312h-519zM182 529h400v642z" />
<glyph unicode="5" d="M129 52l42 149q71 -62 119 -84t114 -22q121 0 185 93q66 96 66 249q0 117 -44 189q-50 82 -153 82q-84 0 -148 -63l-105 45q6 25 6 86v504q0 45 -6 85h612v-159q-33 7 -70 7h-413v-427q88 57 197 57q156 0 252 -108q95 -109 95 -291q0 -230 -137 -356 q-117 -108 -310 -108q-149 0 -302 72z" />
<glyph unicode="6" d="M109 584q0 319 87 496q92 187 255 262q93 43 196 43q41 0 104 -9l33 -127q-69 23 -117 23q-106 0 -194 -87q-64 -65 -92.5 -146.5t-42.5 -243.5q50 62 93 89q81 51 172 51q140 0 231 -105q109 -126 109 -357q0 -263 -139 -396q-100 -97 -267 -97q-428 0 -428 604z M329 527q0 -189 50 -326q20 -55 61.5 -86.5t94.5 -31.5q101 0 145 100q49 114 49 288q0 137 -37 226q-22 52 -62 82t-88 30q-79 0 -141 -63q-17 -17 -42.5 -53t-25.5 -43q-4 -83 -4 -123z" />
<glyph unicode="7" d="M143 1189v176h756v-152q-14 -23 -30 -62l-442 -1092q-5 -14 -19 -59h-222q22 32 35 59l540 1140l-537 -2q-44 -1 -81 -8z" />
<glyph unicode="8" d="M103 385q0 156 57.5 237.5t199.5 125.5q-215 53 -215 291q0 164 104 260q95 86 272 86q178 0 273 -86q105 -95 105 -258q0 -241 -215 -293q136 -39 196.5 -122t60.5 -232q0 -414 -415 -414q-113 0 -187.5 24t-129.5 78q-106 104 -106 303zM325 377q0 -286 192 -286 q108 0 153 73q49 80 49 214q0 139 -53 221q-44 68 -142 71q-199 0 -199 -293zM353 1034q0 -250 166 -250q172 0 172 254q0 243 -170 245q-82 0 -125 -64t-43 -185z" />
<glyph unicode="9" d="M100 892q0 263 139 396q100 97 267 97q212 0 320 -151q57 -81 83 -189t26 -264q0 -319 -87 -496q-92 -187 -255 -262q-93 -43 -197 -43q-42 0 -103 9l-34 127q70 -23 118 -23q106 0 193 88q64 64 93 146.5t43 242.5q-51 -62 -94 -89q-81 -51 -172 -51q-140 0 -231 105 q-109 126 -109 357zM314 893q0 -136 37 -225q22 -52 62 -82t87 -30q79 0 143 63q16 17 41.5 53t25.5 43q5 79 5 122q0 143 -33 272q-44 173 -174 173q-101 0 -144 -100q-50 -114 -50 -289z" />
<glyph unicode=":" horiz-adv-x="535" d="M131 106q0 50 38.5 83t97.5 34q60 0 99 -33.5t39 -85.5q0 -51 -39 -84.5t-98 -33.5q-60 0 -98.5 33.5t-38.5 86.5zM131 752q0 50 38.5 83t97.5 34q60 0 99 -33.5t39 -84.5q0 -52 -39 -85.5t-98 -33.5q-60 0 -98.5 33.5t-38.5 86.5z" />
<glyph unicode=";" horiz-adv-x="535" d="M46 -187l175 420l177 -74l-220 -402zM148 752q0 50 38.5 83t97.5 34q60 0 99 -33.5t39 -84.5q0 -52 -39 -85.5t-98 -33.5q-60 0 -98.5 33.5t-38.5 86.5z" />
<glyph unicode="&#x3c;" horiz-adv-x="1024" d="M68 587v192l887 440v-225l-647 -311l647 -311v-226z" />
<glyph unicode="=" d="M103 486v126h837v-126h-837zM103 754v126h837v-126h-837z" />
<glyph unicode="&#x3e;" horiz-adv-x="1024" d="M69 146v226l646 311l-646 311v225l887 -440v-192z" />
<glyph unicode="?" horiz-adv-x="746" d="M134 1307q118 78 257 78q119 0 193 -65q79 -69 79 -173q0 -72 -43.5 -158t-147.5 -218q-70 -90 -91.5 -130t-21.5 -83q0 -41 30.5 -69t76.5 -28q47 0 108 47l8 -112q-98 -53 -189 -53q-108 0 -178 73q-62 63 -62 148q0 59 31.5 120.5t120.5 176.5q82 106 112 162.5 t30 104.5q0 59 -33.5 96.5t-85.5 37.5q-87 0 -186 -90zM225 106q0 50 38.5 83t97.5 34q60 0 99 -33.5t39 -85.5q0 -51 -39 -84.5t-98 -33.5q-60 0 -98.5 33.5t-38.5 86.5z" />
<glyph unicode="@" horiz-adv-x="1504" d="M67 685q0 208 111 379q103 159 281 246q162 79 338 79q179 0 333 -81q161 -83 245 -237q72 -131 72 -279q0 -112 -41 -214.5t-115 -174.5q-95 -93 -217 -93q-72 0 -115.5 27t-67.5 85q-93 -112 -231 -112q-120 0 -184.5 81t-64.5 230q0 216 116 349q86 99 226 99 q131 0 183 -98l9 82h164q-11 -26 -14 -52l-45 -443q-7 -65 -7 -87q0 -76 71 -76q72 0 135 85q94 128 94 307q0 228 -159 376q-156 145 -388 145q-255 0 -435 -177q-184 -180 -184 -446q0 -253 163 -431q180 -197 463 -197q202 0 374 76l33 -75q-176 -83 -394 -83 q-339 0 -551 217q-93 95 -144 220q-54 131 -54 273zM574 602q0 -93 34.5 -142t100.5 -49q99 0 155 109q55 107 55 267q0 193 -138 195q-100 0 -157 -117q-21 -43 -35.5 -120t-14.5 -143z" />
<glyph unicode="A" horiz-adv-x="1180" d="M-3 0q19 30 28 57l447 1258q9 26 9 50h199q1 -21 9 -45l461 -1263q10 -24 33 -57h-267q0 27 -10 57l-131 371h-509l-132 -371q-9 -25 -8 -57h-129zM301 528h436l-221 617z" />
<glyph unicode="B" horiz-adv-x="1119" d="M144 0q9 27 9 67v1233q0 40 -9 65h461q169 0 274 -74q120 -86 120 -263q0 -184 -145 -264q-46 -25 -130 -50q91 -17 150 -52q152 -89 152 -289q0 -198 -151 -302q-102 -71 -240 -71h-491zM381 105h162q251 0 251 262q0 154 -90 228q-41 34 -90.5 47.5t-131.5 13.5h-101 v-551zM381 752h98q131 0 199 47q95 65 95 227q0 237 -247 237h-145v-511z" />
<glyph unicode="C" horiz-adv-x="1151" d="M80 692q0 222 74 364q171 329 624 329q173 0 324 -60v-184q-91 74 -162.5 103t-163.5 29q-224 0 -341 -170q-112 -162 -112 -416q0 -271 128 -432q125 -159 332 -159q92 0 162.5 32.5t156.5 113.5v-180q-98 -46 -175 -64t-181 -18q-316 0 -485 175q-181 188 -181 537z " />
<glyph unicode="D" horiz-adv-x="1345" d="M144 0q9 30 9 66v1234q0 38 -9 65h421q233 0 397 -95q150 -86 224 -237q76 -153 76 -339q0 -284 -152 -468q-187 -226 -486 -226h-480zM381 117h185q182 0 292 108q75 75 111 176q50 140 50 295q0 319 -202 467q-121 89 -287 89h-149v-1135z" />
<glyph unicode="E" horiz-adv-x="950" d="M144 1365h708v-111q-31 10 -64 10h-407v-520h396q43 0 75 9v-111q-27 6 -73 6h-398v-538h395q33 0 76 10v-120h-707q8 30 8 65v1234q0 41 -9 66z" />
<glyph unicode="F" horiz-adv-x="883" d="M144 0q9 31 9 66v1234q0 34 -9 65h694v-109q-36 8 -72 8h-385v-524h327q37 0 71 8v-112q-29 8 -68 8h-330v-578q0 -35 9 -66h-246z" />
<glyph unicode="G" horiz-adv-x="1326" d="M83 678q0 357 222 550q179 157 475 157q180 0 382 -74v-169q-188 128 -372 128q-200 0 -323 -136q-77 -85 -105 -187q-35 -123 -35 -272q0 -307 138 -457q116 -127 305 -127q110 0 211 57v533q0 37 -8 66h238q-8 -31 -8 -66v-525q1 -46 13 -82q-184 -60 -268.5 -77 t-202.5 -17q-213 0 -348 76q-162 91 -243 267q-71 154 -71 355z" />
<glyph unicode="H" horiz-adv-x="1362" d="M144 0q9 27 9 65v1235q0 36 -9 65h246q-9 -33 -9 -66v-543h600v543q0 33 -9 66h246q-9 -29 -9 -65v-1235q0 -36 9 -65h-246q9 29 9 65v591h-600v-591q0 -36 9 -65h-246z" />
<glyph unicode="I" horiz-adv-x="558" d="M156 0q9 30 9 66v1234q0 35 -9 65h246q-8 -24 -9 -65v-1234q1 -42 9 -66h-246z" />
<glyph unicode="J" horiz-adv-x="539" d="M-115 -286l67 138q70 -62 122 -62q84 0 84 128v1382q0 36 -9 65h246q-9 -26 -9 -66v-1372q0 -120 -39 -175q-32 -47 -96 -73.5t-142 -26.5q-113 0 -224 62z" />
<glyph unicode="K" horiz-adv-x="1095" d="M144 0q9 30 9 66v1233q0 37 -9 66h246q-9 -30 -9 -65v-540l438 560q12 16 24 45h169q-26 -20 -49 -49l-418 -533l535 -727q31 -41 50 -56h-293q-9 33 -23 52l-433 595v-581q0 -36 9 -66h-246z" />
<glyph unicode="L" horiz-adv-x="854" d="M144 0q9 29 9 64v1235q0 36 -9 66h246q-9 -30 -9 -66v-1189h387q44 1 69 9v-119h-693z" />
<glyph unicode="M" horiz-adv-x="1679" d="M55 0q14 43 17 63l195 1243q2 9 2 20q0 15 -2 39h206q2 -32 9 -52l363 -1061l367 1065q7 21 7 36v12h206q-1 -17 -1 -29q0 -10 1 -19l181 -1257q3 -18 16 -60h-244q4 18 4 31q0 11 -2 25l-144 1018l-348 -1014q-10 -29 -10 -49v-11h-192q1 8 1 13q0 14 -8 39l-346 999 l-157 -991q-1 -5 -1 -10q0 -8 4 -50h-124z" />
<glyph unicode="N" horiz-adv-x="1379" d="M139 0q9 30 9 66v1233q0 38 -9 66h217q5 -20 24 -47l746 -1043v1024q0 35 -9 66h122q-8 -23 -9 -65v-1239q1 -40 10 -61h-199q-6 17 -30 51l-759 1062v-1047q0 -37 9 -66h-122z" />
<glyph unicode="O" horiz-adv-x="1512" d="M83 695q0 215 82 374q160 312 591 316q302 0 479 -166q194 -184 194 -535q0 -346 -185 -530q-175 -174 -491 -174q-330 0 -498 186q-172 190 -172 529zM327 693q0 -607 432 -607q216 0 327 170q53 81 76.5 181.5t23.5 241.5q0 594 -429 600q-226 0 -333 -170 q-97 -155 -97 -416z" />
<glyph unicode="P" horiz-adv-x="1054" d="M144 0q9 31 9 66v1232q0 37 -9 67h437q160 0 271 -64q170 -100 170 -313q0 -236 -207 -340q-121 -61 -289 -61h-145v-521q0 -29 10 -66h-247zM381 692h122q100 0 161 36q58 35 92 104t34 153q0 130 -71.5 204.5t-196.5 74.5h-141v-572z" />
<glyph unicode="Q" horiz-adv-x="1512" d="M83 679q0 225 90 402q91 177 283 251q137 53 302 53q291 0 457 -144q118 -101 173 -285q40 -133 40 -276q0 -202 -72 -358q-60 -131 -159 -206.5t-257 -110.5q35 -15 154 -70q167 -71 267 -92l-207 -134q-248 147 -347 195t-319 128q-108 40 -169 82.5t-109 112.5 q-127 186 -127 452zM326 676q0 -288 120 -448q102 -137 310 -137q197 0 301 135q128 167 128 448q0 133 -26.5 251t-73.5 193q-97 154 -322 161q-233 0 -335 -161t-102 -442z" />
<glyph unicode="R" horiz-adv-x="1104" d="M144 0q9 26 9 66v1234q0 34 -9 65h415q142 0 249 -59q83 -46 131 -126q49 -81 49 -184q0 -229 -216 -312q-59 -22 -152 -40l448 -590q28 -36 55 -54h-298q-10 31 -29 59l-414 574v-567q0 -35 9 -66h-247zM381 711h106q93 0 160 47q109 78 109 228q0 139 -92 221 q-67 59 -188 59h-95v-555z" />
<glyph unicode="S" horiz-adv-x="959" d="M56 85l46 162q55 -47 91 -72q108 -75 233 -75q126 0 198 74q64 67 64 162q0 112 -91 181q-42 32 -207 110q-171 81 -241 161q-83 94 -83 220q0 112 62 203q121 174 391 174q154 0 318 -73l-43 -145q-157 109 -288 109q-105 0 -170 -66q-55 -57 -55 -137q0 -83 55.5 -136 t227.5 -131q189 -87 256 -169q84 -104 84 -241q0 -117 -61 -216q-123 -200 -409 -200q-103 0 -187.5 23.5t-190.5 81.5z" />
<glyph unicode="T" horiz-adv-x="914" d="M-38 1241v124h990v-124q-49 9 -85 9h-294v-1184q0 -36 9 -66h-246q9 29 9 66v1184h-296q-42 0 -87 -9z" />
<glyph unicode="U" horiz-adv-x="1357" d="M131 1365h246q-9 -31 -9 -65v-863q0 -122 57 -206q94 -140 307 -140q184 0 284 98t100 279v831q-1 40 -9 66h120q-9 -28 -9 -66v-847q0 -164 -78 -277q-79 -114 -206 -155q-121 -40 -266 -40q-209 0 -327 76q-95 60 -148 161.5t-53 223.5v858q0 36 -9 66z" />
<glyph unicode="V" horiz-adv-x="1051" d="M-42 1365h257v-12q0 -17 10 -46l363 -1077l372 1082q9 27 9 53h125q-19 -32 -28 -58l-425 -1251q-6 -18 -11 -56h-211q-4 26 -14 56l-417 1241q-7 18 -30 68z" />
<glyph unicode="W" horiz-adv-x="1644" d="M-19 1365h243q-1 -8 -1 -11q0 -12 7 -42l255 -1029l284 1021q6 24 6 42q0 6 -1 19h211q-1 -10 -1 -15q0 -18 6 -41l282 -1026l263 1026q7 27 7 40q0 5 -1 16h123q-18 -42 -21 -56l-320 -1252q-3 -14 -8 -57h-214v17q0 22 -8 51l-277 1019l-279 -1030q-4 -17 -6 -57h-208 v21q0 23 -6 48l-316 1235q-7 28 -20 61z" />
<glyph unicode="X" horiz-adv-x="1012" d="M-18 0q29 34 44 59l371 620l-344 627q-17 32 -39 59h266q11 -33 25 -59l249 -445l264 445q11 20 29 59h129q-26 -35 -40 -59l-329 -545l387 -702q19 -34 37 -59h-267q-9 31 -25 59l-289 512l-308 -512q-17 -30 -28 -59h-132z" />
<glyph unicode="Y" horiz-adv-x="916" d="M-42 1365h265q2 -20 20 -59l278 -566l289 569q12 24 19 56h129q-15 -21 -31 -51l-357 -713v-535q0 -37 9 -66h-246q9 30 9 66v532l-352 712q-17 35 -32 55z" />
<glyph unicode="Z" horiz-adv-x="1051" d="M45 0v123l704 1137h-607q-40 0 -97 -8v113h961v-114l-705 -1141h616q55 0 89 9v-119h-961z" />
<glyph unicode="[" horiz-adv-x="667" d="M152 -162q8 30 8 66v1513q0 35 -8 66h442v-116q-28 8 -62 8h-173v-1429h173q35 0 62 8v-116h-442z" />
<glyph unicode="\" horiz-adv-x="785" d="M72 1365h141l579 -1601h-141z" />
<glyph unicode="]" horiz-adv-x="667" d="M73 -46q28 -8 62 -8h172v1429h-172q-34 0 -62 -8v116h441q-8 -30 -8 -66v-1513q0 -36 8 -66h-441v116z" />
<glyph unicode="^" horiz-adv-x="1024" d="M49 744l336 627h254l336 -627h-206l-258 473l-257 -473h-205z" />
<glyph unicode="_" horiz-adv-x="1024" d="M0 -113h1024v-126h-1024v126z" />
<glyph unicode="`" horiz-adv-x="1024" d="M283 1505h180l133 -316h-99z" />
<glyph unicode="a" horiz-adv-x="1014" d="M47 286q0 174 131 260q58 38 109.5 57.5t233.5 74.5q76 23 108 56.5t32 91.5q0 68 -54 110.5t-141 42.5q-75 0 -133.5 -24t-143.5 -89l-34 136q109 51 188 70t182 19q165 0 255 -64.5t90 -182.5v-633q0 -92 63 -92q25 0 70 33v-118q-83 -53 -158 -53q-78 0 -117.5 36 t-59.5 126q-64 -76 -117 -107q-94 -55 -214 -55q-123 0 -198 72q-92 87 -92 233zM250 307q0 -85 47.5 -136.5t126.5 -51.5q123 0 193 101q44 64 44 138v278q-40 -22 -58.5 -30t-158.5 -61q-109 -41 -151 -102q-43 -62 -43 -136z" />
<glyph unicode="b" horiz-adv-x="1123" d="M126 0q8 27 8 66v1340q0 34 -8 66h225q-8 -29 -8 -66v-487q63 79 114 114q85 58 198 58q172 0 274 -131q113 -145 113 -407t-117 -417q-116 -155 -318 -155q-98 0 -169.5 34t-141.5 114l-59 -129h-111zM339 576q0 -251 13 -307q18 -75 85 -126q66 -49 145 -49 q120 0 182 115.5t62 338.5q0 218 -72 325q-57 85 -158 88q-123 0 -204 -123q-53 -80 -53 -262z" />
<glyph unicode="c" horiz-adv-x="920" d="M81 522q0 288 167 443q137 126 359 126q122 0 258 -46v-156q-76 60 -127.5 81.5t-117.5 21.5q-146 0 -227 -120q-87 -127 -87 -336q0 -182 66 -305q76 -141 236 -141q69 0 127 25.5t130 88.5v-147q-118 -50 -169 -63t-133 -13q-226 0 -350 140q-132 149 -132 401z" />
<glyph unicode="d" horiz-adv-x="1120" d="M81 535q0 256 115 413q105 143 300 143q95 0 161 -32.5t120 -105.5v453q0 36 -8 66h225q-8 -31 -8 -66v-1340q0 -34 8 -66h-214v155q-54 -75 -97 -108q-85 -66 -214 -66q-186 0 -286 151q-102 155 -102 403zM301 536q0 -422 237 -422q123 0 186.5 111.5t63.5 327.5 q0 420 -239 425q-85 0 -146 -61q-102 -104 -102 -381z" />
<glyph unicode="e" horiz-adv-x="1105" d="M81 528q0 272 144 423q133 140 353 140q213 0 332 -134.5t128 -385.5h-739q0 -175 39 -280q76 -209 311 -209q161 0 307 124l31 -135q-103 -51 -182 -70.5t-184 -19.5q-273 0 -414 160q-126 141 -126 387zM305 665h510q-8 91 -26 148q-27 85 -92 137q-54 43 -130 43 q-108 0 -177 -86t-85 -242z" />
<glyph unicode="f" horiz-adv-x="636" d="M42 967v99h114v183q0 115 69 173q86 73 243 73q104 0 254 -40l-42 -118q-99 52 -177 52q-72 0 -105 -34.5t-33 -108.5v-180h306v-99h-306v-902q0 -34 8 -65h-225q8 30 8 66v901h-114z" />
<glyph unicode="g" horiz-adv-x="1123" d="M86 615q0 232 134 358q125 117 333 117q34 0 109 -4q46 19 73 65t32 114h199q-10 -72 -42.5 -114t-122.5 -97q93 -45 146 -111q100 -125 100 -315q0 -198 -114 -319q-89 -95 -247 -124q-32 -5 -132 -15q-62 -6 -108 -34l-194 -119q277 66 418 66q164 0 285 -50 q61 -25 96 -70.5t35 -100.5q0 -105 -115 -163.5t-322 -58.5q-216 0 -521 92v40q238 -63 414 -63q124 0 201 35q78 35 78 96q0 57 -82.5 90t-222.5 33q-165 0 -376 -64l-52 154l229 167q-94 53 -143 111q-88 103 -88 284zM312 636q0 -172 65.5 -265t187.5 -93q130 0 192 97 q64 103 64 260q0 164 -66.5 254.5t-187.5 92.5q-132 0 -195 -99q-60 -95 -60 -247z" />
<glyph unicode="h" horiz-adv-x="1139" d="M126 0q8 31 8 66v1340q0 37 -8 66h225q-8 -29 -8 -66v-478q67 87 141.5 125t179.5 38q162 0 250.5 -80.5t88.5 -227.5v-717q0 -34 8 -66h-225q8 28 8 66v648q0 118 -49.5 173t-154.5 55q-123 0 -184 -68q-63 -72 -63 -179v-629q0 -35 8 -66h-225z" />
<glyph unicode="i" horiz-adv-x="501" d="M116 1257q0 44 35.5 70.5t95.5 26.5q61 0 95.5 -25.5t34.5 -69.5q0 -46 -34.5 -72.5t-93.5 -26.5q-133 0 -133 97zM131 0q8 30 8 66v934q0 37 -8 66h225q-8 -31 -8 -66v-934q0 -34 8 -66h-225z" />
<glyph unicode="j" horiz-adv-x="504" d="M-95 -271l50 117l13 -13q64 -62 111 -62q72 0 72 81l-1 70v1078q0 36 -8 66h225q-8 -31 -8 -66v-1071q0 -113 -35 -170q-60 -98 -202 -98q-99 0 -217 68zM127 1257q0 44 35.5 70.5t95.5 26.5q61 0 95.5 -25.5t34.5 -69.5q0 -45 -34.5 -72t-93.5 -27q-133 0 -133 97z" />
<glyph unicode="k" horiz-adv-x="980" d="M126 0q8 30 8 66v1340q0 36 -8 66h225q-8 -30 -8 -66v-775l349 382q19 22 37 53h169q-20 -15 -60 -57l-325 -339l489 -616q26 -33 52 -54h-271q-21 32 -41 61l-399 488v-483q0 -34 8 -66h-225z" />
<glyph unicode="l" horiz-adv-x="478" d="M126 0q8 31 8 66v1340q0 36 -8 66h225q-8 -29 -8 -66v-1340q0 -34 8 -66h-225z" />
<glyph unicode="m" horiz-adv-x="1702" d="M128 0q8 31 8 66v935q0 37 -8 65h213v-122q116 147 305 147q105 0 173.5 -35t114.5 -112q77 81 150 114t174 33q308 0 308 -299v-726q0 -35 8 -66h-225q8 31 8 66v691q0 85 -28 125q-42 60 -152 60q-106 0 -164.5 -54.5t-58.5 -154.5v-667q0 -37 8 -66h-225q8 29 8 66 v691q0 85 -30 124q-47 61 -148 61q-100 0 -161 -53t-61 -140v-683q0 -35 8 -66h-225z" />
<glyph unicode="n" horiz-adv-x="1143" d="M128 0q8 29 8 66v935q0 34 -8 65h213v-149q48 75 97 110q92 64 233 64q182 0 276 -111q60 -71 60 -198v-716q0 -33 8 -66h-225q8 25 8 66v685q0 91 -53 141t-151 50q-122 0 -184 -68q-65 -72 -65 -185v-623q0 -35 8 -66h-225z" />
<glyph unicode="o" horiz-adv-x="1145" d="M81 551q0 236 130 387q129 150 361 153q237 0 369 -160q124 -150 124 -396q0 -262 -142 -413q-132 -141 -349 -141q-233 0 -361 154q-132 158 -132 416zM301 540q0 -227 82 -360q31 -50 82.5 -80t107.5 -30t107.5 30t82.5 80q82 133 82 356q0 226 -82 357 q-67 107 -190 109q-56 0 -108 -30t-83 -81q-81 -131 -81 -351z" />
<glyph unicode="p" horiz-adv-x="1118" d="M122 -319q8 32 8 65v1254q0 33 -8 66h214v-152q117 177 311 177q165 0 270 -125q62 -74 91 -174.5t29 -242.5q0 -280 -120 -430q-52 -64 -131.5 -101t-166.5 -37q-168 0 -280 139v-374q0 -36 8 -65h-225zM333 524q0 -138 17.5 -214.5t61.5 -135.5q62 -80 163 -80 q118 0 180.5 113.5t62.5 327.5q0 217 -60 324q-25 44 -70.5 70.5t-99.5 28.5q-56 0 -108 -27.5t-83 -74.5q-36 -53 -50 -126t-14 -206z" />
<glyph unicode="q" horiz-adv-x="1116" d="M81 512q0 275 114 428q112 151 320 151q100 0 169.5 -34t141.5 -117l55 126h113q-8 -28 -8 -65v-1255q0 -33 8 -65h-225q8 29 8 65v409q-73 -97 -138 -135.5t-158 -38.5q-194 0 -304 155q-96 134 -96 376zM297 531q0 -213 65 -325q25 -44 70 -70t96 -26q46 0 92.5 23 t74.5 61q91 120 91 384q0 393 -237 400q-108 0 -169 -87q-83 -118 -83 -360z" />
<glyph unicode="r" horiz-adv-x="654" d="M128 0q8 32 8 66v934q0 36 -8 66h214v-136q29 83 87.5 118.5t178.5 42.5v-164q-24 1 -33 1q-230 0 -230 -251v-611q0 -36 8 -66h-225z" />
<glyph unicode="s" horiz-adv-x="852" d="M49 72l36 145q91 -74 159 -103.5t149 -29.5q100 0 155 56q51 53 51 122q0 68 -48.5 107.5t-210.5 103.5q-159 63 -213 141q-50 73 -50 162q0 167 143 254q100 61 237 61q152 0 318 -71l-35 -132q-142 102 -262 102q-86 0 -140 -45q-58 -47 -58 -119q0 -60 43 -95.5 t183 -88.5q166 -64 231 -134.5t65 -186.5q0 -166 -127 -261q-105 -79 -283 -79q-173 0 -343 91z" />
<glyph unicode="t" horiz-adv-x="607" d="M9 967v99h158v206l213 23q-4 -59 -4 -78v-151h172v-99h-172v-771q0 -95 79 -95q38 0 96 32v-110q-87 -42 -180 -42q-105 0 -154.5 51t-49.5 158v777h-158z" />
<glyph unicode="u" horiz-adv-x="1138" d="M128 1066h225q-8 -28 -8 -65v-669q0 -86 41 -137q54 -65 162 -65q109 0 176.5 62.5t67.5 162.5v646q0 35 -8 65h225q-8 -26 -8 -65v-935q0 -32 8 -66h-213v146q-57 -78 -110 -112q-84 -53 -211 -53q-171 0 -263 97q-76 80 -76 231v692q0 34 -8 65z" />
<glyph unicode="v" horiz-adv-x="908" d="M-23 1066h243q1 -28 11 -59l277 -772l289 772q13 34 13 59h120q-18 -28 -30 -59l-354 -948q-14 -37 -14 -54l1 -5h-168q-3 28 -14 59l-348 948q-7 21 -26 59z" />
<glyph unicode="w" horiz-adv-x="1480" d="M-18 1066h239q-1 -30 7 -59l219 -743l244 743q9 29 10 59h209q0 -33 8 -59l222 -743l237 743q6 20 6 36q0 6 -4 23h119q-16 -32 -24 -59l-293 -948q-9 -31 -10 -59h-183v11q0 21 -8 48l-236 790l-257 -790q-8 -23 -14 -59h-177q-1 27 -10 59l-280 948q-9 30 -24 59z" />
<glyph unicode="x" horiz-adv-x="895" d="M-10 0q16 17 45 59l312 464l-287 484q-20 35 -39 59h254q7 -25 27 -59l197 -325l223 325q24 37 30 59h127q-31 -39 -44 -59l-282 -422l312 -526q14 -23 40 -59h-257q-1 21 -24 59l-221 370l-253 -370q-11 -17 -34 -59h-126z" />
<glyph unicode="y" horiz-adv-x="893" d="M-27 1066h243q6 -35 15 -59l250 -719l295 719q12 31 17 59h127q-19 -32 -30 -59l-524 -1267q-12 -28 -18 -59h-130q21 36 31 59l115 260l-365 1007q-7 21 -26 59z" />
<glyph unicode="z" horiz-adv-x="965" d="M38 0v108l637 854h-548q-40 0 -82 -9v113h876v-107l-635 -853h557q38 0 78 8v-114h-883z" />
<glyph unicode="{" horiz-adv-x="667" d="M56 618v90q67 4 92 42t25 136v337q0 83 23.5 134.5t76.5 83.5q68 41 237 41q17 0 64 -1v-116q-46 6 -76 6q-75 0 -106 -38t-31 -128v-327q0 -93 -29 -141.5t-101 -77.5q74 -32 102 -80.5t28 -142.5v-322q0 -96 30 -130q36 -40 123 -40q25 0 60 8v-113q-39 -1 -49 -1 q-205 0 -278.5 58.5t-73.5 221.5v313q0 103 -24.5 142.5t-92.5 44.5z" />
<glyph unicode="|" horiz-adv-x="1024" d="M398 -341v1706h227v-1706h-227z" />
<glyph unicode="}" horiz-adv-x="667" d="M93 -48q35 -8 60 -8q86 0 119.5 37t33.5 133v322q0 94 28 142.5t102 80.5q-72 29 -101 77.5t-29 141.5v327q0 90 -31 128t-106 38q-29 0 -76 -6v116q47 1 64 1q186 0 255 -54q44 -34 63 -81t19 -124v-337q0 -98 25 -136t92 -42v-90q-68 -5 -92.5 -44.5t-24.5 -142.5v-313 q0 -163 -73 -221.5t-279 -58.5q-10 0 -49 1v113z" />
<glyph unicode="~" horiz-adv-x="1365" d="M192 1255q58 130 127.5 191t160.5 61q76 0 230 -73q85 -40 118 -51.5t67 -11.5q48 0 86 32.5t81 108.5l115 -93q-46 -99 -88 -151q-85 -103 -201 -103q-38 0 -80 14t-143 60q-139 63 -192 63q-48 0 -85 -31t-81 -109z" />
<glyph unicode="&#xa1;" horiz-adv-x="564" d="M141 973q0 51 38.5 84t98.5 34q60 0 98.5 -33.5t38.5 -86.5q0 -50 -39 -83.5t-98 -33.5t-98 33.5t-39 85.5zM150 -288q7 20 9 59l36 951h165l36 -951q2 -42 10 -59h-256z" />
<glyph unicode="&#xa2;" horiz-adv-x="935" d="M66 657q0 201 85 349q102 176 343 218v137h91v-131q136 1 264 -47v-154q-125 100 -245 100q-4 0 -19 -1v-903q135 -3 264 114v-146q-58 -33 -124.5 -52t-139.5 -23v-142h-91v146q-191 19 -289 122q-66 70 -102.5 178.5t-36.5 234.5zM288 671q0 -233 103 -359 q36 -43 103 -70v866q-66 -31 -106 -85q-100 -135 -100 -352z" />
<glyph unicode="&#xa3;" d="M152 607v85h128q-94 231 -94 344q0 76 37.5 148.5t102.5 120.5q107 80 284 80q152 0 298 -63l-22 -139q-77 49 -124 66t-108 17q-101 0 -168 -57q-82 -70 -82 -188q0 -56 16 -121t66 -208h334v-85h-309q5 -22 29 -126q9 -39 9 -88q0 -209 -158 -265q132 -9 195 -9 q158 0 351 49v-167q-176 -21 -342 -21q-150 0 -382 18l-30 177q43 -31 83 -31q60 0 95 45q36 44 36 114q0 89 -78 304h-167z" />
<glyph unicode="&#xa4;" d="M73 311l137 137q-79 116 -79 234q0 125 79 235l-137 136l77 78l137 -136q118 78 236 78q120 0 234 -78l136 136l78 -78l-137 -136q79 -112 79 -234q0 -119 -80 -235l138 -137l-78 -78l-137 138q-116 -80 -234 -80q-120 0 -235 80l-137 -138zM269 684q0 -116 84 -192 q72 -66 169 -66q113 0 188 85q65 73 65 171q0 112 -84 190q-67 63 -165 66q-116 0 -192 -85q-65 -73 -65 -169z" />
<glyph unicode="&#xa5;" horiz-adv-x="1001" d="M31 1365h259q1 -17 20 -59l250 -566l262 569q13 29 19 56h130q-19 -25 -32 -51l-209 -449h201v-75h-235l-80 -173h315v-75h-322v-476q0 -38 9 -66h-239q9 30 9 66v476h-317v75h309l-79 173h-230v75h197l-204 445q-15 31 -33 55z" />
<glyph unicode="&#xa6;" horiz-adv-x="1024" d="M398 314h227v-655h-227v655zM398 665v700h227v-700h-227z" />
<glyph unicode="&#xa7;" d="M68 -271l57 172q90 -90 162 -125t168 -35q119 0 189 63q77 69 77 182q0 95 -65 147q-27 20 -44.5 28t-94.5 35l-213 72q-122 41 -178.5 103t-56.5 155q0 111 68 204q20 28 77 94q-64 85 -64 191q0 174 136 282q112 88 296 88q191 0 333 -81l-47 -149q-80 64 -147.5 91 t-148.5 27q-102 0 -162 -52q-72 -61 -72 -156q0 -76 48.5 -125.5t164.5 -89.5l196 -69q132 -47 180 -110q50 -64 50 -154q0 -74 -33.5 -136.5t-111.5 -137.5q87 -90 87 -222q0 -158 -107 -268q-127 -131 -364 -131q-217 0 -380 107zM225 594q0 -108 182 -165l215 -67 q81 -27 118 -51q82 92 82 159q0 53 -35.5 85t-127.5 63l-212 71q-85 31 -147 68q-75 -100 -75 -163z" />
<glyph unicode="&#xa8;" horiz-adv-x="1024" d="M162 1307q0 44 36 70t97 27q59 0 93.5 -25.5t34.5 -69.5q0 -46 -35 -72.5t-94 -26.5q-62 0 -97 26t-35 71zM600 1309q0 44 36 70.5t96 26.5t94.5 -25.5t34.5 -69.5q0 -46 -34.5 -72.5t-94.5 -26.5q-61 0 -96.5 26t-35.5 71z" />
<glyph unicode="&#xa9;" horiz-adv-x="1556" d="M68 688q0 306 235 521q200 183 486 183q182 0 344 -95q165 -98 260 -260q95 -164 95 -354q0 -191 -95 -355q-95 -165 -260 -260t-355 -95t-355 95q-166 96 -260 260q-95 165 -95 360zM159 687q0 -284 205 -470q176 -161 414 -161q166 0 309 84q145 84 227 229 q83 146 83 314q0 274 -205 464q-166 154 -404 162q-284 0 -470 -208q-159 -178 -159 -414zM404 684q0 193 110 298q122 117 340 117q112 0 214 -38v-128q-65 48 -109.5 65t-102.5 17q-128 0 -201 -88t-73 -242q0 -153 77 -244q75 -89 201 -89q58 0 102 19.5t106 72.5v-128 q-113 -51 -234 -51q-199 0 -312 104q-118 108 -118 315z" />
<glyph unicode="&#xaa;" horiz-adv-x="840" d="M118 722q0 108 88 160q62 37 220 79q45 12 63.5 30t18.5 49q0 37 -31.5 59.5t-82.5 22.5q-48 0 -84 -14t-98 -58l-27 98q130 56 246 56q109 0 169.5 -40t60.5 -113v-373q0 -46 31 -46q17 0 53 27v-89q-58 -35 -110 -35t-76.5 20.5t-42.5 80.5q-67 -101 -205 -101 q-80 0 -131 44q-62 53 -62 143zM259 736q0 -50 28.5 -79t75.5 -29q61 0 103 40t42 97v153q-29 -14 -127 -47q-122 -40 -122 -135z" />
<glyph unicode="&#xab;" horiz-adv-x="818" d="M92 567l212 403h157l-216 -403l216 -401h-157zM366 567l212 403h157l-216 -403l216 -401h-157z" />
<glyph unicode="&#xac;" horiz-adv-x="1024" d="M68 381v199h887v-580h-221v381h-666z" />
<glyph unicode="&#xad;" horiz-adv-x="483" d="M0 477l47 161h436l-45 -161h-438z" />
<glyph unicode="&#xae;" horiz-adv-x="1556" d="M68 688q0 306 235 521q200 183 486 183q182 0 344 -95q165 -98 260 -260q95 -164 95 -354q0 -191 -95 -355q-95 -165 -260 -260t-355 -95t-355 95q-166 96 -260 260q-95 165 -95 360zM159 687q0 -284 205 -470q176 -161 414 -161q166 0 309 84q145 84 227 229 q83 146 83 314q0 274 -205 464q-166 154 -404 162q-284 0 -470 -208q-159 -178 -159 -414zM500 279q8 22 8 46v719q0 22 -8 46h273q91 0 160 -35q118 -61 118 -191q0 -172 -224 -208l268 -333q17 -21 47 -44h-210q-6 20 -19 37l-243 319v-310q0 -22 8 -46h-178zM670 707h57 q58 0 98 26q65 43 65 128q0 75 -45 116.5t-125 41.5h-50v-312z" />
<glyph unicode="&#xaf;" horiz-adv-x="1024" d="M0 1478v126h1024v-126h-1024z" />
<glyph unicode="&#xb0;" d="M240 1101q0 122 94 207q79 73 192 73q121 0 206 -93q72 -80 72 -189q0 -126 -93 -210q-81 -72 -189 -72q-126 0 -210 93q-72 81 -72 191zM343 1100q0 -82 59 -136q51 -47 120 -47q80 0 133 60q46 52 46 122q0 75 -50.5 127t-125.5 55q-82 0 -136 -60q-46 -52 -46 -121z " />
<glyph unicode="&#xb1;" d="M103 76v126h837v-126h-837zM103 653v126h355v343h126v-343h356v-126h-356v-343h-126v343h-355z" />
<glyph unicode="&#xb2;" horiz-adv-x="706" d="M80 546q8 22 8 43v56q331 274 331 505q0 67 -36.5 103.5t-102.5 36.5q-73 0 -155 -54l-17 101q120 40 210 40q116 0 184 -53q81 -64 81 -162q0 -158 -209 -377q-75 -79 -140 -127h293q44 0 68 8v-120h-515z" />
<glyph unicode="&#xb3;" horiz-adv-x="706" d="M85 591l26 103q84 -74 164 -74q62 0 99.5 43.5t37.5 115.5q0 71 -38.5 114.5t-101.5 43.5q-3 0 -41 -2v93q29 -2 42 -2q57 0 90 37t33 102q0 58 -31.5 92t-86.5 34q-61 0 -136 -55l-10 105q85 36 175 36q122 0 187 -59q62 -57 62 -146q0 -75 -39.5 -121t-124.5 -68 q67 -16 102 -38q82 -54 82 -165q0 -112 -74.5 -179t-198.5 -67q-108 0 -218 57z" />
<glyph unicode="&#xb4;" horiz-adv-x="1024" d="M402 1189l139 316h179l-215 -316h-103z" />
<glyph unicode="&#xb5;" horiz-adv-x="1142" d="M128 -319q8 32 8 65v1255q0 34 -8 65h225q-8 -28 -8 -65v-669q0 -86 41 -136q55 -65 162 -65q109 0 176.5 62t67.5 162v646q0 35 -8 65h225q-8 -26 -8 -65v-935q0 -32 8 -66h-213v146q-54 -81 -119.5 -115.5t-166.5 -34.5q-110 0 -171 55v-305q0 -33 8 -65h-219z" />
<glyph unicode="&#xb6;" d="M62 992q0 210 165 309q106 64 260 64h478q-9 -30 -9 -67v-1639h-129v1617h-115v-1617h-129v937h-49q-157 0 -273 60q-199 103 -199 336z" />
<glyph unicode="&#xb7;" horiz-adv-x="535" d="M131 555q0 50 38.5 83t98.5 34q60 0 98.5 -33.5t38.5 -85.5q0 -51 -38.5 -84.5t-98.5 -33.5t-98.5 33.5t-38.5 86.5z" />
<glyph unicode="&#xb8;" horiz-adv-x="1024" d="M406 -408l87 308h162l-148 -308h-101z" />
<glyph unicode="&#xb9;" horiz-adv-x="706" d="M124 1269l335 114q-9 -26 -9 -49v-741q0 -20 7 -47h-178q7 23 7 47v643l-154 -65v60q0 18 -8 38z" />
<glyph unicode="&#xba;" horiz-adv-x="840" d="M96 879q0 147 88 235t236 90q154 0 243 -97q82 -89 82 -238q0 -158 -94 -249q-87 -85 -230 -85q-152 0 -237 93q-88 96 -88 251zM256 872q0 -132 51 -208q40 -61 114 -61q73 0 114 61q50 76 50 206q0 123 -43.5 194t-120.5 72q-75 0 -115 -61q-50 -75 -50 -203z" />
<glyph unicode="&#xbb;" horiz-adv-x="818" d="M83 166l216 401l-216 403h157l212 -403l-212 -401h-157zM357 166l216 401l-216 403h157l212 -403l-212 -401h-157z" />
<glyph unicode="&#xbc;" horiz-adv-x="1700" d="M106 1269l335 114q-9 -26 -9 -49v-741q0 -20 7 -47h-178q7 23 7 47v643l-154 -65v60q0 18 -8 38zM471 0l613 1365h110l-613 -1365h-110zM1025 223v102q14 13 30 38l284 418q15 23 19 38h165q-7 -23 -7 -46v-449h50q26 0 50 8v-113q-31 4 -53 4h-47v-176q0 -24 7 -47h-171 q7 24 7 47v176h-334zM1121 324h241v363z" />
<glyph unicode="&#xbd;" horiz-adv-x="1701" d="M116 1269l335 114q-9 -26 -9 -49v-741q0 -20 7 -47h-178q7 23 7 47v643l-154 -65v60q0 18 -8 38zM481 0l613 1365h110l-613 -1365h-110zM1067 0q8 22 8 43v56q163 134 247 262t84 242q0 67 -36.5 103.5t-102.5 36.5q-73 0 -155 -52l-17 100q119 40 210 40q115 0 184 -53 q81 -63 81 -162q0 -158 -209 -377q-75 -79 -140 -127h293q44 0 68 8v-120h-515z" />
<glyph unicode="&#xbe;" horiz-adv-x="1700" d="M85 591l26 103q85 -74 164 -74q62 0 99.5 43.5t37.5 115.5q0 71 -38.5 114.5t-101.5 43.5q-5 0 -22 -1q-6 0 -19 -1v94q27 -3 42 -3q57 0 90 37t33 102q0 58 -31.5 92t-86.5 34q-62 0 -136 -55l-10 105q85 36 175 36q122 0 187 -59q62 -57 62 -146q0 -146 -164 -189 q67 -16 102 -38q82 -54 82 -165q0 -112 -74.5 -179t-198.5 -67q-109 0 -218 57zM492 0l613 1365h110l-613 -1365h-110zM1043 223v102q14 13 30 38l283 418q15 23 20 38h163q-6 -23 -6 -46v-449h50q26 0 50 8v-113q-31 4 -53 4h-47v-176q0 -24 6 -47h-170q7 24 7 47v176h-333 zM1138 324h241v363z" />
<glyph unicode="&#xbf;" horiz-adv-x="746" d="M82 -69q0 72 42.5 156.5t148.5 218.5q70 91 91.5 131t21.5 82t-30.5 70t-75.5 28q-48 0 -109 -47l-8 112q97 53 189 53q108 0 178 -73q62 -64 62 -148q0 -60 -31.5 -121.5t-120.5 -175.5q-82 -107 -112 -163t-30 -104q0 -59 33.5 -96.5t86.5 -37.5q86 0 185 89l8 -135 q-119 -77 -256 -77q-120 0 -194 65q-79 69 -79 173zM246 973q0 51 38.5 84t98.5 34q60 0 98.5 -34t38.5 -86q0 -50 -39 -83.5t-98 -33.5t-98 33.5t-39 85.5z" />
<glyph unicode="&#xc0;" horiz-adv-x="1180" d="M-3 0q19 30 28 57l447 1258q9 26 9 50h199q1 -21 9 -45l461 -1263q10 -24 33 -57h-267q0 27 -10 57l-131 371h-509l-132 -371q-9 -25 -8 -57h-129zM301 528h436l-221 617zM320 1760h180l133 -316h-99z" />
<glyph unicode="&#xc1;" horiz-adv-x="1180" d="M-3 0q19 30 28 57l447 1258q9 26 9 50h199q1 -21 9 -45l461 -1263q10 -24 33 -57h-267q0 27 -10 57l-131 371h-509l-132 -371q-9 -25 -8 -57h-129zM301 528h436l-221 617zM517 1444l139 316h179l-215 -316h-103z" />
<glyph unicode="&#xc2;" horiz-adv-x="1180" d="M-3 0q19 30 28 57l447 1258q9 26 9 50h199q1 -21 9 -45l461 -1263q10 -24 33 -57h-267q0 27 -10 57l-131 371h-509l-132 -371q-9 -25 -8 -57h-129zM254 1469l261 270h134l249 -270h-153l-164 189l-172 -189h-155zM301 528h436l-221 617z" />
<glyph unicode="&#xc3;" horiz-adv-x="1180" d="M-3 0q19 30 28 57l447 1258q9 26 9 50h199q1 -21 9 -45l461 -1263q10 -24 33 -57h-267q0 27 -10 57l-131 371h-509l-132 -371q-9 -25 -8 -57h-129zM285 1530v141q103 34 167 34q60 0 156 -24q119 -30 151 -30q48 0 107 35v-140q-70 -27 -116 -27q-35 0 -176 35 q-82 20 -136 20q-64 0 -153 -44zM301 528h436l-221 617z" />
<glyph unicode="&#xc4;" horiz-adv-x="1180" d="M-3 0q19 30 28 57l447 1258q9 26 9 50h199q1 -21 9 -45l461 -1263q10 -24 33 -57h-267q0 27 -10 57l-131 371h-509l-132 -371q-9 -25 -8 -57h-129zM227 1572q0 44 36 70.5t96 26.5t94.5 -25.5t34.5 -69.5q0 -46 -35 -72.5t-94 -26.5q-62 0 -97 26t-35 71zM301 528h436 l-221 617zM665 1574q0 44 36 70.5t96 26.5t94.5 -25.5t34.5 -69.5q0 -46 -34.5 -72.5t-94.5 -26.5q-62 0 -97 26t-35 71z" />
<glyph unicode="&#xc5;" horiz-adv-x="1180" d="M-3 0q19 30 28 57l447 1258q9 26 9 50h199q1 -21 9 -45l461 -1263q10 -24 33 -57h-267q0 27 -10 57l-131 371h-509l-132 -371q-9 -25 -8 -57h-129zM301 528h436l-221 617zM393 1631q0 75 53.5 128.5t128.5 54.5q77 0 131 -55q53 -54 53 -130q0 -77 -53.5 -130.5 t-130.5 -53.5q-76 0 -128 53q-54 57 -54 133zM476 1630q0 -41 29 -69.5t70 -28.5q42 0 71.5 28.5t29.5 69.5q0 40 -29 68t-72 29q-40 0 -69.5 -28.5t-29.5 -68.5z" />
<glyph unicode="&#xc6;" horiz-adv-x="1630" d="M-20 0q22 29 50 77l704 1216q20 36 29 72h767v-111q-30 10 -63 10h-407v-520h395q44 0 76 9v-111q-27 6 -73 6h-398v-538h395q33 0 76 10v-120h-708q9 28 9 65v361h-477l-216 -369q-15 -27 -24 -57h-135zM407 529h425v737z" />
<glyph unicode="&#xc7;" horiz-adv-x="1151" d="M80 692q0 222 74 363q171 330 624 330q172 0 324 -60v-184q-91 74 -162.5 103t-163.5 29q-224 0 -341 -170q-112 -162 -112 -416q0 -271 128 -433q125 -158 332 -158q92 0 163 32.5t156 113.5v-180q-98 -46 -175.5 -64t-180.5 -18q-316 0 -485 175q-181 188 -181 537z M510 -407l87 309h163l-149 -309h-101z" />
<glyph unicode="&#xc8;" horiz-adv-x="950" d="M144 1365h708v-111q-31 10 -64 10h-407v-520h396q43 0 75 9v-111q-27 6 -73 6h-398v-538h395q33 0 76 10v-120h-707q8 30 8 65v1234q0 41 -9 66zM270 1760h180l133 -316h-99z" />
<glyph unicode="&#xc9;" horiz-adv-x="950" d="M144 1365h708v-111q-31 10 -64 10h-407v-520h396q43 0 75 9v-111q-27 6 -73 6h-398v-538h395q33 0 76 10v-120h-707q8 30 8 65v1234q0 41 -9 66zM417 1444l139 316h179l-215 -316h-103z" />
<glyph unicode="&#xca;" horiz-adv-x="950" d="M144 1365h708v-111q-31 10 -64 10h-407v-520h396q43 0 75 9v-111q-27 6 -73 6h-398v-538h395q33 0 76 10v-120h-707q8 30 8 65v1234q0 41 -9 66zM172 1469l261 270h134l249 -270h-153l-164 189l-172 -189h-155z" />
<glyph unicode="&#xcb;" horiz-adv-x="950" d="M132 1365h708v-111q-31 10 -64 10h-407v-520h396q43 0 75 9v-111q-27 6 -73 6h-398v-538h395q33 0 76 10v-120h-707q8 30 8 65v1234q0 41 -9 66zM133 1572q0 44 36 70.5t96 26.5t94.5 -25.5t34.5 -69.5q0 -46 -35 -72.5t-94 -26.5q-62 0 -97 26t-35 71zM571 1574 q0 44 36 70.5t96 26.5t94.5 -25.5t34.5 -69.5q0 -46 -34.5 -72.5t-94.5 -26.5q-62 0 -97 26t-35 71z" />
<glyph unicode="&#xcc;" horiz-adv-x="558" d="M32 1760h180l133 -316h-99zM156 0q9 30 9 66v1234q0 35 -9 65h246q-8 -24 -9 -65v-1234q1 -42 9 -66h-246z" />
<glyph unicode="&#xcd;" horiz-adv-x="558" d="M156 0q9 30 9 66v1234q0 35 -9 65h246q-8 -24 -9 -65v-1234q1 -42 9 -66h-246zM206 1444l139 316h179l-215 -316h-103z" />
<glyph unicode="&#xce;" horiz-adv-x="558" d="M3 1469l215 270h134l202 -270h-153l-118 189l-125 -189h-155zM156 0q9 30 9 66v1234q0 35 -9 65h246q-9 -24 -9 -65v-1234q0 -42 9 -66h-246z" />
<glyph unicode="&#xcf;" horiz-adv-x="558" d="M-10 1572q0 44 34.5 70.5t91.5 26.5q56 0 89 -25.5t33 -69.5q0 -45 -33.5 -72t-89.5 -27q-58 0 -91.5 26t-33.5 71zM156 0q9 30 9 66v1234q0 35 -9 65h246q-8 -24 -9 -65v-1234q1 -42 9 -66h-246zM320 1575q0 43 34.5 69.5t91.5 26.5q56 0 89 -25.5t33 -69.5 q0 -45 -33.5 -72t-89.5 -27q-58 0 -91.5 26t-33.5 72z" />
<glyph unicode="&#xd0;" horiz-adv-x="1345" d="M-7 646v106h160v548q0 38 -9 65h422q232 0 396 -95q150 -86 224 -237q76 -153 76 -339q0 -283 -152 -468q-187 -226 -486 -226h-480q9 30 9 66v580h-160zM381 117h186q180 0 290 108q75 75 111 176q50 140 50 295q0 319 -201 467q-121 89 -287 89h-149v-500h248v-106 h-248v-529z" />
<glyph unicode="&#xd1;" horiz-adv-x="1379" d="M139 0q9 30 9 66v1233q0 38 -9 66h217q5 -20 24 -47l746 -1043v1024q0 35 -9 66h122q-8 -23 -9 -65v-1239q1 -40 10 -61h-199q-6 17 -30 51l-759 1062v-1047q0 -37 9 -66h-122zM418 1530v141q103 34 167 34q60 0 156 -24q119 -30 151 -30q48 0 107 35v-140 q-70 -27 -116 -27q-35 0 -176 35q-82 20 -136 20q-64 0 -153 -44z" />
<glyph unicode="&#xd2;" horiz-adv-x="1512" d="M83 695q0 215 82 374q160 312 591 316q302 0 479 -166q194 -184 194 -535q0 -346 -185 -530q-175 -174 -491 -174q-330 0 -498 186q-172 190 -172 529zM327 693q0 -607 432 -607q216 0 327 170q53 81 76.5 181.5t23.5 241.5q0 594 -429 600q-226 0 -333 -170 q-97 -155 -97 -416zM523 1760h180l133 -316h-99z" />
<glyph unicode="&#xd3;" horiz-adv-x="1512" d="M83 695q0 215 82 374q160 312 591 316q302 0 479 -166q194 -184 194 -535q0 -346 -185 -530q-175 -174 -491 -174q-330 0 -498 186q-172 190 -172 529zM327 693q0 -607 432 -607q216 0 327 170q53 81 76.5 181.5t23.5 241.5q0 594 -429 600q-226 0 -333 -170 q-97 -155 -97 -416zM638 1444l139 316h179l-215 -316h-103z" />
<glyph unicode="&#xd4;" horiz-adv-x="1512" d="M83 695q0 215 82 374q160 312 591 316q302 0 479 -166q194 -184 194 -535q0 -346 -185 -530q-175 -174 -491 -174q-330 0 -498 186q-172 190 -172 529zM327 693q0 -607 432 -607q216 0 327 170q53 81 76.5 181.5t23.5 241.5q0 594 -429 600q-226 0 -333 -170 q-97 -155 -97 -416zM434 1469l261 270h134l249 -270h-153l-164 189l-172 -189h-155z" />
<glyph unicode="&#xd5;" horiz-adv-x="1512" d="M83 695q0 215 82 374q160 312 591 316q302 0 479 -166q194 -184 194 -535q0 -346 -185 -530q-175 -174 -491 -174q-330 0 -498 186q-172 190 -172 529zM327 693q0 -607 432 -607q216 0 327 170q53 81 76.5 181.5t23.5 241.5q0 594 -429 600q-226 0 -333 -170 q-97 -155 -97 -416zM465 1530v141q103 34 167 34q60 0 156 -24q119 -30 151 -30q48 0 107 35v-140q-70 -27 -116 -27q-35 0 -176 35q-82 20 -136 20q-64 0 -153 -44z" />
<glyph unicode="&#xd6;" horiz-adv-x="1512" d="M83 695q0 215 82 374q160 312 591 316q302 0 479 -166q194 -184 194 -535q0 -346 -185 -530q-175 -174 -491 -174q-330 0 -498 186q-172 190 -172 529zM327 693q0 -607 432 -607q216 0 327 170q53 81 76.5 181.5t23.5 241.5q0 594 -429 600q-226 0 -333 -170 q-97 -155 -97 -416zM406 1572q0 44 36 70.5t96 26.5t94.5 -25.5t34.5 -69.5q0 -46 -35 -72.5t-94 -26.5q-62 0 -97 26t-35 71zM844 1574q0 44 36 70.5t96 26.5t94.5 -25.5t34.5 -69.5q0 -46 -34.5 -72.5t-94.5 -26.5q-62 0 -97 26t-35 71z" />
<glyph unicode="&#xd7;" d="M142 391l291 291l-291 291l89 89l291 -291l291 291l89 -89l-291 -291l291 -291l-89 -89l-291 291l-291 -291z" />
<glyph unicode="&#xd8;" horiz-adv-x="1512" d="M-7 0l219 220q-129 185 -129 467q0 342 188 527q175 171 485 171q287 0 465 -153l133 133h165l-219 -219q129 -177 129 -465q0 -343 -185 -527q-175 -174 -491 -174q-295 0 -464 152l-132 -132h-164zM326 686q0 -195 48 -327l707 760q-38 54 -80 87q-94 73 -245 73 q-226 0 -333 -170q-97 -156 -97 -423zM430 247q112 -161 328 -161q217 0 328 170q100 154 100 419q0 205 -48 333z" />
<glyph unicode="&#xd9;" horiz-adv-x="1357" d="M131 1365h246q-9 -31 -9 -65v-863q0 -122 57 -206q94 -140 307 -140q184 0 284 98t100 279v831q-1 40 -9 66h120q-9 -28 -9 -66v-847q0 -164 -78 -277q-79 -114 -206 -155q-121 -40 -266 -40q-209 0 -327 76q-95 60 -148 161.5t-53 223.5v858q0 36 -9 66zM485 1760h180 l133 -316h-99z" />
<glyph unicode="&#xda;" horiz-adv-x="1357" d="M131 1365h246q-9 -31 -9 -65v-863q0 -122 57 -206q94 -140 307 -140q184 0 284 98t100 279v831q-1 40 -9 66h120q-9 -28 -9 -66v-847q0 -164 -78 -277q-79 -114 -206 -155q-121 -40 -266 -40q-209 0 -327 76q-95 60 -148 161.5t-53 223.5v858q0 36 -9 66zM630 1444 l139 316h179l-215 -316h-103z" />
<glyph unicode="&#xdb;" horiz-adv-x="1357" d="M131 1365h246q-9 -31 -9 -65v-863q0 -122 57 -206q94 -140 307 -140q184 0 284 98t100 279v831q-1 40 -9 66h120q-9 -28 -9 -66v-847q0 -164 -78 -277q-79 -114 -206 -155q-121 -40 -266 -40q-209 0 -327 76q-95 60 -148 161.5t-53 223.5v858q0 36 -9 66zM382 1469 l261 270h134l249 -270h-153l-164 189l-172 -189h-155z" />
<glyph unicode="&#xdc;" horiz-adv-x="1357" d="M131 1365h246q-9 -31 -9 -65v-863q0 -122 57 -206q94 -140 307 -140q184 0 284 98t100 279v831q-1 40 -9 66h120q-9 -28 -9 -66v-847q0 -164 -78 -277q-79 -114 -206 -155q-121 -40 -266 -40q-209 0 -327 76q-95 60 -148 161.5t-53 223.5v858q0 36 -9 66zM359 1572 q0 44 36 70.5t96 26.5t94.5 -25.5t34.5 -69.5q0 -46 -35 -72.5t-94 -26.5q-62 0 -97 26t-35 71zM797 1574q0 44 36 70.5t96 26.5t94.5 -25.5t34.5 -69.5q0 -46 -34.5 -72.5t-94.5 -26.5q-62 0 -97 26t-35 71z" />
<glyph unicode="&#xdd;" horiz-adv-x="916" d="M-42 1365h265q2 -20 20 -59l278 -566l289 569q12 24 19 56h129q-15 -21 -31 -51l-357 -713v-535q0 -37 9 -66h-246q9 30 9 66v532l-352 712q-17 35 -32 55zM403 1444l139 316h179l-215 -316h-103z" />
<glyph unicode="&#xde;" horiz-adv-x="1054" d="M144 0q9 31 9 66v1232q0 37 -9 67h246q-8 -24 -9 -66v-177h199q161 0 272 -64q170 -99 170 -312q0 -236 -207 -340q-121 -61 -289 -61h-145v-279q0 -30 10 -66h-247zM381 450h122q100 0 161 36q58 35 92 103.5t34 152.5q0 130 -71.5 204.5t-196.5 74.5h-141v-571z" />
<glyph unicode="&#xdf;" horiz-adv-x="1136" d="M119 0q8 33 8 66v1097q0 119 46 184q51 70 146 109.5t215 39.5q154 0 253 -74q106 -80 106 -206q0 -62 -22.5 -113t-100.5 -168q-22 -32 -22 -52q0 -24 20.5 -46t141.5 -133q91 -82 129 -160t38 -181q0 -167 -104 -276q-102 -107 -267 -107q-99 0 -216 47v163 q55 -55 92 -74.5t87 -19.5q92 0 149 70q60 73 60 162q0 91 -92 221q-66 93 -130 155q-42 42 -57 65.5t-15 49.5t11 47.5t76 123.5q57 90 57 187q0 100 -51 159q-55 64 -144 64q-93 0 -146.5 -57t-53.5 -156v-1187h-214z" />
<glyph unicode="&#xe0;" horiz-adv-x="1014" d="M47 286q0 174 131 260q58 38 109.5 57.5t233.5 74.5q76 23 108 56.5t32 91.5q0 68 -54 110.5t-141 42.5q-75 0 -133.5 -24t-143.5 -89l-34 136q109 51 188 70t182 19q165 0 255 -64.5t90 -182.5v-633q0 -92 63 -92q25 0 70 33v-118q-83 -53 -158 -53q-78 0 -117.5 36 t-59.5 126q-64 -76 -117 -107q-94 -55 -214 -55q-123 0 -198 72q-92 87 -92 233zM250 307q0 -85 47.5 -136.5t126.5 -51.5q123 0 193 101q44 64 44 138v278q-40 -22 -58.5 -30t-158.5 -61q-109 -41 -151 -102q-43 -62 -43 -136zM278 1505h180l133 -316h-99z" />
<glyph unicode="&#xe1;" horiz-adv-x="1014" d="M47 286q0 174 131 260q58 38 109.5 57.5t233.5 74.5q76 23 108 56.5t32 91.5q0 68 -54 110.5t-141 42.5q-75 0 -133.5 -24t-143.5 -89l-34 136q109 51 188 70t182 19q165 0 255 -64.5t90 -182.5v-633q0 -92 63 -92q25 0 70 33v-118q-83 -53 -158 -53q-78 0 -117.5 36 t-59.5 126q-64 -76 -117 -107q-94 -55 -214 -55q-123 0 -198 72q-92 87 -92 233zM250 307q0 -85 47.5 -136.5t126.5 -51.5q123 0 193 101q44 64 44 138v278q-40 -22 -58.5 -30t-158.5 -61q-109 -41 -151 -102q-43 -62 -43 -136zM426 1189l139 316h179l-215 -316h-103z" />
<glyph unicode="&#xe2;" horiz-adv-x="1014" d="M47 286q0 174 131 260q58 38 109.5 57.5t233.5 74.5q76 23 108 56.5t32 91.5q0 68 -54 110.5t-141 42.5q-75 0 -133.5 -24t-143.5 -89l-34 136q109 51 188 70t182 19q165 0 255 -64.5t90 -182.5v-633q0 -92 63 -92q25 0 70 33v-118q-83 -53 -158 -53q-78 0 -117.5 36 t-59.5 126q-64 -76 -117 -107q-94 -55 -214 -55q-123 0 -198 72q-92 87 -92 233zM212 1189l234 311h134l221 -311h-153l-136 224l-145 -224h-155zM250 307q0 -85 47.5 -136.5t126.5 -51.5q123 0 193 101q44 64 44 138v278q-40 -22 -58.5 -30t-158.5 -61q-109 -41 -151 -102 q-43 -62 -43 -136z" />
<glyph unicode="&#xe3;" horiz-adv-x="1014" d="M47 286q0 174 131 260q58 38 109.5 57.5t233.5 74.5q76 23 108 56.5t32 91.5q0 68 -54 110.5t-141 42.5q-75 0 -133.5 -24t-143.5 -89l-34 136q109 51 188 70t182 19q165 0 255 -64.5t90 -182.5v-633q0 -92 63 -92q25 0 70 33v-118q-83 -53 -158 -53q-78 0 -117.5 36 t-59.5 126q-64 -76 -117 -107q-94 -55 -214 -55q-123 0 -198 72q-92 87 -92 233zM227 1258v150q80 35 149 35q60 0 262 -47q32 -8 64 -8q43 0 84 35v-148q-54 -28 -96 -28q-38 0 -185 38q-75 19 -139 19q-68 0 -139 -46zM250 307q0 -85 47.5 -136.5t126.5 -51.5 q123 0 193 101q44 64 44 138v278q-40 -22 -58.5 -30t-158.5 -61q-109 -41 -151 -102q-43 -62 -43 -136z" />
<glyph unicode="&#xe4;" horiz-adv-x="1014" d="M47 286q0 174 131 260q58 38 109.5 57.5t233.5 74.5q76 23 108 56.5t32 91.5q0 68 -54 110.5t-141 42.5q-75 0 -133.5 -24t-143.5 -89l-34 136q109 51 188 70t182 19q165 0 255 -64.5t90 -182.5v-633q0 -92 63 -92q25 0 70 33v-118q-83 -53 -158 -53q-78 0 -117.5 36 t-59.5 126q-64 -76 -117 -107q-94 -55 -214 -55q-123 0 -198 72q-92 87 -92 233zM153 1307q0 44 36 70t97 27q59 0 93.5 -25.5t34.5 -69.5q0 -46 -35 -72.5t-94 -26.5q-62 0 -97 26t-35 71zM250 307q0 -85 47.5 -136.5t126.5 -51.5q123 0 193 101q44 64 44 138v278 q-40 -22 -58.5 -30t-158.5 -61q-109 -41 -151 -102q-43 -62 -43 -136zM591 1309q0 44 36 70.5t96 26.5t94.5 -25.5t34.5 -69.5q0 -46 -34.5 -72.5t-94.5 -26.5q-61 0 -96.5 26t-35.5 71z" />
<glyph unicode="&#xe5;" horiz-adv-x="1014" d="M47 286q0 174 131 260q58 38 109.5 57.5t233.5 74.5q76 23 108 56.5t32 91.5q0 68 -54 110.5t-141 42.5q-75 0 -133.5 -24t-143.5 -89l-34 136q109 51 188 70t182 19q165 0 255 -64.5t90 -182.5v-633q0 -92 63 -92q25 0 70 33v-118q-83 -53 -158 -53q-78 0 -117.5 36 t-59.5 126q-64 -76 -117 -107q-94 -55 -214 -55q-123 0 -198 72q-92 87 -92 233zM250 307q0 -85 47.5 -136.5t126.5 -51.5q123 0 193 101q44 64 44 138v278q-40 -22 -58.5 -30t-158.5 -61q-109 -41 -151 -102q-43 -62 -43 -136zM324 1366q0 75 53.5 128.5t128.5 54.5 q77 0 131 -55q53 -54 53 -130q0 -77 -53.5 -130.5t-130.5 -53.5q-76 0 -128 53q-54 57 -54 133zM407 1365q0 -40 29 -69t70 -29q42 0 71.5 28.5t29.5 69.5q0 40 -29 68t-72 29q-40 0 -69.5 -28.5t-29.5 -68.5z" />
<glyph unicode="&#xe6;" horiz-adv-x="1654" d="M47 285q0 175 128 261q57 38 106.5 58t228.5 74q75 23 106 57t31 92q0 67 -53 109.5t-137 42.5q-72 0 -129 -24t-140 -89l-34 136q106 50 184 69.5t177 19.5q207 0 292 -138q53 51 81 70q46 30 116.5 49t138.5 19q154 0 266 -88q165 -131 177 -432h-725q1 -175 38 -280 q74 -209 305 -209q156 0 299 124l32 -135q-101 -51 -178.5 -70.5t-176.5 -19.5q-125 0 -211.5 29.5t-163.5 98.5q-55 49 -89 117q-56 -89 -113 -141q-114 -104 -271 -104q-121 0 -195 71q-90 87 -90 233zM250 306q0 -84 46.5 -135.5t121.5 -51.5q119 0 186 101q43 64 43 138 v279q-39 -23 -50 -28t-159 -62q-188 -74 -188 -241zM867 665h496q-8 90 -25 147q-26 85 -90 137q-53 43 -126 43q-105 0 -172 -85.5t-83 -241.5z" />
<glyph unicode="&#xe7;" horiz-adv-x="920" d="M81 522q0 288 167 443q137 126 359 126q122 0 258 -46v-156q-76 60 -127.5 81.5t-117.5 21.5q-146 0 -227 -120q-87 -127 -87 -336q0 -182 66 -305q76 -141 236 -141q69 0 127 25.5t130 88.5v-147q-121 -51 -170.5 -63.5t-131.5 -12.5q-226 0 -350 140q-132 149 -132 401 zM355 -408l87 308h162l-148 -308h-101z" />
<glyph unicode="&#xe8;" horiz-adv-x="1105" d="M81 528q0 272 144 423q133 140 353 140q213 0 332 -134.5t128 -385.5h-739q0 -175 39 -280q76 -209 311 -209q161 0 307 124l31 -135q-103 -51 -182 -70.5t-184 -19.5q-273 0 -414 160q-126 141 -126 387zM305 665h510q-8 91 -26 148q-27 85 -92 137q-54 43 -130 43 q-108 0 -177 -86t-85 -242zM332 1505h180l133 -316h-99z" />
<glyph unicode="&#xe9;" horiz-adv-x="1105" d="M81 528q0 272 144 423q133 140 353 140q213 0 332 -134.5t128 -385.5h-739q0 -175 39 -280q76 -209 311 -209q161 0 307 124l31 -135q-103 -51 -182 -70.5t-184 -19.5q-273 0 -414 160q-126 141 -126 387zM305 665h510q-8 91 -26 148q-27 85 -92 137q-54 43 -130 43 q-108 0 -177 -86t-85 -242zM471 1189l139 316h179l-215 -316h-103z" />
<glyph unicode="&#xea;" horiz-adv-x="1105" d="M81 528q0 272 144 423q133 140 353 140q213 0 332 -134.5t128 -385.5h-739q0 -175 39 -280q76 -209 311 -209q161 0 307 124l31 -135q-103 -51 -182 -70.5t-184 -19.5q-273 0 -414 160q-126 141 -126 387zM281 1189l234 311h134l221 -311h-153l-136 224l-145 -224h-155z M305 665h510q-8 91 -26 148q-27 85 -92 137q-54 43 -130 43q-108 0 -177 -86t-85 -242z" />
<glyph unicode="&#xeb;" horiz-adv-x="1105" d="M81 528q0 272 144 423q133 140 353 140q213 0 332 -134.5t128 -385.5h-739q0 -175 39 -280q76 -209 311 -209q161 0 307 124l31 -135q-103 -51 -182 -70.5t-184 -19.5q-273 0 -414 160q-126 141 -126 387zM219 1307q0 44 36 70t97 27q59 0 93.5 -25.5t34.5 -69.5 q0 -46 -35 -72.5t-94 -26.5q-62 0 -97 26t-35 71zM305 665h510q-8 91 -26 148q-27 85 -92 137q-54 43 -130 43q-108 0 -177 -86t-85 -242zM657 1309q0 44 36 70.5t96 26.5t94.5 -25.5t34.5 -69.5q0 -46 -34.5 -72.5t-94.5 -26.5q-61 0 -96.5 26t-35.5 71z" />
<glyph unicode="&#xec;" horiz-adv-x="501" d="M2 1505h180l133 -316h-99zM136 0q8 31 8 66v934q0 37 -8 66h225q-8 -31 -8 -66v-934q0 -34 8 -66h-225z" />
<glyph unicode="&#xed;" horiz-adv-x="501" d="M136 0q8 31 8 66v934q0 37 -8 66h225q-8 -31 -8 -66v-934q0 -34 8 -66h-225zM183 1189l139 316h179l-215 -316h-103z" />
<glyph unicode="&#xee;" horiz-adv-x="501" d="M-16 1189l205 311h135l192 -311h-153l-108 224l-116 -224h-155zM136 0q8 31 8 66v934q0 38 -8 66h225q-8 -30 -8 -66v-934q0 -35 8 -66h-225z" />
<glyph unicode="&#xef;" horiz-adv-x="501" d="M-39 1307q0 44 34.5 70.5t91.5 26.5q56 0 89 -26t33 -69q0 -45 -33.5 -72t-89.5 -27q-58 0 -91.5 26t-33.5 71zM136 0q8 31 8 66v934q0 37 -8 66h225q-8 -31 -8 -66v-934q0 -34 8 -66h-225zM291 1309q0 44 34.5 70.5t91.5 26.5q56 0 89 -25.5t33 -69.5q0 -45 -33.5 -72 t-88.5 -27q-59 0 -92.5 26t-33.5 71z" />
<glyph unicode="&#xf0;" horiz-adv-x="1145" d="M81 533q0 236 129 383q131 150 338 150q94 0 158 -29t131 -101q-21 152 -67 235.5t-138 137.5l-129 -148l-55 48l113 130q-82 30 -164 41l42 88q129 -22 195 -45l128 147l55 -48l-109 -126q127 -61 192 -143q165 -210 165 -664q0 -170 -33 -279.5t-109 -190.5 q-130 -138 -350 -138q-232 0 -361 151q-131 155 -131 401zM300 528q0 -221 82 -351q32 -49 83 -78t108 -29q56 0 107.5 29t82.5 78q82 130 82 347q0 219 -82 346q-68 105 -190 107q-57 0 -109 -29t-83 -79q-81 -128 -81 -341z" />
<glyph unicode="&#xf1;" horiz-adv-x="1143" d="M128 0q8 29 8 66v935q0 34 -8 65h213v-149q48 75 97 110q92 64 233 64q182 0 276 -111q60 -71 60 -198v-716q0 -33 8 -66h-225q8 25 8 66v685q0 91 -53 141t-151 50q-122 0 -184 -68q-65 -72 -65 -185v-623q0 -35 8 -66h-225zM311 1258v150q80 35 149 35q60 0 262 -47 q32 -8 64 -8q43 0 84 35v-148q-54 -28 -96 -28q-38 0 -185 38q-75 19 -139 19q-68 0 -139 -46z" />
<glyph unicode="&#xf2;" horiz-adv-x="1145" d="M81 551q0 236 130 387q129 150 361 153q237 0 369 -160q124 -150 124 -396q0 -262 -142 -413q-132 -141 -349 -141q-233 0 -361 154q-132 158 -132 416zM301 540q0 -227 82 -360q31 -50 82.5 -80t107.5 -30t107.5 30t82.5 80q82 133 82 356q0 226 -82 357 q-67 107 -190 109q-56 0 -108 -30t-83 -81q-81 -131 -81 -351zM344 1505h180l133 -316h-99z" />
<glyph unicode="&#xf3;" horiz-adv-x="1145" d="M81 551q0 236 130 387q129 150 361 153q237 0 369 -160q124 -150 124 -396q0 -262 -142 -413q-132 -141 -349 -141q-233 0 -361 154q-132 158 -132 416zM301 540q0 -227 82 -360q31 -50 82.5 -80t107.5 -30t107.5 30t82.5 80q82 133 82 356q0 226 -82 357 q-67 107 -190 109q-56 0 -108 -30t-83 -81q-81 -131 -81 -351zM463 1189l139 316h179l-215 -316h-103z" />
<glyph unicode="&#xf4;" horiz-adv-x="1145" d="M81 551q0 236 130 387q129 150 361 153q237 0 369 -160q124 -150 124 -396q0 -262 -142 -413q-132 -141 -349 -141q-233 0 -361 154q-132 158 -132 416zM278 1189l234 311h134l221 -311h-153l-136 224l-145 -224h-155zM301 540q0 -227 82 -360q31 -50 82.5 -80t107.5 -30 t107.5 30t82.5 80q82 133 82 356q0 226 -82 357q-67 107 -190 109q-56 0 -108 -30t-83 -81q-81 -131 -81 -351z" />
<glyph unicode="&#xf5;" horiz-adv-x="1145" d="M81 551q0 236 130 387q129 150 361 153q237 0 369 -160q124 -150 124 -396q0 -262 -142 -413q-132 -141 -349 -141q-233 0 -361 154q-132 158 -132 416zM293 1258v150q80 35 149 35q60 0 262 -47q32 -8 64 -8q43 0 84 35v-148q-54 -28 -96 -28q-38 0 -185 38 q-75 19 -139 19q-68 0 -139 -46zM301 540q0 -227 82 -360q31 -50 82.5 -80t107.5 -30t107.5 30t82.5 80q82 133 82 356q0 226 -82 357q-67 107 -190 109q-56 0 -108 -30t-83 -81q-81 -131 -81 -351z" />
<glyph unicode="&#xf6;" horiz-adv-x="1145" d="M81 551q0 236 130 387q129 150 361 153q237 0 369 -160q124 -150 124 -396q0 -262 -142 -413q-132 -141 -349 -141q-233 0 -361 154q-132 158 -132 416zM223 1307q0 44 36 70t97 27q59 0 93.5 -25.5t34.5 -69.5q0 -46 -35 -72.5t-94 -26.5q-62 0 -97 26t-35 71zM301 540 q0 -227 82 -360q31 -50 82.5 -80t107.5 -30t107.5 30t82.5 80q82 133 82 356q0 226 -82 357q-67 107 -190 109q-56 0 -108 -30t-83 -81q-81 -131 -81 -351zM661 1309q0 44 36 70.5t96 26.5t94.5 -25.5t34.5 -69.5q0 -46 -34.5 -72.5t-94.5 -26.5q-61 0 -96.5 26t-35.5 71z " />
<glyph unicode="&#xf7;" d="M103 620v126h837v-126h-837zM405 382q0 42 33 70t83 28q51 0 84 -28t33 -72q0 -43 -33 -71t-84 -28t-83.5 28.5t-32.5 72.5zM405 986q0 42 33 70t83 28q51 0 84 -28t33 -71t-33 -71.5t-84 -28.5q-50 0 -83 28.5t-33 72.5z" />
<glyph unicode="&#xf8;" horiz-adv-x="1145" d="M-17 0l189 192q-91 153 -91 354q0 240 130 392q130 153 360 153q216 0 351 -138l105 107h135l-182 -184q85 -145 85 -343q0 -260 -142 -411q-132 -141 -349 -141q-212 0 -344 134l-114 -115h-133zM300 534q0 -102 23 -205l468 511q-74 162 -218 162q-56 0 -109 -30.5 t-83 -80.5q-81 -132 -81 -357zM358 226q74 -156 215 -156q55 0 107 30t83 80q82 132 82 356q0 100 -21 198z" />
<glyph unicode="&#xf9;" horiz-adv-x="1138" d="M128 1066h225q-8 -28 -8 -65v-669q0 -86 41 -137q54 -65 162 -65q109 0 176.5 62.5t67.5 162.5v646q0 35 -8 65h225q-8 -26 -8 -65v-935q0 -32 8 -66h-213v146q-57 -78 -110 -112q-84 -53 -211 -53q-171 0 -263 97q-76 80 -76 231v692q0 34 -8 65zM349 1505h180l133 -316 h-99z" />
<glyph unicode="&#xfa;" horiz-adv-x="1138" d="M128 1066h225q-8 -28 -8 -65v-669q0 -86 41 -137q54 -65 162 -65q109 0 176.5 62.5t67.5 162.5v646q0 35 -8 65h225q-8 -26 -8 -65v-935q0 -32 8 -66h-213v146q-57 -78 -110 -112q-84 -53 -211 -53q-171 0 -263 97q-76 80 -76 231v692q0 34 -8 65zM469 1189l139 316h179 l-215 -316h-103z" />
<glyph unicode="&#xfb;" horiz-adv-x="1138" d="M128 1066h225q-8 -28 -8 -65v-669q0 -86 41 -137q54 -65 162 -65q109 0 176.5 62.5t67.5 162.5v646q0 35 -8 65h225q-8 -26 -8 -65v-935q0 -32 8 -66h-213v146q-57 -78 -110 -112q-84 -53 -211 -53q-171 0 -263 97q-76 80 -76 231v692q0 34 -8 65zM274 1189l234 311h134 l221 -311h-153l-136 224l-145 -224h-155z" />
<glyph unicode="&#xfc;" horiz-adv-x="1138" d="M128 1066h225q-8 -28 -8 -65v-669q0 -86 41 -137q54 -65 162 -65q109 0 176.5 62.5t67.5 162.5v646q0 35 -8 65h225q-8 -26 -8 -65v-935q0 -32 8 -66h-213v146q-57 -78 -110 -112q-84 -53 -211 -53q-171 0 -263 97q-76 80 -76 231v692q0 34 -8 65zM219 1307q0 44 36 70 t97 27q59 0 93.5 -25.5t34.5 -69.5q0 -46 -35 -72.5t-94 -26.5q-62 0 -97 26t-35 71zM657 1309q0 44 36 70.5t96 26.5t94.5 -25.5t34.5 -69.5q0 -46 -34.5 -72.5t-94.5 -26.5q-61 0 -96.5 26t-35.5 71z" />
<glyph unicode="&#xfd;" horiz-adv-x="893" d="M-27 1066h243q6 -35 15 -59l250 -719l295 719q12 31 17 59h127q-19 -32 -30 -59l-524 -1267q-12 -28 -18 -59h-130q21 36 31 59l115 260l-365 1007q-7 21 -26 59zM349 1189l139 316h179l-215 -316h-103z" />
<glyph unicode="&#xfe;" horiz-adv-x="1122" d="M126 -319q8 32 8 65v1660q0 33 -8 66h222q-8 -28 -8 -66v-492q118 177 311 177q165 0 270 -125q62 -74 91 -174.5t29 -242.5q0 -280 -120 -430q-52 -64 -131.5 -101t-166.5 -37q-168 0 -280 139v-374q0 -36 8 -65h-225zM337 524q0 -138 17.5 -214.5t61.5 -135.5 q62 -80 163 -80q118 0 180.5 113.5t62.5 327.5q0 217 -60 324q-25 44 -70.5 70.5t-99.5 28.5q-56 0 -108 -27.5t-83 -74.5q-36 -53 -50 -126t-14 -206z" />
<glyph unicode="&#xff;" horiz-adv-x="893" d="M-27 1066h243q6 -35 15 -59l250 -719l295 719q12 31 17 59h127q-19 -32 -30 -59l-524 -1267q-12 -28 -18 -59h-130q21 36 31 59l115 260l-365 1007q-7 21 -26 59zM97 1307q0 44 36 70t97 27q59 0 93.5 -25.5t34.5 -69.5q0 -46 -35 -72.5t-94 -26.5q-62 0 -97 26t-35 71z M535 1309q0 44 36 70.5t96 26.5t94.5 -25.5t34.5 -69.5q0 -46 -34.5 -72.5t-94.5 -26.5q-61 0 -96.5 26t-35.5 71z" />
<glyph unicode="&#x152;" horiz-adv-x="1815" d="M82 650q0 329 183 530q187 205 496 205l310 -20h645v-112q-30 11 -69 11h-402v-520h391q48 1 81 10v-112q-29 6 -80 6h-392v-538h397q32 0 75 10v-120h-686q-43 -1 -203 -15q-59 -5 -103 -5q-302 0 -488 210q-155 175 -155 460zM326 680q0 -300 125 -454 q113 -140 320 -140q115 0 182 54q37 31 50.5 60.5t13.5 81.5v802q0 93 -66 141q-74 54 -191 54q-184 0 -295 -134q-139 -168 -139 -465z" />
<glyph unicode="&#x153;" horiz-adv-x="1837" d="M81 546q0 241 128 392q128 153 350 153q123 0 209 -43.5t173 -148.5q156 192 381 192q205 0 322 -135.5t126 -384.5h-725q1 -174 38 -280q74 -209 305 -209q156 0 300 124l32 -135q-101 -50 -178.5 -70t-175.5 -20q-134 0 -236 46.5t-190 146.5q-85 -103 -172.5 -148 t-202.5 -45q-228 0 -354 154q-130 158 -130 411zM300 532q0 -218 80 -352q30 -50 80.5 -80t105.5 -30q54 0 104.5 30t80.5 80q80 133 80 357q0 226 -80 356q-64 105 -182 109q-58 0 -109 -29.5t-81 -81.5q-79 -131 -79 -359zM1051 665h496q-7 91 -25 148q-26 85 -89 137 q-53 43 -126 43q-106 0 -173 -86t-83 -242z" />
<glyph unicode="&#x178;" horiz-adv-x="916" d="M-42 1365h265q2 -20 20 -59l278 -566l289 569q12 24 19 56h129q-15 -21 -31 -51l-357 -713v-535q0 -37 9 -66h-246q9 30 9 66v532l-352 712q-17 35 -32 55zM109 1572q0 44 36 70.5t96 26.5t94.5 -25.5t34.5 -69.5q0 -46 -35 -72.5t-94 -26.5q-62 0 -97 26t-35 71z M547 1574q0 44 36 70.5t96 26.5t94.5 -25.5t34.5 -69.5q0 -46 -34.5 -72.5t-94.5 -26.5q-62 0 -97 26t-35 71z" />
<glyph unicode="&#x2c6;" horiz-adv-x="1024" d="M217 1189l234 311h134l221 -311h-153l-136 224l-145 -224h-155z" />
<glyph unicode="&#x2dc;" horiz-adv-x="1024" d="M232 1258v150q80 35 149 35q60 0 262 -47q32 -8 64 -8q43 0 84 35v-148q-54 -28 -96 -28q-38 0 -185 38q-75 19 -139 19q-68 0 -139 -46z" />
<glyph unicode="&#x2000;" horiz-adv-x="907" />
<glyph unicode="&#x2001;" horiz-adv-x="1814" />
<glyph unicode="&#x2002;" horiz-adv-x="907" />
<glyph unicode="&#x2003;" horiz-adv-x="1814" />
<glyph unicode="&#x2004;" horiz-adv-x="604" />
<glyph unicode="&#x2005;" horiz-adv-x="453" />
<glyph unicode="&#x2006;" horiz-adv-x="302" />
<glyph unicode="&#x2007;" horiz-adv-x="302" />
<glyph unicode="&#x2008;" horiz-adv-x="226" />
<glyph unicode="&#x2009;" horiz-adv-x="362" />
<glyph unicode="&#x200a;" horiz-adv-x="100" />
<glyph unicode="&#x2010;" horiz-adv-x="483" d="M0 477l47 161h436l-45 -161h-438z" />
<glyph unicode="&#x2011;" horiz-adv-x="483" d="M0 477l47 161h436l-45 -161h-438z" />
<glyph unicode="&#x2012;" horiz-adv-x="483" d="M0 477l47 161h436l-45 -161h-438z" />
<glyph unicode="&#x2013;" horiz-adv-x="1143" d="M128 477l47 161h840l-46 -161h-841z" />
<glyph unicode="&#x2014;" horiz-adv-x="1449" d="M0 477l47 161h1402l-45 -161h-1404z" />
<glyph unicode="&#x2018;" horiz-adv-x="538" d="M85 990l220 402l132 -56l-175 -420z" />
<glyph unicode="&#x2019;" horiz-adv-x="538" d="M85 973l175 419l177 -74l-220 -402z" />
<glyph unicode="&#x201a;" horiz-adv-x="538" d="M85 -187l175 420l177 -74l-220 -402z" />
<glyph unicode="&#x201c;" horiz-adv-x="847" d="M100 990l220 402l132 -56l-175 -420zM409 990l220 402l133 -56l-176 -420z" />
<glyph unicode="&#x201d;" horiz-adv-x="847" d="M85 973l175 419l177 -74l-220 -402zM394 973l175 419l178 -74l-221 -402z" />
<glyph unicode="&#x201e;" horiz-adv-x="847" d="M85 -187l175 420l177 -74l-220 -402zM394 -187l175 420l178 -74l-221 -402z" />
<glyph unicode="&#x2022;" horiz-adv-x="1365" d="M401 693q0 121 84 202q84 83 204 83q113 0 196 -83q84 -83 84 -201t-84 -201q-82 -83 -200 -83t-200 83q-84 83 -84 200z" />
<glyph unicode="&#x2026;" horiz-adv-x="1606" d="M131 106q0 50 38.5 83t97.5 34q60 0 99 -33.5t39 -85.5q0 -51 -39 -84.5t-98 -33.5q-60 0 -98.5 33.5t-38.5 86.5zM666 106q0 50 38.5 83t97.5 34q60 0 99 -33.5t39 -85.5q0 -51 -39 -84.5t-98 -33.5q-60 0 -98.5 34t-38.5 86zM1202 106q0 50 38.5 83t97.5 34 q61 0 99.5 -33.5t38.5 -85.5q0 -51 -38.5 -84.5t-98.5 -33.5t-98.5 33.5t-38.5 86.5z" />
<glyph unicode="&#x202f;" horiz-adv-x="362" />
<glyph unicode="&#x2039;" horiz-adv-x="544" d="M92 567l212 403h157l-216 -403l216 -401h-157z" />
<glyph unicode="&#x203a;" horiz-adv-x="544" d="M83 166l216 401l-216 403h157l212 -403l-212 -401h-157z" />
<glyph unicode="&#x205f;" horiz-adv-x="453" />
<glyph unicode="&#x2122;" horiz-adv-x="1736" d="M-13 1274v91h649v-91q-37 7 -63 7h-178v-688q0 -23 8 -47h-181q8 24 8 47v688h-179q-28 0 -64 -7zM670 546q12 31 14 47l124 731q1 5 1 10q0 6 -2 31h152q0 -22 5 -36l221 -602l224 605q4 11 4 20q0 5 -1 13h153q-2 -20 -2 -26q0 -4 1 -9l114 -739q3 -15 15 -45h-182 q4 15 4 26q0 9 -1 14l-85 564l-208 -564q-6 -16 -6 -26q0 -6 1 -14h-143q1 8 1 14q0 9 -5 21l-206 557l-94 -550q0 -14 3 -42h-102z" />
<glyph unicode="&#x25fc;" horiz-adv-x="1065" d="M0 0v1065h1065v-1065h-1065z" />
</font>
</defs>
</svg>
