<?xml version="1.0" standalone="no"?>
<!DOCTYPE svg PUBLIC "-//W3C//DTD SVG 1.1//EN" "http://www.w3.org/Graphics/SVG/1.1/DTD/svg11.dtd" >
<svg xmlns="http://www.w3.org/2000/svg" xmlns:xlink="http://www.w3.org/1999/xlink" version="1.1">
<metadata></metadata>
<defs>
<font id="impress_btregular" horiz-adv-x="1024" >
<font-face units-per-em="2048" ascent="1638" descent="-410" />
<missing-glyph horiz-adv-x="659" />
<glyph horiz-adv-x="0" />
<glyph unicode="&#xd;" horiz-adv-x="659" />
<glyph unicode=" "  horiz-adv-x="659" />
<glyph unicode="&#x09;" horiz-adv-x="659" />
<glyph unicode="&#xa0;" horiz-adv-x="659" />
<glyph unicode="!" horiz-adv-x="688" d="M160 127q0 82 53 138.5t135 56.5q83 0 135 -46t52 -118q0 -74 -56 -135.5t-121 -61.5q-81 0 -139.5 48t-58.5 118zM160 1384v5q0 22 13.5 32.5t43.5 10.5l238 2q16 0 28.5 -10t12.5 -21q0 -15 -9 -89q-43 -387 -43 -755q0 -31 1 -64.5t1 -35.5q0 -32 -7.5 -45t-24.5 -13 l-158 -4q-1 0 -2 -1t-2 -1q-30 1 -34 59q0 11 -1 19z" />
<glyph unicode="&#x22;" horiz-adv-x="643" d="M86 879v557h164v-557h-164zM395 879v557h164v-557h-164z" />
<glyph unicode="#" horiz-adv-x="1575" d="M70 428l61 172h297l90 252h-315l61 172h316l155 436h191l-154 -436h250l156 436h190l-154 -436h291l-59 -172h-293l-90 -252h309l-61 -172h-307l-156 -434h-191l156 434h-252l-158 -434h-190l156 434h-299zM618 598h256l91 254h-256z" />
<glyph unicode="$" horiz-adv-x="858" d="M86 600q0 15 31 26t73 11q48 0 66.5 -10t30.5 -41q22 -61 53.5 -86t81.5 -25q53 0 80.5 24.5t27.5 69.5q0 73 -132 110q-25 7 -40 11q-116 34 -174.5 99.5t-58.5 160.5q0 108 67.5 184t188.5 105l14 137q3 30 22 43t62 13q38 0 54 -21.5t18 -73.5l2 -100 q85 -39 147 -133.5t62 -175.5q0 -24 -18.5 -41t-43.5 -17q-67 0 -102 91l-12 30q-21 49 -54 72.5t-79 23.5q-54 0 -83.5 -36.5t-29.5 -102.5q0 -47 41.5 -82t146.5 -73q135 -49 183.5 -102t48.5 -140q0 -78 -60.5 -142.5t-164.5 -97.5l-9 -133q-1 -29 -16 -45t-41 -16 q-64 0 -83 14.5t-19 65.5v16l4 113q-109 0 -197 92.5t-88 181.5z" />
<glyph unicode="%" horiz-adv-x="1753" d="M57 1063q0 159 82.5 280t190.5 121q36 0 75.5 -19.5t45.5 -19.5q13 0 47 28t57 28q51 0 99 -54q10 -12 16 -18q37 -36 84 -55t100 -19q62 0 148.5 24t144.5 56q27 16 80.5 55t77.5 39q20 0 35.5 -15.5t15.5 -35.5t-35 -83q-6 -11 -8 -15l-815 -1464q-8 -13 -15.5 -19 t-15.5 -6q-26 0 -77.5 33.5t-51.5 50.5q0 5 3 12.5t8 15.5l779 1311q-91 -39 -171.5 -58t-153.5 -19h-21q-8 0 -18.5 0.5t-21.5 0.5q9 -27 13.5 -52t4.5 -52q0 -178 -98 -284.5t-267 -106.5q-160 0 -249 89.5t-89 250.5zM254 967q0 -77 32.5 -117.5t92.5 -40.5 q79 0 126.5 94t47.5 252q0 21 -4 79v7q-41 5 -53.5 18.5t-12.5 51.5q-19 11 -31.5 15.5t-23.5 4.5q-66 0 -120 -112t-54 -252zM1004 274q0 178 87.5 303t202.5 125q35 0 119.5 -25t159.5 -61q54 -25 85.5 -102t31.5 -184q0 -178 -98.5 -282.5t-266.5 -104.5 q-151 0 -236 87.5t-85 243.5zM1204 190q0 -74 30.5 -113.5t86.5 -39.5q78 0 127 100.5t49 263.5q0 82 -30 126t-85 44q-78 0 -128 -106.5t-50 -274.5z" />
<glyph unicode="&#x26;" horiz-adv-x="1595" d="M59 313q0 121 83.5 238t250.5 231q-67 94 -98 170.5t-31 149.5q0 156 98 258t250 102q164 0 270.5 -93t106.5 -236q0 -95 -49 -182t-201 -234q77 -106 147.5 -187t145.5 -151q69 82 90 288q2 16 2 23q4 34 24 49t73 17l321 6q23 0 34 -21.5t11 -66.5q0 -121 -97 -130 q-55 -5 -89 -16q-47 -14 -55 -67q-2 -16 -5 -25q-8 -37 -37 -94t-73 -125l176 -184q6 -6 9 -12.5t3 -12.5q0 -20 -15.5 -29.5t-47.5 -9.5h-19q-24 0 -66.5 -7t-60.5 -7q-17 0 -35 5.5t-28 14.5l-68 56q-10 7 -20.5 11.5t-18.5 4.5q-13 0 -69 -25q-215 -96 -414 -96 q-226 0 -362 106t-136 281zM358 307q0 -75 48 -109t153 -34q71 0 140.5 16t140.5 49q-82 74 -157 155.5t-144 170.5q-91 -58 -136 -120t-45 -128zM537 1145q0 -51 16.5 -104.5t50.5 -110.5q63 46 100 112t37 127q0 56 -22.5 81.5t-71.5 25.5q-52 0 -81 -34.5t-29 -96.5z" />
<glyph unicode="'" horiz-adv-x="334" d="M86 879v557h164v-557h-164z" />
<glyph unicode="(" horiz-adv-x="758" d="M162 539q0 198 32 374t99 342q8 21 21 55q58 150 128 150q43 0 88 -21t45 -40q0 -33 -63 -219l-8 -25q-45 -136 -66.5 -271t-21.5 -280q0 -190 37 -362.5t112 -337.5q34 -75 87 -148.5t53 -87.5q0 -37 -71 -91t-110 -54q-32 0 -90 76t-119 200q-77 163 -115 346t-38 394z " />
<glyph unicode=")" horiz-adv-x="758" d="M53 -332q0 19 44.5 78t68.5 104q89 173 132.5 360t43.5 394q0 145 -21.5 280t-66.5 271q-3 9 -9 26q-63 185 -63 218q0 19 45 40t88 21q70 0 129 -151q13 -34 21 -54q66 -166 98.5 -342t32.5 -374q0 -211 -38 -394t-116 -346q-60 -124 -118 -200t-91 -76q-39 0 -109.5 54 t-70.5 91z" />
<glyph unicode="*" d="M160 1130q0 37 33.5 90.5t58.5 53.5q11 0 79 -59t136 -103q-12 80 -31.5 161.5t-19.5 86.5q0 21 23 31t75 10q51 0 73.5 -10t22.5 -31q0 -5 -19 -85.5t-29 -159.5q53 47 118 111t76 64q28 0 65 -53.5t37 -91.5q0 -24 -89 -52q-101 -31 -175 -63q67 -21 162 -45 q108 -27 108 -57q0 -37 -33.5 -91.5t-58.5 -54.5q-13 0 -84.5 64t-138.5 112q41 -144 55 -197.5t14 -62.5q0 -21 -28.5 -31t-89.5 -10q-37 0 -55.5 9.5t-18.5 27.5q0 8 16 92.5t25 163.5q-55 -49 -121 -115.5t-78 -66.5q-27 0 -64.5 53t-37.5 90q0 24 93.5 55.5t168.5 69.5 q-54 14 -134 31q-134 29 -134 63z" />
<glyph unicode="+" horiz-adv-x="1706" d="M254 528v166h514v527h170v-527h514v-166h-514v-528h-170v528h-514z" />
<glyph unicode="," horiz-adv-x="639" d="M182 -137q0 13 2 30t2 19l27 315q4 52 24 67t66 15q86 0 124 -13.5t38 -45.5q0 -10 -2 -27.5t-8 -64.5l-43 -275q-10 -64 -22.5 -77t-53.5 -13q-93 0 -123.5 13.5t-30.5 56.5z" />
<glyph unicode="-" horiz-adv-x="815" d="M106 440l3 123q0 19 11 27t48 8l487 -4q25 0 39.5 -13.5t14.5 -37.5l2 -101q0 -38 -11 -51.5t-36 -13.5h-5l-503 14q-29 2 -39.5 12.5t-10.5 36.5z" />
<glyph unicode="." horiz-adv-x="639" d="M139 135q0 78 49.5 128t126.5 50q85 0 136 -46t51 -124q0 -73 -51.5 -119.5t-133.5 -46.5q-79 0 -128.5 44t-49.5 114z" />
<glyph unicode="/" horiz-adv-x="758" d="M-59 -164q0 9 1 13.5t3 9.5l618 1560q5 13 20 23t29 10h127q7 0 13 -3t6 -5l-13 -31l-616 -1567q-6 -14 -20.5 -25t-24.5 -11h-125q-7 0 -12.5 8t-5.5 18z" />
<glyph unicode="0" horiz-adv-x="1280" d="M66 711q0 189 52.5 345.5t151.5 264.5q59 65 127.5 91t190.5 26q137 0 233 -29.5t160 -89.5q112 -106 172.5 -267.5t60.5 -353.5q0 -325 -157.5 -531t-403.5 -206q-273 0 -430 199.5t-157 550.5zM365 608q0 -215 74 -343t196 -128q135 0 221 169t86 439q0 239 -70.5 382 t-185.5 143q-153 0 -237 -173t-84 -489z" />
<glyph unicode="1" horiz-adv-x="659" d="M57 1274q0 39 19 53t78 27l297 57q2 0 6 1t6 1q24 0 40.5 -18.5t16.5 -44.5q0 -1 -1 -17t-1 -30q0 -3 -1.5 -24.5t-2.5 -39.5l-8 -176q-5 -85 -7.5 -174.5t-2.5 -183.5q0 -119 4 -303q1 -45 2 -66l10 -268v-11q0 -35 -14 -49t-47 -14h-156q-45 0 -58.5 14.5t-13.5 57.5 l-16 1026q0 27 -8.5 39.5t-32.5 21.5l-60 23q-24 9 -36.5 34t-12.5 64z" />
<glyph unicode="2" horiz-adv-x="1247" d="M76 688q0 94 23 195t69 209q82 192 180.5 265t265.5 73q274 0 424 -98.5t150 -278.5q0 -175 -129.5 -384t-378.5 -433l475 -25q33 -2 43 -16t10 -66q0 -79 -23.5 -113t-80.5 -34q-8 0 -38 1t-52 1l-213 -2q-25 0 -71.5 1t-70.5 1q-145 0 -306 -14.5t-175 -14.5 q-47 0 -62.5 26t-15.5 101q0 38 8 57t27 33q3 2 29 14q132 61 256 140q91 56 168 132.5t137 170.5q80 124 123 230.5t43 180.5q0 86 -54.5 139.5t-142.5 53.5q-122 0 -211.5 -105.5t-154.5 -326.5q-9 -29 -15 -81q-14 -110 -120 -110q-67 0 -92 16.5t-25 61.5z" />
<glyph unicode="3" horiz-adv-x="1290" d="M61 406q0 59 29 77.5t123 18.5q71 0 100 -15.5t29 -54.5v-22q0 -133 65.5 -217t165.5 -84q107 0 216.5 97t109.5 185q0 55 -61.5 88.5t-175.5 40.5q-13 1 -34 2q-102 6 -102 115q0 33 73 62q44 17 69 30q118 65 195 172t77 193q0 70 -39 109.5t-108 39.5 q-110 0 -207.5 -73t-192.5 -226q-14 -22 -32 -66q-33 -81 -78 -81q-105 0 -147 16t-42 55q0 16 26 89q8 24 13 38q34 97 63 156t64 106q67 90 151.5 133.5t192.5 43.5q284 0 463.5 -107.5t179.5 -277.5q0 -109 -70 -202.5t-219 -182.5q120 -34 185 -110.5t65 -182.5 q0 -182 -162.5 -307t-406.5 -125q-237 0 -407.5 140.5t-170.5 326.5z" />
<glyph unicode="4" horiz-adv-x="1251" d="M12 418q0 78 428 658l41 57l19 25q167 229 200 247q15 7 85 11.5t171 4.5q47 0 66.5 -14.5t19.5 -52.5q0 -9 -2 -34t-2 -40l-2 -723q0 -27 10.5 -39t32.5 -12h111q18 0 32.5 -17.5t14.5 -39.5l-2 -86q-2 -40 -15.5 -56t-43.5 -16h-136q-14 0 -19 -7t-5 -32v-207 q0 -53 -18.5 -67.5t-65.5 -14.5h-45q-95 0 -116 11.5t-21 52.5v223q0 24 -8 29.5t-35 5.5l-584 -2q-62 0 -86.5 30.5t-24.5 104.5zM348 524q0 -9 10.5 -14.5t28.5 -5.5l387 2l-10 653q-185 -236 -300.5 -414t-115.5 -221z" />
<glyph unicode="5" horiz-adv-x="1233" d="M63 403q0 28 24 38t89 10h21q110 0 131 -13.5t39 -99.5q24 -112 72.5 -163.5t129.5 -51.5q122 0 224 109t102 237q0 83 -60 128.5t-169 45.5q-95 0 -194 -43t-120 -43q-59 0 -131 10t-99 19q-10 4 -15 24.5t-5 69.5v61l15 591q1 45 15 59t56 14h107q182 0 420.5 -10.5 t292.5 -10.5h59q58 0 78 -14.5t20 -58.5q0 -79 -17 -126.5t-44 -47.5q-3 0 -18 2q-157 28 -375 28q-100 0 -181.5 -6t-93.5 -12q-35 -15 -36 -69q0 -11 -1 -17l-8 -207v-22q0 -18 5 -22.5t26 -4.5q14 0 79.5 7t114.5 7q260 0 413 -108t153 -287q0 -199 -154 -334t-389 -135 q-143 0 -258 48t-197 142q-55 64 -88 134.5t-33 121.5z" />
<glyph unicode="6" horiz-adv-x="1255" d="M70 598q0 404 143 622t410 218q225 0 398 -153.5t173 -338.5q0 -54 -19.5 -74t-84.5 -20h-84q-70 0 -80 85q-3 21 -4 31q-18 123 -84 194t-160 71q-67 0 -122 -43t-101 -131q-38 -73 -64 -157.5t-26 -115.5q0 -17 10 -31t22 -14q6 0 120.5 28t219.5 28q203 0 329 -113.5 t126 -292.5q0 -199 -143 -329t-367 -130q-309 0 -460.5 165t-151.5 501zM371 430q0 -143 75.5 -247.5t174.5 -104.5q106 0 188 103.5t82 228.5q0 86 -52 133t-149 47q-179 0 -249 -33.5t-70 -126.5z" />
<glyph unicode="7" horiz-adv-x="997" d="M8 1307q0 48 16 67t58 19q6 0 20 -1t23 -1l770 2q30 0 42 -8.5t19 -32.5l31 -111q2 -6 3 -13.5t1 -15.5q0 -15 -12 -45q-3 -7 -4 -10l-465 -1106q-4 -9 -9 -23q-20 -51 -73 -51h-158q-29 1 -35.5 5t-7.5 16q0 4 1.5 10t4.5 16l422 1073q5 13 8 23t3 15q0 11 -12 15.5 t-52 4.5h-45q-39 0 -133.5 6t-149.5 6q-61 0 -127 -8t-71 -8q-41 0 -54.5 24.5t-13.5 131.5z" />
<glyph unicode="8" horiz-adv-x="1313" d="M70 393q0 111 60 195.5t177 138.5q-97 55 -146.5 134t-49.5 177q0 166 130.5 295t295.5 129q44 0 163 -23.5t234 -60.5q143 -47 222 -138t79 -210q0 -107 -62 -192t-180 -140q121 -59 188.5 -154t67.5 -204q0 -165 -165 -289.5t-398 -124.5q-272 0 -444 130.5t-172 336.5 zM395 367q0 -126 69 -193.5t198 -67.5q131 0 205.5 70.5t74.5 194.5q0 116 -71 183t-195 67q-136 0 -208.5 -65.5t-72.5 -188.5zM424 1010q0 -102 62 -159.5t169 -57.5q114 0 191.5 76.5t77.5 187.5q0 100 -61.5 162.5t-160.5 62.5q-123 0 -200.5 -75t-77.5 -197z" />
<glyph unicode="9" horiz-adv-x="1319" d="M86 924q0 218 151 356.5t390 138.5q288 0 453 -195.5t165 -539.5q0 -158 -46 -303.5t-132 -259.5q-62 -83 -161 -125.5t-228 -42.5q-122 0 -222 29t-177 88q-78 58 -123 126t-45 121q0 19 17.5 32t41.5 13t56.5 -2t39.5 -2q114 0 137 -69q2 -5 3 -8q27 -79 84.5 -122.5 t134.5 -43.5q133 0 216.5 131t86.5 349q-101 -70 -207.5 -107t-210.5 -37q-189 0 -306.5 131t-117.5 342zM395 852q0 -94 44.5 -141t131.5 -47q61 0 132.5 18.5t123.5 48.5q53 30 74 63.5t21 88.5q0 144 -70.5 245t-169.5 101q-125 0 -206 -107t-81 -270z" />
<glyph unicode=":" horiz-adv-x="688" d="M164 135q0 78 49 128t127 50q84 0 135 -46t51 -124q0 -73 -51 -119.5t-133 -46.5q-80 0 -129 44t-49 114zM190 805q0 73 52.5 119.5t134.5 46.5q80 0 129 -43.5t49 -114.5q0 -78 -49 -128t-127 -50q-85 0 -137 46.5t-52 123.5z" />
<glyph unicode=";" horiz-adv-x="688" d="M188 -90q0 12 2.5 25t2.5 16l26 270q4 44 24.5 57t69.5 13q88 0 123 -11.5t35 -39.5q0 -11 -2 -27t-8 -51l-43 -236q-9 -51 -20.5 -64.5t-51.5 -13.5q-97 0 -127.5 12t-30.5 50zM207 825q0 73 51 118.5t133 45.5q80 0 129 -42.5t49 -112.5q0 -78 -49 -128.5t-127 -50.5 q-84 0 -135 46.5t-51 123.5z" />
<glyph unicode="&#x3c;" horiz-adv-x="1706" d="M264 530v160l1178 486v-185l-934 -381l934 -381v-182z" />
<glyph unicode="=" horiz-adv-x="1706" d="M254 322v165h1198v-165h-1198zM254 733v168h1198v-168h-1198z" />
<glyph unicode="&#x3e;" horiz-adv-x="1706" d="M264 47v182l934 381l-934 381v185l1178 -486v-160z" />
<glyph unicode="?" horiz-adv-x="1229" d="M53 879q0 38 46 136.5t118 209.5q74 112 171 176.5t190 64.5q78 0 196 -33t211 -83q70 -39 112 -113.5t42 -161.5q0 -121 -162 -349q-78 -109 -117 -173q-31 -51 -57 -119q-24 -63 -68 -63h-2h-2l-151 2q-13 0 -21 8.5t-8 21.5q0 8 1 12.5t3 8.5l127 287q14 31 41 88 q98 206 98 299q0 83 -36 129.5t-101 46.5q-63 0 -133.5 -51t-140.5 -148q-64 -90 -93 -170l-2 -4q-11 -29 -24.5 -36t-48.5 -7h-154q-16 0 -25.5 5.5t-9.5 15.5zM438 102q0 77 58 134t135 57q66 0 107.5 -45.5t41.5 -120.5q0 -71 -49 -122.5t-119 -51.5q-79 0 -126.5 41 t-47.5 108z" />
<glyph unicode="@" horiz-adv-x="2048" d="M98 522q0 165 52 313.5t153 272.5q147 179 353.5 272t459.5 93q166 0 315 -45.5t255 -127.5q132 -102 198 -235.5t66 -300.5q0 -162 -65 -302t-185 -237q-69 -55 -150 -83.5t-168 -28.5q-106 0 -157 40.5t-51 125.5v4q-55 -87 -128 -127.5t-176 -40.5q-152 0 -232.5 86.5 t-80.5 249.5q0 233 138 395t333 162q89 0 149 -34.5t99 -107.5l55 107h154l-148 -586q-1 -5 -2 -12q-6 -27 -6 -37q0 -38 26.5 -61t69.5 -23q51 0 107.5 30.5t105.5 84.5q72 76 110 177.5t38 215.5q0 253 -187 411t-489 158q-138 0 -256 -31t-215 -94q-181 -113 -279 -291 t-98 -395q0 -312 209.5 -499t558.5 -187q166 0 323.5 49t291.5 142l67 -99q-149 -113 -318.5 -170t-355.5 -57q-192 0 -351 48t-281 142q-155 118 -231.5 275.5t-76.5 357.5zM741 444q0 -98 45.5 -151t128.5 -53q90 0 163.5 66.5t99.5 172.5l55 228q-14 84 -61.5 130 t-122.5 46q-127 0 -217.5 -128.5t-90.5 -310.5z" />
<glyph unicode="A" horiz-adv-x="1155" d="M0 12q0 6 1.5 14t4.5 19l406 1346q11 36 27.5 49.5t47.5 13.5l242 -6q48 -2 58.5 -11t21.5 -57l317 -1326q3 -14 3.5 -19.5t0.5 -9.5q0 -20 -8.5 -30.5t-25.5 -10.5l-195 2q-23 0 -35 9.5t-18 33.5l-53 196q-14 46 -46 66t-94 20h-10l-236 -6q-48 -2 -70.5 -17.5 t-35.5 -54.5l-65 -194q-3 -7 -6 -18q-13 -41 -48 -41h-133q-27 0 -39 7.5t-12 24.5zM403 551q0 -13 12 -23t27 -10l258 -4q11 0 20 7.5t9 17.5q0 5 -3 19q-1 4 -1 5l-145 582l-168 -546q-4 -14 -6.5 -26.5t-2.5 -21.5z" />
<glyph unicode="B" horiz-adv-x="1208" d="M109 1292q0 60 95 86.5t318 26.5q278 0 453.5 -119t175.5 -299q0 -111 -77.5 -192.5t-235.5 -137.5q158 -29 239.5 -101t81.5 -183q0 -194 -222.5 -315t-588.5 -121q-143 0 -189 17t-46 62q0 6 2 37q16 184 16 371v37l-6 674q0 51 -8 102.5t-8 54.5zM408 201 q0 -34 12.5 -45t44.5 -11q48 0 131 24.5t139 57.5q54 32 84.5 75.5t30.5 88.5q0 71 -79.5 107.5t-235.5 36.5h-72q-30 0 -41.5 -13.5t-11.5 -50.5l-2 -223v-47zM414 836q0 -37 14.5 -55.5t42.5 -18.5q31 0 108 22t156 58q76 33 115 77t39 97q0 85 -92 139.5t-240 54.5 q-94 0 -113 -26.5t-24 -171.5l-6 -168v-8z" />
<glyph unicode="C" horiz-adv-x="1247" d="M74 604q0 356 131.5 597t318.5 241q164 0 310 -38.5t202 -92.5q54 -54 93.5 -190t39.5 -283q0 -38 -16.5 -57.5t-48.5 -20.5l-96 -4h-17q-46 0 -58 93q-4 33 -7 54q-26 168 -90 264.5t-150 96.5q-121 0 -215 -193t-94 -471q0 -259 53 -374t170 -115q74 0 150.5 51.5 t160.5 159.5q27 34 54 84q29 57 71 57h121q27 0 39 -9.5t12 -29.5q0 -53 -54.5 -149.5t-143.5 -198.5q-58 -65 -125 -94t-162 -29q-325 0 -487 162.5t-162 488.5z" />
<glyph unicode="D" horiz-adv-x="1255" d="M104 1341q0 54 67 77.5t226 23.5q369 0 583 -190t214 -517q0 -368 -187 -592.5t-493 -224.5q-97 0 -243 28q-34 6 -50 9q-15 2 -40 5q-60 8 -60 24q0 3 5 62t5 114v821v6q0 152 -22 314q-4 33 -5 40zM403 360q0 -4 1 -21q2 -64 2 -122q0 -77 13 -102t50 -25 q192 0 328.5 189t136.5 481q0 234 -92 354.5t-271 120.5q-85 0 -123 -24t-38 -78q0 -9 -3.5 -164.5t-3.5 -302.5v-306z" />
<glyph unicode="E" horiz-adv-x="1090" d="M117 111q0 31 12 255t12 416q0 287 -16 529q-2 28 -2 32q0 40 18 53t68 13q4 0 26 -1q215 -13 482 -13q123 0 234 3q18 1 22 1q46 0 61 -14.5t15 -86.5q0 -98 -179 -105q-24 -1 -36 -1l-305 -10q-82 -4 -98.5 -16.5t-16.5 -80.5v-10l-2 -250v-8q0 -22 4.5 -26t27.5 -5h13 l370 2q33 0 67 2q8 1 9 1q37 0 45 -21.5t8 -93.5q0 -115 -167 -123q-32 -1 -52 -2l-274 -14q-32 -2 -48 -14t-16 -36l2 -237q0 -37 9.5 -47t50.5 -10h274q63 0 123 3q10 1 12 1q39 0 55.5 -15.5t16.5 -52.5q0 -100 -40.5 -127t-203.5 -27h-45l-448 2q-46 0 -67 32t-21 102z " />
<glyph unicode="F" horiz-adv-x="1063" d="M117 1331v6q0 50 23 70t81 20l729 -6q67 0 87 -13t22 -49l4 -75v-14q-1 -92 -157 -94h-11l-375 -5q-52 0 -69 -12.5t-19 -46.5l-6 -307v-14q0 -35 11 -45.5t59 -10.5l440 6q41 0 55.5 -19.5t14.5 -74.5v-10q0 -84 -23.5 -104.5t-85.5 -20.5h-160q-92 0 -176.5 -15.5 t-140.5 -41.5l2 -385v-29q0 -36 -10.5 -48t-36.5 -13l-193 -11h-4q-19 0 -29 14.5t-10 43.5z" />
<glyph unicode="G" horiz-adv-x="1305" d="M96 743q0 312 111 506.5t287 194.5q145 0 290.5 -41t225.5 -103q77 -60 125.5 -176.5t48.5 -234.5q0 -35 -14 -50.5t-54 -15.5h-18h-113q-61 0 -80 118q-4 23 -6 34q-28 144 -81.5 213t-137.5 69q-127 0 -210 -175t-83 -457q0 -250 57.5 -389.5t159.5 -139.5 q82 0 183.5 116.5t146.5 274.5l-152 -8h-14q-50 0 -68 23t-18 90q0 58 14.5 79t58.5 23l435 25h4q20 0 29.5 -18t9.5 -56q0 -98 -33.5 -218.5t-85.5 -207.5q-76 -125 -184.5 -193.5t-229.5 -68.5q-46 0 -118.5 14.5t-161.5 42.5q-62 20 -107 44t-71 53q-60 61 -103 240 t-43 392z" />
<glyph unicode="H" horiz-adv-x="1305" d="M94 1413q0 21 59.5 31t186.5 10q64 0 80 -10t16 -47q0 -14 -7 -131t-7 -219v-33l2 -162q0 -26 6.5 -33.5t22.5 -7.5h215q144 0 184.5 9t40.5 34v8q-2 40 -2 82v281q0 39 -2 78.5t-2 42.5q0 41 14 56t57 15h37q12 0 50 1t65 1q56 0 70 -7.5t14 -33.5q0 -4 -3 -27 q-30 -236 -30 -558v-756q0 -18 -21 -27.5t-61 -9.5h-151q-24 0 -32.5 11t-8.5 57l-4 446q0 29 -12 41t-42 12h-8l-341 -12q-33 -2 -42.5 -11t-9.5 -42l-4 -404q0 -66 -36.5 -83t-147.5 -17q-65 0 -87 15t-22 63q0 3 1 20.5t1 32.5q0 44 -1 103t-1 75v123l-2 551 q-1 171 -28 368q-7 52 -7 64z" />
<glyph unicode="I" horiz-adv-x="616" d="M141 1327q0 50 53 74t164 24q54 0 78.5 -14t24.5 -45q0 -4 -2 -26q-17 -187 -17 -410q0 -89 3.5 -274t3.5 -281q0 -32 -1.5 -96t-1.5 -95q0 -50 5 -106q2 -15 2 -19q0 -39 -20.5 -52t-90.5 -13q-138 0 -161 14t-23 86q0 34 4 151t4 201q0 453 -22 835q-3 40 -3 46z" />
<glyph unicode="J" horiz-adv-x="750" d="M2 162v28q0 37 8 54.5t25 17.5q6 0 42 -32.5t83 -32.5q102 0 146 64t44 216q0 256 -10 538t-10 306q0 50 25.5 64t105.5 14q108 0 136 -27.5t28 -148.5v-99q0 -97 -3.5 -333t-3.5 -375q0 -228 -81 -332t-256 -104q-78 0 -147.5 10t-92.5 22q-22 13 -30.5 39.5t-8.5 110.5 z" />
<glyph unicode="K" horiz-adv-x="1276" d="M121 1331q0 28 14.5 44t40.5 16q1 0 12 1t21 1l162 2h4q33 0 50 -20.5t17 -59.5q0 -25 -9 -93t-11 -110l-16 -340l333 354q38 40 97 108q163 185 307 185q64 0 96.5 -11t32.5 -34q0 -14 -25 -48.5t-67 -78.5l-512 -520l508 -621q2 -2 7 -8q21 -23 21 -39 q0 -26 -56.5 -49.5t-119.5 -23.5q-69 0 -176 124q-1 1 -2 3l-422 493l-14 -590q0 -28 -27 -42.5t-80 -14.5q-22 0 -58 2t-50 2q-40 0 -54 19t-14 98v14l-6 1196q0 8 -2 21.5t-2 19.5z" />
<glyph unicode="L" horiz-adv-x="911" d="M113 1290v35q0 67 22 83.5t98 16.5q119 0 158 -21t39 -79q0 -10 -5 -54q-24 -194 -24 -376v-25l7 -571q0 -42 25.5 -57t135.5 -15l236 2h16q37 0 48.5 -23t11.5 -79q0 -89 -17.5 -107t-111.5 -20l-523 -6q-50 0 -73 23t-25 76z" />
<glyph unicode="M" horiz-adv-x="1651" d="M115 23l6 1265v12q0 99 19 116.5t120 17.5q172 0 224.5 -24.5t82.5 -117.5l250 -764l283 732q33 86 54.5 114.5t57.5 28.5q12 0 18.5 -0.5t14.5 -1.5l262 -25l21 -1257v-27q0 -62 -27.5 -78t-116.5 -16h-16q-97 0 -99 120q-1 24 -1 38l-25 891q-73 -156 -129 -328 q-9 -26 -12 -35l-174 -493q-1 -3 -3 -10q-29 -83 -120 -83q-67 0 -94 17.5t-49 79.5l-306 839l9 -985q0 -66 -32.5 -81t-121.5 -15q-53 0 -74.5 16t-21.5 54z" />
<glyph unicode="N" horiz-adv-x="1262" d="M104 37q0 1 1 7q1 29 1 58l27 1250q0 37 62.5 52t214.5 15q74 0 93 -9t19 -54q0 -139 88 -347v-1l238 -570q3 -7 9 -11.5t13 -4.5q9 0 14 9.5t5 25.5l10 893q0 50 28 63.5t107 13.5q84 0 104.5 -7t20.5 -34q0 -8 -2 -30.5t-2 -36.5v-23v-18l-14 -266q-13 -222 -18 -371 t-5 -279v-331q0 -44 -43 -56t-160 -12q-44 0 -75 4.5t-56 14.5l-442 956l10 -879q0 -45 -20.5 -55t-108.5 -10q-79 0 -99 8t-20 35z" />
<glyph unicode="O" horiz-adv-x="1360" d="M61 680q0 156 40 304t108 251q68 104 161 153.5t224 49.5q321 0 511.5 -206.5t190.5 -559.5q0 -337 -152.5 -525t-426.5 -188q-300 0 -478 194t-178 527zM377 580q0 -215 78 -343t207 -128q142 0 231.5 169t89.5 445q0 238 -73 378t-193 140q-161 0 -250.5 -173 t-89.5 -488z" />
<glyph unicode="P" horiz-adv-x="1186" d="M94 1368q0 48 55.5 63t264.5 15q185 0 321 -34t230 -103q99 -74 154 -175t55 -210q0 -103 -47 -187.5t-138 -144.5q-84 -54 -196.5 -86.5t-219.5 -32.5h-55q-58 0 -78 -16.5t-20 -65.5v-31q0 -9 -1 -27.5t-1 -27.5v-276q0 -38 -29.5 -49t-101.5 -11h-41q-14 0 -31.5 -1 t-21.5 -1q-32 0 -48 14t-16 42q0 10 3 52t3 75l-8 681q-3 265 -29 501q-4 31 -4 36zM408 756q0 -57 13.5 -72.5t53.5 -15.5q167 0 271 84t104 219q0 119 -70.5 188.5t-191.5 69.5q-85 0 -131.5 -20.5t-46.5 -57.5z" />
<glyph unicode="Q" horiz-adv-x="1305" d="M63 680q0 361 145 557.5t410 196.5q298 0 458.5 -192.5t160.5 -547.5q0 -153 -38.5 -290.5t-104.5 -225.5q-19 -23 -54 -60q-49 -50 -49 -73q1 -2 10 -15q8 -11 13 -18l114 -163q6 -9 9 -16t4 -13q0 -9 -7 -18t-20 -15l-128 -61q-7 -3 -14.5 -5t-10.5 -2q-10 0 -24 19 q-5 7 -8 11l-153 218l-123 -6h-37q-259 0 -406 189t-147 530zM367 616q0 -226 73 -358.5t197 -132.5q148 0 237 164t89 446q0 240 -80 393.5t-201 153.5q-126 0 -220.5 -191.5t-94.5 -474.5z" />
<glyph unicode="R" horiz-adv-x="1305" d="M92 1376q0 35 39.5 46.5t157.5 11.5q441 0 668 -127.5t227 -374.5q0 -119 -61 -207.5t-187 -153.5l186 -301q42 -66 104 -145.5t62 -93.5q0 -28 -74 -31h-6l-198 -6q-25 0 -44 31q-5 8 -7 11l-140 183q-95 127 -153.5 171.5t-134.5 47.5l-87 4h-2q-23 0 -33 -38.5 t-10 -135.5q0 -13 1 -46t1 -52l5 -150v-14q0 -26 -8.5 -35.5t-28.5 -9.5l-156 -4q-5 0 -23 -1t-32 -1q-26 0 -34.5 7t-8.5 38q0 1 10 176.5t10 349.5q0 111 -3 257.5t-9 320.5q-4 115 -26 236q-5 29 -5 36zM418 1137l4 -418q0 -49 18 -61.5t72 -12.5q157 0 247.5 82 t90.5 223q0 128 -75.5 202.5t-207.5 74.5q-80 0 -114.5 -20.5t-34.5 -69.5z" />
<glyph unicode="S" horiz-adv-x="1223" d="M70 879q0 100 32.5 215.5t79.5 189.5q54 82 119.5 117t169.5 35q183 0 348 -48t221 -112q46 -51 71.5 -167t25.5 -280q0 -103 -20 -139.5t-73 -38.5l-79 -2h-9q-45 0 -66.5 19t-21.5 61q0 261 -56 389.5t-169 128.5q-100 0 -167.5 -114t-67.5 -291q0 -81 38.5 -122 t155.5 -73l365 -98q108 -29 164.5 -95.5t56.5 -164.5q0 -68 -38.5 -121t-148.5 -127q-83 -56 -183.5 -87.5t-196.5 -31.5q-101 0 -217 41t-201 107q-63 48 -97 113t-34 134q0 54 73.5 90.5t165.5 36.5q45 0 52 -63q4 -41 10 -68q28 -128 71.5 -189t106.5 -61q49 0 102.5 23 t106.5 68q46 38 72 75t26 64q0 32 -22 52t-82 38l-318 96q-195 59 -280.5 152.5t-85.5 247.5z" />
<glyph unicode="T" horiz-adv-x="948" d="M31 1315q0 40 11.5 55t53.5 21h11q159 12 342 12h73q28 0 89 1t94 1q141 0 172.5 -16t31.5 -107v-6q0 -81 -14.5 -105t-64.5 -26l-145 -8q-31 -2 -40.5 -17.5t-9.5 -60.5q0 -7 1 -35q3 -101 3 -190v-232l6 -598q0 -44 -12.5 -59t-61.5 -15q-148 0 -177.5 14t-30.5 86 l-3 196q-2 255 -9 461t-15 298q-3 29 -5 73q-2 70 -62 72l-159 3q-47 1 -63 38.5t-16 143.5z" />
<glyph unicode="U" horiz-adv-x="1327" d="M127 911q0 202 8 282t27 110q17 27 44.5 37t110.5 10q68 0 89.5 -19.5t21.5 -73.5q0 -10 -2 -40.5t-2 -53.5l-4 -456v-60q0 -284 36 -400t122 -116q70 0 138.5 63.5t117.5 174.5q37 86 53 202.5t16 315.5v80l-4 346q0 59 21 85.5t67 26.5q5 0 14.5 -1t14.5 -1h106 q48 0 65 -20t17 -76q0 -6 -1 -20t-1 -23l-10 -207q-8 -178 -12 -343t-4 -306v-225l-2 -158q0 -49 -31.5 -63.5t-124.5 -14.5q-55 0 -74.5 12t-23.5 46l-17 122q-70 -93 -144.5 -138.5t-158.5 -45.5q-106 0 -220.5 59t-166.5 144q-47 77 -66.5 236.5t-19.5 508.5z" />
<glyph unicode="V" horiz-adv-x="1186" d="M-4 1372q0 16 16 22.5t56 6.5h178q87 0 101 -70q5 -26 9 -43l240 -946l231 776q25 84 47.5 175t26.5 98q11 17 28 23.5t62 6.5h19l129 -2q25 0 35 -9t10 -30q0 -11 -6.5 -34t-18.5 -56l-426 -1255q-10 -34 -20.5 -41.5t-44.5 -7.5h-179q-35 0 -49 10t-26 55l-140 461 q-79 260 -178.5 548t-99.5 312z" />
<glyph unicode="W" horiz-adv-x="1784" d="M-14 1337q0 36 26 50t109 14q167 0 183 -118q1 -7 1 -9q59 -419 92.5 -606t65.5 -293q162 438 232 769q4 19 5 23q13 50 39.5 71.5t77.5 21.5l170 -5q82 -1 115 -193q4 -23 6 -36q38 -217 75 -375.5t83 -300.5q71 168 132 390t105 478q3 16 7 42q21 135 75 135 q6 0 13.5 -1.5t16.5 -4.5l134 -37q23 -6 32 -18t9 -36q0 -13 -3.5 -32t-10.5 -43l-275 -1035q-32 -119 -61 -161.5t-72 -42.5q-160 0 -223 26.5t-84 112.5l-191 827l-248 -867q-2 -8 -6 -23q-18 -68 -84 -68h-184q-48 0 -65.5 11.5t-22.5 39.5l-98 516q-32 169 -58 304 t-34 175q-22 102 -53 198.5t-31 100.5z" />
<glyph unicode="X" horiz-adv-x="1188" d="M-61 10q0 16 24 50q7 10 10 14l389 573q9 12 13 21t4 16q0 10 -19 44q-1 2 -2 3l-338 601q-2 4 -4 10t-2 10q0 11 8 16.5t23 5.5l250 -4q40 0 67 -44v-1l209 -375q8 -14 14.5 -20t12.5 -6t14.5 7t16.5 17l330 427q2 3 5 8q13 20 37 20h11l233 -8q12 0 20.5 -7t8.5 -16 q0 -6 -3.5 -14t-10.5 -18l-488 -656q-9 -13 -12.5 -22t-3.5 -19q0 -8 3 -18.5t9 -20.5l313 -552q2 -3 3 -8t1 -13q0 -16 -9.5 -25.5t-24.5 -9.5l-220 6q-25 0 -35 5.5t-24 29.5l-229 377l-299 -412q-2 -2 -6 -11q-11 -24 -35 -24q-13 0 -56.5 12.5t-78.5 12.5q-17 0 -44 -2 t-38 -2q-22 0 -34.5 6t-12.5 16z" />
<glyph unicode="Y" horiz-adv-x="1161" d="M-51 1364q0 16 47 25.5t127 9.5q43 0 65.5 -9.5t47.5 -46.5l333 -507l265 494q1 2 3 5q24 43 66 45l252 9q11 0 21 -8.5t10 -16.5q0 -5 -4.5 -15.5t-11.5 -22.5l-390 -669q-1 -2 -5 -9q-34 -57 -34 -118l-4 -456q0 -60 -27 -72t-153 -12q-63 0 -83.5 12t-20.5 49l4 432 q0 41 -8.5 70.5t-28.5 60.5l-458 718q-6 9 -9.5 18t-3.5 14z" />
<glyph unicode="Z" horiz-adv-x="1110" d="M27 193q0 105 602 802l104 121h-188q-22 0 -57 -1t-48 -1q-98 0 -159.5 7.5t-82.5 21.5q-24 17 -48.5 72t-24.5 98q0 32 27.5 43.5t117.5 13.5l697 14q32 0 51.5 -14t30.5 -45l45 -135q4 -11 6 -22t2 -21q0 -27 -269 -322t-503 -587l598 -5q56 0 83 -46t27 -142 q0 -33 -20.5 -41t-77.5 -8l-659 -8q-32 0 -64 -1t-35 -1q-32 0 -49.5 7t-34.5 25q-25 29 -48 86.5t-23 88.5z" />
<glyph unicode="[" horiz-adv-x="758" d="M184 -408q1 4 2 11q11 59 11 137l-2 403q0 57 -1 173.5t-1 175.5q0 58 1 174.5t1 173.5l2 403q0 78 -11 137q-2 9 -2 11q0 24 12.5 35.5t39.5 11.5q5 0 56.5 -5.5t98.5 -5.5h51q10 0 46.5 -1t64.5 -1q34 0 67 5.5l33 5.5q24 0 34.5 -16t10.5 -52q0 -34 -7.5 -52 t-22.5 -18h-37l-178 9q-5 -176 -12 -443q-9 -340 -9 -381q0 -17 7.5 -281.5t13.5 -521.5l178 5q11 0 23 1t14 1q15 0 22.5 -18t7.5 -52q0 -35 -10.5 -51.5t-34.5 -16.5l-33 4.5t-67 4.5q-28 0 -64.5 -1t-46.5 -1h-51q-47 0 -98.5 -4.5t-56.5 -4.5q-29 0 -40.5 10.5 t-11.5 34.5z" />
<glyph unicode="\" horiz-adv-x="758" d="M2 1444q0 2 6 5t12 3h125q14 0 30.5 -10.5t21.5 -22.5l617 -1564l2 -10t1 -9q0 -10 -6 -18t-12 -8h-123q-11 0 -26.5 11.5t-20.5 24.5l-617 1568q-2 6 -6 17t-4 13z" />
<glyph unicode="]" horiz-adv-x="758" d="M51 -383q0 36 7 53t22 17q1 0 13.5 -1t23.5 -1l180 -5q5 181 12 454q8 328 8 368q0 17 -7.5 282.5t-12.5 521.5l-180 -8h-37q-15 0 -22 17t-7 53q0 37 10 52.5t33 15.5q1 0 33.5 -5.5t67.5 -5.5q27 0 65 1t47 1h49q47 0 99 5.5t57 5.5q26 0 38.5 -11.5t12.5 -35.5 q0 -3 -1 -10q-11 -60 -11 -138l4 -403q0 -57 1 -173.5t1 -174.5q0 -59 -1 -175.5t-1 -173.5l-4 -403q0 -78 11 -137q1 -8 1 -11q0 -24 -11.5 -34.5t-39.5 -10.5q-5 0 -57 4.5t-99 4.5h-49q-9 0 -47 1t-65 1q-35 0 -67.5 -4.5t-33.5 -4.5q-23 0 -33 16t-10 52z" />
<glyph unicode="^" horiz-adv-x="2048" d="M418 899l497 561h218l495 -561h-207l-397 397l-399 -397h-207z" />
<glyph unicode="_" d="M0 -311h1024v-172h-1024v172z" />
<glyph unicode="`" d="M209 1333q0 40 25 65t65 25q30 0 61.5 -19t73.5 -63l273 -280h-91l-313 164q-56 30 -75 53t-19 55z" />
<glyph unicode="a" horiz-adv-x="985" d="M57 248q0 124 103.5 199.5t292.5 89.5l158 10q33 3 42 22t9 97q0 89 -33.5 139.5t-91.5 50.5q-54 0 -104.5 -51t-82.5 -138q-3 -9 -9 -26q-28 -84 -79 -84q-110 0 -148 12t-38 45q0 16 21 59q13 26 20 42q3 8 10 26q30 78 63 123q45 60 103.5 87.5t140.5 27.5 q114 0 213.5 -27t151.5 -69q47 -40 66.5 -103.5t19.5 -208.5v-122v-279q0 -71 5 -139q1 -12 1 -15q0 -29 -31 -40t-145 -11l-60 62q-7 7 -13 10.5t-11 3.5q-4 0 -18 -9q-91 -59 -216 -59q-151 0 -245.5 77t-94.5 198zM295 176q0 -39 21.5 -58.5t64.5 -19.5q98 0 181 74 t83 180q0 42 -7 61t-22 19q-114 0 -217.5 -79t-103.5 -177z" />
<glyph unicode="b" horiz-adv-x="1049" d="M76 1473q0 33 17.5 46t62.5 13q12 0 36 -1t33 -1q12 0 33.5 2t30.5 2q38 0 48.5 -13t10.5 -53q0 -28 -5 -88t-5 -90v-393q79 26 119 34.5t71 8.5q199 0 331 -127t132 -330q0 -240 -134 -377t-372 -137q-51 0 -99.5 22.5t-51.5 22.5q-8 0 -39 -15t-49 -15h-96 q-33 0 -41.5 13t-8.5 64v45l-6 853q-1 224 -15 456q-3 48 -3 58zM324 420q0 -188 43 -248.5t155 -60.5q105 0 159 96t54 282q0 171 -35 244.5t-114 73.5q-59 0 -116.5 -30t-92.5 -81q-29 -40 -41 -88t-12 -135v-53z" />
<glyph unicode="c" horiz-adv-x="1014" d="M72 453q0 253 89 392.5t251 139.5q136 0 271 -48t194 -112q38 -43 56.5 -115t18.5 -180q0 -34 -11.5 -44.5t-49.5 -10.5q-103 0 -132.5 13.5t-35.5 70.5q-13 129 -64 210t-116 81q-85 0 -145 -126t-60 -314q0 -154 43 -238t121 -84q56 0 107.5 39.5t111.5 130.5 q3 6 10 15q35 57 84 57q4 0 27 -1t41 -1q60 0 78 -10t18 -33q0 -25 -28 -73.5t-77 -107.5q-71 -85 -137.5 -120t-156.5 -35q-264 0 -386 120.5t-122 383.5z" />
<glyph unicode="d" horiz-adv-x="1071" d="M68 449q0 243 93.5 383.5t254.5 140.5q31 0 65 -5t70 -14l119 -30q3 -1 9 -2q13 -2 19 -2q17 0 23 11.5t6 43.5l2 231q0 81 -8 165t-8 87q0 41 17.5 59.5t55.5 18.5q13 0 33.5 -4.5t28.5 -5.5l61 -6q11 -2 28 -3q50 -5 50 -61v-14l-2 -140q-3 -205 -4.5 -328t-1.5 -128 l4 -731q0 -9 2 -29t2 -31q0 -42 -13.5 -57.5t-47.5 -15.5q-6 0 -19 1t-20 1l-84 -4h-15q-25 0 -32.5 8.5t-7.5 36.5v57q-77 -64 -142.5 -91.5t-138.5 -27.5q-190 0 -294.5 127t-104.5 359zM342 350q0 -121 42.5 -186.5t121.5 -65.5q96 0 162.5 91.5t66.5 232.5v94 q0 72 -7 132t-15 77q-20 43 -69 76t-93 33q-104 0 -156.5 -121.5t-52.5 -362.5z" />
<glyph unicode="e" horiz-adv-x="995" d="M70 438q0 241 100 394t256 153q106 0 229.5 -41.5t173.5 -93.5q53 -53 88 -153t35 -199q0 -69 -126 -87q-8 -1 -11 -1l-449 -62q-18 -3 -26 -14t-8 -35q0 -80 46 -134t114 -54q50 0 105 32t91 84q5 7 12 19q44 65 95 65q12 0 35.5 -1t35.5 -1q4 0 9.5 1t7.5 1 q34 0 51.5 -9t17.5 -28q0 -15 -19.5 -46t-72.5 -97q-78 -95 -143 -129.5t-154 -34.5q-94 0 -201 34.5t-163 80.5q-65 52 -97 141t-32 215zM334 565q0 -16 4.5 -20t17.5 -4h13l223 22q46 4 64 15t18 36q0 96 -38 155.5t-97 59.5q-74 0 -139.5 -89.5t-65.5 -174.5z" />
<glyph unicode="f" horiz-adv-x="670" d="M23 705q0 52 41.5 76t132.5 24h12l6 258q1 27 2 77q4 188 21 236q23 70 74 116t102 46q101 0 167.5 -17t106.5 -53q45 -40 79 -122t34 -146q0 -27 -36.5 -42t-100.5 -15q-34 0 -45.5 7t-20.5 38l-31 107q-7 25 -20 41t-27 16q-18 0 -29.5 -26.5t-11.5 -72.5v-28 q0 -32 -4 -90q-1 -23 -2 -35l-8 -236v-18q0 -22 6.5 -27.5t36.5 -5.5q68 0 93.5 -18t25.5 -62q0 -42 -18 -64t-58 -30q-18 -3 -45 -5q-45 -3 -45 -42l2 -220q1 -79 5.5 -184.5t4.5 -132.5q0 -47 -17 -65.5t-57 -18.5q-110 0 -151 25t-41 94q0 11 3 62.5t3 91.5l-2 325v23 q0 21 -8 26t-39 5h-64q-38 0 -57.5 20.5t-19.5 61.5z" />
<glyph unicode="g" horiz-adv-x="1028" d="M-84 -240q0 50 28 85t122 83l112 58l-57 53q-6 5 -17 14q-38 30 -38 56q0 17 10.5 35.5t27.5 31.5l127 94q-64 58 -94.5 127t-30.5 156q0 78 24.5 163t68.5 161q33 58 78 85t108 27q37 0 81.5 -9t96.5 -28l113 140q24 30 46.5 44.5t45.5 14.5q35 0 78 -30.5t43 -57.5 q0 -5 -9 -17.5t-24 -27.5l-117 -115q97 -50 153 -149.5t56 -218.5q0 -153 -101.5 -241.5t-277.5 -88.5q-14 0 -42.5 3t-43.5 3q-19 0 -43 -21.5t-24 -33.5q0 -30 127 -52q105 -17 174 -34q205 -51 265 -104t60 -163q0 -78 -34.5 -128.5t-114.5 -88.5q-92 -43 -214.5 -67.5 t-254.5 -24.5q-233 0 -370.5 73t-137.5 193zM193 -238q0 -40 40.5 -56.5t145.5 -16.5q197 0 313.5 31t116.5 83q0 49 -105 72q-12 3 -17 4l-126 29q-40 9 -69 14.5t-31 5.5q-7 0 -24.5 -7t-41.5 -19l-155 -84q-29 -15 -38 -27t-9 -29zM336 537q0 -99 36.5 -149t106.5 -50 q95 0 164.5 72.5t69.5 177.5q0 99 -46.5 165t-115.5 66q-88 0 -151.5 -82t-63.5 -200z" />
<glyph unicode="h" horiz-adv-x="1034" d="M80 1468q0 47 27.5 60.5t109.5 13.5q80 0 105.5 -12t25.5 -57q0 -8 -3 -36q-17 -141 -17 -276q0 -57 3 -114.5t9 -118.5q53 7 88 10.5t59 3.5q241 0 354 -111.5t113 -349.5q0 -232 -11 -419q-1 -12 -1 -13q-2 -22 -35 -35.5t-88 -13.5q-76 0 -99.5 13t-23.5 63 q0 55 2 154t2 145v176q-1 131 -34.5 186.5t-108.5 55.5q-127 0 -178 -103.5t-51 -429.5q0 -118 10 -226q2 -18 2 -22q0 -38 -47.5 -54.5t-155.5 -16.5q-32 0 -42.5 8.5t-10.5 48.5v10l2 291v90q0 102 -2 454q-1 206 -2 326v238q0 10 -1 30.5t-1 30.5z" />
<glyph unicode="i" horiz-adv-x="432" d="M63 1217q0 68 41 113.5t103 45.5q64 0 108.5 -43t44.5 -106q0 -68 -46 -117t-109 -49q-64 0 -103 42.5t-39 113.5zM86 858q0 41 24.5 55.5t102.5 14.5q83 0 107 -9t24 -49v-94l-12 -674q0 -10 -1 -28q0 -80 -69 -80q-106 0 -136 9t-30 44q0 11 2 41t2 47l-4 522 q0 62 -5 128.5t-5 72.5z" />
<glyph unicode="j" horiz-adv-x="590" d="M-184 -514q0 6 1 13.5t3 14.5l33 119q3 12 13 18.5t25 6.5q13 0 59.5 -16.5t82.5 -16.5q91 0 126.5 53t35.5 226v49l-7 424q-1 112 -9.5 240t-8.5 147q0 34 -2 76.5t-2 50.5q0 35 10.5 50t34.5 15l172 5q28 0 39.5 -17t11.5 -61v-34q-4 -165 -4 -335q0 -51 3.5 -144 t4.5 -130l6 -357v-16q0 -219 -112.5 -333t-329.5 -114q-82 0 -134 19t-52 47zM129 1257q0 62 49 109t117 47q62 0 99.5 -40t37.5 -105q0 -73 -41.5 -117.5t-109.5 -44.5q-65 0 -108.5 45t-43.5 106z" />
<glyph unicode="k" horiz-adv-x="985" d="M70 1440q0 59 24 76.5t127 17.5q76 0 99.5 -16t23.5 -62q0 -14 -6 -161t-6 -277v-86v-105q0 -9 1 -30q3 -139 17 -236l185 236q75 95 151 135.5t205 40.5q28 0 51 -10.5t23 -22.5q0 -23 -112 -134q-89 -87 -144 -147l-148 -157q113 -161 249 -311.5t136 -167.5 q0 -19 -36.5 -29t-104.5 -10q-102 0 -190 110q-31 38 -50 60q-26 29 -65 80q-68 88 -105 88q-24 0 -36.5 -21t-12.5 -59v-9l4 -137v-33q0 -60 -11.5 -77t-49.5 -17q-117 0 -158 9t-41 30q0 6 2 43.5t2 69.5l-4 656q-3 311 -18 607q-2 48 -2 56z" />
<glyph unicode="l" horiz-adv-x="432" d="M84 1421q0 81 13 95t69 14q120 0 150 -9t30 -46q0 -15 -3 -43.5t-3 -42.5l-6 -1125q0 -54 5 -121t5 -80q0 -41 -24 -55t-103 -14q-83 0 -107 8.5t-24 48.5v94z" />
<glyph unicode="m" horiz-adv-x="1589" d="M82 18q0 5 1 17.5t1 21.5l8 315q4 152 11.5 298t7.5 147q0 16 -2.5 46t-2.5 44q0 50 23 68t80 18q75 0 100 -8t25 -43v-61q28 16 58 23t71 7q168 0 253.5 -29t127.5 -98l74 41q67 37 115 50.5t102 13.5q188 0 279 -83t91 -255v-12l-8 -447q-2 -68 -23.5 -83t-93.5 -15 l-112 2q-16 0 -22.5 8.5t-6.5 30.5v14l10 154q4 65 6 128.5t2 129.5q0 170 -29 230.5t-102 60.5q-48 0 -103 -34.5t-87 -86.5q-19 -29 -27 -69t-8 -107l-2 -187v-100q0 -2 1 -10q1 -27 1 -54q0 -43 -22 -58t-95 -15h-79q-32 0 -40 7t-8 32v12l7 119l3 69q11 183 11 273 q0 135 -27 183t-92 48t-121 -28t-86 -76q-17 -28 -26 -93.5t-9 -173.5v-38l2 -228v-59q0 -60 -12 -75t-59 -15h-19l-120 2q-15 0 -21 6t-6 22z" />
<glyph unicode="n" horiz-adv-x="1053" d="M80 57q0 12 16.5 245t16.5 446q0 43 -6.5 96.5t-6.5 64.5q0 33 18.5 44.5t78.5 11.5q39 0 64.5 -0.5t51.5 -2.5l4 -83l81 6q31 3 57 4.5t51 1.5q86 0 155 -20.5t142 -67.5q105 -67 139.5 -133t34.5 -189q0 -183 -21 -387q-6 -51 -6 -63q0 -42 -15.5 -58t-57.5 -16 q-79 0 -121.5 15t-42.5 42q0 13 5 65q21 196 21 367q0 169 -34 240.5t-113 71.5q-60 0 -120 -27t-95 -69q-30 -37 -42.5 -108t-12.5 -208t5 -265q1 -20 1 -24q0 -32 -14 -44.5t-74 -12.5h-117q-23 0 -33 13t-10 44z" />
<glyph unicode="o" horiz-adv-x="1085" d="M57 492q0 223 103 359t272 136q89 0 206.5 -31t199.5 -77q105 -59 148.5 -146.5t43.5 -245.5q0 -248 -119 -380t-344 -132q-231 0 -370.5 140.5t-139.5 376.5zM336 434q0 -163 48 -250.5t138 -87.5q109 0 180.5 108t71.5 275t-55.5 268t-147.5 101q-107 0 -171 -112 t-64 -302z" />
<glyph unicode="p" horiz-adv-x="1063" d="M80 -477q0 4 2 34q24 380 24 898q0 220 -1.5 294.5t-6.5 117.5q-2 22 -10 66t-8 62q0 32 17 46t57 14h18l127 4q25 0 35 -10t12 -37l2 -97q51 14 102 20.5t105 6.5q203 0 326 -126.5t123 -336.5q0 -219 -126.5 -363.5t-302.5 -144.5q-89 0 -148.5 11.5t-92.5 35.5l2 -247 q0 -117 -4.5 -181.5t-13.5 -76.5q-14 -18 -70 -31.5t-119 -13.5q-27 0 -38 12.5t-11 42.5zM346 221q0 -58 32 -78t128 -20q127 0 180 80.5t53 277.5q0 153 -51.5 227t-157.5 74q-36 0 -75 -10.5t-69 -27.5q-18 -11 -24.5 -20.5t-7.5 -27.5v-26l-8 -441v-8z" />
<glyph unicode="q" horiz-adv-x="1090" d="M68 498q0 229 91.5 356t256.5 127q83 0 165 -23.5t162 -70.5l-2 53v6q0 18 11.5 25.5t40.5 7.5h57q96 0 117.5 -9.5t21.5 -47.5v-35v-51l8 -1272v-29q0 -52 -15 -67t-54 -15q-98 0 -136 9t-38 32q0 7 3 42q17 182 17 362q0 53 -4.5 109.5t-13.5 118.5 q-83 -86 -143.5 -118.5t-131.5 -32.5q-187 0 -300 141.5t-113 381.5zM334 463q0 -165 38 -254.5t107 -89.5q96 0 178 129.5t82 308.5q0 122 -61 203.5t-143 81.5q-102 0 -151.5 -94t-49.5 -285z" />
<glyph unicode="r" horiz-adv-x="692" d="M94 932q0 27 12 44t29 17q16 0 44.5 -4t41.5 -4q5 0 18.5 2t22.5 2q33 0 45 -10t12 -41q0 -12 -2 -56.5t-2 -76.5v-80l74 137q22 41 54.5 52.5t113.5 11.5q55 0 80 -56.5t25 -179.5q0 -82 -24.5 -122t-74.5 -40q-28 0 -50 20t-32 55q-3 11 -6 33q-6 48 -26 48 q-37 0 -81 -122.5t-44 -276.5q0 -62 7 -140.5t7 -95.5q0 -39 -17 -52t-88 -13h-81q-30 0 -39 9.5t-9 45.5v592q0 151 -9 281q-1 17 -1 20z" />
<glyph unicode="s" horiz-adv-x="934" d="M59 266q0 33 37.5 51.5t104.5 18.5q54 0 88 -79q11 -25 18 -40q31 -65 74.5 -101t91.5 -36q58 0 105 49t47 107q0 57 -117 93q-32 9 -49 15l-219 76q-94 32 -132 80.5t-38 132.5q0 148 98.5 254t241.5 106q77 0 184.5 -40t161.5 -85q44 -36 77 -104.5t33 -116.5 q0 -43 -39 -61.5t-135 -18.5q-63 1 -68 81q-1 17 -1 26q-6 82 -42 133t-87 51q-70 0 -120 -81t-50 -195q0 -28 16.5 -42t91.5 -34l264 -72q102 -28 149.5 -76t47.5 -122q0 -122 -118 -198.5t-310 -76.5q-174 0 -290 92t-116 213z" />
<glyph unicode="t" horiz-adv-x="692" d="M12 735q0 38 23.5 63t73.5 40q27 8 63 17q55 14 55 48v31v242q0 26 -2 60.5t-2 43.5q0 47 38.5 64.5t141.5 17.5q60 0 80.5 -14.5t20.5 -57.5q0 -3 -3 -20q-22 -151 -22 -338q0 -28 1.5 -45t2.5 -17h107q3 0 7.5 1t6.5 1q25 0 40 -13t15 -36q0 -62 -15 -93.5t-69 -47.5 l-81 -25q-15 -4 -20 -12t-5 -35v-14v-68q0 -23 -1 -59t-1 -47q0 -2 1 -31t1 -57q0 -81 10 -172t10 -96q0 -47 -39 -69t-120 -22q-55 0 -76 20.5t-21 74.5q0 2 1 16q2 65 2 127l-3 416q0 11 -3 17.5t-9 6.5q-13 0 -28 -1t-19 -1q-74 0 -118 23t-44 61z" />
<glyph unicode="u" horiz-adv-x="1075" d="M94 823q0 83 14 111.5t50 28.5q24 0 50.5 -2.5t29.5 -2.5q21 0 50.5 4.5t39.5 4.5q19 -1 24.5 -6t5.5 -25q0 -9 -11 -142.5t-11 -256.5q0 -220 41 -327.5t125 -107.5q107 0 169 114.5t62 318.5q0 162 -20 325q-4 32 -4 39q0 35 18.5 49.5t67.5 14.5q40 0 86 1q13 1 16 1 q48 0 66 -10.5t18 -36.5q0 -5 -2 -33q-16 -284 -16 -645q0 -72 8 -142l8 -69q0 -25 -15.5 -41.5t-39.5 -16.5q-63 0 -118 -5q-9 -1 -11 -1q-25 0 -38.5 8.5t-13.5 24.5v12v6l-8 43q-67 -52 -117 -74t-102 -22q-50 0 -108 13t-115 36q-61 25 -91.5 56.5t-54.5 91.5 q-24 62 -38.5 239.5t-14.5 423.5z" />
<glyph unicode="v" horiz-adv-x="938" d="M8 909q0 17 23.5 23t120.5 6q93 0 110 -66q4 -14 6 -22l199 -653q60 233 175 509q33 80 42 107q31 96 51 115.5t62 19.5h22l85 -4q22 -2 34 -11.5t12 -25.5q0 -2 -0.5 -5t-3.5 -11l-334 -838q-17 -45 -47.5 -55t-167.5 -10q-42 0 -67.5 14t-36.5 43l-279 830 q-3 9 -4.5 17.5t-1.5 16.5z" />
<glyph unicode="w" horiz-adv-x="1395" d="M0 942q0 20 23 29.5t71 9.5q139 0 163 -113q3 -15 5 -24l127 -569l3 -15q4 -27 26 -27q24 0 39 60q3 10 4 15l143 536q14 53 36 66.5t77 13.5q123 0 143 -144q4 -27 6 -40l74 -421q1 -5 2 -14q6 -37 27 -37q31 0 44 57q4 17 7 27l145 549q14 49 41.5 65.5t96.5 16.5 q52 0 75 -13t23 -42q0 -21 -16 -62.5t-21 -56.5l-205 -713q-17 -58 -37 -80t-51 -22l-2 2q-2 0 -2 -2l-200 14q-47 3 -71 38t-40 132l-43 243q-4 22 -11 34t-16 12q-23 0 -38 -63q-2 -7 -3 -11l-100 -370q-10 -36 -26 -48t-69 -14l-143 -4h-4q-30 0 -48 19.5t-34 76.5 l-215 850q-3 11 -4.5 21t-1.5 18z" />
<glyph unicode="x" horiz-adv-x="952" d="M-23 10q0 8 11 23q4 5 6 8l301 424q8 11 11 18t3 13q0 2 -6.5 11t-17.5 23l-273 351q-6 7 -9 15.5t-3 16.5q0 21 21.5 36.5t52.5 15.5h39q87 0 123.5 -6t58.5 -21q18 -13 46.5 -51t59.5 -92l86 -146l191 258q20 28 54.5 45t70.5 17l119 -2h24q20 0 26 -2.5t7 -10.5 q0 -4 -4 -11t-12 -19l-308 -389q-13 -17 -18.5 -26t-5.5 -13q0 -8 3 -15.5t9 -15.5l143 -203q45 -62 106.5 -133.5t61.5 -89.5q0 -23 -11.5 -31t-55.5 -8h-142q-35 0 -59.5 15.5t-50.5 58.5l-170 266l-158 -260l-2 -4q-53 -86 -125 -88l-160 -6q-27 0 -35 6t-8 22z" />
<glyph unicode="y" horiz-adv-x="1077" d="M84 596q0 143 7.5 233t20.5 106q15 20 50 30t90 10q59 0 81.5 -16.5t22.5 -59.5q0 -25 -14 -179t-14 -280q0 -161 36.5 -242t110.5 -81q56 0 108.5 41.5t98.5 122.5q40 70 57 154.5t17 264.5q0 74 -10 159q-3 24 -3 30q0 36 18.5 49.5t76.5 13.5q108 0 132.5 -16.5 t24.5 -97.5q0 -26 -6 -155t-6 -234v-89q0 -301 -12.5 -454.5t-40.5 -224.5q-46 -115 -138.5 -176.5t-220.5 -61.5q-154 0 -264 109t-110 249q0 39 20 52.5t109 13.5q93 0 107 -53q5 -20 7 -26q33 -109 63.5 -146t78.5 -37q80 0 119.5 81t39.5 246q0 41 -3 136q0 22 -1 34 q-39 -72 -90 -101.5t-139 -29.5q-249 0 -336.5 124t-87.5 501z" />
<glyph unicode="z" horiz-adv-x="934" d="M66 123q0 19 7 36t21 34l465 554q5 7 7.5 13t2.5 12q0 10 -9 13t-50 3l-342 -4q-52 0 -76 26t-24 81q0 33 26.5 51.5t75.5 18.5h31l373 12q72 2 143.5 7t73.5 5q54 0 91.5 -39t37.5 -90q0 -24 -18 -53.5t-71 -87.5l-469 -525l392 -2q67 0 89.5 -22t22.5 -74 q0 -53 -17 -74.5t-75 -21.5h-22l-334 -4q-79 -1 -165.5 -16t-92.5 -15q-12 0 -22 9t-20 29l-40 75q-6 10 -9 23t-3 26z" />
<glyph unicode="{" d="M162 442v179q7 0 21.5 -1.5t21.5 -1.5q126 0 178.5 59t52.5 202v247q0 145 23 206.5t80 94.5q44 27 109 38.5t181 11.5h45v-179q-8 0 -24 1t-23 1q-109 0 -147.5 -41.5t-38.5 -173.5v-241q0 -155 -44 -220.5t-159 -93.5q114 -27 158.5 -92.5t44.5 -220.5v-240 q0 -132 39.5 -174.5t148.5 -42.5q7 0 22 1t23 1v-176h-63q-102 0 -165.5 12t-106.5 37q-57 34 -80 96t-23 203v248q0 144 -52.5 203t-178.5 59q-7 0 -21.5 -1t-21.5 -1z" />
<glyph unicode="|" d="M424 -483v2048h178v-2048h-178z" />
<glyph unicode="}" d="M152 -238q8 0 23 -1t22 -1q109 0 147.5 42t38.5 175v240q0 153 45 219t160 94q-115 28 -160 93.5t-45 220.5v241q0 132 -38 173.5t-146 41.5q-7 0 -23 -1t-24 -1v179h45q115 0 179.5 -11.5t108.5 -38.5q57 -33 80 -95t23 -206v-247q0 -144 52 -202.5t179 -58.5 q6 0 21 1.5t22 1.5v-179q-7 0 -21.5 1t-21.5 1q-126 0 -178.5 -59t-52.5 -203v-248q0 -143 -23 -204t-80 -95q-43 -26 -108 -37.5t-180 -11.5h-45v176z" />
<glyph unicode="~" horiz-adv-x="1706" d="M178 434v187q106 72 202 107.5t185 35.5q62 0 125.5 -12t168.5 -48q13 -4 42 -15q164 -58 250 -58q85 0 177 37t202 116v-184q-103 -71 -197.5 -106t-183.5 -35q-44 0 -92.5 8.5t-98.5 26.5q-25 8 -76 26q-212 74 -319 74q-82 0 -174 -38t-211 -122z" />
<glyph unicode="&#xa1;" horiz-adv-x="688" d="M154 1239q0 74 55.5 135.5t120.5 61.5q81 0 139.5 -48t58.5 -118q0 -82 -53 -138.5t-135 -56.5q-83 0 -134.5 46t-51.5 118zM193 -2q0 10 6 70q45 384 45 770q0 31 -1 64.5t-1 35.5q0 34 7 45.5t23 11.5l160 4h4q30 0 34 -58q0 -12 1 -19l55 -912v-4q0 -22 -13.5 -32.5 t-43.5 -10.5h-236q-19 0 -29.5 9.5t-10.5 25.5z" />
<glyph unicode="&#xa2;" horiz-adv-x="858" d="M86 690q0 145 77.5 238.5t196.5 93.5h17l6 145q2 29 20.5 37t73.5 8q58 0 59 -39q0 -6 1 -10l8 -172q92 -14 139 -73t47 -160q0 -17 -17.5 -24t-74.5 -7q-45 0 -59 11t-23 48q-15 67 -39.5 86t-73.5 19q-72 0 -109.5 -63t-37.5 -185q0 -93 37.5 -142.5t107.5 -49.5 q37 0 69.5 18t51.5 49q10 17 22 42q16 36 46 36l106 -2q15 0 23 -7.5t8 -21.5q0 -48 -67.5 -123.5t-149.5 -97.5l-10 -137q-1 -5 -1 -14q-4 -66 -77 -66q-38 0 -59 9t-21 26v39l-6 139q-144 28 -217.5 116.5t-73.5 233.5z" />
<glyph unicode="&#xa3;" horiz-adv-x="1313" d="M66 104q0 138 78 146q17 2 26 4q46 11 67.5 69t24.5 182l-106 1q-24 0 -34.5 6.5t-10.5 19.5v7l20 145q7 41 26 54.5t68 13.5q64 0 67 83q2 65 7 116q23 221 123 342.5t260 121.5q150 0 280.5 -37.5t176.5 -91.5q17 -20 31.5 -54.5t27.5 -86.5q17 -70 27 -129t10 -80 q0 -57 -35 -83t-113 -26q-66 0 -91 14.5t-25 73.5v7q0 139 -53 217t-148 78q-56 0 -100 -31.5t-66 -87.5q-19 -52 -28 -136q0 -4 -1 -6q-3 -35 -11.5 -90.5t-8.5 -72.5q0 -14 11 -26.5t22 -12.5l196 2q35 0 49.5 -31t14.5 -111q0 -58 -18 -78t-97 -20h-10q-46 0 -96.5 2 t-55.5 2q-34 0 -39 -38q-1 -5 -2 -9q-14 -86 -59 -163q-12 -22 -12 -27q0 -28 19 -40t65 -12l557 7q59 0 84.5 -25t25.5 -84q0 -88 -19 -116.5t-67 -28.5q-3 0 -23 2q-175 18 -390 18l-537 -2h-14q-62 0 -78 22t-16 80z" />
<glyph unicode="&#xa4;" horiz-adv-x="1241" d="M76 432l203 205q-40 53 -60 115.5t-20 132.5q0 69 20 131.5t60 116.5l-203 204l92 93l203 -203q55 41 117 61.5t133 20.5t134 -20.5t117 -61.5l203 203l94 -93l-204 -204q39 -54 59 -116.5t20 -131.5q0 -70 -20 -132.5t-59 -115.5l204 -205l-94 -92l-203 205 q-57 -42 -118 -62t-131 -20q-72 0 -135 20.5t-117 61.5l-203 -205zM332 885q0 -120 84.5 -204.5t206.5 -84.5q121 0 205.5 84.5t84.5 204.5q0 119 -85.5 205t-204.5 86q-120 0 -205.5 -86t-85.5 -205z" />
<glyph unicode="&#xa5;" horiz-adv-x="1280" d="M14 1376q0 16 48 25.5t128 9.5q74 0 109 -52l2 -3l334 -514l264 499q17 34 30.5 42t39.5 10l221 8q10 0 19.5 -8.5t9.5 -16.5q-1 -5 -5.5 -16t-11.5 -23l-219 -383h178q30 0 34 -26q1 -4 1 -6l4 -27v-4q0 -13 -7 -22t-17 -9h-242l-103 -172h338q9 0 18 -10t11 -24l2 -25 v-8q0 -16 -6.5 -21.5t-28.5 -5.5l-381 -1q-5 -12 -7.5 -24.5t-2.5 -33.5l-2 -461q0 -60 -25.5 -73t-134.5 -13q-53 0 -73.5 13.5t-20.5 49.5l4 434q0 33 -5 59t-15 50h-410q-9 0 -15.5 10t-6.5 25v33q0 15 7.5 20.5t28.5 5.5h336l-110 172h-238q-8 0 -16 10t-8 23v6l4 25 q0 3 1 9q3 21 27 21h174l-249 391q-6 9 -9.5 17.5t-3.5 13.5z" />
<glyph unicode="&#xa6;" d="M424 -350v758h178v-758h-178zM424 674v758h178v-758h-178z" />
<glyph unicode="&#xa7;" d="M59 479q0 103 68.5 187.5t202.5 148.5q-100 65 -146.5 137t-46.5 160q0 145 111.5 237.5t290.5 92.5q158 0 262 -90t104 -224q0 -50 -29.5 -67t-115.5 -17q-44 0 -67 16.5t-23 47.5q0 13 3 38t3 36q0 64 -47.5 102.5t-124.5 38.5q-86 0 -140.5 -45t-54.5 -115 q0 -58 40 -103.5t163 -113.5l199 -108q128 -72 181.5 -147.5t53.5 -184.5q0 -105 -68.5 -186.5t-213.5 -149.5q118 -75 170.5 -151.5t52.5 -174.5q0 -153 -110 -245.5t-296 -92.5q-170 0 -273.5 86t-103.5 224q0 54 30 73t106 19q53 0 78 -19t34 -66q21 -114 60.5 -156 t111.5 -42q85 0 136 44.5t51 117.5q0 102 -158 197l-57 36l-271 185q-79 53 -122.5 125t-43.5 149zM268 539q0 -52 28.5 -98.5t80.5 -80.5l176 -114q101 37 149 89.5t48 125.5q0 41 -32.5 82.5t-96.5 83.5l-189 121q-88 -56 -126 -104.5t-38 -104.5z" />
<glyph unicode="&#xa8;" d="M209 1225q0 48 36 83t85 35t84 -34.5t35 -83.5q0 -54 -33.5 -88.5t-85.5 -34.5q-51 0 -86 36t-35 87zM573 1225q0 48 36 83t85 35t84 -34.5t35 -83.5q0 -54 -33.5 -88.5t-85.5 -34.5q-50 0 -85.5 36t-35.5 87z" />
<glyph unicode="&#xa9;" horiz-adv-x="1706" d="M113 731q0 145 57 280.5t164 243.5q105 107 235.5 161t282.5 54t286 -55t240 -162q105 -105 160 -238.5t55 -283.5q0 -153 -54.5 -286t-158.5 -234q-108 -107 -244.5 -164t-283.5 -57q-146 0 -280 56.5t-240 162.5q-107 106 -163 240.5t-56 281.5zM223 731 q0 -126 48 -240t139 -204q90 -91 204.5 -139t239.5 -48t240 48.5t209 140.5q89 88 135.5 200.5t46.5 241.5t-47 243.5t-135 203.5q-91 90 -205 137t-244 47t-243 -46.5t-201 -135.5q-90 -92 -138.5 -208t-48.5 -241zM457 725q0 208 109.5 331.5t291.5 123.5q147 0 243 -77 t105 -199l-166 -1q-10 74 -60 114t-130 40q-99 0 -155 -86.5t-56 -239.5q0 -152 57.5 -234.5t163.5 -82.5q80 0 129 43.5t60 124.5h165q-7 -135 -106.5 -217t-253.5 -82q-183 0 -290 119t-107 323z" />
<glyph unicode="&#xaa;" horiz-adv-x="739" d="M43 948q0 86 78 139t219 62l118 8q25 2 31.5 14.5t6.5 69.5q0 63 -25 98t-68 35q-40 0 -78 -36t-63 -97q-3 -8 -7 -20q-20 -58 -58 -58q-80 0 -110 9t-30 32q0 12 18 46q9 15 13 24q2 5 7 17q22 56 48 87q34 43 78 62.5t105 19.5q84 0 159 -18.5t115 -48.5 q35 -29 49.5 -74t14.5 -145v-87v-194q0 -50 3 -97q1 -8 1 -10q0 -21 -24.5 -28.5t-106.5 -7.5l-45 43q-6 5 -10.5 7.5t-8.5 2.5q-2 0 -12 -6q-68 -41 -162 -41q-114 0 -185 53.5t-71 138.5zM221 897q0 -26 16.5 -39.5t49.5 -13.5q73 0 134.5 51t61.5 125q0 30 -5 43.5 t-15 13.5q-87 0 -164.5 -55.5t-77.5 -124.5z" />
<glyph unicode="&#xab;" horiz-adv-x="938" d="M84 483q0 21 8 41.5t23 36.5l194 213q17 19 32 27t32 8q28 0 60 -33t32 -61q0 -8 -4.5 -17t-16.5 -22l-143 -160q-17 -17 -21 -23.5t-4 -13.5q0 -6 3 -13t10 -15l133 -140q4 -4 12 -11q27 -22 27 -44q0 -17 -37 -51.5t-62 -34.5q-15 0 -28 6.5t-25 20.5l-203 221 q-11 11 -16.5 27.5t-5.5 37.5zM483 483q0 21 8 41.5t23 36.5l195 213q17 19 31.5 27t31.5 8q28 0 59 -33t31 -61q0 -9 -4.5 -18.5t-14.5 -21.5l-143 -159q-16 -17 -20 -23.5t-4 -13.5q0 -6 3 -13t9 -15l133 -139q4 -5 13 -12q26 -22 26 -44q0 -17 -37 -51.5t-61 -34.5 q-16 0 -28.5 6.5t-24.5 20.5l-203 221q-12 11 -17.5 27.5t-5.5 37.5z" />
<glyph unicode="&#xac;" horiz-adv-x="1706" d="M254 696v166h1198v-502h-166v336h-1032z" />
<glyph unicode="&#xad;" horiz-adv-x="815" d="M106 440l3 123q0 19 11 27t48 8l487 -4q25 0 39.5 -13.5t14.5 -37.5l2 -101q0 -38 -11 -51.5t-36 -13.5h-5l-503 14q-29 2 -39.5 12.5t-10.5 36.5z" />
<glyph unicode="&#xae;" horiz-adv-x="1706" d="M113 731q0 147 57.5 284t165.5 245q104 104 234.5 157t281.5 53q153 0 288.5 -56t241.5 -165q103 -104 157 -236.5t54 -281.5q0 -153 -55.5 -287t-161.5 -237q-108 -105 -243 -161t-281 -56q-147 0 -282.5 57.5t-241.5 165.5q-105 106 -160 239t-55 279zM223 731 q0 -125 47 -238.5t136 -203.5q90 -91 204 -140t234 -49q130 0 246.5 47t209.5 138q89 86 137 198.5t48 237.5q0 133 -45.5 247.5t-134.5 205.5q-93 92 -207.5 140t-243.5 48t-240 -45.5t-200 -134.5q-92 -94 -141.5 -210t-49.5 -241zM551 330v829h319q173 0 262 -57t89 -168 q0 -91 -48 -150.5t-137 -78.5l185 -375h-199l-164 346h-129v-346h-178zM729 786h117q100 0 146 30.5t46 96.5q0 69 -48 101.5t-152 32.5h-109v-261z" />
<glyph unicode="&#xaf;" d="M236 1149v147h552v-147h-552z" />
<glyph unicode="&#xb0;" horiz-adv-x="674" d="M43 1163q0 125 86 211t209 86q121 0 208 -87t87 -210q0 -121 -87 -208t-210 -87t-208 85.5t-85 209.5zM152 1165q0 -76 54.5 -131t131.5 -55t130.5 54.5t53.5 131.5t-53.5 131t-130.5 54t-131.5 -54t-54.5 -131z" />
<glyph unicode="&#xb1;" horiz-adv-x="1706" d="M254 14v168h1198v-168h-1198zM254 707v165h514v334h170v-334h514v-165h-514v-334h-170v334h-514z" />
<glyph unicode="&#xb2;" horiz-adv-x="823" d="M49 977q0 56 15.5 117t46.5 125q53 115 118 158.5t177 43.5q180 0 279 -59t99 -168q0 -105 -86 -230t-249 -259l313 -15q21 -1 27.5 -9.5t7.5 -39.5q0 -48 -15 -68t-53 -20h-59h-142h-92q-96 0 -202.5 -8t-116.5 -8q-31 0 -41 15.5t-10 59.5q0 23 5.5 34.5t19.5 19.5 q1 1 21 10q86 37 164 82q61 33 112 79t91 103q53 75 81 139t28 109q0 51 -35.5 83t-93.5 32q-82 0 -141 -63t-101 -196q-6 -17 -10 -48q-10 -66 -80 -66q-44 0 -61 10t-17 37z" />
<glyph unicode="&#xb3;" horiz-adv-x="852" d="M41 807q0 36 19 46.5t81 10.5q46 0 65 -9t19 -32v-14q0 -79 43.5 -129.5t110.5 -50.5q70 0 142.5 58.5t72.5 111.5q0 32 -40.5 51.5t-116.5 23.5q-8 1 -22 2q-67 5 -67 70q0 20 48 37q28 11 44 18q79 39 130 102.5t51 115.5q0 42 -26 66t-73 24q-72 0 -136.5 -44 t-125.5 -135q-9 -13 -21 -40q-22 -50 -53 -50q-67 0 -96 10t-29 33q0 8 13 40q9 24 14 38q19 52 39 89t45 67q44 54 99.5 80t127.5 26q188 0 306 -64t118 -167q0 -65 -46 -121t-144 -110q78 -20 121 -66t43 -109q0 -109 -107.5 -184.5t-267.5 -75.5q-157 0 -269 84.5 t-112 196.5z" />
<glyph unicode="&#xb4;" d="M317 1061l273 280q42 44 73.5 63t61.5 19q40 0 65 -25t25 -65q0 -32 -19 -55t-75 -53l-313 -164h-91z" />
<glyph unicode="&#xb5;" horiz-adv-x="1208" d="M-92 -430l297 1511h229l-125 -635q-6 -29 -9 -55t-3 -49q0 -96 46.5 -146.5t135.5 -50.5q122 0 193.5 88.5t111.5 292.5l109 555h225l-145 -739q-10 -49 -14.5 -81.5t-4.5 -51.5q0 -36 15.5 -51t52.5 -15q13 0 20.5 0.5t13.5 1.5l-32 -159q-32 -9 -68.5 -13t-81.5 -4 q-74 0 -111.5 31.5t-37.5 93.5v15q-41 -67 -108 -104.5t-146 -37.5q-81 0 -137.5 26t-97.5 83l-99 -506h-229z" />
<glyph unicode="&#xb6;" d="M55 1130q0 158 107 253.5t284 95.5h523v-99h-117v-1380h-129v1380h-168v-1380h-131v784q-168 6 -268.5 101t-100.5 245z" />
<glyph unicode="&#xb7;" horiz-adv-x="639" d="M139 686q0 78 58.5 131t142.5 53q72 0 117 -45.5t45 -117.5q0 -76 -55 -125.5t-140 -49.5q-74 0 -121 43.5t-47 110.5z" />
<glyph unicode="&#xb8;" d="M262 -375l41 88q78 -42 133.5 -57.5t114.5 -15.5q39 0 62.5 22t23.5 59q0 43 -26 64.5t-79 21.5q-13 0 -27.5 -1.5t-28.5 -3.5l-1 198h70v-113q24 3 42.5 4.5t30.5 2.5q80 0 129.5 -47t49.5 -123q0 -85 -60.5 -133t-169.5 -48q-54 0 -120 17t-185 65z" />
<glyph unicode="&#xb9;" horiz-adv-x="436" d="M37 1327q0 24 12.5 32.5t52.5 16.5l195 33q2 0 4.5 1t3.5 1q16 0 27.5 -11.5t11.5 -27.5v-3q-2 -13 -2 -23v-6q-2 -17 -2 -33l-6 -106q-3 -47 -4.5 -100t-1.5 -116q0 -54 1 -108t3 -113l6 -160v-6q0 -21 -9.5 -30t-31.5 -9h-102q-30 0 -38.5 8.5t-9.5 34.5l-10 617 q0 15 -6 22.5t-22 13.5l-39 13q-17 6 -25 21t-8 38z" />
<glyph unicode="&#xba;" horiz-adv-x="815" d="M43 1118q0 157 77 251.5t204 94.5q68 0 156.5 -21.5t148.5 -53.5q78 -41 110.5 -101.5t32.5 -171.5q0 -174 -89 -266t-257 -92q-174 0 -278.5 98t-104.5 262zM252 1077q0 -114 36 -174.5t103 -60.5q82 0 136.5 75.5t54.5 192.5t-42.5 187.5t-111.5 70.5q-80 0 -128 -78.5 t-48 -212.5z" />
<glyph unicode="&#xbb;" horiz-adv-x="938" d="M94 715q0 28 32 61t60 33q17 0 30.5 -7.5t31.5 -27.5l194 -213q15 -16 23 -36.5t8 -41.5t-5.5 -37.5t-16.5 -27.5l-203 -221q-12 -14 -25 -20.5t-28 -6.5q-24 0 -61.5 34.5t-37.5 51.5q0 22 27 44q8 7 12 11l133 140q7 8 10 15t3 13q0 7 -4 13.5t-21 23.5l-143 159 q-9 11 -14 21t-5 19zM492 715q0 28 31.5 61t60.5 33q17 0 31.5 -8t31.5 -27l195 -213q14 -16 22 -36.5t8 -41.5t-5.5 -37.5t-16.5 -27.5l-203 -221q-12 -14 -25 -20.5t-28 -6.5q-24 0 -61 34.5t-37 51.5q0 22 26 44q9 7 13 12l133 139q5 7 7.5 14t2.5 14t-4 13.5t-21 23.5 l-141 160q-11 13 -15.5 22t-4.5 17z" />
<glyph unicode="&#xbc;" horiz-adv-x="1546" d="M37 1331q0 23 11 30.5t48 14.5l189 33h6q16 0 26.5 -10t10.5 -25q0 -1 -1 -9.5t-1 -16.5t-0.5 -16.5t-1.5 -18.5l-5 -99q-4 -62 -6 -109t-2 -91q0 -47 2 -116t2 -91l9 -152v-4q0 -20 -9 -28.5t-30 -8.5h-99q-28 0 -36.5 8.5t-8.5 32.5l-10 574q0 15 -6 22.5t-21 12.5 l-36 12q-16 6 -23.5 19.5t-7.5 35.5zM76 33q0 6 3 13.5t9 16.5l864 1327q4 7 14.5 11t24.5 4q23 0 64 -25t41 -47q0 -8 -3 -17t-8 -16l-863 -1323q-3 -6 -14.5 -11t-25.5 -5q-23 0 -64.5 25t-41.5 47zM766 233q0 44 253 351l42 51l23 27q96 115 115 125q12 4 57 7t104 3 q30 -1 42.5 -9.5t12.5 -29.5q0 -5 -2 -18.5t-2 -22.5v-406q0 -14 6.5 -21t20.5 -7h69q12 0 21.5 -9.5t9.5 -21.5l-2 -49q-2 -22 -10 -30.5t-27 -8.5h-86q-9 0 -12.5 -4.5t-3.5 -18.5v-116q0 -29 -11.5 -37t-39.5 -8h-29q-60 0 -73 6t-13 28v125q0 14 -5.5 17.5t-23.5 3.5 l-366 -2q-40 0 -55 17t-15 58zM977 293q0 -5 7 -7.5t17 -2.5h244l-6 366q-118 -134 -190 -232.5t-72 -123.5z" />
<glyph unicode="&#xbd;" horiz-adv-x="1544" d="M37 1331q0 23 11 30.5t48 14.5l189 33h6q16 0 26.5 -10t10.5 -25q0 -1 -1 -9.5t-1 -16.5t-0.5 -16.5t-1.5 -18.5l-5 -99q-4 -62 -6 -109t-2 -91q0 -47 2 -116t2 -91l9 -152v-4q0 -20 -9 -28.5t-30 -8.5h-99q-28 0 -36.5 8.5t-8.5 32.5l-10 574q0 15 -6 22.5t-21 12.5 l-36 12q-16 6 -23.5 19.5t-7.5 35.5zM76 33q0 6 3 13.5t9 16.5l864 1327q4 7 14.5 11t24.5 4q23 0 64 -25t41 -47q0 -8 -3 -17t-8 -16l-863 -1323q-3 -6 -14.5 -11t-25.5 -5q-23 0 -64.5 25t-41.5 47zM805 385q0 51 15 108t44 117q52 109 114 150t167 41q173 0 266.5 -55 t93.5 -156q0 -99 -81.5 -216.5t-237.5 -242.5l298 -12q23 -2 29.5 -10t6.5 -37q0 -44 -15 -63t-51 -19q-6 0 -25 1t-32 1l-135 -2q-16 0 -45 1t-43 1q-92 0 -193.5 -8.5t-110.5 -8.5q-29 0 -39 15t-10 55q0 23 5 33t17 18q3 2 23 10q82 35 156 76q56 31 104.5 73.5 t87.5 96.5q51 69 78 128.5t27 101.5q0 48 -34 78t-89 30q-77 0 -134 -59t-97 -182q-6 -17 -10 -45q-9 -62 -76 -62q-43 0 -58.5 9t-15.5 34z" />
<glyph unicode="&#xbe;" horiz-adv-x="1944" d="M39 846q0 33 17.5 43t78.5 10q45 0 62.5 -8.5t17.5 -30.5v-12q0 -74 41 -121t104 -47q69 0 138 54t69 104q0 30 -38.5 48.5t-112.5 22.5q-7 1 -18 1q-66 3 -66 65q0 19 46 35q27 9 42 16q74 37 123 97.5t49 107.5q0 39 -24.5 61.5t-67.5 22.5q-69 0 -130.5 -41 t-121.5 -127q-9 -12 -20 -37q-21 -45 -50 -45q-66 0 -92.5 8.5t-26.5 30.5q0 10 17 51q5 13 8 20q20 52 38.5 86t41.5 62q42 50 95.5 74t121.5 24q179 0 292 -60t113 -155q0 -61 -44 -114t-138 -103q75 -18 116.5 -61t41.5 -103q0 -101 -102.5 -171t-256.5 -70 q-149 0 -256.5 79t-107.5 183zM473 33q0 6 3 13.5t9 16.5l865 1328q3 6 14 10t25 4q22 0 63 -25t41 -47q0 -8 -3 -17t-7 -15l-864 -1325q-4 -7 -15 -11t-24 -4q-24 0 -65.5 25t-41.5 47zM1163 233q0 44 253 351l42 51l23 27q96 115 114 124q13 5 58 8t104 3q30 -1 42.5 -9.5 t12.5 -29.5q0 -5 -2 -18.5t-2 -22.5v-406q0 -14 7 -21t20 -7h70q11 0 20.5 -9.5t9.5 -21.5l-2 -50q-1 -20 -9.5 -29t-27.5 -9h-86q-9 0 -12.5 -4.5t-3.5 -18.5v-116q0 -29 -11.5 -37t-39.5 -8h-29q-59 0 -72.5 6t-13.5 28v125q0 14 -5.5 17.5t-23.5 3.5l-366 -2 q-39 0 -54.5 17t-15.5 58zM1374 293q0 -5 7 -7.5t18 -2.5h243l-6 366q-118 -134 -190 -232.5t-72 -123.5z" />
<glyph unicode="&#xbf;" horiz-adv-x="1229" d="M53 342q0 122 162 352q76 107 115 170q31 51 57 119q26 66 70 66h4l149 -5q13 0 21 -8.5t8 -21.5q0 -8 -1 -12t-3 -9l-127 -284q-12 -28 -36 -79q-101 -214 -101 -311q0 -84 35 -130t100 -46q63 0 134.5 52t141.5 149q65 92 94 170q0 1 1 2q12 30 26 37.5t47 7.5h152 q17 0 27 -5.5t10 -14.5q0 -38 -47 -137.5t-119 -210.5q-74 -113 -169.5 -176.5t-189.5 -63.5q-79 0 -197.5 33t-211.5 84q-70 38 -111 111.5t-41 160.5zM410 1292q0 72 48.5 123t119.5 51q79 0 126.5 -41.5t47.5 -109.5q0 -77 -58 -133t-135 -56q-66 0 -107.5 46t-41.5 120z " />
<glyph unicode="&#xc0;" horiz-adv-x="1155" d="M0 12q0 6 1.5 14t4.5 19l406 1346q11 36 27.5 49.5t47.5 13.5l242 -6q48 -2 58.5 -11t21.5 -57l317 -1326q3 -14 3.5 -19.5t0.5 -9.5q0 -20 -8.5 -30.5t-25.5 -10.5l-195 2q-23 0 -35 9.5t-18 33.5l-53 196q-14 46 -46 66t-94 20h-10l-236 -6q-48 -2 -70.5 -17.5 t-35.5 -54.5l-65 -194q-3 -7 -6 -18q-13 -41 -48 -41h-133q-27 0 -39 7.5t-12 24.5zM303 1784q0 40 25 65t65 25q30 0 61.5 -19t73.5 -63l273 -280h-91l-313 164q-56 30 -75 53t-19 55zM403 551q0 -13 12 -23t27 -10l258 -4q11 0 20 7.5t9 17.5q0 5 -3 19q-1 4 -1 5 l-145 582l-168 -546q-4 -14 -6.5 -26.5t-2.5 -21.5z" />
<glyph unicode="&#xc1;" horiz-adv-x="1155" d="M0 12q0 6 1.5 14t4.5 19l406 1346q11 36 27.5 49.5t47.5 13.5l242 -6q48 -2 58.5 -11t21.5 -57l317 -1326q3 -14 3.5 -19.5t0.5 -9.5q0 -20 -8.5 -30.5t-25.5 -10.5l-195 2q-23 0 -35 9.5t-18 33.5l-53 196q-14 46 -46 66t-94 20h-10l-236 -6q-48 -2 -70.5 -17.5 t-35.5 -54.5l-65 -194q-3 -7 -6 -18q-13 -41 -48 -41h-133q-27 0 -39 7.5t-12 24.5zM403 551q0 -13 12 -23t27 -10l258 -4q11 0 20 7.5t9 17.5q0 5 -3 19q-1 4 -1 5l-145 582l-168 -546q-4 -14 -6.5 -26.5t-2.5 -21.5zM411 1512l273 280q42 44 73.5 63t61.5 19q40 0 65 -25 t25 -65q0 -32 -19 -55t-75 -53l-313 -164h-91z" />
<glyph unicode="&#xc2;" horiz-adv-x="1155" d="M0 12q0 6 1.5 14t4.5 19l406 1346q11 36 27.5 49.5t47.5 13.5l242 -6q48 -2 58.5 -11t21.5 -57l317 -1326q3 -14 3.5 -19.5t0.5 -9.5q0 -20 -8.5 -30.5t-25.5 -10.5l-195 2q-23 0 -35 9.5t-18 33.5l-53 196q-14 46 -46 66t-94 20h-10l-236 -6q-48 -2 -70.5 -17.5 t-35.5 -54.5l-65 -194q-3 -7 -6 -18q-13 -41 -48 -41h-133q-27 0 -39 7.5t-12 24.5zM307 1512l225 348h148l225 -348h-84l-215 178l-215 -178h-84zM403 551q0 -13 12 -23t27 -10l258 -4q11 0 20 7.5t9 17.5q0 5 -3 19q-1 4 -1 5l-145 582l-168 -546q-4 -14 -6.5 -26.5 t-2.5 -21.5z" />
<glyph unicode="&#xc3;" horiz-adv-x="1155" d="M0 12q0 6 1.5 14t4.5 19l406 1346q11 36 27.5 49.5t47.5 13.5l242 -6q48 -2 58.5 -11t21.5 -57l317 -1326q3 -14 3.5 -19.5t0.5 -9.5q0 -20 -8.5 -30.5t-25.5 -10.5l-195 2q-23 0 -35 9.5t-18 33.5l-53 196q-14 46 -46 66t-94 20h-10l-236 -6q-48 -2 -70.5 -17.5 t-35.5 -54.5l-65 -194q-3 -7 -6 -18q-13 -41 -48 -41h-133q-27 0 -39 7.5t-12 24.5zM315 1543q17 123 69.5 184t141.5 61q17 0 32.5 -2t31.5 -6l109 -27q11 -3 20 -4.5t18 -1.5q33 0 55 20.5t37 65.5h66q-17 -123 -70 -184t-143 -61q-13 0 -25.5 1.5t-24.5 4.5l-103 28 q-14 4 -26.5 5.5t-31.5 1.5q-33 0 -54 -20.5t-36 -65.5h-66zM403 551q0 -13 12 -23t27 -10l258 -4q11 0 20 7.5t9 17.5q0 5 -3 19q-1 4 -1 5l-145 582l-168 -546q-4 -14 -6.5 -26.5t-2.5 -21.5z" />
<glyph unicode="&#xc4;" horiz-adv-x="1155" d="M0 12q0 6 1.5 14t4.5 19l406 1346q11 36 27.5 49.5t47.5 13.5l242 -6q48 -2 58.5 -11t21.5 -57l317 -1326q3 -14 3.5 -19.5t0.5 -9.5q0 -20 -8.5 -30.5t-25.5 -10.5l-195 2q-23 0 -35 9.5t-18 33.5l-53 196q-14 46 -46 66t-94 20h-10l-236 -6q-48 -2 -70.5 -17.5 t-35.5 -54.5l-65 -194q-3 -7 -6 -18q-13 -41 -48 -41h-133q-27 0 -39 7.5t-12 24.5zM303 1676q0 48 36 83t85 35t84 -34.5t35 -83.5q0 -54 -33.5 -88.5t-85.5 -34.5q-51 0 -86 36t-35 87zM403 551q0 -13 12 -23t27 -10l258 -4q11 0 20 7.5t9 17.5q0 5 -3 19q-1 4 -1 5 l-145 582l-168 -546q-4 -14 -6.5 -26.5t-2.5 -21.5zM667 1676q0 48 36 83t85 35t84 -34.5t35 -83.5q0 -54 -33.5 -88.5t-85.5 -34.5q-50 0 -85.5 36t-35.5 87z" />
<glyph unicode="&#xc5;" horiz-adv-x="1155" d="M0 12q0 6 1.5 14t4.5 19l406 1346q12 37 27 50t42 13h6l242 -6q48 -2 58.5 -11t21.5 -57l317 -1326q3 -16 3.5 -24t0.5 -16q0 -10 -11 -20t-23 -10l-195 2q-23 0 -35 9.5t-18 33.5l-53 196q-14 46 -46 66t-94 20h-10l-236 -6q-48 -2 -70.5 -17.5t-35.5 -54.5l-65 -194 q-3 -7 -6 -18q-13 -41 -48 -41h-133q-27 0 -39 7.5t-12 24.5zM397 1718q0 98 69.5 162t178.5 64q95 0 154 -63.5t59 -164.5q0 -99 -63 -158t-170 -59q-100 0 -164 62t-64 157zM401 551q0 -12 13 -22.5t28 -10.5l258 -4q11 0 20 7.5t9 17.5q0 5 -3 19q-1 4 -1 5l-145 582 l-168 -546q-5 -17 -8 -29.5t-3 -18.5zM510 1696q0 -40 27.5 -66t70.5 -26q58 0 91.5 35t33.5 96q0 27 -9.5 52.5t-31.5 53.5h-18q-72 0 -118 -41t-46 -104z" />
<glyph unicode="&#xc6;" horiz-adv-x="1792" d="M-98 18q0 11 53.5 86.5t95.5 149.5q71 122 169.5 311.5t211.5 419.5q28 57 73 154q100 217 151 248q16 9 47.5 12.5t134.5 3.5q17 0 161 -4t271 -4h67l344 4h21q58 0 77 -11t19 -47q0 -97 -26 -119.5t-105 -25.5l-424 -14q-8 -1 -22 -1q-56 0 -56 -67l-4 -278 q0 -32 7 -42t32 -10h31l403 9q33 0 47.5 -12.5t14.5 -41.5q0 -108 -14 -142t-85 -38l-408 -27q-22 -1 -31 -16t-9 -67v-222q0 -18 12.5 -26t42.5 -8l438 4q24 0 43 -13t19 -28q0 -17 -12.5 -64.5t-24.5 -68.5q-13 -23 -49 -33t-109 -10l-555 -3q-46 0 -70 28t-24 81v14 l25 447q-237 -12 -361.5 -76.5t-208.5 -214.5q-38 -68 -76 -172t-75 -104q-17 0 -55.5 5t-61.5 5q-9 0 -46.5 -4t-66.5 -4q-12 0 -22 11.5t-10 24.5zM528 690q105 46 193 67t170 21l-6 338q0 26 -11.5 42t-29.5 16h-56q-74 -110 -157.5 -280t-102.5 -204z" />
<glyph unicode="&#xc7;" horiz-adv-x="1247" d="M74 604q0 356 131.5 597t318.5 241q164 0 310 -38.5t202 -92.5q54 -54 93.5 -190t39.5 -283q0 -38 -16.5 -57.5t-48.5 -20.5l-96 -4h-17q-46 0 -58 93q-4 33 -7 54q-26 168 -90 264.5t-150 96.5q-121 0 -215 -193t-94 -471q0 -259 53 -374t170 -115q74 0 150.5 51.5 t160.5 159.5q27 34 54 84q29 57 71 57h121q27 0 39 -9.5t12 -29.5q0 -53 -54.5 -149.5t-143.5 -198.5q-58 -65 -125 -94t-162 -29q-325 0 -487 162.5t-162 488.5zM375 -375l41 88q78 -42 133.5 -57.5t114.5 -15.5q39 0 62.5 22t23.5 59q0 43 -26 64.5t-79 21.5 q-13 0 -27.5 -1.5t-28.5 -3.5l-1 198h70v-113q24 3 42.5 4.5t30.5 2.5q80 0 129.5 -47t49.5 -123q0 -85 -60.5 -133t-169.5 -48q-54 0 -120 17t-185 65z" />
<glyph unicode="&#xc8;" horiz-adv-x="1090" d="M117 111q0 31 12 255t12 416q0 287 -16 529q-2 28 -2 32q0 40 18 53t68 13q4 0 26 -1q215 -13 482 -13q123 0 234 3q18 1 22 1q46 0 61 -14.5t15 -86.5q0 -98 -179 -105q-24 -1 -36 -1l-305 -10q-82 -4 -98.5 -16.5t-16.5 -80.5v-10l-2 -250v-8q0 -22 4.5 -26t27.5 -5h13 l370 2q33 0 67 2q8 1 9 1q37 0 45 -21.5t8 -93.5q0 -115 -167 -123q-32 -1 -52 -2l-274 -14q-32 -2 -48 -14t-16 -36l2 -237q0 -37 9.5 -47t50.5 -10h274q63 0 123 3q10 1 12 1q39 0 55.5 -15.5t16.5 -52.5q0 -100 -40.5 -127t-203.5 -27h-45l-448 2q-46 0 -67 32t-21 102z M291 1784q0 40 25 65t65 25q30 0 61.5 -19t73.5 -63l273 -280h-91l-313 164q-56 30 -75 53t-19 55z" />
<glyph unicode="&#xc9;" horiz-adv-x="1090" d="M117 111q0 31 12 255t12 416q0 287 -16 529q-2 28 -2 32q0 40 18 53t68 13q4 0 26 -1q215 -13 482 -13q123 0 234 3q18 1 22 1q46 0 61 -14.5t15 -86.5q0 -98 -179 -105q-24 -1 -36 -1l-305 -10q-82 -4 -98.5 -16.5t-16.5 -80.5v-10l-2 -250v-8q0 -22 4.5 -26t27.5 -5h13 l370 2q33 0 67 2q8 1 9 1q37 0 45 -21.5t8 -93.5q0 -115 -167 -123q-32 -1 -52 -2l-274 -14q-32 -2 -48 -14t-16 -36l2 -237q0 -37 9.5 -47t50.5 -10h274q63 0 123 3q10 1 12 1q39 0 55.5 -15.5t16.5 -52.5q0 -100 -40.5 -127t-203.5 -27h-45l-448 2q-46 0 -67 32t-21 102z M399 1512l273 280q42 44 73.5 63t61.5 19q40 0 65 -25t25 -65q0 -32 -19 -55t-75 -53l-313 -164h-91z" />
<glyph unicode="&#xca;" horiz-adv-x="1090" d="M117 111q0 31 12 255t12 416q0 287 -16 529q-2 28 -2 32q0 40 18 53t68 13q4 0 26 -1q215 -13 482 -13q123 0 234 3q18 1 22 1q46 0 61 -14.5t15 -86.5q0 -98 -179 -105q-24 -1 -36 -1l-305 -10q-82 -4 -98.5 -16.5t-16.5 -80.5v-10l-2 -250v-8q0 -22 4.5 -26t27.5 -5h13 l370 2q33 0 67 2q8 1 9 1q37 0 45 -21.5t8 -93.5q0 -115 -167 -123q-32 -1 -52 -2l-274 -14q-32 -2 -48 -14t-16 -36l2 -237q0 -37 9.5 -47t50.5 -10h274q63 0 123 3q10 1 12 1q39 0 55.5 -15.5t16.5 -52.5q0 -100 -40.5 -127t-203.5 -27h-45l-448 2q-46 0 -67 32t-21 102z M295 1512l225 348h148l225 -348h-84l-215 178l-215 -178h-84z" />
<glyph unicode="&#xcb;" horiz-adv-x="1090" d="M117 111q0 31 12 255t12 416q0 287 -16 529q-2 28 -2 32q0 40 18 53t68 13q4 0 26 -1q215 -13 482 -13q123 0 234 3q18 1 22 1q46 0 61 -14.5t15 -86.5q0 -98 -179 -105q-24 -1 -36 -1l-305 -10q-82 -4 -98.5 -16.5t-16.5 -80.5v-10l-2 -250v-8q0 -22 4.5 -26t27.5 -5h13 l370 2q33 0 67 2q8 1 9 1q37 0 45 -21.5t8 -93.5q0 -115 -167 -123q-32 -1 -52 -2l-274 -14q-32 -2 -48 -14t-16 -36l2 -237q0 -37 9.5 -47t50.5 -10h274q63 0 123 3q10 1 12 1q39 0 55.5 -15.5t16.5 -52.5q0 -100 -40.5 -127t-203.5 -27h-45l-448 2q-46 0 -67 32t-21 102z M291 1676q0 48 36 83t85 35t84 -34.5t35 -83.5q0 -54 -33.5 -88.5t-85.5 -34.5q-51 0 -86 36t-35 87zM655 1676q0 48 36 83t85 35t84 -34.5t35 -83.5q0 -54 -33.5 -88.5t-85.5 -34.5q-50 0 -85.5 36t-35.5 87z" />
<glyph unicode="&#xcc;" horiz-adv-x="616" d="M6 1784q0 40 25 65t65 25q30 0 61.5 -19t73.5 -63l273 -280h-91l-313 164q-56 30 -75 53t-19 55zM141 1327q0 50 53 74t164 24q54 0 78.5 -14t24.5 -45q0 -4 -2 -26q-17 -187 -17 -410q0 -89 3.5 -274t3.5 -281q0 -32 -1.5 -96t-1.5 -95q0 -50 5 -106q2 -15 2 -19 q0 -39 -20.5 -52t-90.5 -13q-138 0 -161 14t-23 86q0 34 4 151t4 201q0 453 -22 835q-3 40 -3 46z" />
<glyph unicode="&#xcd;" horiz-adv-x="616" d="M114 1512l273 280q42 44 73.5 63t61.5 19q40 0 65 -25t25 -65q0 -32 -19 -55t-75 -53l-313 -164h-91zM141 1327q0 50 53 74t164 24q54 0 78.5 -14t24.5 -45q0 -4 -2 -26q-17 -187 -17 -410q0 -89 3.5 -274t3.5 -281q0 -32 -1.5 -96t-1.5 -95q0 -50 5 -106q2 -15 2 -19 q0 -39 -20.5 -52t-90.5 -13q-138 0 -161 14t-23 86q0 34 4 151t4 201q0 453 -22 835q-3 40 -3 46z" />
<glyph unicode="&#xce;" horiz-adv-x="616" d="M10 1512l225 348h148l225 -348h-84l-215 178l-215 -178h-84zM141 1327q0 50 53 74t164 24q54 0 78.5 -14t24.5 -45q0 -4 -2 -26q-17 -187 -17 -410q0 -89 3.5 -274t3.5 -281q0 -32 -1.5 -96t-1.5 -95q0 -50 5 -106q2 -15 2 -19q0 -39 -20.5 -52t-90.5 -13q-138 0 -161 14 t-23 86q0 34 4 151t4 201q0 453 -22 835q-3 40 -3 46z" />
<glyph unicode="&#xcf;" horiz-adv-x="616" d="M6 1676q0 48 36 83t85 35t84 -34.5t35 -83.5q0 -54 -33.5 -88.5t-85.5 -34.5q-51 0 -86 36t-35 87zM141 1327q0 50 53 74t164 24q54 0 78.5 -14t24.5 -45q0 -4 -2 -26q-17 -187 -17 -410q0 -89 3.5 -274t3.5 -281q0 -32 -1.5 -96t-1.5 -95q0 -50 5 -106q2 -15 2 -19 q0 -39 -20.5 -52t-90.5 -13q-138 0 -161 14t-23 86q0 34 4 151t4 201q0 453 -22 835q-3 40 -3 46zM370 1676q0 48 36 83t85 35t84 -34.5t35 -83.5q0 -54 -33.5 -88.5t-85.5 -34.5q-50 0 -85.5 36t-35.5 87z" />
<glyph unicode="&#xd0;" horiz-adv-x="1266" d="M0 653v60q0 38 7.5 48.5t27.5 10.5h104v209q0 157 -22 321q-4 32 -4 39q0 54 66.5 77.5t226.5 23.5q368 0 581 -190t213 -517q0 -368 -187 -592.5t-493 -224.5q-96 0 -240 28l-51 9q-15 2 -42 6q-60 7 -60 23l6 59t6 117l2 450h-106q-12 0 -23.5 13.5t-11.5 29.5z M416 217q0 -77 13 -102t50 -25q192 0 328.5 189t136.5 481q0 235 -91 355t-269 120q-85 0 -123.5 -24t-38.5 -78q0 -16 -2.5 -134.5t-3.5 -225.5l258 -1q19 0 28 -12t9 -39v-59q0 -27 -6.5 -39.5t-20.5 -12.5h-268v-250v-143z" />
<glyph unicode="&#xd1;" horiz-adv-x="1262" d="M104 37q0 1 1 7q1 29 1 58l27 1250q0 37 62.5 52t214.5 15q74 0 93 -9t19 -54q0 -139 88 -347v-1l238 -570q3 -7 9 -11.5t13 -4.5q9 0 14 9.5t5 25.5l10 893q0 50 28 63.5t107 13.5q84 0 104.5 -7t20.5 -34q0 -8 -2 -30.5t-2 -36.5v-23v-18l-14 -266q-13 -222 -18 -371 t-5 -279v-331q0 -44 -43 -56t-160 -12q-44 0 -75 4.5t-56 14.5l-442 956l10 -879q0 -45 -20.5 -55t-108.5 -10q-79 0 -99 8t-20 35zM340 1543q17 123 69.5 184t141.5 61q17 0 32.5 -2t31.5 -6l109 -27q11 -3 20 -4.5t18 -1.5q33 0 55 20.5t37 65.5h66q-17 -123 -70 -184 t-143 -61q-13 0 -25.5 1.5t-24.5 4.5l-103 28q-14 4 -26.5 5.5t-31.5 1.5q-33 0 -54 -20.5t-36 -65.5h-66z" />
<glyph unicode="&#xd2;" horiz-adv-x="1360" d="M61 680q0 156 40 304t108 251q68 104 161 153.5t224 49.5q321 0 511.5 -206.5t190.5 -559.5q0 -337 -152.5 -525t-426.5 -188q-300 0 -478 194t-178 527zM377 580q0 -215 78 -343t207 -128q142 0 231.5 169t89.5 445q0 238 -73 378t-193 140q-161 0 -250.5 -173 t-89.5 -488zM377 1784q0 40 25 65t65 25q30 0 61.5 -19t73.5 -63l273 -280h-91l-313 164q-56 30 -75 53t-19 55z" />
<glyph unicode="&#xd3;" horiz-adv-x="1360" d="M61 680q0 156 40 304t108 251q68 104 161 153.5t224 49.5q321 0 511.5 -206.5t190.5 -559.5q0 -337 -152.5 -525t-426.5 -188q-300 0 -478 194t-178 527zM377 580q0 -215 78 -343t207 -128q142 0 231.5 169t89.5 445q0 238 -73 378t-193 140q-161 0 -250.5 -173 t-89.5 -488zM485 1512l273 280q42 44 73.5 63t61.5 19q40 0 65 -25t25 -65q0 -32 -19 -55t-75 -53l-313 -164h-91z" />
<glyph unicode="&#xd4;" horiz-adv-x="1360" d="M61 680q0 156 40 304t108 251q68 104 161 153.5t224 49.5q321 0 511.5 -206.5t190.5 -559.5q0 -337 -152.5 -525t-426.5 -188q-300 0 -478 194t-178 527zM377 580q0 -215 78 -343t207 -128q142 0 231.5 169t89.5 445q0 238 -73 378t-193 140q-161 0 -250.5 -173 t-89.5 -488zM381 1512l225 348h148l225 -348h-84l-215 178l-215 -178h-84z" />
<glyph unicode="&#xd5;" horiz-adv-x="1360" d="M61 680q0 156 40 304t108 251q68 104 161 153.5t224 49.5q321 0 511.5 -206.5t190.5 -559.5q0 -337 -152.5 -525t-426.5 -188q-300 0 -478 194t-178 527zM377 580q0 -215 78 -343t207 -128q142 0 231.5 169t89.5 445q0 238 -73 378t-193 140q-161 0 -250.5 -173 t-89.5 -488zM389 1543q17 123 69.5 184t141.5 61q17 0 32.5 -2t31.5 -6l109 -27q11 -3 20 -4.5t18 -1.5q33 0 55 20.5t37 65.5h66q-17 -123 -70 -184t-143 -61q-13 0 -25.5 1.5t-24.5 4.5l-103 28q-14 4 -26.5 5.5t-31.5 1.5q-33 0 -54 -20.5t-36 -65.5h-66z" />
<glyph unicode="&#xd6;" horiz-adv-x="1360" d="M61 680q0 156 40 304t108 251q68 104 161 153.5t224 49.5q321 0 511.5 -206.5t190.5 -559.5q0 -337 -152.5 -525t-426.5 -188q-300 0 -478 194t-178 527zM377 580q0 -215 78 -343t207 -128q142 0 231.5 169t89.5 445q0 238 -73 378t-193 140q-161 0 -250.5 -173 t-89.5 -488zM377 1676q0 48 36 83t85 35t84 -34.5t35 -83.5q0 -54 -33.5 -88.5t-85.5 -34.5q-51 0 -86 36t-35 87zM741 1676q0 48 36 83t85 35t84 -34.5t35 -83.5q0 -54 -33.5 -88.5t-85.5 -34.5q-50 0 -85.5 36t-35.5 87z" />
<glyph unicode="&#xd7;" horiz-adv-x="1706" d="M287 152l458 458l-458 461l116 117l459 -459l461 459l117 -117l-459 -461l459 -458l-117 -119l-461 461l-459 -461z" />
<glyph unicode="&#xd8;" horiz-adv-x="1360" d="M55 659q0 190 45 348t131 271q68 89 146 126.5t196 37.5q128 0 218 -22.5t147 -69.5q7 9 21 28q73 99 98 99q32 0 85.5 -42.5t53.5 -76.5q0 -29 -92 -137q100 -94 149.5 -226.5t49.5 -306.5q0 -334 -154 -529.5t-416 -195.5q-113 0 -202.5 20t-157.5 60l-70 -127 q-10 -18 -30 -29.5t-42 -11.5q-37 0 -84 26t-47 52q0 13 22 41q12 16 17 24l84 138q-85 91 -126.5 214.5t-41.5 288.5zM371 606q0 -33 4 -73.5t12 -90.5q120 181 236 366t231 380q-30 35 -69 52t-87 17q-156 0 -241.5 -169t-85.5 -482zM469 219q40 -56 86 -82t102 -26 q144 0 236 175.5t92 454.5q0 84 -9.5 147.5t-29.5 121.5q-127 -208 -246 -405t-231 -386z" />
<glyph unicode="&#xd9;" horiz-adv-x="1327" d="M127 911q0 202 8 282t27 110q17 27 44.5 37t110.5 10q68 0 89.5 -19.5t21.5 -73.5q0 -10 -2 -40.5t-2 -53.5l-4 -456v-60q0 -284 36 -400t122 -116q70 0 138.5 63.5t117.5 174.5q37 86 53 202.5t16 315.5v80l-4 346q0 59 21 85.5t67 26.5q5 0 14.5 -1t14.5 -1h106 q48 0 65 -20t17 -76q0 -6 -1 -20t-1 -23l-10 -207q-8 -178 -12 -343t-4 -306v-225l-2 -158q0 -49 -31.5 -63.5t-124.5 -14.5q-55 0 -74.5 12t-23.5 46l-17 122q-70 -93 -144.5 -138.5t-158.5 -45.5q-106 0 -220.5 59t-166.5 144q-47 77 -66.5 236.5t-19.5 508.5zM361 1784 q0 40 25 65t65 25q30 0 61.5 -19t73.5 -63l273 -280h-91l-313 164q-56 30 -75 53t-19 55z" />
<glyph unicode="&#xda;" horiz-adv-x="1327" d="M127 911q0 202 8 282t27 110q17 27 44.5 37t110.5 10q68 0 89.5 -19.5t21.5 -73.5q0 -10 -2 -40.5t-2 -53.5l-4 -456v-60q0 -284 36 -400t122 -116q70 0 138.5 63.5t117.5 174.5q37 86 53 202.5t16 315.5v80l-4 346q0 59 21 85.5t67 26.5q5 0 14.5 -1t14.5 -1h106 q48 0 65 -20t17 -76q0 -6 -1 -20t-1 -23l-10 -207q-8 -178 -12 -343t-4 -306v-225l-2 -158q0 -49 -31.5 -63.5t-124.5 -14.5q-55 0 -74.5 12t-23.5 46l-17 122q-70 -93 -144.5 -138.5t-158.5 -45.5q-106 0 -220.5 59t-166.5 144q-47 77 -66.5 236.5t-19.5 508.5zM469 1512 l273 280q42 44 73.5 63t61.5 19q40 0 65 -25t25 -65q0 -32 -19 -55t-75 -53l-313 -164h-91z" />
<glyph unicode="&#xdb;" horiz-adv-x="1327" d="M127 911q0 202 8 282t27 110q17 27 44.5 37t110.5 10q68 0 89.5 -19.5t21.5 -73.5q0 -10 -2 -40.5t-2 -53.5l-4 -456v-60q0 -284 36 -400t122 -116q70 0 138.5 63.5t117.5 174.5q37 86 53 202.5t16 315.5v80l-4 346q0 59 21 85.5t67 26.5q5 0 14.5 -1t14.5 -1h106 q48 0 65 -20t17 -76q0 -6 -1 -20t-1 -23l-10 -207q-8 -178 -12 -343t-4 -306v-225l-2 -158q0 -49 -31.5 -63.5t-124.5 -14.5q-55 0 -74.5 12t-23.5 46l-17 122q-70 -93 -144.5 -138.5t-158.5 -45.5q-106 0 -220.5 59t-166.5 144q-47 77 -66.5 236.5t-19.5 508.5zM365 1512 l225 348h148l225 -348h-84l-215 178l-215 -178h-84z" />
<glyph unicode="&#xdc;" horiz-adv-x="1327" d="M127 911q0 202 8 282t27 110q17 27 44.5 37t110.5 10q68 0 89.5 -19.5t21.5 -73.5q0 -10 -2 -40.5t-2 -53.5l-4 -456v-60q0 -284 36 -400t122 -116q70 0 138.5 63.5t117.5 174.5q37 86 53 202.5t16 315.5v80l-4 346q0 59 21 85.5t67 26.5q5 0 14.5 -1t14.5 -1h106 q48 0 65 -20t17 -76q0 -6 -1 -20t-1 -23l-10 -207q-8 -178 -12 -343t-4 -306v-225l-2 -158q0 -49 -31.5 -63.5t-124.5 -14.5q-55 0 -74.5 12t-23.5 46l-17 122q-70 -93 -144.5 -138.5t-158.5 -45.5q-106 0 -220.5 59t-166.5 144q-47 77 -66.5 236.5t-19.5 508.5zM361 1676 q0 48 36 83t85 35t84 -34.5t35 -83.5q0 -54 -33.5 -88.5t-85.5 -34.5q-51 0 -86 36t-35 87zM725 1676q0 48 36 83t85 35t84 -34.5t35 -83.5q0 -54 -33.5 -88.5t-85.5 -34.5q-50 0 -85.5 36t-35.5 87z" />
<glyph unicode="&#xdd;" horiz-adv-x="1161" d="M-51 1364q0 16 47 25.5t127 9.5q43 0 65.5 -9.5t47.5 -46.5l333 -507l265 494q1 2 3 5q24 43 66 45l252 9q11 0 21 -8.5t10 -16.5q0 -5 -4.5 -15.5t-11.5 -22.5l-390 -669q-1 -2 -5 -9q-34 -57 -34 -118l-4 -456q0 -60 -27 -72t-153 -12q-63 0 -83.5 12t-20.5 49l4 432 q0 41 -8.5 70.5t-28.5 60.5l-458 718q-6 9 -9.5 18t-3.5 14zM387 1512l273 280q42 44 73.5 63t61.5 19q40 0 65 -25t25 -65q0 -32 -19 -55t-75 -53l-313 -164h-91z" />
<glyph unicode="&#xde;" horiz-adv-x="1186" d="M94 1368q0 42 31 56t141 14q106 0 136 -14t30 -56q0 -16 -4.5 -51t-13.5 -88h37q328 0 525.5 -145t197.5 -377q0 -103 -47 -186.5t-138 -143.5q-85 -55 -197.5 -88t-218.5 -33q-6 0 -24.5 1t-30.5 1q-58 0 -78 -17t-20 -69q0 -25 -2 -51v-8v-84q0 -38 -30 -49t-103 -11 h-39q-14 0 -31.5 -1t-21.5 -1q-32 0 -48 14t-16 42q0 11 3 53.5t3 73.5l-8 681q-3 265 -29 501q-4 31 -4 36zM408 541q0 -59 13.5 -73.5t53.5 -14.5q167 0 271 83.5t104 217.5q0 119 -71 189.5t-191 70.5q-84 0 -131 -21.5t-47 -58.5z" />
<glyph unicode="&#xdf;" horiz-adv-x="1233" d="M100 94q0 14 4.5 62.5t4.5 85.5l6 790q2 334 72 416t255 82q238 0 378.5 -105t140.5 -282q0 -82 -32.5 -138t-133.5 -122q-82 -53 -110 -87.5t-28 -74.5q0 -36 28.5 -61.5t102.5 -53.5l218 -80q94 -34 138 -91t44 -144q0 -145 -109 -236.5t-284 -91.5 q-158 0 -263.5 108.5t-105.5 256.5q0 37 35 60.5t90 23.5q54 0 80 -82q10 -30 16 -47q37 -96 74 -137.5t86 -41.5q54 0 95.5 54.5t41.5 126.5q0 77 -109 116q-30 10 -44 17l-201 92q-81 37 -121.5 95t-40.5 138q0 65 32 108.5t118 88.5q7 4 21 11q144 74 144 188 q0 100 -71.5 165.5t-182.5 65.5q-149 0 -151 -247v-40l-6 -729q0 -79 6 -181t6 -126q0 -45 -21 -60.5t-83 -15.5q-80 0 -110 25t-30 98z" />
<glyph unicode="&#xe0;" horiz-adv-x="985" d="M57 248q0 124 103.5 199.5t292.5 89.5l158 10q33 3 42 22t9 97q0 89 -33.5 139.5t-91.5 50.5q-54 0 -104.5 -51t-82.5 -138q-3 -9 -9 -26q-28 -84 -79 -84q-110 0 -148 12t-38 45q0 16 21 59q13 26 20 42q3 8 10 26q30 78 63 123q45 60 103.5 87.5t140.5 27.5 q114 0 213.5 -27t151.5 -69q47 -40 66.5 -103.5t19.5 -208.5v-122v-279q0 -71 5 -139q1 -12 1 -15q0 -29 -31 -40t-145 -11l-60 62q-7 7 -13 10.5t-11 3.5q-4 0 -18 -9q-91 -59 -216 -59q-151 0 -245.5 77t-94.5 198zM227 1333q0 40 25 65t65 25q30 0 61.5 -19t73.5 -63 l273 -280h-91l-313 164q-56 30 -75 53t-19 55zM295 176q0 -39 21.5 -58.5t64.5 -19.5q98 0 181 74t83 180q0 42 -7 61t-22 19q-114 0 -217.5 -79t-103.5 -177z" />
<glyph unicode="&#xe1;" horiz-adv-x="985" d="M57 248q0 124 103.5 199.5t292.5 89.5l158 10q33 3 42 22t9 97q0 89 -33.5 139.5t-91.5 50.5q-54 0 -104.5 -51t-82.5 -138q-3 -9 -9 -26q-28 -84 -79 -84q-110 0 -148 12t-38 45q0 16 21 59q13 26 20 42q3 8 10 26q30 78 63 123q45 60 103.5 87.5t140.5 27.5 q114 0 213.5 -27t151.5 -69q47 -40 66.5 -103.5t19.5 -208.5v-122v-279q0 -71 5 -139q1 -12 1 -15q0 -29 -31 -40t-145 -11l-60 62q-7 7 -13 10.5t-11 3.5q-4 0 -18 -9q-91 -59 -216 -59q-151 0 -245.5 77t-94.5 198zM295 176q0 -39 21.5 -58.5t64.5 -19.5q98 0 181 74 t83 180q0 42 -7 61t-22 19q-114 0 -217.5 -79t-103.5 -177zM335 1061l273 280q42 44 73.5 63t61.5 19q40 0 65 -25t25 -65q0 -32 -19 -55t-75 -53l-313 -164h-91z" />
<glyph unicode="&#xe2;" horiz-adv-x="985" d="M57 248q0 124 103.5 199.5t292.5 89.5l158 10q33 3 42 22t9 97q0 89 -33.5 139.5t-91.5 50.5q-54 0 -104.5 -51t-82.5 -138q-3 -9 -9 -26q-28 -84 -79 -84q-110 0 -148 12t-38 45q0 16 21 59q13 26 20 42q3 8 10 26q30 78 63 123q45 60 103.5 87.5t140.5 27.5 q114 0 213.5 -27t151.5 -69q47 -40 66.5 -103.5t19.5 -208.5v-122v-279q0 -71 5 -139q1 -12 1 -15q0 -29 -31 -40t-145 -11l-60 62q-7 7 -13 10.5t-11 3.5q-4 0 -18 -9q-91 -59 -216 -59q-151 0 -245.5 77t-94.5 198zM231 1061l225 348h148l225 -348h-84l-215 178l-215 -178 h-84zM295 176q0 -39 21.5 -58.5t64.5 -19.5q98 0 181 74t83 180q0 42 -7 61t-22 19q-114 0 -217.5 -79t-103.5 -177z" />
<glyph unicode="&#xe3;" horiz-adv-x="985" d="M57 248q0 124 103.5 199.5t292.5 89.5l158 10q33 3 42 22t9 97q0 89 -33.5 139.5t-91.5 50.5q-54 0 -104.5 -51t-82.5 -138q-3 -9 -9 -26q-28 -84 -79 -84q-110 0 -148 12t-38 45q0 16 21 59q13 26 20 42q3 8 10 26q30 78 63 123q45 60 103.5 87.5t140.5 27.5 q114 0 213.5 -27t151.5 -69q47 -40 66.5 -103.5t19.5 -208.5v-122v-279q0 -71 5 -139q1 -12 1 -15q0 -29 -31 -40t-145 -11l-60 62q-7 7 -13 10.5t-11 3.5q-4 0 -18 -9q-91 -59 -216 -59q-151 0 -245.5 77t-94.5 198zM239 1092q17 123 69.5 184t141.5 61q17 0 32.5 -2 t31.5 -6l109 -27q11 -3 20 -4.5t18 -1.5q33 0 55 20.5t37 65.5h66q-17 -123 -70 -184t-143 -61q-13 0 -25.5 1.5t-24.5 4.5l-103 28q-14 4 -26.5 5.5t-31.5 1.5q-33 0 -54 -20.5t-36 -65.5h-66zM295 176q0 -39 21.5 -58.5t64.5 -19.5q98 0 181 74t83 180q0 42 -7 61t-22 19 q-114 0 -217.5 -79t-103.5 -177z" />
<glyph unicode="&#xe4;" horiz-adv-x="985" d="M57 248q0 124 103.5 199.5t292.5 89.5l158 10q33 3 42 22t9 97q0 89 -33.5 139.5t-91.5 50.5q-54 0 -104.5 -51t-82.5 -138q-3 -9 -9 -26q-28 -84 -79 -84q-110 0 -148 12t-38 45q0 16 21 59q13 26 20 42q3 8 10 26q30 78 63 123q45 60 103.5 87.5t140.5 27.5 q114 0 213.5 -27t151.5 -69q47 -40 66.5 -103.5t19.5 -208.5v-122v-279q0 -71 5 -139q1 -12 1 -15q0 -29 -31 -40t-145 -11l-60 62q-7 7 -13 10.5t-11 3.5q-4 0 -18 -9q-91 -59 -216 -59q-151 0 -245.5 77t-94.5 198zM227 1225q0 48 36 83t85 35t84 -34.5t35 -83.5 q0 -54 -33.5 -88.5t-85.5 -34.5q-51 0 -86 36t-35 87zM295 176q0 -39 21.5 -58.5t64.5 -19.5q98 0 181 74t83 180q0 42 -7 61t-22 19q-114 0 -217.5 -79t-103.5 -177zM591 1225q0 48 36 83t85 35t84 -34.5t35 -83.5q0 -54 -33.5 -88.5t-85.5 -34.5q-50 0 -85.5 36t-35.5 87z " />
<glyph unicode="&#xe5;" horiz-adv-x="985" d="M57 248q0 124 103.5 199.5t292.5 89.5l158 10q33 3 42 22t9 97q0 89 -33.5 139.5t-91.5 50.5q-54 0 -104.5 -51t-82.5 -138q-3 -9 -9 -26q-28 -84 -79 -84q-110 0 -148 12t-38 45q0 16 21 59q13 26 20 42q3 8 10 26q30 78 63 123q45 60 103.5 87.5t140.5 27.5 q114 0 213.5 -27t151.5 -69q47 -40 66.5 -103.5t19.5 -208.5v-122v-279q0 -71 5 -139q1 -12 1 -15q0 -29 -31 -40t-145 -11l-60 62q-7 7 -13 10.5t-11 3.5q-4 0 -18 -9q-91 -59 -216 -59q-151 0 -245.5 77t-94.5 198zM295 176q0 -39 21.5 -58.5t64.5 -19.5q98 0 181 74 t83 180q0 42 -7 61t-22 19q-114 0 -217.5 -79t-103.5 -177zM352 1190q0 81 53.5 133.5t137.5 52.5q23 0 48.5 -8.5t70.5 -32.5q53 -31 67 -55.5t14 -71.5q0 -92 -53.5 -144t-148.5 -52q-82 0 -135.5 50.5t-53.5 127.5zM459 1182q0 -36 30 -63t68 -27q41 0 71.5 30t30.5 70 q0 25 -11 48.5t-34 47.5q-6 1 -13 1.5t-19 0.5q-52 0 -87.5 -32t-35.5 -76z" />
<glyph unicode="&#xe6;" horiz-adv-x="1542" d="M57 248q0 124 103.5 199.5t292.5 89.5l158 10q33 3 42 22t9 97q0 89 -33.5 139.5t-91.5 50.5q-54 0 -104.5 -51t-82.5 -138q-3 -9 -9 -26q-28 -84 -79 -84q-110 0 -148 12t-38 45q0 16 21 59q13 26 20 42q3 8 10 26q30 78 63 123q44 59 103 87t139 28q121 0 215 -26 t144 -72q50 55 99 80.5t103 25.5q102 0 221 -41.5t170 -93.5q53 -53 88 -152.5t35 -197.5q0 -71 -134 -90h-3l-449 -60q-19 -3 -26.5 -14t-7.5 -35q0 -80 46.5 -135t113.5 -55q50 0 104.5 33t91.5 85q5 7 12 19q44 65 95 65q12 0 35.5 -1t35.5 -1h19q35 0 51 -8.5t16 -25.5 q0 -16 -19.5 -47t-72.5 -97q-80 -98 -143.5 -131t-151.5 -33q-102 0 -214 37t-179 94q-96 -70 -168 -99.5t-147 -29.5q-161 0 -258 75.5t-97 199.5zM295 176q0 -39 21.5 -58.5t64.5 -19.5q98 0 181 74t83 180q0 42 -7 61t-22 19q-114 0 -217.5 -79t-103.5 -177zM889 567 q0 -15 3.5 -18.5t16.5 -3.5h15l222 22q51 5 67 15t16 39q0 93 -38 153t-97 60q-73 0 -139 -91t-66 -176z" />
<glyph unicode="&#xe7;" horiz-adv-x="1014" d="M72 453q0 253 89 392.5t251 139.5q136 0 271 -48t194 -112q38 -43 56.5 -115t18.5 -180q0 -34 -11.5 -44.5t-49.5 -10.5q-103 0 -132.5 13.5t-35.5 70.5q-13 129 -64 210t-116 81q-85 0 -145 -126t-60 -314q0 -154 43 -238t121 -84q56 0 107.5 39.5t111.5 130.5 q3 6 10 15q35 57 84 57q4 0 27 -1t41 -1q60 0 78 -10t18 -33q0 -25 -28 -73.5t-77 -107.5q-71 -85 -137.5 -120t-156.5 -35q-264 0 -386 120.5t-122 383.5zM258 -375l41 88q78 -42 133.5 -57.5t114.5 -15.5q39 0 62.5 22t23.5 59q0 43 -26 64.5t-79 21.5q-13 0 -27.5 -1.5 t-28.5 -3.5l-1 198h70v-113q24 3 42.5 4.5t30.5 2.5q80 0 129.5 -47t49.5 -123q0 -85 -60.5 -133t-169.5 -48q-54 0 -120 17t-185 65z" />
<glyph unicode="&#xe8;" horiz-adv-x="995" d="M70 438q0 241 100 394t256 153q106 0 229.5 -41.5t173.5 -93.5q53 -53 88 -153t35 -199q0 -69 -126 -87q-8 -1 -11 -1l-449 -62q-18 -3 -26 -14t-8 -35q0 -80 46 -134t114 -54q50 0 105 32t91 84q5 7 12 19q44 65 95 65q12 0 35.5 -1t35.5 -1q4 0 9.5 1t7.5 1 q34 0 51.5 -9t17.5 -28q0 -15 -19.5 -46t-72.5 -97q-78 -95 -143 -129.5t-154 -34.5q-94 0 -201 34.5t-163 80.5q-65 52 -97 141t-32 215zM236 1333q0 40 25 65t65 25q30 0 61.5 -19t73.5 -63l273 -280h-91l-313 164q-56 30 -75 53t-19 55zM334 565q0 -16 4.5 -20t17.5 -4 h13l223 22q46 4 64 15t18 36q0 96 -38 155.5t-97 59.5q-74 0 -139.5 -89.5t-65.5 -174.5z" />
<glyph unicode="&#xe9;" horiz-adv-x="995" d="M70 438q0 241 100 394t256 153q106 0 229.5 -41.5t173.5 -93.5q53 -53 88 -153t35 -199q0 -69 -126 -87q-8 -1 -11 -1l-449 -62q-18 -3 -26 -14t-8 -35q0 -80 46 -134t114 -54q50 0 105 32t91 84q5 7 12 19q44 65 95 65q12 0 35.5 -1t35.5 -1q4 0 9.5 1t7.5 1 q34 0 51.5 -9t17.5 -28q0 -15 -19.5 -46t-72.5 -97q-78 -95 -143 -129.5t-154 -34.5q-94 0 -201 34.5t-163 80.5q-65 52 -97 141t-32 215zM334 565q0 -16 4.5 -20t17.5 -4h13l223 22q46 4 64 15t18 36q0 96 -38 155.5t-97 59.5q-74 0 -139.5 -89.5t-65.5 -174.5zM344 1061 l273 280q42 44 73.5 63t61.5 19q40 0 65 -25t25 -65q0 -32 -19 -55t-75 -53l-313 -164h-91z" />
<glyph unicode="&#xea;" horiz-adv-x="995" d="M70 438q0 241 100 394t256 153q106 0 229.5 -41.5t173.5 -93.5q53 -53 88 -153t35 -199q0 -69 -126 -87q-8 -1 -11 -1l-449 -62q-18 -3 -26 -14t-8 -35q0 -80 46 -134t114 -54q50 0 105 32t91 84q5 7 12 19q44 65 95 65q12 0 35.5 -1t35.5 -1q4 0 9.5 1t7.5 1 q34 0 51.5 -9t17.5 -28q0 -15 -19.5 -46t-72.5 -97q-78 -95 -143 -129.5t-154 -34.5q-94 0 -201 34.5t-163 80.5q-65 52 -97 141t-32 215zM240 1061l225 348h148l225 -348h-84l-215 178l-215 -178h-84zM334 565q0 -16 4.5 -20t17.5 -4h13l223 22q46 4 64 15t18 36 q0 96 -38 155.5t-97 59.5q-74 0 -139.5 -89.5t-65.5 -174.5z" />
<glyph unicode="&#xeb;" horiz-adv-x="995" d="M70 438q0 241 100 394t256 153q106 0 229.5 -41.5t173.5 -93.5q53 -53 88 -153t35 -199q0 -69 -126 -87q-8 -1 -11 -1l-449 -62q-18 -3 -26 -14t-8 -35q0 -80 46 -134t114 -54q50 0 105 32t91 84q5 7 12 19q44 65 95 65q12 0 35.5 -1t35.5 -1q4 0 9.5 1t7.5 1 q34 0 51.5 -9t17.5 -28q0 -15 -19.5 -46t-72.5 -97q-78 -95 -143 -129.5t-154 -34.5q-94 0 -201 34.5t-163 80.5q-65 52 -97 141t-32 215zM236 1225q0 48 36 83t85 35t84 -34.5t35 -83.5q0 -54 -33.5 -88.5t-85.5 -34.5q-51 0 -86 36t-35 87zM334 565q0 -16 4.5 -20t17.5 -4 h13l223 22q46 4 64 15t18 36q0 96 -38 155.5t-97 59.5q-74 0 -139.5 -89.5t-65.5 -174.5zM600 1225q0 48 36 83t85 35t84 -34.5t35 -83.5q0 -54 -33.5 -88.5t-85.5 -34.5q-50 0 -85.5 36t-35.5 87z" />
<glyph unicode="&#xec;" horiz-adv-x="432" d="M-86 1333q0 40 25 65t65 25q30 0 61.5 -19t73.5 -63l273 -280h-91l-313 164q-56 30 -75 53t-19 55zM86 858q0 41 24.5 55.5t102.5 14.5q83 0 107 -9t24 -49v-94l-12 -674q0 -10 -1 -28q0 -80 -69 -80q-106 0 -136 9t-30 44q0 11 2 41t2 47l-4 522q0 62 -5 128.5t-5 72.5z " />
<glyph unicode="&#xed;" horiz-adv-x="432" d="M22 1061l273 280q42 44 73.5 63t61.5 19q40 0 65 -25t25 -65q0 -32 -19 -55t-75 -53l-313 -164h-91zM86 858q0 41 24.5 55.5t102.5 14.5q83 0 107 -9t24 -49v-94l-12 -674q0 -10 -1 -28q0 -80 -69 -80q-106 0 -136 9t-30 44q0 11 2 41t2 47l-4 522q0 62 -5 128.5t-5 72.5 z" />
<glyph unicode="&#xee;" horiz-adv-x="432" d="M-82 1061l225 348h148l225 -348h-84l-215 178l-215 -178h-84zM86 858q0 41 24.5 55.5t102.5 14.5q83 0 107 -9t24 -49v-94l-12 -674q0 -10 -1 -28q0 -80 -69 -80q-106 0 -136 9t-30 44q0 11 2 41t2 47l-4 522q0 62 -5 128.5t-5 72.5z" />
<glyph unicode="&#xef;" horiz-adv-x="432" d="M-86 1225q0 48 36 83t85 35t84 -34.5t35 -83.5q0 -54 -33.5 -88.5t-85.5 -34.5q-51 0 -86 36t-35 87zM86 858q0 41 24.5 55.5t102.5 14.5q83 0 107 -9t24 -49v-94l-12 -674q0 -10 -1 -28q0 -80 -69 -80q-106 0 -136 9t-30 44q0 11 2 41t2 47l-4 522q0 62 -5 128.5 t-5 72.5zM278 1225q0 48 36 83t85 35t84 -34.5t35 -83.5q0 -54 -33.5 -88.5t-85.5 -34.5q-50 0 -85.5 36t-35.5 87z" />
<glyph unicode="&#xf0;" horiz-adv-x="1081" d="M57 492q0 223 103 359t272 136q49 0 116.5 -13t153.5 -40q-11 53 -30 106t-47 109l-248 -49q-3 -1 -7 -1.5t-10 -0.5q-17 0 -27.5 8.5t-13.5 24.5l-10 55q-1 4 -1.5 6.5t-0.5 9.5q0 18 9.5 29t25.5 14l201 37q-49 73 -107.5 138.5t-58.5 72.5q0 15 37.5 30t85.5 15 q28 0 84 -49t161 -166l232 45q3 1 6.5 1.5t9.5 0.5q18 0 29 -8.5t14 -23.5l10 -53q2 -5 2.5 -8.5t0.5 -10.5q0 -18 -8.5 -28t-24.5 -13l-185 -35q97 -156 149 -334t52 -350q0 -259 -118.5 -395t-346.5 -136q-231 0 -370.5 140.5t-139.5 376.5zM336 430q0 -162 48 -248 t138 -86q109 0 180.5 107.5t71.5 275.5t-55.5 268.5t-147.5 100.5q-109 0 -172 -111.5t-63 -306.5z" />
<glyph unicode="&#xf1;" horiz-adv-x="1053" d="M80 57q0 12 16.5 245t16.5 446q0 43 -6.5 96.5t-6.5 64.5q0 33 18.5 44.5t78.5 11.5q39 0 64.5 -0.5t51.5 -2.5l4 -83l81 6q31 3 57 4.5t51 1.5q86 0 155 -20.5t142 -67.5q105 -67 139.5 -133t34.5 -189q0 -183 -21 -387q-6 -51 -6 -63q0 -42 -15.5 -58t-57.5 -16 q-79 0 -121.5 15t-42.5 42q0 13 5 65q21 196 21 367q0 169 -34 240.5t-113 71.5q-60 0 -120 -27t-95 -69q-30 -37 -42.5 -108t-12.5 -208t5 -265q1 -20 1 -24q0 -32 -14 -44.5t-74 -12.5h-117q-23 0 -33 13t-10 44zM260 1092q17 123 69.5 184t141.5 61q17 0 32.5 -2t31.5 -6 l109 -27q11 -3 20 -4.5t18 -1.5q33 0 55 20.5t37 65.5h66q-17 -123 -70 -184t-143 -61q-13 0 -25.5 1.5t-24.5 4.5l-103 28q-14 4 -26.5 5.5t-31.5 1.5q-33 0 -54 -20.5t-36 -65.5h-66z" />
<glyph unicode="&#xf2;" horiz-adv-x="1085" d="M57 492q0 223 103 359t272 136q89 0 206.5 -31t199.5 -77q105 -59 148.5 -146.5t43.5 -245.5q0 -248 -119 -380t-344 -132q-231 0 -370.5 140.5t-139.5 376.5zM240 1333q0 40 25 65t65 25q30 0 61.5 -19t73.5 -63l273 -280h-91l-313 164q-56 30 -75 53t-19 55zM336 434 q0 -163 48 -250.5t138 -87.5q109 0 180.5 108t71.5 275t-55.5 268t-147.5 101q-107 0 -171 -112t-64 -302z" />
<glyph unicode="&#xf3;" horiz-adv-x="1085" d="M57 492q0 223 103 359t272 136q89 0 206.5 -31t199.5 -77q105 -59 148.5 -146.5t43.5 -245.5q0 -248 -119 -380t-344 -132q-231 0 -370.5 140.5t-139.5 376.5zM336 434q0 -163 48 -250.5t138 -87.5q109 0 180.5 108t71.5 275t-55.5 268t-147.5 101q-107 0 -171 -112 t-64 -302zM348 1061l273 280q42 44 73.5 63t61.5 19q40 0 65 -25t25 -65q0 -32 -19 -55t-75 -53l-313 -164h-91z" />
<glyph unicode="&#xf4;" horiz-adv-x="1085" d="M57 492q0 223 103 359t272 136q89 0 206.5 -31t199.5 -77q105 -59 148.5 -146.5t43.5 -245.5q0 -248 -119 -380t-344 -132q-231 0 -370.5 140.5t-139.5 376.5zM244 1061l225 348h148l225 -348h-84l-215 178l-215 -178h-84zM336 434q0 -163 48 -250.5t138 -87.5 q109 0 180.5 108t71.5 275t-55.5 268t-147.5 101q-107 0 -171 -112t-64 -302z" />
<glyph unicode="&#xf5;" horiz-adv-x="1085" d="M57 492q0 223 103 359t272 136q89 0 206.5 -31t199.5 -77q105 -59 148.5 -146.5t43.5 -245.5q0 -248 -119 -380t-344 -132q-231 0 -370.5 140.5t-139.5 376.5zM252 1092q17 123 69.5 184t141.5 61q17 0 32.5 -2t31.5 -6l109 -27q11 -3 20 -4.5t18 -1.5q33 0 55 20.5 t37 65.5h66q-17 -123 -70 -184t-143 -61q-13 0 -25.5 1.5t-24.5 4.5l-103 28q-14 4 -26.5 5.5t-31.5 1.5q-33 0 -54 -20.5t-36 -65.5h-66zM336 434q0 -163 48 -250.5t138 -87.5q109 0 180.5 108t71.5 275t-55.5 268t-147.5 101q-107 0 -171 -112t-64 -302z" />
<glyph unicode="&#xf6;" horiz-adv-x="1085" d="M57 492q0 223 103 359t272 136q89 0 206.5 -31t199.5 -77q105 -59 148.5 -146.5t43.5 -245.5q0 -248 -119 -380t-344 -132q-231 0 -370.5 140.5t-139.5 376.5zM240 1225q0 48 36 83t85 35t84 -34.5t35 -83.5q0 -54 -33.5 -88.5t-85.5 -34.5q-51 0 -86 36t-35 87zM336 434 q0 -163 48 -250.5t138 -87.5q109 0 180.5 108t71.5 275t-55.5 268t-147.5 101q-107 0 -171 -112t-64 -302zM604 1225q0 48 36 83t85 35t84 -34.5t35 -83.5q0 -54 -33.5 -88.5t-85.5 -34.5q-50 0 -85.5 36t-35.5 87z" />
<glyph unicode="&#xf7;" horiz-adv-x="1706" d="M254 528v166h1198v-166h-1198zM717 229q0 57 40.5 97.5t96.5 40.5q57 0 97 -40.5t40 -97.5q0 -56 -39.5 -95.5t-97.5 -39.5t-97.5 39t-39.5 96zM717 989q0 57 40.5 98t96.5 41q57 0 97 -41t40 -98q0 -56 -39.5 -95.5t-97.5 -39.5t-97.5 39t-39.5 96z" />
<glyph unicode="&#xf8;" horiz-adv-x="1085" d="M23 -8q0 26 36 62q9 10 13 14l86 90q-54 74 -77.5 150.5t-23.5 183.5q0 227 103.5 361t279.5 134q92 0 190 -26.5t201 -79.5l95 110q12 16 24.5 23.5t26.5 7.5q32 0 63 -29t31 -55q0 -15 -39 -62q-5 -6 -8 -10l-68 -84q40 -47 57 -113t17 -177q0 -253 -118.5 -385 t-346.5 -132q-88 0 -162 21.5t-129 62.5l-127 -127q-6 -6 -15.5 -10t-16.5 -4q-27 0 -59.5 25.5t-32.5 48.5zM336 436q0 -10 2 -50q1 -25 2 -42l377 406q-26 50 -61.5 74t-84.5 24q-108 0 -171.5 -110.5t-63.5 -301.5zM385 172q33 -43 62 -59.5t69 -16.5q112 0 185 107 t73 274q0 21 -1.5 46.5t-4.5 51.5z" />
<glyph unicode="&#xf9;" horiz-adv-x="1075" d="M94 823q0 83 14 111.5t50 28.5q24 0 50.5 -2.5t29.5 -2.5q21 0 50.5 4.5t39.5 4.5q19 -1 24.5 -6t5.5 -25q0 -9 -11 -142.5t-11 -256.5q0 -220 41 -327.5t125 -107.5q107 0 169 114.5t62 318.5q0 162 -20 325q-4 32 -4 39q0 35 18.5 49.5t67.5 14.5q40 0 86 1q13 1 16 1 q48 0 66 -10.5t18 -36.5q0 -5 -2 -33q-16 -284 -16 -645q0 -72 8 -141.5l8 -69.5q0 -25 -15.5 -41.5t-39.5 -16.5q-63 0 -118 -5q-9 -1 -11 -1q-25 0 -38.5 8.5t-13.5 24.5v12v6l-8 43q-67 -52 -117 -74t-102 -22q-50 0 -108 13t-115 36q-61 25 -91.5 56.5t-54.5 91.5 q-24 62 -38.5 239.5t-14.5 423.5zM246 1333q0 40 25 65t65 25q30 0 61.5 -19t73.5 -63l273 -280h-91l-313 164q-56 30 -75 53t-19 55z" />
<glyph unicode="&#xfa;" horiz-adv-x="1075" d="M94 823q0 83 14 111.5t50 28.5q24 0 50.5 -2.5t29.5 -2.5q21 0 50.5 4.5t39.5 4.5q19 -1 24.5 -6t5.5 -25q0 -9 -11 -142.5t-11 -256.5q0 -220 41 -327.5t125 -107.5q107 0 169 114.5t62 318.5q0 162 -20 325q-4 32 -4 39q0 35 18.5 49.5t67.5 14.5q40 0 86 1q13 1 16 1 q48 0 66 -10.5t18 -36.5q0 -5 -2 -33q-16 -284 -16 -645q0 -72 8 -141.5l8 -69.5q0 -25 -15.5 -41.5t-39.5 -16.5q-63 0 -118 -5q-9 -1 -11 -1q-25 0 -38.5 8.5t-13.5 24.5v12v6l-8 43q-67 -52 -117 -74t-102 -22q-50 0 -108 13t-115 36q-61 25 -91.5 56.5t-54.5 91.5 q-24 62 -38.5 239.5t-14.5 423.5zM354 1061l273 280q42 44 73.5 63t61.5 19q40 0 65 -25t25 -65q0 -32 -19 -55t-75 -53l-313 -164h-91z" />
<glyph unicode="&#xfb;" horiz-adv-x="1075" d="M94 823q0 83 14 111.5t50 28.5q24 0 50.5 -2.5t29.5 -2.5q21 0 50.5 4.5t39.5 4.5q19 -1 24.5 -6t5.5 -25q0 -9 -11 -142.5t-11 -256.5q0 -220 41 -327.5t125 -107.5q107 0 169 114.5t62 318.5q0 162 -20 325q-4 32 -4 39q0 35 18.5 49.5t67.5 14.5q40 0 86 1q13 1 16 1 q48 0 66 -10.5t18 -36.5q0 -5 -2 -33q-16 -284 -16 -645q0 -72 8 -141.5l8 -69.5q0 -25 -15.5 -41.5t-39.5 -16.5q-63 0 -118 -5q-9 -1 -11 -1q-25 0 -38.5 8.5t-13.5 24.5v12v6l-8 43q-67 -52 -117 -74t-102 -22q-50 0 -108 13t-115 36q-61 25 -91.5 56.5t-54.5 91.5 q-24 62 -38.5 239.5t-14.5 423.5zM250 1061l225 348h148l225 -348h-84l-215 178l-215 -178h-84z" />
<glyph unicode="&#xfc;" horiz-adv-x="1075" d="M94 823q0 83 14 111.5t50 28.5q24 0 50.5 -2.5t29.5 -2.5q21 0 50.5 4.5t39.5 4.5q19 -1 24.5 -6t5.5 -25q0 -9 -11 -142.5t-11 -256.5q0 -220 41 -327.5t125 -107.5q107 0 169 114.5t62 318.5q0 162 -20 325q-4 32 -4 39q0 35 18.5 49.5t67.5 14.5q40 0 86 1q13 1 16 1 q48 0 66 -10.5t18 -36.5q0 -5 -2 -33q-16 -284 -16 -645q0 -72 8 -141.5l8 -69.5q0 -25 -15.5 -41.5t-39.5 -16.5q-63 0 -118 -5q-9 -1 -11 -1q-25 0 -38.5 8.5t-13.5 24.5v12v6l-8 43q-67 -52 -117 -74t-102 -22q-50 0 -108 13t-115 36q-61 25 -91.5 56.5t-54.5 91.5 q-24 62 -38.5 239.5t-14.5 423.5zM246 1225q0 48 36 83t85 35t84 -34.5t35 -83.5q0 -54 -33.5 -88.5t-85.5 -34.5q-51 0 -86 36t-35 87zM610 1225q0 48 36 83t85 35t84 -34.5t35 -83.5q0 -54 -33.5 -88.5t-85.5 -34.5q-50 0 -85.5 36t-35.5 87z" />
<glyph unicode="&#xfd;" horiz-adv-x="1077" d="M84 596q0 143 7.5 233t20.5 106q15 20 50 30t90 10q59 0 81.5 -16.5t22.5 -59.5q0 -25 -14 -179t-14 -280q0 -161 36.5 -242t110.5 -81q56 0 108.5 41.5t98.5 122.5q40 70 57 154.5t17 264.5q0 74 -10 159q-3 24 -3 30q0 36 18.5 49.5t76.5 13.5q108 0 132.5 -16.5 t24.5 -97.5q0 -26 -6 -155t-6 -234v-89q0 -301 -12.5 -454.5t-40.5 -224.5q-46 -115 -138.5 -176.5t-220.5 -61.5q-154 0 -264 109t-110 249q0 39 20 52.5t109 13.5q93 0 107 -53q5 -20 7 -26q33 -109 63.5 -146t78.5 -37q80 0 119.5 81t39.5 246q0 41 -3 136q0 22 -1 34 q-39 -72 -90 -101.5t-139 -29.5q-249 0 -336.5 124t-87.5 501zM344 1061l273 280q42 44 73.5 63t61.5 19q40 0 65 -25t25 -65q0 -32 -19 -55t-75 -53l-313 -164h-91z" />
<glyph unicode="&#xfe;" horiz-adv-x="1063" d="M80 -477q0 7 1 45q17 446 17 1014v106v746q0 70 14 83t74 13q111 0 141.5 -9.5t30.5 -45.5q0 -13 -2 -42.5t-2 -43.5l-6 -474q51 14 102 20.5t105 6.5q203 0 326 -126.5t123 -336.5q0 -219 -126.5 -363.5t-302.5 -144.5q-89 0 -148.5 11.5t-92.5 35.5l2 -247 q0 -116 -4.5 -179.5t-13.5 -78.5q-14 -18 -69.5 -31.5t-119.5 -13.5q-27 0 -38 12.5t-11 42.5zM346 221q0 -59 30.5 -78.5t129.5 -19.5q127 0 180 80.5t53 277.5q0 153 -51.5 227t-157.5 74q-37 0 -75 -10t-69 -28q-18 -11 -24.5 -20.5t-7.5 -27.5v-26l-8 -441v-8z" />
<glyph unicode="&#xff;" horiz-adv-x="1077" d="M84 596q0 143 7.5 233t20.5 106q15 20 50 30t90 10q59 0 81.5 -16.5t22.5 -59.5q0 -25 -14 -179t-14 -280q0 -161 36.5 -242t110.5 -81q56 0 108.5 41.5t98.5 122.5q40 70 57 154.5t17 264.5q0 74 -10 159q-3 24 -3 30q0 36 18.5 49.5t76.5 13.5q108 0 132.5 -16.5 t24.5 -97.5q0 -26 -6 -155t-6 -234v-89q0 -301 -12.5 -454.5t-40.5 -224.5q-46 -115 -138.5 -176.5t-220.5 -61.5q-154 0 -264 109t-110 249q0 39 20 52.5t109 13.5q93 0 107 -53q5 -20 7 -26q33 -109 63.5 -146t78.5 -37q80 0 119.5 81t39.5 246q0 41 -3 136q0 22 -1 34 q-39 -72 -90 -101.5t-139 -29.5q-249 0 -336.5 124t-87.5 501zM236 1225q0 48 36 83t85 35t84 -34.5t35 -83.5q0 -54 -33.5 -88.5t-85.5 -34.5q-51 0 -86 36t-35 87zM600 1225q0 48 36 83t85 35t84 -34.5t35 -83.5q0 -54 -33.5 -88.5t-85.5 -34.5q-50 0 -85.5 36t-35.5 87z " />
<glyph unicode="&#x152;" horiz-adv-x="1901" d="M61 686q0 171 39.5 320.5t112.5 255.5q64 94 145.5 137t196.5 43q145 0 253 -30.5t158 -83.5q-1 4 -2 10t-1 18q0 24 18.5 37.5t50.5 13.5q9 0 65.5 -3t102.5 -3h524q94 0 119 -16t25 -62q0 -70 -29 -96.5t-117 -30.5l-435 -16q-34 -2 -48 -17t-14 -49l-2 -297 q0 -20 4 -25.5t22 -5.5h19l127 -2h49q121 0 230 8q15 1 18 1q39 0 55 -26.5t16 -102.5q0 -97 -134 -106q-13 -1 -19 -1l-346 -20q-30 -3 -42 -16.5t-12 -61.5v-10l2 -218q0 -21 12.5 -29.5t47.5 -8.5h426q35 0 45 -14t10 -73q0 -80 -40 -105.5t-179 -25.5h-31l-471 7 q-40 0 -54 18.5t-16 72.5q-60 -55 -138 -82.5t-177 -27.5q-268 0 -427 196t-159 527zM362 635q0 -239 77.5 -368.5t217.5 -129.5q138 0 226 171.5t88 445.5q0 244 -74 380t-207 136q-154 0 -241 -167.5t-87 -467.5z" />
<glyph unicode="&#x153;" horiz-adv-x="1688" d="M57 492q0 223 104 359t271 136q101 0 222 -36t225 -99q32 59 98.5 96t140.5 37q105 0 229.5 -42t174.5 -93q52 -53 87.5 -153t35.5 -199q0 -69 -127 -87q-7 -1 -11 -1l-449 -62q-18 -3 -26 -14t-8 -35q0 -80 46 -134t114 -54q50 0 105 32t91 84q5 7 13 19q43 65 94 65 q12 0 35.5 -1t36.5 -1q3 0 8.5 1t7.5 1q34 0 52 -9t18 -28q0 -15 -23.5 -52t-69.5 -95q-64 -84 -134.5 -122t-160.5 -38q-91 0 -192.5 32.5t-179.5 86.5q-60 -57 -136 -84t-178 -27q-234 0 -374 140t-140 377zM336 434q0 -163 48 -250.5t138 -87.5q109 0 180.5 108t71.5 275 t-55.5 268t-147.5 101q-107 0 -171 -112t-64 -302zM1026 565q0 -16 4.5 -20t18.5 -4h12l223 22q50 5 66 15t16 38q0 94 -38 153.5t-97 59.5q-73 0 -139 -89.5t-66 -174.5z" />
<glyph unicode="&#x178;" horiz-adv-x="1161" d="M-51 1364q0 16 47 25.5t127 9.5q43 0 65.5 -9.5t47.5 -46.5l333 -507l265 494q1 2 3 5q24 43 66 45l252 9q11 0 21 -8.5t10 -16.5q0 -5 -4.5 -15.5t-11.5 -22.5l-390 -669q-1 -2 -5 -9q-34 -57 -34 -118l-4 -456q0 -60 -27 -72t-153 -12q-63 0 -83.5 12t-20.5 49l4 432 q0 41 -8.5 70.5t-28.5 60.5l-458 718q-6 9 -9.5 18t-3.5 14zM279 1676q0 48 36 83t85 35t84 -34.5t35 -83.5q0 -54 -33.5 -88.5t-85.5 -34.5q-51 0 -86 36t-35 87zM643 1676q0 48 36 83t85 35t84 -34.5t35 -83.5q0 -54 -33.5 -88.5t-85.5 -34.5q-50 0 -85.5 36t-35.5 87z " />
<glyph unicode="&#x2c6;" d="M213 1061l225 348h148l225 -348h-84l-215 178l-215 -178h-84z" />
<glyph unicode="&#x2dc;" d="M221 1092q17 123 69.5 184t141.5 61q17 0 32.5 -2t31.5 -6l109 -27q11 -3 20 -4.5t18 -1.5q33 0 55 20.5t37 65.5h66q-17 -123 -70 -184t-143 -61q-13 0 -25.5 1.5t-24.5 4.5l-103 28q-14 4 -26.5 5.5t-31.5 1.5q-33 0 -54 -20.5t-36 -65.5h-66z" />
<glyph unicode="&#x2000;" horiz-adv-x="972" />
<glyph unicode="&#x2001;" horiz-adv-x="1944" />
<glyph unicode="&#x2002;" horiz-adv-x="972" />
<glyph unicode="&#x2003;" horiz-adv-x="1944" />
<glyph unicode="&#x2004;" horiz-adv-x="648" />
<glyph unicode="&#x2005;" horiz-adv-x="486" />
<glyph unicode="&#x2006;" horiz-adv-x="324" />
<glyph unicode="&#x2007;" horiz-adv-x="324" />
<glyph unicode="&#x2008;" horiz-adv-x="243" />
<glyph unicode="&#x2009;" horiz-adv-x="388" />
<glyph unicode="&#x200a;" horiz-adv-x="108" />
<glyph unicode="&#x2010;" horiz-adv-x="815" d="M106 440l3 123q0 19 11 27t48 8l487 -4q25 0 39.5 -13.5t14.5 -37.5l2 -101q0 -38 -11 -51.5t-36 -13.5h-5l-503 14q-29 2 -39.5 12.5t-10.5 36.5z" />
<glyph unicode="&#x2011;" horiz-adv-x="815" d="M106 440l3 123q0 19 11 27t48 8l487 -4q25 0 39.5 -13.5t14.5 -37.5l2 -101q0 -38 -11 -51.5t-36 -13.5h-5l-503 14q-29 2 -39.5 12.5t-10.5 36.5z" />
<glyph unicode="&#x2012;" horiz-adv-x="815" d="M106 440l3 123q0 19 11 27t48 8l487 -4q25 0 39.5 -13.5t14.5 -37.5l2 -101q0 -38 -11 -51.5t-36 -13.5h-5l-503 14q-29 2 -39.5 12.5t-10.5 36.5z" />
<glyph unicode="&#x2013;" d="M-2 530q0 40 11.5 52t39.5 12h922q24 0 37.5 -13.5t13.5 -37.5l2 -99q0 -39 -11.5 -51t-39.5 -12h-922q-24 0 -37.5 13.5t-13.5 37.5z" />
<glyph unicode="&#x2014;" horiz-adv-x="2048" d="M0 381v213h2048v-213h-2048z" />
<glyph unicode="&#x2018;" horiz-adv-x="512" d="M102 940q0 10 3 34.5t10 67.5l41 304q10 69 22.5 83.5t50.5 14.5q94 0 125 -15t31 -63q0 -13 -3 -46q-1 -5 -1 -7l-27 -346q-4 -56 -24.5 -73t-67.5 -17q-84 0 -122 14.5t-38 48.5z" />
<glyph unicode="&#x2019;" horiz-adv-x="512" d="M119 956q0 14 3 46q1 5 1 8l27 346q4 56 24.5 73t67.5 17q84 0 121.5 -15t37.5 -49q0 -15 -2.5 -42t-7.5 -60l-43 -303q-10 -70 -22.5 -84t-51.5 -14q-94 0 -124.5 14.5t-30.5 62.5z" />
<glyph unicode="&#x201a;" horiz-adv-x="512" d="M117 -156q0 15 3 47q1 4 1 7l26 346q5 55 25.5 72.5t67.5 17.5q84 0 121.5 -15t37.5 -49q0 -15 -2.5 -42t-7.5 -61l-43 -302q-10 -70 -22.5 -84t-51.5 -14q-94 0 -124.5 14.5t-30.5 62.5z" />
<glyph unicode="&#x201c;" horiz-adv-x="930" d="M102 940q0 10 3 34.5t10 67.5l41 304q10 69 22.5 83.5t50.5 14.5q94 0 125 -15t31 -63q0 -13 -3 -46q-1 -5 -1 -7l-27 -346q-4 -56 -24.5 -73t-67.5 -17q-84 0 -122 14.5t-38 48.5zM532 940q0 15 3 42.5t8 60.5l41 303q10 67 23 82.5t52 15.5q94 0 125 -15t31 -63 q0 -13 -3 -46q-1 -5 -1 -7l-27 -346q-4 -56 -24.5 -73t-67.5 -17q-84 0 -122 14.5t-38 48.5z" />
<glyph unicode="&#x201d;" horiz-adv-x="930" d="M94 956q0 13 4 47v7l29 346q4 57 24 73.5t66 16.5q84 0 122 -15t38 -49q0 -15 -2.5 -41.5t-7.5 -59.5l-41 -304q-11 -70 -23 -84t-51 -14q-95 0 -126.5 15t-31.5 62zM524 956q0 13 4 47v7l27 346q4 56 24.5 73t67.5 17q84 0 122 -15t38 -49q0 -15 -2.5 -41.5t-7.5 -59.5 l-41 -304q-10 -68 -23 -83t-53 -15q-94 0 -125 14.5t-31 62.5z" />
<glyph unicode="&#x201e;" horiz-adv-x="930" d="M111 -156q0 15 3 47q0 4 1 7l26 346q4 55 24.5 72.5t67.5 17.5q84 0 122 -15t38 -49q0 -15 -2.5 -41.5t-7.5 -60.5l-43 -303q-10 -70 -22.5 -84t-51.5 -14q-94 0 -124.5 14.5t-30.5 62.5zM541 -156q0 15 3 47q1 4 1 7l26 346q5 55 25.5 72.5t67.5 17.5q84 0 121.5 -15 t37.5 -49q0 -10 -2.5 -34t-9.5 -68l-41 -303q-10 -70 -22.5 -84t-51.5 -14q-94 0 -124.5 14.5t-30.5 62.5z" />
<glyph unicode="&#x2022;" horiz-adv-x="1208" d="M307 762q0 123 87 209t210 86q122 0 208.5 -86.5t86.5 -208.5t-87.5 -209.5t-209.5 -87.5q-123 0 -209 87t-86 210z" />
<glyph unicode="&#x2026;" horiz-adv-x="2048" d="M162 135q0 78 49.5 128t126.5 50q85 0 136 -46t51 -124q0 -73 -51.5 -119.5t-133.5 -46.5q-79 0 -128.5 44t-49.5 114zM844 135q0 78 49.5 128t126.5 50q85 0 136 -46t51 -124q0 -73 -51.5 -119.5t-133.5 -46.5q-79 0 -128.5 44t-49.5 114zM1528 135q0 78 49.5 128 t126.5 50q85 0 136 -46t51 -124q0 -73 -51.5 -119.5t-133.5 -46.5q-79 0 -128.5 44t-49.5 114z" />
<glyph unicode="&#x202f;" horiz-adv-x="388" />
<glyph unicode="&#x2039;" horiz-adv-x="539" d="M84 483q0 21 8 41.5t23 36.5l194 213q17 19 32 27t32 8q28 0 60 -33t32 -61q0 -8 -4.5 -17t-16.5 -22l-143 -160q-17 -17 -21 -23.5t-4 -13.5q0 -6 3 -13t10 -15l133 -140q4 -4 12 -11q27 -22 27 -44q0 -17 -37 -51.5t-62 -34.5q-15 0 -28 6.5t-25 20.5l-203 221 q-11 11 -16.5 27.5t-5.5 37.5z" />
<glyph unicode="&#x203a;" horiz-adv-x="539" d="M94 715q0 28 32 61t60 33q17 0 30.5 -7.5t31.5 -27.5l194 -213q15 -16 23 -36.5t8 -41.5t-5.5 -37.5t-16.5 -27.5l-203 -221q-12 -14 -25 -20.5t-28 -6.5q-24 0 -61.5 34.5t-37.5 51.5q0 22 27 44q8 7 12 11l133 140q7 8 10 15t3 13q0 7 -4 13.5t-21 23.5l-143 159 q-9 11 -14 21t-5 19z" />
<glyph unicode="&#x205f;" horiz-adv-x="486" />
<glyph unicode="&#x2122;" horiz-adv-x="1706" d="M225 1366v94h467v-94h-168v-448h-129v448h-170zM809 918v542h170l141 -360l133 360h170v-542h-114v428l-160 -428h-59l-166 428v-428h-115z" />
<glyph unicode="&#x25fc;" horiz-adv-x="970" d="M0 0v970h970v-970h-970z" />
</font>
</defs>
</svg>
