<?xml version="1.0" standalone="no"?>
<!DOCTYPE svg PUBLIC "-//W3C//DTD SVG 1.1//EN" "http://www.w3.org/Graphics/SVG/1.1/DTD/svg11.dtd" >
<svg xmlns="http://www.w3.org/2000/svg" xmlns:xlink="http://www.w3.org/1999/xlink" version="1.1">
<metadata></metadata>
<defs>
<font id="kindergartenregular" horiz-adv-x="602" >
<font-face units-per-em="2048" ascent="1638" descent="-410" />
<missing-glyph horiz-adv-x="505" />
<glyph horiz-adv-x="0" />
<glyph unicode="&#xd;" horiz-adv-x="505" />
<glyph unicode=" "  horiz-adv-x="505" />
<glyph unicode="&#x09;" horiz-adv-x="505" />
<glyph unicode="&#xa0;" horiz-adv-x="505" />
<glyph unicode="!" horiz-adv-x="348" d="M76 -12q0 104 78 116q37 -6 71 -24q43 -24 43 -51q0 -41 -32.5 -75t-71.5 -34q-88 0 -88 68zM104 268q33 180 33 422q0 27 -5 65t-5 64q0 31 5 74t5 65q0 33 -10 135.5t-10 155.5t53 54q53 0 53 -53.5t11.5 -156t11.5 -135.5q0 -23 -6.5 -65.5t-6.5 -73.5 q0 -27 6.5 -64.5t6.5 -64.5q0 -240 -33 -438q-8 -45 -53 -45q-25 0 -42.5 17.5t-13.5 43.5z" />
<glyph unicode="&#x22;" horiz-adv-x="399" d="M55 899q18 127 18.5 141.5t6.5 46.5q8 43 10 56q4 29 29 28q23 0 37 -24q6 -12 6 -94q0 -186 2 -172q-6 -45 -51 -45q-66 0 -58 63zM246 909q0 193 4 221q6 47 53 48q63 -1 53 -64q-2 -8 -22 -98q-12 -59 -12 -107q0 -39 -37 -39q-39 0 -39 39z" />
<glyph unicode="#" horiz-adv-x="903" d="M90 690q0 20 18.5 39t38.5 19q12 0 23 -7q31 -16 102 -34q-2 6 2 24q12 57 48 168q-90 8 -140 16q-27 4 -26 33q0 20 16 36.5t39 12.5q29 -4 141 -14q37 100 49 160q8 27 35 26q33 0 27 -32q-10 -49 -35 -154h141q0 -10 6 39q16 47 35 106q2 12 4 39q2 43 43 43 q33 0 35 -34q0 -8 6.5 -21.5t3.5 -26.5q-8 -37 -22 -106q-2 -12 -6 -41q102 -4 145 -14q37 -6 37 -41q0 -27 -21.5 -48.5t-52.5 -17.5q-49 8 -116 14q-18 -102 -48 -198q88 -4 121 -10q41 -4 41 -43q0 -25 -18.5 -45.5t-46.5 -18.5q-39 2 -123 8q-12 -51 -39 -151 q-14 -49 -64 -49q-45 0 -45 41q0 4 41 167q-20 2 -60 7.5t-60 7.5q-2 -8 -35 -96q-16 -45 -62 -45q-25 0 -40 19t-3 48q14 31 37 90q-172 35 -172 84zM381 690q82 -8 133 -10q18 68 45 205q-49 4 -147 8q-10 -57 -29 -162q-4 -27 -2 -41z" />
<glyph unicode="$" horiz-adv-x="800" d="M12 444q0 51 35 52q12 0 27 -13q162 -139 262 -198q-2 51 -6 170q0 51 4 241q-203 158 -203 310q0 76 55.5 131t139.5 77v123q0 23 30 23q6 0 6 -6q0 -88 3 -131q31 8 65 8q8 0 12 -2v141q0 10 13 10q10 0 10 -10q0 -25 2 -72v-73q178 -33 238 -105q16 -18 16 -43 q0 -35 -23 -35q-8 0 -18 9q-33 27 -105.5 52t-101.5 25q10 -133 31 -428q63 -37 100 -63q152 -111 152 -250q0 -86 -64.5 -148.5t-161.5 -82.5v-140q0 -18 -2 -61v-70q0 -10 -10 -10t-10 10q-2 51 -10 158l-9 104q-14 -2 -47 -2q-14 0 -47 5q0 -16 -2 -54q-2 -94 -2 -188 q0 -14 -22 -14q-25 0 -25 14q0 49 -5 105.5t-5 86.5v72q-154 74 -295 209q-27 25 -27 63zM240 1006q0 -99 94 -183q0 111 -4 287q-90 -35 -90 -104zM371 1122q0 -31 6 -155q4 -102 4 -176v-7q27 -18 80 -55l-17 399h-14q-31 0 -59 -6zM383 659q0 -123 3 -198.5t9 -200.5 q25 -6 47 -6q29 0 41 2l-18 346q-12 8 -82 57zM510 571l16 -307q121 33 121 123q0 86 -106 164q-4 4 -14.5 11t-16.5 9z" />
<glyph unicode="%" horiz-adv-x="1083" d="M49 860q0 76 60.5 158t123.5 82q14 0 46 2q25 2 38 0q20 -2 41 -12q39 -18 74 -66q39 -53 39 -88q0 -109 -55.5 -186.5t-149.5 -77.5q-82 0 -149.5 57t-67.5 131zM135 152q0 12 6 24q74 150 297 473q195 285 283 504q8 18 24 18q27 0 27 -28q0 -7 -2 -13 q-92 -227 -260 -516q-217 -373 -274 -485q-14 -29 -46 -29q-55 0 -55 52zM141 860q0 -39 40 -64.5t85 -25.5q92 0 96 154q-4 29 -34 73q-14 10 -29 13q-10 2 -29 -2q-25 -2 -37 -2q-35 0 -63.5 -50.5t-28.5 -95.5zM500 401q0 41 22 101q59 156 178 155q137 0 228.5 -73.5 t91.5 -202.5q0 -106 -55 -201q-63 -104 -152 -104q-168 0 -229 84q-35 39 -59.5 100.5t-24.5 140.5zM569 426q-14 -55 11 -121q27 -51 61.5 -95t171.5 -44q55 0 86 76q23 61 23 139q0 84 -66 133q-61 43 -156 43q-45 0 -80.5 -39t-50.5 -92z" />
<glyph unicode="&#x26;" horiz-adv-x="868" d="M53 332q0 96 68 168q29 31 131 102q18 10 51 33q-74 100 -96 151q-43 88 -43 205q0 74 60.5 128.5t137.5 54.5q213 0 228 -297q6 -125 -154 -261q55 -72 166 -225q25 37 78 111q-49 31 -74 59q-12 16 -12 33q0 23 17.5 39t39.5 16q25 0 41.5 -22.5t124.5 -79.5 q29 -16 29 -45q0 -57 -53 -58q-14 0 -27 7q-27 -29 -107 -140q4 -4 27 -39q43 -59 88 -120q55 -77 80 -132q4 -10 4 -22q0 -45 -47 -45q-29 0 -43 27q-39 72 -164 239l-6 8q-61 -72 -133 -116q-82 -51 -143 -52q-115 0 -192 78t-77 195zM178 328q0 -170 144 -170q37 0 92 32 q66 39 129 117q-25 35 -187 250q-14 -10 -41 -29q-68 -47 -92 -75q-45 -53 -45 -125zM260 991q0 -98 39 -174q18 -39 88 -129q18 14 44 48t36 52q16 29 22 62q4 27 5 55q0 172 -132 172q-39 0 -70.5 -24.5t-31.5 -61.5z" />
<glyph unicode="'" horiz-adv-x="239" d="M55 899q18 127 18.5 141.5t6.5 46.5q8 43 10 56q4 29 29 28q23 0 37 -24q6 -12 6 -94q0 -186 2 -172q-6 -45 -51 -45q-66 0 -58 63z" />
<glyph unicode="(" horiz-adv-x="548" d="M63 440q0 283 91 496q66 152 221 350q8 12 22 12q31 0 31 -30q0 -8 -6 -17q-129 -164 -186 -338q-63 -195 -64 -473q0 -193 80 -345t213 -220q29 -14 29 -45q0 -55 -52 -55q-12 0 -24 6q-158 76 -256.5 255t-98.5 404z" />
<glyph unicode=")" horiz-adv-x="493" d="M72 1192q0 49 47 49q14 0 26 -10q263 -197 263 -586q0 -246 -48 -457q-55 -250 -159 -356q-16 -16 -39 -16t-39.5 17t-16.5 38q0 23 17 39q178 176 178 735q0 352 -211 512q-18 14 -18 35z" />
<glyph unicode="*" horiz-adv-x="722" d="M61 901q0 35 33 41q57 10 178 29q-88 74 -145 123q-4 4 -4 10q0 31 22 31q2 0 5 -2q106 -86 198 -152q4 0 10 2q-4 20 -8 61q-4 59 -22 181q-6 43 37 43q41 0 44 -44t13 -147l6 -86h8q117 102 174 168q4 4 13 0q8 -4 4 -10q-25 -29 -117 -152q39 2 108 7l19 -19 q18 -18 18 -22q0 -5 -18 -23l-16 -22q-80 -4 -164 -13q2 -2 98 -69q33 -18 53 -37q10 -10 10 -25q0 -33 -30 -33q-8 0 -31 17q-29 18 -35 20q-29 23 -92 68q2 -78 8 -201q0 -8 -16 -12q-18 -4 -19 4q-10 63 -28 221q-100 -86 -150 -149q-8 -12 -22 -13q-35 0 -35 31 q0 8 8 16q39 51 152 148q-76 -10 -215 -33q-51 -10 -52 43z" />
<glyph unicode="+" horiz-adv-x="686" d="M51 541q0 20 25.5 39.5t60.5 21.5q102 6 129 6h41q0 41 -8 115q-6 68 -6 115q0 45 45 45q43 0 43 -45t14 -109q14 -78 19 -111q141 12 153 13q53 0 54 -53q-1 -56 -54 -56q-76 0 -151 -10q0 -100 -8 -180q-4 -49 -54 -49q-57 0 -53 57q6 72 6 162h-41q6 0 -88 -6 q-39 -2 -92 12q-35 10 -35 33z" />
<glyph unicode="," horiz-adv-x="569" d="M147 -236q0 8 3 21q8 33 49 86q37 47 37 86t-35 86t-35 68q0 14 6 28q37 76 129 76q119 0 119 -129q0 -61 -109.5 -200.5t-152.5 -139.5q-10 0 -11 18z" />
<glyph unicode="-" horiz-adv-x="612" d="M57 518q0 76 58 86l116 2q41 0 283 -20q39 -4 39 -54q0 -35 -21.5 -65.5t-52.5 -28.5q-25 2 -129 15q-68 10 -127 8l-112 -2q-53 -12 -54 59z" />
<glyph unicode="." d="M160 86q0 27 42 77t91 56q63 8 115.5 -27t56.5 -96q2 -55 -40 -99t-93 -44q-63 0 -117.5 39t-54.5 94z" />
<glyph unicode="/" horiz-adv-x="786" d="M66 8q0 14 6 27q162 324 420 735q12 20 124 215q76 137 134 207q10 12 28 12q41 0 41 -43q0 -26 -20 -59q-43 -66 -109 -193q-68 -133 -106 -194q-279 -453 -418 -727q-14 -31 -47 -31q-53 0 -53 51z" />
<glyph unicode="0" horiz-adv-x="970" d="M55 575q0 119 4 152q72 594 400 594q213 0 321 -145q82 -106 125 -332q16 -80 0 -234q-33 -330 -196 -516q-106 -121 -203 -121q-84 0 -172 39q-152 68 -219 224q-59 139 -60 339zM170 575q0 -117 10 -174q18 -86 74 -155q49 -61 137 -113q80 -43 115 -43q66 0 139 111 q118 179 141 415q14 143 0 209q-39 182 -92 258q-78 115 -235 115q-147 0 -209 -162q-25 -57 -70 -321q-10 -59 -10 -140z" />
<glyph unicode="1" horiz-adv-x="491" d="M43 88q0 49 49 57q2 0 88 17q8 66 8 133q0 57 14.5 180t14.5 164q0 25 9.5 157t9.5 146q0 -14 12 164q-37 -29 -101 -84q-18 -25 -45 -25q-25 0 -42 17.5t-17 40.5q0 33 68 92q49 41 96 82q57 20 98 20q68 0 68 -53q0 -35 -8.5 -126t-8.5 -128q0 -16 -9 -150.5t-9 -152.5 q0 -41 -14.5 -164t-14.5 -180q0 -12 -4 -53q-4 -49 -4 -72q8 0 74 8t65 -59q0 -54 -53 -60q-76 -8 -111 -8q-16 0 -161 -24q-33 -6 -52.5 13t-19.5 48z" />
<glyph unicode="2" horiz-adv-x="897" d="M55 375q0 27 27 48t90 42q78 29 98 39q340 174 340 463q0 98 -60.5 162.5t-152.5 64.5q-145 0 -184 -37q-23 -10 -68 -41q-14 -14 -34 -14q-49 0 -50 49q0 20 15 35q16 27 63 65q76 59 258 60q147 0 241.5 -97.5t94.5 -246.5q0 -369 -411 -574q-31 -16 -60 -22 q98 -33 268 -47q145 -10 289 -21q51 -30 51 -59q0 -23 -20.5 -40.5t-38.5 -15.5q-201 16 -401 33q-223 29 -326 107q-29 20 -29 47z" />
<glyph unicode="3" horiz-adv-x="831" d="M25 1090q0 6 6 14q80 104 211 104q231 0 315 -241q0 -199 -139 -281q170 -63 266 -235q90 -165 90 -388q0 -147 -94 -239t-242 -92q-174 0 -284 53q-12 8 -27 35q-16 72 45 71q14 0 33 -6q92 -35 233 -35q98 0 161 57.5t63 155.5q0 236 -115 386q-123 164 -336 163 q-68 0 -68 58q0 43 50 57q270 78 247 223q-25 166 -198 166q-141 0 -174 -49q-2 -2 -11 -2q-33 0 -32 25z" />
<glyph unicode="4" horiz-adv-x="819" d="M33 498q0 37 39 110q31 53 59 107q51 115 178 366q31 53 82 158q4 8 15 8q31 0 18 -26q-10 -41 -39 -138q-59 -168 -182 -405q-31 -59 -72 -170q135 12 148 12q109 0 206 -6q0 27 -2 53q-8 111 0 305q0 33 43 33q35 0 39 -28q12 -90 35 -293q4 -39 4 -80 q96 -12 146.5 -20.5t50.5 -57.5q0 -29 -19.5 -49.5t-50.5 -14.5q-39 8 -121 21q-2 -162 -8 -350l2 -88q2 -59 -59 -60q-59 0 -60 60v100l7 346q-98 6 -213 6q-33 0 -97.5 -5t-87.5 -5q-61 0 -61 111z" />
<glyph unicode="5" horiz-adv-x="901" d="M4 33q-18 49 14 82q35 20 72 2q6 -8 12 -21q37 -68 97 -114q72 -59 147 -60q383 0 383 447q0 328 -383 327q-31 0 -51 -4q-31 -14 -123 -39q-12 -4 -22 -4q-47 0 -48 64q0 -2 7 176q4 109 -7 174q-12 6 -43 16q-37 14 -36 54q0 25 16 44t41 19q12 0 24 -4 q172 -72 465 -72q25 0 90 6q66 6 66 -61q0 -51 -51 -55q-94 -8 -105 -9q-174 0 -389 41q35 -152 39 -256q6 2 18.5 10.5t16.5 10.5q117 12 92 12q502 1 502 -450q0 -565 -502 -566q-104 0 -205 74q-86 66 -137 156z" />
<glyph unicode="6" horiz-adv-x="813" d="M51 319q-4 131 0 207q12 193 53 320q84 256 363 522q18 16 41 16q25 0 43 -17t18 -42q0 -23 -18 -41q-199 -203 -199 -205q-113 -129 -162 -270q-43 -125 -51 -283q-2 -39 -2 -149q123 113 318 112q113 0 202 -73q95 -81 95 -187q0 -147 -109 -260q-74 -78 -223 -78 q-66 0 -158 52q-104 57 -168 182q-20 41 -43 194zM154 199l16 -49q47 -88 141 -136q76 -39 154 -39q164 0 182 175q4 28 4 79q0 61 -65 105q-59 37 -131 37q-98 0 -175 -42t-110 -108q-4 -8 -16 -22z" />
<glyph unicode="7" horiz-adv-x="755" d="M23 1196q0 33 32 35q61 4 92 4q16 0 41 2h35q41 0 131 8t140 8q63 0 170 -4q65 -1 55 -71q-12 -82 -66 -222q-33 -74 -94 -219q-96 -217 -266 -659q-14 -41 -53 -41q-63 0 -64 59q0 10 4 21q43 129 129 334q104 250 135 331q35 74 97 217q14 45 47 138h-94 q-49 0 -139.5 -5.5t-131.5 -5.5h-86q-41 4 -84 23q-31 12 -30 47z" />
<glyph unicode="8" horiz-adv-x="880" d="M43 432q0 264 219 316q-84 70 -84 194q0 100 102.5 191.5t204.5 91.5q111 0 174.5 -75t63.5 -183q0 -207 -193 -240q123 -72 175 -129q68 -76 110 -215q23 -72 23 -166q0 -289 -316 -289q-190 0 -334.5 155t-144.5 349zM164 432q0 -145 108.5 -263t249.5 -118 q201 0 201 166q0 61 -21 129q-37 121 -106 189q-33 31 -174 118l-4 2l-45 9q-209 0 -209 -232zM297 942q0 -92 100 -137q8 2 25 4q180 11 180 158q0 55 -31.5 96t-85.5 41q-63 0 -125.5 -51.5t-62.5 -110.5z" />
<glyph unicode="9" horiz-adv-x="831" d="M51 1051q0 164 142 245q121 72 317 72q68 0 131 -29q25 -10 74 -49q23 -27 26 -55q14 -88 15 -485q0 -39 2 -138.5t2 -130.5v-309v-117q0 -59 -58 -59q-59 0 -59 59v426q0 27 -3 129.5t-3 145.5q-82 -59 -195 -60q-182 0 -286.5 88t-104.5 267zM172 1051q0 -231 270 -232 q129 0 197 113q4 190 -12 278q-61 39 -117 39q-338 0 -338 -198z" />
<glyph unicode=":" d="M160 86q0 27 42 77t91 56q63 8 115.5 -27t56.5 -96q2 -55 -40 -99t-93 -44q-63 0 -117.5 39t-54.5 94zM225 645q0 51 86 119q20 10 65.5 -29t43.5 -80q-4 -49 -19 -65q-23 -20 -100 -21q-10 0 -43 33t-33 43z" />
<glyph unicode=";" horiz-adv-x="569" d="M147 -236q0 8 3 21q8 33 49 86q37 47 37 86t-35 86t-35 68q0 14 6 28q37 76 129 76q119 0 119 -129q0 -61 -109.5 -200.5t-152.5 -139.5q-10 0 -11 18zM150 612q0 47 46 91.5t105 48.5q51 4 106.5 -34t55.5 -63q0 -70 -53.5 -109.5t-130.5 -39.5q-16 0 -72.5 47t-56.5 59 z" />
<glyph unicode="&#x3c;" horiz-adv-x="989" d="M72 403q0 16 14 37q72 94 293 174q176 55 350 111q6 2 14 2q39 0 39 -41q0 -27 -26 -35q-211 -66 -275 -90q-172 -63 -256 -131q18 -4 203 -33q33 -4 225 -55q154 -41 250 -41q53 0 53 -53q0 -55 -53 -55q-98 0 -258 40q-201 53 -233 58q-86 12 -169 25.5t-139 43.5 q-33 18 -32 43z" />
<glyph unicode="=" horiz-adv-x="675" d="M29 657q0 27 18.5 44.5t46.5 11.5q78 -16 222 -18.5t214 -14.5q47 -8 48 -55q0 -63 -64 -54q-74 12 -219 14.5t-221 18.5q-45 10 -45 53zM43 440q0 39 41 37t98 0q76 2 95.5 2t76 3t84.5 3h142q53 0 53 -53t-53 -53h-142q-29 0 -85 -3t-77 -3q-39 0 -196 26q-37 6 -37 41 z" />
<glyph unicode="&#x3e;" horiz-adv-x="849" d="M61 666q0 57 56 47q127 -25 313 -74q156 -41 313 -82q47 -12 48 -45q-1 -18 -19 -41q-63 -76 -256 -141q-147 -45 -295 -90q-10 -4 -20 -4q-51 0 -51 57q0 37 36 49q14 6 209 59q145 41 217 80q-172 51 -514 140q-37 8 -37 45z" />
<glyph unicode="?" horiz-adv-x="827" d="M88 1106q0 12 6 22q80 172 293 172q117 0 207 -51q104 -62 104 -164q0 -225 -176 -335q-6 -4 -76 -21q-49 -12 -49 -41q0 -33 27 -100.5t27 -114.5q0 -23 -11 -94q-6 -45 -53 -45q-25 0 -42 16.5t-11 44.5q10 53 10 78q0 47 -26.5 114.5t-26.5 100.5q0 51 67 94 q53 31 107 60q127 80 127 243q0 109 -205 109q-150 0 -203 -109q-14 -29 -43 -28q-53 0 -53 49zM291 96v86q0 35 39 35q37 0 73.5 -27.5t36.5 -60.5v-86q0 -33 -39 -33q-35 0 -72.5 26.5t-37.5 59.5z" />
<glyph unicode="@" horiz-adv-x="1513" d="M80 752q0 162 96 350q61 121 250.5 202.5t437.5 81.5q172 0 357 -139q192 -145 192 -301q0 -166 -110 -358q-121 -211 -256 -211q-88 0 -164 45q-82 47 -82 115q0 33 4 122q-143 -186 -338 -186q-39 0 -79 62.5t-40 109.5q0 168 141 256q84 53 291 103q45 10 45 -39 q0 -27 -26 -33q-160 -35 -232 -80q-111 -72 -110 -207q0 -66 10 -65q147 0 254 141q63 82 137 266q14 35 49 35q53 0 54 -51q0 -10 -5 -23q-49 -125 -49 -411q0 -53 140 -54q104 0 186 174q72 152 72 289q0 121 -156 230q-147 104 -285 104q-201 0 -368 -61 q-174 -63 -226 -166q-84 -164 -84 -301q0 -295 178.5 -480.5t479.5 -185.5q82 0 164 39q68 37 135 74q12 6 24 6q51 0 52 -55q0 -33 -29 -48l-156 -82q-94 -41 -190 -40q-348 0 -557 217q-207 211 -207 555z" />
<glyph unicode="A" horiz-adv-x="835" d="M27 629q0 48 49 48q6 0 12 -1q31 -2 127 -12q115 424 150 634q-8 20 -23 64q-6 10 -6 20q0 43 45 43q29 0 43 -30q4 -10 72 -135q45 -84 57 -144q14 -70 20 -182q8 -137 15 -186q8 -59 24 -117q10 0 24 -2l13 -2q82 -4 82 -58q0 -39 -55 -47q-14 0 -19 -2q25 -57 52 -114 q27 -68 36 -117q20 -106 25 -127q16 -64 39 -109q8 -14 8 -30q0 -25 -20.5 -42.5t-46.5 -17.5q-35 0 -54 35q-35 68 -73 268q-10 51 -101 260q-27 2 -110 13q-70 8 -123 8h-15q-16 -57 -47 -185q-29 -141 -55 -223l-10 -43q-10 -47 -53 -47q-25 0 -43.5 20.5t-16.5 51.5 l4 45q33 78 90 254q18 72 43 139q-49 4 -96 8q-63 6 -63 62zM307 657q59 -4 174 -14q-8 27 -18 88q-8 53 -12 172q-4 106 -17 164q-10 -43 -127 -410z" />
<glyph unicode="B" horiz-adv-x="931" d="M-18 1284q0 23 22 33q37 20 76 39q47 20 98 20q152 0 272.5 -86t120.5 -190q0 -117 -63 -191q-45 -55 -146 -104q502 -229 502 -391q0 -141 -159.5 -262t-344.5 -121q-25 0 -49 2q-33 8 -92 20q-4 -25 -13 -72t-56 -47q-27 0 -44.5 18.5t-11.5 49.5q18 82 29 260 q2 102 14 338q31 446 76 660q0 2 2 6h-37q-86 -2 -133 -21q-10 -6 -22 -6q-41 0 -41 45zM227 170q33 -10 109 -25q18 -2 36 -2q126 0 244 74q136 84 136 197q0 94 -189 188q-156 63 -311 129q-2 -43 -4 -139q-2 -104 -15 -342zM254 874q109 47 141 74q66 56 66 152 q0 49 -50.5 93t-123.5 60v-8q-20 -104 -33 -371z" />
<glyph unicode="C" horiz-adv-x="999" d="M59 586q0 326 84 555q106 295 322 295q68 0 106 -54q2 -2 52 -98q8 -14 8 -29q0 -51 -56 -51q-31 0 -47 31q-8 31 -16 59q-12 37 -47 37q-297 0 -297 -745q0 -453 340 -453q176 0 373 143q16 12 32 13q53 0 54 -56q0 -24 -23 -40q-86 -63 -196 -111q-135 -55 -240 -55 q-449 0 -449 559z" />
<glyph unicode="D" horiz-adv-x="1193" d="M39 1001q0 35 38 47t77 27q78 29 98 29q309 0 575 -178q295 -196 295 -477q0 -59 -67 -142q-49 -57 -101 -94q-246 -180 -831 -238q-37 -4 -58.5 18.5t-21.5 55.5q0 59 59 68q31 4 52 4q0 35 2 59q41 188 41 455q0 33 8 172q3 53 3 93t-3 67q-102 -14 -109 -17 q-25 -6 -41 11.5t-16 39.5zM279 975q34 -185 34 -332v-8q0 -320 1 -320l1 76q-2 -131 -20 -227q0 -18 -2 -25q410 61 577 183q33 27 66 51q45 41 45 76q0 223 -238 378q-207 135 -464 148z" />
<glyph unicode="E" horiz-adv-x="755" d="M47 33q0 96 8 237q4 59 60 576q4 37 4 49q-45 14 -45 57q0 57 57 64l23 186q-14 -6 -29 -6q-27 0 -45.5 20.5t-18.5 47.5q0 35 33 53q61 35 228 53q23 2 262 23h10q57 0 57 -62q0 -59 -59 -63q-125 -8 -359 -37q-4 -68 -14 -223q86 -6 273 -7q65 0 65 -61q0 -65 -65 -66 q-154 0 -279 11q0 -6 -2 -47q-10 -174 -33 -576q0 -43 -4 -125q156 8 471 41q33 6 53.5 -12.5t20.5 -46.5q0 -54 -57 -64q-233 -39 -414 -39q-43 0 -80 -6q-14 -41 -59 -41q-61 0 -62 64z" />
<glyph unicode="F" horiz-adv-x="686" d="M27 1169q0 41 46 53.5t167 34.5q66 9 158 9t210 -9q59 0 60 -59q-1 -59 -60 -59q-114 5 -204 5t-154 -5q-23 0 -70 -4q37 -213 60 -480q125 -14 327 -14q59 0 60 -59q0 -59 -60 -60q-170 0 -321 13q2 -51 2 -162q0 4 4 -162v-25q0 -63 -8 -141q-6 -55 -62 -55 q-57 0 -59 61q-1 15 -1 33q0 52 5 123q4 106 4 166q0 119 -2 178q-2 2 -4 2q-51 8 -51 57q0 55 53 60q-8 215 -45 450q-7 -1 -13 -1q-42 0 -42 50z" />
<glyph unicode="G" horiz-adv-x="1261" d="M47 606q0 346 204 572.5t529 226.5q131 0 244 -55q31 -14 31 -47q0 -23 -18.5 -42.5t-43.5 -19.5q-12 0 -26 6q-76 39 -187 39q-276 0 -447 -192.5t-171 -487.5q0 -152 170 -274q162 -115 342 -115q137 0 252 57q137 70 137 181q0 10 6 18q8 72 8 133q0 27 -10 39 q-129 -31 -233 -31q-31 0 -76 -6t-74 -6q-109 0 -144.5 15.5t-35.5 48.5q0 27 26 32q49 6 158 19q121 16 162 16t242 39q8 2 16 2q37 0 49 -43q0 -2 23 -61q12 -33 12 -64q0 -45 -11.5 -192.5t-11.5 -196.5q0 -129 23 -215q4 -33 -14.5 -51.5t-44.5 -18.5q-47 0 -56 48 q-24 124 -24 229v8v27q-156 -143 -379 -144q-219 0 -420 156q-207 160 -207 350z" />
<glyph unicode="H" horiz-adv-x="931" d="M27 868q0 39 43 47q4 0 22 9l10 403q0 35 37 35q35 0 35 -35l6 -381q299 72 484 82q14 297 14 410q0 39 37 39t37 -39q0 -27 12 -408h18q43 0 119 -12q49 -8 49 -55q0 -55 -49 -55q-6 0 -12 1q-70 10 -107 11h-16q6 -37 6 -84q0 -35 6 -95.5t6 -109.5q0 -162 15 -322 q4 -53 12 -143v-7q0 -48 -49 -48q-55 0 -60 55q-4 41 -12 133q-14 256 -14 332q0 49 -7 109.5t-7 95.5v84q-219 -16 -476 -84l2 -97q4 -193 4 -252t3.5 -180t3.5 -182q0 -47 6 -109q6 -27 -11.5 -44t-41.5 -17q-49 0 -54 49q-2 20 -8 62q-6 33 -6 59q0 33 2 87t2 77v198v252 l2 76q-27 -4 -45 13.5t-18 39.5z" />
<glyph unicode="I" horiz-adv-x="491" d="M90 92q18 2 53 6q-1 36 -1 82t1 103q2 152 2 178q0 111 17 354q16 252 16 375q-25 2 -83 2t-58 55t57 56q39 0 113 4t110 4q66 0 66 -62q0 -63 -66 -63h-45v-725q0 -45 -4 -166q-4 -85 -4 -139v-33q37 6 64 6q12 0 31.5 2t29.5 2q61 0 62 -63q-1 -64 -62 -64 q-10 0 -29.5 -2t-31.5 -2q-31 0 -103 -12q-90 -16 -125 -21q-7 -1 -14 -1q-55 0 -55 59q0 57 59 65z" />
<glyph unicode="J" horiz-adv-x="880" d="M10 168v35q0 55 58 55q57 0 57 -55v-35q0 -90 48 -155.5t128 -65.5q131 0 199 215q25 82 65 350q12 82 13 176q0 84 -9 221q-8 147 -8 213q-264 -18 -274 -18q-57 0 -58 55q0 55 58 55q74 0 199.5 13.5t177.5 13.5h75q84 0 113 -12q37 -16 37 -47q0 -25 -22.5 -42.5 t-53.5 -13.5h-74h-90q2 -61 21 -215q14 -137 14 -223q0 -145 -6 -190q-33 -240 -109 -414q-109 -250 -268 -250q-131 0 -211 96.5t-80 237.5z" />
<glyph unicode="K" horiz-adv-x="915" d="M57 197q0 68 8.5 188.5t8.5 177.5q0 49 4 176q2 119 2 183q-2 98 -10 165q-1 7 -1 14q0 45 50 46q43 0 49 -45q29 -180 37 -342q100 84 426 403q14 14 33 15q51 0 51 -52q0 -20 -17 -36q-57 -57 -166 -189q-100 -121 -163 -182q168 -375 551 -670q20 -16 20 -39 q0 -51 -51 -51q-14 0 -29 10q-442 340 -598 654q-25 -16 -49 -17v-43q0 -57 -6 -178t-6 -188q0 -25 -2 -76t-2 -76q2 -41 8 -72q2 -10 2 -18q0 -68 -74 -68q-59 0 -70 58q-6 31 -6 252z" />
<glyph unicode="L" horiz-adv-x="784" d="M68 150q6 76 6 264v98q0 16 -2 60t-2 55v260q0 10 9 263t9 267q0 31 33 31q29 0 29 -27q0 -14 4 -230t4 -226q0 -37 4 -166t4 -181q0 -8 2 -43v-55q0 -16 2 -51v-61v-158h47q100 0 254 -24.5t244 -24.5q33 0 33 -51q0 -31 -14.5 -56.5t-37.5 -25.5q-90 0 -243.5 24.5 t-251.5 24.5q-23 0 -47.5 -5.5t-47.5 -7.5q-20 -2 -30 11.5t-8 34.5z" />
<glyph unicode="M" horiz-adv-x="1189" d="M23 39q0 119 108 557q18 74 37.5 148.5t44.5 123.5q20 41 49 41q27 0 51 -32q78 -102 158 -302q33 -82 117 -331q12 45 35 129q51 193 104 383q59 225 82 387q8 55 49 55q35 0 53 -41q14 -31 19 -88q4 -88 8 -110.5t20 -77.5q14 -45 15 -80q0 -16 53 -209 q57 -201 90 -295q10 -50 47 -152q8 -14 8 -28q0 -27 -21.5 -44.5t-47.5 -17.5q-37 0 -53 35q-14 49 -54 170q-33 100 -121 541q-4 27 -12 71q-51 -172 -147 -522q-8 -51 -33 -160l-33 -133q4 -29 -17.5 -49t-49.5 -20q-39 0 -56 39q-10 27 -102 313q-76 240 -145 367 q-12 -59 -52 -179q-43 -164 -86 -325q-53 -197 -94 -197q-8 0 -18 10q-6 0 -6 23z" />
<glyph unicode="N" horiz-adv-x="819" d="M41 252q0 184 12 422q8 164 45 235q23 45 54 45q29 0 55 -34q104 -131 209 -400q127 -328 180 -424q10 117 31 361q12 125 39 438q12 60 12 90q0 11 -2 19q-2 10 -2 18q0 61 65 61q50 0 62 -53q2 -10 2 -28q0 -36 -8 -107q-27 -229 -50 -459q-8 -137 -16 -276 q-10 -152 -43 -248q-18 -51 -53 -51q-29 0 -55 35q-100 135 -211 423q-121 311 -197 433q-14 -57 -16 -93q-6 -123 -23 -413q-2 -35 -6 -117q0 -31 -10 -119q-10 -23 -41 -22q-33 0 -31 26v109v80q-2 51 -2 49z" />
<glyph unicode="O" horiz-adv-x="1056" d="M47 512q0 240 164 440q148 180 326 180q19 0 38 -2q184 -18 314 -251q117 -213 117 -449q0 -252 -113 -401q-121 -158 -342 -158q-168 0 -270 82q-78 63 -162 217q-72 131 -72 342zM147 512q0 -170 78 -292t127 -161q76 -63 199 -63q164 0 252 127q78 114 78 307 q0 217 -74 391q-88 209 -242 226q-17 2 -33 2q-155 0 -268 -156q-117 -162 -117 -381z" />
<glyph unicode="P" horiz-adv-x="815" d="M-29 1255q0 37 29 41q115 18 289 19q178 0 321 -86q160 -97 160 -240q0 -82 -88 -198q-66 -86 -170 -127q-70 -27 -203 -48q-42 -6 -65 -6t-27 6q0 -293 2 -356q4 -129 4 -162q0 -111 -6 -192q-4 -47 -47 -47q-47 0 -47 44v7q6 82 6 184q0 25 4 154q8 260 8 522v76 q0 6 2 41v41q0 223 4 297q-61 0 -133 -4q-43 -2 -43 34zM211 1079q4 -141 4 -150t2 -42v-41q0 -12 2 -55v-60q49 0 82 4q215 27 301 133q55 68 55 121q0 106 -122 172q-100 57 -244 68q-20 1 -38.5 1t-37.5 -1q-5 -50 -5 -109q0 -20 1 -41z" />
<glyph unicode="Q" horiz-adv-x="870" d="M53 403q0 70 6 119q33 266 95 389q41 82 116.5 148.5t151.5 91.5q20 6 37 4q348 -47 348 -686q0 -258 -92 -393q73 -166 116 -248q8 -16 9 -31q0 -27 -19.5 -44t-44.5 -17q-37 0 -53 37q-37 61 -84 221q-111 -84 -283 -84q-182 0 -250 143q-53 111 -53 350zM137 403 q0 -190 33 -264q47 -104 186 -104q143 0 232 92q0 4 -4 10t-6 8q-86 156 -132 232q0 33 19 33q27 0 86 -70q51 -59 90 -125q41 102 41 254q0 227 -55 383q-66 180 -185 180h-8q-141 -6 -219 -170q-61 -131 -76 -381q-2 -37 -2 -78z" />
<glyph unicode="R" horiz-adv-x="686" d="M10 1130q0 45 39 46l72 4q17 1 33 1q33 0 63 -3q285 -29 363 -187q26 -53 26 -127v-6q0 -139 -84 -240q-37 -43 -162 -110q88 -86 179 -256q4 -6 135 -272q6 -14 6 -29q0 -27 -20.5 -45.5t-45.5 -18.5q-37 0 -53 35q-72 152 -145 305q-100 184 -205 238q-6 4 -18 8v-76 q0 -66 -8.5 -173t-8.5 -132q0 -6 2 -18v-19q0 -45 -49 -45t-49 45v37v-1q1 0 18 304q4 47 8 148v121q0 141 -6 301q0 43 -4 114q-29 8 -57.5 12.5t-28.5 38.5zM174 1073q2 -35 6 -108q18 -238 19 -301q0 -16 -3 -46t-3 -49q8 4 36 15q100 8 146 26q57 25 96 86.5t39 161.5 q0 29 -37 91.5t-106 88.5q-43 14 -154 31q-6 0 -18.5 2t-20.5 2z" />
<glyph unicode="S" horiz-adv-x="681" d="M29 274q-4 23 10 50.5t39 27.5q37 0 76 -39q45 -176 190 -176q59 0 112.5 53.5t53.5 110.5q0 117 -72 252q-43 80 -135 158q-135 111 -158 135q-25 43 -47 84q-20 40 -20 77q0 12 2 25q18 111 199 164q18 2 34 2q63 0 110.5 -23.5t57.5 -58.5q6 -23 -7 -37t-28 -14 q-6 0 -8 2q-39 37 -92 37q-31 0 -59 -14q-66 -31 -80 -68q-6 -18 -6 -35q0 -31 32 -88q23 -39 146 -124t168 -165q51 -92 67 -141q23 -70 23 -168q0 -102 -93 -196.5t-200 -94.5q-119 0 -205 84q-74 70 -110 180z" />
<glyph unicode="T" horiz-adv-x="643" d="M-2 1184q0 18 10 20q18 4 72 4q18 0 67.5 -4t75.5 -4l80 -4q72 0 240 -2q23 0 61.5 -3t38.5 -54q0 -56 -37 -56h-55q-104 0 -170 9q2 -6 2 -13q0 -70 -2 -157q-2 -59 -12 -275q-5 -101 -5 -181q0 -40 1 -75q2 -49 18 -209q6 -43 16 -147q2 -11 2 -20q0 -46 -51 -46 q-49 0 -53 52.5t-12 156.5q-8 66 -11 207q-1 77 -1 149q0 228 14 404q12 152 12 156q-33 2 -76 4q-12 0 -58 5t-69 5q-14 0 -47 28.5t-43 29.5t-8 20z" />
<glyph unicode="U" horiz-adv-x="702" d="M57 659q-1 42 -1 74q0 64 3 86q8 82 9 158q0 115 20 153q6 18 23 19q14 0 16 -19q12 -135 12 -155q0 -184 8 -322q2 -94 5.5 -190t23.5 -164q27 -86 146 -193q68 -12 65 -12q16 2 32.5 16.5t16.5 18.5q35 43 56 158q12 72 14 116q4 92 4 158q0 6 2 39t2 49q0 86 2 185 q4 154 14 206q6 31 39 31q8 0 18.5 -5t14.5 -26q0 -135 2 -358v-227q0 -8 2 -37v-45q0 -12 4 -70q8 -25 25 -74q18 -63 96 -133q29 -20 29 -53q0 -57 -55 -57q-16 0 -35 8q-59 29 -127 153q-16 -72 -70 -129q-47 -49 -86 -49q-27 0 -125 33q-113 86 -166 252 q-37 111 -39 405z" />
<glyph unicode="V" horiz-adv-x="716" d="M-4 1196q0 39 24 43q37 0 86 -197q18 -74 60 -170q68 -160 67 -159q4 -10 82 -197q39 -94 111 -274q14 104 51 338q10 57 31 170q25 143 88 464q6 39 20 95q25 27 54 24q14 -2 29.5 -21.5t15.5 -25.5q-8 -33 -25 -92q-59 -197 -106 -477q-6 -35 -19 -115 q-20 -141 -53 -463q0 -35 -6 -98q-12 -63 -62 -64q-35 0 -57 43q-37 74 -93 243t-89 235q-16 49 -51 143q-55 131 -111 363q-14 47 -29 96q-18 66 -18 96z" />
<glyph unicode="W" horiz-adv-x="1087" d="M-14 989q0 31 14 33h1q31 0 97 -252q43 -164 187 -510q20 102 65 303q4 23 12 49q12 41 44 41q20 0 38 -20q31 -35 123 -240q14 -31 64 -121q18 51 59 123q61 109 74 131q49 98 151 293q45 84 107 203q16 33 53 33q63 0 64 -60q-1 -14 -9 -30q-41 -63 -122 -203 q-49 -86 -154 -279q-45 -82 -125 -256q-43 -72 -88 -129q-10 -8 -23 -8q-41 0 -61 55q-14 31 -44 102.5t-47 105.5t-48 114q-4 -39 -15 -109q-12 -80 -24 -157q-16 -115 -44 -153t-56 -38q-39 0 -58 53q-45 129 -94 334q-43 174 -86 351q-55 211 -55 241z" />
<glyph unicode="X" horiz-adv-x="784" d="M20 825q0 14 12.5 21.5t16.5 1.5q37 -29 90 -90q27 -31 234 -242q68 84 135 170q82 100 115 100q29 0 28 -41q0 -49 -78 -163q-66 -96 -118 -150q20 -23 61 -67q63 -68 129 -138q71 -78 137 -178q14 -20 15 -41q0 -45 -45 -45q-29 0 -54 29q-90 109 -258 301 q-16 20 -53 57q-90 -115 -125 -160q-70 -92 -94 -141q-18 -35 -55 -35q-25 0 -44.5 17.5t-19.5 42.5q0 55 260 366q-119 133 -217 269q-29 39 -67 98q-4 10 -5 18z" />
<glyph unicode="Y" horiz-adv-x="665" d="M2 1141q0 29 35 28q10 0 12 -4q182 -313 328 -512q12 37 37 103q16 57 80 233q25 84 73 254q10 41 35 105q8 18 33 18q20 0 35.5 -11.5t9.5 -27.5q-14 -33 -29 -96q-4 -29 -20 -96q-12 -53 -43 -158q-51 -152 -70 -244q-8 -47 -74 -252q-20 -61 -108 -274 q-68 -164 -90 -285q-4 -10 -21.5 -26.5t-50.5 -16.5q-39 0 -49 29q-4 12 0 37q20 125 90 288q94 229 111 281q-84 117 -195 346q-63 133 -125 264q-4 10 -4 17z" />
<glyph unicode="Z" horiz-adv-x="833" d="M35 1055q0 41 49 49q23 4 72 4q8 0 94 -2q39 0 131 -4q49 -2 151 -15q86 -10 138 -10q10 0 27.5 -6t29.5 -4q27 4 38 -7t7 -38q-6 -29 -27 -68q-16 -27 -32 -55q-145 -219 -336 -600q-4 -8 -84 -149h342q63 0 90 -3q14 -2 47 -4q49 -4 49 -57q0 -66 -59 -66h-49h3 q0 1 -81 5q-14 1 -52.5 1t-99.5 -1q-133 0 -147 -5q-31 -8 -90 -8q-51 0 -80 -14l-10 -16q-8 -18 -43 -19q-74 0 -74 43q0 12 10 27q88 119 117 160q68 96 100 163q84 172 369 594q8 18 2 27q-2 4 -27 4q-55 0 -254 14q-105 7 -105 9h1h-49q-31 -2 -50.5 -2.5t-46.5 -4.5 q-8 -2 -32 9q-39 14 -39 49z" />
<glyph unicode="[" horiz-adv-x="399" d="M59 1231q0 80 54 80q23 0 57.5 -5.5t48.5 -5.5q68 0 86 3q84 10 84 -50q0 -39 -45 -49q-70 -16 -158 -16q6 -166 7 -361q0 -70 -3 -122q-4 -66 -4 -95v-399v-301q0 -35 29 -38t59 -3q31 -12 31 -31q0 -20 -12 -41.5t-27 -21.5q-106 4 -135 18q-51 25 -51 117v311v393 q0 31 4 95q2 53 2 118q0 127 -16 297q-10 96 -11 107z" />
<glyph unicode="\" horiz-adv-x="708" d="M25 1120q0 27 26 27q14 0 25 -14q125 -184 311 -535q207 -383 307 -543q8 -14 8 -30q0 -25 -16 -42.5t-37 -17.5q-23 0 -37 23q-137 213 -303 551q-225 465 -280 565q-4 8 -4 16z" />
<glyph unicode="]" horiz-adv-x="399" d="M25 1276q0 51 53 53l57 2h117q53 0 53 -53q0 -61 4 -168q4 -129 5 -187.5t3 -193.5q0 -37 5 -111q4 -63 4 -83q0 -453 -21 -701q-4 -51 -55 -49q-57 2 -85 -2t-54 -8q-51 -4 -52 41q0 51 58 61q90 16 86 17q14 172 14 641q0 18 -2 77q-4 78 -4 109v194q-2 113 -10 308 h-123q-53 0 -53 53z" />
<glyph unicode="^" horiz-adv-x="534" d="M51 1401q0 14 10 24q25 25 74 83.5t71.5 81t41.5 22.5q23 0 43 -31t69.5 -74.5t67.5 -68.5q10 -14 10 -31q0 -53 -53 -53q-23 0 -39 23.5t-49 52.5q-51 45 -57 51q-47 -35 -129 -105q-10 -10 -25 -10q-35 0 -35 35z" />
<glyph unicode="_" horiz-adv-x="1267" d="M-94 -236q0 20 18 23q217 25 355 33q154 10 337 8q256 -4 336 -2q229 4 213 4q74 0 92 -4q61 -8 62 -49q0 -39 -62 -47q-18 -4 -92 -4h-108q-78 -2 -111 -2q-137 0 -330 2q-215 4 -331 4q-74 0 -189 -2h-155q-35 0 -35 36z" />
<glyph unicode="`" horiz-adv-x="450" d="M74 1624q0 23 16 40t39 17t39 -18q63 -76 192 -215q18 -18 19 -39q0 -55 -55 -55q-20 0 -39 18q-33 33 -97.5 107.5t-97.5 107.5q-16 16 -16 37z" />
<glyph unicode="a" horiz-adv-x="821" d="M35 295q0 41 28 129q61 190 183 305q133 127 305 127q145 0 233 -111q14 -16 15 -36q0 -47 -51 -56q-4 -61 -13 -188v-148q0 -78 31 -155q8 -25 61 -131q6 -14 7 -27q0 -55 -56 -55q-33 0 -49 33q-59 119 -72 151q-34 88 -34 179v5v19q-41 -123 -113 -195 q-49 -49 -80 -67q-49 -27 -119 -27q-276 0 -276 248zM137 295q0 -154 174 -154q88 0 152 66q51 53 84 137q20 63 41 125q12 39 24 115q12 66 29 102q2 7 16 27q-34 26 -101 26h-5q-139 0 -248 -98q-100 -94 -147 -248q-18 -59 -19 -98z" />
<glyph unicode="b" horiz-adv-x="569" d="M57 1530q-2 23 29 22q23 0 29 -26q41 -403 41 -492v-389q27 3 53 3q107 0 176 -48q131 -90 131 -302v-19q-2 -90 -100 -181q-84 -78 -183 -114q-23 -8 -53 2q-12 -6 -28 -6q-49 0 -60 47q-33 150 -33 364q0 47 4.5 150.5t4.5 160.5q0 66 2 166v166q0 362 -13 496z M158 600q8 -147 8 -209q0 -141 39 -287q197 87 207 175q6 51 6 86q0 121 -76 182q-66 53 -184 53z" />
<glyph unicode="c" horiz-adv-x="561" d="M35 485q0 186 102.5 300t280.5 114q33 0 56.5 -6t23.5 -31q0 -35 -33 -35h-47q-137 0 -209 -98q-66 -90 -66 -244q0 -166 88 -257t250 -91q57 0 58 -55q-1 -57 -58 -57q-215 0 -330.5 120.5t-115.5 339.5z" />
<glyph unicode="d" horiz-adv-x="897" d="M43 279q0 197 139 315q131 113 340 113q90 0 187 -43q6 272 6 708q0 66 61 66q62 0 62 -66q0 -246 -27 -770q-2 -45 -10 -151q-6 -84 -6 -113q0 -88 -9 -240q-10 -170 -12 -229q0 -27 -33 -27q-39 0 -39 31v219l-4 -2q-142 -110 -338 -110h-4q-150 0 -231.5 78.5 t-81.5 220.5zM168 279q0 -82 50 -129.5t138 -47.5q90 0 187.5 43t158.5 109v84q0 37 5 135q0 12 2 49q-66 57 -187 58q-154 0 -250 -78q-104 -82 -104 -223z" />
<glyph unicode="e" horiz-adv-x="741" d="M29 623q0 117 80.5 222t179.5 105q119 0 250 -101t137 -198v-6q0 -82 -150 -149q-139 -61 -272 -62q-41 0 -68 8q66 -192 309 -192h3q51 0 141 39q14 6 29 6q27 0 45 -19.5t18 -46.5q0 -37 -39 -55q-63 -31 -84 -37q-41 -12 -110 -12q-469 0 -469 498zM156 623 q0 -53 12 -119q188 29 231 39q148 38 148 108q0 59 -89 116.5t-169 57.5q-55 0 -94 -64.5t-39 -137.5z" />
<glyph unicode="f" horiz-adv-x="507" d="M25 834q0 63 63 63h57q2 14 11 70q37 279 65 354q68 174 238 174q100 0 157 -74q23 -20 23 -45t-19.5 -43t-44.5 -18t-45 18q-39 37 -71 37q-98 0 -146 -65q-39 -51 -55 -156q-12 -92 -25 -184q-2 -18 -8 -70h88q14 0 54 2h57q65 0 65 -61q0 -65 -65 -66q-14 0 -58 -2 t-53 -2h-92q-31 -496 -31 -576q0 -47 -12 -253q-4 -63 -8 -93t-37 -30q-41 0 -41 45v86q6 139 6 256.5t33 568.5h-43q-63 0 -63 64z" />
<glyph unicode="g" horiz-adv-x="688" d="M-123 -180q5 33 45 33q12 0 27 -3q53 -10 53 -47q10 -115 84 -157q61 -37 201 -37q80 0 145 35q86 45 86 391q-82 -16 -180 -17q-106 0 -207.5 96.5t-101.5 202.5q0 168 108.5 296t261.5 128q72 0 107 -8q2 0 5 -2t5 -4v31q2 27 2 47q0 43 45 43q55 0 55 -37 q0 -47 4.5 -112.5t4.5 -108.5v-109v3q1 0 6 -232q0 -35 6 -102q4 -60 4 -107q0 -166 -35 -307q-43 -170 -119 -203q-92 -51 -202 -51q-199 0 -293 69q-100 72 -117 248v21zM156 317q0 -61 58 -116.5t124 -55.5q110 1 176 17q0 6 -4 84q-4 110 -4 195v53l6 129q-14 8 -45 26 q-31 4 -68 4q-111 0 -180 -106q-63 -96 -63 -230z" />
<glyph unicode="h" horiz-adv-x="835" d="M53 1456q-6 33 14.5 52.5t47.5 19.5q51 0 59 -51q11 -62 11 -144q0 -23 -1 -49q-6 -184 -6 -211q0 -55 6 -151q4 -86 4 -142q53 41 125 56q104 20 129 20q150 0 251.5 -89t101.5 -230q0 -51 -17 -164q-23 -154 -28 -205q-6 -63 -17 -168q-6 -61 -69 -61q-57 0 -57 49 q0 5 1 12q6 53 23 178q35 299 35 359q0 94 -63.5 156.5t-160.5 62.5q-35 0 -104 -15q-61 -12 -80 -18q-33 -10 -70 -31q0 -12 -4 -63q-4 -39 -4 -70q0 -29 3 -74t3 -63q0 -72 8.5 -202t8.5 -204q0 -59 -60 -59q-61 0 -61 59q0 76 -7 208t-7 200v143q0 47 2 111q4 76 4 108 q2 106 2 197q0 331 -23 473z" />
<glyph unicode="i" horiz-adv-x="260" d="M43 178q4 23 4 107q0 6 2 37.5t2 37.5q0 82 22.5 228.5t22.5 225.5t23 128q4 14 22 16q18 4 27 -10q29 -54 29 -117q0 -78 -11.5 -234.5t-11.5 -236.5v-36q-2 -33 -2 -39q0 -74 -8 -127.5t-60 -53.5q-29 0 -48 20.5t-13 53.5zM88 1159q2 16 6 35q10 113 76 117h2 q42 0 92 -74q0 -86 -94 -113q-28 -8 -47 -8t-29 8q-10 14 -6 35z" />
<glyph unicode="j" horiz-adv-x="301" d="M-385 -268l2 41q2 55 47 55q31 0 47 -35l21 -47q0 -186 141 -186q252 0 252 413v50q2 27 2 40q0 106 -12 277q-14 182 -15 186q0 51 -8 232q-4 103 -4 157v31q2 55 51 55q31 0 35 -34q29 -229 45 -437q20 -279 25 -456l2 -102v1q0 -233 -80 -370q-94 -164 -293 -164 q-133 0 -199 77q-60 71 -60 193q0 11 1 23zM10 1276v7q0 54 64 54q51 0 57 -51q6 -16 16 -51q13 -51 11 -57q-6 -55 -66 -56q-51 0 -63 54q-6 33 -19 100z" />
<glyph unicode="k" horiz-adv-x="823" d="M55 1491q0 59 66 59q35 0 53 -34q51 -100 51 -355q0 -115 -20 -360q119 94 198 164q98 86 215 221q18 18 39 18q23 0 40.5 -20.5t17.5 -46.5q0 -31 -23 -54q-57 -68 -203 -215q-51 -45 -106 -84q4 -16 37 -79q70 -104 186 -306q65 -131 215 -307q25 -31 25 -63 q0 -55 -49 -56q-14 0 -33 9q-111 53 -264 368q-66 104 -178 307q-12 27 -33 68q-53 -33 -96 -66q-12 -215 -13 -223q0 -66 6.5 -182.5t6.5 -183.5q0 -63 -62 -64q-63 0 -63 65.5t-5.5 182.5t-5.5 182q0 129 20.5 372t20.5 353q0 227 -35 299q-8 14 -8 31z" />
<glyph unicode="l" horiz-adv-x="311" d="M29 1337q-2 13 -2 24q0 44 39 44t51 -55q45 -205 88 -555q6 -111 31 -375q10 -84 10 -184q0 -23 9 -68t9 -76q0 -63 -63 -63t-64 63q0 31 -8 76t-8 68q0 115 -6 184q-6 104 -33 358q-12 96 -27 303q-12 180 -26 256z" />
<glyph unicode="m" horiz-adv-x="1214" d="M-14 690q0 25 19.5 45.5t43.5 20.5q27 0 47 -23q66 -68 92 -190q35 39 82 75q61 61 133 62q68 0 105 -92q55 -139 70 -223q49 147 96 253q41 94 88 136q63 55 166 55q104 0 184 -121q74 -108 74 -225q0 -59 -12 -166q-16 -139 -19 -168q-4 -55 -61 -55q-62 0 -62 55v10 q25 315 25 324q0 76 -31 141q-37 80 -98 80q-92 0 -140 -113q-16 -39 -92 -254q-59 -166 -108 -258q-23 -41 -64 -41q-61 0 -61 70v76q-2 43 -2 80q0 166 -64 297q-12 31 -28 30h-2q-27 0 -78 -49q-45 -47 -88 -92q0 -37 2 -98.5t2 -85.5q2 -62 2 -128t-2 -136 q-8 -51 -62 -52q-29 0 -48 19.5t-13 52.5v-1q-4 0 -4 245q0 25 -2 86t-2 98q0 147 -68 213q-20 20 -20 47z" />
<glyph unicode="n" horiz-adv-x="684" d="M33 20v119q12 199 12 230v96q0 109 -4 131q-2 10 -2 17q0 34 35 34q43 0 49 -51q1 -8 1 -24q0 -32 -3 -95q102 117 205 129q31 4 77 4q115 0 185 -137q61 -119 61 -266q0 -57 -4 -88v-33q-2 -18 -2 -27q0 -59 -63 -59t-64 59q0 4 2 60q3 92 4 92v-4q0 293 -119 293 q-76 0 -112 -35q-31 -20 -98 -92q-10 -10 -37 -35q-12 -20 -33 -25q2 -78 2 -182l2 -111q0 -47 -47 -47t-47 47z" />
<glyph unicode="o" horiz-adv-x="722" d="M35 385q0 37 8 64q74 264 246 264q170 0 283.5 -94.5t113.5 -256.5q0 -133 -70 -249q-78 -129 -190 -129q-203 0 -287 104q-47 57 -71 129q-33 59 -33 168zM123 420q-6 -27 -6 -54q0 -48 20 -96q27 -61 76 -123q43 -53 213 -53q70 0 106 96q31 76 31 172q0 106 -82 168 q-76 55 -192 56q-59 0 -104.5 -48.5t-61.5 -117.5z" />
<glyph unicode="p" horiz-adv-x="591" d="M41 -266q0 10 2 81.5t2 80.5q0 362 12 485v428q0 16 -2 47v47v72q0 39 39 39q51 0 51 -53v-54h19q172 0 274 -59q119 -72 119 -209q0 -291 -389 -326q-18 0 -23 2v-30q0 -25 -10 -187q-6 -118 -6 -158v-16q0 -10 -2 -67q-4 -63 -4 -76v-49q0 -43 -39 -43q-43 0 -43 45z M143 838q4 -37 4 -47v-121q0 -160 7 -234h2q117 0 188 43q88 54 88 160q0 199 -260 199h-29z" />
<glyph unicode="q" horiz-adv-x="673" d="M45 250q0 88 41 151q59 90 143 152q104 76 217 76q43 0 76 -15q2 8 10 23l21 29q13 27 38 27q9 0 19 -3q41 -8 41 -47q0 -14 -8 -29l-14 -26q-41 -78 -78 -195q-4 -10 -10 -37q-23 -53 -37 -120q-29 -119 -60 -238q-33 -139 -38 -262q-3 -66 -3 -110t3 -64q10 -63 45 -64 q33 0 71 37q23 25 47 49q16 18 52 54q16 10 32 10q45 0 45 -47q0 -23 -13 -42.5t-44 -52.5q-120 -114 -189 -114h-1q-143 0 -152 157q-3 49 -3 97t3 96q6 100 61 360q-20 -20 -32 -30q-27 -14 -84 -31q-10 -1 -20 -1q-62 0 -110 32q-55 37 -65 110q-4 33 -4 68zM158 197 q8 -57 67 -58q25 0 45 15q80 68 156 217q4 8 8 20t12 35q15 39 46 125h-19q-14 -2 -27 -2q-131 0 -268 -201q-24 -61 -24 -95q0 -28 4 -56z" />
<glyph unicode="r" horiz-adv-x="729" d="M41 70v63q0 29 3 101.5t3 105.5q0 27 3 71t3 76q0 25 -2 63t-2 60q0 49 -6 117v7q0 48 49 48q51 0 55 -51q2 -41 11 -123q4 -25 12 -80q53 113 106 162q74 72 189 72q100 0 186 -107q80 -100 80 -202q0 -57 -65 -58q-51 0 -62 49q-20 90 -41 127q-35 66 -98 66 q-115 0 -191 -96q-4 -6 -104 -181v-20q0 -33 -2 -105.5t-2 -101.5v-63q0 -10 2 -27v-25q0 -61 -62 -61q-63 0 -63 61v25q-2 16 -2 27z" />
<glyph unicode="s" horiz-adv-x="540" d="M-2 -16q0 27 23.5 42t52.5 15q39 -8 90 -8q207 0 207 284q0 80 -45 164q-20 37 -60 76q-33 33 -65 66q-59 66 -68 77q-29 41 -29 88q0 80 52 162q8 8 20 21q66 31 141 45q14 0 66 -15q41 -12 41 -51q0 -49 -53 -49q-12 0 -56 -14q-23 -4 -65 -25q-31 -25 -31 -74 q0 -25 22.5 -49t47.5 -49q10 -12 73 -65q49 -41 74 -82q62 -101 62 -226q0 -409 -332 -409h-2q-43 0 -101 10q-27 2 -46 21.5t-19 44.5z" />
<glyph unicode="t" horiz-adv-x="471" d="M12 662q0 63 64 63h102q-2 78 -8 209q-1 7 -1 14q0 62 52 62q49 0 64 -60q6 -49 6 -227h22q84 0 90 2q33 6 54.5 -14.5t21.5 -51.5q0 -51 -53 -59q-39 -6 -113 -6h-24q0 -12 -2 -45v-45q2 -66 2 -105v-133q0 -57 -2 -151.5t-2 -118.5q0 -45 -41 -45q-27 0 -41 47 q-12 39 -13 139v86q-2 51 -2 86v88q0 39 -8 80q0 80 -2 119h-102q-63 0 -64 66z" />
<glyph unicode="u" d="M35 317q0 367 82 367h4q14 -2 14 -53q0 -35 -10 -148.5t-10 -169.5q0 -119 96 -174q35 -20 74 -20q88 0 116 114q10 41 21 213q4 55 12 164q4 49 53 49q50 0 50 -46v-9q-4 -18 -9 -63q-2 -29 -2 -95q0 -78 4.5 -126t20.5 -134q4 -31 41 -168q2 -10 2 -18q0 -61 -68 -61 q-47 0 -58 45t-30 131q-45 -119 -153 -119q-74 0 -131 35q-119 72 -119 286z" />
<glyph unicode="v" horiz-adv-x="559" d="M10 854q-1 7 -1 13q0 33 26 53q16 12 35 12q53 0 63 -58q8 -47 27.5 -158.5t39 -224t62.5 -212.5l37 -86q16 47 51 139q55 162 166 471q6 16 25 16q33 0 32 -28q0 -41 -141 -490q-8 -35 -39 -111q-37 -106 -71 -143q-16 -33 -43 0q-27 35 -56 100q-25 55 -49 127 q-55 156 -129 453q-14 39 -35 127z" />
<glyph unicode="w" horiz-adv-x="1069" d="M18 360q0 51 29 193q6 35 33 35t24 -27q-1 -15 -1 -32q0 -71 14 -169q4 -84 80 -112q39 -14 67 -15q76 0 107 101q16 92 32 182q10 57 64 57q63 0 63 -67q0 -88 5 -111q18 -111 98 -168q65 -48 106 -48q5 0 9 1q51 14 83 62q78 94 78 207q0 127 -6 153q-4 12 -4 23 q0 61 68 61q47 0 59 -49t12 -188q0 -176 -110 -283q-84 -82 -168 -94q-23 -4 -41 -4q-82 0 -166 63q-72 53 -98 117q-68 -143 -191 -144q-63 0 -114 25q-131 63 -132 231z" />
<glyph unicode="x" horiz-adv-x="655" d="M51 725q10 0 23 -6q41 -18 59 -45q66 -74 211 -254q63 76 145 182q16 20 54 68q6 8 16 8q33 0 33 -31q0 -8 -12 -33q-20 -39 -43 -69q-39 -66 -138 -197q59 -76 189 -254q20 -33 63 -92q10 -14 11 -29q0 -45 -50 -45q-20 0 -36.5 20.5t-57.5 76.5q-59 76 -182 241 q-82 -94 -150 -221q-18 -35 -57 -35q-63 0 -63 58q0 14 8 30q41 78 198 244l-223 260q-33 37 -33 72q0 51 35 51z" />
<glyph unicode="y" horiz-adv-x="645" d="M-41 -190q8 23 16 38q23 41 45 48q31 2 52 -16q13 -11 13 -44q0 -16 -3 -37q-1 -8 -1 -16q0 -137 169 -197q81 -10 81 -12h-3q74 0 106 43q23 29 35 98q18 96 18 229q0 41 -2 85q-35 -27 -90 -27q-158 0 -260 113.5t-102 279.5q0 84 8 133.5t59 49.5q27 0 47.5 -19.5 t14.5 -52.5q-4 -25 -4 -111q0 -115 53 -180q57 -72 162 -72q31 0 51 41q16 33 16 76q0 -4 9 92q8 59 24 191q6 55 62 55q66 0 66 -56q0 -6 -1 -12q-2 -25 -12 -98q-8 -57 -8 -84q0 -37 -5 -106q4 -27 11 -70q16 -116 16 -219v-23v-26q0 -70 -8 -203q-16 -123 -68 -180 q-63 -74 -198 -74q-66 0 -115 25q-121 37 -190 118q-66 79 -66 186q0 17 2 34z" />
<glyph unicode="z" horiz-adv-x="774" d="M20 817q0 20 15 27q37 14 164 14q8 0 123 2h114q76 -6 176 -14q10 -4 47 -10q55 -4 56 -43q0 -20 -19 -43q-35 -33 -100.5 -109t-204.5 -258q-39 -55 -123 -178q-20 -29 -61 -90h33q76 0 227 30q109 23 219 45q33 6 53.5 -14t20.5 -49q0 -49 -51 -57q-18 -2 -230 -50 q-158 -34 -235 -34h-4q-104 0 -166 47q-29 20 -29 47q0 29 59 98l82 90q4 6 146 199q55 86 176 246q12 16 24 26q-53 6 -120 17q-98 0 -244 10q-63 2 -117 8q-31 4 -31 43z" />
<glyph unicode="{" horiz-adv-x="436" d="M45 625q0 31 41 43t84 25.5t43 49.5q0 63 -49 143.5t-49 145.5q0 180 262 232q27 4 43 -11.5t16 -38.5q0 -37 -39 -45q-180 -35 -180 -137q0 -66 49 -145.5t49 -143.5q0 -84 -104 -137q68 -53 68 -145q0 -76 -52.5 -180.5t-52.5 -169.5q0 -61 49 -84l107 -27 q41 -10 41 -49q0 -23 -17.5 -39t-44.5 -10q-123 27 -166 55q-72 47 -71 154q0 66 52 170t52 180q0 51 -39 80q-33 20 -62.5 40.5t-29.5 43.5z" />
<glyph unicode="|" horiz-adv-x="389" d="M139 102q0 227 8 746q2 123 5.5 249t17.5 228q2 20 25 21q23 0 45 -18.5t18 -41.5q-14 -96 -12 -213q4 -205 4 -221q-2 -242 -8 -752q-4 -27 -15 -98q-4 -37 -41 -37q-53 0 -45 49q-2 20 -2 88z" />
<glyph unicode="}" horiz-adv-x="380" d="M35 1192q0 55 55 51q100 -8 162.5 -76.5t62.5 -171.5q0 -63 -46 -149t-46 -152q0 -43 25.5 -62.5t52.5 -39t27 -41.5q0 -29 -39 -45q-66 -29 -66 -119q0 -51 61.5 -137t61.5 -133q0 -88 -57 -131q0 -2 -125 -62q-12 -6 -23 -6q-51 0 -51 53q0 29 29 43q41 14 83 33t42 70 q0 47 -61.5 133t-61.5 137q0 106 61 168q-61 47 -61 139q0 66 46 152t46 149q0 59 -36 100.5t-95 45.5q-47 4 -47 51z" />
<glyph unicode="~" d="M47 1403q0 45 59.5 100.5t104.5 55.5q61 0 122.5 -58.5t84.5 -58.5t41 37q10 29 22.5 59.5t42.5 30.5q47 0 47 -45t-54 -109.5t-99 -64.5q-72 0 -124 57t-83 57q-37 0 -76 -80q-12 -27 -39 -26q-49 0 -49 45z" />
<glyph unicode="&#xa1;" horiz-adv-x="348" d="M76 1204q0 41 32.5 75t71.5 34q88 0 88 -68q0 -104 -78 -117q-37 6 -71 25q-43 25 -43 51zM98 274q0 23 6.5 66t6.5 74q0 27 -6.5 64.5t-6.5 64.5q0 240 33 438q8 45 53 45q25 0 42.5 -17t13.5 -44q-33 -180 -33 -422q0 -27 5 -65t5 -64q0 -31 -5 -74t-5 -66 q0 -33 10 -135t10 -155t-53 -54q-53 0 -53 53.5t-11.5 156t-11.5 134.5z" />
<glyph unicode="&#xa2;" horiz-adv-x="561" d="M61 543q0 201 181 276q-4 84 -23 238q-6 47 43 47q37 0 41 -35q10 -74 29 -221q63 12 102 16q59 6 60 -55q0 -51 -52 -55q-31 -2 -96 -17l21 -221q4 -41 12 -139q57 18 199 45q59 4 59 -55q0 -52 -51 -56q-31 -2 -199 -43q6 -96 12 -190q2 -47 -45 -47t-51 47l-14 178h-6 q-100 0 -164 90q-57 82 -58 197zM172 543q1 -170 107 -176l-13 139q-6 68 -14 192q-80 -51 -80 -155z" />
<glyph unicode="&#xa3;" horiz-adv-x="669" d="M33 -6q0 12 4 24q57 229 57 545q0 16 -3 42t-3 44q0 184 59 334q76 184 207 184q98 0 152 -73q12 -16 12 -35q0 -55 -55 -55q-27 0 -45 22q-27 31 -64 31q-156 0 -155 -408q0 -18 3 -43.5t3 -42.5v-6h51q-16 0 57 -6q51 -4 52 -55q0 -61 -60 -56q-55 6 -49 6h-53 q-6 -176 -35 -342q33 8 61 9q43 0 116 -27t122 -27q47 0 123 25q10 4 20 4q55 0 56 -57q0 -42 -41 -54q-88 -29 -158 -28q-49 0 -122 26.5t-116 26.5q-33 0 -61.5 -16.5t-51 -28.5t-38.5 -12q-45 0 -45 49z" />
<glyph unicode="&#xa4;" horiz-adv-x="823" d="M70 18q0 25 22 41q33 25 111 99q-39 74 -39 139q0 88 29 156q-66 74 -101 129q-8 14 -8 26q0 51 53 51q23 0 64 -51q27 -37 53 -73q76 59 207 59q74 0 141 -55q53 59 98 104q12 10 27 10q29 0 29 -24q0 -11 -6 -19q-27 -43 -91 -127q78 -94 78 -207q0 -96 -69 -172 q25 -20 49 -41q31 -29 31 -53q0 -53 -43 -53q-14 0 -117 88q-84 -45 -185 -45q-76 0 -145 80q-66 -74 -104 -103q-14 -10 -31 -10q-53 0 -53 51zM266 297q0 -61 41 -125q45 -70 96 -70q98 0 165 46t67 128q0 84 -45 139.5t-121 61.5q-84 8 -143.5 -41t-59.5 -139z" />
<glyph unicode="&#xa5;" horiz-adv-x="665" d="M2 1143q0 27 35 26q10 0 12 -4q182 -313 328 -512q12 37 37 103q16 57 80 233q25 84 73 254q10 41 35 105q8 18 33 18q20 0 35.5 -11.5t9.5 -27.5q-14 -33 -29 -96q-4 -29 -20 -96q-12 -53 -43 -158q-51 -150 -69.5 -246t-61.5 -213q53 -4 88 -10q47 -8 47 -55 q0 -63 -64 -54q-55 10 -106 13q-12 -35 -41 -101q12 0 37 2h35h141q53 0 53 -53t-53 -53h-141q-43 0 -117 -4q-70 -166 -90 -281q-4 -10 -21.5 -26.5t-50.5 -16.5q-39 0 -49 29q-4 12 0 37q20 123 80 262q-37 6 -111 20q-37 6 -37 41q0 39 41 37h148q8 18 22.5 54t20.5 55 q-129 4 -201 18q-45 10 -45 53q0 27 18.5 44.5t47.5 11.5q74 -14 210 -19q-82 119 -190 344q-61 129 -123 258q-4 10 -4 19z" />
<glyph unicode="&#xa6;" horiz-adv-x="348" d="M113 61v189q20 143 20 139q0 23 -2 91.5t-2 103.5q0 55 55 55q72 0 72 -250q0 16 -20 -147v-181q0 -61 -62 -61q-61 0 -61 61zM115 1249q0 51 51 51q49 0 49 -51q0 -80 15.5 -225.5t15.5 -235.5q0 -61 -62 -61q-61 0 -61 61q0 90 -4 235.5t-4 225.5z" />
<glyph unicode="&#xa7;" horiz-adv-x="626" d="M47 203q0 49 55 49q37 0 48 -35q12 -41 57 -83t88 -42q164 0 164 154q0 96 -92 155q-84 47 -168 95q-92 63 -93 163q0 111 38 167.5t128 68.5q-131 72 -131 201q0 109 71 177t175 68q53 0 119 -36q27 -16 26 -45q0 -55 -51 -56q-14 0 -28 10q-39 25 -66 25 q-61 0 -102 -41t-41 -102q0 -76 80 -121q143 -84 147 -86q80 -70 80 -203q0 -131 -121 -203q131 -100 131 -237q0 -119 -72.5 -187.5t-193.5 -68.5q-66 0 -154 73q-94 78 -94 140zM207 670q2 -37 33 -72q14 -16 36.5 -26.5t45.5 -18.5q49 4 88 43t39 90q0 35 -11 66 q-45 45 -102 45q-63 0 -98 -36t-31 -91z" />
<glyph unicode="&#xa8;" horiz-adv-x="727" d="M92 1454q0 31 39 53q33 14 64 29q39 -12 71 -37q41 -32 41 -65q0 -61 -92 -62q-33 0 -78 27.5t-45 54.5zM399 1413q0 45 33 97.5t49 45.5q86 -35 94 -38q60 -33 60 -74q0 -72 -103 -72q-27 0 -80 14.5t-53 26.5z" />
<glyph unicode="&#xa9;" horiz-adv-x="1572" d="M31 815q0 231 213 385q193 139 440 139q201 0 338 -86q199 -125 295 -211q207 -184 207 -356q0 -301 -203 -498.5t-508 -197.5q-342 0 -562 230.5t-220 594.5zM133 815q0 -319 190.5 -521t489.5 -202q262 0 435 168t173 426q0 152 -184 301q-129 96 -260 193 q-96 57 -293 57q-207 0 -371 -111q-180 -123 -180 -311zM461 586q0 152 83 245t226 93q20 0 80 -21q33 -12 67.5 -23.5t34.5 -50.5q0 -53 -49 -53q-10 0 -20 4q-104 41 -113 41q-96 0 -151.5 -65.5t-55.5 -169.5q0 -106 207 -107q-8 0 150 29q59 10 59 -51q0 -43 -43 -51 q-158 -29 -166 -29q-115 0 -205 51q-104 59 -104 158z" />
<glyph unicode="&#xaa;" d="M59 938q0 25 19 84q39 123 122 202t195 79q92 0 152 -72q8 -10 8 -25q0 -31 -33 -37q0 -6 -4 -52t-4 -68v-97q0 -61 61 -186q4 -8 5 -18q0 -35 -37 -35q-23 0 -33 20q-68 133 -68 219v13q-31 -84 -73 -127q-61 -61 -129 -62q-180 0 -181 162zM127 938q0 -100 113 -100 q57 0 97 42t83 171q6 49 33 141q8 12 12 16q-25 18 -70 19q-90 0 -158.5 -62.5t-99.5 -163.5q-10 -33 -10 -63z" />
<glyph unicode="&#xab;" horiz-adv-x="993" d="M66 446q0 23 26 43q111 82 219 191q16 16 37 16q53 0 53 -53q0 -20 -16 -37q-68 -68 -160 -143q85 -18 232 -57q35 -10 35 -48q0 -55 -50 -55q-8 0 -18 4q-29 10 -162 43q-109 27 -162 53q-35 18 -34 43zM506 446q0 23 26 43q111 82 220 191q16 16 36 16q53 0 54 -53 q0 -20 -17 -37q-68 -68 -159 -143q84 -18 231 -57q35 -10 35 -48q0 -55 -49 -55q-8 0 -19 4q-29 10 -162 43q-109 27 -161 53q-35 18 -35 43z" />
<glyph unicode="&#xac;" horiz-adv-x="638" d="M35 610q0 57 43 54q14 -2 276 2q211 0 221 -17q16 -24 0 -276q0 -51 -88 -51t-88 51q10 156 0 172q-10 18 -88 18q-16 0 -116 -4q-78 -2 -121 0q-39 2 -39 51z" />
<glyph unicode="&#xad;" horiz-adv-x="612" d="M57 518q0 76 58 86l116 2q41 0 283 -20q39 -4 39 -54q0 -35 -21.5 -65.5t-52.5 -28.5q-25 2 -129 15q-68 10 -127 8l-112 -2q-53 -12 -54 59z" />
<glyph unicode="&#xae;" horiz-adv-x="1136" d="M59 788q0 223 131.5 366.5t350.5 143.5q78 0 100 -6q39 -12 76 -26q182 -66 260 -146q102 -106 102 -303q0 -186 -133 -352q-137 -172 -305 -172q-297 0 -434 108q-147 117 -148 387zM162 788q0 -217 123 -309q113 -84 356 -84q131 0 236 140q100 132 100 282t-90 238 q-66 63 -207 116q-55 20 -59 23q-14 2 -80 2q-174 0 -276.5 -115.5t-102.5 -292.5zM260 985q0 25 25 31q211 61 268 61q55 0 105.5 -38t50.5 -87q0 -78 -121 -139q29 -23 88 -76q12 -12 31 -49q14 -29 39.5 -42t25.5 -44q0 -51 -51 -51q-12 0 -27 6q-27 14 -49 47 q-31 47 -43 60q-43 37 -135 114q0 -8 2 -26v-27q0 -31 -8 -70q-8 -45 -10 -69q-2 -47 -52 -47q-55 0 -51 55q2 23 10 65q8 37 9 66v117q-2 76 -2 121q-23 -4 -60 -13q-45 -12 -45 35zM446 971q0 -37 9 -99l18 7q133 30 133 73q0 23 -53 23q-37 0 -107 -4z" />
<glyph unicode="&#xaf;" horiz-adv-x="559" d="M61 1425q0 61 48 66q8 0 174 -8q106 -4 161 6t56 -66q0 -61 -45 -67q-68 -10 -170 -6q-162 8 -183 8q-41 0 -41 67z" />
<glyph unicode="&#xb0;" horiz-adv-x="491" d="M27 858q0 111 58 190.5t146 79.5q84 0 141.5 -56t57.5 -142q0 -96 -58.5 -167t-142.5 -71q-90 0 -146 51.5t-56 114.5zM115 858q0 -33 31.5 -55.5t82.5 -22.5t83 45.5t32 104.5q0 92 -86 112q-74 -23 -104 -57q-39 -43 -39 -127z" />
<glyph unicode="&#xb1;" horiz-adv-x="686" d="M51 541q0 20 25.5 39.5t60.5 21.5q102 6 129 6h41q0 41 -8 115q-6 68 -6 115q0 45 45 45q43 0 43 -45t14 -109q14 -78 19 -111q141 12 153 13q53 0 54 -53q-1 -56 -54 -56q-76 0 -151 -10q0 -100 -8 -180q-4 -49 -54 -49q-57 0 -53 57q6 72 6 162h-41q6 0 -88 -6 q-39 -2 -92 12q-35 10 -35 33zM78 121q0 41 41 47q53 10 176 25q96 8 270 0q51 0 51 -52q0 -51 -51 -51q-166 6 -260 0q-90 -6 -174 -16q-53 -6 -53 47z" />
<glyph unicode="&#xb2;" horiz-adv-x="516" d="M49 823q0 16 17 31q37 12 100 45q182 86 182 244q0 49 -30.5 83t-79.5 34q-74 0 -97 -19q-10 -4 -32 -22q-10 -10 -23 -11q-35 0 -35 35q0 12 10 21q8 16 35 39q41 33 142 32q84 0 136 -54t52 -138q0 -199 -225 -318q-4 0 -13 -4q49 -14 138 -20q137 -10 141 -10 q35 -23 33 -39q0 -37 -37 -37q-109 10 -219 18q-123 16 -178 60q-16 12 -17 30z" />
<glyph unicode="&#xb3;" horiz-adv-x="485" d="M51 1251q0 6 4 13q45 59 119 59q125 0 176 -135q0 -104 -67 -152q184 -82 184 -338q0 -82 -52.5 -134t-135.5 -52q-96 0 -158 31q-8 6 -17 20q-8 47 29 47q10 0 23 -4q47 -18 123 -18q51 0 83.5 30.5t32.5 79.5q0 123 -59 203q-66 86 -178 86q-43 0 -43 39q0 29 28 37 q143 41 131 113q-14 84 -100 84q-74 0 -90 -23q-6 -6 -18 -2q-14 6 -15 16z" />
<glyph unicode="&#xb4;" horiz-adv-x="450" d="M76 1358q0 12 8 26q37 61 117 138q98 96 125 129q12 14 26 14q39 0 39 -37q0 -12 -8 -22q-76 -86 -213 -275q-14 -25 -41 -24q-53 0 -53 51z" />
<glyph unicode="&#xb5;" d="M33 -154q-2 20 16 285q4 45 14 186q4 51 5 129q0 63 -2 95q-2 23 -9 63q-6 55 49 55q49 0 53.5 -49t12.5 -164q10 -172 21 -213q29 -115 116 -114q39 0 74 20q96 55 96 174q0 55 -10 169t-10 149q0 51 14 53q86 10 86 -367q0 -215 -119 -286q-57 -35 -131 -35 q-109 0 -153 119q2 -86 -4 -271q-4 -61 -58 -61q-57 0 -61 63z" />
<glyph unicode="&#xb6;" horiz-adv-x="827" d="M59 866q0 291 334 377h158q72 10 162 10h63q41 -6 41 -49q0 -59 -57 -49q-10 2 -23 0q-14 -4 -24 -4q-33 0 -54 -2q6 -129 19 -377q2 -23 6 -80q4 -43 4 -78q0 -344 -31 -589l-6 -50q-6 -45 -43 -45q-39 0 -45 45l-8 56q31 215 31 583q0 55 -11 152q0 31 9 188 q6 121 0 189q-14 0 -21 -2h-119q0 -61 5 -219q4 -127 4 -226v-174q0 -201 -21 -530q-2 -47 -49 -47q-57 0 -53 55q20 315 20 504q-131 16 -211 114.5t-80 247.5z" />
<glyph unicode="&#xb7;" d="M160 700q0 27 42 77t91 57q63 8 115.5 -27t56.5 -96q2 -55 -40 -99.5t-93 -44.5q-63 0 -117.5 39t-54.5 94z" />
<glyph unicode="&#xb8;" horiz-adv-x="401" d="M49 -303q0 49 47 49q14 0 31 -8q25 -12 31 -12q90 0 90 34q0 57 -49 60q-18 -6 -60 -6q-51 0 -51 43q0 10 2 20q10 41 33 92q33 68 39 86q10 29 39 29q41 0 41 -39q0 -4 -35 -123q143 -10 143 -162q0 -51 -66.5 -94t-125.5 -43q-37 0 -70 19q-39 20 -39 55z" />
<glyph unicode="&#xb9;" horiz-adv-x="325" d="M47 711q0 31 31 39q-4 0 45 6q2 27 2 65q0 31 9 98.5t9 88.5q0 12 4.5 83.5t4.5 79.5q0 37 6 76q-18 -14 -35 -30q-25 -20 -37 -21q-39 0 -39 37q0 20 37 53q29 25 55 47q31 10 54 10q45 0 45 -34q0 -18 -4.5 -67.5t-4.5 -70.5q0 -8 -5 -80.5t-5 -82.5q0 -20 -7 -88 t-7 -99q0 14 -6 -59q14 0 34 4q41 4 41 -37q1 -35 -34 -41q-8 0 -24.5 -2t-33 -2t-88.5 -12q-47 -8 -47 39z" />
<glyph unicode="&#xba;" horiz-adv-x="528" d="M53 1128q0 25 6 41q39 172 160 172q111 0 184.5 -61.5t73.5 -165.5q0 -86 -45 -162q-51 -84 -125 -84q-137 0 -186 68q-23 25 -47 84q-20 49 -21 108zM111 1151q-10 -47 11 -96t47 -82t138 -33q45 0 70 64q20 49 20 110q0 70 -51 108t-127 38q-82 0 -108 -109z" />
<glyph unicode="&#xbb;" horiz-adv-x="911" d="M86 612q0 49 45 50q8 0 16 -3q100 -31 285 -77q41 -10 41 -41q0 -15 -8 -31q-57 -117 -305 -201q-10 -4 -19 -4q-49 0 -49 55q0 33 98 78q129 57 140 66q-129 37 -211 65q-33 12 -33 43zM506 612q0 49 45 50q8 0 16 -3q100 -31 285 -77q41 -10 41 -41q0 -15 -8 -31 q-57 -117 -305 -201q-10 -4 -19 -4q-49 0 -49 55q0 33 98 78q129 57 140 66q-129 37 -211 65q-33 12 -33 43z" />
<glyph unicode="&#xbc;" horiz-adv-x="952" d="M47 711q0 31 31 39q-4 0 45 6q2 27 2 65q0 31 9 98.5t9 88.5q0 12 4.5 83.5t4.5 79.5q0 37 6 76q-18 -14 -35 -30q-25 -20 -37 -21q-39 0 -39 37q0 20 37 53q29 25 55 47q31 10 54 10q45 0 45 -34q0 -18 -4.5 -67.5t-4.5 -70.5q0 -8 -5 -80.5t-5 -82.5q0 -20 -7 -88 t-7 -99q0 14 -6 -59q14 0 34 4q41 4 41 -37q1 -35 -34 -41q-8 0 -24.5 -2t-33 -2t-88.5 -12q-47 -8 -47 39zM55 182q0 12 6 25q137 279 377 661q8 12 113 195q70 123 121 186q8 10 24 11q37 0 37 -39q0 -25 -18 -54q-39 -59 -97 -172q-61 -121 -96 -176q-256 -416 -377 -653 q-14 -29 -43 -29q-47 0 -47 45zM412 360q0 18 20 60q16 29 33 57q29 63 94 199q18 29 45 88q6 10 23 4q14 -4 8 -20q-4 -20 -21 -76q-43 -102 -98 -217q-14 -29 -37 -84q61 6 70 6q74 0 106 -2q0 -14 -2 22q-4 59 0 166q0 18 31 19q25 0 27 -19l20 -157q0 -6 2 -19v-18 q25 -5 72 -11q33 -6 33 -39q0 -47 -43 -38q-27 4 -60 8q0 -152 -4 -180l2 -48q2 -39 -39 -38q-39 0 -39 38v54l4 182q-33 2 -110 2q-16 0 -51 -3t-47 -3q-39 0 -39 67z" />
<glyph unicode="&#xbd;" horiz-adv-x="952" d="M47 711q0 31 31 39q-4 0 45 6q2 27 2 65q0 31 9 98.5t9 88.5q0 12 4.5 83.5t4.5 79.5q0 37 6 76q-18 -14 -35 -30q-25 -20 -37 -21q-39 0 -39 37q0 20 37 53q29 25 55 47q31 10 54 10q45 0 45 -34q0 -18 -4.5 -67.5t-4.5 -70.5q0 -8 -5 -80.5t-5 -82.5q0 -20 -7 -88 t-7 -99q0 14 -6 -59q14 0 34 4q41 4 41 -37q1 -35 -34 -41q-8 0 -24.5 -2t-33 -2t-88.5 -12q-47 -8 -47 39zM55 182q0 12 6 25q137 279 377 661q8 12 113 195q70 123 121 186q8 10 24 11q37 0 37 -39q0 -25 -18 -54q-39 -59 -97 -172q-61 -121 -96 -176q-256 -416 -377 -653 q-14 -29 -43 -29q-47 0 -47 45zM479 158q0 16 17 30q37 12 100 45q182 86 182 244q0 49 -30.5 83t-79.5 34q-74 0 -97 -19q-10 -4 -32 -22q-10 -10 -23 -10q-35 0 -35 35q0 12 11 20q8 16 34 39q41 33 142 33q84 0 136 -54.5t52 -138.5q0 -199 -225 -317q-4 0 -13 -4 q49 -14 138 -21q137 -10 141 -10q35 -23 33 -39q0 -37 -37 -37q-109 10 -219 19q-123 16 -178 59q-16 12 -17 31z" />
<glyph unicode="&#xbe;" horiz-adv-x="952" d="M37 1362q0 4 4 10q39 53 106 53q113 0 160 -120q0 -92 -61 -138q166 -72 166 -303q0 -76 -47.5 -122t-122.5 -46q-88 0 -142 27q-14 10 -16 18q-4 43 27 43q12 0 56 -10t75 -10q45 0 74.5 27.5t29.5 72.5q0 111 -53 183q-59 78 -160 77q-39 0 -39 35q0 25 27 33 q127 37 117 102q-12 74 -91 74q-66 0 -81 -18q-4 -6 -17 -2q-12 4 -12 14zM127 152q0 12 6 24q137 279 377 662q8 12 113 194q70 123 120 187q8 10 25 10q37 0 37 -39q-1 -24 -19 -53q-39 -59 -96 -172q-61 -121 -96 -177q-256 -416 -377 -653q-14 -29 -43 -29q-47 0 -47 46 zM483 330q0 18 21 59q16 29 33 57q29 63 94 199q18 29 45 88q6 10 22 4q14 -4 9 -20q-4 -20 -21 -76q-43 -102 -98 -217q-14 -29 -37 -84q61 6 70 6q74 0 106 -2q0 -14 -2 23q-4 59 0 165q0 18 31 19q25 0 26 -19l21 -157q0 -6 2 -19v-18q25 -4 72 -10q33 -6 32 -39 q0 -47 -43 -39q-27 4 -59 8q0 -152 -4 -180l2 -47q2 -39 -39 -39q-39 0 -39 39v53l4 182q-33 2 -110 2q-16 0 -51 -3t-48 -3q-39 0 -39 68z" />
<glyph unicode="&#xbf;" horiz-adv-x="827" d="M133 219q0 225 176 336q6 4 76 20q49 12 49 41q0 33 -26.5 100.5t-26.5 114.5q0 25 10 95q6 45 53 45q25 0 42.5 -16.5t11.5 -45.5q-10 -53 -11 -78q0 -47 27 -114.5t27 -100.5q0 -51 -68 -94q-53 -31 -106 -59q-127 -80 -127 -244q0 -109 204 -108q150 0 203 108 q14 29 43 29q53 0 53 -49q0 -13 -6 -23q-80 -172 -293 -172q-117 0 -206 53q-104 59 -105 162zM391 1176v86q0 33 39 32q35 0 73 -26.5t38 -59.5v-86q0 -35 -39 -35q-37 0 -74 28t-37 61z" />
<glyph unicode="&#xc0;" horiz-adv-x="835" d="M27 629q0 53 61 47q31 -2 127 -12q115 424 150 634q-8 20 -23 64q-6 10 -6 20q0 43 45 43q29 0 43 -30q4 -10 72 -135q45 -84 57 -144q14 -70 20 -182q8 -137 15 -186q8 -59 24 -117q10 0 24 -2l13 -2q82 -4 82 -58q0 -39 -55 -47q-14 0 -19 -2q25 -57 52 -114 q27 -68 36 -117q20 -106 25 -127q16 -64 39 -109q8 -14 8 -30q0 -25 -20.5 -42.5t-46.5 -17.5q-35 0 -54 35q-35 68 -73 268q-10 51 -101 260q-27 2 -110 13q-70 8 -123 8h-15q-16 -57 -47 -185q-29 -141 -55 -223l-10 -43q-10 -47 -53 -47q-25 0 -43.5 20.5t-16.5 51.5 l4 45q33 78 90 254q18 72 43 139q-49 4 -96 8q-63 6 -63 62zM115 1726q0 23 16 40.5t39 17.5t39 -19q63 -76 192 -215q18 -18 19 -39q0 -55 -55 -55q-20 0 -39 19q-33 33 -97.5 107.5t-97.5 107.5q-16 16 -16 36zM307 657q59 -4 174 -14q-8 27 -18 88q-8 53 -12 172 q-4 106 -17 164q-10 -43 -127 -410z" />
<glyph unicode="&#xc1;" horiz-adv-x="835" d="M27 629q0 53 61 47q31 -2 127 -12q115 424 150 634q-8 20 -23 64q-6 10 -6 20q0 43 45 43q29 0 43 -30q4 -10 72 -135q45 -84 57 -144q14 -70 20 -182q8 -137 15 -186q8 -59 24 -117q10 0 24 -2l13 -2q82 -4 82 -58q0 -39 -55 -47q-14 0 -19 -2q25 -57 52 -114 q27 -68 36 -117q20 -106 25 -127q16 -64 39 -109q8 -14 8 -30q0 -25 -20.5 -42.5t-46.5 -17.5q-35 0 -54 35q-35 68 -73 268q-10 51 -101 260q-27 2 -110 13q-70 8 -123 8h-15q-16 -57 -47 -185q-29 -141 -55 -223l-10 -43q-10 -47 -53 -47q-25 0 -43.5 20.5t-16.5 51.5 l4 45q33 78 90 254q18 72 43 139q-49 4 -96 8q-63 6 -63 62zM307 657q59 -4 174 -14q-8 27 -18 88q-8 53 -12 172q-4 106 -17 164q-10 -43 -127 -410zM434 1491q0 12 8 27q37 61 117 137q98 96 125 129q12 14 27 14q39 0 39 -37q-1 -12 -9 -22q-76 -86 -213 -275 q-14 -25 -41 -24q-53 0 -53 51z" />
<glyph unicode="&#xc2;" horiz-adv-x="835" d="M27 629q0 53 61 47q31 -2 127 -12q115 424 150 634q-8 20 -23 64q-6 10 -6 20q0 43 45 43q29 0 43 -30q4 -10 72 -135q45 -84 57 -144q14 -70 20 -182q8 -137 15 -186q8 -59 24 -117q10 0 24 -2l13 -2q82 -4 82 -58q0 -39 -55 -47q-14 0 -19 -2q25 -57 52 -114 q27 -68 36 -117q20 -106 25 -127q16 -64 39 -109q8 -14 8 -30q0 -25 -20.5 -42.5t-46.5 -17.5q-35 0 -54 35q-35 68 -73 268q-10 51 -101 260q-27 2 -110 13q-70 8 -123 8h-15q-16 -57 -47 -185q-29 -141 -55 -223l-10 -43q-10 -47 -53 -47q-25 0 -43.5 20.5t-16.5 51.5 l4 45q33 78 90 254q18 72 43 139q-49 4 -96 8q-63 6 -63 62zM225 1442q0 14 11 24q25 25 73.5 83.5t71 81t41.5 22.5q23 0 43 -31t69.5 -74.5t67.5 -68.5q10 -14 10 -31q0 -53 -53 -53q-23 0 -39 23.5t-49 51.5q-51 45 -57 52q-47 -35 -129 -105q-10 -10 -25 -10 q-35 0 -35 35zM307 657q59 -4 174 -14q-8 27 -18 88q-8 53 -12 172q-4 106 -17 164q-10 -43 -127 -410z" />
<glyph unicode="&#xc3;" horiz-adv-x="835" d="M27 629q0 53 61 47q31 -2 127 -12q115 424 150 634q-8 20 -23 64q-6 10 -6 20q0 43 45 43q29 0 43 -30q4 -10 72 -135q45 -84 57 -144q14 -70 20 -182q8 -137 15 -186q8 -59 24 -117q10 0 24 -2l13 -2q82 -4 82 -58q0 -39 -55 -47q-14 0 -19 -2q25 -57 52 -114 q27 -68 36 -117q20 -106 25 -127q16 -64 39 -109q8 -14 8 -30q0 -25 -20.5 -42.5t-46.5 -17.5q-35 0 -54 35q-35 68 -73 268q-10 51 -101 260q-27 2 -110 13q-70 8 -123 8h-15q-16 -57 -47 -185q-29 -141 -55 -223l-10 -43q-10 -47 -53 -47q-25 0 -43.5 20.5t-16.5 51.5 l4 45q33 78 90 254q18 72 43 139q-49 4 -96 8q-63 6 -63 62zM178 1450q0 45 59.5 100.5t104.5 55.5q61 0 122.5 -58.5t84.5 -58.5t41 37q10 29 22.5 59.5t42.5 30.5q47 0 47 -45t-54 -109.5t-99 -64.5q-72 0 -124 57t-83 57q-37 0 -76 -79q-12 -27 -39 -27q-49 0 -49 45z M307 657q59 -4 174 -14q-8 27 -18 88q-8 53 -12 172q-4 106 -17 164q-10 -43 -127 -410z" />
<glyph unicode="&#xc4;" horiz-adv-x="835" d="M27 629q0 53 61 47q31 -2 127 -12q115 424 150 634q-8 20 -23 64q-6 10 -6 20q0 43 45 43q29 0 43 -30q4 -10 72 -135q45 -84 57 -144q14 -70 20 -182q8 -137 15 -186q8 -59 24 -117q10 0 24 -2l13 -2q82 -4 82 -58q0 -39 -55 -47q-14 0 -19 -2q25 -57 52 -114 q27 -68 36 -117q20 -106 25 -127q16 -64 39 -109q8 -14 8 -30q0 -25 -20.5 -42.5t-46.5 -17.5q-35 0 -54 35q-35 68 -73 268q-10 51 -101 260q-27 2 -110 13q-70 8 -123 8h-15q-16 -57 -47 -185q-29 -141 -55 -223l-10 -43q-10 -47 -53 -47q-25 0 -43.5 20.5t-16.5 51.5 l4 45q33 78 90 254q18 72 43 139q-49 4 -96 8q-63 6 -63 62zM123 1516q0 31 39 53q33 14 63 28q39 -12 72 -36q41 -33 41 -66q0 -61 -92 -61q-33 0 -78 27.5t-45 54.5zM307 657q59 -4 174 -14q-8 27 -18 88q-8 53 -12 172q-4 106 -17 164q-10 -43 -127 -410zM430 1475 q0 45 33 97t49 46q86 -35 94 -39q60 -33 60 -74q0 -72 -103 -71q-27 0 -80 14t-53 27z" />
<glyph unicode="&#xc5;" horiz-adv-x="835" d="M27 629q0 53 61 47q31 -2 127 -12q115 424 150 634q-8 20 -23 64q-6 10 -6 20q0 43 45 43q29 0 43 -30q4 -10 72 -135q45 -84 57 -144q14 -70 20 -182q8 -137 15 -186q8 -59 24 -117q10 0 24 -2l13 -2q82 -4 82 -58q0 -39 -55 -47q-14 0 -19 -2q25 -57 52 -114 q27 -68 36 -117q20 -106 25 -127q16 -64 39 -109q8 -14 8 -30q0 -25 -20.5 -42.5t-46.5 -17.5q-35 0 -54 35q-35 68 -73 268q-10 51 -101 260q-27 2 -110 13q-70 8 -123 8h-15q-16 -57 -47 -185q-29 -141 -55 -223l-10 -43q-10 -47 -53 -47q-25 0 -43.5 20.5t-16.5 51.5 l4 45q33 78 90 254q18 72 43 139q-49 4 -96 8q-63 6 -63 62zM233 1593q0 66 55.5 126.5t119.5 60.5q72 0 118 -37q66 -51 66 -119q0 -78 -61.5 -121t-153.5 -43q-63 0 -105 45q-39 39 -39 88zM307 657q59 -4 174 -14q-8 27 -18 88q-8 53 -12 172q-4 106 -17 164 q-10 -43 -127 -410zM336 1593q0 -31 41 -30q112 0 112 61q0 23 -22.5 44.5t-58.5 23.5q-29 2 -50.5 -32t-21.5 -67z" />
<glyph unicode="&#xc6;" horiz-adv-x="1310" d="M-61 29q0 12 6 24q47 94 147 240q117 168 156 235h-64q-35 0 -34 35q0 35 36.5 35t106.5 8q27 49 176 334q106 201 186 317q-4 41 33 60q80 43 490 76q68 6 67 -64q0 -57 -59 -61q-125 -8 -359 -37q-4 -68 -14 -223q86 -6 272 -7q66 0 66 -63t-66 -64q-154 0 -278 11 q0 -6 -2 -47q-10 -174 -33 -576q0 -43 -4 -125q156 8 471 41q33 6 53.5 -12.5t20.5 -46.5q-1 -54 -58 -64q-233 -39 -413 -39q-43 0 -80 -6q-14 -41 -60 -41q-61 0 -61 64q0 86 8 237q4 86 23 252q-35 0 -87.5 5t-82.5 5q-90 0 -135 -2q-45 -80 -168 -260 q-113 -164 -164 -262q-14 -29 -45 -28q-51 0 -51 49zM422 629q37 6 80 6q33 0 85 -5t89 -5h6q8 72 25.5 224t40.5 353q-2 -2 -9 -2q-78 -109 -166 -278q-76 -145 -151 -293z" />
<glyph unicode="&#xc7;" horiz-adv-x="999" d="M59 586q0 326 84 555q106 295 322 295q68 0 106 -54q2 -2 52 -98q8 -14 8 -29q0 -51 -56 -51q-31 0 -47 31q-8 31 -16 59q-12 37 -47 37q-297 0 -297 -745q0 -453 340 -453q176 0 373 143q16 12 32 13q53 0 54 -56q0 -24 -23 -40q-86 -63 -196 -111q-135 -55 -240 -55 q-31 0 -84 4q-6 -18 -27 -90q143 -10 144 -162q0 -51 -66.5 -94t-126.5 -43q-37 0 -69 18q-39 20 -39 55q0 49 47 49q14 0 30 -8q25 -12 31 -12q90 0 90 35q0 57 -49 59q-18 -6 -59 -6q-51 0 -51 43q0 10 2 21l61 153q-283 86 -283 537z" />
<glyph unicode="&#xc8;" horiz-adv-x="755" d="M47 33q0 96 8 237q4 59 60 576q4 37 4 49q-45 14 -45 57q0 57 57 64l23 186q-14 -6 -29 -6q-27 0 -45.5 20.5t-18.5 47.5q0 35 33 53q61 35 228 53q23 2 262 23q68 6 67 -64q0 -57 -59 -61q-125 -8 -359 -37q-4 -68 -14 -223q86 -6 273 -7q66 0 65 -63q0 -63 -65 -64 q-154 0 -279 11q0 -6 -2 -47q-10 -174 -33 -576q0 -43 -4 -125q156 8 471 41q33 6 53.5 -12.5t20.5 -46.5q0 -54 -57 -64q-233 -39 -414 -39q-43 0 -80 -6q-14 -41 -59 -41q-61 0 -62 64zM115 1706q0 23 16 40t39 17t39 -18q63 -76 192 -215q18 -18 19 -39q0 -55 -55 -55 q-20 0 -39 18q-33 33 -97.5 107.5t-97.5 107.5q-16 16 -16 37z" />
<glyph unicode="&#xc9;" horiz-adv-x="755" d="M47 33q0 96 8 237q4 59 60 576q4 37 4 49q-45 14 -45 57q0 57 57 64l23 186q-14 -6 -29 -6q-27 0 -45.5 20.5t-18.5 47.5q0 35 33 53q61 35 228 53q23 2 262 23q68 6 67 -64q0 -57 -59 -61q-125 -8 -359 -37q-4 -68 -14 -223q86 -6 273 -7q66 0 65 -63q0 -63 -65 -64 q-154 0 -279 11q0 -6 -2 -47q-10 -174 -33 -576q0 -43 -4 -125q156 8 471 41q33 6 53.5 -12.5t20.5 -46.5q0 -54 -57 -64q-233 -39 -414 -39q-43 0 -80 -6q-14 -41 -59 -41q-61 0 -62 64zM270 1481q0 12 9 26q37 61 116 138q98 96 125 129q12 14 27 14q39 0 39 -37 q0 -12 -8 -22q-76 -86 -213 -275q-14 -25 -41 -24q-53 0 -54 51z" />
<glyph unicode="&#xca;" horiz-adv-x="755" d="M47 33q0 96 8 237q4 59 60 576q4 37 4 49q-45 14 -45 57q0 57 57 64l23 186q-14 -6 -29 -6q-27 0 -45.5 20.5t-18.5 47.5q0 35 33 53q61 35 228 53q23 2 262 23q68 6 67 -64q0 -57 -59 -61q-125 -8 -359 -37q-4 -68 -14 -223q86 -6 273 -7q66 0 65 -63q0 -63 -65 -64 q-154 0 -279 11q0 -6 -2 -47q-10 -174 -33 -576q0 -43 -4 -125q156 8 471 41q33 6 53.5 -12.5t20.5 -46.5q0 -54 -57 -64q-233 -39 -414 -39q-43 0 -80 -6q-14 -41 -59 -41q-61 0 -62 64zM184 1473q0 14 11 24q25 25 73.5 83t71 80.5t41.5 22.5q23 0 43 -30.5t69.5 -74.5 t67.5 -69q10 -14 10 -30q0 -53 -53 -54q-23 0 -39 24t-49 52q-51 45 -57 51q-47 -35 -129 -104q-10 -10 -25 -10q-35 0 -35 35z" />
<glyph unicode="&#xcb;" horiz-adv-x="755" d="M47 33q0 96 8 237q4 59 60 576q4 37 4 49q-45 14 -45 57q0 57 57 64l23 186q-14 -6 -29 -6q-27 0 -45.5 20.5t-18.5 47.5q0 35 33 53q61 35 228 53q23 2 262 23q68 6 67 -64q0 -57 -59 -61q-125 -8 -359 -37q-4 -68 -14 -223q86 -6 273 -7q66 0 65 -63q0 -63 -65 -64 q-154 0 -279 11q0 -6 -2 -47q-10 -174 -33 -576q0 -43 -4 -125q156 8 471 41q33 6 53.5 -12.5t20.5 -46.5q0 -54 -57 -64q-233 -39 -414 -39q-43 0 -80 -6q-14 -41 -59 -41q-61 0 -62 64zM61 1536q0 31 39 53q33 14 64 29q39 -12 72 -37q40 -32 40 -65q0 -61 -92 -62 q-33 0 -78 27.5t-45 54.5zM369 1495q0 45 32.5 97.5t49.5 45.5q86 -35 94 -39q59 -32 59 -73q0 -72 -102 -72q-27 0 -80 14.5t-53 26.5z" />
<glyph unicode="&#xcc;" horiz-adv-x="491" d="M-8 1645q0 23 16.5 40t38.5 17q23 0 39 -19q64 -76 193 -215q18 -18 18 -38q0 -55 -55 -56q-20 0 -39 19q-33 33 -97.5 107.5t-97.5 107.5q-16 16 -16 37zM31 29q0 55 59 63q18 2 53 6q-2 72 0 185q2 152 2 178q0 111 17 354q16 252 16 375q-25 2 -83 2t-58 55t57 56 q39 0 113 4t110 4q66 0 66 -62q0 -63 -66 -63h-45v-725q0 -45 -4 -166q-6 -113 -4 -172q37 6 64 6q12 0 31.5 2t29.5 2q61 0 62 -63q-1 -64 -62 -64q-10 0 -29.5 -2t-31.5 -2q-31 0 -103 -12q-90 -16 -125 -21q-70 -8 -69 60z" />
<glyph unicode="&#xcd;" horiz-adv-x="491" d="M31 29q0 55 59 63q18 2 53 6q-2 72 0 185q2 152 2 178q0 111 17 354q16 252 16 375q-25 2 -83 2t-58 55t57 56q39 0 113 4t110 4q66 0 66 -62q0 -63 -66 -63h-45v-725q0 -45 -4 -166q-6 -113 -4 -172q37 6 64 6q12 0 31.5 2t29.5 2q61 0 62 -63q-1 -64 -62 -64 q-10 0 -29.5 -2t-31.5 -2q-31 0 -103 -12q-90 -16 -125 -21q-70 -8 -69 60zM178 1440q0 12 8 26q37 61 117 138q98 96 125 129q12 14 27 14q39 0 39 -37q-1 -12 -9 -22q-76 -86 -213 -275q-14 -25 -41 -24q-53 0 -53 51z" />
<glyph unicode="&#xce;" horiz-adv-x="491" d="M31 29q0 55 59 63q18 2 53 6q-2 72 0 185q2 152 2 178q0 111 17 354q16 252 16 375q-25 2 -83 2t-58 55t57 56q39 0 113 4t110 4q66 0 66 -62q0 -63 -66 -63h-45v-725q0 -45 -4 -166q-6 -113 -4 -172q37 6 64 6q12 0 31.5 2t29.5 2q61 0 62 -63q-1 -64 -62 -64 q-10 0 -29.5 -2t-31.5 -2q-31 0 -103 -12q-90 -16 -125 -21q-70 -8 -69 60zM51 1421q0 14 10 25q25 25 74 83t71.5 80.5t41.5 22.5q23 0 43 -30.5t69.5 -74.5t67.5 -69q10 -14 10 -31q0 -53 -53 -53q-23 0 -39 23.5t-49 52.5q-51 45 -57 51q-47 -35 -129 -104 q-10 -10 -25 -11q-35 0 -35 35z" />
<glyph unicode="&#xcf;" horiz-adv-x="491" d="M-41 1454q0 31 39 53q33 14 63 29q39 -12 72 -37q41 -32 41 -65q0 -61 -92 -62q-33 0 -78 27.5t-45 54.5zM31 29q0 55 59 63q18 2 53 6q-2 72 0 185q2 152 2 178q0 111 17 354q16 252 16 375q-25 2 -83 2t-58 55t57 56q39 0 113 4t110 4q66 0 66 -62q0 -63 -66 -63h-45 v-725q0 -45 -4 -166q-6 -113 -4 -172q37 6 64 6q12 0 31.5 2t29.5 2q61 0 62 -63q-1 -64 -62 -64q-10 0 -29.5 -2t-31.5 -2q-31 0 -103 -12q-90 -16 -125 -21q-70 -8 -69 60zM266 1413q0 45 33 97.5t49 45.5q86 -35 94 -38q60 -33 60 -74q0 -72 -103 -72q-27 0 -80 14.5 t-53 26.5z" />
<glyph unicode="&#xd0;" horiz-adv-x="1193" d="M39 1001q0 35 38 46.5t77 27.5q78 29 98 29q309 0 575 -178q295 -196 295 -477q0 -59 -67 -142q-49 -57 -101 -94q-246 -180 -831 -238q-37 -4 -58.5 18.5t-21.5 55.5q0 59 59 68q31 4 52 4q0 35 2 59q27 117 37 281l-82 -2q-53 -12 -54 59q0 76 58 86q84 2 82 0v31 q0 33 8 172q6 106 0 160q-102 -14 -109 -17q-25 -6 -41 11.5t-16 39.5zM279 975q35 -190 34 -340v-31q2 0 201 -18q39 -4 39 -54q0 -35 -21.5 -65.5t-52.5 -28.5q-55 6 -164 17q4 -166 -20 -291q0 -18 -2 -25q410 61 577 183q33 27 66 51q45 41 45 76q0 223 -238 378 q-207 135 -464 148z" />
<glyph unicode="&#xd1;" horiz-adv-x="819" d="M41 252q0 184 12 422q8 164 45 235q23 45 54 45q29 0 55 -34q104 -131 209 -400q127 -328 180 -424q10 117 31 361q12 125 39 438q16 82 10 109q-2 10 -2 18q0 61 65 61q50 0 62 -53q6 -29 -6 -135q-27 -229 -50 -459q-8 -137 -16 -276q-10 -152 -43 -248 q-18 -51 -53 -51q-29 0 -55 35q-100 135 -211 423q-121 311 -197 433q-14 -57 -16 -93q-6 -123 -23 -413q-2 -35 -6 -117q0 -31 -10 -119q-10 -23 -41 -22q-33 0 -31 26v109v80q-2 51 -2 49zM150 1096q0 45 59 100t104 55q61 0 123 -58t84 -58q23 0 41 36q10 29 22.5 60 t43.5 31q47 0 47 -45t-54.5 -110t-99.5 -65q-72 0 -124 57.5t-83 57.5q-37 0 -75 -80q-12 -27 -39 -26q-49 0 -49 45z" />
<glyph unicode="&#xd2;" horiz-adv-x="1056" d="M47 512q0 240 164 439.5t364 178.5q184 -18 314 -251q117 -213 117 -449q0 -252 -113 -401q-121 -158 -342 -158q-168 0 -270 82q-78 63 -162 217q-72 131 -72 342zM147 512q0 -170 78 -292t127 -161q76 -63 199 -63q164 0 252 127q78 114 78 307q0 217 -74 391 q-88 209 -242 226q-176 18 -301 -154q-117 -162 -117 -381zM268 1481q0 23 16.5 40t39.5 17t38 -18q64 -76 193 -215q18 -18 18 -39q0 -55 -55 -56q-20 0 -39 19q-33 33 -97.5 107.5t-96.5 107.5q-16 16 -17 37z" />
<glyph unicode="&#xd3;" horiz-adv-x="1056" d="M47 512q0 240 164 439.5t364 178.5q184 -18 314 -251q117 -213 117 -449q0 -252 -113 -401q-121 -158 -342 -158q-168 0 -270 82q-78 63 -162 217q-72 131 -72 342zM147 512q0 -170 78 -292t127 -161q76 -63 199 -63q164 0 252 127q78 114 78 307q0 217 -74 391 q-88 209 -242 226q-176 18 -301 -154q-117 -162 -117 -381zM434 1245q0 12 8 27q37 61 117 137q98 96 125 129q12 14 27 14q39 0 39 -36q-1 -13 -9 -23q-76 -86 -213 -274q-14 -25 -41 -25q-53 0 -53 51z" />
<glyph unicode="&#xd4;" horiz-adv-x="1056" d="M47 512q0 240 164 439.5t364 178.5q184 -18 314 -251q117 -213 117 -449q0 -252 -113 -401q-121 -158 -342 -158q-168 0 -270 82q-78 63 -162 217q-72 131 -72 342zM147 512q0 -170 78 -292t127 -161q76 -63 199 -63q164 0 252 127q78 114 78 307q0 217 -74 391 q-88 209 -242 226q-176 18 -301 -154q-117 -162 -117 -381zM348 1237q0 14 10 25q25 25 74 83t71.5 80.5t41.5 22.5q23 0 43 -31t69.5 -74.5t67.5 -68.5q10 -14 10 -31q0 -53 -53 -53q-23 0 -39 23.5t-49 52.5q-51 45 -57 51q-47 -35 -129 -105q-10 -10 -25 -10 q-35 0 -35 35z" />
<glyph unicode="&#xd5;" horiz-adv-x="1056" d="M47 512q0 240 164 439.5t364 178.5q184 -18 314 -251q117 -213 117 -449q0 -252 -113 -401q-121 -158 -342 -158q-168 0 -270 82q-78 63 -162 217q-72 131 -72 342zM147 512q0 -170 78 -292t127 -161q76 -63 199 -63q164 0 252 127q78 114 78 307q0 217 -74 391 q-88 209 -242 226q-176 18 -301 -154q-117 -162 -117 -381zM272 1229q0 45 59.5 100t104.5 55q61 0 123 -58t84 -58q23 0 41 37q10 29 22.5 59.5t43.5 30.5q47 0 47 -45t-54.5 -109.5t-99.5 -64.5q-72 0 -124 57t-83 57q-37 0 -76 -80q-12 -27 -38 -26q-49 0 -50 45z" />
<glyph unicode="&#xd6;" horiz-adv-x="1056" d="M47 512q0 240 164 439.5t364 178.5q184 -18 314 -251q117 -213 117 -449q0 -252 -113 -401q-121 -158 -342 -158q-168 0 -270 82q-78 63 -162 217q-72 131 -72 342zM147 512q0 -170 78 -292t127 -161q76 -63 199 -63q164 0 252 127q78 114 78 307q0 217 -74 391 q-88 209 -242 226q-176 18 -301 -154q-117 -162 -117 -381zM246 1280q0 31 39 53q33 14 63 29q39 -12 72 -37q41 -32 41 -65q0 -61 -92 -62q-33 0 -78 27.5t-45 54.5zM553 1239q0 45 32.5 97.5t49.5 45.5q86 -35 94 -39q59 -32 59 -73q0 -72 -102 -72q-27 0 -80 14.5 t-53 26.5z" />
<glyph unicode="&#xd7;" horiz-adv-x="686" d="M100 760q0 45 45 43q16 0 31 -12q33 -33 86 -68q66 -43 92 -64q29 37 101 117q16 16 37 17q23 0 39 -16.5t16 -39.5t-17 -39q-55 -55 -98 -114q51 -49 121 -133q12 -16 12 -35q0 -23 -16.5 -39.5t-38.5 -16.5q-23 0 -39 21q-66 78 -109 119q-14 -12 -28 -29 q-29 -33 -56.5 -64.5t-76.5 -58.5q-14 -8 -27 -8q-33 0 -33 41q0 49 117 166l29 28q-55 45 -172 152q-14 14 -15 33z" />
<glyph unicode="&#xd8;" horiz-adv-x="1056" d="M47 512q0 240 164 439.5t364 178.5q115 -12 213 -116q49 82 107 194q12 23 35 23q43 0 43 -39q0 -10 -4 -21q-70 -139 -121 -229q158 -229 158 -512q0 -252 -113 -401q-121 -158 -342 -158q-195 0 -303 113q-63 -100 -103 -179q-14 -29 -43 -28q-53 0 -53 49q0 12 6 24 q33 70 123 218q-23 33 -59 102q-72 133 -72 342zM147 512q0 -106 23 -174t82 -158q76 111 106 162q131 197 383 592q-76 104 -176 113q-178 16 -301 -154q-117 -162 -117 -381zM317 92q90 -96 234 -96q164 0 252 127q78 114 78 307q0 238 -86 418q-115 -197 -478 -756z" />
<glyph unicode="&#xd9;" horiz-adv-x="702" d="M57 659q-2 127 2 160q8 82 9 158q0 115 20 153q6 18 23 19q14 0 16 -19q12 -135 12 -155q0 -184 8 -322q2 -94 5.5 -190t23.5 -164q27 -86 146 -193q68 -12 65 -12q16 2 32.5 16.5t16.5 18.5q35 43 56 158q12 72 14 116q4 92 4 158q0 6 2 39t2 49q0 86 2 185 q4 154 14 206q6 31 39 31q8 0 18.5 -5t14.5 -26q0 -135 2 -358v-227q0 -8 2 -37v-45q0 -12 4 -70q8 -25 25 -74q18 -63 96 -133q29 -20 29 -53q0 -57 -55 -57q-16 0 -35 8q-59 29 -127 153q-16 -72 -70 -129q-47 -49 -86 -49q-27 0 -125 33q-113 86 -166 252 q-37 111 -39 405zM104 1440q0 23 16.5 40t39.5 17t39 -18q63 -76 192 -215q18 -18 19 -39q0 -55 -56 -56q-20 0 -39 19q-33 33 -97 107.5t-97 107.5q-16 16 -17 37z" />
<glyph unicode="&#xda;" horiz-adv-x="702" d="M57 659q-2 127 2 160q8 82 9 158q0 115 20 153q6 18 23 19q14 0 16 -19q12 -135 12 -155q0 -184 8 -322q2 -94 5.5 -190t23.5 -164q27 -86 146 -193q68 -12 65 -12q16 2 32.5 16.5t16.5 18.5q35 43 56 158q12 72 14 116q4 92 4 158q0 6 2 39t2 49q0 86 2 185 q4 154 14 206q6 31 39 31q8 0 18.5 -5t14.5 -26q0 -135 2 -358v-227q0 -8 2 -37v-45q0 -12 4 -70q8 -25 25 -74q18 -63 96 -133q29 -20 29 -53q0 -57 -55 -57q-16 0 -35 8q-59 29 -127 153q-16 -72 -70 -129q-47 -49 -86 -49q-27 0 -125 33q-113 86 -166 252 q-37 111 -39 405zM281 1214q0 12 8 27q37 61 117 137q98 96 124 129q12 14 27 15q39 0 39 -37q0 -13 -8 -23q-76 -86 -213 -274q-14 -25 -41 -25q-53 0 -53 51z" />
<glyph unicode="&#xdb;" horiz-adv-x="702" d="M57 659q-2 127 2 160q8 82 9 158q0 115 20 153q6 18 23 19q14 0 16 -19q12 -135 12 -155q0 -184 8 -322q2 -94 5.5 -190t23.5 -164q27 -86 146 -193q68 -12 65 -12q16 2 32.5 16.5t16.5 18.5q35 43 56 158q12 72 14 116q4 92 4 158q0 6 2 39t2 49q0 86 2 185 q4 154 14 206q6 31 39 31q8 0 18.5 -5t14.5 -26q0 -135 2 -358v-227q0 -8 2 -37v-45q0 -12 4 -70q8 -25 25 -74q18 -63 96 -133q29 -20 29 -53q0 -57 -55 -57q-16 0 -35 8q-59 29 -127 153q-16 -72 -70 -129q-47 -49 -86 -49q-27 0 -125 33q-113 86 -166 252 q-37 111 -39 405zM164 1257q0 14 10 25q25 25 74 83t71.5 80.5t40.5 22.5q23 0 43.5 -30.5t70 -74.5t67.5 -69q10 -14 10 -30q0 -53 -53 -54q-23 0 -39.5 23.5t-48.5 52.5q-51 45 -58 51q-47 -35 -129 -104q-10 -10 -24 -10q-35 0 -35 34z" />
<glyph unicode="&#xdc;" horiz-adv-x="702" d="M57 659q-2 127 2 160q8 82 9 158q0 115 20 153q6 18 23 19q14 0 16 -19q12 -135 12 -155q0 -184 8 -322q2 -94 5.5 -190t23.5 -164q27 -86 146 -193q68 -12 65 -12q16 2 32.5 16.5t16.5 18.5q35 43 56 158q12 72 14 116q4 92 4 158q0 6 2 39t2 49q0 86 2 185 q4 154 14 206q6 31 39 31q8 0 18.5 -5t14.5 -26q0 -135 2 -358v-227q0 -8 2 -37v-45q0 -12 4 -70q8 -25 25 -74q18 -63 96 -133q29 -20 29 -53q0 -57 -55 -57q-16 0 -35 8q-59 29 -127 153q-16 -72 -70 -129q-47 -49 -86 -49q-27 0 -125 33q-113 86 -166 252 q-37 111 -39 405zM102 1300q0 31 39 54q33 14 64 28q39 -12 71 -36q41 -33 41 -66q0 -61 -92 -61q-33 0 -78 27.5t-45 53.5zM410 1260q0 45 32.5 97t49.5 46q86 -35 94 -39q59 -33 59 -74q0 -72 -102 -71q-27 0 -80 14t-53 27z" />
<glyph unicode="&#xdd;" horiz-adv-x="665" d="M2 1141q0 29 35 28q10 0 12 -4q182 -313 328 -512q12 37 37 103q16 57 80 233q25 84 73 254q10 41 35 105q8 18 33 18q20 0 35.5 -11.5t9.5 -27.5q-14 -33 -29 -96q-4 -29 -20 -96q-12 -53 -43 -158q-51 -152 -70 -244q-8 -47 -74 -252q-20 -61 -108 -274 q-68 -164 -90 -285q-4 -10 -21.5 -26.5t-50.5 -16.5q-39 0 -49 29q-4 12 0 37q20 125 90 288q94 229 111 281q-84 117 -195 346q-63 133 -125 264q-4 10 -4 17zM260 1327q0 12 8 27q37 61 117 137q98 96 125 129q12 14 27 14q39 0 38 -37q0 -12 -8 -22q-76 -86 -213 -275 q-14 -25 -41 -24q-53 0 -53 51z" />
<glyph unicode="&#xde;" horiz-adv-x="815" d="M29 985q0 35 34 41q20 10 76 23q-6 106 -18 194q-8 59 53 60q47 0 53 -48q12 -82 27 -208q221 -18 358 -115q156 -111 156 -297q0 -139 -102 -211q-94 -66 -256 -66q-61 0 -129 7q6 -68 6 -140q0 -217 -11 -276q-8 -51 -61 -51q-29 0 -48.5 19.5t-12.5 51.5q10 51 10 256 q0 82 -6 158q-86 12 -86 68q0 29 21.5 48t53.5 11q-14 139 -14 248q0 25 5 45t5 37v96q-61 4 -63 4q-51 -8 -51 45zM256 758q0 -92 16 -269q59 -8 138 -8q235 0 235 154q0 258 -381 297q2 -31 2 -92q0 -16 -5 -37t-5 -45z" />
<glyph unicode="&#xdf;" horiz-adv-x="868" d="M6 309q0 55 57 51l74 -6v8q0 37 -2 119v127q0 317 64 471q92 221 333 221q121 0 189 -79q61 -74 61 -187q0 -74 -51 -131q-49 -41 -99 -84t-50 -90q0 -25 45 -51q102 -78 135 -121q61 -80 61 -195q0 -139 -80 -239q-86 -104 -221 -105q-88 0 -209 158q-12 14 -12 33 q0 53 59 53q25 0 43 -22q23 -35 48 -68q37 -47 71 -47q88 0 142 74q49 68 49 163q0 86 -49 144q-23 27 -103 86q-31 23 -63 45q-41 35 -41 68q0 76 55 141q8 10 104 96q55 51 56 92q0 68 -35 115t-105 47q-166 0 -231 -158q-47 -119 -47 -352q0 -59 3 -168.5t3 -155.5v-71 q-2 -47 -2 -72q0 -139 -10 -184t-58 -45q-29 0 -48 17.5t-13 43.5q6 29 6 168v29q-27 2 -78 6t-51 55z" />
<glyph unicode="&#xe0;" horiz-adv-x="821" d="M35 295q0 41 28 129q61 190 183 305q133 127 305 127q145 0 233 -111q14 -16 15 -36q0 -47 -51 -56q-4 -61 -13 -188v-148q0 -78 31 -155q8 -25 61 -131q6 -14 7 -27q0 -55 -56 -55q-33 0 -49 33q-59 119 -72 151q-35 90 -34 184v19q-41 -123 -113 -195q-49 -49 -80 -67 q-49 -27 -119 -27q-276 0 -276 248zM137 295q0 -154 174 -154q88 0 152 66q51 53 84 137q20 63 41 125q12 39 24 115q12 66 29 102q2 7 16 27q-35 27 -106 26q-139 0 -248 -98q-100 -94 -147 -248q-18 -59 -19 -98zM197 1184q0 23 16 40t39 17t39 -18q63 -76 192 -215 q18 -18 19 -39q0 -55 -56 -56q-20 0 -38 19q-33 33 -97.5 107.5t-97.5 107.5q-16 16 -16 37z" />
<glyph unicode="&#xe1;" horiz-adv-x="821" d="M35 295q0 41 28 129q61 190 183 305q133 127 305 127q145 0 233 -111q14 -16 15 -36q0 -47 -51 -56q-4 -61 -13 -188v-148q0 -78 31 -155q8 -25 61 -131q6 -14 7 -27q0 -55 -56 -55q-33 0 -49 33q-59 119 -72 151q-35 90 -34 184v19q-41 -123 -113 -195q-49 -49 -80 -67 q-49 -27 -119 -27q-276 0 -276 248zM137 295q0 -154 174 -154q88 0 152 66q51 53 84 137q20 63 41 125q12 39 24 115q12 66 29 102q2 7 16 27q-35 27 -106 26q-139 0 -248 -98q-100 -94 -147 -248q-18 -59 -19 -98zM403 979q0 12 9 27q37 61 116 137q98 96 125 129 q12 14 27 14q39 0 39 -37q0 -12 -8 -22q-76 -86 -213 -275q-14 -25 -41 -24q-53 0 -54 51z" />
<glyph unicode="&#xe2;" horiz-adv-x="821" d="M35 295q0 41 28 129q61 190 183 305q133 127 305 127q145 0 233 -111q14 -16 15 -36q0 -47 -51 -56q-4 -61 -13 -188v-148q0 -78 31 -155q8 -25 61 -131q6 -14 7 -27q0 -55 -56 -55q-33 0 -49 33q-59 119 -72 151q-35 90 -34 184v19q-41 -123 -113 -195q-49 -49 -80 -67 q-49 -27 -119 -27q-276 0 -276 248zM137 295q0 -154 174 -154q88 0 152 66q51 53 84 137q20 63 41 125q12 39 24 115q12 66 29 102q2 7 16 27q-35 27 -106 26q-139 0 -248 -98q-100 -94 -147 -248q-18 -59 -19 -98zM276 971q0 14 11 24q25 25 74 83.5t71.5 81t40.5 22.5 q23 0 43.5 -31t69.5 -74.5t67 -68.5q10 -14 11 -31q0 -53 -54 -53q-23 0 -39 23.5t-49 51.5q-51 45 -57 52q-47 -35 -129 -105q-10 -10 -25 -10q-35 0 -35 35z" />
<glyph unicode="&#xe3;" horiz-adv-x="821" d="M35 295q0 41 28 129q61 190 183 305q133 127 305 127q145 0 233 -111q14 -16 15 -36q0 -47 -51 -56q-4 -61 -13 -188v-148q0 -78 31 -155q8 -25 61 -131q6 -14 7 -27q0 -55 -56 -55q-33 0 -49 33q-59 119 -72 151q-35 90 -34 184v19q-41 -123 -113 -195q-49 -49 -80 -67 q-49 -27 -119 -27q-276 0 -276 248zM137 295q0 -154 174 -154q88 0 152 66q51 53 84 137q20 63 41 125q12 39 24 115q12 66 29 102q2 7 16 27q-35 27 -106 26q-139 0 -248 -98q-100 -94 -147 -248q-18 -59 -19 -98zM180 1004q0 45 59.5 100t104.5 55q61 0 122.5 -58.5 t84.5 -58.5t41 37q10 29 22.5 59.5t42.5 30.5q47 0 48 -45q0 -45 -54.5 -109.5t-99.5 -64.5q-72 0 -124 57.5t-83 57.5q-37 0 -76 -80q-12 -27 -39 -27q-49 0 -49 46z" />
<glyph unicode="&#xe4;" horiz-adv-x="821" d="M35 295q0 41 28 129q61 190 183 305q133 127 305 127q145 0 233 -111q14 -16 15 -36q0 -47 -51 -56q-4 -61 -13 -188v-148q0 -78 31 -155q8 -25 61 -131q6 -14 7 -27q0 -55 -56 -55q-33 0 -49 33q-59 119 -72 151q-35 90 -34 184v19q-41 -123 -113 -195q-49 -49 -80 -67 q-49 -27 -119 -27q-276 0 -276 248zM137 295q0 -154 174 -154q88 0 152 66q51 53 84 137q20 63 41 125q12 39 24 115q12 66 29 102q2 7 16 27q-35 27 -106 26q-139 0 -248 -98q-100 -94 -147 -248q-18 -59 -19 -98zM164 1044q0 31 39 54q33 14 63 28q39 -12 72 -36 q41 -33 41 -66q0 -61 -92 -61q-33 0 -78 27.5t-45 53.5zM471 1004q0 45 33 97t49 46q86 -35 94 -39q60 -33 60 -74q0 -72 -103 -71q-27 0 -80 14t-53 27z" />
<glyph unicode="&#xe5;" horiz-adv-x="821" d="M35 295q0 41 28 129q61 190 183 305q133 127 305 127q145 0 233 -111q14 -16 15 -36q0 -47 -51 -56q-4 -61 -13 -188v-148q0 -78 31 -155q8 -25 61 -131q6 -14 7 -27q0 -55 -56 -55q-33 0 -49 33q-59 119 -72 151q-35 90 -34 184v19q-41 -123 -113 -195q-49 -49 -80 -67 q-49 -27 -119 -27q-276 0 -276 248zM137 295q0 -154 174 -154q88 0 152 66q51 53 84 137q20 63 41 125q12 39 24 115q12 66 29 102q2 7 16 27q-35 27 -106 26q-139 0 -248 -98q-100 -94 -147 -248q-18 -59 -19 -98zM254 1040q0 66 55.5 126.5t118.5 60.5q72 0 119 -37 q65 -51 65 -119q0 -78 -61.5 -121t-153.5 -43q-63 0 -104 45q-39 39 -39 88zM356 1040q0 -31 41 -30q113 0 113 61q0 23 -22.5 44.5t-59.5 23.5q-29 2 -50.5 -32t-21.5 -67z" />
<glyph unicode="&#xe6;" horiz-adv-x="1370" d="M35 295q0 41 28 129q61 190 183 305q133 127 305 127q137 0 219 -92q57 45 121 45q119 0 250 -101.5t137 -197.5q6 -86 -150 -156q-139 -61 -272 -61q-41 0 -68 8q66 -193 312 -192q51 0 141 38q14 6 29 7q27 0 45 -19.5t18 -46.5q0 -37 -39 -55q-63 -31 -84 -37 q-41 -12 -110 -12q-266 0 -383 170q-14 -61 -19 -105q-6 -59 -59 -59q-47 0 -51 53q-4 61 15.5 132t19.5 142v19q-41 -123 -113 -195q-49 -49 -80 -67q-49 -27 -119 -27q-276 0 -276 248zM137 295q0 -154 174 -154q88 0 152 66q51 53 84 137q20 63 41 125q12 39 24 115 q12 66 29 102q2 7 16 27q-35 27 -106 26q-139 0 -248 -98q-100 -94 -147 -248q-18 -59 -19 -98zM758 481q0 -53 12 -119q188 29 231 39q148 39 148 109q0 59 -89 116.5t-169 57.5q-55 0 -94 -64.5t-39 -138.5z" />
<glyph unicode="&#xe7;" horiz-adv-x="561" d="M35 485q0 186 102.5 300t280.5 114q33 0 56.5 -6t23.5 -31q0 -35 -33 -35h-47q-137 0 -209 -98q-66 -90 -66 -244q0 -166 88 -257t250 -91q57 0 58 -55q-1 -57 -58 -57q-104 0 -178 26q-10 -31 -29 -92q143 -10 144 -162q0 -51 -66.5 -94t-126.5 -43q-37 0 -69 18 q-39 20 -39 56q0 49 47 49q14 0 31 -8q25 -12 30 -13q90 0 90 35q0 57 -49 60q-18 -6 -59 -7q-51 0 -51 44q0 10 2 20q10 39 32 88q31 70 37 84q-193 113 -192 399z" />
<glyph unicode="&#xe8;" horiz-adv-x="741" d="M29 623q0 117 80.5 222t179.5 105q119 0 250 -101t137 -198q6 -86 -150 -155q-139 -61 -272 -62q-41 0 -68 8q66 -193 312 -192q51 0 141 39q14 6 29 6q27 0 45 -19.5t18 -46.5q0 -37 -39 -55q-63 -31 -84 -37q-41 -12 -110 -12q-469 0 -469 498zM74 1286q0 23 16 40 t39 17t39 -18q63 -76 192 -215q18 -18 19 -39q0 -55 -55 -55q-20 0 -39 18q-33 33 -97.5 108t-97.5 107q-16 16 -16 37zM156 623q0 -53 12 -119q188 29 231 39q148 38 148 108q0 59 -89 116.5t-169 57.5q-55 0 -94 -64.5t-39 -137.5z" />
<glyph unicode="&#xe9;" horiz-adv-x="741" d="M29 623q0 117 80.5 222t179.5 105q119 0 250 -101t137 -198q6 -86 -150 -155q-139 -61 -272 -62q-41 0 -68 8q66 -193 312 -192q51 0 141 39q14 6 29 6q27 0 45 -19.5t18 -46.5q0 -37 -39 -55q-63 -31 -84 -37q-41 -12 -110 -12q-469 0 -469 498zM156 623q0 -53 12 -119 q188 29 231 39q148 38 148 108q0 59 -89 116.5t-169 57.5q-55 0 -94 -64.5t-39 -137.5zM291 1061q0 12 8 26q37 61 117 138q98 96 125 129q12 14 26 14q39 0 39 -37q0 -12 -8 -22q-76 -86 -213 -275q-14 -25 -41 -24q-53 0 -53 51z" />
<glyph unicode="&#xea;" horiz-adv-x="741" d="M29 623q0 117 80.5 222t179.5 105q119 0 250 -101t137 -198q6 -86 -150 -155q-139 -61 -272 -62q-41 0 -68 8q66 -193 312 -192q51 0 141 39q14 6 29 6q27 0 45 -19.5t18 -46.5q0 -37 -39 -55q-63 -31 -84 -37q-41 -12 -110 -12q-469 0 -469 498zM156 623q0 -53 12 -119 q188 29 231 39q148 38 148 108q0 59 -89 116.5t-169 57.5q-55 0 -94 -64.5t-39 -137.5zM164 1022q0 14 10 25q25 25 74 83t71.5 80.5t40.5 22.5q23 0 43.5 -31t70 -74.5t67.5 -68.5q10 -14 10 -31q0 -53 -53 -53q-23 0 -39.5 23.5t-48.5 52.5q-51 45 -58 51 q-47 -35 -129 -105q-10 -10 -24 -10q-35 0 -35 35z" />
<glyph unicode="&#xeb;" horiz-adv-x="741" d="M29 623q0 117 80.5 222t179.5 105q119 0 250 -101t137 -198q6 -86 -150 -155q-139 -61 -272 -62q-41 0 -68 8q66 -193 312 -192q51 0 141 39q14 6 29 6q27 0 45 -19.5t18 -46.5q0 -37 -39 -55q-63 -31 -84 -37q-41 -12 -110 -12q-469 0 -469 498zM92 1085q0 31 39 54 q33 14 64 28q39 -12 71 -37q41 -32 41 -65q0 -61 -92 -61q-33 0 -78 27.5t-45 53.5zM156 623q0 -53 12 -119q188 29 231 39q148 38 148 108q0 59 -89 116.5t-169 57.5q-55 0 -94 -64.5t-39 -137.5zM399 1044q0 45 33 97.5t49 46.5q86 -35 94 -39q60 -33 60 -74 q0 -72 -103 -71q-27 0 -80 14t-53 26z" />
<glyph unicode="&#xec;" horiz-adv-x="260" d="M-100 1317q0 23 16 40t39 17t39 -18q63 -76 192 -215q18 -18 19 -39q0 -55 -55 -55q-20 0 -39 18q-33 33 -97.5 107.5t-97.5 107.5q-16 16 -16 37zM43 178q4 23 4 107q0 6 2 37.5t2 37.5q0 82 22.5 228.5t22.5 225.5t23 128q4 14 22 16q18 4 27 -10q29 -54 29 -117 q0 -78 -11.5 -234.5t-11.5 -236.5v-36q-2 -33 -2 -39q0 -74 -8 -127.5t-60 -53.5q-29 0 -48 20.5t-13 53.5z" />
<glyph unicode="&#xed;" horiz-adv-x="260" d="M43 178q4 23 4 107q0 6 2 37.5t2 37.5q0 82 22.5 228.5t22.5 225.5t23 128q4 14 22 16q18 4 27 -10q29 -54 29 -117q0 -78 -11.5 -234.5t-11.5 -236.5v-36q-2 -33 -2 -39q0 -74 -8 -127.5t-60 -53.5q-29 0 -48 20.5t-13 53.5zM86 1102q0 12 8 26q37 61 117 138 q98 96 125 129q12 14 26 14q39 0 39 -37q0 -12 -8 -22q-76 -86 -213 -275q-14 -25 -41 -24q-53 0 -53 51z" />
<glyph unicode="&#xee;" horiz-adv-x="260" d="M-31 1022q0 14 11 25q25 25 73.5 83t71 80.5t41.5 22.5q23 0 43 -31t69.5 -74.5t67.5 -68.5q10 -14 10 -31q0 -53 -53 -53q-23 0 -39 23.5t-49 52.5q-51 45 -57 51q-47 -35 -129 -105q-10 -10 -25 -10q-35 0 -35 35zM43 178q4 23 4 107q0 6 2 37.5t2 37.5 q0 82 22.5 228.5t22.5 225.5t23 128q4 14 22 16q18 4 27 -10q29 -54 29 -117q0 -78 -11.5 -234.5t-11.5 -236.5v-36q-2 -33 -2 -39q0 -74 -8 -127.5t-60 -53.5q-29 0 -48 20.5t-13 53.5z" />
<glyph unicode="&#xef;" horiz-adv-x="260" d="M-102 1116q0 31 39 53q31 14 63 29q39 -12 72 -37q41 -32 41 -65q0 -61 -93 -62q-33 0 -77.5 28t-44.5 54zM43 178q4 23 4 107q0 6 2 37.5t2 37.5q0 82 22.5 228.5t22.5 225.5t23 128q4 14 22 16q18 4 27 -10q29 -54 29 -117q0 -78 -11.5 -234.5t-11.5 -236.5v-36 q-2 -33 -2 -39q0 -74 -8 -127.5t-60 -53.5q-29 0 -48 20.5t-13 53.5zM205 1075q0 45 32.5 97.5t49.5 46.5q86 -35 94 -39q59 -33 59 -74q0 -72 -102 -72q-27 0 -80 14.5t-53 26.5z" />
<glyph unicode="&#xf0;" horiz-adv-x="813" d="M51 229q0 106 94 187q90 74 203 73q195 0 318 -112q0 111 -2 149q-8 160 -52 283q-27 78 -65 139q-6 -8 -23 -26l-143 -174q-12 -23 -35 -23q-27 0 -54.5 28.5t-27.5 61.5q0 16 8 29l146 178q14 16 41 47q-37 45 -207 215q-18 18 -19 41q0 23 18.5 41t43.5 18 q23 0 41 -16q121 -117 201 -221q23 25 77 78q12 12 29 12q27 0 51.5 -30.5t24.5 -63.5q0 -23 -14 -39l-84 -84q55 -102 77 -174q43 -135 54 -320q4 -76 0 -207q-6 -47 -13 -92q-8 -59 -30 -102q-63 -125 -168 -182q-92 -51 -158 -52q-150 0 -223 78q-109 113 -109 260z M152 229q0 -137 59 -204q43 -49 127 -50q78 0 154 39q94 47 141 136q6 16 16 49q-8 6 -16 22q-33 66 -110 108t-175 42q-72 0 -131 -37q-66 -43 -65 -105z" />
<glyph unicode="&#xf1;" horiz-adv-x="684" d="M33 20v119q12 199 12 230v96q0 109 -4 131q-10 51 33 51t49 -51q2 -25 -2 -119q102 117 205 129q31 4 77 4q115 0 185 -137q61 -119 61 -266q0 -57 -4 -88v-33q-2 -18 -2 -27q0 -59 -63 -59t-64 59q0 4 2 60q4 111 4 88q0 293 -119 293q-76 0 -112 -35q-31 -20 -98 -92 q-10 -10 -37 -35q-12 -20 -33 -25q2 -78 2 -182l2 -111q0 -47 -47 -47t-47 47zM57 768q0 45 59.5 100.5t104.5 55.5q61 0 123 -58.5t84 -58.5q23 0 41 37q10 29 22.5 59.5t43.5 30.5q47 0 47 -45t-54.5 -109.5t-99.5 -64.5q-72 0 -124 57t-83 57q-37 0 -76 -79 q-12 -27 -39 -27q-49 0 -49 45z" />
<glyph unicode="&#xf2;" horiz-adv-x="722" d="M35 385q0 37 8 64q74 264 246 264q170 0 283.5 -94.5t113.5 -256.5q0 -133 -70 -249q-78 -129 -190 -129q-203 0 -287 104q-47 57 -71 129q-33 59 -33 168zM63 1071q0 23 16.5 40t39.5 17t39 -18q63 -76 192 -215q18 -18 19 -39q0 -55 -56 -55q-20 0 -39 18 q-33 33 -97 107.5t-97 107.5q-16 16 -17 37zM123 420q-18 -76 14 -150q27 -61 76 -123q43 -53 213 -53q70 0 106 96q31 76 31 172q0 106 -82 168q-76 55 -192 56q-59 0 -104.5 -48.5t-61.5 -117.5z" />
<glyph unicode="&#xf3;" horiz-adv-x="722" d="M35 385q0 37 8 64q74 264 246 264q170 0 283.5 -94.5t113.5 -256.5q0 -133 -70 -249q-78 -129 -190 -129q-203 0 -287 104q-47 57 -71 129q-33 59 -33 168zM123 420q-18 -76 14 -150q27 -61 76 -123q43 -53 213 -53q70 0 106 96q31 76 31 172q0 106 -82 168 q-76 55 -192 56q-59 0 -104.5 -48.5t-61.5 -117.5zM260 846q0 12 8 26q37 61 117 138q98 96 125 129q12 14 27 14q39 0 38 -37q0 -12 -8 -22q-76 -86 -213 -275q-14 -25 -41 -24q-53 0 -53 51z" />
<glyph unicode="&#xf4;" horiz-adv-x="722" d="M35 385q0 37 8 64q74 264 246 264q170 0 283.5 -94.5t113.5 -256.5q0 -133 -70 -249q-78 -129 -190 -129q-203 0 -287 104q-47 57 -71 129q-33 59 -33 168zM123 420q-18 -76 14 -150q27 -61 76 -123q43 -53 213 -53q70 0 106 96q31 76 31 172q0 106 -82 168 q-76 55 -192 56q-59 0 -104.5 -48.5t-61.5 -117.5zM143 838q0 14 11 24q25 25 73.5 83.5t71.5 81t41 22.5q23 0 43 -31t69.5 -75t67.5 -69q10 -14 10 -30q0 -53 -53 -53q-23 0 -39 23.5t-49 51.5q-51 45 -57 52q-47 -35 -129 -105q-10 -10 -25 -10q-35 0 -35 35z" />
<glyph unicode="&#xf5;" horiz-adv-x="722" d="M35 385q0 37 8 64q74 264 246 264q170 0 283.5 -94.5t113.5 -256.5q0 -133 -70 -249q-78 -129 -190 -129q-203 0 -287 104q-47 57 -71 129q-33 59 -33 168zM98 829q0 45 59.5 100.5t104.5 55.5q61 0 122.5 -58.5t84.5 -58.5t41 37q10 29 22.5 59.5t42.5 30.5q47 0 48 -45 q0 -45 -54.5 -109.5t-99.5 -64.5q-72 0 -124 57.5t-83 57.5q-37 0 -76 -80q-12 -27 -39 -27q-49 0 -49 45zM123 420q-18 -76 14 -150q27 -61 76 -123q43 -53 213 -53q70 0 106 96q31 76 31 172q0 106 -82 168q-76 55 -192 56q-59 0 -104.5 -48.5t-61.5 -117.5z" />
<glyph unicode="&#xf6;" horiz-adv-x="722" d="M35 385q0 37 8 64q74 264 246 264q170 0 283.5 -94.5t113.5 -256.5q0 -133 -70 -249q-78 -129 -190 -129q-203 0 -287 104q-47 57 -71 129q-33 59 -33 168zM82 870q0 31 39 54q33 14 63 28q39 -12 72 -37q41 -32 41 -65q0 -61 -92 -62q-33 0 -78 28t-45 54zM123 420 q-18 -76 14 -150q27 -61 76 -123q43 -53 213 -53q70 0 106 96q31 76 31 172q0 106 -82 168q-76 55 -192 56q-59 0 -104.5 -48.5t-61.5 -117.5zM389 829q0 45 33 97.5t49 46.5q86 -35 94 -39q60 -33 60 -74q0 -72 -103 -72q-27 0 -80 14.5t-53 26.5z" />
<glyph unicode="&#xf7;" horiz-adv-x="638" d="M68 526q0 55 49 58q20 2 145 12q102 8 144 8q95 0 126 -2q49 -4 50 -51q0 -59 -70 -62h-53q-47 2 -53 3q-41 0 -142 -9q-123 -10 -143 -12q-53 -2 -53 55zM246 328q0 14 18 34l27 27q14 -2 38.5 11.5t30.5 13.5q8 0 33 -22t25 -32q0 -20 -28 -59t-42 -39 q-25 0 -63.5 23.5t-38.5 42.5zM262 713q0 49 62 73q35 -2 56 -30.5t21 -59.5q0 -49 -65 -49q-74 0 -74 66z" />
<glyph unicode="&#xf8;" horiz-adv-x="722" d="M6 -57q0 18 17 34q39 39 108 121q-39 47 -63 119q-33 59 -33 168q0 37 8 64q74 264 246 264q123 0 221 -51q39 55 121 165q12 14 26 15q39 0 39 -39q0 -15 -8 -25q-31 -39 -115 -160q113 -96 113 -256q0 -133 -70 -249q-78 -129 -190 -129q-129 0 -221 51 q-61 -76 -113 -127q-16 -16 -35 -17q-51 0 -51 52zM123 420q-18 -78 14 -150q27 -57 53 -94q27 35 250 379q-68 31 -151 31q-59 0 -104.5 -48.5t-61.5 -117.5zM262 113q51 -18 164 -19q70 0 106 96q31 76 31 172q0 88 -57 146q-78 -133 -244 -395z" />
<glyph unicode="&#xf9;" d="M23 999q0 23 16 40.5t39 17.5t39 -19q63 -76 192 -215q18 -18 19 -39q0 -55 -56 -55q-20 0 -39 19q-33 33 -97 107.5t-97 107.5q-16 16 -16 36zM35 317q0 377 86 367q14 -2 14 -53q0 -35 -10 -148.5t-10 -169.5q0 -119 96 -174q35 -20 74 -20q88 0 116 114q10 41 21 213 q4 55 12 164q4 49 53 49q55 0 50 -55q-4 -18 -9 -63q-2 -29 -2 -95q0 -78 4.5 -126t20.5 -134q4 -31 41 -168q2 -10 2 -18q0 -61 -68 -61q-47 0 -58 45t-30 131q-45 -119 -153 -119q-74 0 -131 35q-119 72 -119 286z" />
<glyph unicode="&#xfa;" d="M35 317q0 377 86 367q14 -2 14 -53q0 -35 -10 -148.5t-10 -169.5q0 -119 96 -174q35 -20 74 -20q88 0 116 114q10 41 21 213q4 55 12 164q4 49 53 49q55 0 50 -55q-4 -18 -9 -63q-2 -29 -2 -95q0 -78 4.5 -126t20.5 -134q4 -31 41 -168q2 -10 2 -18q0 -61 -68 -61 q-47 0 -58 45t-30 131q-45 -119 -153 -119q-74 0 -131 35q-119 72 -119 286zM260 795q0 12 8 26q37 61 117 137q98 96 125 129q12 14 27 15q39 0 38 -37q0 -13 -8 -23q-76 -86 -213 -274q-14 -25 -41 -25q-53 0 -53 52z" />
<glyph unicode="&#xfb;" d="M35 317q0 377 86 367q14 -2 14 -53q0 -35 -10 -148.5t-10 -169.5q0 -119 96 -174q35 -20 74 -20q88 0 116 114q10 41 21 213q4 55 12 164q4 49 53 49q55 0 50 -55q-4 -18 -9 -63q-2 -29 -2 -95q0 -78 4.5 -126t20.5 -134q4 -31 41 -168q2 -10 2 -18q0 -61 -68 -61 q-47 0 -58 45t-30 131q-45 -119 -153 -119q-74 0 -131 35q-119 72 -119 286zM154 807q0 14 10 24q25 25 74 83.5t71.5 81t40.5 22.5q23 0 43.5 -31t69.5 -74.5t67 -68.5q10 -14 11 -31q0 -53 -54 -53q-23 0 -39 23.5t-49 52.5q-51 45 -57 51q-47 -35 -129 -105 q-10 -10 -25 -10q-35 0 -34 35z" />
<glyph unicode="&#xfc;" d="M35 317q0 377 86 367q14 -2 14 -53q0 -35 -10 -148.5t-10 -169.5q0 -119 96 -174q35 -20 74 -20q88 0 116 114q10 41 21 213q4 55 12 164q4 49 53 49q55 0 50 -55q-4 -18 -9 -63q-2 -29 -2 -95q0 -78 4.5 -126t20.5 -134q4 -31 41 -168q2 -10 2 -18q0 -61 -68 -61 q-47 0 -58 45t-30 131q-45 -119 -153 -119q-74 0 -131 35q-119 72 -119 286zM61 840q0 31 39 53q33 14 64 29q39 -12 72 -37q40 -33 40 -66q0 -61 -92 -61q-33 0 -78 27.5t-45 54.5zM369 799q0 45 32.5 97t49.5 46q86 -35 94 -39q59 -33 59 -74q0 -72 -102 -71q-27 0 -80 14 t-53 27z" />
<glyph unicode="&#xfd;" horiz-adv-x="645" d="M-41 -190q8 23 16 38q23 41 45 48q31 2 51.5 -15.5t10.5 -81.5q-10 -150 168 -213q98 -12 78 -12q74 0 106 43q23 29 35 98q23 125 16 314q-35 -27 -90 -27q-158 0 -260 113.5t-102 279.5q0 84 8 133.5t59 49.5q27 0 47.5 -19.5t14.5 -52.5q-4 -25 -4 -111 q0 -115 53 -180q57 -72 162 -72q31 0 51 41q16 33 16 76q0 -4 9 92q8 59 24 191q6 55 62 55q72 0 65 -68q-2 -25 -12 -98q-8 -57 -8 -84q0 -37 -5 -106q4 -27 11 -70q18 -129 16 -242q2 -70 -8 -229q-16 -123 -68 -180q-63 -74 -198 -74q-66 0 -115 25q-121 37 -190 118 q-76 92 -64 220zM240 662q0 12 8 26q37 61 117 137q98 96 124 129q12 14 27 15q39 0 39 -37q0 -13 -8 -23q-76 -86 -213 -274q-14 -25 -41 -25q-53 0 -53 52z" />
<glyph unicode="&#xfe;" horiz-adv-x="591" d="M41 -266q0 10 2 81.5t2 80.5q0 362 12 485v428q0 16 -2 47v47v297q0 39 39 39q51 0 51 -53v-279h19q172 0 274 -59q119 -72 119 -209q0 -291 -389 -326q-18 0 -23 2v-30q0 -25 -10 -187q-8 -147 -6 -174q0 -10 -2 -67q-4 -63 -4 -76v-49q0 -43 -39 -43q-43 0 -43 45z M143 838q4 -37 4 -47v-121q0 -160 7 -234h2q117 0 188 43q88 54 88 160q0 199 -260 199h-29z" />
<glyph unicode="&#xff;" horiz-adv-x="645" d="M-41 -190q8 23 16 38q23 41 45 48q31 2 51.5 -15.5t10.5 -81.5q-10 -150 168 -213q98 -12 78 -12q74 0 106 43q23 29 35 98q23 125 16 314q-35 -27 -90 -27q-158 0 -260 113.5t-102 279.5q0 84 8 133.5t59 49.5q27 0 47.5 -19.5t14.5 -52.5q-4 -25 -4 -111 q0 -115 53 -180q57 -72 162 -72q31 0 51 41q16 33 16 76q0 -4 9 92q8 59 24 191q6 55 62 55q72 0 65 -68q-2 -25 -12 -98q-8 -57 -8 -84q0 -37 -5 -106q4 -27 11 -70q18 -129 16 -242q2 -70 -8 -229q-16 -123 -68 -180q-63 -74 -198 -74q-66 0 -115 25q-121 37 -190 118 q-76 92 -64 220zM41 758q0 31 39 53q33 14 63 29q39 -12 72 -37q41 -33 41 -66q0 -61 -92 -61q-33 0 -78 27.5t-45 54.5zM348 717q0 45 33 97t49 46q86 -35 94 -39q60 -32 60 -73q0 -72 -103 -72q-27 0 -80 14.5t-53 26.5z" />
<glyph unicode="&#x152;" horiz-adv-x="1566" d="M47 512q0 240 164 439.5t364 178.5q203 -20 334 -296q14 33 54 38l22 187q-14 -6 -29 -6q-27 0 -45 20.5t-18 46.5q0 35 33 54q61 35 227 53q23 2 262 22q68 6 68 -63q0 -57 -60 -62q-125 -8 -358 -37q-4 -68 -14 -223q86 -6 272 -6q66 0 66 -63t-66 -64q-154 0 -279 10 q0 -6 -2 -47q-10 -174 -32 -575q0 -43 -4 -125q156 8 471 41q33 6 53 -12.5t20 -47.5q0 -53 -57 -63q-233 -39 -414 -39q-43 0 -80 -6q-14 -41 -59 -41q-61 0 -61 63q0 25 4 127q-119 -145 -332 -145q-168 0 -270 82q-78 63 -162 217q-72 131 -72 342zM147 512 q0 -170 78 -292t127 -161q76 -63 199 -63q164 0 252 127q78 114 78 307q0 217 -74 391q-88 209 -242 226q-176 18 -301 -154q-117 -162 -117 -381z" />
<glyph unicode="&#x153;" horiz-adv-x="1351" d="M35 385q0 37 8 64q74 264 246 264q229 0 336 -152q33 86 97 143.5t136 57.5q119 0 250 -101.5t137 -197.5q6 -86 -149 -156q-139 -61 -273 -61q-41 0 -67 8q66 -193 311 -193q51 0 141 39q14 6 29 6q27 0 45 -19t18 -46q1 -37 -38 -55q-63 -31 -84 -37q-41 -12 -111 -12 q-315 0 -422 235q-80 -188 -219 -188q-203 0 -287 104q-47 57 -71 129q-33 59 -33 168zM123 420q-18 -76 14 -150q27 -61 76 -123q43 -53 213 -53q70 0 106 96q31 76 31 172q0 106 -82 168q-76 55 -192 56q-59 0 -104.5 -48.5t-61.5 -117.5zM725 434q0 -53 12 -119 q188 29 232 39q147 39 147 109q0 59 -89 116.5t-169 57.5q-55 0 -94 -64.5t-39 -138.5z" />
<glyph unicode="&#x178;" horiz-adv-x="665" d="M0 1434q0 31 39 53q33 14 63 29q39 -12 72 -37q41 -33 41 -66q0 -61 -92 -61q-33 0 -78 27.5t-45 54.5zM2 1141q0 29 35 28q10 0 12 -4q182 -313 328 -512q12 37 37 103q16 57 80 233q25 84 73 254q10 41 35 105q8 18 33 18q20 0 35.5 -11.5t9.5 -27.5q-14 -33 -29 -96 q-4 -29 -20 -96q-12 -53 -43 -158q-51 -152 -70 -244q-8 -47 -74 -252q-20 -61 -108 -274q-68 -164 -90 -285q-4 -10 -21.5 -26.5t-50.5 -16.5q-39 0 -49 29q-4 12 0 37q20 125 90 288q94 229 111 281q-84 117 -195 346q-63 133 -125 264q-4 10 -4 17zM307 1393q0 45 33 97 t49 46q86 -35 94 -39q60 -33 60 -74q0 -72 -103 -71q-27 0 -80 14t-53 27z" />
<glyph unicode="&#x2c6;" horiz-adv-x="534" d="M51 1401q0 14 10 24q25 25 74 83.5t71.5 81t41.5 22.5q23 0 43 -31t69.5 -74.5t67.5 -68.5q10 -14 10 -31q0 -53 -53 -53q-23 0 -39 23.5t-49 52.5q-51 45 -57 51q-47 -35 -129 -105q-10 -10 -25 -10q-35 0 -35 35z" />
<glyph unicode="&#x2dc;" d="M47 1403q0 45 59.5 100.5t104.5 55.5q61 0 122.5 -58.5t84.5 -58.5t41 37q10 29 22.5 59.5t42.5 30.5q47 0 47 -45t-54 -109.5t-99 -64.5q-72 0 -124 57t-83 57q-37 0 -76 -80q-12 -27 -39 -26q-49 0 -49 45z" />
<glyph unicode="&#x2000;" horiz-adv-x="899" />
<glyph unicode="&#x2001;" horiz-adv-x="1798" />
<glyph unicode="&#x2002;" horiz-adv-x="899" />
<glyph unicode="&#x2003;" horiz-adv-x="1798" />
<glyph unicode="&#x2004;" horiz-adv-x="599" />
<glyph unicode="&#x2005;" horiz-adv-x="449" />
<glyph unicode="&#x2006;" horiz-adv-x="299" />
<glyph unicode="&#x2007;" horiz-adv-x="299" />
<glyph unicode="&#x2008;" horiz-adv-x="224" />
<glyph unicode="&#x2009;" horiz-adv-x="359" />
<glyph unicode="&#x200a;" horiz-adv-x="99" />
<glyph unicode="&#x2010;" horiz-adv-x="612" d="M57 518q0 76 58 86l116 2q41 0 283 -20q39 -4 39 -54q0 -35 -21.5 -65.5t-52.5 -28.5q-25 2 -129 15q-68 10 -127 8l-112 -2q-53 -12 -54 59z" />
<glyph unicode="&#x2011;" horiz-adv-x="612" d="M57 518q0 76 58 86l116 2q41 0 283 -20q39 -4 39 -54q0 -35 -21.5 -65.5t-52.5 -28.5q-25 2 -129 15q-68 10 -127 8l-112 -2q-53 -12 -54 59z" />
<glyph unicode="&#x2012;" horiz-adv-x="612" d="M57 518q0 76 58 86l116 2q41 0 283 -20q39 -4 39 -54q0 -35 -21.5 -65.5t-52.5 -28.5q-25 2 -129 15q-68 10 -127 8l-112 -2q-53 -12 -54 59z" />
<glyph unicode="&#x2013;" horiz-adv-x="540" d="M31 420q0 43 43 51q119 20 397 21q51 0 51 -52q0 -51 -51 -51q-264 0 -381 -20q-59 -10 -59 51z" />
<glyph unicode="&#x2014;" horiz-adv-x="1093" d="M14 406q0 37 39 47q59 16 209 28q74 6 371 13q236 6 360 30q27 6 44.5 -11t17.5 -42q0 -41 -41 -49q-127 -25 -367 -29q-299 -8 -373.5 -13t-199.5 -22q-27 -4 -43.5 10.5t-16.5 37.5z" />
<glyph unicode="&#x2018;" horiz-adv-x="460" d="M98 1008q0 61 109.5 200.5t152.5 139.5q10 0 11 -19q0 -8 -2 -20q-8 -33 -47 -83t-39 -89t34.5 -86t34.5 -68q0 -14 -6 -29q-37 -76 -129 -75q-119 0 -119 129z" />
<glyph unicode="&#x2019;" horiz-adv-x="460" d="M96 788q0 8 2 21q8 33 49 86q37 47 37 86t-34.5 86t-34.5 68q0 14 6 28q37 76 129 76q119 0 119 -129q0 -61 -109.5 -200.5t-153.5 -139.5q-10 0 -10 18z" />
<glyph unicode="&#x201a;" horiz-adv-x="569" d="M147 -236q0 8 3 21q8 33 49 86q37 47 37 86t-35 86t-35 68q0 14 6 28q37 76 129 76q119 0 119 -129q0 -61 -109.5 -200.5t-152.5 -139.5q-10 0 -11 18z" />
<glyph unicode="&#x201c;" horiz-adv-x="788" d="M98 1008q0 61 109.5 200.5t152.5 139.5q10 0 11 -19q0 -8 -2 -20q-8 -33 -47 -83t-39 -89t34.5 -86t34.5 -68q0 -14 -6 -29q-37 -76 -129 -75q-119 0 -119 129zM440 1008q0 61 109.5 200.5t152.5 139.5q10 0 11 -19q0 -8 -2 -20q-8 -33 -47 -83t-39 -89t34.5 -86 t34.5 -68q0 -14 -6 -29q-37 -76 -129 -75q-119 0 -119 129z" />
<glyph unicode="&#x201d;" horiz-adv-x="727" d="M74 788q0 8 2 21q8 33 49 86q37 47 37 86t-35 86t-35 68q0 14 6 28q37 76 129 76q119 0 119 -129q0 -61 -109.5 -200.5t-152.5 -139.5q-10 0 -10 18zM401 788q0 8 2 21q8 33 50 86q37 47 36 86q0 39 -34.5 86t-34.5 68q0 14 6 28q37 76 129 76q119 0 119 -129 q0 -61 -109.5 -200.5t-152.5 -139.5q-10 0 -11 18z" />
<glyph unicode="&#x201e;" horiz-adv-x="819" d="M147 -236q0 8 3 21q8 33 49 86q37 47 37 86t-35 86t-35 68q0 14 6 28q37 76 129 76q119 0 119 -129q0 -61 -109.5 -200.5t-152.5 -139.5q-10 0 -11 18zM465 -236q0 8 2 21q8 33 49 86q37 47 37 86t-35 86t-35 68q0 14 6 28q37 76 129 76q119 0 119 -129 q0 -61 -109.5 -200.5t-152.5 -139.5q-10 0 -10 18z" />
<glyph unicode="&#x2022;" horiz-adv-x="552" d="M43 530q0 102 61 201q68 109 166 109q82 0 156 -73t74 -136q0 -80 -56 -172q-59 -100 -127 -105q-92 -6 -190 70q-84 66 -84 106z" />
<glyph unicode="&#x2026;" horiz-adv-x="1658" d="M160 86q0 27 42 77t91 56q63 8 115.5 -27t56.5 -96q2 -55 -40 -99t-93 -44q-63 0 -117.5 39t-54.5 94zM717 51q0 84 92 154q66 -18 109 -66q45 -53 45 -119q0 -37 -37 -64.5t-76 -27.5q-43 0 -88 40t-45 83zM1249 72q0 94 92 153q205 -43 205 -92q0 -154 -184 -153 q-113 0 -113 92z" />
<glyph unicode="&#x202f;" horiz-adv-x="359" />
<glyph unicode="&#x2039;" horiz-adv-x="516" d="M66 446q0 23 26 43q111 82 219 191q16 16 37 16q53 0 53 -53q0 -20 -16 -37q-68 -68 -160 -143q85 -18 232 -57q35 -10 35 -48q0 -55 -50 -55q-8 0 -18 4q-29 10 -162 43q-109 27 -162 53q-35 18 -34 43z" />
<glyph unicode="&#x203a;" horiz-adv-x="516" d="M86 612q0 49 45 50q8 0 16 -3q100 -31 285 -77q41 -10 41 -41q0 -15 -8 -31q-57 -117 -305 -201q-10 -4 -19 -4q-49 0 -49 55q0 33 98 78q129 57 140 66q-129 37 -211 65q-33 12 -33 43z" />
<glyph unicode="&#x205f;" horiz-adv-x="449" />
<glyph unicode="&#x2122;" horiz-adv-x="1019" d="M4 1257q0 18 8 23q16 2 43 2q10 0 39 -2t43 -2q2 -2 41 -4h133q25 0 35 -2q27 -2 27 -39q0 -41 -27 -41h-31q-70 0 -73 2q-8 10 -9 6q0 -53 -6 -190q-6 -119 -4 -189q0 -10 10 -112q4 -23 9 -82q8 -49 -37 -49q-37 0 -39 40q0 4 -8 87q-2 18 -4 112q-4 176 6 305 q6 76 6 74q-12 2 -33 2q-31 6 -67 6q-8 0 -28 16.5t-27 16.5t-7 20zM319 686q0 92 54 313q12 53 45 152q14 31 37 31q18 0 37 -25q59 -78 143 -315q2 6 8 35q41 139 102 423q6 41 39 41q25 0 39 -30q8 -16 11 -49q2 -49 4 -61.5t12 -45.5q6 -25 6 -45q0 -8 31 -114.5 t49 -157.5q5 -29 25 -84q4 -10 4 -19q0 -45 -50 -45q-25 0 -35 25.5t-32 93.5q-12 39 -66 299q-6 31 -6 41l21 -2q-29 -94 -82 -287q-6 -27 -19 -88q-8 -35 -18 -72q2 -20 -12.5 -34.5t-34.5 -14.5q-37 0 -92 166q-35 106 -70 213q-8 -27 -23 -72q-27 -92 -53 -184 q-35 -109 -59 -108q-4 0 -9.5 2t-5.5 18z" />
<glyph unicode="&#x25fc;" horiz-adv-x="727" d="M0 0v727h727v-727h-727z" />
</font>
</defs>
</svg>
